<?xml version="1.0" encoding="iso-8859-1"?>
<!-- Uploaded to: SVG Repo, www.svgrepo.com, Generator: SVG Repo Mixer Tools -->
<svg version="1.1" id="Layer_1" xmlns="http://www.w3.org/2000/svg" xmlns:xlink="http://www.w3.org/1999/xlink" 
	 viewBox="0 0 290.625 290.625" xml:space="preserve">
<g>
	<g>
		<rect x="4.687" y="161.719" style="fill:#F9BA48;" width="281.25" height="126.563"/>
		<path style="fill:#333333;" d="M269.911,145.781l8.587,3.755c8.048-18.413,12.127-37.969,12.127-58.13
			c0-31.73-10.055-61.88-29.062-87.192l-7.5,5.63c17.784,23.677,27.187,51.881,27.187,81.563
			C281.25,110.269,277.439,128.559,269.911,145.781z"/>
		<path style="fill:#333333;" d="M20.719,145.781c-7.528-17.227-11.344-35.522-11.344-54.375c0-29.681,9.403-57.886,27.187-81.558
			l-7.5-5.634C10.055,29.526,0,59.676,0,91.406c0,20.156,4.078,39.713,12.131,58.125L20.719,145.781z"/>
		<path style="fill:#333333;" d="M43.847,150.005l8.109-4.697C42.497,128.962,37.5,110.325,37.5,91.406
			c0-30.9,13.317-60.375,36.539-80.859l-6.197-7.031c-25.242,22.265-39.717,54.3-39.717,87.89
			C28.125,111.97,33.558,132.23,43.847,150.005z"/>
		<path style="fill:#333333;" d="M253.125,91.406c0,18.919-4.997,37.556-14.456,53.902l8.109,4.697
			C257.067,132.23,262.5,111.97,262.5,91.406c0-33.591-14.475-65.625-39.717-87.891l-6.197,7.031
			C239.808,31.031,253.125,60.506,253.125,91.406z"/>
		<path style="fill:#333333;" d="M234.375,91.406c0-49.111-39.952-89.063-89.062-89.063S56.25,42.295,56.25,91.406
			c0,25.219,10.641,48.881,28.941,65.625H4.687v9.375h4.687v32.813H4.687v9.375h37.5v32.813h-37.5v9.375h4.687v37.5h9.375v-37.5
			h23.437H75v37.5h9.375v-37.5h32.812h23.437v37.5H150v-37.5h56.25v37.5h9.375v-37.5h56.25v37.5h9.375v-37.5h4.688v-9.375h-37.5
			v-32.813h37.5v-9.375h-4.688v-32.813h4.688v-9.375h-80.503C223.734,140.287,234.375,116.625,234.375,91.406z M150,199.219v-32.813
			h43.331h12.919v32.813H150z M117.187,58.594c0-15.736,4.645-30.825,13.373-43.927c6.225,3.53,11.995,7.725,17.236,12.539
			c-1.561,2.264-2.484,4.997-2.484,7.95c0,0.816,0.108,1.608,0.239,2.386c-11.644,8.213-21.075,18.928-27.614,31.448
			C117.483,65.541,117.187,62.072,117.187,58.594z M168.75,138.281c0-2.583,2.1-4.688,4.688-4.688s4.688,2.105,4.688,4.688
			s-2.1,4.688-4.688,4.688S168.75,140.864,168.75,138.281z M173.437,124.219c-4.716,0-8.873,2.353-11.423,5.925
			c-14.845-7.238-27.047-18.891-34.983-33.403c0.928-0.914,1.688-1.978,2.334-3.117c6.75,1.608,13.664,2.47,20.634,2.47
			s13.884-0.862,20.634-2.475c1.627,2.864,4.2,5.091,7.327,6.248c-0.337,8.278-1.781,16.444-4.312,24.375
			C173.578,124.237,173.508,124.219,173.437,124.219z M117.187,82.031c2.588,0,4.688,2.105,4.688,4.688
			c0,2.583-2.1,4.688-4.688,4.688c-2.587,0-4.687-2.105-4.687-4.688C112.5,84.136,114.6,82.031,117.187,82.031z M182.812,91.406
			c-2.587,0-4.688-2.105-4.688-4.688c0-2.583,2.1-4.688,4.688-4.688c2.587,0,4.687,2.105,4.687,4.688
			C187.499,89.301,185.4,91.406,182.812,91.406z M168.989,84.37c-12.422,3.047-25.556,3.047-37.973,0.005
			c-0.633-3.75-2.737-6.989-5.714-9.108c5.737-11.747,14.245-21.834,24.905-29.541c2.466,2.147,5.648,3.492,9.169,3.492
			c1.912,0,3.736-0.389,5.4-1.088c4.959,8.287,8.564,17.198,10.753,26.616C172.125,76.828,169.678,80.287,168.989,84.37z
			 M159.375,39.844c-2.587,0-4.688-2.105-4.688-4.688s2.1-4.687,4.688-4.687c2.587,0,4.687,2.105,4.687,4.687
			C164.062,37.739,161.962,39.844,159.375,39.844z M117.82,100.716c0.23-0.009,0.45-0.047,0.675-0.07
			c9.131,16.997,23.484,30.539,40.983,38.658c0.22,3.014,1.383,5.747,3.216,7.936c-2.236,3.417-4.664,6.698-7.317,9.787h-22.861
			c-10.003-13.678-15.328-29.817-15.328-46.87C117.187,107.006,117.445,103.851,117.82,100.716z M140.625,166.406v32.813h-23.437
			H84.375v-32.813h12.919H140.625z M173.437,208.594v32.813h-56.25v-32.813H173.437z M167.428,157.031
			c1.177-1.603,2.222-3.295,3.305-4.959c0.877,0.169,1.777,0.272,2.705,0.272c4.575,0,8.611-2.231,11.18-5.625
			c4.073,0.567,8.17,0.938,12.258,0.938c1.688,0,3.394-0.155,5.095-0.253c-3.488,3.525-7.322,6.755-11.489,9.628h-23.054V157.031z
			 M210.647,137.006c-7.791,1.364-15.558,1.547-23.212,0.628c-0.188-4.055-2.095-7.627-5.011-10.078
			c2.906-8.967,4.552-18.206,4.908-27.586c5.531-1.894,9.544-7.088,9.544-13.252c0-1.28-0.23-2.503-0.548-3.68
			c8.841-5.409,16.706-12.361,23.194-20.466c3.492,8.953,5.48,18.656,5.48,28.833C225,107.986,219.862,123.82,210.647,137.006z
			 M215.001,52.851c-6.398,9.056-14.634,16.697-24.108,22.397c-1.8-1.27-3.914-2.091-6.197-2.4
			c-2.55-11.095-6.872-21.572-12.909-31.233c1.022-1.945,1.65-4.12,1.65-6.459c0-0.342-0.075-0.666-0.103-1.003
			c7.552-2.367,15.337-3.642,23.236-3.675C203.995,36.736,210.258,44.311,215.001,52.851z M184.43,22.059
			c-5.03,0.722-9.989,1.88-14.864,3.464c-2.564-2.714-6.169-4.43-10.191-4.43c-1.317,0-2.564,0.239-3.773,0.581
			c-3.755-3.586-7.762-6.886-12.014-9.867c0.577-0.014,1.139-0.089,1.725-0.089C159.53,11.719,172.861,15.506,184.43,22.059z
			 M118.542,16.444c-7.017,12.933-10.73,27.281-10.73,42.15c0,5.512,0.544,11.02,1.566,16.439c-0.117,0.08-0.22,0.178-0.333,0.262
			C96.989,68.044,87.15,57.82,80.325,45.45C89.709,32.217,103.012,22.008,118.542,16.444z M74.761,54.483
			c7.327,11.639,17.175,21.347,28.927,28.523c-0.333,1.191-0.562,2.419-0.562,3.712c0,0.441,0.089,0.853,0.131,1.284
			c-13.322,7.195-24.68,17.756-32.855,30.511c-3.103-8.569-4.777-17.714-4.777-27.108C65.625,78.08,68.953,65.536,74.761,54.483z
			 M75.089,129.042c7.303-13.688,18.525-25.045,32.067-32.498c0.487,0.497,1.036,0.928,1.594,1.35
			c-0.567,4.064-0.937,8.166-0.937,12.263c0,16.809,4.636,32.831,13.387,46.875h-21.052C89.508,149.7,81,140.062,75.089,129.042z
			 M18.75,166.406H75v32.813H42.187H18.75V166.406z M51.562,208.594h56.25v32.813h-56.25
			C51.562,241.407,51.562,208.594,51.562,208.594z M239.062,241.406h-56.25v-32.813h56.25V241.406z M271.875,199.219h-56.25v-32.813
			h56.25V199.219z"/>
	</g>
</g>
</svg>