<?xml version="1.0" encoding="UTF-8" standalone="no"?>
<!-- Generator: Adobe Illustrator 27.5.0, SVG Export Plug-In . SVG Version: 6.00 Build 0)  -->

<svg
   version="1.1"
   x="0px"
   y="0px"
   viewBox="0 0 500 500"
   style="enable-background:new 0 0 500 500;"
   xml:space="preserve"
   id="svg14910"
   sodipodi:docname="8051917_3819879.svg"
   inkscape:version="1.2.2 (b0a8486541, 2022-12-01)"
   xmlns:inkscape="http://www.inkscape.org/namespaces/inkscape"
   xmlns:sodipodi="http://sodipodi.sourceforge.net/DTD/sodipodi-0.dtd"
   xmlns="http://www.w3.org/2000/svg"
   xmlns:svg="http://www.w3.org/2000/svg"><defs
   id="defs14914" /><sodipodi:namedview
   id="namedview14912"
   pagecolor="#ffffff"
   bordercolor="#000000"
   borderopacity="0.25"
   inkscape:showpageshadow="2"
   inkscape:pageopacity="0.0"
   inkscape:pagecheckerboard="0"
   inkscape:deskcolor="#d1d1d1"
   showgrid="false"
   inkscape:zoom="0.71417785"
   inkscape:cx="121.8184"
   inkscape:cy="305.2461"
   inkscape:window-width="1366"
   inkscape:window-height="667"
   inkscape:window-x="0"
   inkscape:window-y="0"
   inkscape:window-maximized="1"
   inkscape:current-layer="svg14910" />
<g
   id="BACKGROUND">
	<rect
   x="0.104"
   y="-0.12"
   style="fill:#5DBDCB;"
   width="500"
   height="500"
   id="rect14742" />
</g>
<g
   id="OBJECTS">
	<g
   id="g14759">
		<polygon
   style="fill:#222324;"
   points="109.861,122.658 153.869,143.734 197.884,122.658   "
   id="polygon14745" />
		<polygon
   style="fill:#222324;"
   points="109.861,122.626 153.869,101.551 197.884,122.626   "
   id="polygon14747" />
		<rect
   x="122.982"
   y="93.371"
   style="fill:#FFFFFF;"
   width="62.812"
   height="55.06"
   id="rect14749" />
		<rect
   x="131.334"
   y="105.118"
   style="fill:#A4DDFC;"
   width="46.879"
   height="3.767"
   id="rect14751" />
		<rect
   x="131.334"
   y="118.739"
   style="fill:#A4DDFC;"
   width="46.879"
   height="3.767"
   id="rect14753" />
		<rect
   x="131.334"
   y="132.361"
   style="fill:#A4DDFC;"
   width="46.879"
   height="3.767"
   id="rect14755" />
		<polygon
   style="fill:#FFA02B;"
   points="197.884,186.675 109.861,186.675 109.861,122.658 153.869,143.734 197.884,122.658   "
   id="polygon14757" />
	</g>
	<ellipse
   style="fill:#4C9AA6;"
   cx="255.936"
   cy="441.299"
   rx="199.547"
   ry="9.309"
   id="ellipse14761" />
	<g
   id="g14777">
		<g
   id="g14773">
			<rect
   x="210.728"
   y="344.881"
   style="fill:#DDEDF0;"
   width="63.472"
   height="90.448"
   id="rect14763" />
			<path
   style="fill:#FFFFFF;"
   d="M412.475,175.069v200.244c0,9.065-7.356,16.408-16.408,16.408H86.479     c-9.065,0-16.408-7.342-16.408-16.408V175.069c0-9.065,7.342-16.408,16.408-16.408h309.589     C405.119,158.661,412.475,166.004,412.475,175.069z"
   id="path14765" />
			<path
   style="fill:#222324;"
   d="M210.866,391.721l63.32,14.706l0.258-14.706C274.443,391.721,212.695,391.721,210.866,391.721z"
   id="path14767" />
			<path
   style="fill:#A4DDFC;"
   d="M412.475,175.069v183.686H70.071V175.069c0-9.065,7.342-16.408,16.408-16.408h309.589     C405.119,158.661,412.475,166.004,412.475,175.069z"
   id="path14769" />
			<path
   style="fill:#FFFFFF;"
   d="M400.769,175.069v165.252c0,3.936-3.191,7.127-7.127,7.127H88.908     c-3.936,0-7.127-3.191-7.127-7.127V175.069c0-2.586,2.107-4.705,4.705-4.705h309.578     C398.662,170.364,400.769,172.482,400.769,175.069z"
   id="path14771" />
		</g>
		<path
   style="fill:#FFFFFF;"
   d="M284.721,440.717h-87.144c-3.394,0-6.145-2.751-6.145-6.145l0,0c0-3.394,2.751-6.145,6.145-6.145    h87.144c3.394,0,6.145,2.751,6.145,6.145l0,0C290.866,437.966,288.115,440.717,284.721,440.717z"
   id="path14775" />
	</g>
	<g
   id="g14791">
		<g
   id="g14787">
			<path
   style="fill:#A4DDFC;"
   d="M239.705,328.87L239.705,328.87c-26.374,0-47.755-21.381-47.755-47.755v-40.139     c0-4.206,3.41-7.616,7.616-7.616h80.279c4.206,0,7.616,3.41,7.616,7.616v40.139C287.46,307.49,266.079,328.87,239.705,328.87z"
   id="path14779" />
			<path
   style="fill:#A4DDFC;"
   d="M276.217,249.133h-73.54v-28.899c0-20.275,16.495-36.77,36.77-36.77     c20.274,0,36.77,16.495,36.77,36.77V249.133z M216.677,235.134h45.54v-14.9c0-12.556-10.215-22.77-22.77-22.77     c-12.556,0-22.77,10.214-22.77,22.77V235.134z"
   id="path14781" />
			
				<ellipse
   transform="matrix(0.1596 -0.9872 0.9872 0.1596 -69.8365 468.6359)"
   style="fill:#222324;"
   cx="240.311"
   cy="275.333"
   rx="12.704"
   ry="12.704"
   id="ellipse14783" />
			<rect
   x="235.451"
   y="270.757"
   style="fill:#222324;"
   width="9.71"
   height="29.503"
   id="rect14785" />
		</g>
		<rect
   x="251.238"
   y="219.787"
   style="fill:#FFFFFF;"
   width="27.778"
   height="13.55"
   id="rect14789" />
	</g>
	<g
   id="g14801">
		<path
   style="fill:#FFA02B;"
   d="M369.353,136.554H268.909c-4.254,0-7.702-3.448-7.702-7.702V67.025    c0-4.254,3.448-7.702,7.702-7.702h100.443c4.254,0,7.702,3.449,7.702,7.702v61.827    C377.055,133.106,373.606,136.554,369.353,136.554z"
   id="path14793" />
		<rect
   x="261.238"
   y="75.744"
   style="fill:#222324;"
   width="115.791"
   height="12.281"
   id="rect14795" />
		<path
   style="fill:#FFFFFF;"
   d="M362.709,107.537h-15.112c-2.206,0-3.994-1.788-3.994-3.994l0,0c0-2.206,1.788-3.994,3.994-3.994    h15.112c2.206,0,3.994,1.788,3.994,3.994l0,0C366.703,105.749,364.915,107.537,362.709,107.537z"
   id="path14797" />
		<path
   style="fill:#FFFFFF;"
   d="M333.888,107.537h-15.112c-2.206,0-3.994-1.788-3.994-3.994l0,0c0-2.206,1.788-3.994,3.994-3.994    h15.112c2.206,0,3.994,1.788,3.994,3.994l0,0C337.882,105.749,336.094,107.537,333.888,107.537z"
   id="path14799" />
	</g>
	<g
   id="g14855">
		<rect
   x="209.204"
   y="92.728"
   style="fill:#222324;"
   width="100.759"
   height="25.295"
   id="rect14803" />
		<g
   id="g14813">
			<rect
   x="220.153"
   y="99.313"
   style="fill:#FFFFFF;"
   width="3.112"
   height="12.324"
   id="rect14805" />
			<g
   id="g14811">
				
					<rect
   x="220.383"
   y="99.313"
   transform="matrix(0.6201 -0.7845 0.7845 0.6201 1.5676 214.1863)"
   style="fill:#FFFFFF;"
   width="3.112"
   height="12.324"
   id="rect14807" />
				
					<rect
   x="219.923"
   y="99.313"
   transform="matrix(-0.6201 -0.7845 0.7845 -0.6201 276.0715 344.635)"
   style="fill:#FFFFFF;"
   width="3.112"
   height="12.324"
   id="rect14809" />
			</g>
		</g>
		<g
   id="g14823">
			<rect
   x="238.976"
   y="99.313"
   style="fill:#FFFFFF;"
   width="3.112"
   height="12.324"
   id="rect14815" />
			<g
   id="g14821">
				
					<rect
   x="239.206"
   y="99.313"
   transform="matrix(0.6201 -0.7845 0.7845 0.6201 8.7182 228.9528)"
   style="fill:#FFFFFF;"
   width="3.112"
   height="12.324"
   id="rect14817" />
				
					<rect
   x="238.746"
   y="99.313"
   transform="matrix(-0.6201 -0.7845 0.7845 -0.6201 306.5667 359.4019)"
   style="fill:#FFFFFF;"
   width="3.112"
   height="12.324"
   id="rect14819" />
			</g>
		</g>
		<g
   id="g14833">
			<rect
   x="257.799"
   y="99.313"
   style="fill:#FFFFFF;"
   width="3.112"
   height="12.324"
   id="rect14825" />
			<g
   id="g14831">
				
					<rect
   x="258.029"
   y="99.313"
   transform="matrix(0.6201 -0.7845 0.7845 0.6201 15.8694 243.7205)"
   style="fill:#FFFFFF;"
   width="3.112"
   height="12.324"
   id="rect14827" />
				
					<rect
   x="257.569"
   y="99.313"
   transform="matrix(-0.6201 -0.7845 0.7845 -0.6201 337.0609 374.1688)"
   style="fill:#FFFFFF;"
   width="3.112"
   height="12.324"
   id="rect14829" />
			</g>
		</g>
		<g
   id="g14843">
			<rect
   x="276.621"
   y="99.313"
   style="fill:#FFFFFF;"
   width="3.112"
   height="12.324"
   id="rect14835" />
			<g
   id="g14841">
				
					<rect
   x="276.851"
   y="99.313"
   transform="matrix(0.6201 -0.7845 0.7845 0.6201 23.0199 258.4869)"
   style="fill:#FFFFFF;"
   width="3.112"
   height="12.324"
   id="rect14837" />
				
					<rect
   x="276.392"
   y="99.313"
   transform="matrix(-0.6201 -0.7845 0.7845 -0.6201 367.5556 388.9357)"
   style="fill:#FFFFFF;"
   width="3.112"
   height="12.324"
   id="rect14839" />
			</g>
		</g>
		<g
   id="g14853">
			<rect
   x="295.444"
   y="99.313"
   style="fill:#FFFFFF;"
   width="3.112"
   height="12.324"
   id="rect14845" />
			<g
   id="g14851">
				
					<rect
   x="295.674"
   y="99.313"
   transform="matrix(0.6201 -0.7845 0.7845 0.6201 30.1749 273.2605)"
   style="fill:#FFFFFF;"
   width="3.112"
   height="12.324"
   id="rect14847" />
				
					<rect
   x="295.214"
   y="99.313"
   transform="matrix(-0.6201 -0.7845 0.7845 -0.6201 398.0504 403.7025)"
   style="fill:#FFFFFF;"
   width="3.112"
   height="12.324"
   id="rect14849" />
			</g>
		</g>
	</g>
	<g
   id="g14907">
		<path
   style="fill:none;stroke:#222324;stroke-width:14;stroke-miterlimit:10;"
   d="M414.906,336.312    c0,0-80.379-20.763-56.909,59.879"
   id="path14857" />
		<path
   style="fill:none;stroke:#222324;stroke-width:14;stroke-miterlimit:10;"
   d="M417.311,315.602    c0,0-24.073,51.22,8.195,108.586"
   id="path14859" />
		
			<ellipse
   transform="matrix(0.9872 -0.1596 0.1596 0.9872 -47.5926 70.8579)"
   style="fill:#222324;"
   cx="417.245"
   cy="331.66"
   rx="11.095"
   ry="11.095"
   id="ellipse14861" />
		<path
   style="fill:none;stroke:#222324;stroke-width:20;stroke-miterlimit:10;"
   d="M415.973,336.738c0,0,8.938-67.854-37.27-56.188    "
   id="path14863" />
		
			<line
   style="fill:none;stroke:#222324;stroke-width:10;stroke-miterlimit:10;"
   x1="313.376"
   y1="289.673"
   x2="392.313"
   y2="279.758"
   id="line14865" />
		<g
   id="g14873">
			<circle
   style="fill:none;stroke:#FFA02B;stroke-width:16;stroke-miterlimit:10;"
   cx="337.683"
   cy="280.391"
   r="25.859"
   id="circle14867" />
			
				<line
   style="fill:none;stroke:#FFA02B;stroke-width:16;stroke-miterlimit:10;"
   x1="237.973"
   y1="277.276"
   x2="311.824"
   y2="277.276"
   id="line14869" />
			
				<line
   style="fill:none;stroke:#FFA02B;stroke-width:16;stroke-miterlimit:10;"
   x1="244.829"
   y1="288.914"
   x2="262.773"
   y2="288.914"
   id="line14871" />
		</g>
		<polyline
   style="fill:none;stroke:#222324;stroke-width:10;stroke-miterlimit:10;"
   points="355.501,292.722 376.099,308.237     390.221,271.777   "
   id="polyline14875" />
		<g
   id="g14889">
			<path
   style="fill:#F6CAAA;"
   d="M377.119,280.55L377.119,280.55c-9.185,0-16.632-7.446-16.632-16.632V241.05h33.263v22.868     C393.751,273.104,386.304,280.55,377.119,280.55z"
   id="path14877" />
			<rect
   x="359.75"
   y="248.386"
   style="fill:#222324;"
   width="34.668"
   height="12.971"
   id="rect14879" />
			<path
   style="fill:#FFFFFF;"
   d="M383.569,265.422c-0.03,3.81-3.129,6.89-6.949,6.89c-3.81,0-6.919-3.08-6.949-6.89H383.569z"
   id="path14881" />
			<path
   style="fill:#FFFFFF;"
   d="M389.107,252.469c0.583,2.409-0.886,4.843-3.297,5.447c-2.405,0.602-4.854-0.85-5.475-3.25     L389.107,252.469z"
   id="path14883" />
			<path
   style="fill:#FFFFFF;"
   d="M365.554,252.206c-0.752,2.362,0.542,4.893,2.904,5.666c2.356,0.771,4.902-0.505,5.691-2.855     L365.554,252.206z"
   id="path14885" />
			<path
   style="fill:#624220;"
   d="M363.501,245.611h31.433v-7.733c0-3.503-2.84-6.344-6.344-6.344h-36.856v2.309     C351.734,240.343,357.003,245.611,363.501,245.611z"
   id="path14887" />
		</g>
		<path
   style="fill:#222324;"
   d="M369.107,254.199c0,0.637,0.35,1.152,0.783,1.152c0.432,0,0.783-0.516,0.783-1.152    c0-0.636-0.35-1.152-0.783-1.152C369.458,253.046,369.107,253.563,369.107,254.199z"
   id="path14891" />
		<path
   style="fill:#222324;"
   d="M384.154,254.199c0,0.637,0.35,1.152,0.783,1.152c0.432,0,0.783-0.516,0.783-1.152    c0-0.636-0.35-1.152-0.783-1.152C384.505,253.046,384.154,253.563,384.154,254.199z"
   id="path14893" />
		<polygon
   style="fill:#624220;"
   points="374.664,236.533 357.04,236.533 357.04,224.983 389.148,231.673   "
   id="polygon14895" />
		<path
   style="fill:#222324;"
   d="M308.367,295.361L308.367,295.361c-3.449,0-6.245-2.796-6.245-6.245v-1.585    c0-3.449,2.796-6.245,6.245-6.245l0,0c1.832,0,3.317,1.485,3.317,3.317v7.44C311.684,293.876,310.199,295.361,308.367,295.361z"
   id="path14897" />
		<path
   style="fill:#222324;"
   d="M355.659,284.614L355.659,284.614c2.817,1.99,3.486,5.887,1.496,8.704l-0.915,1.294    c-1.991,2.817-5.888,3.487-8.704,1.496l0,0c-1.496-1.057-1.852-3.127-0.795-4.624l4.294-6.076    C352.093,283.912,354.163,283.556,355.659,284.614z"
   id="path14899" />
		<path
   style="fill:#222324;"
   d="M353.929,412.387L353.929,412.387c-1.5-0.733-2.229-2.46-1.708-4.046l6.022-18.345l5.32,3.881    c2.626,1.915,3.201,5.596,1.286,8.221l-6.751,9.256C357.142,412.663,355.385,413.099,353.929,412.387z"
   id="path14901" />
		<path
   style="fill:#222324;"
   d="M423.544,442.023L423.544,442.023c-0.643-0.315-1.149-0.807-1.481-1.392    c-0.711-1.253-0.115-2.856,1.17-3.508l2.351-1.191l2.402-16.964l5.478,3.996c2.703,1.972,3.296,5.762,1.324,8.465l-4.858,9.665    l0,0c-0.385,0.812-1.188,1.341-2.086,1.37C426.464,442.507,424.478,442.479,423.544,442.023z"
   id="path14903" />
		<polygon
   style="fill:#222324;"
   points="421.365,423.069 427.328,431.435 430.71,424.76 425.993,417.818   "
   id="polygon14905" />
	</g>
</g>
<g
   id="DESIGNED_BY_FREEPIK"
   transform="translate(171.92383,7.1486253)"
   style="fill:#000000">
	<g
   id="g754"
   style="fill:#000000">
		<g
   id="g706"
   style="fill:#000000">
			<path
   style="fill:#000000"
   d="m 180.307,485.806 v -0.161 c -0.217,0.252 -0.432,0.453 -0.644,0.609 -0.211,0.156 -0.441,0.275 -0.689,0.353 -0.247,0.085 -0.516,0.124 -0.809,0.124 -0.388,0 -0.747,-0.081 -1.078,-0.245 -0.331,-0.164 -0.616,-0.398 -0.858,-0.705 -0.242,-0.305 -0.424,-0.661 -0.548,-1.074 -0.126,-0.409 -0.188,-0.854 -0.188,-1.335 0,-1.014 0.248,-1.804 0.742,-2.369 0.495,-0.565 1.146,-0.849 1.953,-0.849 0.467,0 0.86,0.081 1.182,0.24 0.32,0.161 0.633,0.408 0.938,0.74 v -2.393 c 0,-0.333 0.066,-0.584 0.199,-0.755 0.132,-0.168 0.321,-0.255 0.566,-0.255 0.246,0 0.434,0.079 0.567,0.233 0.132,0.159 0.2,0.388 0.2,0.693 v 7.146 c 0,0.309 -0.071,0.539 -0.214,0.695 -0.143,0.154 -0.326,0.23 -0.553,0.23 -0.221,0 -0.404,-0.079 -0.549,-0.238 -0.145,-0.158 -0.217,-0.388 -0.217,-0.684 z m -3.187,-2.381 c 0,0.441 0.068,0.815 0.205,1.123 0.136,0.309 0.324,0.54 0.561,0.697 0.239,0.156 0.497,0.235 0.778,0.235 0.285,0 0.545,-0.074 0.781,-0.222 0.236,-0.149 0.423,-0.377 0.563,-0.686 0.142,-0.305 0.212,-0.689 0.212,-1.148 0,-0.432 -0.07,-0.804 -0.212,-1.112 -0.14,-0.31 -0.33,-0.547 -0.569,-0.712 -0.24,-0.165 -0.502,-0.246 -0.787,-0.246 -0.297,0 -0.562,0.085 -0.795,0.251 -0.234,0.169 -0.415,0.41 -0.544,0.727 -0.13,0.314 -0.193,0.678 -0.193,1.093 z"
   id="path686" />
			<path
   style="fill:#000000"
   d="m 187.453,483.837 h -3.169 c 0.004,0.366 0.077,0.691 0.222,0.973 0.145,0.28 0.337,0.493 0.577,0.635 0.239,0.142 0.503,0.212 0.792,0.212 0.194,0 0.371,-0.021 0.531,-0.066 0.161,-0.046 0.316,-0.118 0.466,-0.214 0.15,-0.098 0.289,-0.2 0.416,-0.311 0.126,-0.111 0.29,-0.263 0.492,-0.451 0.083,-0.072 0.202,-0.109 0.356,-0.109 0.167,0 0.3,0.049 0.403,0.138 0.103,0.093 0.154,0.221 0.154,0.387 0,0.148 -0.057,0.317 -0.172,0.512 -0.116,0.198 -0.289,0.387 -0.519,0.565 -0.232,0.181 -0.522,0.329 -0.874,0.447 -0.349,0.118 -0.751,0.179 -1.207,0.179 -1.041,0 -1.85,-0.297 -2.428,-0.89 -0.578,-0.592 -0.867,-1.399 -0.867,-2.417 0,-0.479 0.071,-0.923 0.214,-1.333 0.143,-0.408 0.35,-0.759 0.623,-1.052 0.273,-0.294 0.609,-0.518 1.01,-0.673 0.398,-0.158 0.842,-0.236 1.33,-0.236 0.632,0 1.175,0.133 1.628,0.401 0.453,0.268 0.794,0.611 1.019,1.035 0.225,0.424 0.339,0.854 0.339,1.293 0,0.41 -0.118,0.674 -0.351,0.794 -0.232,0.119 -0.56,0.181 -0.985,0.181 z m -3.169,-0.922 h 2.938 c -0.039,-0.553 -0.188,-0.968 -0.447,-1.243 -0.259,-0.276 -0.601,-0.411 -1.024,-0.411 -0.404,0 -0.736,0.138 -0.994,0.416 -0.261,0.28 -0.418,0.691 -0.473,1.238 z"
   id="path688" />
			<path
   style="fill:#000000"
   d="m 194.837,484.613 c 0,0.446 -0.107,0.83 -0.326,1.149 -0.217,0.318 -0.538,0.56 -0.964,0.724 -0.425,0.164 -0.944,0.245 -1.553,0.245 -0.581,0 -1.08,-0.089 -1.495,-0.266 -0.416,-0.18 -0.722,-0.401 -0.921,-0.668 -0.198,-0.269 -0.296,-0.535 -0.296,-0.807 0,-0.177 0.062,-0.329 0.189,-0.455 0.126,-0.127 0.288,-0.189 0.481,-0.189 0.17,0 0.3,0.04 0.391,0.125 0.091,0.083 0.178,0.2 0.261,0.348 0.166,0.292 0.365,0.506 0.597,0.648 0.232,0.142 0.547,0.214 0.946,0.214 0.326,0 0.592,-0.072 0.799,-0.218 0.208,-0.144 0.312,-0.309 0.312,-0.494 0,-0.285 -0.108,-0.492 -0.324,-0.623 -0.216,-0.131 -0.571,-0.257 -1.066,-0.375 -0.558,-0.139 -1.011,-0.286 -1.362,-0.437 -0.35,-0.152 -0.63,-0.355 -0.84,-0.602 -0.21,-0.25 -0.314,-0.557 -0.314,-0.92 0,-0.324 0.096,-0.632 0.291,-0.921 0.193,-0.288 0.48,-0.52 0.859,-0.692 0.376,-0.171 0.832,-0.259 1.367,-0.259 0.42,0 0.797,0.043 1.13,0.133 0.335,0.087 0.614,0.204 0.837,0.35 0.224,0.148 0.395,0.31 0.51,0.486 0.117,0.178 0.175,0.352 0.175,0.521 0,0.188 -0.063,0.338 -0.187,0.458 -0.125,0.118 -0.301,0.18 -0.532,0.18 -0.166,0 -0.307,-0.05 -0.423,-0.146 -0.117,-0.094 -0.251,-0.235 -0.401,-0.425 -0.123,-0.159 -0.268,-0.285 -0.433,-0.381 -0.166,-0.097 -0.393,-0.142 -0.678,-0.142 -0.293,0 -0.536,0.06 -0.73,0.186 -0.194,0.125 -0.29,0.279 -0.29,0.467 0,0.17 0.071,0.309 0.213,0.417 0.143,0.109 0.335,0.2 0.577,0.272 0.242,0.071 0.573,0.155 0.997,0.26 0.501,0.124 0.912,0.269 1.231,0.44 0.317,0.17 0.559,0.371 0.725,0.603 0.166,0.234 0.247,0.496 0.247,0.794 z"
   id="path690" />
			<path
   style="fill:#000000"
   d="m 196.494,479.391 c -0.226,0 -0.419,-0.07 -0.579,-0.209 -0.16,-0.139 -0.241,-0.335 -0.241,-0.589 0,-0.229 0.082,-0.417 0.246,-0.566 0.165,-0.148 0.356,-0.224 0.574,-0.224 0.21,0 0.396,0.068 0.558,0.204 0.163,0.134 0.244,0.331 0.244,0.586 0,0.252 -0.08,0.445 -0.238,0.584 -0.159,0.142 -0.347,0.214 -0.564,0.214 z m 0.801,1.673 v 4.684 c 0,0.323 -0.077,0.569 -0.232,0.733 -0.155,0.168 -0.35,0.25 -0.587,0.25 -0.238,0 -0.432,-0.084 -0.58,-0.255 -0.147,-0.168 -0.222,-0.413 -0.222,-0.729 v -4.638 c 0,-0.318 0.074,-0.562 0.222,-0.725 0.148,-0.161 0.342,-0.244 0.58,-0.244 0.237,0 0.432,0.083 0.587,0.244 0.155,0.165 0.232,0.392 0.232,0.68 z"
   id="path692" />
			<path
   style="fill:#000000"
   d="m 204.394,481.331 v 4.706 c 0,0.539 -0.057,1.003 -0.172,1.39 -0.114,0.388 -0.299,0.708 -0.553,0.961 -0.253,0.251 -0.584,0.443 -0.994,0.564 -0.409,0.122 -0.919,0.185 -1.529,0.185 -0.558,0 -1.057,-0.08 -1.496,-0.234 -0.438,-0.156 -0.776,-0.358 -1.014,-0.604 -0.238,-0.249 -0.357,-0.503 -0.357,-0.764 0,-0.198 0.067,-0.362 0.203,-0.484 0.134,-0.126 0.297,-0.188 0.486,-0.188 0.238,0 0.446,0.105 0.624,0.314 0.086,0.109 0.176,0.217 0.27,0.324 0.093,0.111 0.197,0.205 0.309,0.281 0.113,0.077 0.248,0.134 0.407,0.172 0.158,0.037 0.34,0.055 0.546,0.055 0.42,0 0.745,-0.059 0.977,-0.176 0.23,-0.115 0.393,-0.279 0.486,-0.488 0.094,-0.21 0.148,-0.433 0.163,-0.676 0.016,-0.238 0.028,-0.623 0.036,-1.153 -0.25,0.349 -0.537,0.612 -0.864,0.797 -0.326,0.182 -0.715,0.273 -1.166,0.273 -0.542,0 -1.016,-0.139 -1.422,-0.417 -0.405,-0.275 -0.717,-0.662 -0.935,-1.162 -0.218,-0.501 -0.326,-1.075 -0.326,-1.729 0,-0.486 0.065,-0.926 0.199,-1.318 0.133,-0.391 0.321,-0.722 0.566,-0.991 0.246,-0.269 0.529,-0.47 0.849,-0.605 0.321,-0.138 0.673,-0.207 1.057,-0.207 0.459,0 0.857,0.088 1.193,0.265 0.336,0.177 0.649,0.452 0.938,0.829 v -0.221 c 0,-0.281 0.069,-0.498 0.208,-0.654 0.139,-0.153 0.317,-0.231 0.534,-0.231 0.313,0 0.521,0.102 0.624,0.307 0.102,0.2 0.153,0.494 0.153,0.879 z m -4.695,2.054 c 0,0.657 0.144,1.153 0.43,1.49 0.287,0.334 0.658,0.505 1.114,0.505 0.268,0 0.523,-0.073 0.762,-0.219 0.24,-0.145 0.435,-0.361 0.586,-0.652 0.15,-0.29 0.224,-0.643 0.224,-1.059 0,-0.662 -0.144,-1.176 -0.436,-1.543 -0.292,-0.369 -0.674,-0.553 -1.148,-0.553 -0.464,0 -0.834,0.176 -1.113,0.529 -0.281,0.352 -0.419,0.851 -0.419,1.502 z"
   id="path694" />
			<path
   style="fill:#000000"
   d="m 206.97,481.04 v 0.194 c 0.285,-0.374 0.596,-0.652 0.935,-0.827 0.338,-0.176 0.726,-0.266 1.165,-0.266 0.428,0 0.81,0.094 1.147,0.28 0.336,0.188 0.588,0.449 0.753,0.787 0.106,0.201 0.177,0.414 0.208,0.643 0.032,0.229 0.049,0.522 0.049,0.879 v 3.017 c 0,0.323 -0.075,0.569 -0.224,0.733 -0.148,0.168 -0.341,0.25 -0.579,0.25 -0.242,0 -0.437,-0.084 -0.587,-0.255 -0.151,-0.168 -0.226,-0.413 -0.226,-0.729 v -2.704 c 0,-0.532 -0.074,-0.942 -0.222,-1.223 -0.148,-0.284 -0.444,-0.428 -0.888,-0.428 -0.288,0 -0.551,0.088 -0.789,0.258 -0.238,0.176 -0.412,0.41 -0.522,0.711 -0.08,0.242 -0.12,0.691 -0.12,1.353 v 2.032 c 0,0.328 -0.076,0.574 -0.227,0.738 -0.152,0.164 -0.349,0.245 -0.59,0.245 -0.234,0 -0.426,-0.084 -0.576,-0.255 -0.151,-0.168 -0.227,-0.413 -0.227,-0.729 v -4.684 c 0,-0.31 0.067,-0.54 0.202,-0.693 0.135,-0.15 0.318,-0.228 0.552,-0.228 0.142,0 0.271,0.035 0.387,0.101 0.114,0.069 0.206,0.17 0.276,0.305 0.069,0.136 0.103,0.301 0.103,0.495 z"
   id="path696" />
			<path
   style="fill:#000000"
   d="m 216.83,483.837 h -3.17 c 0.004,0.366 0.078,0.691 0.223,0.973 0.144,0.28 0.336,0.493 0.575,0.635 0.24,0.142 0.504,0.212 0.793,0.212 0.194,0 0.371,-0.021 0.531,-0.066 0.16,-0.046 0.315,-0.118 0.466,-0.214 0.15,-0.098 0.288,-0.2 0.415,-0.311 0.126,-0.111 0.29,-0.263 0.492,-0.451 0.083,-0.072 0.203,-0.109 0.356,-0.109 0.166,0 0.301,0.049 0.404,0.138 0.103,0.093 0.153,0.221 0.153,0.387 0,0.148 -0.057,0.317 -0.171,0.512 -0.115,0.198 -0.288,0.387 -0.52,0.565 -0.231,0.181 -0.521,0.329 -0.872,0.447 -0.351,0.118 -0.754,0.179 -1.209,0.179 -1.041,0 -1.849,-0.297 -2.427,-0.89 -0.578,-0.592 -0.867,-1.399 -0.867,-2.417 0,-0.479 0.071,-0.923 0.214,-1.333 0.144,-0.408 0.35,-0.759 0.624,-1.052 0.273,-0.294 0.609,-0.518 1.009,-0.673 0.399,-0.158 0.843,-0.236 1.33,-0.236 0.633,0 1.176,0.133 1.628,0.401 0.454,0.268 0.794,0.611 1.02,1.035 0.225,0.424 0.338,0.854 0.338,1.293 0,0.41 -0.117,0.674 -0.35,0.794 -0.234,0.119 -0.562,0.181 -0.985,0.181 z m -3.171,-0.922 h 2.939 c -0.039,-0.553 -0.189,-0.968 -0.448,-1.243 -0.259,-0.276 -0.601,-0.411 -1.023,-0.411 -0.405,0 -0.736,0.138 -0.996,0.416 -0.259,0.28 -0.417,0.691 -0.472,1.238 z"
   id="path698" />
			<path
   style="fill:#000000"
   d="m 223.435,485.806 v -0.161 c -0.217,0.252 -0.433,0.453 -0.644,0.609 -0.212,0.156 -0.441,0.275 -0.688,0.353 -0.246,0.085 -0.517,0.124 -0.81,0.124 -0.388,0 -0.748,-0.081 -1.077,-0.245 -0.331,-0.164 -0.617,-0.398 -0.858,-0.705 -0.242,-0.305 -0.425,-0.661 -0.55,-1.074 -0.124,-0.409 -0.186,-0.854 -0.186,-1.335 0,-1.014 0.246,-1.804 0.74,-2.369 0.496,-0.565 1.146,-0.849 1.954,-0.849 0.466,0 0.861,0.081 1.181,0.24 0.321,0.161 0.634,0.408 0.938,0.74 v -2.393 c 0,-0.333 0.067,-0.584 0.199,-0.755 0.132,-0.168 0.322,-0.255 0.567,-0.255 0.245,0 0.434,0.079 0.566,0.233 0.133,0.159 0.199,0.388 0.199,0.693 v 7.146 c 0,0.309 -0.071,0.539 -0.213,0.695 -0.143,0.154 -0.326,0.23 -0.552,0.23 -0.221,0 -0.404,-0.079 -0.549,-0.238 -0.145,-0.158 -0.217,-0.388 -0.217,-0.684 z m -3.187,-2.381 c 0,0.441 0.068,0.815 0.204,1.123 0.137,0.309 0.324,0.54 0.562,0.697 0.236,0.156 0.496,0.235 0.776,0.235 0.286,0 0.546,-0.074 0.781,-0.222 0.236,-0.149 0.423,-0.377 0.564,-0.686 0.14,-0.305 0.21,-0.689 0.21,-1.148 0,-0.432 -0.07,-0.804 -0.21,-1.112 -0.141,-0.31 -0.331,-0.547 -0.57,-0.712 -0.24,-0.165 -0.502,-0.246 -0.788,-0.246 -0.295,0 -0.562,0.085 -0.794,0.251 -0.233,0.169 -0.415,0.41 -0.542,0.727 -0.129,0.314 -0.193,0.678 -0.193,1.093 z"
   id="path700" />
			<path
   style="fill:#000000"
   d="m 230.059,478.659 v 2.476 c 0.304,-0.317 0.614,-0.562 0.932,-0.728 0.316,-0.168 0.709,-0.253 1.175,-0.253 0.539,0 1.01,0.13 1.417,0.383 0.404,0.256 0.719,0.624 0.943,1.109 0.223,0.485 0.335,1.06 0.335,1.726 0,0.493 -0.063,0.939 -0.188,1.349 -0.125,0.412 -0.306,0.768 -0.543,1.067 -0.238,0.301 -0.526,0.534 -0.864,0.698 -0.339,0.164 -0.712,0.245 -1.12,0.245 -0.249,0 -0.484,-0.028 -0.704,-0.089 -0.22,-0.059 -0.406,-0.137 -0.561,-0.234 -0.154,-0.096 -0.286,-0.196 -0.396,-0.3 -0.108,-0.103 -0.253,-0.257 -0.429,-0.464 v 0.161 c 0,0.304 -0.074,0.536 -0.22,0.692 -0.146,0.157 -0.332,0.233 -0.558,0.233 -0.23,0 -0.413,-0.076 -0.549,-0.233 -0.136,-0.156 -0.205,-0.389 -0.205,-0.692 v -7.076 c 0,-0.328 0.066,-0.579 0.198,-0.744 0.133,-0.168 0.318,-0.253 0.556,-0.253 0.249,0 0.441,0.08 0.575,0.24 0.138,0.163 0.206,0.389 0.206,0.687 z m 0.077,4.815 c 0,0.645 0.147,1.141 0.442,1.484 0.294,0.349 0.682,0.522 1.161,0.522 0.407,0 0.759,-0.178 1.054,-0.532 0.294,-0.354 0.442,-0.863 0.442,-1.523 0,-0.427 -0.061,-0.794 -0.183,-1.103 -0.124,-0.309 -0.297,-0.548 -0.522,-0.717 -0.227,-0.166 -0.49,-0.251 -0.79,-0.251 -0.309,0 -0.585,0.085 -0.825,0.251 -0.242,0.169 -0.433,0.413 -0.57,0.73 -0.139,0.32 -0.209,0.698 -0.209,1.139 z"
   id="path702" />
			<path
   style="fill:#000000"
   d="m 236.963,486.934 0.148,-0.361 -1.994,-5.022 c -0.124,-0.287 -0.186,-0.5 -0.186,-0.63 0,-0.138 0.037,-0.268 0.107,-0.384 0.072,-0.121 0.169,-0.217 0.295,-0.288 0.124,-0.071 0.253,-0.106 0.388,-0.106 0.234,0 0.41,0.075 0.529,0.226 0.119,0.146 0.223,0.358 0.314,0.636 l 1.371,3.988 1.301,-3.708 c 0.103,-0.302 0.195,-0.537 0.278,-0.709 0.083,-0.169 0.171,-0.281 0.264,-0.342 0.093,-0.06 0.225,-0.091 0.395,-0.091 0.124,0 0.241,0.033 0.354,0.099 0.113,0.066 0.2,0.154 0.261,0.265 0.061,0.112 0.093,0.227 0.093,0.351 -0.018,0.075 -0.041,0.182 -0.078,0.321 -0.035,0.139 -0.079,0.278 -0.129,0.42 l -2.114,5.532 c -0.182,0.487 -0.36,0.867 -0.534,1.146 -0.175,0.276 -0.404,0.49 -0.691,0.638 -0.287,0.149 -0.674,0.224 -1.162,0.224 -0.474,0 -0.831,-0.053 -1.067,-0.153 -0.238,-0.104 -0.356,-0.292 -0.356,-0.564 0,-0.187 0.057,-0.331 0.169,-0.431 0.112,-0.103 0.279,-0.152 0.501,-0.152 0.088,0 0.174,0.012 0.257,0.035 0.103,0.023 0.191,0.036 0.266,0.036 0.187,0 0.334,-0.027 0.44,-0.083 0.106,-0.055 0.202,-0.152 0.287,-0.288 0.084,-0.138 0.182,-0.34 0.293,-0.605 z"
   id="path704" />
		</g>
		<g
   id="g730"
   style="fill:#000000">
			<path
   style="fill:#000000"
   d="m 260.439,480.284 h 0.387 v -0.486 c 0,-0.509 0.063,-0.91 0.191,-1.212 0.127,-0.3 0.346,-0.517 0.652,-0.652 0.307,-0.137 0.729,-0.206 1.262,-0.206 0.949,0 1.42,0.23 1.42,0.697 0,0.149 -0.049,0.277 -0.148,0.385 -0.098,0.105 -0.217,0.16 -0.35,0.16 -0.063,0 -0.172,-0.011 -0.33,-0.037 -0.148,-0.02 -0.281,-0.033 -0.391,-0.033 -0.289,0 -0.476,0.085 -0.564,0.258 -0.08,0.173 -0.121,0.417 -0.121,0.74 v 0.387 h 0.397 c 0.617,0 0.924,0.185 0.924,0.56 0,0.259 -0.078,0.43 -0.246,0.502 -0.162,0.07 -0.391,0.103 -0.678,0.103 h -0.397 v 4.298 c 0,0.318 -0.076,0.562 -0.23,0.729 -0.152,0.171 -0.348,0.255 -0.59,0.255 -0.229,0 -0.418,-0.084 -0.574,-0.255 -0.152,-0.167 -0.227,-0.41 -0.227,-0.729 v -4.298 h -0.445 c -0.244,0 -0.428,-0.052 -0.561,-0.162 -0.131,-0.106 -0.195,-0.248 -0.195,-0.422 0,-0.39 0.271,-0.582 0.814,-0.582"
   id="path708" />
			<path
   style="fill:#000000"
   d="m 265.744,484.392 v 1.356 c 0,0.326 -0.082,0.574 -0.234,0.735 -0.154,0.167 -0.35,0.248 -0.586,0.248 -0.236,0 -0.43,-0.082 -0.576,-0.252 -0.148,-0.163 -0.227,-0.41 -0.227,-0.732 v -4.517 c 0,-0.729 0.264,-1.091 0.787,-1.091 0.273,0 0.465,0.084 0.584,0.254 0.117,0.171 0.186,0.421 0.197,0.754 0.193,-0.333 0.393,-0.583 0.594,-0.754 0.207,-0.17 0.477,-0.254 0.818,-0.254 0.341,0 0.67,0.084 0.99,0.254 0.322,0.171 0.482,0.398 0.482,0.677 0,0.198 -0.07,0.364 -0.203,0.489 -0.137,0.131 -0.287,0.197 -0.441,0.197 -0.063,0 -0.207,-0.043 -0.432,-0.116 -0.23,-0.067 -0.434,-0.106 -0.602,-0.106 -0.238,0 -0.434,0.065 -0.584,0.185 -0.15,0.13 -0.27,0.312 -0.353,0.558 -0.078,0.246 -0.137,0.539 -0.17,0.877 -0.028,0.337 -0.044,0.752 -0.044,1.238"
   id="path710" />
			<path
   style="fill:#000000"
   d="m 273.195,483.833 h -3.172 c 0.006,0.368 0.078,0.695 0.223,0.976 0.147,0.278 0.336,0.491 0.576,0.636 0.242,0.141 0.504,0.212 0.795,0.212 0.193,0 0.369,-0.021 0.531,-0.07 0.158,-0.044 0.314,-0.115 0.467,-0.213 0.15,-0.096 0.285,-0.198 0.414,-0.313 0.127,-0.108 0.291,-0.26 0.494,-0.448 0.082,-0.07 0.203,-0.109 0.354,-0.109 0.168,0 0.301,0.048 0.406,0.138 0.103,0.093 0.15,0.221 0.15,0.389 0,0.147 -0.055,0.317 -0.164,0.511 -0.117,0.199 -0.291,0.386 -0.523,0.566 -0.234,0.178 -0.525,0.329 -0.873,0.446 -0.352,0.118 -0.754,0.18 -1.209,0.18 -1.045,0 -1.852,-0.297 -2.43,-0.89 -0.578,-0.593 -0.867,-1.401 -0.867,-2.417 0,-0.48 0.072,-0.925 0.215,-1.335 0.141,-0.41 0.35,-0.759 0.627,-1.055 0.269,-0.294 0.605,-0.517 1.008,-0.671 0.396,-0.159 0.84,-0.237 1.328,-0.237 0.633,0 1.174,0.135 1.631,0.405 0.449,0.265 0.795,0.608 1.016,1.033 0.227,0.426 0.338,0.854 0.338,1.296 0,0.405 -0.115,0.669 -0.35,0.791 -0.235,0.121 -0.561,0.179 -0.985,0.179 m -3.172,-0.921 h 2.939 c -0.041,-0.554 -0.188,-0.969 -0.445,-1.242 -0.262,-0.276 -0.602,-0.41 -1.025,-0.41 -0.406,0 -0.738,0.136 -0.996,0.417 -0.258,0.278 -0.416,0.69 -0.473,1.235"
   id="path712" />
			<path
   style="fill:#000000"
   d="m 279.938,483.833 h -3.17 c 0.004,0.368 0.078,0.695 0.221,0.976 0.145,0.278 0.338,0.491 0.576,0.636 0.238,0.141 0.502,0.212 0.793,0.212 0.193,0 0.371,-0.021 0.529,-0.07 0.162,-0.044 0.316,-0.115 0.469,-0.213 0.15,-0.096 0.287,-0.198 0.414,-0.313 0.123,-0.108 0.291,-0.26 0.494,-0.448 0.082,-0.07 0.201,-0.109 0.353,-0.109 0.168,0 0.303,0.048 0.406,0.138 0.104,0.093 0.15,0.221 0.15,0.389 0,0.147 -0.055,0.317 -0.17,0.511 -0.111,0.199 -0.285,0.386 -0.52,0.566 -0.23,0.178 -0.523,0.329 -0.871,0.446 -0.35,0.118 -0.754,0.18 -1.209,0.18 -1.043,0 -1.852,-0.297 -2.43,-0.89 -0.578,-0.593 -0.867,-1.401 -0.867,-2.417 0,-0.48 0.072,-0.925 0.217,-1.335 0.141,-0.41 0.35,-0.759 0.623,-1.055 0.271,-0.294 0.605,-0.517 1.008,-0.671 0.398,-0.159 0.844,-0.237 1.332,-0.237 0.629,0 1.172,0.135 1.631,0.405 0.451,0.265 0.793,0.608 1.014,1.033 0.225,0.426 0.34,0.854 0.34,1.296 0,0.405 -0.117,0.669 -0.35,0.791 -0.233,0.121 -0.562,0.179 -0.983,0.179 m -3.17,-0.921 h 2.938 c -0.039,-0.554 -0.191,-0.969 -0.447,-1.242 -0.264,-0.276 -0.602,-0.41 -1.025,-0.41 -0.404,0 -0.736,0.136 -0.996,0.417 -0.261,0.278 -0.418,0.69 -0.47,1.235"
   id="path714" />
			<path
   style="fill:#000000"
   d="m 283.486,481.052 v 0.192 c 0.305,-0.373 0.621,-0.65 0.955,-0.825 0.322,-0.179 0.699,-0.268 1.111,-0.268 0.498,0 0.961,0.132 1.381,0.386 0.42,0.26 0.75,0.635 0.992,1.128 0.244,0.497 0.367,1.083 0.367,1.76 0,0.498 -0.07,0.957 -0.209,1.375 -0.143,0.418 -0.338,0.769 -0.582,1.05 -0.244,0.282 -0.535,0.5 -0.869,0.654 -0.338,0.151 -0.693,0.228 -1.08,0.228 -0.461,0 -0.852,-0.094 -1.164,-0.281 -0.313,-0.181 -0.615,-0.457 -0.902,-0.814 v 2.432 c 0,0.711 -0.26,1.069 -0.777,1.069 -0.307,0 -0.506,-0.093 -0.606,-0.274 -0.096,-0.186 -0.148,-0.451 -0.148,-0.807 v -6.996 c 0,-0.31 0.068,-0.538 0.201,-0.69 0.135,-0.15 0.32,-0.229 0.553,-0.229 0.232,0 0.418,0.078 0.56,0.232 0.147,0.158 0.217,0.38 0.217,0.678 m 3.18,2.355 c 0,-0.43 -0.066,-0.798 -0.199,-1.103 -0.129,-0.307 -0.311,-0.54 -0.541,-0.703 -0.227,-0.165 -0.49,-0.249 -0.768,-0.249 -0.445,0 -0.824,0.177 -1.133,0.528 -0.307,0.353 -0.461,0.872 -0.461,1.557 0,0.642 0.15,1.148 0.457,1.505 0.307,0.358 0.682,0.535 1.137,0.535 0.266,0 0.518,-0.078 0.748,-0.232 0.23,-0.158 0.412,-0.391 0.551,-0.704 0.139,-0.314 0.209,-0.693 0.209,-1.134"
   id="path716" />
			<path
   style="fill:#000000"
   d="m 289.926,479.386 c -0.227,0 -0.42,-0.071 -0.578,-0.211 -0.16,-0.138 -0.24,-0.33 -0.24,-0.584 0,-0.231 0.08,-0.418 0.248,-0.569 0.164,-0.146 0.354,-0.222 0.57,-0.222 0.213,0 0.395,0.066 0.557,0.199 0.164,0.137 0.244,0.336 0.244,0.592 0,0.249 -0.08,0.444 -0.234,0.584 -0.159,0.14 -0.348,0.211 -0.567,0.211 m 0.801,1.674 v 4.688 c 0,0.321 -0.074,0.568 -0.229,0.732 -0.158,0.17 -0.352,0.252 -0.59,0.252 -0.238,0 -0.428,-0.084 -0.58,-0.255 -0.146,-0.172 -0.221,-0.415 -0.221,-0.729 v -4.642 c 0,-0.318 0.074,-0.559 0.221,-0.723 0.152,-0.163 0.342,-0.242 0.58,-0.242 0.238,0 0.432,0.079 0.59,0.242 0.154,0.164 0.229,0.391 0.229,0.677"
   id="path718" />
			<path
   style="fill:#000000"
   d="m 295.951,485.99 -1.428,-2.354 -0.879,0.83 v 1.292 c 0,0.311 -0.084,0.551 -0.248,0.718 -0.162,0.171 -0.353,0.255 -0.566,0.255 -0.25,0 -0.445,-0.082 -0.588,-0.252 -0.143,-0.163 -0.217,-0.41 -0.217,-0.732 v -6.914 c 0,-0.36 0.074,-0.634 0.209,-0.822 0.141,-0.19 0.342,-0.284 0.596,-0.284 0.248,0 0.445,0.087 0.594,0.258 0.146,0.168 0.221,0.421 0.221,0.752 v 3.933 l 1.822,-1.914 c 0.227,-0.234 0.395,-0.398 0.516,-0.487 0.119,-0.087 0.264,-0.128 0.43,-0.128 0.205,0 0.375,0.064 0.512,0.191 0.131,0.129 0.201,0.292 0.201,0.483 0,0.238 -0.223,0.557 -0.66,0.953 l -0.859,0.787 1.662,2.615 c 0.119,0.195 0.213,0.339 0.264,0.44 0.053,0.099 0.082,0.201 0.082,0.29 0,0.257 -0.072,0.459 -0.215,0.608 -0.141,0.148 -0.326,0.223 -0.551,0.223 -0.197,0 -0.354,-0.053 -0.459,-0.16 -0.109,-0.107 -0.255,-0.301 -0.439,-0.581"
   id="path720" />
			<path
   style="fill:#000000"
   d="m 299.475,486.731 c -0.244,0 -0.457,-0.079 -0.635,-0.238 -0.176,-0.155 -0.267,-0.38 -0.267,-0.665 0,-0.242 0.086,-0.45 0.256,-0.623 0.174,-0.174 0.381,-0.262 0.633,-0.262 0.248,0 0.457,0.088 0.637,0.257 0.176,0.173 0.264,0.383 0.264,0.628 0,0.281 -0.088,0.505 -0.264,0.661 -0.181,0.163 -0.388,0.242 -0.624,0.242"
   id="path722" />
			<path
   style="fill:#000000"
   d="m 307.535,484.725 c 0,0.201 -0.061,0.416 -0.18,0.646 -0.121,0.231 -0.307,0.45 -0.557,0.656 -0.244,0.208 -0.555,0.376 -0.934,0.502 -0.373,0.128 -0.801,0.191 -1.268,0.191 -1.004,0 -1.787,-0.293 -2.35,-0.876 -0.559,-0.583 -0.84,-1.367 -0.84,-2.35 0,-0.667 0.127,-1.253 0.385,-1.766 0.258,-0.51 0.627,-0.904 1.113,-1.183 0.488,-0.279 1.072,-0.42 1.748,-0.42 0.42,0 0.805,0.059 1.158,0.184 0.35,0.124 0.645,0.282 0.889,0.476 0.244,0.196 0.43,0.401 0.557,0.619 0.129,0.22 0.193,0.426 0.193,0.617 0,0.191 -0.07,0.358 -0.215,0.491 -0.147,0.136 -0.322,0.204 -0.525,0.204 -0.137,0 -0.248,-0.037 -0.336,-0.105 -0.092,-0.069 -0.191,-0.18 -0.301,-0.336 -0.199,-0.302 -0.402,-0.527 -0.623,-0.677 -0.213,-0.15 -0.488,-0.225 -0.82,-0.225 -0.477,0 -0.863,0.184 -1.16,0.559 -0.289,0.374 -0.438,0.888 -0.438,1.535 0,0.305 0.039,0.586 0.113,0.841 0.074,0.254 0.182,0.473 0.324,0.653 0.145,0.178 0.316,0.315 0.518,0.408 0.203,0.096 0.428,0.142 0.666,0.142 0.326,0 0.603,-0.075 0.836,-0.227 0.234,-0.15 0.439,-0.379 0.615,-0.688 0.098,-0.181 0.205,-0.322 0.318,-0.427 0.113,-0.104 0.254,-0.155 0.424,-0.155 0.195,0 0.361,0.075 0.488,0.227 0.136,0.153 0.202,0.315 0.202,0.484"
   id="path724" />
			<path
   style="fill:#000000"
   d="m 314.529,483.436 c 0,0.482 -0.076,0.93 -0.223,1.338 -0.154,0.406 -0.367,0.757 -0.654,1.049 -0.283,0.291 -0.627,0.517 -1.021,0.675 -0.4,0.154 -0.846,0.233 -1.336,0.233 -0.492,0 -0.932,-0.079 -1.326,-0.238 -0.389,-0.155 -0.73,-0.385 -1.016,-0.677 -0.287,-0.299 -0.504,-0.646 -0.658,-1.048 -0.141,-0.401 -0.217,-0.846 -0.217,-1.332 0,-0.492 0.076,-0.941 0.221,-1.35 0.152,-0.407 0.371,-0.756 0.65,-1.045 0.283,-0.288 0.621,-0.51 1.02,-0.669 0.404,-0.154 0.844,-0.232 1.326,-0.232 0.49,0 0.936,0.078 1.336,0.237 0.4,0.158 0.742,0.385 1.027,0.676 0.287,0.297 0.502,0.643 0.65,1.043 0.147,0.409 0.221,0.852 0.221,1.34 m -1.625,0 c 0,-0.661 -0.15,-1.175 -0.436,-1.542 -0.291,-0.374 -0.684,-0.556 -1.174,-0.556 -0.316,0 -0.598,0.083 -0.84,0.245 -0.24,0.164 -0.424,0.407 -0.557,0.73 -0.131,0.319 -0.197,0.693 -0.197,1.122 0,0.425 0.063,0.792 0.195,1.109 0.129,0.317 0.313,0.561 0.555,0.729 0.24,0.167 0.52,0.252 0.844,0.252 0.49,0 0.883,-0.186 1.174,-0.557 0.286,-0.368 0.436,-0.881 0.436,-1.532"
   id="path726" />
			<path
   style="fill:#000000"
   d="m 320.713,483.555 v 2.154 c 0,0.343 -0.076,0.596 -0.23,0.768 -0.158,0.171 -0.359,0.255 -0.611,0.255 -0.246,0 -0.445,-0.084 -0.596,-0.255 -0.154,-0.172 -0.23,-0.425 -0.23,-0.768 v -2.58 c 0,-0.409 -0.016,-0.726 -0.041,-0.954 -0.029,-0.22 -0.104,-0.408 -0.227,-0.552 -0.123,-0.146 -0.318,-0.22 -0.582,-0.22 -0.531,0 -0.881,0.181 -1.047,0.552 -0.166,0.36 -0.254,0.884 -0.254,1.565 v 2.189 c 0,0.336 -0.078,0.593 -0.225,0.765 -0.158,0.172 -0.357,0.258 -0.603,0.258 -0.25,0 -0.449,-0.086 -0.605,-0.258 -0.158,-0.172 -0.238,-0.429 -0.238,-0.765 v -4.638 c 0,-0.304 0.07,-0.535 0.213,-0.693 0.143,-0.159 0.328,-0.237 0.555,-0.237 0.223,0 0.41,0.076 0.559,0.224 0.146,0.146 0.219,0.352 0.219,0.612 v 0.153 c 0.285,-0.333 0.588,-0.581 0.906,-0.737 0.322,-0.161 0.676,-0.241 1.068,-0.241 0.408,0 0.758,0.081 1.049,0.243 0.295,0.164 0.533,0.41 0.727,0.735 0.275,-0.329 0.566,-0.576 0.881,-0.737 0.311,-0.161 0.658,-0.241 1.039,-0.241 0.441,0 0.824,0.089 1.147,0.263 0.318,0.172 0.559,0.425 0.715,0.746 0.141,0.295 0.209,0.756 0.209,1.385 v 3.164 c 0,0.343 -0.076,0.596 -0.23,0.768 -0.154,0.171 -0.359,0.255 -0.613,0.255 -0.246,0 -0.445,-0.086 -0.602,-0.258 -0.158,-0.172 -0.234,-0.429 -0.234,-0.765 v -2.726 c 0,-0.348 -0.016,-0.628 -0.047,-0.835 -0.027,-0.211 -0.109,-0.388 -0.236,-0.53 -0.133,-0.142 -0.334,-0.215 -0.596,-0.215 -0.215,0 -0.416,0.066 -0.609,0.192 -0.191,0.122 -0.342,0.299 -0.449,0.508 -0.122,0.274 -0.182,0.757 -0.182,1.451"
   id="path728" />
		</g>
		<g
   id="g752"
   style="fill:#000000">
			<path
   style="fill:#000000"
   d="m 245.272,483.044 c -0.002,-0.003 -0.002,-0.006 -0.002,-0.011 0,0.005 0,0.008 0.002,0.011 z"
   id="path732" />
			<path
   style="fill:#000000"
   d="m 245.354,483.561 v 0 c -0.029,-0.146 -0.054,-0.293 -0.072,-0.438 0.017,0.148 0.042,0.294 0.072,0.438 z"
   id="path734" />
			<path
   style="fill:#000000"
   d="m 245.89,485.066 c -0.004,-0.007 -0.007,-0.013 -0.01,-0.021 0.003,0.009 0.006,0.015 0.01,0.021 z"
   id="path736" />
			<path
   style="fill:#000000"
   d="m 245.838,484.966 c -0.015,-0.027 -0.027,-0.055 -0.04,-0.084 0.013,0.029 0.026,0.057 0.04,0.084 z"
   id="path738" />
			<path
   style="fill:#000000"
   d="m 245.504,484.141 c 0.078,0.251 0.176,0.493 0.286,0.725 -0.113,-0.236 -0.208,-0.479 -0.283,-0.725 z"
   id="path740" />
			<path
   style="fill:#000000"
   d="m 251.545,476.835 c 0.314,0 0.545,0.025 0.811,0.068 l 0.076,-0.476 c 0,0 -0.734,-0.228 -1.695,-0.148 l -0.077,-0.259 c 0.301,-0.063 0.524,-0.329 0.524,-0.646 0,-0.365 -0.297,-0.66 -0.66,-0.66 -0.365,0 -0.661,0.295 -0.661,0.66 0,0.316 0.224,0.583 0.523,0.646 l 0.084,0.291 c -1.02,0.14 -1.835,0.538 -1.835,0.538 l 0.145,0.441 c 0.618,-0.208 1.152,-0.333 1.64,-0.385 0.475,-0.049 0.834,-0.07 1.125,-0.07 z"
   id="path742" />
			<path
   style="fill:#000000"
   d="m 245.878,479.245 0.003,-0.005 c 0.023,-0.032 0.047,-0.061 0.069,-0.088 l -0.194,-0.142 -0.304,-0.225 c -0.018,0.027 -0.498,0.465 -0.876,1.281 -0.016,-0.024 -0.035,-0.051 -0.057,-0.075 -0.113,-0.123 -0.272,-0.186 -0.474,-0.184 -0.002,0 -0.006,0 -0.009,0 -0.125,0 -0.211,-0.041 -0.267,-0.092 0.055,-0.069 0.089,-0.159 0.089,-0.258 0,-0.231 -0.186,-0.419 -0.419,-0.419 -0.23,0 -0.417,0.188 -0.417,0.419 0,0.231 0.187,0.418 0.417,0.418 0.037,0 0.071,-0.006 0.104,-0.013 0.104,0.115 0.267,0.213 0.505,0.208 0.124,0 0.214,0.031 0.273,0.099 0.069,0.074 0.094,0.186 0.1,0.267 0,0 0,0.003 -0.001,0.003 -0.273,0.743 -0.195,1.668 -0.195,1.668 l 0.661,0.026 c 0.014,-0.336 0.063,-0.927 0.233,-1.394 0.331,-0.903 0.743,-1.469 0.759,-1.494 z"
   id="path744" />
			<path
   style="fill:#000000"
   d="m 257.295,477.385 c -0.23,0 -0.416,0.188 -0.416,0.42 0,0.035 0.004,0.07 0.014,0.103 -0.115,0.104 -0.215,0.267 -0.213,0.507 0.002,0.123 -0.029,0.212 -0.096,0.272 -0.053,0.046 -0.119,0.073 -0.184,0.09 -0.492,-0.691 -1.098,-1.112 -1.098,-1.112 l -0.476,0.509 c 0.359,0.327 0.726,0.735 1.082,1.245 0.246,0.353 0.5,0.807 0.709,1.26 l 0.641,-0.305 c 0,0 -0.291,-0.723 -0.703,-1.37 0.07,-0.026 0.143,-0.063 0.207,-0.121 0.127,-0.11 0.186,-0.271 0.184,-0.473 -0.002,-0.131 0.039,-0.217 0.092,-0.276 0.07,0.056 0.16,0.088 0.258,0.088 0.23,0 0.42,-0.186 0.42,-0.416 -0.001,-0.233 -0.191,-0.421 -0.421,-0.421 z"
   id="path746" />
			<path
   style="fill:#000000"
   d="m 255.633,483.139 c -0.881,0.428 -2.328,0.994 -4.236,1.261 -0.751,0.104 -1.475,0.142 -2.144,0.142 -0.869,0 -1.639,-0.063 -2.225,-0.138 -0.673,-0.085 -1.201,-0.189 -1.521,-0.263 0.076,0.246 0.17,0.488 0.283,0.725 0.002,0.007 0.005,0.015 0.009,0.017 0.013,0.029 0.025,0.057 0.04,0.084 0.015,0.028 0.026,0.054 0.042,0.08 0.003,0.008 0.006,0.014 0.01,0.021 0.188,0.357 0.416,0.685 0.675,0.967 0.9,0.984 1.816,1.141 1.825,1.141 l 0.015,0.002 0.014,0.005 c 0.008,0.005 0.82,0.268 2.057,0.268 1.216,0 2.409,-0.246 3.546,-0.729 0.842,-0.433 1.641,-1.086 2.033,-1.67 0.305,-0.45 0.527,-0.931 0.656,-1.434 0.07,-0.264 0.125,-0.691 0.094,-1.141 -0.251,0.165 -0.642,0.404 -1.173,0.662 z"
   id="path748" />
			<path
   style="fill:#000000"
   d="m 246.161,479.453 c -0.026,0.038 -0.408,0.58 -0.71,1.41 -0.226,0.62 -0.216,1.527 -0.216,1.537 v 0.003 c 0,0.21 0.012,0.421 0.035,0.63 0,0.005 0,0.008 0.002,0.011 0.002,0.026 0.007,0.054 0.01,0.08 0.018,0.145 0.043,0.291 0.073,0.438 0.437,0.111 3.05,0.722 5.967,0.315 1.83,-0.256 3.221,-0.795 4.063,-1.205 0.701,-0.338 1.15,-0.647 1.322,-0.774 -0.172,-0.639 -0.648,-1.651 -1.086,-2.279 -1.254,-1.788 -2.604,-2.247 -3.299,-2.363 -0.264,-0.043 -0.477,-0.067 -0.777,-0.067 -0.279,0 -0.626,0.023 -1.09,0.07 -0.464,0.05 -0.98,0.171 -1.583,0.374 -0.842,0.282 -1.604,0.723 -2.204,1.277 l -0.02,0.021 c -0.088,0.08 -0.275,0.252 -0.487,0.522 z m 7.669,-0.415 c 0.598,0 1.09,0.488 1.09,1.088 0,0.602 -0.492,1.09 -1.09,1.09 -0.602,0 -1.088,-0.488 -1.088,-1.09 0,-0.6 0.487,-1.088 1.088,-1.088 z m -5.152,-0.045 c 0.974,0 1.761,0.789 1.761,1.761 0,0.973 -0.787,1.761 -1.761,1.761 -0.971,0 -1.758,-0.788 -1.758,-1.761 -10e-4,-0.972 0.786,-1.761 1.758,-1.761 z"
   id="path750" />
		</g>
	</g>
</g></svg>
