<?xml version="1.0" encoding="UTF-8" standalone="no"?>
<!-- Uploaded to: SVG Repo, www.svgrepo.com, Generator: SVG Repo Mixer Tools -->

<svg
   version="1.1"
   id="Layer_1"
   viewBox="0 0 292.81629 211.60877"
   xml:space="preserve"
   sodipodi:docname="internet-org-svgrepo-com.svg"
   width="292.81628"
   height="211.60876"
   inkscape:version="1.2.2 (b0a8486541, 2022-12-01)"
   xmlns:inkscape="http://www.inkscape.org/namespaces/inkscape"
   xmlns:sodipodi="http://sodipodi.sourceforge.net/DTD/sodipodi-0.dtd"
   xmlns="http://www.w3.org/2000/svg"
   xmlns:svg="http://www.w3.org/2000/svg"><defs
   id="defs27" /><sodipodi:namedview
   id="namedview25"
   pagecolor="#ffffff"
   bordercolor="#000000"
   borderopacity="0.25"
   inkscape:showpageshadow="2"
   inkscape:pageopacity="0.0"
   inkscape:pagecheckerboard="0"
   inkscape:deskcolor="#d1d1d1"
   showgrid="false"
   inkscape:zoom="1.0513053"
   inkscape:cx="108.91223"
   inkscape:cy="77.998275"
   inkscape:window-width="1366"
   inkscape:window-height="675"
   inkscape:window-x="0"
   inkscape:window-y="0"
   inkscape:window-maximized="1"
   inkscape:current-layer="Layer_1" />







<g
   id="g796"
   style="fill:#0000ff"
   transform="matrix(0.50423703,0,0,0.57118382,9.5858811,42.542928)"><path
     d="m 274.816,115.768 c -74.344,0 -104,-61.824 -105.224,-64.456 l 14.496,-6.776 c 1.064,2.256 26.792,55.224 90.736,55.224 64.224,0 89.744,-54.008 89.992,-54.552 l 14.544,6.672 c -1.2,2.616 -30.168,63.888 -104.544,63.888 z"
     id="path2"
     style="fill:#0000ff" /><path
     d="m 274.992,295.992 c -81.608,0 -148,-66.392 -148,-148 0,-81.6 66.392,-147.992 148,-147.992 81.6,0 147.992,66.392 147.992,147.992 0,81.616 -66.392,148 -147.992,148 z m 0,-279.984 c -72.784,0 -132,59.208 -132,131.992 0,72.784 59.216,132 132,132 72.784,0 131.992,-59.216 131.992,-132 0,-72.784 -59.216,-131.992 -131.992,-131.992 z"
     id="path12"
     style="fill:#0000ff" /><path
     id="rect14"
     d="m 266.992,3.7920001 h 16 V 284.83201 h -16 z" /><path
     id="rect16"
     d="M 134.75999,140 H 417.976 v 16 H 134.75999 Z" /><path
     d="m 184.088,252.144 -14.496,-6.752 c 1.224,-2.632 30.88,-64.456 105.224,-64.456 74.376,0 103.344,61.272 104.536,63.88 l -14.544,6.672 c -1.024,-2.208 -26.096,-54.552 -89.992,-54.552 -64.256,0 -90.464,54.656 -90.728,55.208 z"
     id="path18"
     style="fill:#0000ff" /><path
     d="m 266.552,294.912 c -2.8,-2.552 -68.496,-63.648 -68.496,-146.912 0,-83.408 67.216,-142.248 70.08,-144.712 l 10.448,12.12 c -0.648,0.56 -64.52,56.648 -64.52,132.592 0,76.296 62.656,134.536 63.288,135.12 z"
     id="path20"
     style="fill:#0000ff" /><path
     d="m 283.416,294.912 -10.808,-11.8 c 0.632,-0.576 63.304,-59.016 63.304,-135.12 C 335.912,72.048 272.04,15.96 271.392,15.4 L 281.84,3.28 c 2.856,2.464 70.08,61.304 70.08,144.712 0,83.272 -65.704,144.368 -68.504,146.92 z"
     id="path22"
     style="fill:#0000ff" /></g>
<g
   aria-label="com"
   id="text467-3-1"
   style="font-size:33.7458px;-inkscape-font-specification:'sans-serif, Normal';stroke:#003f98"><path
     d="m 10.405847,74.826266 q -2.3959515,0 -4.2857163,-0.978629 -1.856019,-0.978628 -2.9358846,-3.037122 -1.0461198,-2.058493 -1.0461198,-5.264344 0,-3.340835 1.1136114,-5.433074 1.1136114,-2.09224 3.0033762,-3.070868 1.9235106,-0.978628 4.3532081,-0.978628 1.383578,0 2.665918,0.303712 1.282341,0.269966 2.09224,0.674916 l -0.911137,2.463443 q -0.809899,-0.303712 -1.889765,-0.573678 -1.079865,-0.269967 -2.024748,-0.269967 -5.3318359,0 -5.3318359,6.850398 0,3.273342 1.2823404,5.028124 1.3160862,1.721036 3.8807665,1.721036 1.484816,0 2.598427,-0.303712 1.147357,-0.303713 2.09224,-0.742408 v 2.632172 q -0.911137,0.472442 -2.024748,0.708662 -1.079866,0.269967 -2.632173,0.269967 z"
     id="path303" /><path
     d="m 35.074013,65.411187 q 0,4.488192 -2.294715,6.951635 -2.260968,2.463444 -6.141735,2.463444 -2.395952,0 -4.285717,-1.079866 -1.856019,-1.113611 -2.935885,-3.205851 -1.079865,-2.125985 -1.079865,-5.129362 0,-4.488191 2.260968,-6.917889 2.260969,-2.429697 6.141736,-2.429697 2.463443,0 4.319462,1.113611 1.889765,1.079866 2.935885,3.172105 1.079866,2.058494 1.079866,5.06187 z m -13.667049,0 q 0,3.205851 1.248594,5.095616 1.282341,1.856019 4.049496,1.856019 2.73341,0 4.01575,-1.856019 1.282341,-1.889765 1.282341,-5.095616 0,-3.205851 -1.282341,-5.028124 -1.28234,-1.822273 -4.049496,-1.822273 -2.767155,0 -4.01575,1.822273 -1.248594,1.822273 -1.248594,5.028124 z"
     id="path305" /><path
     d="m 59.607193,56.063601 q 3.070868,0 4.589429,1.586052 1.518561,1.552307 1.518561,5.06187 V 74.488808 H 62.779298 V 62.846507 q 0,-4.285717 -3.678292,-4.285717 -2.632172,0 -3.779529,1.518561 -1.113612,1.518561 -1.113612,4.4207 v 9.988757 H 51.271981 V 62.846507 q 0,-4.285717 -3.712038,-4.285717 -2.73341,0 -3.77953,1.68729 -1.04612,1.68729 -1.04612,4.859395 v 9.381333 h -2.96963 V 56.401059 h 2.395952 l 0.438695,2.463443 h 0.168729 q 0.843645,-1.417323 2.260969,-2.092239 1.451069,-0.708662 3.070867,-0.708662 4.251971,0 5.534312,3.037122 h 0.168729 q 0.911136,-1.552307 2.463443,-2.294715 1.586053,-0.742407 3.340834,-0.742407 z"
     id="path307" /></g><g
   aria-label="gov"
   id="text467-3-70"
   style="font-size:33.7458px;-inkscape-font-specification:'sans-serif, Normal';stroke:#003f98"><path
     d="m 95.576749,6.2071918 q 1.788527,0 3.205851,0.674916 1.45107,0.674916 2.46344,2.0584938 h 0.16873 l 0.40495,-2.3959518 h 2.36221 V 24.936111 q 0,3.880767 -1.991,5.838023 -1.95726,1.957257 -6.107994,1.957257 -3.982005,0 -6.51294,-1.147358 v -2.733409 q 2.665919,1.417323 6.681669,1.417323 2.32846,0 3.644546,-1.383578 1.349829,-1.349832 1.349829,-3.712038 V 24.46367 q 0,-0.40495 0.0338,-1.147358 0.0337,-0.776153 0.0675,-1.079865 h -0.13498 q -1.822276,2.73341 -5.601805,2.73341 -3.509564,0 -5.500566,-2.463444 -1.957256,-2.463443 -1.957256,-6.884143 0,-4.319462 1.957256,-6.8503974 1.991002,-2.5646808 5.46682,-2.5646808 z m 0.404949,2.4971892 q -2.260968,0 -3.509563,1.822273 -1.248594,1.788528 -1.248594,5.129362 0,3.340834 1.214848,5.129361 1.248595,1.754782 3.610801,1.754782 2.73341,0 3.982,-1.451069 1.2486,-1.484816 1.2486,-4.758158 V 15.62227 q 0,-3.712038 -1.282341,-5.298091 -1.282341,-1.619798 -4.015751,-1.619798 z"
     id="path296" /><path
     d="m 125.64425,15.554778 q 0,4.488192 -2.29471,6.951635 -2.26097,2.463444 -6.14174,2.463444 -2.39595,0 -4.28572,-1.079866 -1.85602,-1.113611 -2.93588,-3.205851 -1.07987,-2.125985 -1.07987,-5.129362 0,-4.488191 2.26097,-6.9178886 2.26097,-2.4296976 6.14174,-2.4296976 2.46344,0 4.31946,1.1136114 1.88976,1.0798656 2.93588,3.1721048 1.07987,2.058494 1.07987,5.06187 z m -13.66705,0 q 0,3.205851 1.2486,5.095616 1.28234,1.856019 4.04949,1.856019 2.73341,0 4.01575,-1.856019 1.28234,-1.889765 1.28234,-5.095616 0,-3.205851 -1.28234,-5.028124 -1.28234,-1.822273 -4.04949,-1.822273 -2.76716,0 -4.01575,1.822273 -1.2486,1.822273 -1.2486,5.028124 z"
     id="path298" /><path
     d="M 133.64197,24.632399 126.79158,6.5446498 h 3.1721 l 3.84702,10.6636732 q 0.26997,0.742407 0.57368,1.653544 0.30371,0.911136 0.53993,1.754781 0.23622,0.8099 0.33746,1.383578 h 0.13499 q 0.13498,-0.573678 0.3712,-1.417323 0.26997,-0.843645 0.57368,-1.754782 0.33746,-0.911137 0.57368,-1.619798 l 3.84702,-10.6636732 h 3.1721 L 137.0503,24.632399 Z"
     id="path300" /></g><g
   aria-label="edu"
   id="text467-3-6"
   style="font-size:33.7458px;-inkscape-font-specification:'sans-serif, Normal';stroke:#003f98"><path
     d="m 232.68017,29.433962 q 2.32846,0 3.98201,1.012374 1.68729,1.012374 2.56468,2.868393 0.91114,1.822273 0.91114,4.285717 v 1.788527 h -12.38471 q 0.0675,3.070868 1.5523,4.690666 1.51857,1.586053 4.21823,1.586053 1.72104,0 3.03712,-0.303712 1.34983,-0.337458 2.76716,-0.944883 v 2.598427 q -1.38358,0.607424 -2.73341,0.877391 -1.34983,0.303712 -3.20585,0.303712 -2.56468,0 -4.55569,-1.04612 -1.95725,-1.04612 -3.07086,-3.104613 -1.07987,-2.09224 -1.07987,-5.095616 0,-2.969631 0.97863,-5.095616 1.01237,-2.125985 2.8009,-3.273343 1.82227,-1.147357 4.21822,-1.147357 z m -0.0337,2.429698 q -2.12599,0 -3.37458,1.383578 -1.21485,1.349832 -1.45107,3.779529 h 9.2126 q -0.0337,-2.294714 -1.07986,-3.712038 -1.04612,-1.451069 -3.30709,-1.451069 z"
     id="path289" /><path
     d="m 251.1391,48.196627 q -3.37458,0 -5.39933,-2.32846 -2.02475,-2.362206 -2.02475,-7.019127 0,-4.65692 2.02475,-7.019126 2.0585,-2.395952 5.43308,-2.395952 2.09224,0 3.40832,0.776154 1.34983,0.776153 2.19348,1.889764 h 0.20247 q -0.0337,-0.438695 -0.13498,-1.28234 -0.0675,-0.877391 -0.0675,-1.383578 v -7.221601 h 2.96963 v 25.646808 h -2.39595 l -0.4387,-2.429698 h -0.13498 q -0.8099,1.147358 -2.15973,1.957257 -1.34983,0.809899 -3.47582,0.809899 z m 0.47244,-2.463443 q 2.86839,0 4.01575,-1.552307 1.1811,-1.586053 1.1811,-4.758158 v -0.539933 q 0,-3.37458 -1.11361,-5.163107 -1.11361,-1.822273 -4.11698,-1.822273 -2.39596,0 -3.61081,1.92351 -1.1811,1.889765 -1.1811,5.095616 0,3.239597 1.1811,5.028124 1.21485,1.788528 3.64455,1.788528 z"
     id="path291" /><path
     d="m 280.59917,29.77142 v 18.087749 h -2.42969 l -0.4387,-2.395952 h -0.13498 q -0.87739,1.417324 -2.4297,2.09224 -1.55231,0.64117 -3.30709,0.64117 -3.27334,0 -4.92688,-1.552307 -1.65355,-1.586052 -1.65355,-5.028124 V 29.77142 h 3.00338 v 11.642301 q 0,4.319463 4.01575,4.319463 3.00337,0 4.15073,-1.68729 1.1811,-1.68729 1.1811,-4.859396 V 29.77142 Z"
     id="path293" /></g><g
   aria-label="org"
   id="text467-3-62"
   style="font-size:33.7458px;-inkscape-font-specification:'sans-serif, Normal';stroke:#003f98"><path
     d="m 18.189115,119.53829 q 0,4.48819 -2.294714,6.95163 -2.260969,2.46344 -6.1417357,2.46344 -2.3959518,0 -4.2857166,-1.07986 -1.856019,-1.11361 -2.9358846,-3.20585 -1.0798656,-2.12599 -1.0798656,-5.12936 0,-4.4882 2.2609686,-6.91789 2.2609686,-2.4297 6.1417356,-2.4297 2.4634433,0 4.3194623,1.11361 1.889765,1.07987 2.935885,3.17211 1.079865,2.05849 1.079865,5.06187 z m -13.6670487,0 q 0,3.20585 1.2485946,5.09561 1.2823404,1.85602 4.049496,1.85602 2.7334101,0 4.0157501,-1.85602 1.28234,-1.88976 1.28234,-5.09561 0,-3.20586 -1.28234,-5.02813 -1.28234,-1.82227 -4.0494959,-1.82227 -2.7671556,0 -4.0157502,1.82227 -1.2485946,1.82227 -1.2485946,5.02813 z"
     id="path282" /><path
     d="m 31.316215,110.1907 q 0.506187,0 1.079866,0.0675 0.607424,0.0337 1.04612,0.13498 l -0.371204,2.73341 q -0.438695,-0.10123 -0.978628,-0.16873 -0.506187,-0.0675 -0.978628,-0.0675 -1.383578,0 -2.598427,0.77616 -1.214849,0.7424 -1.957256,2.12598 -0.708662,1.34983 -0.708662,3.17211 v 9.6513 h -2.969631 v -18.08775 h 2.429698 l 0.337458,3.30709 h 0.134983 q 0.877391,-1.48482 2.260969,-2.56469 1.383578,-1.07986 3.273342,-1.07986 z"
     id="path284" /><path
     d="m 42.891022,110.1907 q 1.788527,0 3.205851,0.67491 1.451069,0.67492 2.463443,2.0585 h 0.168729 l 0.40495,-2.39595 h 2.362206 v 18.39146 q 0,3.88076 -1.991003,5.83802 -1.957256,1.95726 -6.107989,1.95726 -3.982005,0 -6.51294,-1.14736 v -2.73341 q 2.665918,1.41732 6.681669,1.41732 2.32846,0 3.644546,-1.38357 1.349832,-1.34984 1.349832,-3.71204 v -0.70866 q 0,-0.40495 0.03375,-1.14736 0.03375,-0.77615 0.06749,-1.07987 H 48.52657 q -1.822273,2.73341 -5.601803,2.73341 -3.509563,0 -5.500565,-2.46344 -1.957256,-2.46344 -1.957256,-6.88414 0,-4.31947 1.957256,-6.8504 1.991002,-2.56468 5.46682,-2.56468 z m 0.404949,2.49719 q -2.260968,0 -3.509563,1.82227 -1.248595,1.78853 -1.248595,5.12936 0,3.34084 1.214849,5.12936 1.248595,1.75479 3.610801,1.75479 2.73341,0 3.982004,-1.45107 1.248595,-1.48482 1.248595,-4.75816 v -0.70866 q 0,-3.71204 -1.282341,-5.29809 -1.28234,-1.6198 -4.01575,-1.6198 z"
     id="path286" /></g><g
   aria-label="net"
   id="text467-3-62-1"
   style="font-size:33.7458px;-inkscape-font-specification:'sans-serif, Normal';stroke:#003f98"><path
     d="m 12.260004,177.85363 q 3.239597,0 4.893141,1.58605 1.653545,1.55231 1.653545,5.06187 v 11.77729 h -2.935885 v -11.57481 q 0,-4.35321 -4.049496,-4.35321 -3.0033762,0 -4.1507334,1.68729 -1.1473572,1.68729 -1.1473572,4.8594 v 9.38133 H 3.553588 v -18.08775 h 2.3959518 l 0.4386954,2.46344 h 0.168729 q 0.8773908,-1.41732 2.4296976,-2.09224 1.5523072,-0.70866 3.2733422,-0.70866 z"
     id="path275" /><path
     d="m 31.393875,177.85363 q 2.32846,0 3.982004,1.01238 1.68729,1.01237 2.564681,2.86839 0.911136,1.82227 0.911136,4.28572 v 1.78852 H 26.466988 q 0.06749,3.07087 1.552307,4.69067 1.518561,1.58605 4.218225,1.58605 1.721035,0 3.037122,-0.30371 1.349832,-0.33746 2.767155,-0.94488 v 2.59842 q -1.383578,0.60743 -2.73341,0.87739 -1.349832,0.30372 -3.205851,0.30372 -2.56468,0 -4.555683,-1.04612 -1.957256,-1.04612 -3.070867,-3.10462 -1.079866,-2.09224 -1.079866,-5.09561 0,-2.96963 0.978628,-5.09562 1.012374,-2.12598 2.800902,-3.27334 1.822273,-1.14736 4.218225,-1.14736 z m -0.03375,2.4297 q -2.125986,0 -3.37458,1.38358 -1.214849,1.34983 -1.45107,3.77953 h 9.212604 q -0.03375,-2.29472 -1.079866,-3.71204 -1.04612,-1.45107 -3.307088,-1.45107 z"
     id="path277" /><path
     d="m 49.481598,194.1866 q 0.674916,0 1.383578,-0.10124 0.708662,-0.13498 1.147357,-0.26996 v 2.26096 q -0.472441,0.23622 -1.349832,0.37121 -0.87739,0.16873 -1.68729,0.16873 -1.417323,0 -2.632172,-0.47244 -1.181103,-0.50619 -1.923511,-1.72104 -0.742407,-1.21485 -0.742407,-3.40833 V 180.4858 H 41.11264 v -1.41732 l 2.598427,-1.1811 1.181103,-3.84702 h 1.754781 v 4.15073 h 5.230599 v 2.29471 h -5.230599 v 10.4612 q 0,1.65355 0.776154,2.46345 0.809899,0.77615 2.058493,0.77615 z"
     id="path279" /></g><g
   aria-label="mil"
   id="text467-3-62-7"
   style="font-size:33.7458px;-inkscape-font-specification:'sans-serif, Normal';stroke:#003f98"><path
     d="m 259.41849,177.09471 q 3.07087,0 4.58943,1.58605 1.51856,1.55231 1.51856,5.06187 v 11.77728 h -2.93589 v -11.6423 q 0,-4.28571 -3.67829,-4.28571 -2.63217,0 -3.77953,1.51856 -1.11361,1.51856 -1.11361,4.4207 v 9.98875 h -2.93588 v -11.6423 q 0,-4.28571 -3.71204,-4.28571 -2.73341,0 -3.77953,1.68729 -1.04612,1.68729 -1.04612,4.85939 v 9.38133 h -2.96963 v -18.08775 h 2.39595 l 0.4387,2.46345 h 0.16872 q 0.84365,-1.41733 2.26097,-2.09224 1.45107,-0.70866 3.07087,-0.70866 4.25197,0 5.53431,3.03712 h 0.16873 q 0.91114,-1.55231 2.46344,-2.29472 1.58606,-0.7424 3.34084,-0.7424 z"
     id="path268" /><path
     d="m 272.64682,170.64926 q 0.67492,0 1.18111,0.47244 0.53993,0.43869 0.53993,1.41732 0,0.94489 -0.53993,1.41733 -0.50619,0.47244 -1.18111,0.47244 -0.7424,0 -1.24859,-0.47244 -0.50619,-0.47244 -0.50619,-1.41733 0,-0.97863 0.50619,-1.41732 0.50619,-0.47244 1.24859,-0.47244 z m 1.45107,6.7829 v 18.08775 h -2.96963 v -18.08775 z"
     id="path270" /><path
     d="m 282.80429,195.51991 h -2.96963 V 169.8731 h 2.96963 z"
     id="path272" /></g><g
   aria-label="bel"
   id="text467-3-62-2"
   style="font-size:33.7458px;-inkscape-font-specification:'sans-serif, Normal';stroke:#003f98"><path
     d="m 240.53341,96.325077 q 0,1.147358 -0.0675,2.159732 -0.0337,0.978628 -0.10124,1.552311 h 0.16873 q 0.77616,-1.147362 2.12599,-1.923515 1.34983,-0.776154 3.47582,-0.776154 3.37458,0 5.39932,2.362206 2.0585,2.328463 2.0585,6.985383 0,4.65692 -2.0585,7.01912 -2.05849,2.36221 -5.39932,2.36221 -2.12599,0 -3.47582,-0.77615 -1.34983,-0.77616 -2.12599,-1.85602 h -0.23622 l -0.60742,2.29471 h -2.12599 V 90.082104 h 2.96963 z m 5.09562,3.475818 q -2.8684,0 -3.98201,1.653545 -1.11361,1.65354 -1.11361,5.12936 v 0.13498 q 0,3.34084 1.07987,5.12937 1.11361,1.75478 4.08324,1.75478 2.4297,0 3.6108,-1.78853 1.21485,-1.78853 1.21485,-5.16311 0,-6.850395 -4.89314,-6.850395 z"
     id="path261" /><path
     d="m 265.30282,97.303706 q 2.32846,0 3.98201,1.012374 1.68729,1.012374 2.56468,2.86839 0.91113,1.82228 0.91113,4.28572 v 1.78853 h -12.3847 q 0.0675,3.07086 1.5523,4.69066 1.51856,1.58606 4.21823,1.58606 1.72103,0 3.03712,-0.30372 1.34983,-0.33745 2.76716,-0.94488 v 2.59843 q -1.38358,0.60742 -2.73341,0.87739 -1.34984,0.30371 -3.20586,0.30371 -2.56468,0 -4.55568,-1.04612 -1.95726,-1.04612 -3.07087,-3.10461 -1.07986,-2.09224 -1.07986,-5.09562 0,-2.96963 0.97863,-5.09561 1.01237,-2.12599 2.8009,-3.273347 1.82227,-1.147357 4.21822,-1.147357 z m -0.0337,2.429697 q -2.12599,0 -3.37458,1.383577 -1.21485,1.34983 -1.45107,3.77953 h 9.2126 q -0.0337,-2.29471 -1.07986,-3.71204 -1.04612,-1.451067 -3.30709,-1.451067 z"
     id="path263" /><path
     d="m 280.31967,115.72891 h -2.96963 V 90.082104 h 2.96963 z"
     id="path265" /></g></svg>
