<?xml version="1.0" encoding="UTF-8" standalone="no"?>
<!-- Generator: Adobe Illustrator 27.5.0, SVG Export Plug-In . SVG Version: 6.00 Build 0)  -->

<svg
   version="1.1"
   x="0px"
   y="0px"
   viewBox="0 0 600 500"
   style="enable-background:new 0 0 600 500;"
   xml:space="preserve"
   id="svg5760"
   sodipodi:docname="17877482_5872148.svg"
   inkscape:version="1.2.2 (b0a8486541, 2022-12-01)"
   xmlns:inkscape="http://www.inkscape.org/namespaces/inkscape"
   xmlns:sodipodi="http://sodipodi.sourceforge.net/DTD/sodipodi-0.dtd"
   xmlns:xlink="http://www.w3.org/1999/xlink"
   xmlns="http://www.w3.org/2000/svg"
   xmlns:svg="http://www.w3.org/2000/svg"><defs
   id="defs5764" /><sodipodi:namedview
   id="namedview5762"
   pagecolor="#ffffff"
   bordercolor="#000000"
   borderopacity="0.25"
   inkscape:showpageshadow="2"
   inkscape:pageopacity="0.0"
   inkscape:pagecheckerboard="0"
   inkscape:deskcolor="#d1d1d1"
   showgrid="false"
   inkscape:zoom="1.01"
   inkscape:cx="300"
   inkscape:cy="329.70297"
   inkscape:window-width="1366"
   inkscape:window-height="667"
   inkscape:window-x="0"
   inkscape:window-y="0"
   inkscape:window-maximized="1"
   inkscape:current-layer="svg5760" />
<g
   id="BACKGROUND">
	<rect
   style="fill:#FFFFFF;"
   width="600"
   height="500"
   id="rect5104" />
</g>
<g
   id="OBJECTS">
	<g
   id="g5707">
		<path
   style="fill:#CBBFFF;"
   d="M314.404,63.87c-58.872-26.12-130.361-19.301-184.805,15.109    C15.271,151.236,6.97,325.79,108.273,412.767c103.267,88.665,274.276,89.88,383.522,11.562    c101.38-72.677,147.755-249.108,9.012-275.625C424.449,134.111,351.073,80.14,314.404,63.87z"
   id="path5107" />
		<g
   id="g5343">
			<g
   id="g5237">
				<path
   style="fill:none;stroke:#907EDE;stroke-linecap:round;stroke-linejoin:round;stroke-miterlimit:10;"
   d="M278.593,233.06      c70.825-2.09,141.719-1.829,212.526,0.785c1.701,0.063,2.961,1.651,2.584,3.31c-0.376,1.649-1.06,3.396-2.298,3.793      c-70.37,0.354-140.739,0.708-211.109,1.054c-2.036,0.01-3.761-1.479-4.073-3.491c-0.125-0.807-0.218-1.632-0.287-2.476      C275.807,234.468,277.021,233.106,278.593,233.06z"
   id="path5109" />
				<g
   id="g5139">
					<path
   style="fill:none;stroke:#907EDE;stroke-linecap:round;stroke-linejoin:round;stroke-miterlimit:10;"
   d="M285.338,232.872       c-0.335-0.248-0.647-0.528-0.933-0.845c-1.457-1.618-1.929-3.874-2.264-6.026c-0.901-5.799-1.206-11.692-0.908-17.553       c0.128-2.522,0.417-5.176,1.9-7.218c1.861-2.564,5.159-3.582,8.256-4.252c4.835-1.046,9.769-1.636,14.714-1.758       c3.169-0.079,6.594,0.121,9.066,2.106c3.226,2.59,3.717,7.246,3.812,11.383c0.12,5.19,0.017,10.385-0.31,15.566       c-0.147,2.311-0.375,4.734-1.664,6.657c-0.309,0.46-0.67,0.876-1.072,1.247"
   id="path5111" />
					<path
   style="fill:none;stroke:#907EDE;stroke-linecap:round;stroke-linejoin:round;stroke-miterlimit:10;"
   d="M313.696,215.089       c-0.928-1.003-2.631-1.171-3.727-0.354c-1.095,0.818-1.415,2.514-0.677,3.665c0.736,1.151,2.427,1.566,3.606,0.874       C314.076,218.58,315.039,216.542,313.696,215.089z"
   id="path5113" />
					<g
   id="g5135">
						<path
   style="fill:none;stroke:#907EDE;stroke-linecap:round;stroke-linejoin:round;stroke-miterlimit:10;"
   d="        M283.133,201.229c-1.04,1.432-1.487,3.166-1.709,4.944c12.417,1.273,24.967,0.685,37.293-1.312        c-0.384-2.932-1.303-5.734-3.548-7.536c-2.472-1.985-5.897-2.185-9.066-2.106c-4.945,0.122-9.879,0.712-14.714,1.758        C288.292,197.647,284.994,198.665,283.133,201.229z"
   id="path5115" />
						<g
   id="g5133">
							<defs
   id="defs5118">
								<path
   id="SVGID_1_"
   d="M283.133,201.229c-1.04,1.432-1.487,3.166-1.709,4.944c12.417,1.273,24.967,0.685,37.293-1.312          c-0.384-2.932-1.303-5.734-3.548-7.536c-2.472-1.985-5.897-2.185-9.066-2.106c-4.945,0.122-9.879,0.712-14.714,1.758          C288.292,197.647,284.994,198.665,283.133,201.229z" />
							</defs>
							<clipPath
   id="SVGID_00000037694258430392379730000010980966950924294586_">
								<use
   xlink:href="#SVGID_1_"
   style="overflow:visible;"
   id="use5120" />
							</clipPath>
							<g
   style="clip-path:url(#SVGID_00000037694258430392379730000010980966950924294586_);"
   clip-path="url(#SVGID_00000037694258430392379730000010980966950924294586_)"
   id="g5131">
								<path
   style="fill:none;stroke:#907EDE;stroke-linecap:round;stroke-linejoin:round;stroke-miterlimit:10;"
   d="          M289.477,194.785c-0.612,4.23-0.778,8.525-0.494,12.791"
   id="path5123" />
								<path
   style="fill:none;stroke:#907EDE;stroke-linecap:round;stroke-linejoin:round;stroke-miterlimit:10;"
   d="          M296.985,193.76c-0.746,4.749-1.041,9.569-0.88,14.374"
   id="path5125" />
								<path
   style="fill:none;stroke:#907EDE;stroke-linecap:round;stroke-linejoin:round;stroke-miterlimit:10;"
   d="          M303.44,194.144c-0.436,4.975-0.42,9.989,0.045,14.961"
   id="path5127" />
								<path
   style="fill:none;stroke:#907EDE;stroke-linecap:round;stroke-linejoin:round;stroke-miterlimit:10;"
   d="          M310.855,194.642c-0.273,4.178-0.093,8.386,0.536,12.525"
   id="path5129" />
							</g>
						</g>
					</g>
					<path
   style="fill:none;stroke:#907EDE;stroke-linecap:round;stroke-linejoin:round;stroke-miterlimit:10;"
   d="M318.671,224.274       c0.273-4.324,0.38-8.658,0.342-12.991c-8.326,0.26-16.637,0.548-24.418,1.845c-0.225,3.576-0.117,7.173,0.988,10.841       c7.669,0.725,15.397,0.835,23.085,0.342C318.669,224.299,318.67,224.286,318.671,224.274z"
   id="path5137" />
				</g>
				<g
   id="g5171">
					<path
   style="fill:none;stroke:#907EDE;stroke-linecap:round;stroke-linejoin:round;stroke-miterlimit:10;"
   d="M350.003,222.065       c-0.928-1.004-2.631-1.171-3.727-0.354c-1.094,0.817-1.415,2.514-0.677,3.665c0.737,1.151,2.428,1.566,3.606,0.874       C350.383,225.556,351.347,223.518,350.003,222.065z"
   id="path5141" />
					<path
   style="fill:none;stroke:#907EDE;stroke-linecap:round;stroke-linejoin:round;stroke-miterlimit:10;"
   d="M331.937,231.932       c-0.25-0.185-0.487-0.39-0.712-0.615c-2.076-2.088-2.354-5.312-2.511-8.253c-0.114-2.144-0.227-4.315,0.2-6.42       c0.426-2.104,1.457-4.169,3.215-5.402c1.815-1.273,4.138-1.51,6.348-1.688c4.234-0.339,8.473-0.605,12.716-0.798       c2.843-0.13,5.97-0.137,8.167,1.673c2.586,2.13,2.89,5.91,2.994,9.259c0.062,2.028,0.126,4.057,0.188,6.086       c0.054,1.761,0.078,3.64-0.857,5.133c-0.18,0.287-0.39,0.549-0.625,0.788"
   id="path5143" />
					<path
   style="fill:none;stroke:#907EDE;stroke-linecap:round;stroke-linejoin:round;stroke-miterlimit:10;"
   d="M355.502,228.448       c-5.635,0.843-11.357,1.101-17.046,0.77c-0.622-3.74-0.569-6.985,0.396-9.87c5.439-0.981,10.998-1.295,16.62-0.389       C355.906,221.818,356.133,224.709,355.502,228.448z"
   id="path5145" />
					<g
   id="g5169">
						<path
   style="fill:none;stroke:#907EDE;stroke-linecap:round;stroke-linejoin:round;stroke-miterlimit:10;"
   d="        M329.023,216.192c10.814,0.854,21.932,0.577,32.943-0.722c-0.366-1.967-1.087-3.791-2.605-5.041        c-2.197-1.81-5.324-1.803-8.167-1.673c-4.243,0.193-8.482,0.459-12.716,0.798c-2.21,0.178-4.533,0.415-6.348,1.688        C330.498,212.386,329.499,214.248,329.023,216.192z"
   id="path5147" />
						<g
   id="g5167">
							<defs
   id="defs5150">
								<path
   id="SVGID_00000005234177869409427620000003677260031719583926_"
   d="M329.023,216.192          c10.814,0.854,21.932,0.577,32.943-0.722c-0.366-1.967-1.087-3.791-2.605-5.041c-2.197-1.81-5.324-1.803-8.167-1.673          c-4.243,0.193-8.482,0.459-12.716,0.798c-2.21,0.178-4.533,0.415-6.348,1.688          C330.498,212.386,329.499,214.248,329.023,216.192z" />
							</defs>
							<clipPath
   id="SVGID_00000067221365910272352990000005976881950986887864_">
								<use
   xlink:href="#SVGID_00000005234177869409427620000003677260031719583926_"
   style="overflow:visible;"
   id="use5152" />
							</clipPath>
							<g
   style="clip-path:url(#SVGID_00000067221365910272352990000005976881950986887864_);"
   clip-path="url(#SVGID_00000067221365910272352990000005976881950986887864_)"
   id="g5165">
								<path
   style="fill:none;stroke:#907EDE;stroke-linecap:round;stroke-linejoin:round;stroke-miterlimit:10;"
   d="          M334.665,206.996c-0.638,3.426-0.838,6.934-0.593,10.411"
   id="path5155" />
								<path
   style="fill:none;stroke:#907EDE;stroke-linecap:round;stroke-linejoin:round;stroke-miterlimit:10;"
   d="          M339.184,208.316c-0.294,3.266-0.364,6.552-0.209,9.827"
   id="path5157" />
								<path
   style="fill:none;stroke:#907EDE;stroke-linecap:round;stroke-linejoin:round;stroke-miterlimit:10;"
   d="          M345.364,207.802c-0.165,3.315-0.168,6.639-0.01,9.954"
   id="path5159" />
								
									<line
   style="fill:none;stroke:#907EDE;stroke-linecap:round;stroke-linejoin:round;stroke-miterlimit:10;"
   x1="350.955"
   y1="207.626"
   x2="350.87"
   y2="217.268"
   id="line5161" />
								<path
   style="fill:none;stroke:#907EDE;stroke-linecap:round;stroke-linejoin:round;stroke-miterlimit:10;"
   d="          M356.864,208.385c0.347,2.404,0.702,6,0.624,8.472"
   id="path5163" />
							</g>
						</g>
					</g>
				</g>
				<g
   id="g5203">
					<path
   style="fill:none;stroke:#907EDE;stroke-linecap:round;stroke-linejoin:round;stroke-miterlimit:10;"
   d="M424.863,222.065       c-0.928-1.004-2.631-1.171-3.727-0.354c-1.094,0.817-1.415,2.514-0.677,3.665c0.737,1.151,2.428,1.566,3.606,0.874       C425.243,225.556,426.207,223.518,424.863,222.065z"
   id="path5173" />
					<path
   style="fill:none;stroke:#907EDE;stroke-linecap:round;stroke-linejoin:round;stroke-miterlimit:10;"
   d="M406.68,231.843       c-0.207-0.161-0.406-0.336-0.595-0.527c-2.076-2.088-2.354-5.312-2.511-8.253c-0.114-2.144-0.227-4.315,0.2-6.42       c0.426-2.104,1.457-4.169,3.215-5.402c1.815-1.273,4.138-1.51,6.348-1.688c4.234-0.339,8.473-0.605,12.716-0.798       c2.843-0.13,5.97-0.137,8.167,1.673c2.586,2.13,2.89,5.91,2.994,9.259c0.062,2.028,0.126,4.057,0.188,6.086       c0.054,1.761,0.078,3.64-0.857,5.133c-0.18,0.287-0.747,1.131-0.981,1.37"
   id="path5175" />
					<path
   style="fill:none;stroke:#907EDE;stroke-linecap:round;stroke-linejoin:round;stroke-miterlimit:10;"
   d="M430.362,228.448       c-5.635,0.843-11.357,1.101-17.046,0.77c-0.622-3.74-0.569-6.985,0.396-9.87c5.439-0.981,10.998-1.295,16.62-0.389       C430.766,221.818,430.993,224.709,430.362,228.448z"
   id="path5177" />
					<g
   id="g5201">
						<path
   style="fill:none;stroke:#907EDE;stroke-linecap:round;stroke-linejoin:round;stroke-miterlimit:10;"
   d="        M403.882,216.192c10.814,0.854,21.932,0.577,32.943-0.722c-0.367-1.967-1.087-3.791-2.605-5.041        c-2.197-1.81-5.324-1.803-8.167-1.673c-4.243,0.193-8.482,0.459-12.716,0.798c-2.21,0.178-4.533,0.415-6.348,1.688        C405.357,212.386,404.359,214.248,403.882,216.192z"
   id="path5179" />
						<g
   id="g5199">
							<defs
   id="defs5182">
								<path
   id="SVGID_00000065048203240872081650000009159127253449384069_"
   d="M403.882,216.192          c10.814,0.854,21.932,0.577,32.943-0.722c-0.367-1.967-1.087-3.791-2.605-5.041c-2.197-1.81-5.324-1.803-8.167-1.673          c-4.243,0.193-8.482,0.459-12.716,0.798c-2.21,0.178-4.533,0.415-6.348,1.688          C405.357,212.386,404.359,214.248,403.882,216.192z" />
							</defs>
							<clipPath
   id="SVGID_00000002361644519851078620000013825476876302125702_">
								<use
   xlink:href="#SVGID_00000065048203240872081650000009159127253449384069_"
   style="overflow:visible;"
   id="use5184" />
							</clipPath>
							<g
   style="clip-path:url(#SVGID_00000002361644519851078620000013825476876302125702_);"
   clip-path="url(#SVGID_00000002361644519851078620000013825476876302125702_)"
   id="g5197">
								<path
   style="fill:none;stroke:#907EDE;stroke-linecap:round;stroke-linejoin:round;stroke-miterlimit:10;"
   d="          M409.525,206.996c-0.638,3.426-0.838,6.934-0.593,10.411"
   id="path5187" />
								<path
   style="fill:none;stroke:#907EDE;stroke-linecap:round;stroke-linejoin:round;stroke-miterlimit:10;"
   d="          M414.044,208.316c-0.294,3.266-0.364,6.552-0.209,9.827"
   id="path5189" />
								<path
   style="fill:none;stroke:#907EDE;stroke-linecap:round;stroke-linejoin:round;stroke-miterlimit:10;"
   d="          M420.223,207.802c-0.165,3.315-0.168,6.639-0.01,9.954"
   id="path5191" />
								
									<line
   style="fill:none;stroke:#907EDE;stroke-linecap:round;stroke-linejoin:round;stroke-miterlimit:10;"
   x1="425.815"
   y1="207.626"
   x2="425.73"
   y2="217.268"
   id="line5193" />
								<path
   style="fill:none;stroke:#907EDE;stroke-linecap:round;stroke-linejoin:round;stroke-miterlimit:10;"
   d="          M431.723,208.385c0.347,2.404,0.702,6,0.624,8.472"
   id="path5195" />
							</g>
						</g>
					</g>
				</g>
				<g
   id="g5235">
					<path
   style="fill:none;stroke:#907EDE;stroke-linecap:round;stroke-linejoin:round;stroke-miterlimit:10;"
   d="M470.815,216.714       c-0.929-1.003-2.632-1.171-3.727-0.354c-1.095,0.818-1.416,2.514-0.678,3.665c0.737,1.151,2.428,1.566,3.606,0.874       C471.195,220.205,472.158,218.167,470.815,216.714z"
   id="path5205" />
					<path
   style="fill:none;stroke:#907EDE;stroke-linecap:round;stroke-linejoin:round;stroke-miterlimit:10;"
   d="M453.783,232.684       c0.011-8.501,0.022-17.002,0.033-25.503c0.004-3.562,0.148-7.493,2.579-10.096c2.476-2.651,6.479-3.021,10.1-3.222       c2.654-0.147,5.342-0.293,7.947,0.232c2.606,0.524,5.162,1.801,6.685,3.979c1.562,2.236,1.853,5.095,2.031,7.816       c0.601,9.21,0.473,18.467-0.385,27.657"
   id="path5207" />
					<path
   style="fill:none;stroke:#2E2854;stroke-linecap:round;stroke-linejoin:round;stroke-miterlimit:10;"
   d="M454.022,202.916       c-0.175,1.411-0.204,2.866-0.206,4.266c-0.002,1.563-0.004,3.126-0.006,4.689c9.831,1.171,19.788,1.245,29.636,0.232       c-0.061-2.072-0.152-4.143-0.288-6.211c-0.078-1.2-0.186-2.424-0.408-3.612C473.265,201.529,463.688,201.727,454.022,202.916z"
   id="path5209" />
					<g
   id="g5231">
						<defs
   id="defs5212">
							<path
   id="SVGID_00000003074713557295395420000002632796689311981440_"
   d="M454.022,202.916         c-0.175,1.411-0.204,2.866-0.206,4.266c-0.002,1.563-0.004,3.126-0.006,4.689c9.831,1.171,19.788,1.245,29.636,0.232         c-0.061-2.072-0.152-4.143-0.288-6.211c-0.078-1.2-0.186-2.424-0.408-3.612C473.265,201.529,463.688,201.727,454.022,202.916         z" />
						</defs>
						<clipPath
   id="SVGID_00000043448965376708143810000003921029541215444149_">
							<use
   xlink:href="#SVGID_00000003074713557295395420000002632796689311981440_"
   style="overflow:visible;"
   id="use5214" />
						</clipPath>
						<g
   style="clip-path:url(#SVGID_00000043448965376708143810000003921029541215444149_);"
   clip-path="url(#SVGID_00000043448965376708143810000003921029541215444149_)"
   id="g5227">
							<path
   style="fill:none;stroke:#907EDE;stroke-linecap:round;stroke-linejoin:round;stroke-miterlimit:10;"
   d="M457.93,201.96         c-0.219,3.73-0.437,7.46-0.656,11.189"
   id="path5217" />
							<path
   style="fill:none;stroke:#907EDE;stroke-linecap:round;stroke-linejoin:round;stroke-miterlimit:10;"
   d="         M462.545,201.219c0.084,4.307,0.168,8.614,0.253,12.921"
   id="path5219" />
							
								<line
   style="fill:none;stroke:#907EDE;stroke-linecap:round;stroke-linejoin:round;stroke-miterlimit:10;"
   x1="468.296"
   y1="200.694"
   x2="468.41"
   y2="214.007"
   id="line5221" />
							<path
   style="fill:none;stroke:#907EDE;stroke-linecap:round;stroke-linejoin:round;stroke-miterlimit:10;"
   d="         M474.205,200.651c0.003,4.116,0.007,8.233,0.011,12.349"
   id="path5223" />
							<path
   style="fill:none;stroke:#907EDE;stroke-linecap:round;stroke-linejoin:round;stroke-miterlimit:10;"
   d="         M479.343,200.992c0.23,3.896,0.462,7.792,0.693,11.689"
   id="path5225" />
						</g>
						
							<use
   xlink:href="#SVGID_00000003074713557295395420000002632796689311981440_"
   style="overflow:visible;fill:none;stroke:#907EDE;stroke-linecap:round;stroke-linejoin:round;stroke-miterlimit:10;"
   id="use5229" />
					</g>
					<path
   style="fill:none;stroke:#907EDE;stroke-linecap:round;stroke-linejoin:round;stroke-miterlimit:10;"
   d="M482.772,233.547       c0.3-3.216,0.511-6.441,0.633-9.67c-9.751,0.292-19.527,0.581-29.612,0.83c-0.003,2.659-0.007,5.318-0.01,7.977"
   id="path5233" />
				</g>
			</g>
			<g
   id="g5311">
				<g
   id="g5287">
					<path
   style="opacity:0.15;fill:#2E2854;"
   d="M287.356,176.151c-1.368-31.051-2.736-62.101-4.105-93.152l-4.515-3.049       c-56.793-2.273-113.692-1.861-170.446,1.235c-1.908,31.717-2.579,64.489-0.137,98.695l1.302,5.507       c63.025,4.506,126.327,5.132,189.427,1.872l0.229-4.357C295.193,180.652,291.274,178.402,287.356,176.151z"
   id="path5239" />
					<g
   id="g5285">
						<path
   style="fill:#907EDE;"
   d="M283.104,173.068c-1.394-31.637-2.788-63.273-4.183-94.91l-4.515-3.049l-170.583,99.93        l1.302,5.507c63.025,4.506,126.327,5.132,189.427,1.872l0.229-4.357L283.104,173.068z"
   id="path5241" />
						<path
   style="fill:#FFFFFF;"
   d="M294.781,178.061c-5.106-2.933-10.213-5.865-15.32-8.798        c-0.224-1.827-5.055-94.154-5.055-94.154c-56.793-2.273-113.692-1.861-170.446,1.235c-1.908,31.717-2.579,64.489-0.137,98.695        C166.376,179.361,229.197,179.812,294.781,178.061z"
   id="path5243" />
						<path
   style="fill:#D24D84;"
   d="M126.596,107.419c-4.366-1.163-8.32-3.818-11.049-7.42c-1.415-1.868-2.414-4.746-0.719-6.364        c1.04-0.994,2.732-1.008,4.045-0.42c1.313,0.588,2.335,1.662,3.322,2.709c-0.233-1.475-0.459-3.026,0.055-4.428        c0.515-1.402,2.043-2.553,3.468-2.105c1.495,0.469,2.036,2.279,2.242,3.833C128.524,97.459,128.288,101.799,126.596,107.419z"
   id="path5245" />
						<path
   style="fill:#D24D84;"
   d="M250.042,166.734c-0.714-4.462,0.103-9.154,2.283-13.112c1.131-2.053,3.353-4.136,5.521-3.246        c1.331,0.546,2.032,2.086,2.029,3.524c-0.003,1.439-0.568,2.809-1.123,4.137c1.253-0.813,2.577-1.65,4.067-1.751        c1.49-0.1,3.163,0.828,3.334,2.312c0.18,1.557-1.254,2.787-2.589,3.608C259.925,164.443,255.865,165.994,250.042,166.734z"
   id="path5247" />
						<g
   id="g5263">
							<path
   style="fill:none;stroke:#2E2854;stroke-linecap:round;stroke-linejoin:round;stroke-miterlimit:10;"
   d="         M152.601,146.808c2.44-0.806,4.881-1.612,7.322-2.418"
   id="path5249" />
							<path
   style="fill:none;stroke:#2E2854;stroke-linecap:round;stroke-linejoin:round;stroke-miterlimit:10;"
   d="         M148.519,126.901c2.841,0.462,5.682,0.924,8.523,1.386"
   id="path5251" />
							<path
   style="fill:none;stroke:#2E2854;stroke-linecap:round;stroke-linejoin:round;stroke-miterlimit:10;"
   d="         M156.459,105.152c1.479,1.621,2.957,3.243,4.435,4.864"
   id="path5253" />
							<path
   style="fill:none;stroke:#2E2854;stroke-linecap:round;stroke-linejoin:round;stroke-miterlimit:10;"
   d="         M224.944,108.631c2.203-1.687,4.406-3.375,6.609-5.062"
   id="path5255" />
							<path
   style="fill:none;stroke:#2E2854;stroke-linecap:round;stroke-linejoin:round;stroke-miterlimit:10;"
   d="         M226.989,124.374c3.073-1.123,6.146-2.247,9.218-3.37"
   id="path5257" />
							<path
   style="fill:none;stroke:#2E2854;stroke-linecap:round;stroke-linejoin:round;stroke-miterlimit:10;"
   d="         M228.243,129.948c3.093-0.526,6.187-1.053,9.279-1.58"
   id="path5259" />
							<path
   style="fill:none;stroke:#2E2854;stroke-linecap:round;stroke-linejoin:round;stroke-miterlimit:10;"
   d="         M227.369,151.128c2.618,0.974,5.236,1.949,7.854,2.923"
   id="path5261" />
						</g>
						<g
   id="g5283">
							<g
   id="g5271">
								<path
   style="fill:#2E2854;"
   d="M169.269,120.824l0.409-21.784h1.7l10.294,19.549v-2.487c0-6.338,0.115-12.036,0.346-17.094          l1.794,0.346c0.231,4.554,0.42,12.057,0.567,22.508c-0.441,0.189-0.902,0.283-1.385,0.283c-0.714,0-1.459-0.21-2.235-0.63          c-1.28-1.973-2.87-4.858-4.769-8.657c-1.899-3.799-3.248-6.401-4.045-7.807c0.021,1.427,0.037,4.03,0.047,7.807          c0.01,3.778,0.047,6.642,0.11,8.594c-0.189,0.651-0.556,0.976-1.102,0.976c-0.378,0-0.74-0.157-1.086-0.472          C169.568,121.643,169.353,121.265,169.269,120.824z"
   id="path5265" />
								<path
   style="fill:#2E2854;"
   d="M199.647,118.652l0.315,1.385c-0.923,0.336-2.293,0.708-4.108,1.118          c-1.815,0.409-3.164,0.614-4.045,0.614c-0.902,0-1.689-0.299-2.361-0.897c-0.672-0.598-1.175-1.364-1.511-2.298          c-0.336-0.934-0.582-1.857-0.74-2.77c-0.157-0.913-0.236-1.81-0.236-2.692c0-5.247,2.372-7.87,7.115-7.87          c1.133,0,2.13,0.362,2.991,1.086c0.861,0.724,1.291,1.663,1.291,2.817c0,0.63-0.173,1.186-0.519,1.669          s-0.766,0.866-1.259,1.149c-0.493,0.283-1.123,0.54-1.889,0.771c-0.766,0.231-1.443,0.399-2.03,0.504          c-0.588,0.105-1.291,0.22-2.109,0.346c-0.818,0.126-1.385,0.22-1.7,0.283c0.021,0.609,0.058,1.144,0.11,1.606          c0.052,0.462,0.157,0.96,0.315,1.495c0.157,0.535,0.367,0.976,0.63,1.322c0.262,0.346,0.624,0.635,1.086,0.866          c0.462,0.231,1.007,0.346,1.637,0.346c0.756,0,1.679-0.068,2.77-0.205c1.091-0.136,2.062-0.278,2.912-0.425          C199.159,118.725,199.605,118.652,199.647,118.652z M188.975,111.915c2.854-0.818,5.194-1.679,7.02-2.581          c-0.147-0.693-0.346-1.196-0.598-1.511c-0.252-0.315-0.63-0.472-1.133-0.472c-1.28,0-2.44,0.441-3.479,1.322          C189.747,109.554,189.143,110.635,188.975,111.915z"
   id="path5267" />
								<path
   style="fill:#2E2854;"
   d="M216.584,105.399l2.141,0.283c-0.399,1.658-1.028,4.182-1.889,7.571          c-0.86,3.389-1.532,6.144-2.015,8.264c-0.818,0.147-1.522,0.22-2.109,0.22c-0.525,0-1.007-0.042-1.448-0.126l-1.763-6.17          l-1.511,6.202c-0.818,0.147-1.532,0.22-2.141,0.22c-0.504,0-0.976-0.042-1.417-0.126c-0.315-1.091-0.813-2.817-1.495-5.178          c-0.682-2.361-1.259-4.412-1.731-6.154c-0.472-1.742-0.897-3.41-1.275-5.005l2.078,0.157l4.092,13.096          c0.693-2.015,1.417-4.502,2.172-7.461c-0.651-2.413-1.154-4.386-1.511-5.918l2.078,0.157l4.092,13.096          c0.333-1.007,0.686-2.141,1.061-3.4c0.374-1.259,0.676-2.335,0.905-3.227c0.229-0.892,0.531-2.057,0.905-3.494          C216.178,106.967,216.438,105.965,216.584,105.399z"
   id="path5269" />
							</g>
							<g
   id="g5281">
								<path
   style="fill:#2E2854;"
   d="M169.332,129.356l1.763,0.315c0,0.441,0.01,0.766,0.032,0.976          c1.154-0.734,2.319-1.102,3.494-1.102c1.91,0,3.4,0.818,4.47,2.455c1.07,1.637,1.605,3.494,1.605,5.572          c0,1.049-0.079,2.051-0.236,3.006c-0.157,0.955-0.436,1.931-0.834,2.928c-0.399,0.997-1.013,1.794-1.842,2.393          s-1.831,0.897-3.006,0.897c-1.112,0-2.183-0.294-3.211-0.882c0.084,3.673,0.157,6.401,0.22,8.185          c-0.189,0.651-0.556,0.976-1.102,0.976c-0.378,0-0.74-0.152-1.086-0.456c-0.346-0.304-0.561-0.677-0.645-1.117          L169.332,129.356z M171.378,132.722l0.094,10.143c0.252,0.502,0.64,0.906,1.165,1.209c0.525,0.304,1.102,0.455,1.731,0.455          c0.818,0,1.516-0.262,2.093-0.785c0.577-0.523,0.986-1.219,1.228-2.088c0.241-0.868,0.409-1.68,0.504-2.434          c0.094-0.754,0.142-1.549,0.142-2.387c0-3.559-1.207-5.339-3.62-5.339c-0.777,0-1.495,0.11-2.156,0.33          C171.897,132.046,171.504,132.345,171.378,132.722z"
   id="path5273" />
								<path
   style="fill:#2E2854;"
   d="M183.246,139.209c0-0.839,0.089-1.773,0.268-2.802c0.178-1.028,0.446-2.109,0.803-3.242          c0.357-1.133,0.892-2.078,1.605-2.833c0.714-0.755,1.543-1.133,2.487-1.133c2.015,0,3.631,0.908,4.848,2.723          c1.217,1.815,1.826,3.835,1.826,6.06c0,0.944-0.1,1.884-0.299,2.818s-0.509,1.852-0.929,2.755          c-0.42,0.902-1.023,1.653-1.81,2.251c-0.787,0.598-1.705,0.939-2.755,1.023c-1.931-0.252-3.421-1.076-4.47-2.471          C183.771,142.961,183.246,141.245,183.246,139.209z M188.598,130.836c-0.734,0.084-1.354,0.755-1.857,2.015          c-0.504,1.259-0.829,2.482-0.976,3.668c-0.147,1.186-0.22,2.23-0.22,3.132c0,1.175,0.362,2.261,1.086,3.258          c0.724,0.997,1.537,1.495,2.44,1.495c0.651,0,1.238-0.252,1.763-0.755c0.525-0.504,0.939-1.128,1.243-1.873          c0.304-0.745,0.535-1.495,0.693-2.251c0.157-0.756,0.236-1.427,0.236-2.015c0-1.721-0.388-3.221-1.165-4.502          C191.064,131.728,189.983,131.003,188.598,130.836z"
   id="path5275" />
								<path
   style="fill:#2E2854;"
   d="M206.069,130.741L205.754,132c-2.036-0.839-3.62-1.259-4.754-1.259          c-1.007,0-1.716,0.152-2.125,0.456c-0.409,0.304-0.614,0.95-0.614,1.936c0,0.798,0.289,1.459,0.866,1.983          c0.577,0.525,1.275,0.939,2.093,1.243c0.818,0.304,1.642,0.63,2.471,0.976c0.829,0.346,1.532,0.855,2.109,1.527          c0.577,0.672,0.866,1.501,0.866,2.487c0,1.343-0.493,2.518-1.48,3.526c-0.986,1.007-2.267,1.521-3.841,1.543          c-1.154,0-2.235-0.244-3.242-0.731c-1.007-0.487-1.805-1.101-2.393-1.842l0.913-0.953c0.252,0.105,0.624,0.273,1.118,0.504          c0.493,0.231,0.845,0.383,1.055,0.457c0.21,0.073,0.52,0.152,0.929,0.236c0.409,0.084,0.845,0.126,1.306,0.126          c0.986,0,1.794-0.219,2.424-0.657c0.63-0.438,0.944-1.053,0.944-1.846c0-0.521-0.147-0.965-0.441-1.33          c-0.294-0.365-0.682-0.662-1.165-0.891c-0.483-0.229-1.013-0.449-1.59-0.659c-0.577-0.21-1.154-0.446-1.731-0.708          c-0.577-0.262-1.107-0.577-1.59-0.944c-0.483-0.367-0.871-0.866-1.165-1.495c-0.294-0.63-0.441-1.375-0.441-2.235          c0-1.259,0.341-2.314,1.023-3.164s1.642-1.275,2.88-1.275c0.483,0,1.028,0.073,1.637,0.22          c0.609,0.147,1.091,0.283,1.448,0.409c0.357,0.126,0.887,0.33,1.59,0.614C205.56,130.537,205.964,130.699,206.069,130.741z"
   id="path5277" />
								<path
   style="fill:#2E2854;"
   d="M217.182,130.678l0.346,1.417c-0.567,0.042-1.438,0.152-2.613,0.331          c-1.175,0.178-2.057,0.288-2.644,0.331c0.105,0.734,0.168,1.7,0.189,2.896c0.021,1.196,0.047,2.23,0.079,3.101          c0.031,0.871,0.126,1.742,0.283,2.613c0.157,0.871,0.483,1.537,0.976,1.999c0.493,0.462,1.16,0.693,1.999,0.693          c0.63,0,1.417-0.147,2.361-0.441c0.399,0.777,0.693,1.343,0.881,1.7c-1.658,0.588-3.337,0.882-5.037,0.882          c-0.63,0-1.175-0.189-1.637-0.567c-0.462-0.378-0.818-0.85-1.07-1.417c-0.252-0.567-0.456-1.285-0.614-2.156          c-0.157-0.871-0.257-1.695-0.299-2.471c-0.042-0.777-0.063-1.668-0.063-2.676c0-0.546,0.005-1.301,0.016-2.267          c0.011-0.965,0.016-1.626,0.016-1.983c-0.21,0.021-0.703,0.037-1.48,0.047c-0.777,0.01-1.228,0.016-1.354,0.016          c-0.147-1.406-0.22-2.13-0.22-2.172c0.147,0.042,0.388,0.063,0.724,0.063c0.189,0,0.493-0.016,0.913-0.047          c0.42-0.031,0.734-0.047,0.944-0.047c0.084,0,0.194,0.005,0.33,0.016c0.136,0.01,0.226,0.016,0.268,0.016          c0.084-2.309,0.178-4.187,0.283-5.635l1.417,0.346c0.021,0.504,0.037,1.044,0.047,1.621c0.01,0.577,0.021,1.217,0.032,1.92          c0.01,0.703,0.016,1.243,0.016,1.621c0.546,0.042,1.364,0.084,2.455,0.126C215.817,130.594,216.636,130.636,217.182,130.678          z"
   id="path5279" />
							</g>
						</g>
					</g>
				</g>
				<g
   id="g5309">
					<path
   style="opacity:0.15;fill:#2E2854;"
   d="M263.801,23.674l-3.634-2.056c-22.903-1-43.638-0.431-64.374,0.139       c-0.629,23.425-0.037,45.414,1.234,68.728l1.416,3.265c22.017,1.386,44.122,1.369,66.233,0.144       C265.204,70.487,264.912,47.061,263.801,23.674z"
   id="path5289" />
					<g
   id="g5307">
						<path
   style="fill:#907EDE;"
   d="M260.014,19.962c1.111,23.386,1.403,46.812,0.875,70.219        c-22.111,1.225-44.216,1.242-66.233-0.144l-1.416-3.264l63.14-68.867L260.014,19.962z"
   id="path5291" />
						<path
   style="fill:#FFFFFF;"
   d="M256.823,86.702c-21.177,1.04-42.404,1.063-63.583,0.07        c-1.271-23.314-1.863-45.303-1.234-68.728c20.736-0.57,41.471-1.139,64.374-0.139        C256.021,40.746,255.663,63.588,256.823,86.702z"
   id="path5293" />
						<path
   style="fill:#D24D84;"
   d="M228.877,32.182c-8.859,0.307-17.718,0.614-26.577,0.92c0.068,1.597,0.166,3.392,0.447,5.57        c8.915-0.041,17.828-0.45,26.721-1.235C229.464,35.575,229.461,33.712,228.877,32.182z"
   id="path5295" />
						<g
   id="g5305">
							<path
   style="fill:none;stroke:#2E2854;stroke-linecap:round;stroke-linejoin:round;stroke-miterlimit:10;"
   d="         M203.138,49.327c15.009-0.378,30.019-0.755,45.028-1.133"
   id="path5297" />
							<path
   style="fill:none;stroke:#2E2854;stroke-linecap:round;stroke-linejoin:round;stroke-miterlimit:10;"
   d="         M202.843,58.661c15.086-0.483,30.171-0.966,45.257-1.45"
   id="path5299" />
							<path
   style="fill:none;stroke:#2E2854;stroke-linecap:round;stroke-linejoin:round;stroke-miterlimit:10;"
   d="         M203.237,67.179c14.89,0.241,29.788-0.042,44.657-0.849"
   id="path5301" />
							<path
   style="fill:none;stroke:#2E2854;stroke-linecap:round;stroke-linejoin:round;stroke-miterlimit:10;"
   d="M203.92,76.279         c7.241-0.204,14.481-0.407,21.722-0.61"
   id="path5303" />
						</g>
					</g>
				</g>
			</g>
			<g
   id="g5341">
				<polygon
   style="opacity:0.15;fill:#2E2854;"
   points="461.888,61.414 546.493,60.7 551.516,180.926 462.039,181.989     "
   id="polygon5313" />
				<polygon
   style="fill:#D24D84;"
   points="457.242,58.117 541.847,57.403 546.87,177.629 457.393,178.692     "
   id="polygon5315" />
				<polygon
   style="fill:#FFE5B5;"
   points="461.888,65.914 463.01,168.957 541.296,171.393 537.539,60.7     "
   id="polygon5317" />
				<g
   id="g5339">
					<defs
   id="defs5320">
						<polygon
   id="SVGID_00000022554691906175111900000003123698401259540109_"
   points="461.888,65.914 463.01,168.957         541.296,171.393 537.539,60.7       " />
					</defs>
					<clipPath
   id="SVGID_00000029756793070245916050000011949711925602581417_">
						<use
   xlink:href="#SVGID_00000022554691906175111900000003123698401259540109_"
   style="overflow:visible;"
   id="use5322" />
					</clipPath>
					<path
   style="clip-path:url(#SVGID_00000029756793070245916050000011949711925602581417_);fill:#7B478F;"
   d="M549.76,99.405       c-14.599-3.482-29.916-1.578-44.672,1.16c-5.346,0.992-10.923,2.21-15.057,5.74c-3.91,3.339-6.021,8.37-6.986,13.419       c-0.965,5.05-0.914,10.229-1.258,15.359c-0.394,5.882-1.109,12.467,2.625,17.03c3.217,3.929,8.702,4.996,13.737,5.658       c14.086,1.852,28.532,2.53,42.392-0.589c4.974-1.118,10.138-2.921,13.293-6.923c3.106-3.938,3.685-9.239,4.147-14.232       c0.688-7.454,1.379-14.936,1.028-22.413c-0.148-3.167-0.506-6.405-1.907-9.249C555.699,101.521,553.067,99.111,549.76,99.405z"
   clip-path="url(#SVGID_00000029756793070245916050000011949711925602581417_)"
   id="path5325" />
					
						<path
   style="clip-path:url(#SVGID_00000029756793070245916050000011949711925602581417_);fill:none;stroke:#2E2854;stroke-linecap:round;stroke-linejoin:round;stroke-miterlimit:10;"
   d="       M459.387,86.361c6.062-2.207,13.12-0.239,18.063,3.907c4.944,4.146,7.997,10.172,9.784,16.371       c2.177,7.55,2.579,15.955-0.835,23.033c-2.439,5.056-6.657,9.084-11.362,12.145c-4.704,3.062-9.917,5.241-15.097,7.403"
   clip-path="url(#SVGID_00000029756793070245916050000011949711925602581417_)"
   id="path5327" />
					<path
   style="clip-path:url(#SVGID_00000029756793070245916050000011949711925602581417_);fill:#F7A145;"
   d="M514.768,74.149       c-4.141,0.763-8.555,1.967-11.169,5.268c-1.724,2.176-2.421,4.998-2.685,7.761c-0.266,2.764-0.145,5.556-0.457,8.315       c-0.424,3.758-1.564,7.904,0.503,11.07c1.31,2.003,3.648,3.094,5.968,3.684c4.175,1.061,8.568,0.815,12.846,0.305       c3.032-0.361,6.344-1.015,8.243-3.406c1.702-2.143,1.805-5.103,1.831-7.839c0.054-5.515,0.108-11.029,0.161-16.544       c0.025-2.522-0.019-5.258-1.566-7.25c-1.162-1.497-3.033-2.325-4.914-2.553C521.647,72.731,519.778,73.226,514.768,74.149z"
   clip-path="url(#SVGID_00000029756793070245916050000011949711925602581417_)"
   id="path5329" />
					<g
   style="clip-path:url(#SVGID_00000029756793070245916050000011949711925602581417_);"
   clip-path="url(#SVGID_00000029756793070245916050000011949711925602581417_)"
   id="g5337">
						<path
   style="fill:#FFFFFF;"
   d="M498.317,140.62c-1.13,1.48-3.71,3.794-5.15,2.03        C489.021,137.576,504.368,132.701,498.317,140.62z"
   id="path5331" />
						<path
   style="fill:#FFFFFF;"
   d="M511.192,137.169c-0.635,1.751-2.401,4.732-4.305,3.482        C501.411,137.054,514.588,127.799,511.192,137.169z"
   id="path5333" />
						<path
   style="fill:#FFFFFF;"
   d="M508.032,149.887c-0.222,1.849-1.268,5.153-3.404,4.367        C498.478,151.991,509.217,139.991,508.032,149.887z"
   id="path5335" />
					</g>
				</g>
			</g>
		</g>
		<g
   id="g5705">
			<g
   id="g5375">
				<g
   id="g5351">
					<path
   style="fill:#49AD9F;"
   d="M101.502,309.243c-10.58-19.696-21.395-40.185-22.781-62.499       c-0.33-5.318-0.076-10.831,2.142-15.676c2.218-4.846,6.742-8.909,12.054-9.326c4.332-0.34,8.589,1.767,11.687,4.813       c3.098,3.047,5.191,6.959,6.995,10.912c10.089,22.108,12.429,46.964,12.369,71.265L101.502,309.243z"
   id="path5345" />
					<path
   style="fill:none;stroke:#2E2854;stroke-linecap:round;stroke-linejoin:round;stroke-miterlimit:10;"
   d="M93.562,239.547       c8.907,22.083,14.217,45.611,15.68,69.377"
   id="path5347" />
					<path
   style="opacity:0.15;fill:#2E2854;"
   d="M80.198,257.872c3.567,18.066,12.507,34.994,21.303,51.371l22.466-0.511       c0.059-24.004-2.237-48.544-12.016-70.447c-8.188,12.875-11.088,29.094-7.576,43.965       C99.243,270.818,90.546,262.352,80.198,257.872z"
   id="path5349" />
				</g>
				<g
   id="g5359">
					<path
   style="fill:#76C9BF;"
   d="M89.822,317.525c-5.912-13.737-19.562-22.959-25.55-36.663       c-2.49-5.698-3.232-13.094,1.147-17.509c2.257-2.275,5.559-3.332,8.765-3.279c3.205,0.053,6.324,1.129,9.16,2.622       c8.697,4.576,14.898,12.979,18.643,22.065c3.745,9.085,5.279,18.908,6.627,28.641L89.822,317.525z"
   id="path5353" />
					<path
   style="fill:none;stroke:#2E2854;stroke-linecap:round;stroke-linejoin:round;stroke-miterlimit:10;"
   d="M80.503,279.044       c9.554,10.013,16.126,22.827,18.748,36.413"
   id="path5355" />
					<path
   style="opacity:0.15;fill:#2E2854;"
   d="M89.822,317.525l18.792-4.123c-0.605-4.367-1.259-8.75-2.122-13.079       c-8.046,0.9-15.957,2.985-23.396,6.18C85.735,309.946,88.108,313.543,89.822,317.525z"
   id="path5357" />
				</g>
				<g
   id="g5367">
					<path
   style="fill:#76C9BF;"
   d="M132.479,307.923c-0.898-8.584,1.883-17.142,5.499-24.979       c3.616-7.837,8.109-15.292,10.985-23.431c2.876-8.138,4.022-17.306,0.806-25.316c-2.012-5.008-6.037-9.535-11.314-10.666       c-4.823-1.034-9.854,0.91-13.857,3.791c-8.186,5.893-13.082,15.533-15.077,25.419c-1.994,9.887-1.366,20.104-0.342,30.138       c0.944,9.251,2.289,18.698,6.674,26.899L132.479,307.923z"
   id="path5361" />
					<path
   style="fill:none;stroke:#2E2854;stroke-linecap:round;stroke-linejoin:round;stroke-miterlimit:10;"
   d="M137.297,236.987       c-12.896,21.341-17.715,47.406-13.463,71.961"
   id="path5363" />
					<path
   style="opacity:0.15;fill:#2E2854;"
   d="M110.883,247.46c-0.548,1.739-1.003,3.505-1.361,5.28       c-1.994,9.887-1.366,20.104-0.342,30.138c0.944,9.251,2.289,18.698,6.674,26.899l16.626-1.855       c-0.898-8.584,1.883-17.142,5.499-24.979c3.616-7.837,8.109-15.292,10.985-23.431c1.855-5.248,2.981-10.924,2.691-16.442       C141.286,243.024,124.351,243.639,110.883,247.46z"
   id="path5365" />
				</g>
				<g
   id="g5373">
					<path
   style="fill:#F7A145;"
   d="M99.464,381.448c-9.856-22.254-16.537-45.911-19.527-70.269       c20.966-6.678,43.307-9.009,67.426-5.69c2.036,24.453,0.096,49.231-5.721,73.069L99.464,381.448z"
   id="path5369" />
					<path
   style="opacity:0.15;fill:#2E2854;"
   d="M92.263,363.326c2.17,6.131,4.568,12.178,7.201,18.123l42.178-2.89       c5.817-23.838,7.757-48.616,5.721-73.069c-14.91-2.052-29.138-1.939-42.784,0.02c1.843,11.572,5.493,32.517,9.463,44.304       C114.042,349.813,106.383,357.777,92.263,363.326z"
   id="path5371" />
				</g>
			</g>
			<g
   id="g5567">
				<g
   style="opacity:0.15;"
   id="g5381">
					<path
   style="fill:#2E2854;"
   d="M507.49,262.736c-0.971-8.044-2.862-16.764-9.325-21.852c-4.471-3.52-10.392-4.668-16.092-5.366       c-2.987-0.366-5.986-0.636-8.991-0.817h0c-0.075-0.005-0.151-0.011-0.226-0.016c0,0,0,0,0,0       c-9.855-0.577-19.77-0.151-29.536,1.254c-6.479-4.13-13.742-6.994-21.293-8.493l0,0l0,0c-2.193-0.436-4.411-0.747-6.638-0.954       c-7.094-0.66-14.292-0.154-21.187,1.561c-0.738-3.036-1.414-6.087-2.032-9.149c5.942-2.475,11.231-6.698,14.979-11.954       c1.771-2.483,3.208-5.169,4.348-7.981c1.188,1.002,2.684,1.586,4.268,1.864c-0.371,1.205-0.1,2.622,0.805,3.511       c1.221,1.199,3.419,1.212,4.627-0.001c0.836-0.841,1.375-2.495,0.977-3.841c3.556-0.862,6.873-2.731,9.246-5.504       c2.914-3.402,4.296-8.153,3.333-12.527c-0.94-4.278-4.222-8.028-8.412-9.275c0.288-1.352,0.485-2.721,0.571-4.106       c0.087-1.395,0.052-2.808-0.108-4.205c2.349-0.943,4.526-2.315,6.351-4.07c3.225-3.101,5.345-7.328,5.902-11.766       c0.531-4.223-0.38-8.676-2.836-12.151c-2.716-3.842-7.116-6.26-11.697-7.331c-6.433-1.506-13.686-0.379-18.682,3.945       c-3.881,3.359-6.004,8.781-5.324,13.778c-1.164,0.09-2.326,0.215-3.482,0.365c-3.799-5.997-9.542-10.115-16.009-11.647       c-6.47-1.533-13.619-0.359-19.021,3.515c-5.402,3.876-8.848,10.485-8.523,17.124c-4.301,2.245-7.728,6.544-9.084,11.451       c-0.997,3.61-0.851,7.508,0.48,10.797c-2.724,0.972-5.116,2.905-6.462,5.471c-2.281,4.351-1.375,10.146,2.124,13.594       c1.078,1.062,2.376,1.872,3.781,2.42c-0.064,0.064-0.136,0.118-0.195,0.188c-1.107,1.305-1.035,3.464,0.187,4.664       c1.221,1.199,3.418,1.213,4.626-0.001c0.883-0.889,1.433-2.684,0.898-4.066c0.986-0.088,1.956-0.305,2.885-0.643       c1.359,3.824,3.227,7.41,5.866,10.554c4.668,5.564,11.526,9.23,18.741,10.056c0.133,3.899,0.265,7.798,0.398,11.697       c-6.962,1.125-13.668,3.398-20.092,6.371c-2.287,1.058-4.54,2.198-6.755,3.407c-3.813,2.081-7.37,4.415-10.725,6.942       c-16.017,12.065-27.432,28.542-40.177,43.014c-0.988,1.122-2.011,2.245-3.075,3.335v0h0c-4.462,4.571-9.63,8.547-15.855,9.308       c-9.208,1.124-17.643-5.134-24.027-11.864c-11.917-12.561-20.691-28.081-25.309-44.768c-1.444-9.461-2.062-18.587-2.68-27.712       c-0.071-1.057-0.331-2.358-1.35-2.643c-1.297-0.361-2.2,1.268-2.496,2.581c-1.094-7.752-2.846-15.336-5.144-22.745       c-0.691-2.225-2.811-3.72-5.133-3.544c-5.6,0.422-10.83,1.413-15.852,2.898c-2.281,0.673-3.797,2.82-3.631,5.192       c0.342,4.872,0.876,9.737,1.614,14.594c-0.053-0.008-0.104-0.022-0.157-0.028c-1.225-0.14-2.627,0.431-3.025,1.599       c-0.483,1.411,0.641,2.837,1.759,3.825c0.54,0.477,1.103,0.926,1.68,1.357c-0.162-0.018-0.324-0.033-0.486-0.029       c-0.835,0.023-1.712,0.414-2.079,1.164c-0.461,0.94,0.01,2.069,0.616,2.924c0.62,0.876,1.377,1.615,2.212,2.265       c-0.79-0.027-1.443,0.203-1.846,0.664c-0.641,0.735-0.232,1.883,0.291,2.705c0.219,0.344,0.457,0.675,0.707,0.996       c-1.598-1.116-3.264-2.134-5-3.021c-0.612-0.313-1.254-0.617-1.941-0.66c-0.688-0.043-1.438,0.235-1.767,0.84       c-0.562,1.033,0.329,2.234,1.173,3.05c3.994,3.858,8.437,7.252,13.168,10.202c5.32,21.451,13.62,42.162,24.587,61.35       c5.796,10.141,12.43,19.971,21.15,27.743c8.719,7.771,19.738,13.389,31.403,13.964c12.862,0.634,25.425-4.894,35.583-12.81       c2.758-2.149,5.364-4.467,7.857-6.907l0,0c4.468-4.374,8.567-9.141,12.522-14.026c-0.13,1.836-0.265,3.704-0.404,5.61       c-0.471,12.433-1.856,24.83-4.102,37.068c-5.787,4.031-11.038,8.778-15.442,14.294c4.118,0.303,8.185,0.668,12.212,1.064       l-3.224,21.725l127.76-2.744c0,0,0.103-13.504-0.396-31.584c8.041-5.137,15.057-11.729,19.625-20.037       c0.361-0.656,0.704-1.32,1.031-1.99c11.646-1.213,23.413-6.365,29.706-15.989c4.732-7.239,5.897-16.122,6.379-24.697       C509.231,285.631,508.863,274.126,507.49,262.736z"
   id="path5377" />
					<path
   style="fill:#2E2854;"
   d="M296.901,295.885l0.005,0.013l0,0C296.904,295.894,296.902,295.89,296.901,295.885z"
   id="path5379" />
				</g>
				<g
   id="g5393">
					<path
   style="fill:#7B478F;"
   d="M427.643,233.681c16.165-3.721,32.998-4.667,49.493-2.783c5.706,0.651,11.636,1.75,16.135,5.234       c6.504,5.035,8.466,13.739,9.504,21.775c1.466,11.378,1.929,22.88,1.381,34.334c-0.411,8.578-1.503,17.471-6.176,24.748       c-6.267,9.759-18.139,15.02-29.874,16.271c-11.735,1.251-23.535-0.957-35.121-3.153L427.643,233.681z"
   id="path5383" />
					<g
   id="g5389">
						<path
   style="fill:#683A7A;"
   d="M467.913,230.142c-0.543,0.079-1.085,0.159-1.626,0.239c0.617-0.108,1.235-0.176,1.852-0.226        C468.064,230.152,467.988,230.146,467.913,230.142z"
   id="path5385" />
						<path
   style="fill:#683A7A;"
   d="M480.849,330.214c6.981-2.698,13.175-7.063,17.132-13.225        c4.673-7.277,5.765-16.17,6.176-24.748c0.548-11.455,0.085-22.956-1.381-34.334c-1.037-8.035-3-16.739-9.504-21.775        c-4.5-3.483-10.43-4.583-16.135-5.234c-0.94-0.107-1.882-0.203-2.824-0.292c5.192,1.173,9.859,4.277,12.787,8.606        c4.262,6.304,4.751,14.26,5.11,21.803c0.45,9.467,0.9,18.933,1.35,28.401c0.408,8.572,0.79,17.342-1.767,25.552        C489.914,321.001,486.11,326.74,480.849,330.214z"
   id="path5387" />
					</g>
					<path
   style="opacity:0.15;fill:#2E2854;"
   d="M468.107,333.261c2.643-0.282,5.289-0.779,7.88-1.473       c15.531-59.74-17.081-90.361-32.069-100.885c-5.474,0.622-10.912,1.544-16.275,2.779l5.343,96.426       C444.572,332.304,456.372,334.512,468.107,333.261z"
   id="path5391" />
				</g>
				<g
   id="g5565">
					<g
   id="g5475">
						<g
   id="g5447">
							<g
   id="g5437">
								<g
   id="g5403">
									<path
   style="fill:#FF98AA;"
   d="M226.893,246.01c4.755,16.649,13.656,32.096,25.676,44.559           c6.439,6.677,14.925,12.866,24.124,11.666c6.218-0.812,11.354-4.83,15.778-9.438l18.591,7.453l7.694,24.822           c-2.472,2.46-5.059,4.799-7.8,6.971c-10.092,7.999-22.609,13.63-35.476,13.102c-11.67-0.479-22.734-6.007-31.517-13.706           c-8.783-7.7-15.498-17.475-21.377-27.568c-11.124-19.097-19.594-39.739-25.09-61.146           c-4.755-2.911-9.225-6.268-13.251-10.093c-0.851-0.809-1.751-2.003-1.198-3.04c0.324-0.607,1.072-0.891,1.76-0.854           c0.687,0.037,1.331,0.336,1.946,0.644c3.118,1.56,6.042,3.505,8.686,5.777l27.111,1.214L226.893,246.01z"
   id="path5395" />
									<path
   style="fill:#FF8095;"
   d="M292.033,321.001c-15.647,6.304-34.033,2.178-48.682-6.188           c-11.001-6.283-20.267-15.117-28.317-24.967c2.362,4.757,4.878,9.437,7.551,14.026           c5.879,10.093,12.594,19.868,21.377,27.568c8.783,7.699,19.847,13.227,31.517,13.706           c12.867,0.528,25.384-5.103,35.476-13.102c2.74-2.172,5.327-4.511,7.8-6.971l-5.938-19.159           C307.138,312.12,300.259,317.687,292.033,321.001z"
   id="path5397" />
									<g
   id="g5401">
										<path
   style="fill:none;stroke:#2E2854;stroke-linecap:round;stroke-linejoin:round;stroke-miterlimit:10;"
   d="            M197.495,242.726c-4.755-2.911-9.225-6.268-13.251-10.093c-0.851-0.809-1.751-2.003-1.198-3.04            c0.324-0.607,1.072-0.891,1.76-0.854c0.687,0.037,1.331,0.336,1.946,0.644c3.118,1.56,6.042,3.505,8.686,5.777"
   id="path5399" />
									</g>
								</g>
								<g
   id="g5411">
									<path
   style="fill:#2E2854;"
   d="M218.044,237.788c-5.208,1.756-10.717,2.624-16.213,2.554           c-2.21-0.029-4.142-1.462-4.797-3.573c-3.745-12.069-5.847-24.224-6.805-36.432c-0.186-2.371,1.313-4.53,3.588-5.222           c5.01-1.526,10.232-2.56,15.828-3.028c2.321-0.195,4.453,1.283,5.162,3.502c3.813,11.944,6.212,24.356,6.695,37.212           C221.586,235.049,220.175,237.069,218.044,237.788z"
   id="path5405" />
									<path
   style="fill:#F7A145;"
   d="M214.955,230.458c-4.264,1.188-8.661,1.898-13.083,2.111           c-1.292,0.062-2.483-0.731-2.867-1.966c-2.864-9.229-4.642-18.744-5.411-28.337c-0.107-1.323,0.745-2.531,2.012-2.921           c4.432-1.366,8.986-2.058,13.725-2.172c1.286-0.03,2.452,0.787,2.81,2.022c2.627,9.055,4.332,18.412,4.91,28.382           C217.128,228.908,216.24,230.1,214.955,230.458z"
   id="path5407" />
									<path
   style="fill:#FFFFFF;"
   d="M210.507,234.175c-0.644-0.634-1.811-0.616-2.436,0.037           c-0.625,0.652-0.592,1.819,0.07,2.435c0.661,0.616,1.827,0.567,2.434-0.103           C211.056,236.013,211.263,234.919,210.507,234.175z"
   id="path5409" />
								</g>
								<g
   id="g5417">
									<path
   style="fill:#FF98AA;"
   d="M194.858,216.044c2.93,1.011,5.54,2.927,7.381,5.419c0.423,0.572,0.814,1.192,0.956,1.889           c0.142,0.697-0.007,1.489-0.531,1.97c-0.794,0.728-2.048,0.493-3.069,0.152c-3.302-1.104-6.383-2.865-9.011-5.149           c-1.126-0.978-2.261-2.395-1.79-3.81c0.389-1.171,1.786-1.754,3.012-1.624C193.033,215.02,194.091,215.779,194.858,216.044           z"
   id="path5413" />
									<path
   style="fill:none;stroke:#2E2854;stroke-linecap:round;stroke-linejoin:round;stroke-miterlimit:10;"
   d="           M194.858,216.044c2.93,1.011,5.54,2.927,7.381,5.419c0.423,0.572,0.814,1.192,0.956,1.889           c0.142,0.697-0.007,1.489-0.531,1.97c-0.794,0.728-2.048,0.493-3.069,0.152c-3.302-1.104-6.383-2.865-9.011-5.149           c-1.126-0.978-2.261-2.395-1.79-3.81c0.389-1.171,1.786-1.754,3.012-1.624C193.033,215.02,194.091,215.779,194.858,216.044           z"
   id="path5415" />
								</g>
								<g
   id="g5423">
									<path
   style="fill:#FF98AA;"
   d="M194.474,222.348c2.871,1.286,5.445,3.231,7.465,5.642c0.375,0.448,0.739,0.925,0.905,1.485           c0.165,0.56,0.096,1.224-0.313,1.641c-0.616,0.63-1.654,0.457-2.504,0.22c-3.658-1.018-7.448-2.512-9.668-5.593           c-0.613-0.85-1.093-1.975-0.64-2.919c0.361-0.753,1.235-1.151,2.07-1.181C192.623,221.613,193.436,221.883,194.474,222.348           z"
   id="path5419" />
									<path
   style="fill:none;stroke:#2E2854;stroke-linecap:round;stroke-linejoin:round;stroke-miterlimit:10;"
   d="           M194.474,222.348c2.871,1.286,5.445,3.231,7.465,5.642c0.375,0.448,0.739,0.925,0.905,1.485           c0.165,0.56,0.096,1.224-0.313,1.641c-0.616,0.63-1.654,0.457-2.504,0.22c-3.658-1.018-7.448-2.512-9.668-5.593           c-0.613-0.85-1.093-1.975-0.64-2.919c0.361-0.753,1.235-1.151,2.07-1.181C192.623,221.613,193.436,221.883,194.474,222.348           z"
   id="path5421" />
								</g>
								<g
   id="g5429">
									<path
   style="fill:#FF98AA;"
   d="M194.037,228.273c2.923,1.032,5.508,2.999,7.283,5.54c0.601,0.86,1.092,2.088,0.411,2.887           c-0.555,0.649-1.564,0.6-2.397,0.416c-3.362-0.745-6.4-2.854-8.272-5.744c-0.53-0.818-0.948-1.963-0.313-2.703           C191.372,227.943,192.608,227.768,194.037,228.273z"
   id="path5425" />
									<path
   style="fill:none;stroke:#2E2854;stroke-linecap:round;stroke-linejoin:round;stroke-miterlimit:10;"
   d="           M194.037,228.273c2.923,1.032,5.508,2.999,7.283,5.54c0.601,0.86,1.092,2.088,0.411,2.887           c-0.555,0.649-1.564,0.6-2.397,0.416c-3.362-0.745-6.4-2.854-8.272-5.744c-0.53-0.818-0.948-1.963-0.313-2.703           C191.372,227.943,192.608,227.768,194.037,228.273z"
   id="path5427" />
								</g>
								<g
   id="g5435">
									<path
   style="fill:#FF98AA;"
   d="M209.656,244.689c0.474-6.884,4.571-13.417,9.771-15.827           c-0.279-3.533-0.039-7.106,0.711-10.57c0.285-1.316,1.175-2.954,2.475-2.603c1.022,0.277,1.292,1.576,1.372,2.632           c0.693,9.12,1.386,18.24,2.908,27.689"
   id="path5431" />
									<path
   style="fill:none;stroke:#2E2854;stroke-linecap:round;stroke-linejoin:round;stroke-miterlimit:10;"
   d="           M209.656,244.689c0.474-6.884,4.571-13.417,9.771-15.827c-0.279-3.533-0.039-7.106,0.711-10.57           c0.285-1.316,1.175-2.954,2.475-2.603c1.022,0.277,1.292,1.576,1.372,2.632c0.693,9.12,1.386,18.24,2.908,27.689"
   id="path5433" />
								</g>
							</g>
							<g
   id="g5445">
								<path
   style="fill:#F7A145;"
   d="M335.34,246.095c-15.917,12.196-27.197,28.767-39.822,43.342          c-0.979,1.13-1.993,2.262-3.047,3.36l-0.005-0.013c4.733,13.332,14.209,24.933,26.289,32.288          c6.633-6.599,12.438-14.067,18.155-21.505L335.34,246.095z"
   id="path5439" />
								<path
   style="fill:none;stroke:#2E2854;stroke-linecap:round;stroke-linejoin:round;stroke-miterlimit:10;"
   d="          M296.296,291.158c5.08,11.784,13.775,21.993,24.583,28.907"
   id="path5441" />
								<path
   style="opacity:0.15;fill:#2E2854;"
   d="M304.801,313.437c4.059,4.528,8.764,8.476,13.954,11.636          c6.633-6.599,12.438-14.067,18.155-21.505l-0.632-23.132c-0.847-2.181-1.861-4.188-3.043-5.928          C329.465,280.976,320.606,300.873,304.801,313.437z"
   id="path5443" />
							</g>
						</g>
						<g
   id="g5459">
							<path
   style="fill:#F7A145;"
   d="M438.948,274.507c-9.593-30.247-21.921-51.186-21.921-51.186         c-2.197-0.418-4.417-0.71-6.645-0.899l-28.901,15.237l-28.746-2.054c-2.278,1.077-4.522,2.235-6.727,3.462         c-3.796,2.112-7.334,4.475-10.668,7.03l-2.105,28.412c-0.707,13.186-1.414,26.371-2.432,42.05         c-0.518,17.481-2.809,34.91-6.824,51.931l-3.123,22.303l127.733-3.793C448.589,386.998,448.54,304.754,438.948,274.507z"
   id="path5449" />
							<path
   style="fill:#FFC180;"
   d="M383.025,326.603c-8.455-3.059-16.311-7.882-22.595-14.313         c-4.04-4.134-7.456-8.994-9.25-14.489c-1.795-5.495-1.861-11.672,0.515-16.941c2.377-5.27,7.372-9.456,13.106-10.187         c5.735-0.73,11.938,2.406,14.443,8.412c2.303-6.047,7.17-11.306,13.392-13.083c6.223-1.776,13.661,0.504,17.045,6.021         c2.443,3.982,2.583,8.962,2.029,13.601C409.731,302.171,399.35,317.492,383.025,326.603z"
   id="path5451" />
							<path
   style="fill:none;stroke:#2E2854;stroke-linecap:round;stroke-linejoin:round;stroke-miterlimit:10;"
   d="         M413.723,225.456c-2.251,8.34-7.177,15.97-14.053,21.193c-8.106,6.155-18.87,8.801-28.838,6.745         c-8.613-1.776-16.464-7.115-21.208-14.488"
   id="path5453" />
							<path
   style="fill:#FF98AA;"
   d="M397.955,242.761c6.231-5.153,10.502-12.474,12.426-20.339         c-11.177-0.947-22.595,0.986-32.645,5.99c-8.75,0.745-17.092,3.452-25.003,7.192c3.818,7.428,11.38,12.794,19.637,14.252         C381.364,251.445,390.917,248.58,397.955,242.761z"
   id="path5455" />
							<path
   style="opacity:0.15;fill:#2E2854;"
   d="M374.267,359.799c17.447-1.67,35.017-7.512,47.821-19.481         c12.804-11.969,19.978-30.748,15.226-47.619c-1.966-6.978-5.774-13.27-8.842-22.003         c-1.189,15.221-2.898,31.685-13.265,42.894c-8.147,8.81-20.287,12.726-32.107,14.792         c-11.821,2.066-23.982,2.659-35.372,6.434c-7.362,2.44-14.523,6.557-19.631,12.072c-0.535,3.616-1.146,7.219-1.833,10.809         C342.217,359.647,358.289,361.329,374.267,359.799z"
   id="path5457" />
						</g>
						<g
   id="g5473">
							<g
   id="g5465">
								<path
   style="fill:#FF98AA;"
   d="M473.444,299.694c0.955,12.267-0.262,24.79-6.051,35.526          c-6.795,12.602-19.187,21.356-32.317,27.064c-18.907,8.219-39.836,10.95-60.451,10.676          c-20.615-0.274-41.069-3.453-62.944-4.883c9.568-12.187,23.218-20.746,37.788-26.017c14.57-5.269,30.089-7.426,45.55-8.443          c8.996-0.592,18.559-0.981,26-6.072c6.853-4.687,10.659-12.709,11.806-21.03c0,0,8.195-8.927,20.427-11.512          C465.483,292.418,473.444,299.694,473.444,299.694z"
   id="path5461" />
								<path
   style="fill:#FF8095;"
   d="M467.393,335.22c4.906-9.098,6.521-19.479,6.321-29.9          c-9.481,17.519-20.694,34.801-37.697,44.969c-15.355,9.185-33.78,11.532-51.648,12.47          c-17.109,0.896-40.985,2.217-58.128,6.497c16.521,1.536,32.405,3.491,48.383,3.704c20.615,0.274,41.544-2.457,60.451-10.676          C448.206,356.577,460.598,347.823,467.393,335.22z"
   id="path5463" />
							</g>
							<g
   id="g5471">
								<path
   style="fill:#F7A145;"
   d="M417.027,223.321c9.644,1.833,18.858,5.856,26.562,11.957          c17.05,13.5,25.838,35.188,28.984,56.708c0.372,2.546,0.67,5.121,0.871,7.709c-12.978,4.704-26.816,7.027-40.619,6.821          c0.259-1.878,0.382-3.771,0.374-5.644c-0.042-10.176-3.368-20.017-6.657-29.647L417.027,223.321z"
   id="path5467" />
								<path
   style="fill:none;stroke:#2E2854;stroke-linecap:round;stroke-linejoin:round;stroke-miterlimit:10;"
   d="          M435.156,302.258c12.359-0.331,24.659-2.797,36.191-7.255"
   id="path5469" />
							</g>
						</g>
					</g>
					<g
   id="g5563">
						<g
   id="g5485">
							<g
   id="g5481">
								<path
   style="fill:#654687;"
   d="M396.188,147.475c-3.117-5.826-1.077-13.589,3.883-17.953          c4.961-4.365,12.204-5.552,18.649-4.098c4.589,1.034,9.009,3.415,11.756,7.235c2.485,3.455,3.431,7.9,2.936,12.127          c-0.521,4.443-2.606,8.687-5.806,11.814c-3.199,3.128-7.489,5.117-11.944,5.538L396.188,147.475z"
   id="path5477" />
								<path
   style="opacity:0.15;fill:#2E2854;"
   d="M427.607,156.6c1.089-1.065,2.038-2.267,2.851-3.555          c-2.356,1.066-4.832,1.868-7.37,2.363c-1.907-5.776-6.186-10.865-11.64-13.915c-4.951-2.771-10.828-3.831-16.52-2.633          c-0.497,2.939-0.152,5.975,1.26,8.614l19.475,14.663C420.118,161.717,424.408,159.728,427.607,156.6z"
   id="path5479" />
							</g>
							<path
   style="fill:#654687;"
   d="M416.275,180.821c2.756-4.899,4.854-10.284,5.157-15.896c0.303-5.611-1.35-11.48-5.257-15.52         c-3.06-3.166-7.299-5.023-11.636-5.783c-4.338-0.759-8.796-0.49-13.158,0.114c-3.848-5.966-9.624-10.036-16.104-11.515         c-6.482-1.48-13.622-0.247-18.991,3.671c-5.37,3.92-8.762,10.557-8.382,17.194c-4.282,2.281-7.674,6.607-8.99,11.525         c-1.314,4.918-0.533,10.361,2.485,14.048c11.013,6.585,23.743,10.272,36.57,10.59         C390.797,189.568,403.695,186.518,416.275,180.821z"
   id="path5483" />
						</g>
						<g
   id="g5491">
							<path
   style="fill:#FF98AA;"
   d="M372.015,211.125c0.323,7.651,0.646,15.303,0.969,22.953c0,0,17.061-3.05,17.961-3.372         c-2.111-7.481-3.856-15.066-5.23-22.719L372.015,211.125z"
   id="path5487" />
							<path
   style="fill:#FF8095;"
   d="M387.99,219.117c-0.845-3.691-1.606-7.402-2.275-11.13l-13.7,3.138         c0.15,3.556,0.3,7.111,0.45,10.667C377.753,222.166,383.13,221.235,387.99,219.117z"
   id="path5489" />
						</g>
						<g
   id="g5561">
							<g
   id="g5497">
								<path
   style="fill:#FF98AA;"
   d="M345.405,174.84c-4.834-0.877-10.094,1.719-12.339,6.088          c-2.245,4.369-1.292,10.157,2.235,13.576c3.528,3.419,9.342,4.191,13.64,1.81L345.405,174.84z"
   id="path5493" />
								<path
   style="fill:#FFFFFF;"
   d="M343.56,196.356c-1.456-0.9-3.556-0.587-4.65,0.727c-1.096,1.314-1.007,3.472,0.225,4.662          c1.231,1.189,3.428,1.184,4.625-0.039C344.956,200.483,345.524,197.573,343.56,196.356z"
   id="path5495" />
							</g>
							<path
   style="fill:#FF98AA;"
   d="M408.847,170.415c1.664,11.23-0.351,23.233-6.866,32.531         c-6.514,9.297-17.811,15.452-29.125,14.492c-7.431-0.63-14.561-4.292-19.4-9.965c-7.479-8.767-8.995-21.023-9.859-32.446         c6.228-4.206,10.922-10.634,12.857-17.264c8.831,5.544,20.864,5.484,29.74,0.629c2.301,1.896,5.338,2.876,8.313,2.679         c1.797-0.118,3.777-0.604,5.274,0.397c1.306,0.872,1.739,2.578,1.897,4.14c0.157,1.563,0.164,3.219,0.967,4.567         C403.959,172.381,407.425,172.863,408.847,170.415z"
   id="path5499" />
							<g
   id="g5505">
								<path
   style="fill:#FF8095;"
   d="M405.493,196.742c-0.106-0.073-0.198-0.156-0.31-0.225          c-4.175-2.583-10.198-1.685-13.339,2.086c-3.144,3.768-2.885,9.961,0.645,13.37c0.032,0.031,0.068,0.056,0.1,0.086          c3.657-2.422,6.882-5.53,9.392-9.112C403.353,200.989,404.513,198.906,405.493,196.742z"
   id="path5501" />
								<path
   style="fill:#FF8095;"
   d="M349.173,200.885c1.157,2.345,2.555,4.563,4.283,6.588c2.51,2.942,5.639,5.337,9.103,7.055          c2.917-3.856,3.947-11.271-1.284-14.51C357.597,197.743,352.486,198.172,349.173,200.885z"
   id="path5503" />
							</g>
							<path
   style="fill:#FFFFFF;"
   d="M405.831,173.23c-0.008-0.396-0.017-0.792-0.026-1.188c-1.242-0.06-2.485-0.733-3.159-1.865         c-0.804-1.349-0.81-3.004-0.967-4.567c-0.158-1.562-0.592-3.268-1.897-4.14c-1.497-1.001-3.477-0.515-5.274-0.397         c-2.975,0.197-6.012-0.783-8.313-2.68c-8.876,4.855-20.908,4.915-29.74-0.629c-1.674,5.734-5.414,11.315-10.423,15.441         c0.602,6.317,1.289,12.663,3.189,18.711c2.03,6.462,5.573,12.643,11.022,16.664c5.553,4.1,12.8,5.65,19.639,4.72         c4.939-0.672,9.742-2.613,13.561-5.814c4.69-3.93,7.705-9.563,9.469-15.421C404.677,186.204,405.289,180.071,405.831,173.23z          M365.68,182.396c-1.469,3.228-5.112,5.323-8.641,4.97c-3.528-0.353-6.684-3.126-7.486-6.581         c-0.802-3.455,0.808-7.335,3.821-9.207c3.013-1.872,7.204-1.595,9.946,0.654C366.512,174.85,367.151,179.169,365.68,182.396z          M397.313,178.883c-0.801,3.455-3.957,6.228-7.487,6.581c-3.528,0.353-7.171-1.742-8.64-4.969         c-1.471-3.228-0.832-7.546,2.359-10.165c2.742-2.249,6.934-2.525,9.947-0.653         C396.505,171.548,398.115,175.429,397.313,178.883z"
   id="path5507" />
							<g
   id="g5547">
								<g
   id="g5533">
									<path
   style="fill:none;stroke:#2E2854;stroke-linecap:round;stroke-linejoin:round;stroke-miterlimit:10;"
   d="           M351.772,177.08c0.739,1.205,1.476,2.408,2.283,3.611c0.933-0.962,2.171-1.622,3.488-1.862           c1.319-0.239,2.71-0.054,3.921,0.518"
   id="path5509" />
									<path
   style="fill:none;stroke:#2E2854;stroke-linecap:round;stroke-linejoin:round;stroke-miterlimit:10;"
   d="           M356.099,179.268c-0.247-0.925-0.507-1.85-0.764-2.765"
   id="path5511" />
									<path
   style="fill:none;stroke:#2E2854;stroke-linecap:round;stroke-linejoin:round;stroke-miterlimit:10;"
   d="           M358.39,178.741c-0.011-0.538-0.011-1.065-0.023-1.603"
   id="path5513" />
									<path
   style="fill:none;stroke:#2E2854;stroke-linecap:round;stroke-linejoin:round;stroke-miterlimit:10;"
   d="           M351.772,177.08c0.739,1.205,1.476,2.408,2.283,3.611c0.933-0.962,2.171-1.622,3.488-1.862           c1.319-0.239,2.71-0.054,3.921,0.518"
   id="path5515" />
									<path
   style="fill:none;stroke:#2E2854;stroke-linecap:round;stroke-linejoin:round;stroke-miterlimit:10;"
   d="           M356.099,179.268c-0.247-0.925-0.507-1.85-0.764-2.765"
   id="path5517" />
									<path
   style="fill:none;stroke:#2E2854;stroke-linecap:round;stroke-linejoin:round;stroke-miterlimit:10;"
   d="           M358.39,178.741c-0.011-0.538-0.011-1.065-0.023-1.603"
   id="path5519" />
									<path
   style="fill:none;stroke:#2E2854;stroke-linecap:round;stroke-linejoin:round;stroke-miterlimit:10;"
   d="           M351.772,177.08c0.739,1.205,1.476,2.408,2.283,3.611c0.933-0.962,2.171-1.622,3.488-1.862           c1.319-0.239,2.71-0.054,3.921,0.518"
   id="path5521" />
									<path
   style="fill:none;stroke:#2E2854;stroke-linecap:round;stroke-linejoin:round;stroke-miterlimit:10;"
   d="           M356.099,179.268c-0.247-0.925-0.507-1.85-0.764-2.765"
   id="path5523" />
									<path
   style="fill:none;stroke:#2E2854;stroke-linecap:round;stroke-linejoin:round;stroke-miterlimit:10;"
   d="           M358.39,178.741c-0.011-0.538-0.011-1.065-0.023-1.603"
   id="path5525" />
									<path
   style="fill:none;stroke:#2E2854;stroke-linecap:round;stroke-linejoin:round;stroke-miterlimit:10;"
   d="           M351.772,177.08c0.739,1.205,1.476,2.408,2.283,3.611c0.933-0.962,2.171-1.622,3.488-1.862           c1.319-0.239,2.71-0.054,3.921,0.518"
   id="path5527" />
									<path
   style="fill:none;stroke:#2E2854;stroke-linecap:round;stroke-linejoin:round;stroke-miterlimit:10;"
   d="           M356.099,179.268c-0.247-0.925-0.507-1.85-0.764-2.765"
   id="path5529" />
									<path
   style="fill:none;stroke:#2E2854;stroke-linecap:round;stroke-linejoin:round;stroke-miterlimit:10;"
   d="           M358.39,178.741c-0.011-0.538-0.011-1.065-0.023-1.603"
   id="path5531" />
								</g>
								<g
   id="g5541">
									<path
   style="fill:none;stroke:#2E2854;stroke-linecap:round;stroke-linejoin:round;stroke-miterlimit:10;"
   d="           M394.342,174.671c-0.599,1.278-1.198,2.557-1.866,3.842c-1.034-0.852-2.337-1.372-3.673-1.463           c-1.337-0.09-2.699,0.246-3.839,0.951"
   id="path5535" />
									<path
   style="fill:none;stroke:#2E2854;stroke-linecap:round;stroke-linejoin:round;stroke-miterlimit:10;"
   d="           M390.286,177.326c0.143-0.947,0.297-1.894,0.452-2.832"
   id="path5537" />
									<path
   style="fill:none;stroke:#2E2854;stroke-linecap:round;stroke-linejoin:round;stroke-miterlimit:10;"
   d="           M387.951,177.057c-0.049-0.536-0.109-1.06-0.157-1.595"
   id="path5539" />
								</g>
								<path
   style="fill:none;stroke:#2E2854;stroke-linecap:round;stroke-linejoin:round;stroke-miterlimit:10;"
   d="          M371.937,180.665c-1.005,0.566-1.905,1.316-2.643,2.2c-0.261,0.313-0.517,0.703-0.424,1.1          c0.095,0.399,0.508,0.636,0.9,0.756c1.027,0.313,2.133,0.151,3.194-0.015"
   id="path5543" />
								<path
   style="fill:none;stroke:#2E2854;stroke-linecap:round;stroke-linejoin:round;stroke-miterlimit:10;"
   d="          M365.069,194.499c7.509,1.33,15.432,0.217,22.285-3.129"
   id="path5545" />
							</g>
							<g
   id="g5559">
								<path
   style="fill:#FF98AA;"
   d="M408.865,173.416c2.388-3.79,7.408-5.586,11.745-4.465c4.336,1.122,7.776,4.923,8.773,9.291          c0.998,4.366-0.344,9.128-3.23,12.554c-2.884,3.427-7.194,5.531-11.644,6.045c-3.299,0.381-7.01-0.244-9.136-2.796          L408.865,173.416z"
   id="path5549" />
								<g
   id="g5555">
									<path
   style="fill:none;stroke:#2E2854;stroke-linecap:round;stroke-linejoin:round;stroke-miterlimit:10;"
   d="           M413.609,178.784c3.666-1.29,8.03-0.305,10.787,2.433"
   id="path5551" />
									<path
   style="fill:none;stroke:#2E2854;stroke-linecap:round;stroke-linejoin:round;stroke-miterlimit:10;"
   d="           M416.811,187.099c1.882-2.399,3.141-5.282,3.636-8.294"
   id="path5553" />
								</g>
								<path
   style="fill:#FFFFFF;"
   d="M415.805,194.876c-1.455-0.9-3.555-0.587-4.65,0.727c-1.096,1.313-1.006,3.472,0.225,4.661          c1.231,1.189,3.429,1.184,4.627-0.039C417.203,199.002,417.771,196.092,415.805,194.876z"
   id="path5557" />
							</g>
						</g>
					</g>
				</g>
			</g>
			<path
   style="fill:#7B478F;"
   d="M491.795,424.329c20.884-14.971,39.43-34.347,54.508-55.906     c-153.527,3.562-313.023,2.139-470.657,8.314c9.197,13.114,20.067,25.247,32.627,36.03     C211.54,501.432,382.549,502.647,491.795,424.329z"
   id="path5569" />
			<g
   id="g5659">
				<path
   style="fill:none;stroke:#2E2854;stroke-linecap:round;stroke-linejoin:round;stroke-miterlimit:10;"
   d="M306.16,92.983      c0.949-2.879,1.939-5.834,3.882-8.162c1.942-2.328,5.084-3.916,8.018-3.152c2.867,0.746,4.823,3.552,5.445,6.448      c0.622,2.896,0.162,5.903-0.3,8.829"
   id="path5571" />
				<g
   id="g5581">
					<path
   style="fill:none;stroke:#2E2854;stroke-linecap:round;stroke-linejoin:round;stroke-miterlimit:10;"
   d="M247.088,274.94       c4.408-2.232,8.398-5.587,10.551-10.034c2.154-4.447,2.205-10.067-0.609-14.128c-4.264-6.152-13.101-6.922-18.955-11.587       c-4.185-3.334-6.629-8.742-6.367-14.085c0.261-5.344,3.222-10.487,7.713-13.396"
   id="path5573" />
					<g
   id="g5579">
						<path
   style="fill:#2E2854;"
   d="M240.44,334.661c-1.34,0-2.449-1.061-2.497-2.411l-4.185-117.945        c-0.049-1.38,1.03-2.539,2.41-2.587c1.4-0.058,2.539,1.03,2.587,2.41l4.185,117.945c0.049,1.38-1.03,2.538-2.41,2.587        C240.5,334.66,240.47,334.661,240.44,334.661z"
   id="path5575" />
						<path
   style="fill:#2E2854;"
   d="M250.135,334.661c-1.34,0-2.449-1.061-2.497-2.411l-4.185-117.945        c-0.049-1.38,1.03-2.539,2.41-2.587c1.382-0.058,2.538,1.03,2.587,2.41l4.185,117.945c0.049,1.38-1.03,2.538-2.41,2.587        C250.195,334.66,250.165,334.661,250.135,334.661z"
   id="path5577" />
					</g>
				</g>
				<g
   id="g5587">
					<path
   style="fill:none;stroke:#2E2854;stroke-linecap:round;stroke-linejoin:round;stroke-miterlimit:10;"
   d="M244.007,203.493       c3.463,0.532,6.931-1.725,8.641-4.783c1.709-3.059,1.936-6.74,1.575-10.225c-0.361-3.486-1.265-6.895-1.668-10.376       c-0.916-7.896,1.071-16.487,6.843-21.952c3.775-3.575,8.758-5.51,13.402-7.846c4.645-2.336,9.304-5.429,11.365-10.201       c2.052-4.752,1.398-10.25,0.384-14.669c-1.209-5.261-0.651-11.009,2.313-15.521c2.963-4.512,7.968-7.625,13.326-8.288"
   id="path5583" />
					<path
   style="fill:#2E2854;"
   d="M245.804,202.645c-0.38,0-0.766-0.087-1.128-0.271c-1.232-0.624-1.724-2.128-1.1-3.36       c17.238-34.013,35.619-68.026,54.63-101.094c0.688-1.197,2.218-1.609,3.414-0.921c1.197,0.688,1.609,2.217,0.921,3.414       c-18.968,32.992-37.306,66.927-54.505,100.862C247.596,202.144,246.716,202.645,245.804,202.645z"
   id="path5585" />
				</g>
				<path
   style="fill:#2E2854;"
   d="M317.073,114.461c-0.576,0-1.155-0.198-1.626-0.602l-10.753-9.219      c-1.049-0.899-1.17-2.477-0.27-3.525c0.899-1.049,2.478-1.169,3.524-0.271l10.753,9.219c1.049,0.899,1.17,2.477,0.27,3.525      C318.477,114.165,317.777,114.461,317.073,114.461z"
   id="path5589" />
				<g
   id="g5597">
					<path
   style="fill:#7B478F;"
   d="M247.861,199.488c-2.978-1.772-6.713-2.283-10.012-1.223c-3.299,1.059-6.077,3.717-7.137,7.016       c-1.171,3.644-0.13,7.895,2.563,10.615c2.692,2.719,6.907,3.805,10.59,2.766c3.683-1.04,6.697-4.146,7.666-7.848       C252.5,207.112,252.119,202.024,247.861,199.488z"
   id="path5591" />
					<path
   style="fill:#2E2854;"
   d="M244.059,204.247c-1.671-1.068-3.977-1.051-5.617,0.063c-1.641,1.113-2.508,3.268-2.074,5.202       c0.435,1.935,2.157,3.517,4.125,3.762c1.967,0.245,4.037-0.881,4.879-2.675C246.214,208.803,246.414,205.753,244.059,204.247z"
   id="path5593" />
					<path
   style="opacity:0.15;fill:#2E2854;"
   d="M250.531,202.071c-0.625,4.253-2.594,11.913-8.696,12.801       c-5.393,0.785-8.992-1.173-10.908-2.711c0.515,1.391,1.303,2.679,2.347,3.735c2.692,2.719,6.907,3.805,10.59,2.766       c3.683-1.04,6.697-4.146,7.666-7.848C252.234,208.127,252.217,204.713,250.531,202.071z"
   id="path5595" />
				</g>
				<g
   id="g5605">
					<path
   style="fill:#7B478F;"
   d="M307.622,90.123c-2.728-1.624-6.151-2.092-9.175-1.121c-3.022,0.971-5.57,3.407-6.541,6.43       c-1.073,3.339-0.118,7.235,2.349,9.727c2.468,2.493,6.33,3.488,9.705,2.535c3.376-0.952,6.138-3.799,7.026-7.191       C311.874,97.11,311.524,92.448,307.622,90.123z"
   id="path5599" />
					<path
   style="fill:#2E2854;"
   d="M304.138,94.484c-1.53-0.979-3.644-0.963-5.147,0.058c-1.504,1.02-2.299,2.994-1.901,4.767       c0.399,1.773,1.977,3.223,3.78,3.447c1.803,0.225,3.701-0.807,4.472-2.452C306.114,98.659,306.296,95.863,304.138,94.484z"
   id="path5601" />
					<path
   style="opacity:0.15;fill:#2E2854;"
   d="M310.934,94.338c-0.794,3.622-2.922,9.378-8.505,10.464       c-5.448,1.059-8.984-2.287-10.763-4.69c0.358,1.888,1.236,3.681,2.59,5.048c2.468,2.493,6.33,3.488,9.705,2.535       c3.376-0.952,6.138-3.799,7.026-7.191C311.476,98.632,311.585,96.376,310.934,94.338z"
   id="path5603" />
				</g>
				<g
   id="g5657">
					<g
   id="g5615">
						<path
   style="fill:#7B478F;"
   d="M314.983,137.96c-0.51-12.859,0.157-25.765,2.056-38.675c0.549-3.742,3.974-6.351,7.734-5.948        c0.043,0.005,0.087,0.01,0.13,0.015c3.431,0.391,6.043,3.235,6.202,6.684c0.574,12.44,0.47,24.911-0.315,37.34L314.983,137.96        z"
   id="path5607" />
						<path
   style="fill:none;stroke:#2E2854;stroke-linecap:round;stroke-linejoin:round;stroke-miterlimit:10;"
   d="        M317.733,101.969c4.076,1.03,8.329,1.361,12.515,0.974"
   id="path5609" />
						<path
   style="fill:none;stroke:#2E2854;stroke-linecap:round;stroke-linejoin:round;stroke-miterlimit:10;"
   d="        M317.207,105.323c4.209,0.987,8.569,1.327,12.879,1.008"
   id="path5611" />
						<path
   style="opacity:0.15;fill:#2E2854;"
   d="M314.834,130.638c0.012,2.442,0.052,4.883,0.149,7.322l15.807-0.584        c0.118-1.866,0.215-3.734,0.302-5.602C324.028,127.901,317.949,129.348,314.834,130.638z"
   id="path5613" />
					</g>
					<g
   id="g5655">
						<path
   style="fill:#2E2854;"
   d="M330.257,135.32c-4.803-3.398-11.782-3.335-16.523,0.148        c-4.742,3.484-6.888,10.125-5.081,15.725c1.807,5.599,7.43,9.733,13.313,9.789c5.884,0.054,11.583-3.975,13.494-9.539        C337.371,145.879,335.484,139.017,330.257,135.32z"
   id="path5617" />
						<g
   id="g5653">
							<defs
   id="defs5620">
								<path
   id="SVGID_00000181073373958346126790000003551193543123873711_"
   d="M330.257,135.32          c-4.803-3.398-11.782-3.335-16.523,0.148c-4.742,3.484-6.888,10.125-5.081,15.725c1.807,5.599,7.43,9.733,13.313,9.789          c5.884,0.054,11.583-3.975,13.494-9.539C337.371,145.879,335.484,139.017,330.257,135.32z" />
							</defs>
							<clipPath
   id="SVGID_00000168807816763342877060000012952889733734072244_">
								<use
   xlink:href="#SVGID_00000181073373958346126790000003551193543123873711_"
   style="overflow:visible;"
   id="use5622" />
							</clipPath>
							<g
   style="clip-path:url(#SVGID_00000168807816763342877060000012952889733734072244_);"
   clip-path="url(#SVGID_00000168807816763342877060000012952889733734072244_)"
   id="g5651">
								<path
   style="fill:none;stroke:#48407D;stroke-linecap:round;stroke-linejoin:round;stroke-miterlimit:10;"
   d="          M322.328,163.727c0.792-10.087,7.573-19.475,16.9-23.398"
   id="path5625" />
								<path
   style="fill:none;stroke:#48407D;stroke-linecap:round;stroke-linejoin:round;stroke-miterlimit:10;"
   d="          M327.2,162.184c0.665-7.164,5.138-13.863,11.499-17.225"
   id="path5627" />
								<path
   style="fill:none;stroke:#48407D;stroke-linecap:round;stroke-linejoin:round;stroke-miterlimit:10;"
   d="          M317.847,161.976c1.585-10.434,8.759-19.849,18.397-24.146"
   id="path5629" />
								<path
   style="fill:none;stroke:#48407D;stroke-linecap:round;stroke-linejoin:round;stroke-miterlimit:10;"
   d="          M313.61,160.805c1.779-11.473,10.379-21.619,21.404-25.255"
   id="path5631" />
								<path
   style="fill:none;stroke:#48407D;stroke-linecap:round;stroke-linejoin:round;stroke-miterlimit:10;"
   d="          M309.723,158.368c2.7-10.654,10.691-19.828,20.874-23.963"
   id="path5633" />
								<path
   style="fill:none;stroke:#48407D;stroke-linecap:round;stroke-linejoin:round;stroke-miterlimit:10;"
   d="          M307.493,154.233c3.36-10.405,11.919-18.986,22.314-22.374"
   id="path5635" />
								<path
   style="fill:none;stroke:#48407D;stroke-linecap:round;stroke-linejoin:round;stroke-miterlimit:10;"
   d="          M305.88,150.006c4.179-8.948,12.113-16.068,21.459-19.258"
   id="path5637" />
								<path
   style="fill:none;stroke:#48407D;stroke-linecap:round;stroke-linejoin:round;stroke-miterlimit:10;"
   d="          M312.031,134.085c5.013,9.615,14.275,16.915,24.796,19.54"
   id="path5639" />
								<path
   style="fill:none;stroke:#48407D;stroke-linecap:round;stroke-linejoin:round;stroke-miterlimit:10;"
   d="          M315.58,132.621c5.357,7.533,13.04,13.387,21.724,16.555"
   id="path5641" />
								<path
   style="fill:none;stroke:#48407D;stroke-linecap:round;stroke-linejoin:round;stroke-miterlimit:10;"
   d="          M320.125,130.944c4.829,6.341,11.96,10.889,19.746,12.594"
   id="path5643" />
								<path
   style="fill:none;stroke:#48407D;stroke-linecap:round;stroke-linejoin:round;stroke-miterlimit:10;"
   d="          M308.506,137.587c6.104,9.367,16.057,16.143,27.01,18.389"
   id="path5645" />
								<path
   style="fill:none;stroke:#48407D;stroke-linecap:round;stroke-linejoin:round;stroke-miterlimit:10;"
   d="          M305.213,142.732c7.013,8.409,17.467,13.859,28.377,14.792"
   id="path5647" />
								<path
   style="fill:none;stroke:#48407D;stroke-linecap:round;stroke-linejoin:round;stroke-miterlimit:10;"
   d="          M305.231,149.805c7.468,6.531,17.385,10.193,27.306,10.084"
   id="path5649" />
							</g>
						</g>
					</g>
				</g>
			</g>
			<g
   id="g5679">
				<g
   id="g5675">
					<path
   style="fill:#D24D84;"
   d="M142.164,365.767c-2.834,1.994-6.965,1.003-9.519-1.34c-2.553-2.343-3.886-5.698-5.065-8.956       c-7.694-21.248-12.313-43.463-16.907-65.589c-1.817-8.75-3.64-17.587-4.318-26.556c-0.449-5.931,3.81-11.201,9.706-11.982       c40.879-5.413,82.452-6.213,124.815-1.819c7.507,0.779,13.746,6.154,15.712,13.441c7.227,26.8,13.317,53.907,18.245,81.224       c0.488,2.703,0.96,5.515,0.237,8.165c-1.558,5.708-7.828,8.516-13.377,10.571L142.164,365.767z"
   id="path5661" />
					<g
   id="g5667">
						<path
   style="fill:#2E2854;"
   d="M195.958,301.691c-2.776-3.562-8.528-4.295-12.11-1.546c-3.581,2.75-4.358,8.497-1.635,12.099        c2.724,3.601,8.465,4.42,12.086,1.723C197.921,311.27,198.891,305.454,195.958,301.691z"
   id="path5663" />
						<path
   style="fill:#FFFFFF;"
   d="M192.214,304.613c-1.253-1.607-3.851-1.939-5.468-0.697c-1.617,1.241-1.968,3.836-0.738,5.462        c1.23,1.626,3.822,1.996,5.457,0.778C193.1,308.938,193.538,306.312,192.214,304.613z"
   id="path5665" />
					</g>
					<path
   style="opacity:0.75;fill:#FFFFFF;"
   d="M144.929,260.979c-0.545-4.633-21.812-5.648-27.128-1.331       c-6.175,5.015-1.922,21.557,1.879,27.258c3.801,5.701,6.006-0.48,4.903-8.453c-1.102-7.973-3.549-12.595,1.204-13.27       C130.54,264.508,145.472,265.594,144.929,260.979z"
   id="path5669" />
					<path
   style="opacity:0.75;fill:#FFFFFF;"
   d="M120.971,294.897c0.206-3.244,5.755-3.53,5.996,1.178       C127.208,300.782,120.695,299.257,120.971,294.897z"
   id="path5671" />
					<path
   style="opacity:0.15;fill:#2E2854;"
   d="M126.622,352.753c0.316,0.907,0.63,1.815,0.958,2.718       c1.179,3.258,2.512,6.613,5.065,8.956c2.554,2.343,6.685,3.334,9.519,1.34l119.529-2.841       c5.549-2.055,11.819-4.863,13.377-10.571c0.723-2.65,0.251-5.462-0.237-8.165c-3.9-21.62-8.54-43.105-13.884-64.413       C247.819,296.745,199.071,352.631,126.622,352.753z"
   id="path5673" />
				</g>
				<path
   style="fill:#D24D84;"
   d="M144.166,364.528c-5.306,0.233-7.146,7.339-2.525,9.957c0.034,0.019,0.068,0.038,0.102,0.057      c3.4,1.862,7.478,1.837,11.353,1.767c62.737-1.148,129.974-1.796,192.494-2.602c2.262-1.47,4.044-3.643,4.796-6.264      c0.731-2.554-1.207-5.107-3.863-5.166C279.183,360.772,211.786,361.555,144.166,364.528z"
   id="path5677" />
			</g>
			<g
   id="g5703">
				<path
   style="opacity:0.15;fill:#2E2854;"
   d="M476.197,334.408c-0.206-2.723-2.303-4.949-5.013-5.28      c-9.636-1.179-18.189-1.051-26.458-0.008c-2.658,0.335-4.736,2.497-4.972,5.166c-0.024,0.267-0.04,0.537-0.061,0.805      c-1.873-0.064-3.746-0.336-5.622-0.336c-2.469,0-5.114,0.572-6.785,2.388c-1.407,1.53-1.889,3.679-2.181,5.736      c-0.493,3.478-0.59,7.013-0.289,10.512c0.181,2.109,0.548,4.307,1.833,5.988c1.642,2.147,4.478,3.033,7.173,3.219      c2.337,0.161,4.683-0.088,7.021-0.041c0.52,1.465,1.268,2.81,2.4,3.896c2.995,2.872,7.819,3.154,11.547,3.453      c2.811,0.226,5.63,0.198,8.445,0.038c2.682-0.152,5.813,0.089,8.189-1.429c2.767-1.768,3.676-5.338,4.163-8.587      C476.857,351.494,476.84,342.922,476.197,334.408z M435.223,358.502c-2.231-0.263-4.486-1.382-5.533-3.369      c-1.344-2.553-0.392-5.648-0.452-8.533c-0.035-1.654-0.376-3.472,0.554-4.84c0.785-1.157,2.247-1.618,3.611-1.92      c1.986-0.438,4.009-0.704,6.04-0.796c-0.252,5.504-0.133,11.101,0.232,16.683c0.054,0.828,0.128,1.672,0.227,2.513      C438.349,358.515,436.782,358.686,435.223,358.502z"
   id="path5681" />
				<path
   style="opacity:0.75;fill:#FFFFFF;"
   d="M442.387,332.342c-1.524-2.74-0.897-6.498,1.436-8.594      c1.861-1.673,4.674-2.427,5.739-4.692c0.737-1.568,0.381-3.456-0.394-5.007c-0.773-1.551-1.925-2.877-2.869-4.33      c-2.355-3.629-3.367-8.253-2.113-12.394c1.253-4.14,4.989-7.583,10.538-8.316c-3.725-5.355-4.578-12.59-2.203-18.665      c2.375-6.075,7.91-10.812,14.279-12.22c3.447-0.761,7.203-0.557,10.306,1.127c3.102,1.685,5.415,4.995,5.379,8.526      c-0.039,3.685-2.438,6.856-4.526,9.893c-2.088,3.036-4.038,6.693-3.057,10.246c0.808,2.931,3.406,4.974,4.973,7.579      c2.978,4.951,1.551,12.066-3.104,15.487c-1.927,1.415-4.273,2.232-6.036,3.845c-2.248,2.054-3.271,5.182-3.397,8.224      c-0.127,3.043,0.546,6.055,1.215,9.025L442.387,332.342z"
   id="path5683" />
				<g
   id="g5701">
					<g
   id="g5691">
						<path
   style="fill:#D24D84;"
   d="M437.624,335.891c-2.461,0.206-4.932-0.215-7.399-0.163c-2.469,0.052-5.101,0.68-6.733,2.532        c-1.374,1.56-1.811,3.718-2.059,5.781c-0.419,3.488-0.441,7.024-0.066,10.516c0.226,2.105,0.639,4.294,1.96,5.948        c1.687,2.112,4.541,2.937,7.24,3.066c2.701,0.129,5.404-0.316,8.103-0.186c0,0-0.002-4.594-0.129-4.733        c-2.189,0.504-4.426,1.011-6.661,0.795c-2.236-0.216-4.514-1.286-5.603-3.251c-1.398-2.524-0.512-5.638-0.633-8.521        c-0.07-1.653-0.45-3.463,0.451-4.851c0.76-1.173,2.212-1.665,3.569-1.996c2.646-0.642,5.364-0.98,8.086-1.003        C437.708,338.57,437.667,337.314,437.624,335.891z"
   id="path5685" />
						<path
   style="opacity:0.15;fill:#2E2854;"
   d="M438.67,363.385c0,0-0.002-4.594-0.129-4.733        c-1.513,0.348-3.049,0.692-4.592,0.804c0.301,1.388,0.67,2.73,1.114,4C436.266,363.387,437.468,363.327,438.67,363.385z"
   id="path5687" />
						<path
   style="opacity:0.15;fill:#2E2854;"
   d="M433.192,335.822c-0.111,1.126-0.238,2.631-0.337,4.398        c1.621-0.24,3.256-0.382,4.894-0.395c-0.042-1.255-0.083-2.511-0.126-3.934C436.149,336.014,434.671,335.912,433.192,335.822z        "
   id="path5689" />
					</g>
					<path
   style="fill:#D24D84;"
   d="M467.209,329.315c2.717,0.274,4.861,2.455,5.124,5.173c0.823,8.498,1.022,17.069-0.067,25.527       c-0.418,3.258-1.251,6.847-3.98,8.673c-2.343,1.568-5.479,1.393-8.156,1.603c-2.811,0.22-5.629,0.307-8.444,0.141       c-3.733-0.221-8.562-0.4-11.617-3.208c-2.843-2.612-3.463-6.801-3.797-10.647c-0.623-7.188-0.845-14.411-0.375-21.439       c0.179-2.673,2.211-4.878,4.861-5.27C449.002,328.65,457.55,328.341,467.209,329.315z"
   id="path5693" />
					<path
   style="fill:#FFFFFF;"
   d="M466.915,361.395c-7.046,1.405-14.425,1.115-21.34-0.839       c-0.018-7.275,0.101-14.599,0.926-21.844c5.943-0.762,12.797-1.171,20.853-0.735       C468.376,345.579,468.291,353.329,466.915,361.395z"
   id="path5695" />
					<path
   style="fill:#D24D84;"
   d="M457.768,356.635c-1.562-1.146-3.119-2.323-4.413-3.766c-1.293-1.441-2.321-3.177-2.645-5.088       c-0.244-1.448,0.092-3.209,1.413-3.852c0.992-0.482,2.226-0.139,3.083,0.554c0.859,0.692,1.421,1.675,2.28,2.769       c0.544-1.182,1.122-2.408,2.138-3.221c1.016-0.813,2.608-1.067,3.588-0.211c0.869,0.757,0.969,2.075,0.795,3.215       C463.47,350.557,461.021,353.472,457.768,356.635z"
   id="path5697" />
					<path
   style="opacity:0.15;fill:#2E2854;"
   d="M437.951,364.232c0.521,1.116,1.192,2.143,2.117,2.992       c3.055,2.808,7.884,2.987,11.617,3.208c2.815,0.166,5.633,0.079,8.444-0.141c2.678-0.209,5.814-0.035,8.156-1.603       c2.729-1.826,3.562-5.415,3.98-8.673c0.65-5.049,0.834-10.139,0.707-15.228C461.24,357.709,445.292,362.591,437.951,364.232z"
   id="path5699" />
				</g>
			</g>
		</g>
	</g>
	<g
   id="g5727">
		<path
   style="fill:none;stroke:#2E2854;stroke-linecap:round;stroke-linejoin:round;stroke-miterlimit:10;"
   d="M542.466,300.323    c0-1.343-1.089-2.432-2.432-2.432c-1.343,0-2.432,1.089-2.432,2.432s1.089,2.432,2.432,2.432    C541.378,302.756,542.466,301.667,542.466,300.323z"
   id="path5709" />
		<path
   style="fill:none;stroke:#2E2854;stroke-linecap:round;stroke-linejoin:round;stroke-miterlimit:10;"
   d="M435.288,97.995    c0-1.343-1.089-2.432-2.432-2.432c-1.343,0-2.432,1.089-2.432,2.432s1.089,2.432,2.432,2.432    C434.199,100.428,435.288,99.339,435.288,97.995z"
   id="path5711" />
		<path
   style="fill:none;stroke:#2E2854;stroke-linecap:round;stroke-linejoin:round;stroke-miterlimit:10;"
   d="M564.117,73.666    c0-1.343-1.089-2.432-2.432-2.432s-2.432,1.089-2.432,2.432c0,1.343,1.089,2.432,2.432,2.432S564.117,75.009,564.117,73.666z"
   id="path5713" />
		<path
   style="fill:none;stroke:#2E2854;stroke-linecap:round;stroke-linejoin:round;stroke-miterlimit:10;"
   d="M78.078,429.121    c0-1.343-1.089-2.432-2.432-2.432c-1.343,0-2.432,1.089-2.432,2.432c0,1.343,1.089,2.432,2.432,2.432    C76.989,431.553,78.078,430.465,78.078,429.121z"
   id="path5715" />
		<path
   style="fill:none;stroke:#2E2854;stroke-linecap:round;stroke-linejoin:round;stroke-miterlimit:10;"
   d="M274.529,217.948    c0-1.343-1.089-2.432-2.432-2.432c-1.343,0-2.432,1.089-2.432,2.432c0,1.343,1.089,2.432,2.432,2.432    C273.44,220.38,274.529,219.291,274.529,217.948z"
   id="path5717" />
		<path
   style="fill:none;stroke:#2E2854;stroke-linecap:round;stroke-linejoin:round;stroke-miterlimit:10;"
   d="M141.437,43.647    c0-1.343-1.089-2.432-2.432-2.432c-1.343,0-2.432,1.089-2.432,2.432c0,1.343,1.089,2.432,2.432,2.432    C140.348,46.079,141.437,44.99,141.437,43.647z"
   id="path5719" />
		<path
   style="fill:none;stroke:#2E2854;stroke-linecap:round;stroke-linejoin:round;stroke-miterlimit:10;"
   d="M535.337,426.689    c0-1.343-1.089-2.432-2.432-2.432c-1.343,0-2.432,1.089-2.432,2.432s1.089,2.432,2.432,2.432    C534.248,429.121,535.337,428.032,535.337,426.689z"
   id="path5721" />
		
			<circle
   style="fill:none;stroke:#2E2854;stroke-linecap:round;stroke-linejoin:round;stroke-miterlimit:10;"
   cx="55.051"
   cy="234.078"
   r="2.432"
   id="circle5723" />
		<path
   style="fill:none;stroke:#2E2854;stroke-linecap:round;stroke-linejoin:round;stroke-miterlimit:10;"
   d="M509.134,200.081    c0-1.343-1.089-2.432-2.432-2.432c-1.343,0-2.432,1.089-2.432,2.432c0,1.343,1.089,2.432,2.432,2.432    C508.045,202.514,509.134,201.425,509.134,200.081z"
   id="path5725" />
	</g>
	<g
   id="g5757">
		<path
   style="fill:#CBBFFF;"
   d="M411.702,48.293c-4.234-4.335-11.13-5.85-16.771-3.632c-5.639,2.217-9.667,8.061-9.675,14.122    c-0.007,6.06,4.042,11.938,9.727,14.036c5.686,2.099,12.617,0.236,16.441-4.466C415.247,63.65,418.028,54.77,411.702,48.293z"
   id="path5729" />
		<path
   style="fill:#FFFFFF;"
   d="M81.74,191.569c-1.42-1.454-3.732-1.961-5.624-1.218c-1.892,0.743-3.242,2.703-3.245,4.736    c-0.002,2.032,1.355,4.003,3.263,4.707c1.906,0.704,4.23,0.079,5.512-1.498C82.928,196.719,83.861,193.741,81.74,191.569z"
   id="path5731" />
		<path
   style="fill:#CBBFFF;"
   d="M70.279,96.764c-1.42-1.454-3.732-1.961-5.624-1.218c-1.892,0.743-3.242,2.703-3.245,4.736    c-0.002,2.032,1.355,4.003,3.263,4.707c1.906,0.704,4.23,0.079,5.512-1.498C71.467,101.914,72.399,98.936,70.279,96.764z"
   id="path5733" />
		<path
   style="fill:#CBBFFF;"
   d="M507.262,435.862c-1.42-1.454-3.732-1.961-5.624-1.218c-1.892,0.743-3.242,2.703-3.245,4.736    c-0.002,2.032,1.355,4.003,3.263,4.707c1.906,0.704,4.23,0.079,5.512-1.498C508.45,441.012,509.383,438.034,507.262,435.862z"
   id="path5735" />
		<path
   style="fill:#CBBFFF;"
   d="M132.04,467.449c-1.42-1.454-3.732-1.961-5.624-1.218c-1.892,0.743-3.242,2.703-3.245,4.736    c-0.002,2.032,1.355,4.003,3.263,4.707c1.906,0.704,4.23,0.079,5.512-1.498C133.228,472.599,134.161,469.621,132.04,467.449z"
   id="path5737" />
		<path
   style="fill:#CBBFFF;"
   d="M572.272,120.896c-1.42-1.454-3.732-1.961-5.624-1.218c-1.892,0.743-3.242,2.703-3.245,4.736    c-0.002,2.032,1.355,4.003,3.263,4.707c1.906,0.704,4.23,0.079,5.512-1.498C573.46,126.046,574.393,123.068,572.272,120.896z"
   id="path5739" />
		<path
   style="fill:#FFFFFF;"
   d="M290.211,267.219c-1.42-1.454-3.732-1.961-5.624-1.218s-3.242,2.703-3.245,4.736    c-0.002,2.032,1.355,4.003,3.263,4.707c1.906,0.704,4.23,0.079,5.512-1.498C291.399,272.369,292.332,269.391,290.211,267.219z"
   id="path5741" />
		<path
   style="fill:#FFFFFF;"
   d="M532.506,244.429c-0.924-0.946-2.428-1.276-3.659-0.792c-1.231,0.483-2.109,1.758-2.111,3.081    c-0.001,1.322,0.882,2.604,2.123,3.062c1.24,0.458,2.752,0.051,3.586-0.975C533.279,247.779,533.886,245.842,532.506,244.429z"
   id="path5743" />
		<path
   style="fill:#FFFFFF;"
   d="M72.243,345.207c-0.924-0.946-2.428-1.276-3.659-0.792c-1.231,0.483-2.109,1.759-2.111,3.081    c-0.001,1.322,0.882,2.604,2.123,3.062c1.24,0.458,2.752,0.051,3.586-0.975C73.015,348.557,73.622,346.62,72.243,345.207z"
   id="path5745" />
		<path
   style="fill:#907EDE;"
   d="M502.653,345.207c-0.924-0.946-2.428-1.276-3.659-0.792s-2.109,1.759-2.111,3.081    c-0.001,1.322,0.882,2.604,2.123,3.062c1.24,0.458,2.752,0.051,3.586-0.975C503.426,348.557,504.033,346.62,502.653,345.207z"
   id="path5747" />
		<path
   style="fill:#907EDE;"
   d="M154.176,209.453c-0.924-0.946-2.428-1.276-3.659-0.792c-1.231,0.483-2.109,1.758-2.111,3.081    c-0.001,1.322,0.882,2.604,2.123,3.062c1.24,0.458,2.752,0.051,3.586-0.975C154.949,212.803,155.556,210.866,154.176,209.453z"
   id="path5749" />
		<path
   style="fill:#CBBFFF;"
   d="M559.833,410.497c-0.924-0.946-2.428-1.276-3.659-0.792s-2.109,1.759-2.111,3.081    c-0.001,1.322,0.882,2.604,2.123,3.062c1.24,0.458,2.752,0.051,3.586-0.975C560.606,413.848,561.213,411.91,559.833,410.497z"
   id="path5751" />
		<path
   style="fill:#CBBFFF;"
   d="M57.527,398.405c-0.924-0.946-2.428-1.276-3.659-0.792s-2.109,1.758-2.111,3.081    c-0.001,1.322,0.882,2.604,2.123,3.062c1.24,0.458,2.752,0.051,3.586-0.975C58.3,401.755,58.907,399.818,57.527,398.405z"
   id="path5753" />
		<path
   style="fill:#907EDE;"
   d="M299.464,70.322c-0.924-0.946-2.428-1.276-3.659-0.792s-2.109,1.758-2.111,3.081    c-0.001,1.322,0.882,2.604,2.123,3.062c1.24,0.458,2.752,0.051,3.586-0.975C300.237,73.672,300.844,71.735,299.464,70.322z"
   id="path5755" />
	</g>
</g>
<g
   id="DESIGNED_BY_FREEPIK"
   transform="translate(272.95999,16.167725)">
	<g
   id="g4343">
		<g
   id="XMLID_319_">
			<g
   id="XMLID_338_">
				<path
   id="XMLID_346_"
   style="fill:#1d262c"
   d="m 260.104,465.465 c -0.432,0.443 -0.803,0.931 -1.108,1.453 l -0.465,-0.241 c -0.067,-0.298 -0.349,-0.503 -0.659,-0.466 -0.331,0.039 -0.568,0.339 -0.529,0.67 0.039,0.331 0.339,0.568 0.67,0.529 0.066,-0.008 0.127,-0.026 0.184,-0.052 l 0.451,0.234 c -0.251,0.554 -0.433,1.139 -0.539,1.744 l 0.747,0.132 c 0.23,-1.306 0.85,-2.507 1.792,-3.473 z" />
				<path
   id="XMLID_345_"
   style="fill:#1d262c"
   d="m 265.592,463.163 c -0.171,0 -0.341,0.006 -0.51,0.017 l -0.074,-0.626 c 0.188,-0.149 0.296,-0.389 0.266,-0.645 -0.046,-0.393 -0.402,-0.674 -0.795,-0.628 -0.393,0.046 -0.674,0.402 -0.628,0.795 0.03,0.254 0.189,0.461 0.404,0.564 l 0.074,0.624 c -0.714,0.116 -1.403,0.332 -2.06,0.646 l 0.327,0.684 c 0.934,-0.447 1.942,-0.673 2.995,-0.673 0.496,0 0.993,0.053 1.475,0.158 l 0.161,-0.741 c -0.535,-0.116 -1.085,-0.175 -1.635,-0.175 z" />
				<path
   id="XMLID_344_"
   style="fill:#1d262c"
   d="m 272.194,465.711 c 0.331,-0.04 0.566,-0.341 0.526,-0.672 -0.04,-0.331 -0.341,-0.566 -0.672,-0.526 -0.309,0.038 -0.535,0.304 -0.53,0.609 l -0.416,0.363 c -0.418,-0.43 -0.889,-0.813 -1.408,-1.139 l -0.404,0.641 c 1.134,0.715 2.021,1.726 2.563,2.925 l 0.69,-0.313 c -0.251,-0.554 -0.567,-1.072 -0.942,-1.545 l 0.402,-0.351 c 0.062,0.013 0.126,0.016 0.191,0.008 z" />
				<path
   id="XMLID_343_"
   style="fill:#1d262c"
   d="m 265.044,473.372 c -0.386,0.023 -0.775,0.035 -1.157,0.035 -0.88,0 -1.733,-0.061 -2.478,-0.179 -0.39,-0.062 -0.846,-0.155 -1.27,-0.292 1.046,1.861 3.069,3.125 5.388,3.125 2.855,0 5.262,-1.916 5.95,-4.504 -0.682,0.449 -1.505,0.825 -2.459,1.123 -1.179,0.367 -2.555,0.606 -3.974,0.692 z" />
				<path
   id="XMLID_339_"
   style="fill:#1d262c"
   d="m 265.592,464.68 c -3.352,0 -6.08,2.666 -6.08,5.943 0,0.426 0.046,0.849 0.137,1.261 0.673,0.483 2.706,0.89 5.348,0.731 2.879,-0.173 5.297,-0.957 6.672,-2.159 -0.006,-0.195 -0.021,-0.39 -0.045,-0.582 -0.38,-2.961 -2.974,-5.194 -6.032,-5.194 z m -2.16,6.514 c -1.02,0 -1.85,-0.83 -1.85,-1.85 0,-1.02 0.83,-1.85 1.85,-1.85 1.02,0 1.85,0.83 1.85,1.85 0,1.021 -0.83,1.85 -1.85,1.85 z m 4.738,-0.908 c -0.75,0 -1.36,-0.61 -1.36,-1.36 0,-0.75 0.61,-1.361 1.36,-1.361 0.75,0 1.361,0.61 1.361,1.361 0,0.751 -0.611,1.36 -1.361,1.36 z" />
			</g>
			<path
   id="XMLID_336_"
   style="fill:#1d262c"
   d="m 281.595,466.547 c -0.295,-0.116 -0.805,-0.309 -1.382,-0.237 -0.551,0.069 -0.844,0.341 -0.844,1.007 v 0.866 h 2.228 v 1.717 h -2.228 v 5.455 h -1.932 V 469.9 h -1.34 v -1.717 h 1.34 v -0.888 c 0,-1.68 0.896,-2.783 2.568,-2.783 0.643,0 1.157,0.122 1.59,0.308 z" />
			<path
   id="XMLID_334_"
   style="fill:#1d262c"
   d="m 286.298,469.879 c -0.177,-0.03 -0.358,-0.046 -0.526,-0.046 -0.896,0 -1.51,0.548 -1.51,1.614 v 3.908 h -1.932 v -7.172 h 1.873 v 0.785 c 0.451,-0.673 1.14,-0.977 2.021,-0.977 0.414,0 0.848,0.128 1.094,0.337 z" />
			<path
   id="XMLID_331_"
   style="fill:#1d262c"
   d="m 293.965,471.757 c 0,0.222 -0.015,0.489 -0.037,0.651 h -5.085 c 0.207,1.036 0.933,1.488 1.843,1.488 0.622,0 1.295,-0.252 1.813,-0.688 l 1.133,1.243 c -0.814,0.748 -1.85,1.088 -3.057,1.088 -2.198,0 -3.723,-1.495 -3.723,-3.753 0,-2.258 1.48,-3.797 3.627,-3.797 2.065,0.001 3.479,1.533 3.486,3.768 z m -5.114,-0.666 h 3.175 c -0.177,-0.918 -0.733,-1.436 -1.562,-1.436 -0.91,0 -1.443,0.548 -1.613,1.436 z" />
			<path
   id="XMLID_328_"
   style="fill:#1d262c"
   d="m 301.618,471.757 c 0,0.222 -0.015,0.489 -0.037,0.651 h -5.085 c 0.207,1.036 0.933,1.488 1.843,1.488 0.622,0 1.295,-0.252 1.814,-0.688 l 1.132,1.243 c -0.814,0.748 -1.85,1.088 -3.057,1.088 -2.198,0 -3.723,-1.495 -3.723,-3.753 0,-2.258 1.48,-3.797 3.627,-3.797 2.065,0.001 3.479,1.533 3.486,3.768 z m -5.114,-0.666 h 3.175 c -0.178,-0.918 -0.733,-1.436 -1.562,-1.436 -0.91,0 -1.443,0.548 -1.613,1.436 z" />
			<path
   id="XMLID_325_"
   style="fill:#1d262c"
   d="m 309.964,471.764 c 0,2.154 -1.495,3.775 -3.471,3.775 -0.962,0 -1.643,-0.378 -2.109,-0.933 v 3.708 h -1.924 v -10.133 h 1.887 v 0.792 c 0.466,-0.585 1.155,-0.984 2.139,-0.984 1.983,0.001 3.478,1.621 3.478,3.775 z m -5.677,0 c 0,1.132 0.748,1.976 1.843,1.976 1.14,0 1.85,-0.881 1.85,-1.976 0,-1.095 -0.71,-1.976 -1.85,-1.976 -1.095,0 -1.843,0.844 -1.843,1.976 z" />
			<path
   id="XMLID_322_"
   style="fill:#1d262c"
   d="m 313.068,465.836 c 0,0.696 -0.54,1.229 -1.236,1.229 -0.696,0 -1.229,-0.533 -1.229,-1.229 0,-0.696 0.533,-1.243 1.229,-1.243 0.695,-0.001 1.236,0.547 1.236,1.243 z m -0.259,9.518 h -1.932 v -7.172 h 1.932 z" />
			<path
   id="XMLID_320_"
   style="fill:#1d262c"
   d="m 316.032,470.736 2.701,-2.554 h 2.368 l -3.479,3.375 3.501,3.797 h -2.376 l -2.716,-2.901 v 2.901 H 314.1 v -10.658 h 1.932 z" />
		</g>
		<g
   id="g4341">
			<path
   style="fill:#1d262c"
   d="m 184.412,475.289 v -1.055 c -0.527,0.718 -1.391,1.23 -2.387,1.23 -1.846,0 -3.149,-1.406 -3.149,-3.706 0,-2.256 1.289,-3.721 3.149,-3.721 0.952,0 1.816,0.469 2.387,1.245 v -3.765 h 1.099 v 9.77 h -1.099 z m 0,-1.919 v -3.208 c -0.395,-0.615 -1.245,-1.143 -2.124,-1.143 -1.421,0 -2.27,1.172 -2.27,2.739 0,1.567 0.85,2.724 2.27,2.724 0.88,10e-4 1.729,-0.496 2.124,-1.112 z"
   id="path4321" />
			<path
   style="fill:#1d262c"
   d="m 186.932,471.744 c 0,-2.051 1.465,-3.706 3.486,-3.706 2.139,0 3.398,1.67 3.398,3.794 v 0.279 h -5.727 c 0.088,1.333 1.025,2.446 2.549,2.446 0.805,0 1.626,-0.322 2.182,-0.894 l 0.527,0.718 c -0.703,0.703 -1.655,1.084 -2.812,1.084 -2.095,0 -3.603,-1.509 -3.603,-3.721 z m 3.471,-2.797 c -1.509,0 -2.256,1.274 -2.314,2.358 h 4.643 c -0.014,-1.055 -0.717,-2.358 -2.329,-2.358 z"
   id="path4323" />
			<path
   style="fill:#1d262c"
   d="m 194.607,474.351 0.571,-0.791 c 0.469,0.542 1.362,1.011 2.329,1.011 1.084,0 1.67,-0.513 1.67,-1.216 0,-1.714 -4.38,-0.659 -4.38,-3.281 0,-1.098 0.952,-2.036 2.636,-2.036 1.201,0 2.051,0.454 2.622,1.026 l -0.513,0.762 c -0.424,-0.513 -1.201,-0.894 -2.109,-0.894 -0.967,0 -1.567,0.483 -1.567,1.113 0,1.552 4.38,0.527 4.38,3.281 0,1.187 -0.952,2.138 -2.783,2.138 -1.157,10e-4 -2.138,-0.351 -2.856,-1.113 z"
   id="path4325" />
			<path
   style="fill:#1d262c"
   d="m 201.477,466.471 c 0,-0.41 0.337,-0.747 0.732,-0.747 0.41,0 0.747,0.337 0.747,0.747 0,0.41 -0.337,0.732 -0.747,0.732 -0.395,0 -0.732,-0.322 -0.732,-0.732 z m 0.19,8.818 v -7.075 h 1.099 v 7.075 z"
   id="path4327" />
			<path
   style="fill:#1d262c"
   d="m 204.582,477.105 0.556,-0.82 c 0.586,0.703 1.289,0.967 2.3,0.967 1.172,0 2.27,-0.571 2.27,-2.124 v -1.011 c -0.513,0.718 -1.377,1.26 -2.373,1.26 -1.845,0 -3.149,-1.377 -3.149,-3.662 0,-2.27 1.289,-3.677 3.149,-3.677 0.952,0 1.802,0.469 2.373,1.245 v -1.069 h 1.098 v 6.87 c 0,2.344 -1.641,3.076 -3.369,3.076 -1.2,0 -2.02,-0.234 -2.855,-1.055 z m 5.127,-3.852 v -3.091 c -0.381,-0.615 -1.23,-1.143 -2.109,-1.143 -1.421,0 -2.27,1.128 -2.27,2.695 0,1.553 0.849,2.695 2.27,2.695 0.878,0.001 1.728,-0.541 2.109,-1.156 z"
   id="path4329" />
			<path
   style="fill:#1d262c"
   d="m 217.413,475.289 v -4.629 c 0,-1.245 -0.63,-1.641 -1.582,-1.641 -0.865,0 -1.685,0.527 -2.095,1.099 v 5.17 h -1.099 v -7.075 h 1.099 v 1.025 c 0.498,-0.586 1.464,-1.201 2.519,-1.201 1.48,0 2.256,0.747 2.256,2.285 v 4.966 h -1.098 z"
   id="path4331" />
			<path
   style="fill:#1d262c"
   d="m 219.932,471.744 c 0,-2.051 1.465,-3.706 3.486,-3.706 2.139,0 3.398,1.67 3.398,3.794 v 0.279 h -5.727 c 0.088,1.333 1.025,2.446 2.549,2.446 0.806,0 1.626,-0.322 2.183,-0.894 l 0.527,0.718 c -0.703,0.703 -1.655,1.084 -2.812,1.084 -2.095,0 -3.604,-1.509 -3.604,-3.721 z m 3.472,-2.797 c -1.509,0 -2.256,1.274 -2.314,2.358 h 4.643 c -0.015,-1.055 -0.718,-2.358 -2.329,-2.358 z"
   id="path4333" />
			<path
   style="fill:#1d262c"
   d="m 233.35,475.289 v -1.055 c -0.527,0.718 -1.392,1.23 -2.388,1.23 -1.846,0 -3.149,-1.406 -3.149,-3.706 0,-2.256 1.289,-3.721 3.149,-3.721 0.952,0 1.817,0.469 2.388,1.245 v -3.765 h 1.098 v 9.77 h -1.098 z m 0,-1.919 v -3.208 c -0.396,-0.615 -1.245,-1.143 -2.124,-1.143 -1.421,0 -2.27,1.172 -2.27,2.739 0,1.567 0.849,2.724 2.27,2.724 0.879,10e-4 1.728,-0.496 2.124,-1.112 z"
   id="path4335" />
			<path
   style="fill:#1d262c"
   d="m 239.692,475.289 v -9.77 h 1.098 v 3.765 c 0.572,-0.776 1.421,-1.245 2.388,-1.245 1.845,0 3.149,1.465 3.149,3.721 0,2.299 -1.304,3.706 -3.149,3.706 -0.996,0 -1.86,-0.513 -2.388,-1.23 v 1.055 h -1.098 z m 3.208,-0.806 c 1.436,0 2.285,-1.157 2.285,-2.724 0,-1.568 -0.85,-2.739 -2.285,-2.739 -0.864,0 -1.728,0.527 -2.109,1.143 v 3.208 c 0.38,0.615 1.245,1.112 2.109,1.112 z"
   id="path4337" />
			<path
   style="fill:#1d262c"
   d="m 247.528,477.061 c 0.161,0.073 0.425,0.117 0.601,0.117 0.483,0 0.805,-0.161 1.055,-0.747 l 0.469,-1.069 -2.959,-7.148 h 1.187 l 2.358,5.8 2.344,-5.8 h 1.201 l -3.545,8.51 c -0.425,1.025 -1.143,1.421 -2.08,1.435 -0.234,0 -0.601,-0.044 -0.805,-0.103 z"
   id="path4339" />
		</g>
	</g>
</g><text
   xml:space="preserve"
   style="font-weight:bold;font-size:18.6667px;font-family:Montserrat-Bold;-inkscape-font-specification:'Montserrat-Bold Bold';text-align:center;text-anchor:middle;opacity:0.74;fill:#ff0000"
   x="59.325417"
   y="67.821465"
   id="text27035"><tspan
     sodipodi:role="line"
     id="tspan27033"
     x="59.325417"
     y="67.821465">Blogger</tspan></text></svg>
