<?xml version="1.0" encoding="UTF-8" standalone="no"?>
<!-- Uploaded to: SVG Repo, www.svgrepo.com, Generator: SVG Repo Mixer Tools -->

<svg
   fill="#000000"
   width="799.93835"
   height="443.63797"
   viewBox="0 -27.73 122.87053 68.142792"
   version="1.1"
   id="Layer_1"
   xml:space="preserve"
   sodipodi:docname="bilisimonemi-alanlar.svg"
   inkscape:version="1.2.2 (b0a8486541, 2022-12-01)"
   xmlns:inkscape="http://www.inkscape.org/namespaces/inkscape"
   xmlns:sodipodi="http://sodipodi.sourceforge.net/DTD/sodipodi-0.dtd"
   xmlns="http://www.w3.org/2000/svg"
   xmlns:svg="http://www.w3.org/2000/svg"><defs
   id="defs1875"><clipPath
   clipPathUnits="userSpaceOnUse"
   id="clipPath15564"><g
     id="g15568"
     transform="translate(-2.6856513,-1.5887216)"><g
       inkscape:label="Clip"
       id="use15566"
       transform="translate(2.6856513,1.588721)"
       clip-path="url(#clipPath15564)"><g
         id="g15744"
         clip-path="none"
         transform="translate(2.6856513,1.588721)"><g
           id="g15572"
           transform="matrix(0.31600234,0,0,0.30689409,75.726475,8.9374409)">

<path
   d="m 79.93,51.37 c -0.53,-0.51 -0.32,-1.2 0.48,-1.54 0.8,-0.34 1.87,-0.2 2.41,0.3 3.78,3.6 1.96,6.52 0.21,9.32 -1.32,2.12 -2.59,4.15 -0.25,6.19 0.57,0.5 0.4,1.19 -0.37,1.55 -0.77,0.36 -1.86,0.26 -2.43,-0.24 -3.47,-3.03 -1.86,-5.62 -0.17,-8.32 1.41,-2.27 2.89,-4.63 0.12,-7.26 z M 14.57,28.11 h 73.65 c 0.96,0 1.74,0.78 1.74,1.74 v 12.26 h 24.13 c 1.46,0 2.79,-0.6 3.75,-1.56 0.96,-0.96 1.56,-2.29 1.56,-3.75 v -28 c 0,-1.46 -0.6,-2.79 -1.56,-3.75 -0.96,-0.96 -2.29,-1.56 -3.75,-1.56 H 8.8 C 7.34,3.49 6.01,4.09 5.05,5.05 4.08,6.01 3.48,7.34 3.48,8.8 v 28 c 0,1.46 0.6,2.79 1.56,3.75 0.96,0.96 2.29,1.56 3.75,1.56 h 4.03 V 29.85 c 0.01,-0.96 0.79,-1.74 1.75,-1.74 z m 71.91,3.48 H 16.31 V 41.68 H 86.48 Z M 15.21,13.64 c -0.96,0 -1.74,-0.78 -1.74,-1.74 0,-0.96 0.78,-1.74 1.74,-1.74 h 93.74 c 0.96,0 1.74,0.78 1.74,1.74 0,0.96 -0.78,1.74 -1.74,1.74 z m 83.37,18.35 c 1.36,0 2.46,1.1 2.46,2.46 0,1.36 -1.1,2.46 -2.46,2.46 -1.36,0 -2.46,-1.1 -2.46,-2.46 0,-1.36 1.11,-2.46 2.46,-2.46 z m 10.27,0 c 1.36,0 2.46,1.1 2.46,2.46 0,1.36 -1.1,2.46 -2.46,2.46 -1.36,0 -2.46,-1.1 -2.46,-2.46 0,-1.36 1.1,-2.46 2.46,-2.46 z M 8.8,0 h 105.29 c 2.42,0 4.62,0.99 6.21,2.58 1.59,1.59 2.58,3.79 2.58,6.21 V 36.8 c 0,2.42 -0.99,4.62 -2.58,6.21 -1.59,1.59 -3.79,2.58 -6.21,2.58 H 8.8 C 6.38,45.59 4.18,44.6 2.59,43.01 0.99,41.42 0,39.22 0,36.8 V 8.8 C 0,6.38 0.99,4.18 2.58,2.59 4.18,0.99 6.38,0 8.8,0 Z m 6.41,21.76 c -0.96,0 -1.74,-0.78 -1.74,-1.74 0,-0.96 0.78,-1.74 1.74,-1.74 h 93.74 c 0.96,0 1.74,0.78 1.74,1.74 0,0.96 -0.78,1.74 -1.74,1.74 z m 6.16,29.61 c -0.53,-0.51 -0.32,-1.2 0.48,-1.54 0.8,-0.34 1.87,-0.2 2.41,0.3 3.78,3.6 1.96,6.52 0.21,9.32 -1.32,2.12 -2.59,4.15 -0.25,6.19 0.57,0.5 0.4,1.19 -0.37,1.55 -0.77,0.36 -1.86,0.26 -2.43,-0.24 -3.47,-3.03 -1.86,-5.62 -0.17,-8.32 1.41,-2.27 2.88,-4.63 0.12,-7.26 z m 14.64,0 c -0.53,-0.51 -0.32,-1.2 0.48,-1.54 0.8,-0.34 1.87,-0.2 2.41,0.3 3.78,3.6 1.96,6.52 0.21,9.32 -1.32,2.12 -2.59,4.15 -0.25,6.19 0.57,0.5 0.4,1.19 -0.37,1.55 -0.77,0.36 -1.86,0.26 -2.43,-0.24 -3.47,-3.03 -1.86,-5.62 -0.17,-8.32 1.41,-2.27 2.88,-4.63 0.12,-7.26 z m 14.64,0 c -0.53,-0.51 -0.32,-1.2 0.48,-1.54 0.8,-0.34 1.87,-0.2 2.41,0.3 3.78,3.6 1.96,6.52 0.21,9.32 -1.32,2.12 -2.59,4.15 -0.25,6.19 0.57,0.5 0.4,1.19 -0.37,1.55 -0.77,0.36 -1.86,0.26 -2.43,-0.24 -3.47,-3.03 -1.86,-5.62 -0.17,-8.32 1.41,-2.27 2.89,-4.63 0.12,-7.26 z m 14.64,0 c -0.53,-0.51 -0.32,-1.2 0.48,-1.54 0.8,-0.34 1.87,-0.2 2.41,0.3 3.78,3.6 1.96,6.52 0.21,9.32 -1.32,2.12 -2.59,4.15 -0.25,6.19 0.57,0.5 0.4,1.19 -0.37,1.55 -0.77,0.36 -1.86,0.26 -2.43,-0.24 -3.47,-3.03 -1.85,-5.62 -0.17,-8.32 1.41,-2.27 2.89,-4.63 0.12,-7.26 z"
   id="path15570" />

</g><g
           id="g15584"
           transform="matrix(0.03702094,0,0,0.03373472,-3.5859266,-29.1693)"><path
             d="M 841.8938,97.371494 H 180.39938 c -13.50198,0 -24.45448,10.955576 -24.45448,24.454476 v 431.9762 c 0,1.20921 0.50887,2.22695 0.70136,3.37472 0.7628,11.39892 9.1689,21.20774 20.82583,22.86336 l 65.78361,9.23442 c 50.43966,7.25833 111.76937,16.11084 167.93665,22.16302 v 32.41417 H 186.83347 c -13.50197,0 -24.45447,10.9525 -24.45447,24.45447 V 904.3846 c 0,13.50197 10.9525,24.45447 24.45447,24.45447 h 652.19448 c 13.50198,0 24.45448,-10.9525 24.45448,-24.45447 V 668.30736 c 0,-13.50198 -10.9525,-24.45448 -24.45448,-24.45448 H 602.75617 v -31.07697 c 57.57,-5.85969 121.76659,-15.34804 173.79634,-22.99134 l 68.58803,-9.74329 c 12.41973,-1.78361 21.3347,-12.80164 20.95279,-25.09441 0,-0.38191 0.25393,-0.69829 0.25393,-1.1447 V 121.82699 c 10e-4,-13.4989 -10.95148,-24.455496 -24.45346,-24.455496 z"
             fill="#27323a"
             id="path15574" /><path
             d="m 211.28795,692.76184 h 603.2845 v 187.16828 h -603.2845 z"
             fill="#f4ce73"
             id="path15576" /><path
             d="m 460.10232,643.85186 v -27.89473 c 19.67806,1.46722 38.08444,2.42251 53.8789,2.42251 11.97331,0 25.59918,-0.63891 39.86497,-1.52969 v 27.00191 z m 357.33598,-109.2844 -48.01612,6.81498 c -80.37193,11.84635 -190.35462,28.08722 -255.43994,28.08722 -66.10613,0 -180.29187,-16.56135 -263.65661,-28.59609 L 204.8559,534.505 V 146.28147 h 612.58343 v 388.28599 z"
             fill="#ffffff"
             id="path15578" /><path
             d="m 599.25448,798.41349 h 163.60664 c 13.4989,0 24.45448,-10.9525 24.45448,-24.4555 0,-13.49891 -10.95558,-24.45448 -24.45448,-24.45448 H 599.25448 c -13.50197,0 -24.45447,10.95557 -24.45447,24.45448 0,13.503 10.9525,24.4555 24.45447,24.4555 z M 489.39978,541.12851 c 0,-12.03474 9.80473,-21.84357 21.84357,-21.84357 11.97331,0 21.78111,9.8078 21.78111,21.84357 0,11.97332 -9.8078,21.78112 -21.78111,21.78112 -12.03885,0 -21.84357,-9.80882 -21.84357,-21.78112 z M 250.77204,167.48921 c -8.9805,0 -16.30332,7.26139 -16.30332,16.30332 v 310.01712 c 0,9.04501 7.32282,16.30333 16.30332,16.30333 h 520.87709 c 8.98049,0 16.30332,-7.25832 16.30332,-16.30333 V 183.79253 c 0,-9.04193 -7.32283,-16.30332 -16.30332,-16.30332 z"
             fill="#27323a"
             id="path15580" /><path
             d="M 755.3458,200.09586 V 477.50633 H 267.07537 V 200.09586 Z"
             fill="#79ccbf"
             id="path15582" /></g><g
           id="g15646"
           transform="matrix(0.05673058,0,0,0.05992302,46.198684,8.3646221)"><path
             style="fill:#82afaf"
             d="m 427.2,479.2 c 0,8.8 -7.2,15.2 -15.2,15.2 H 82.4 c -8.8,0 -15.2,-7.2 -15.2,-15.2 V 15.2 C 67.2,6.4 74.4,0 82.4,0 h 328.8 c 8.8,0 15.2,7.2 15.2,15.2 v 464 z"
             id="path15586" /><path
             style="fill:#76a3a2"
             d="M 67.2,15.2 C 67.2,6.4 74.4,0 82.4,0 h 328.8 c 8.8,0 15.2,7.2 15.2,15.2 v 464 c 0,8.8 -7.2,15.2 -15.2,15.2"
             id="path15588" /><g
             id="g15594">
	<polygon
   style="fill:#669694"
   points="427.2,374.4 427.2,262.4 303.2,136.8 192,136.8 "
   id="polygon15590" />
	<path
   style="fill:#669694"
   d="M 412,23.2 H 82.4 c -8.8,0 -15.2,7.2 -15.2,15.2 v 90.4 h 360 V 38.4 c 0,-8 -7.2,-15.2 -15.2,-15.2 z"
   id="path15592" />
</g><path
             style="fill:#a3d0d1"
             d="M 412,0 H 82.4 c -8,0 -15.2,7.2 -15.2,15.2 v 90.4 h 360 V 15.2 C 427.2,7.2 420,0 412,0 Z"
             id="path15596" /><path
             style="fill:#91c4c4"
             d="M 427.2,106.4 V 15.2 C 427.2,6.4 420,0 412,0 H 82.4 c -8,0 -15.2,7.2 -15.2,15.2"
             id="path15598" /><path
             style="fill:#b3e0e0"
             d="M 412,0 H 82.4 c -8,0 -15.2,7.2 -15.2,15.2 v 7.2 c 0,-8.8 7.2,-15.2 15.2,-15.2 h 328.8 c 8.8,0 15.2,7.2 15.2,15.2 V 15.2 C 427.2,7.2 420,0 412,0 Z"
             id="path15600" /><path
             style="fill:#a3d0d1"
             d="m 67.2,464.8 v 14.4 c 0,8.8 7.2,15.2 15.2,15.2 h 328.8 c 8.8,0 15.2,-7.2 15.2,-15.2 v -14.4 z"
             id="path15602" /><rect
             x="67.199997"
             y="99.199997"
             style="fill:#b3e0e0"
             width="360"
             height="7.1999998"
             id="rect15604" /><path
             style="fill:#a3d0d1"
             d="m 308,136.8 c 0,5.6 -4,9.6 -9.6,9.6 H 196 c -5.6,0 -9.6,-4 -9.6,-9.6 v 0 c 0,-5.6 4,-9.6 9.6,-9.6 h 103.2 c 4.8,0 8.8,4.8 8.8,9.6 z"
             id="path15606" /><path
             style="fill:#b3e0e0"
             d="M 298.4,127.2 H 196 c -4,0 -8,2.4 -8.8,6.4 1.6,4 4.8,6.4 8.8,6.4 h 103.2 c 4,0 8,-2.4 8.8,-6.4 -1.6,-3.2 -4.8,-6.4 -9.6,-6.4 z"
             id="path15608" /><path
             style="fill:#137d8e"
             d="m 124,52 c 0,10.4 -8,18.4 -18.4,18.4 -10.4,0 -18.4,-8 -18.4,-18.4 0,-10.4 8,-20 18.4,-20 10.4,0 18.4,9.6 18.4,20 z"
             id="path15610" /><path
             style="fill:#72a2a5"
             d="m 124,52 c 0,10.4 -8,27.2 -18.4,27.2 -10.4,0 -18.4,-17.6 -18.4,-27.2 0,-10.4 8,-17.6 18.4,-17.6 10.4,0 18.4,7.2 18.4,17.6 z"
             id="path15612" /><circle
             style="fill:#185b6b"
             cx="105.6"
             cy="52"
             r="18.4"
             id="circle15614" /><path
             style="fill:#073b44"
             d="m 119.2,38.4 c 7.2,7.2 7.2,19.2 0,26.4 C 112,72 100,72 92.8,64.8"
             id="path15616" /><circle
             style="fill:#b8d7e0"
             cx="115.2"
             cy="42.400002"
             r="1.6"
             id="circle15618" /><path
             style="fill:#137d8e"
             d="m 168.8,52 c 0,10.4 -8,18.4 -18.4,18.4 -10.4,0 -18.4,-8 -18.4,-18.4 0,-10.4 8,-20 18.4,-20 10.4,0 18.4,9.6 18.4,20 z"
             id="path15620" /><path
             style="fill:#72a2a5"
             d="m 168.8,52 c 0,10.4 -8,27.2 -18.4,27.2 C 140,79.2 132,62.4 132,52 c 0,-10.4 8,-17.6 18.4,-17.6 10.4,0 18.4,7.2 18.4,17.6 z"
             id="path15622" /><circle
             style="fill:#185b6b"
             cx="150.39999"
             cy="52"
             r="18.4"
             id="circle15624" /><path
             style="fill:#073b44"
             d="m 163.2,38.4 c 7.2,7.2 7.2,19.2 0,26.4 -7.2,7.2 -19.2,7.2 -26.4,0"
             id="path15626" /><circle
             style="fill:#b8d7e0"
             cx="160"
             cy="42.400002"
             r="1.6"
             id="circle15628" /><path
             style="fill:#137d8e"
             d="m 213.6,52 c 0,10.4 -8,18.4 -18.4,18.4 -10.4,0 -18.4,-8 -18.4,-18.4 0,-10.4 8,-20 18.4,-20 10.4,0 18.4,9.6 18.4,20 z"
             id="path15630" /><path
             style="fill:#72a2a5"
             d="m 213.6,52 c 0,10.4 -8,27.2 -18.4,27.2 -10.4,0 -18.4,-16.8 -18.4,-27.2 0,-10.4 8,-17.6 18.4,-17.6 10.4,0 18.4,7.2 18.4,17.6 z"
             id="path15632" /><circle
             style="fill:#185b6b"
             cx="195.2"
             cy="52"
             r="18.4"
             id="circle15634" /><path
             style="fill:#073b44"
             d="m 208,38.4 c 7.2,7.2 7.2,19.2 0,26.4 -7.2,7.2 -19.2,7.2 -26.4,0"
             id="path15636" /><circle
             style="fill:#b8d7e0"
             cx="204.8"
             cy="42.400002"
             r="1.6"
             id="circle15638" /><path
             style="fill:#53ad8a"
             d="m 398.4,67.2 c 0,4 -3.2,7.2 -7.2,7.2 H 290.4 c -4,0 -7.2,-3.2 -7.2,-7.2 V 41.6 c 0,-4 3.2,-7.2 7.2,-7.2 h 100.8 c 4,0 7.2,3.2 7.2,7.2 z"
             id="path15640" /><path
             style="fill:#3ca589"
             d="M 391.2,34.4 H 290.4 c -4,0 -7.2,3.2 -7.2,7.2 v 23.2 c 0,4 3.2,7.2 7.2,7.2 h 100.8 c 4,0 7.2,-3.2 7.2,-7.2 V 41.6 c 0,-4 -3.2,-7.2 -7.2,-7.2 z"
             id="path15642" /><path
             style="fill:#319385"
             d="m 283.2,64.8 c 0,4 3.2,7.2 7.2,7.2 h 100.8 c 4,0 7.2,-3.2 7.2,-7.2 V 41.6 c 0,-4 -3.2,-7.2 -7.2,-7.2"
             id="path15644" /></g><g
           id="g15682"
           transform="matrix(0.0652863,0,0,0.06406848,83.040057,-28.334524)"><path
             style="fill:#54686c"
             d="M 126.527,136.399 H 41.796 c -17.312,0 -31.347,13.992 -31.347,31.251 v 248.812 c 0,17.26 14.035,31.251 31.347,31.251 h 428.408 c 17.312,0 31.347,-13.689 31.347,-30.948 V 167.651 c 0,-17.259 -14.035,-31.251 -31.347,-31.251 H 385.473 126.527 Z"
             id="path15648" /><g
             id="g15654">
	<path
   style="fill:#87a3aa"
   d="m 10.449,407.051 v 9.411 c 0,17.26 14.035,31.251 31.347,31.251 h 428.408 c 17.312,0 31.347,-13.689 31.347,-30.948 v -9.714 z"
   id="path15650" />
	<path
   style="fill:#87a3aa"
   d="M 470.204,136.399 H 385.473 126.527 41.796 c -17.312,0 -31.347,13.992 -31.347,31.251 v 7.377 h 491.102 v -7.377 c 0,-17.258 -14.035,-31.251 -31.347,-31.251 z"
   id="path15652" />
</g><circle
             style="fill:#54686c"
             cx="327.272"
             cy="292.332"
             r="114.719"
             id="circle15656" /><rect
             x="55.380001"
             y="99.830002"
             style="fill:#faf9f9"
             width="78.366997"
             height="36.570999"
             id="rect15658" /><polygon
             style="fill:#54686c"
             points="418.544,135.37 236.006,135.37 249.59,64.287 403.916,64.287 "
             id="polygon15660" /><circle
             style="fill:#87a3aa"
             cx="327.272"
             cy="292.332"
             r="77.198997"
             id="circle15662" /><circle
             style="fill:#54686c"
             cx="327.272"
             cy="292.332"
             r="42.369999"
             id="circle15664" /><path
             d="m 327.276,167.155 c -69.021,0 -125.173,56.152 -125.173,125.173 0,69.021 56.152,125.172 125.173,125.172 69.021,0 125.172,-56.152 125.172,-125.173 0,-69.021 -56.152,-125.172 -125.172,-125.172 z m 0,229.447 c -57.497,0 -104.275,-46.778 -104.275,-104.275 0,-57.497 46.778,-104.275 104.275,-104.275 57.497,0 104.274,46.779 104.274,104.275 0,57.496 -46.778,104.275 -104.274,104.275 z"
             id="path15666" /><path
             d="m 327.276,204.679 c -48.329,0 -87.648,39.318 -87.648,87.648 0,48.33 39.318,87.648 87.648,87.648 48.33,0 87.648,-39.318 87.648,-87.648 0,-48.33 -39.32,-87.648 -87.648,-87.648 z m 0,154.399 c -36.807,0 -66.75,-29.944 -66.75,-66.75 0,-36.806 29.944,-66.75 66.75,-66.75 36.806,0 66.75,29.944 66.75,66.75 0,36.806 -29.945,66.75 -66.75,66.75 z"
             id="path15668" /><path
             d="m 346.687,266.983 c 0.065,0.051 0.161,0.127 0.227,0.177 1.892,1.441 4.116,2.138 6.324,2.138 3.149,0 6.263,-1.418 8.318,-4.117 3.483,-4.57 2.619,-11.091 -1.919,-14.599 -4.504,-3.511 -11.004,-2.756 -14.582,1.715 -3.605,4.506 -2.874,11.082 1.632,14.686 z"
             id="path15670" /><path
             d="m 359.196,292.327 c 0,17.601 -14.319,31.921 -31.921,31.921 -17.601,0 -31.921,-14.319 -31.921,-31.921 0,-5.771 -4.678,-10.449 -10.449,-10.449 -5.771,0 -10.449,4.678 -10.449,10.449 0,29.124 23.694,52.819 52.819,52.819 29.124,0 52.819,-23.694 52.819,-52.819 0,-5.771 -4.678,-10.449 -10.449,-10.449 -5.771,0 -10.449,4.678 -10.449,10.449 z"
             id="path15672" /><path
             d="m 456.62,167.38 c -5.762,0 -10.449,4.687 -10.449,10.449 0,5.762 4.687,10.449 10.449,10.449 5.762,0 10.449,-4.687 10.449,-10.449 0,-5.762 -4.687,-10.449 -10.449,-10.449 z"
             id="path15674" /><path
             d="m 470.204,125.95 h -42.93 L 414.15,62.18 c -1,-4.857 -5.276,-8.342 -10.235,-8.342 H 249.59 c -5.014,0 -9.322,3.562 -10.263,8.488 l -12.158,63.625 H 144.197 V 99.828 c 0,-5.771 -4.678,-10.449 -10.449,-10.449 H 55.38 c -5.771,0 -10.449,4.678 -10.449,10.449 V 125.95 H 41.796 C 18.75,125.95 0,144.657 0,167.65 v 248.812 c 0,22.993 18.75,41.7 41.796,41.7 h 428.408 c 23.046,0 41.796,-18.57 41.796,-41.397 V 167.651 C 512,144.657 493.25,125.95 470.204,125.95 Z M 258.231,74.736 h 137.168 l 10.328,50.184 H 248.641 Z M 65.829,110.277 h 57.469 V 125.95 H 65.829 Z m 425.273,306.489 c 0,11.495 -9.179,20.499 -20.898,20.499 H 41.796 c -11.171,0 -20.297,-8.777 -20.845,-19.765 h 174.631 c 5.771,0 10.449,-4.678 10.449,-10.449 0,-5.771 -4.678,-10.449 -10.449,-10.449 H 20.898 V 188.053 h 174.683 c 5.771,0 10.449,-4.678 10.449,-10.449 0,-5.771 -4.678,-10.449 -10.449,-10.449 H 20.923 c 0.267,-11.24 9.518,-20.307 20.873,-20.307 h 428.408 c 11.523,0 20.898,9.332 20.898,20.802 z"
             id="path15676" /><path
             d="m 229.522,396.602 h -0.137 c -5.771,0 -10.449,4.678 -10.449,10.449 0,5.771 4.678,10.449 10.449,10.449 h 0.137 c 5.771,0 10.449,-4.678 10.449,-10.449 0,-5.771 -4.678,-10.449 -10.449,-10.449 z"
             id="path15678" /><path
             d="m 229.385,188.053 h 0.137 c 5.771,0 10.449,-4.678 10.449,-10.449 0,-5.771 -4.678,-10.449 -10.449,-10.449 h -0.137 c -5.771,0 -10.449,4.678 -10.449,10.449 0,5.771 4.678,10.449 10.449,10.449 z"
             id="path15680" /></g><g
           id="g15698"
           transform="matrix(0.04785007,0,0,0.05177577,47.739577,-25.414407)"><path
             style="fill:#48cfad"
             d="m 128.007,501.311 c -17.656,0 -31.999,-14.359 -31.999,-32 V 42.654 c 0,-17.64 14.343,-31.999 31.999,-31.999 h 255.984 c 17.654,0 31.998,14.359 31.998,31.999 v 426.657 c 0,17.641 -14.344,32 -31.998,32 z"
             id="path15684" /><path
             style="fill:#5d9cec"
             d="m 371.116,354.878 -0.906,-0.281 c -15.094,-4.094 -26.156,-7.983 -32.844,-10.562 -23.592,-9.078 -29.779,-15.641 -31.342,-18.733 -0.031,-0.109 -0.094,-0.234 -0.156,-0.344 l -0.188,-28.891 -100.911,1.156 -0.203,27.734 c -0.047,0.109 -0.094,0.234 -0.141,0.344 -1.578,3.093 -7.719,9.655 -31.343,18.749 -6.656,2.562 -17.75,6.452 -32.718,10.515 l -1.016,0.312 c -13.625,4.547 -22.78,17.312 -22.78,31.719 v 40.045 h 277.326 v -40.045 c 10e-4,-14.406 -9.153,-27.171 -22.778,-31.718 z"
             id="path15686" /><path
             style="fill:#eac6bb"
             d="m 333.803,243.288 c 0,51.061 -48.686,100.153 -78.583,100.153 -29.905,0 -78.575,-49.093 -78.575,-100.153 0,-51.06 35.186,-84.747 78.575,-84.747 43.398,0 78.583,33.686 78.583,84.747 z"
             id="path15688" /><path
             style="fill:#a85d5d"
             d="m 305.868,149.307 c -13.375,-12.109 -58.177,-26.968 -102.864,0 -22.624,13.64 -39.092,73.95 -39.092,73.95 0,0 44.139,25.015 101.591,-2.016 34.396,-16.187 33.615,-7.703 43.428,7.031 5.844,8.734 24.873,15.015 24.873,15.015 0,0 14.812,-55.278 -27.936,-93.98 z"
             id="path15690" /><path
             style="fill:#434a54"
             d="M 383.991,0 H 128.007 C 104.43,0 85.337,19.093 85.337,42.654 v 426.657 c 0,23.562 19.093,42.671 42.67,42.671 h 255.984 c 23.561,0 42.654,-19.108 42.654,-42.671 V 42.654 C 426.645,19.093 407.552,0 383.991,0 Z m 21.342,469.311 c 0,11.766 -9.594,21.328 -21.342,21.328 H 128.007 c -11.765,0 -21.343,-9.562 -21.343,-21.328 V 42.654 c 0,-11.765 9.578,-21.327 21.343,-21.327 h 255.984 c 11.748,0 21.342,9.562 21.342,21.327 z"
             id="path15692" /><path
             style="fill:#434a54"
             d="m 96.008,405.313 v 63.998 c 0,17.641 14.343,32 31.999,32 h 255.984 c 17.654,0 31.998,-14.359 31.998,-32 v -63.998 z"
             id="path15694" /><path
             style="fill:#656d78"
             d="m 256.002,426.641 c -17.687,0 -31.999,14.328 -31.999,31.999 0,17.671 14.312,31.999 31.999,31.999 17.678,0 31.991,-14.328 31.991,-31.999 0,-17.671 -14.313,-31.999 -31.991,-31.999 z m 0,42.67 c -5.89,0 -10.671,-4.781 -10.671,-10.671 0,-5.875 4.781,-10.656 10.671,-10.656 5.875,0 10.657,4.781 10.657,10.656 0,5.89 -4.781,10.671 -10.657,10.671 z"
             id="path15696" /></g><g
           id="g15720"
           transform="matrix(0.1536,0,0,0.1536,56.9856,8.4284814)"><rect
             y="5.5"
             style="fill:#38454f"
             width="58"
             height="38"
             id="rect15700"
             x="0" /><path
             style="fill:#61b872"
             d="M 13.962,21.5 H 11.038 C 10.465,21.5 10,21.035 10,20.462 V 17.538 C 10,16.965 10.465,16.5 11.038,16.5 h 2.924 c 0.573,0 1.038,0.465 1.038,1.038 v 2.924 c 0,0.573 -0.465,1.038 -1.038,1.038 z"
             id="path15702" /><path
             style="fill:#48a0dc"
             d="M 24.962,21.5 H 22.038 C 21.465,21.5 21,21.035 21,20.462 V 17.538 C 21,16.965 21.465,16.5 22.038,16.5 h 2.924 c 0.573,0 1.038,0.465 1.038,1.038 v 2.924 c 0,0.573 -0.465,1.038 -1.038,1.038 z"
             id="path15704" /><path
             style="fill:#ebba16"
             d="M 35.962,21.5 H 33.038 C 32.465,21.5 32,21.035 32,20.462 V 17.538 C 32,16.965 32.465,16.5 33.038,16.5 h 2.924 c 0.573,0 1.038,0.465 1.038,1.038 v 2.924 c 0,0.573 -0.465,1.038 -1.038,1.038 z"
             id="path15706" /><path
             style="fill:#bf4d90"
             d="M 46.962,21.5 H 44.038 C 43.465,21.5 43,21.035 43,20.462 V 17.538 C 43,16.965 43.465,16.5 44.038,16.5 h 2.924 c 0.573,0 1.038,0.465 1.038,1.038 v 2.924 c 0,0.573 -0.465,1.038 -1.038,1.038 z"
             id="path15708" /><path
             style="fill:#dd352e"
             d="M 13.962,32.5 H 11.038 C 10.465,32.5 10,32.035 10,31.462 V 28.538 C 10,27.965 10.465,27.5 11.038,27.5 h 2.924 c 0.573,0 1.038,0.465 1.038,1.038 v 2.924 c 0,0.573 -0.465,1.038 -1.038,1.038 z"
             id="path15710" /><path
             style="fill:#a4e869"
             d="M 24.962,32.5 H 22.038 C 21.465,32.5 21,32.035 21,31.462 V 28.538 C 21,27.965 21.465,27.5 22.038,27.5 h 2.924 c 0.573,0 1.038,0.465 1.038,1.038 v 2.924 c 0,0.573 -0.465,1.038 -1.038,1.038 z"
             id="path15712" /><path
             style="fill:#50508a"
             d="M 35.962,32.5 H 33.038 C 32.465,32.5 32,32.035 32,31.462 V 28.538 C 32,27.965 32.465,27.5 33.038,27.5 h 2.924 c 0.573,0 1.038,0.465 1.038,1.038 v 2.924 c 0,0.573 -0.465,1.038 -1.038,1.038 z"
             id="path15714" /><path
             style="fill:#be7c6d"
             d="M 46.962,32.5 H 44.038 C 43.465,32.5 43,32.035 43,31.462 V 28.538 C 43,27.965 43.465,27.5 44.038,27.5 h 2.924 c 0.573,0 1.038,0.465 1.038,1.038 v 2.924 c 0,0.573 -0.465,1.038 -1.038,1.038 z"
             id="path15716" /><polygon
             style="fill:#afb6bb"
             points="28,49.5 15,49.5 15,52.5 43,52.5 43,49.5 30,49.5 30,43.5 28,43.5 "
             id="polygon15718" /></g><g
           id="g15742"
           transform="matrix(0.77003571,0,0,0.60848731,2.5230789,4.400439)"><rect
             y="5.5"
             style="fill:#38454f"
             width="58"
             height="38"
             id="rect15722"
             x="0" /><path
             style="fill:#61b872"
             d="M 13.962,21.5 H 11.038 C 10.465,21.5 10,21.035 10,20.462 V 17.538 C 10,16.965 10.465,16.5 11.038,16.5 h 2.924 c 0.573,0 1.038,0.465 1.038,1.038 v 2.924 c 0,0.573 -0.465,1.038 -1.038,1.038 z"
             id="path15724" /><path
             style="fill:#48a0dc"
             d="M 24.962,21.5 H 22.038 C 21.465,21.5 21,21.035 21,20.462 V 17.538 C 21,16.965 21.465,16.5 22.038,16.5 h 2.924 c 0.573,0 1.038,0.465 1.038,1.038 v 2.924 c 0,0.573 -0.465,1.038 -1.038,1.038 z"
             id="path15726" /><path
             style="fill:#ebba16"
             d="M 35.962,21.5 H 33.038 C 32.465,21.5 32,21.035 32,20.462 V 17.538 C 32,16.965 32.465,16.5 33.038,16.5 h 2.924 c 0.573,0 1.038,0.465 1.038,1.038 v 2.924 c 0,0.573 -0.465,1.038 -1.038,1.038 z"
             id="path15728" /><path
             style="fill:#bf4d90"
             d="M 46.962,21.5 H 44.038 C 43.465,21.5 43,21.035 43,20.462 V 17.538 C 43,16.965 43.465,16.5 44.038,16.5 h 2.924 c 0.573,0 1.038,0.465 1.038,1.038 v 2.924 c 0,0.573 -0.465,1.038 -1.038,1.038 z"
             id="path15730" /><path
             style="fill:#dd352e"
             d="M 13.962,32.5 H 11.038 C 10.465,32.5 10,32.035 10,31.462 V 28.538 C 10,27.965 10.465,27.5 11.038,27.5 h 2.924 c 0.573,0 1.038,0.465 1.038,1.038 v 2.924 c 0,0.573 -0.465,1.038 -1.038,1.038 z"
             id="path15732" /><path
             style="fill:#a4e869"
             d="M 24.962,32.5 H 22.038 C 21.465,32.5 21,32.035 21,31.462 V 28.538 C 21,27.965 21.465,27.5 22.038,27.5 h 2.924 c 0.573,0 1.038,0.465 1.038,1.038 v 2.924 c 0,0.573 -0.465,1.038 -1.038,1.038 z"
             id="path15734" /><path
             style="fill:#50508a"
             d="M 35.962,32.5 H 33.038 C 32.465,32.5 32,32.035 32,31.462 V 28.538 C 32,27.965 32.465,27.5 33.038,27.5 h 2.924 c 0.573,0 1.038,0.465 1.038,1.038 v 2.924 c 0,0.573 -0.465,1.038 -1.038,1.038 z"
             id="path15736" /><path
             style="fill:#be7c6d"
             d="M 46.962,32.5 H 44.038 C 43.465,32.5 43,32.035 43,31.462 V 28.538 C 43,27.965 43.465,27.5 44.038,27.5 h 2.924 c 0.573,0 1.038,0.465 1.038,1.038 v 2.924 c 0,0.573 -0.465,1.038 -1.038,1.038 z"
             id="path15738" /><polygon
             style="fill:#afb6bb"
             points="30,49.5 30,43.5 28,43.5 28,49.5 15,49.5 15,52.5 43,52.5 43,49.5 "
             id="polygon15740" /></g></g></g></g></clipPath><style
   id="style30742">.cls-1{fill:#ba9bc9;}.cls-2{fill:#8f6c56;}.cls-3{fill:#838bc5;}.cls-4{fill:#fcdd7c;}.cls-5{fill:#65c8d0;}</style>
	
	
	
	
	
	
	
	
<style
   id="style989">.cls-1{fill:#ba9bc9;}.cls-2{fill:#8f6c56;}.cls-3{fill:#838bc5;}.cls-4{fill:#fcdd7c;}.cls-5{fill:#65c8d0;}</style></defs><sodipodi:namedview
   id="namedview1873"
   pagecolor="#ffffff"
   bordercolor="#000000"
   borderopacity="0.25"
   inkscape:showpageshadow="2"
   inkscape:pageopacity="0.79215686"
   inkscape:pagecheckerboard="0"
   inkscape:deskcolor="#d1d1d1"
   showgrid="false"
   inkscape:zoom="0.59"
   inkscape:cx="287.28814"
   inkscape:cy="255.9322"
   inkscape:window-width="1366"
   inkscape:window-height="675"
   inkscape:window-x="0"
   inkscape:window-y="0"
   inkscape:window-maximized="1"
   inkscape:current-layer="g12439" />



<g
   id="g12350"
   transform="translate(2.156201,-2.9135431)" /><g
   id="g12439"
   clip-path="none"
   transform="translate(2.2384625,-1.5851611)"><g
     id="g25505"
     transform="matrix(0.05553589,0,0,0.03660243,88.008586,-20.750924)"><path
       style="fill:#007eef"
       d="M 373.847,367.955 317.559,214.276 c 2.292,-2.245 36.691,-36.628 38.88,-38.817 38.66,-38.676 26.971,-32.65 36.092,-48.813 2.182,-3.033 3.521,-5.797 4.064,-8.247 2.45,-6.105 2.505,-9.941 0.803,-11.65 -1.694,-1.709 -5.53,-1.646 -11.65,0.803 -2.45,0.52 -5.215,1.875 -8.231,4.064 -16.171,9.137 -10.161,-2.568 -48.829,36.092 -2.182,2.182 -36.573,36.588 -38.802,38.88 L 136.208,130.3 c -2.741,-1 -5.797,-0.323 -7.877,1.741 l -11.414,11.398 c -1.52,1.536 -2.308,3.647 -2.15,5.797 0.126,1.827 0.89,3.505 2.166,4.766 0.228,0.228 0.504,0.48 0.772,0.693 l 117.996,89.427 c -34.225,37.691 -67.395,76.524 -85.472,100.447 l -34.477,-8.862 c -1.969,-0.52 -4.049,0.063 -5.474,1.481 l -3.017,3.033 c -1.197,1.197 -1.804,2.859 -1.646,4.537 0.095,1.339 0.709,2.584 1.646,3.537 0.228,0.228 0.488,0.433 0.756,0.63 l 25.726,18.046 c 0.772,0.536 1.646,0.803 2.521,0.906 0.11,0.874 0.37,1.772 0.906,2.521 l 18.046,25.726 c 0.197,0.276 0.417,0.52 0.646,0.772 0.929,0.922 2.166,1.52 3.537,1.646 1.678,0.158 3.34,-0.449 4.537,-1.646 l 3.033,-3.033 c 1.426,-1.418 1.985,-3.489 1.473,-5.459 l -8.838,-34.477 c 23.891,-18.093 62.724,-51.263 100.431,-85.48 l 89.435,118.012 c 0.189,0.26 0.425,0.52 0.67,0.756 1.26,1.26 2.954,2.064 4.758,2.182 2.174,0.142 4.285,-0.646 5.79,-2.182 l 11.429,-11.398 c 2.068,-2.065 2.73,-5.121 1.73,-7.862 z"
       id="path25476" /><path
       style="fill:#0453aa"
       d="M 373.847,367.955 317.559,214.276 c 2.292,-2.245 36.691,-36.628 38.88,-38.817 38.66,-38.676 26.971,-32.65 36.092,-48.813 2.182,-3.033 3.521,-5.797 4.064,-8.247 2.45,-6.105 2.505,-9.941 0.803,-11.65 -1.694,-1.709 -5.53,-1.646 -11.65,0.803 -2.45,0.52 -5.215,1.875 -8.231,4.064 -16.171,9.137 -10.161,-2.568 -48.829,36.092 -2.182,2.182 -36.573,36.588 -38.802,38.88 l -25.403,-9.295 -0.016,97.028 85.008,112.136 c 0.189,0.26 0.425,0.52 0.67,0.756 1.26,1.26 2.954,2.064 4.758,2.182 2.174,0.142 4.285,-0.646 5.79,-2.182 l 11.429,-11.398 c 2.063,-2.063 2.725,-5.119 1.725,-7.86 z"
       id="path25478" /><g
       id="g25484">
	<path
   style="fill:#007eef"
   d="m 41.889,262.372 c -5.679,0 -10.279,-4.6 -10.279,-10.279 0,-121.588 98.911,-220.475 220.459,-220.475 5.679,0 10.279,4.616 10.279,10.295 0,5.679 -4.592,10.256 -10.272,10.256 -110.23,0 -199.908,89.679 -199.908,199.924 10e-4,5.679 -4.599,10.279 -10.279,10.279 z"
   id="path25480" />
	<path
   style="fill:#007eef"
   d="m 252.077,472.552 c -5.679,0 -10.295,-4.616 -10.295,-10.295 0,-5.679 4.616,-10.279 10.295,-10.279 110.222,0 199.901,-89.679 199.901,-199.893 0,-5.679 4.608,-10.295 10.287,-10.295 5.679,0 10.279,4.616 10.279,10.295 -0.007,121.565 -98.91,220.467 -220.467,220.467 z"
   id="path25482" />
</g><g
       id="g25490">
	<path
   style="fill:#0453aa"
   d="m 234.701,87.552 c -3.938,0 -7.869,-1.489 -10.878,-4.506 -6.01,-6.002 -6.01,-15.738 0,-21.74 L 241.341,43.78 223.823,26.27 c -6.01,-6.018 -6.01,-15.738 0,-21.756 6.01,-6.018 15.746,-6.018 21.748,0 l 39.259,39.259 -39.259,39.259 c -3.001,3.031 -6.94,4.52 -10.87,4.52 z"
   id="path25486" />
	<path
   style="fill:#0453aa"
   d="m 269.446,416.618 c 3.938,-0.016 7.877,1.489 10.878,4.49 6.018,6.018 6.018,15.738 0,21.756 l -17.51,17.526 17.51,17.51 c 6.018,6.002 6.002,15.738 0,21.74 -6.002,6.018 -15.73,6.018 -21.74,0 l -39.274,-39.259 39.274,-39.243 c 3.001,-3.031 6.939,-4.52 10.862,-4.52 z"
   id="path25488" />
</g></g><g
     id="Layer_8"
     transform="matrix(0.56143057,0,0,0.3512764,0.8867937,10.115279)">

<polygon
   class="st0"
   points="42,38 50,38 50,34 62,22 62,16 60,16 42,34 "
   id="polygon32263" />

<path
   class="st1"
   d="m 54,31 h -8 v -2 h 7 v -7 c 0,-0.6 0.4,-1 1,-1 h 8 v 2 h -7 v 7 c 0,0.6 -0.4,1 -1,1 z"
   id="path32265" />

<path
   class="st2"
   d="m 60,35 c -1.7,0 -3,-1.3 -3,-3 h 2 c 0,0.6 0.4,1 1,1 0.6,0 1,-0.4 1,-1 0,-0.6 -0.4,-1 -1,-1 -0.6,0 -1,-0.4 -1,-1 v -6 h 2 v 5.2 c 1.6,0.6 2.4,2.3 1.8,3.8 -0.4,1.2 -1.5,2 -2.8,2 z"
   id="path32267" />

<rect
   class="st1"
   height="2"
   width="8"
   x="42"
   y="33"
   id="rect32269" />

<path
   class="st1"
   d="m 50,39 h -8 c -0.6,0 -1,-0.4 -1,-1 v -4 c 0,-0.3 0.1,-0.5 0.3,-0.7 l 18,-18 C 59.5,15.1 59.7,15 60,15 h 2 c 0.6,0 1,0.4 1,1 v 6 c 0,0.3 -0.1,0.5 -0.3,0.7 L 51,34.4 V 38 c 0,0.6 -0.4,1 -1,1 z m -7,-2 h 6 v -3 c 0,-0.3 0.1,-0.5 0.3,-0.7 L 61,21.6 V 17 H 60.4 L 43,34.4 Z"
   id="path32271" />

<rect
   class="st3"
   height="4"
   width="2"
   x="28"
   y="6"
   id="rect32273" />

<polyline
   class="st4"
   points="26,13 26,9 32,9 32,13  "
   id="polyline32275" />

<polygon
   class="st3"
   points="34,12 36,42 22,42 24,12 "
   id="polygon32277" />

<rect
   class="st4"
   height="10.2"
   transform="matrix(0.1961,-0.9806,0.9806,0.1961,5.6618,42.9068)"
   width="2"
   x="28"
   y="12.9"
   id="rect32279" />

<rect
   class="st4"
   height="2"
   width="12"
   x="23"
   y="22"
   id="rect32281" />

<rect
   class="st4"
   height="2"
   width="12"
   x="23"
   y="32"
   id="rect32283" />

<rect
   class="st4"
   height="2"
   transform="matrix(0.9864,-0.1641,0.1641,0.9864,-4.2013,5.138)"
   width="12.2"
   x="22.9"
   y="27"
   id="rect32285" />

<rect
   class="st4"
   height="14.1"
   transform="matrix(0.1414,-0.9899,0.9899,0.1414,-12.7194,61.3352)"
   width="2"
   x="28"
   y="30.9"
   id="rect32287" />

<path
   class="st4"
   d="M 36,43 H 22 c -0.6,0 -1,-0.4 -1,-1 0,0 0,0 0,-0.1 l 2,-30 C 23,11.4 23.5,11 24,11 h 10 c 0.5,0 1,0.4 1,0.9 l 2,30 c 0,0.6 -0.4,1.1 -1,1.1 0,0 0,0 0,0 z M 23.1,41 H 35 L 33.1,13 H 25 Z"
   id="path32289" />

<polyline
   class="st3"
   points="8,6 8,2 14,2 14,6  "
   id="polyline32291" />

<rect
   class="st0"
   height="30"
   width="10"
   x="6"
   y="6"
   id="rect32293" />

<path
   class="st1"
   d="m 15.3,36.7 -10,-10 c -0.4,-0.4 -0.4,-1 0,-1.4 L 14.6,16 5.3,6.7 6.7,5.3 l 10,10 c 0.4,0.4 0.4,1 0,1.4 l -9.3,9.3 9.3,9.3 z"
   id="path32295" />

<path
   class="st1"
   d="M 6.7,36.7 5.3,35.3 14.6,26 5.3,16.7 c -0.4,-0.4 -0.4,-1 0,-1.4 l 10,-10 1.4,1.4 -9.3,9.3 9.3,9.3 c 0.4,0.4 0.4,1 0,1.4 z"
   id="path32297" />

<path
   class="st1"
   d="M 16,37 H 6 C 5.4,37 5,36.6 5,36 V 6 C 5,5.4 5.4,5 6,5 h 10 c 0.6,0 1,0.4 1,1 v 30 c 0,0.6 -0.4,1 -1,1 z M 7,35 h 8 V 7 H 7 Z"
   id="path32299" />

<rect
   class="st5"
   height="6"
   width="14"
   x="4"
   y="36"
   id="rect32301" />

<polyline
   class="st5"
   points="62,42 58,38 40,38 40,42  "
   id="polyline32303" />

<rect
   class="st6"
   height="8"
   width="60"
   x="2"
   y="54"
   id="rect32305" />

<polyline
   class="st7"
   points="16,60.7 16,46 6,46 6,56.9  "
   id="polyline32307" />

<rect
   class="st8"
   height="4"
   width="60"
   x="2"
   y="42"
   id="rect32309" />

<polyline
   class="st8"
   points="48,61 48,46 58,46 58,56.8  "
   id="polyline32311" />

<rect
   class="st5"
   height="4"
   width="10"
   x="6"
   y="46"
   id="rect32313" />

<rect
   class="st5"
   height="4"
   width="10"
   x="48"
   y="46"
   id="rect32315" />

<polyline
   class="st7"
   points="52,59 52,50 48,50 48,61  "
   id="polyline32317" />

<polyline
   class="st8"
   points="12,59 12,50 16,50 16,60.5  "
   id="polyline32319" />

<path
   class="st6"
   d="m 44,12 c -1.1,0 -2,-0.9 -2,-2 0,-1.1 0.9,-2 2,-2 0.2,0 0.4,0 0.6,0.1 C 43.4,6.2 44,3.8 45.9,2.6 47.8,1.4 50.2,2 51.4,3.9 51.8,4.5 52,5.2 52,6 52,6.1 52,6.1 52,6.2 52.3,6.1 52.7,6 53,6 c 1.7,0 3,1.3 3,3 0,1.7 -1.3,3 -3,3 z"
   id="path32321" />

<path
   class="st9"
   d="M 61.6,62 58.5,58.9 C 57.9,58.3 57.2,58 56.4,58 h -0.7 c -0.8,0 -1.6,0.3 -2.1,0.9 l -1.7,1.7 c -0.9,0.9 -2.2,1.5 -3.5,1.5 h -0.7 c -1.3,0 -2.6,-0.5 -3.5,-1.5 L 42.5,58.9 C 41.9,58.3 41.2,58 40.4,58 h -0.7 c -0.8,0 -1.6,0.3 -2.1,0.9 l -1.7,1.7 c -0.9,0.9 -2.2,1.5 -3.5,1.5 h -0.7 c -1.3,0 -2.6,-0.5 -3.5,-1.5 L 26.5,58.9 C 25.9,58.3 25.2,58 24.4,58 h -0.7 c -0.8,0 -1.6,0.3 -2.1,0.9 l -1.7,1.7 c -0.9,0.9 -2.2,1.5 -3.5,1.5 h -0.7 c -1.3,0 -2.6,-0.5 -3.5,-1.5 L 10.5,58.9 C 9.9,58.3 9.1,58 8.3,58 H 7.7 C 6.9,58 6.1,58.3 5.6,58.9 L 2.4,62 H 2 v -2.4 l 2.1,-2.1 c 1,-1 2.2,-1.5 3.6,-1.5 h 0.7 c 1.3,0 2.6,0.5 3.5,1.5 l 1.7,1.7 c 0.6,0.6 1.3,0.9 2.1,0.9 h 0.7 c 0.8,0 1.6,-0.3 2.1,-0.9 l 1.7,-1.7 C 21.1,56.6 22.4,56 23.7,56 h 0.7 c 1.3,0 2.6,0.5 3.5,1.5 l 1.7,1.7 c 0.6,0.6 1.3,0.9 2.1,0.9 h 0.7 c 0.8,0 1.6,-0.3 2.1,-0.9 l 1.7,-1.7 C 37.1,56.6 38.4,56 39.7,56 h 0.7 c 1.3,0 2.6,0.5 3.5,1.5 l 1.7,1.7 c 0.6,0.6 1.3,0.9 2.1,0.9 h 0.7 c 0.8,0 1.6,-0.3 2.1,-0.9 l 1.7,-1.7 C 53.1,56.6 54.4,56 55.7,56 h 0.7 c 1.3,0 2.6,0.5 3.5,1.5 L 62,59.6 V 62 Z"
   id="path32323" />

</g><g
     id="g34607"
     transform="matrix(0.0617006,0,0,0.06594347,83.859466,2.0315966)"><path
       style="fill:#e7e8e3"
       d="m 512,402.282 c 0,16.716 -13.55,30.267 -30.265,30.267 H 30.265 C 13.55,432.549 0,418.996 0,402.282 V 109.717 C 0,93.001 13.55,79.451 30.265,79.451 h 451.469 c 16.716,0 30.265,13.551 30.265,30.266 z"
       id="path34542" /><path
       style="opacity:0.15;fill:#202121;enable-background:new"
       d="M 21.517,402.282 V 109.717 c 0,-16.716 13.552,-30.266 30.267,-30.266 H 30.264 C 13.55,79.451 0,93.003 0,109.717 v 292.565 c 0,16.716 13.55,30.267 30.265,30.267 h 21.52 c -16.715,0 -30.268,-13.553 -30.268,-30.267 z"
       id="path34544" /><g
       id="g34580">
	<rect
   x="44.889"
   y="179.38"
   style="fill:#d92b2b"
   width="88.300003"
   height="17.681999"
   id="rect34574" />
	<rect
   x="44.889"
   y="243.03"
   style="fill:#d92b2b"
   width="88.300003"
   height="17.681"
   id="rect34576" />
	<rect
   x="44.889"
   y="211.2"
   style="fill:#d92b2b"
   width="88.300003"
   height="17.681999"
   id="rect34578" />
</g></g><text
     xml:space="preserve"
     style="font-size:5.18336px;fill:none;stroke:#003f98;stroke-width:0.431946"
     x="95.05275"
     y="20.587694"
     id="text35026-9-62-1"
     transform="scale(0.99663864,1.0033727)"><tspan
       sodipodi:role="line"
       id="tspan35024-3-6-8"
       style="stroke-width:0.431946"
       x="95.05275"
       y="20.587694">Bank</tspan></text><g
     aria-label="Okul"
     transform="scale(0.99663864,1.0033727)"
     id="text35026"
     style="font-size:5.18336px;fill:none;stroke:#003f98;stroke-width:0.431946"><path
       d="m 17.417266,2.1025795 q 0,0.5753529 -0.196968,1.0055718 -0.191784,0.4250356 -0.57017,0.6634701 -0.378385,0.2384346 -0.938188,0.2384346 -0.575353,0 -0.958921,-0.2384346 Q 14.374633,3.5331869 14.188032,3.102968 14.001431,2.6727491 14.001431,2.0973961 q 0,-0.5701696 0.186601,-0.9952051 0.186601,-0.42503555 0.564987,-0.66347012 0.383568,-0.23843456 0.964105,-0.23843456 0.554619,0 0.933004,0.23843456 0.378386,0.23325121 0.57017,0.66347012 0.196968,0.4250355 0.196968,1.0003885 z m -2.923415,0 q 0,0.6997536 0.295451,1.1040557 0.295452,0.3991187 0.922638,0.3991187 0.63237,0 0.922638,-0.3991187 0.290269,-0.4043021 0.290269,-1.1040557 0,-0.6997536 -0.290269,-1.093689 -0.290268,-0.39911874 -0.917454,-0.39911874 -0.627187,0 -0.927822,0.39911874 -0.295451,0.3939354 -0.295451,1.093689 z"
       id="path1131" /><path
       d="m 18.624989,2.0766627 q 0,0.082934 -0.01037,0.2177011 -0.0052,0.1347674 -0.01037,0.2332512 h 0.02073 q 0.0311,-0.041467 0.0933,-0.1192173 0.0622,-0.07775 0.1244,-0.1555008 0.06738,-0.082934 0.114034,-0.1347673 l 0.886355,-0.9381882 h 0.533886 l -1.124789,1.1869894 1.202539,1.5912916 h -0.549436 l -0.964105,-1.29584 -0.316185,0.274718 v 1.021122 H 18.174037 V 0.01886871 h 0.450952 z"
       id="path1133" /><path
       d="m 23.264099,1.1799414 v 2.778281 h -0.373202 l -0.06738,-0.3680186 h -0.02073 q -0.134767,0.2177011 -0.373201,0.3213683 -0.238435,0.098484 -0.50797,0.098484 -0.502786,0 -0.75677,-0.2384346 Q 20.910853,3.5280035 20.910853,2.9993008 V 1.1799414 h 0.461319 v 1.7882592 q 0,0.6634701 0.61682,0.6634701 0.461319,0 0.637553,-0.259168 0.181418,-0.259168 0.181418,-0.7464039 V 1.1799414 Z"
       id="path1135" /><path
       d="M 24.601406,3.9582224 H 24.14527 V 0.01886871 h 0.456136 z"
       id="path1137" /></g><g
     aria-label="Hastane"
     transform="scale(0.99663864,1.0033727)"
     id="text35026-1"
     style="font-size:5.18336px;fill:none;stroke:#003f98;stroke-width:0.431946"><path
       d="M 56.930507,3.2036121 H 56.464005 V 1.4775532 h -1.89711 v 1.7260589 h -0.466502 v -3.70091912 h 0.466502 V 1.0680677 h 1.89711 v -1.56537472 h 0.466502 z"
       id="path1116" /><path
       d="m 58.93128,0.37868083 q 0.50797,0 0.751587,0.22288449 0.243618,0.22288448 0.243618,0.71012038 V 3.2036121 H 59.59475 L 59.506633,2.8096767 H 59.4859 q -0.181418,0.2280679 -0.383569,0.3369184 -0.196968,0.1088506 -0.549436,0.1088506 -0.378385,0 -0.627187,-0.1969677 -0.248801,-0.202151 -0.248801,-0.6271866 0,-0.4146688 0.326552,-0.6375533 0.326551,-0.2280678 1.005572,-0.2488012 l 0.471685,-0.01555 V 1.3635193 q 0,-0.3472852 -0.150317,-0.48205254 -0.150317,-0.13476736 -0.425036,-0.13476736 -0.217701,0 -0.414668,0.0673837 -0.196968,0.0622003 -0.368019,0.14513409 L 57.982725,0.6171154 q 0.181418,-0.0984838 0.430219,-0.16586752 0.248801,-0.072567 0.518336,-0.072567 z m 0.134768,1.48244097 q -0.518336,0.020733 -0.720487,0.1658675 -0.196968,0.1451341 -0.196968,0.4094855 0,0.2332512 0.139951,0.3421018 0.145134,0.1088505 0.368018,0.1088505 0.352469,0 0.58572,-0.1917843 0.233251,-0.1969677 0.233251,-0.6012698 V 1.8455717 Z"
       id="path1118" /><path
       d="m 62.59592,2.4364748 q 0,0.4043021 -0.300635,0.6116365 -0.300634,0.2073344 -0.808604,0.2073344 -0.290268,0 -0.502786,-0.04665 -0.207334,-0.04665 -0.368018,-0.129584 V 2.6645426 q 0.165867,0.082934 0.399119,0.1555008 0.238434,0.067384 0.482052,0.067384 0.347285,0 0.502786,-0.1088505 0.155501,-0.114034 0.155501,-0.3006349 0,-0.1036672 -0.05702,-0.186601 Q 62.041301,2.2084069 61.890983,2.1254732 61.745849,2.0425394 61.471131,1.9388722 61.201597,1.835205 61.009812,1.7315378 60.818028,1.6278706 60.714361,1.4827365 60.610693,1.3376025 60.610693,1.1095346 q 0,-0.35246848 0.285085,-0.5442528 0.290268,-0.19178433 0.756771,-0.19178433 0.253984,0 0.471686,0.0518336 0.222884,0.0466502 0.414668,0.13476736 l -0.1555,0.36283521 Q 62.207168,0.8503666 62.015384,0.798533 61.8236,0.7466994 61.621449,0.7466994 q -0.279902,0 -0.430219,0.0933005 -0.145134,0.0881171 -0.145134,0.24361792 0,0.1140339 0.06738,0.1969677 0.06738,0.07775 0.222885,0.1555008 0.160684,0.072567 0.425035,0.1762342 0.264352,0.098484 0.450953,0.2021511 0.186601,0.1036672 0.285085,0.2539846 0.09848,0.1451341 0.09848,0.3680186 z"
       id="path1120" /><path
       d="m 64.197579,2.8822438 q 0.103667,0 0.212518,-0.01555 0.108851,-0.020733 0.176234,-0.041467 v 0.3472851 q -0.07257,0.036284 -0.207334,0.057017 -0.134768,0.025917 -0.259168,0.025917 -0.217701,0 -0.404302,-0.072567 -0.181418,-0.07775 -0.295452,-0.2643513 -0.114034,-0.186601 -0.114034,-0.5235194 V 0.77779956 H 62.912106 V 0.56009844 l 0.399119,-0.18141761 0.181417,-0.59090305 h 0.269535 v 0.6375533 h 0.803421 V 0.77779956 H 63.762177 V 2.3846412 q 0,0.2539846 0.119217,0.3783853 0.124401,0.1192173 0.316185,0.1192173 z"
       id="path1122" /><path
       d="m 66.193173,0.37868083 q 0.507969,0 0.751587,0.22288449 0.243618,0.22288448 0.243618,0.71012038 v 1.8919264 h -0.331735 l -0.08812,-0.3939354 h -0.02073 q -0.181417,0.2280679 -0.383568,0.3369184 -0.196968,0.1088506 -0.549437,0.1088506 -0.378385,0 -0.627186,-0.1969677 Q 64.9388,2.856327 64.9388,2.4312914 q 0,-0.4146688 0.326551,-0.6375533 0.326552,-0.2280678 1.005572,-0.2488012 l 0.471686,-0.01555 V 1.3635193 q 0,-0.3472852 -0.150317,-0.48205254 -0.150318,-0.13476736 -0.425036,-0.13476736 -0.217701,0 -0.414669,0.0673837 -0.196968,0.0622003 -0.368018,0.14513409 L 65.244618,0.6171154 q 0.181417,-0.0984838 0.430219,-0.16586752 0.248801,-0.072567 0.518336,-0.072567 z M 66.32794,1.8611218 q -0.518336,0.020733 -0.720487,0.1658675 -0.196968,0.1451341 -0.196968,0.4094855 0,0.2332512 0.139951,0.3421018 0.145134,0.1088505 0.368019,0.1088505 0.352468,0 0.585719,-0.1917843 0.233252,-0.1969677 0.233252,-0.6012698 V 1.8455717 Z"
       id="path1124" /><path
       d="m 69.386127,0.37349747 q 0.497602,0 0.751587,0.24361793 0.253985,0.23843456 0.253985,0.777504 V 3.2036121 H 69.940746 V 1.4257196 q 0,-0.66865348 -0.622003,-0.66865348 -0.461319,0 -0.637553,0.25916798 -0.176234,0.259168 -0.176234,0.7464039 V 3.2036121 H 68.04882 V 0.42533108 h 0.368019 l 0.06738,0.37838528 h 0.02592 q 0.134767,-0.21770112 0.373202,-0.32136832 0.238435,-0.10885057 0.502786,-0.10885057 z"
       id="path1126" /><path
       d="m 72.325093,0.37349747 q 0.357652,0 0.611637,0.15550081 0.259168,0.1555008 0.393935,0.44058561 0.139951,0.27990141 0.139951,0.65828671 v 0.2747181 h -1.902293 q 0.01037,0.4716858 0.238434,0.7204871 0.233251,0.2436179 0.64792,0.2436179 0.264352,0 0.466503,-0.04665 0.207334,-0.051834 0.425035,-0.145134 v 0.3991187 q -0.212518,0.0933 -0.419852,0.1347673 -0.207334,0.04665 -0.492419,0.04665 -0.393936,0 -0.699754,-0.1606842 Q 71.433555,2.9340774 71.262504,2.6178924 71.096637,2.2965241 71.096637,1.835205 q 0,-0.4561357 0.150317,-0.7826874 0.155501,-0.32655164 0.430219,-0.50278588 0.279902,-0.17623425 0.64792,-0.17623425 z m -0.0052,0.37320193 q -0.326552,0 -0.518336,0.21251777 -0.186601,0.20733443 -0.222885,0.58053633 h 1.415058 Q 72.988563,1.187285 72.827879,0.96958389 72.667195,0.7466994 72.31991,0.7466994 Z"
       id="path1128" /></g><g
     aria-label="Ulaşım"
     transform="scale(0.99663864,1.0033727)"
     id="text35026-7"
     style="font-size:5.18336px;fill:none;stroke:#003f98;stroke-width:0.431946"><path
       d="m 93.996115,1.8228972 q 0,0.3835686 -0.155501,0.6945702 -0.155501,0.3058183 -0.476869,0.4872359 -0.316185,0.1762342 -0.808604,0.1762342 -0.689387,0 -1.052222,-0.3732019 -0.357652,-0.3783853 -0.357652,-0.9952052 v -2.38434561 h 0.466502 V 1.8280805 q 0,0.4509523 0.238435,0.6997536 0.243618,0.2488013 0.730853,0.2488013 0.502786,0 0.725671,-0.2643514 0.228068,-0.2695347 0.228068,-0.6893868 v -2.39471241 h 0.461319 z"
       id="path1103" /><path
       d="m 95.364526,3.1291039 h -0.456135 v -3.93935368 h 0.456135 z"
       id="path1105" /><path
       d="m 97.297917,0.30417264 q 0.507969,0 0.751587,0.22288449 0.243618,0.22288448 0.243618,0.71012037 V 3.1291039 H 97.961387 L 97.87327,2.7351685 h -0.02073 Q 97.671119,2.9632364 97.468968,3.0720869 97.272,3.1809375 96.919531,3.1809375 q -0.378385,0 -0.627186,-0.1969677 -0.248801,-0.202151 -0.248801,-0.6271866 0,-0.4146688 0.326551,-0.6375532 0.326552,-0.2280679 1.005572,-0.2488013 l 0.471686,-0.01555 V 1.2890111 q 0,-0.34728516 -0.150318,-0.48205253 Q 97.546718,0.67219121 97.272,0.67219121 q -0.217701,0 -0.414669,0.0673837 -0.196968,0.0622003 -0.368018,0.14513409 L 96.349362,0.54260721 q 0.181417,-0.0984838 0.430219,-0.16586752 0.248801,-0.0725671 0.518336,-0.0725671 z m 0.134767,1.48244096 q -0.518336,0.020734 -0.720487,0.1658676 -0.196968,0.145134 -0.196968,0.4094854 0,0.2332512 0.139951,0.3421018 0.145134,0.1088505 0.368019,0.1088505 0.352468,0 0.585719,-0.1917843 Q 97.84217,2.4241669 97.84217,2.0198648 V 1.7710636 Z"
       id="path1107" /><path
       d="m 100.96256,2.3619666 q 0,0.4043021 -0.30064,0.6116365 -0.30063,0.2073344 -0.808602,0.2073344 -0.290269,0 -0.502786,-0.04665 -0.207335,-0.04665 -0.368019,-0.129584 V 2.5900344 q 0.165868,0.082934 0.399119,0.1555009 0.238434,0.067384 0.482052,0.067384 0.347286,0 0.502786,-0.1088505 0.1555,-0.114034 0.1555,-0.3006349 0,-0.1036672 -0.057,-0.186601 -0.057,-0.082934 -0.20733,-0.1658675 Q 100.11249,1.9680312 99.837768,1.864364 99.568233,1.7606968 99.376448,1.6570296 99.184664,1.5533624 99.080997,1.4082283 98.97733,1.2630943 98.97733,1.0350264 q 0,-0.35246847 0.285085,-0.54425279 0.290268,-0.19178433 0.756775,-0.19178433 0.25398,0 0.47168,0.0518336 0.22289,0.0466502 0.41467,0.13476736 l -0.1555,0.36283521 q -0.17624,-0.072567 -0.36802,-0.12440065 -0.19178,-0.0518336 -0.393935,-0.0518336 -0.279901,0 -0.430219,0.0933005 -0.145134,0.0881171 -0.145134,0.24361791 0,0.1140339 0.06738,0.1969677 0.06738,0.07775 0.222884,0.1555008 0.160684,0.072567 0.42504,0.1762342 0.26435,0.098484 0.45095,0.2021511 0.1866,0.1036672 0.28508,0.2539846 0.0985,0.1451341 0.0985,0.3680186 z M 100.4805,3.849591 q 0,0.2488012 -0.19178,0.3835686 -0.19178,0.1399507 -0.575353,0.1399507 -0.165868,0 -0.259168,-0.025917 V 4.0621087 q 0.04665,0.010367 0.1244,0.01555 0.07775,0.010367 0.150318,0.010367 0.186601,0 0.285083,-0.051834 0.0985,-0.04665 0.0985,-0.1762342 0,-0.1347674 -0.139955,-0.1969677 -0.134767,-0.0622 -0.331735,-0.088117 l 0.222884,-0.445769 h 0.300636 l -0.13477,0.2747181 q 0.1866,0.041467 0.31619,0.1451341 0.13476,0.1036672 0.13476,0.3006349 z"
       id="path1109" /><path
       d="m 102.09253,3.1291039 h -0.45614 V 0.35082289 h 0.45614 z"
       id="path1111" /><path
       d="m 106.02151,0.29898928 q 0.47169,0 0.70494,0.24361793 0.23325,0.23843456 0.23325,0.77750399 v 1.8089927 h -0.45095 V 1.3408447 q 0,-0.65828677 -0.56499,-0.65828677 -0.4043,0 -0.58053,0.23325121 -0.17105,0.23325116 -0.17105,0.67902016 v 1.5342746 h -0.45096 V 1.3408447 q 0,-0.65828677 -0.57017,-0.65828677 -0.41985,0 -0.58053,0.25916801 -0.16069,0.25916796 -0.16069,0.74640386 V 3.1291039 H 102.9737 V 0.35082289 h 0.36802 l 0.0674,0.37838528 h 0.0259 q 0.12958,-0.21770112 0.34728,-0.32136832 0.22289,-0.10885057 0.47169,-0.10885057 0.6531,0 0.85007,0.46650241 h 0.0259 q 0.13995,-0.23843456 0.37838,-0.35246848 0.24362,-0.11403393 0.51315,-0.11403393 z"
       id="path1113" /></g><g
     aria-label="Sanayi"
     transform="scale(0.99663864,1.0033727)"
     id="text35026-9"
     style="font-size:5.18336px;fill:none;stroke:#003f98;stroke-width:0.431946"><path
       d="m 10.555029,37.116446 q 0,0.49242 -0.357652,0.767138 -0.3576515,0.274718 -0.9641046,0.274718 -0.3110016,0 -0.575353,-0.04665 -0.2643514,-0.04665 -0.4405856,-0.129584 v -0.445769 q 0.186601,0.08293 0.461319,0.150317 0.2799015,0.06738 0.575353,0.06738 0.4146688,0 0.6220032,-0.160684 0.212518,-0.160685 0.212518,-0.435403 0,-0.181417 -0.07775,-0.305818 Q 9.933026,36.727694 9.7412417,36.624027 9.5546407,36.515177 9.2177223,36.395959 8.7460365,36.224908 8.5024186,35.976107 8.263984,35.727306 8.263984,35.297087 q 0,-0.295451 0.1503175,-0.502786 0.1503174,-0.212518 0.4146688,-0.326552 0.2695347,-0.114034 0.6168198,-0.114034 0.3058183,0 0.5598029,0.05702 0.253985,0.05702 0.461319,0.150318 l -0.145134,0.399119 q -0.191784,-0.08293 -0.4198522,-0.139951 -0.2228845,-0.05702 -0.4665024,-0.05702 -0.3472851,0 -0.5235194,0.150317 -0.1762342,0.145134 -0.1762342,0.388752 0,0.186601 0.07775,0.311002 0.07775,0.124401 0.2539846,0.222884 0.1762343,0.09848 0.4768692,0.212518 0.3265517,0.119218 0.549436,0.259168 0.228068,0.134768 0.342102,0.326552 0.119217,0.191784 0.119217,0.482052 z"
       id="path1090" /><path
       d="m 12.291454,35.281537 q 0.507969,0 0.751587,0.222884 0.243618,0.222885 0.243618,0.710121 v 1.891926 h -0.331735 l -0.08812,-0.393935 h -0.02073 q -0.181417,0.228068 -0.383568,0.336918 -0.196968,0.108851 -0.549437,0.108851 -0.378385,0 -0.627186,-0.196968 -0.248801,-0.202151 -0.248801,-0.627186 0,-0.414669 0.326551,-0.637554 0.326552,-0.228068 1.005572,-0.248801 l 0.471686,-0.01555 v -0.165868 q 0,-0.347285 -0.150318,-0.482052 -0.150317,-0.134767 -0.425035,-0.134767 -0.217701,0 -0.414669,0.06738 -0.196968,0.0622 -0.368018,0.145134 l -0.139951,-0.342101 q 0.181417,-0.09848 0.430219,-0.165868 0.248801,-0.07257 0.518336,-0.07257 z m 0.134767,1.482441 q -0.518336,0.02073 -0.720487,0.165867 -0.196968,0.145135 -0.196968,0.409486 0,0.233251 0.139951,0.342102 0.145134,0.10885 0.368019,0.10885 0.352468,0 0.585719,-0.191784 0.233251,-0.196968 0.233251,-0.60127 v -0.248801 z"
       id="path1092" /><path
       d="m 15.484408,35.276354 q 0.497602,0 0.751587,0.243618 0.253985,0.238434 0.253985,0.777504 v 1.808992 h -0.450953 v -1.777892 q 0,-0.668654 -0.622003,-0.668654 -0.461319,0 -0.637553,0.259168 -0.176234,0.259168 -0.176234,0.746404 v 1.440974 h -0.456136 v -2.778281 h 0.368018 l 0.06738,0.378385 h 0.02592 q 0.134767,-0.217701 0.373202,-0.321368 0.238434,-0.10885 0.502786,-0.10885 z"
       id="path1094" /><path
       d="m 18.40264,35.281537 q 0.507969,0 0.751587,0.222884 0.243618,0.222885 0.243618,0.710121 v 1.891926 H 19.06611 l -0.08812,-0.393935 h -0.02073 q -0.181418,0.228068 -0.383569,0.336918 -0.196968,0.108851 -0.549436,0.108851 -0.378385,0 -0.627187,-0.196968 -0.248801,-0.202151 -0.248801,-0.627186 0,-0.414669 0.326552,-0.637554 0.326551,-0.228068 1.005572,-0.248801 l 0.471685,-0.01555 v -0.165868 q 0,-0.347285 -0.150317,-0.482052 -0.150318,-0.134767 -0.425036,-0.134767 -0.217701,0 -0.414668,0.06738 -0.196968,0.0622 -0.368019,0.145134 l -0.139951,-0.342101 q 0.181418,-0.09848 0.430219,-0.165868 0.248801,-0.07257 0.518336,-0.07257 z m 0.134768,1.482441 q -0.518336,0.02073 -0.720488,0.165867 -0.196967,0.145135 -0.196967,0.409486 0,0.233251 0.139951,0.342102 0.145134,0.10885 0.368018,0.10885 0.352469,0 0.58572,-0.191784 0.233251,-0.196968 0.233251,-0.60127 v -0.248801 z"
       id="path1096" /><path
       d="m 19.822885,35.328187 h 0.487236 l 0.60127,1.580925 q 0.07775,0.207334 0.139951,0.399119 0.0622,0.186601 0.0933,0.357652 h 0.02073 q 0.0311,-0.129584 0.09848,-0.336919 0.06738,-0.212518 0.139951,-0.425035 l 0.564986,-1.575742 h 0.492419 l -1.197356,3.16185 q -0.145134,0.393935 -0.378385,0.627186 -0.228068,0.233252 -0.63237,0.233252 -0.124401,0 -0.217701,-0.01555 -0.0933,-0.01037 -0.160684,-0.02592 v -0.362835 q 0.05702,0.01037 0.134767,0.02073 0.08293,0.01037 0.171051,0.01037 0.238435,0 0.383569,-0.134768 0.150317,-0.134767 0.233251,-0.357652 l 0.145134,-0.368018 z"
       id="path1098" /><path
       d="m 23.135053,34.286332 q 0.103667,0 0.181418,0.07257 0.08293,0.06738 0.08293,0.217701 0,0.145134 -0.08293,0.217701 -0.07775,0.07257 -0.181418,0.07257 -0.114034,0 -0.191784,-0.07257 -0.07775,-0.07257 -0.07775,-0.217701 0,-0.150317 0.07775,-0.217701 0.07775,-0.07257 0.191784,-0.07257 z m 0.222885,1.041855 v 2.778281 h -0.456136 v -2.778281 z"
       id="path1100" /></g><g
     aria-label="Enerji"
     transform="scale(0.99663864,1.0033727)"
     id="text35026-9-6"
     style="font-size:5.18336px;fill:none;stroke:#003f98;stroke-width:0.431946"><path
       d="m 57.516286,38.106522 h -2.068161 v -3.70092 h 2.068161 v 0.409486 h -1.601658 v 1.155889 h 1.508357 v 0.404302 h -1.508357 v 1.321757 h 1.601658 z"
       id="path1077" /><path
       d="m 59.605179,35.276407 q 0.497602,0 0.751587,0.243618 0.253985,0.238434 0.253985,0.777504 v 1.808993 h -0.450953 v -1.777893 q 0,-0.668653 -0.622003,-0.668653 -0.461319,0 -0.637553,0.259168 -0.176234,0.259168 -0.176234,0.746403 v 1.440975 h -0.456136 v -2.778281 h 0.368018 l 0.06738,0.378385 h 0.02592 q 0.134767,-0.217701 0.373202,-0.321368 0.238434,-0.108851 0.502786,-0.108851 z"
       id="path1079" /><path
       d="m 62.544144,35.276407 q 0.357652,0 0.611637,0.155501 0.259168,0.155501 0.393935,0.440585 0.139951,0.279902 0.139951,0.658287 v 0.274718 h -1.902293 q 0.01037,0.471686 0.238434,0.720487 0.233251,0.243618 0.64792,0.243618 0.264351,0 0.466502,-0.04665 0.207335,-0.05183 0.425036,-0.145134 v 0.399119 q -0.212518,0.0933 -0.419852,0.134767 -0.207335,0.04665 -0.492419,0.04665 -0.393936,0 -0.699754,-0.160684 -0.300635,-0.160684 -0.471686,-0.476869 -0.165867,-0.321368 -0.165867,-0.782687 0,-0.456136 0.150317,-0.782688 0.155501,-0.326552 0.430219,-0.502786 0.279902,-0.176234 0.64792,-0.176234 z m -0.0052,0.373202 q -0.326552,0 -0.518336,0.212518 -0.186601,0.207334 -0.222885,0.580536 h 1.415058 q -0.0052,-0.352468 -0.165868,-0.57017 -0.160684,-0.222884 -0.507969,-0.222884 z"
       id="path1081" /><path
       d="m 65.690439,35.276407 q 0.07775,0 0.165868,0.01037 0.0933,0.0052 0.160684,0.02073 l -0.05702,0.419852 q -0.06738,-0.01555 -0.150317,-0.02592 -0.07775,-0.01037 -0.150318,-0.01037 -0.212517,0 -0.399118,0.119217 -0.186601,0.114034 -0.300635,0.326552 -0.108851,0.207334 -0.108851,0.487236 v 1.482441 h -0.456136 v -2.778281 h 0.373202 l 0.05183,0.507969 h 0.02073 q 0.134768,-0.228068 0.347286,-0.393935 0.212517,-0.165868 0.502785,-0.165868 z"
       id="path1083" /><path
       d="m 66.499044,34.576653 q 0,-0.150317 0.07775,-0.217701 0.07775,-0.07257 0.191785,-0.07257 0.103667,0 0.181417,0.07257 0.08293,0.06738 0.08293,0.217701 0,0.145134 -0.08293,0.217702 -0.07775,0.07257 -0.181417,0.07257 -0.114034,0 -0.191785,-0.07257 -0.07775,-0.07257 -0.07775,-0.217702 z m -0.290268,4.773875 q -0.129584,0 -0.228068,-0.02073 -0.09848,-0.01555 -0.171051,-0.04147 v -0.368019 q 0.07775,0.02073 0.160684,0.03628 0.08293,0.01555 0.181418,0.01555 0.165867,0 0.274718,-0.0933 0.10885,-0.08812 0.10885,-0.342102 v -3.208499 h 0.456136 v 3.192949 q 0,0.388752 -0.186601,0.606454 -0.186601,0.222884 -0.596086,0.222884 z"
       id="path1085" /><path
       d="m 68.105883,34.286385 q 0.103667,0 0.181417,0.07257 0.08293,0.06738 0.08293,0.217701 0,0.145134 -0.08293,0.217702 -0.07775,0.07257 -0.181417,0.07257 -0.114034,0 -0.191785,-0.07257 -0.07775,-0.07257 -0.07775,-0.217702 0,-0.150317 0.07775,-0.217701 0.07775,-0.07257 0.191785,-0.07257 z m 0.222884,1.041856 v 2.778281 h -0.456135 v -2.778281 z"
       id="path1087" /></g><g
     aria-label="Bankacılık"
     transform="scale(0.99663864,1.0033727)"
     id="text35026-9-62"
     style="font-size:5.18336px;fill:none;stroke:#003f98;stroke-width:0.431946"><path
       d="m 90.115642,34.222302 q 0.69457,0 1.047039,0.207335 0.357651,0.202151 0.357651,0.71012 0,0.326552 -0.181417,0.544253 -0.181418,0.212518 -0.52352,0.274718 v 0.02592 q 0.233252,0.03628 0.419853,0.134767 0.191784,0.09848 0.300634,0.279902 0.108851,0.181417 0.108851,0.471685 0,0.502786 -0.347285,0.777505 -0.342102,0.274718 -0.938188,0.274718 h -1.301024 v -3.70092 z m 0.0933,1.575742 q 0.476869,0 0.653104,-0.150317 0.176234,-0.155501 0.176234,-0.456136 0,-0.305818 -0.217701,-0.435402 -0.212518,-0.134768 -0.684204,-0.134768 h -0.611636 v 1.176623 z m -0.684203,0.388752 v 1.34249 h 0.746404 q 0.492419,0 0.684203,-0.191784 0.191784,-0.191784 0.191784,-0.502786 0,-0.290268 -0.202151,-0.466502 -0.196967,-0.181418 -0.71012,-0.181418 z"
       id="path1056" /><path
       d="m 93.41744,35.09829 q 0.50797,0 0.751587,0.222885 0.243618,0.222884 0.243618,0.71012 v 1.891927 H 94.08091 l -0.08812,-0.393936 h -0.02073 q -0.181418,0.228068 -0.383569,0.336919 -0.196968,0.10885 -0.549436,0.10885 -0.378385,0 -0.627187,-0.196967 -0.248801,-0.202152 -0.248801,-0.627187 0,-0.414669 0.326552,-0.637553 0.326551,-0.228068 1.005572,-0.248802 l 0.471685,-0.01555 v -0.165867 q 0,-0.347285 -0.150317,-0.482053 -0.150317,-0.134767 -0.425036,-0.134767 -0.217701,0 -0.414668,0.06738 -0.196968,0.0622 -0.368019,0.145134 l -0.139951,-0.342102 q 0.181418,-0.09848 0.430219,-0.165868 0.248802,-0.07257 0.518336,-0.07257 z m 0.134768,1.482441 q -0.518336,0.02073 -0.720487,0.165868 -0.196968,0.145134 -0.196968,0.409485 0,0.233251 0.139951,0.342102 0.145134,0.108851 0.368018,0.108851 0.352469,0 0.58572,-0.191785 0.233251,-0.196967 0.233251,-0.601269 v -0.248802 z"
       id="path1058" /><path
       d="m 96.610394,35.093107 q 0.497603,0 0.751588,0.243618 0.253984,0.238434 0.253984,0.777504 v 1.808993 h -0.450952 v -1.777893 q 0,-0.668653 -0.622003,-0.668653 -0.461319,0 -0.637554,0.259168 -0.176234,0.259168 -0.176234,0.746403 v 1.440975 h -0.456136 v -2.778281 h 0.368019 l 0.06738,0.378385 h 0.02592 q 0.134767,-0.217701 0.373201,-0.321368 0.238435,-0.108851 0.502786,-0.108851 z"
       id="path1060" /><path
       d="m 98.927356,36.041662 q 0,0.08293 -0.01037,0.217701 -0.0052,0.134767 -0.01037,0.233251 h 0.02073 q 0.0311,-0.04147 0.0933,-0.119217 0.0622,-0.07775 0.1244,-0.155501 0.06738,-0.08293 0.114034,-0.134767 l 0.886359,-0.938188 h 0.53388 l -1.124787,1.186989 1.202537,1.591292 h -0.54943 l -0.964109,-1.29584 -0.316185,0.274718 v 1.021122 h -0.450952 v -3.939354 h 0.450952 z"
       id="path1062" /><path
       d="m 102.29654,35.09829 q 0.50797,0 0.75159,0.222885 0.24362,0.222884 0.24362,0.71012 v 1.891927 h -0.33174 l -0.0881,-0.393936 h -0.0207 q -0.18142,0.228068 -0.38357,0.336919 -0.19696,0.10885 -0.54943,0.10885 -0.37839,0 -0.62719,-0.196967 -0.2488,-0.202152 -0.2488,-0.627187 0,-0.414669 0.32655,-0.637553 0.32655,-0.228068 1.00557,-0.248802 l 0.47169,-0.01555 v -0.165867 q 0,-0.347285 -0.15032,-0.482053 -0.15032,-0.134767 -0.42503,-0.134767 -0.21771,0 -0.41467,0.06738 -0.19697,0.0622 -0.36802,0.145134 l -0.13995,-0.342102 q 0.18142,-0.09848 0.43022,-0.165868 0.2488,-0.07257 0.51833,-0.07257 z m 0.13477,1.482441 q -0.51834,0.02073 -0.72049,0.165868 -0.19696,0.145134 -0.19696,0.409485 0,0.233251 0.13995,0.342102 0.14513,0.108851 0.36801,0.108851 0.35247,0 0.58572,-0.191785 0.23326,-0.196967 0.23326,-0.601269 v -0.248802 z"
       id="path1064" /><path
       d="m 105.26661,37.975055 q -0.36802,0 -0.65828,-0.150317 -0.28509,-0.150318 -0.45096,-0.466503 -0.16068,-0.316185 -0.16068,-0.808604 0,-0.513152 0.17105,-0.834521 0.17105,-0.321368 0.46132,-0.471686 0.29545,-0.150317 0.66865,-0.150317 0.21252,0 0.40949,0.04665 0.19697,0.04147 0.32137,0.103667 l -0.13995,0.378386 q -0.12441,-0.04665 -0.29027,-0.08812 -0.16587,-0.04147 -0.311,-0.04147 -0.81898,0 -0.81898,1.052222 0,0.502786 0.19697,0.77232 0.20215,0.264352 0.59609,0.264352 0.22807,0 0.39912,-0.04665 0.17623,-0.04665 0.32137,-0.114034 v 0.404302 q -0.13995,0.07257 -0.31101,0.10885 -0.16586,0.04147 -0.4043,0.04147 z"
       id="path1066" /><path
       d="m 107.09634,37.923222 h -0.45614 v -2.778281 h 0.45614 z"
       id="path1068" /><path
       d="m 108.43364,37.923222 h -0.45614 v -3.939354 h 0.45614 z"
       id="path1070" /><path
       d="m 109.77094,37.923222 h -0.45613 v -2.778281 h 0.45613 z"
       id="path1072" /><path
       d="m 111.10306,36.041662 q 0,0.08293 -0.0104,0.217701 -0.005,0.134767 -0.0104,0.233251 h 0.0207 q 0.0311,-0.04147 0.0933,-0.119217 0.0622,-0.07775 0.1244,-0.155501 0.0674,-0.08293 0.11403,-0.134767 l 0.88635,-0.938188 h 0.53389 l -1.12479,1.186989 1.20254,1.591292 h -0.54944 l -0.9641,-1.29584 -0.31619,0.274718 v 1.021122 h -0.45095 v -3.939354 h 0.45095 z"
       id="path1074" /></g><g
     id="g456"
     transform="matrix(0.08434177,0,0,0.05004167,0.69303906,-25.353016)"><rect
       x="256"
       y="24"
       style="fill:#ffc600"
       width="64"
       height="40"
       id="rect361" /><polygon
       style="fill:#cc9966"
       points="192,384 304,384 304,400 272,400 272,416 304,416 304,464 192,464 192,416 256,416 256,400 192,400 "
       id="polygon363" /><path
       style="fill:#42210b"
       d="m 496,328 v 152 c 0,4 -4,8 -8,8 H 344 152 8 c -4,0 -8,-4 -8,-8 v -152 0 c 0,-0.8 0,-1.6 0,-2.4 l 32,-88 c 1.6,-3.2 4.8,-5.6 8,-5.6 H 148.8 L 240,132.8 V 16 c 0,-4 4,-8 8,-8 h 80 c 4,0 8,4 8,8 v 56 c 0,4.8 -4,8 -8,8 h -72 v 52.8 L 347.2,232 H 456 c 3.2,0 6.4,2.4 7.2,5.6 l 32,88 c 0.8,0.8 0.8,1.6 0.8,2.4 z M 480,472 V 336 H 352 V 472 Z M 476.8,320 450.4,248 H 352 v 72 z M 336,472 V 328 248 H 160 v 80 144 h 16 v -96 c 0,-4 4,-8 8,-8 h 128 c 4,0 8,4 8,8 v 96 z M 325.6,232 248,148 170.4,232 Z M 320,64 V 24 h -64 v 40 z m -16,400 v -48 h -32 v -16 h 32 V 384 H 192 v 16 h 64 v 16 h -64 v 48 z m -160,8 V 336 H 16 v 136 z m 0,-152 V 248 H 45.6 l -26.4,72 z"
       id="path365" /><path
       style="fill:#fff8ef"
       d="M 480,336 V 472 H 352 V 336 Z m -16,88 v -64 c 0,-4 -4,-8 -8,-8 h -80 c -4,0 -8,4 -8,8 v 64 c 0,4 4,8 8,8 h 80 c 4,0 8,-4 8,-8 z"
       id="path367" /><polygon
       style="fill:#ee5656"
       points="352,248 450.4,248 476.8,320 352,320 "
       id="polygon369" /><path
       style="fill:#42210b"
       d="m 464,360 v 64 c 0,4 -4,8 -8,8 h -80 c -4,0 -8,-4 -8,-8 v -64 c 0,-4 4,-8 8,-8 h 80 c 4,0 8,4 8,8 z m -16,56 v -48 h -64 v 48 z"
       id="path371" /><rect
       x="384"
       y="368"
       style="fill:#2fb4c2"
       width="64"
       height="48"
       id="rect373" /><path
       style="fill:#fff8ef"
       d="m 336,328 v 144 h -16 v -96 c 0,-4 -4,-8 -8,-8 H 184 c -4,0 -8,4 -8,8 v 96 H 160 V 328 248 h 176 z m -48,-24 c 0,-22.4 -17.6,-40 -40,-40 -22.4,0 -40,17.6 -40,40 0,22.4 17.6,40 40,40 22.4,0 40,-17.6 40,-40 z"
       id="path375" /><polygon
       style="fill:#ee5656"
       points="325.6,232 170.4,232 248,148 "
       id="polygon377" /><path
       style="fill:#42210b"
       d="m 248,264 c 22.4,0 40,17.6 40,40 0,22.4 -17.6,40 -40,40 -22.4,0 -40,-17.6 -40,-40 0,-22.4 17.6,-40 40,-40 z m 24,40 c 0,-13.6 -10.4,-24 -24,-24 -12.8,0 -24,10.4 -24,24 0,13.6 11.2,24 24,24 13.6,0 24,-10.4 24,-24 z"
       id="path379" /><circle
       style="fill:#1d9aae"
       cx="248"
       cy="304"
       r="24"
       id="circle381" /><path
       style="fill:#2fb4c2"
       d="m 232,312 c 0,4.8 1.6,8.8 3.2,12.8 4,2.4 8,3.2 12.8,3.2 13.6,0 24,-11.2 24,-24 0,-4.8 -1.6,-8.8 -3.2,-12.8 -4,-2.4 -8,-3.2 -12.8,-3.2 -13.6,0 -24,10.4 -24,24 z"
       id="path383" /><path
       style="fill:#fff8ef"
       d="M 144,336 V 472 H 16 V 336 Z m -16,88 v -64 c 0,-4 -4,-8 -8,-8 H 40 c -4.8,0 -8,4 -8,8 v 64 c 0,4 3.2,8 8,8 h 80 c 4,0 8,-4 8,-8 z"
       id="path385" /><polygon
       style="fill:#ee5656"
       points="45.6,248 144,248 144,320 19.2,320 "
       id="polygon387" /><path
       style="fill:#42210b"
       d="m 128,360 v 64 c 0,4 -4,8 -8,8 H 40 c -4.8,0 -8,-4 -8,-8 v -64 c 0,-4 3.2,-8 8,-8 h 80 c 4,0 8,4 8,8 z m -16,56 V 368 H 48 v 48 z"
       id="path389" /><rect
       x="48"
       y="368"
       style="fill:#2fb4c2"
       width="64"
       height="48"
       id="rect391" /><g
       id="g399">
	<path
   style="fill:#e94545"
   d="M 19.2,320 H 32 l 17.6,-41.6 c 4,-8.8 12,-15.2 21.6,-16 L 144,256 v -8 H 45.6 Z"
   id="path393" />
	<path
   style="fill:#e94545"
   d="M 476.8,320 H 464 l -17.6,-41.6 c -4,-8.8 -12,-15.2 -21.6,-16 L 352,256 v -8 h 98.4 z"
   id="path395" />
	<path
   style="fill:#e94545"
   d="m 176.8,224.8 56,-44.8 c 8.8,-7.2 21.6,-7.2 30.4,0 l 56,44.8 L 248,148 Z"
   id="path397" />
</g><g
       id="g407">
	<path
   style="fill:#d9cdc1"
   d="m 144,336 -104,7.2 c -9.6,0.8 -17.6,8 -19.2,16.8 L 16,392 v -56 z"
   id="path401" />
	<path
   style="fill:#d9cdc1"
   d="m 352,336 104,7.2 c 9.6,0.8 17.6,8 19.2,16.8 l 5.6,32 v -56 z"
   id="path403" />
	<path
   style="fill:#d9cdc1"
   d="m 160,264 c 0,0 72,-24 176,0 V 248 H 160 Z"
   id="path405" />
</g><g
       id="g413">
	<path
   style="fill:#b37d4d"
   d="M 242.4,388.8 304,384 H 192 v 16 h 22.4 c 8,-6.4 17.6,-10.4 28,-11.2 z"
   id="path409" />
	<path
   style="fill:#b37d4d"
   d="M 200.8,416 H 192 v 48 l 3.2,-29.6 c 0.8,-6.4 3.2,-12.8 5.6,-18.4 z"
   id="path411" />
</g><g
       id="g419">
	<path
   style="fill:#1d9aae"
   d="m 48,416 c 0,0 16,-32 64,-48 H 48 Z"
   id="path415" />
	<path
   style="fill:#1d9aae"
   d="m 448,416 c 0,0 -16,-32 -64,-48 h 64 z"
   id="path417" />
</g></g><g
     id="g847"
     transform="matrix(0.08762584,0,0,0.04930958,45.153646,-24.44034)"><path
       style="fill:#ffffff"
       d="M 373.333,458.667 H 96 V 96 c 0,-11.787 9.547,-21.333 21.333,-21.333 H 352 c 11.787,0 21.333,9.547 21.333,21.333 z"
       id="path746" /><g
       id="g752">
	<rect
   x="234.66701"
   y="320"
   style="fill:#3aadd9"
   width="85.333"
   height="138.66701"
   id="rect748" />
	<rect
   x="149.33299"
   y="320"
   style="fill:#3aadd9"
   width="85.333"
   height="138.66701"
   id="rect750" />
</g><path
       style="fill:#ffffff"
       d="M 10.667,458.667 H 96 v -320 H 32 c -11.787,0 -21.333,9.547 -21.333,21.333 z"
       id="path754" /><g
       id="g762">
	<rect
   x="138.66701"
   y="202.66701"
   style="fill:#b0def0"
   width="64"
   height="74.667"
   id="rect756" />
	<rect
   x="202.66701"
   y="202.66701"
   style="fill:#b0def0"
   width="64"
   height="74.667"
   id="rect758" />
	<rect
   x="266.66699"
   y="202.66701"
   style="fill:#b0def0"
   width="64"
   height="74.667"
   id="rect760" />
</g><rect
       x="10.667"
       y="394.66699"
       style="fill:#3aadd9"
       width="85.333"
       height="64"
       id="rect764" /><path
       style="fill:#ffffff"
       d="m 373.333,458.667 h 85.333 V 160 c 0,-11.787 -9.547,-21.333 -21.333,-21.333 h -64 z"
       id="path766" /><path
       d="M 320,309.333 H 149.333 c -5.899,0 -10.667,4.779 -10.667,10.667 v 138.667 c 0,5.888 4.768,10.667 10.667,10.667 H 320 c 5.899,0 10.667,-4.779 10.667,-10.667 V 320 c 0,-5.888 -4.768,-10.667 -10.667,-10.667 z m -160,21.334 h 64 V 448 H 160 Z M 309.333,448 h -64 V 330.667 h 64 z"
       id="path768" /><path
       d="m 330.667,192 h -192 C 132.768,192 128,196.779 128,202.667 v 74.667 c 0,5.888 4.768,10.667 10.667,10.667 h 192 c 5.899,0 10.667,-4.779 10.667,-10.667 V 202.667 C 341.333,196.779 336.565,192 330.667,192 Z M 149.333,213.333 H 192 v 53.333 h -42.667 z m 64,0 H 256 v 53.333 H 213.333 Z M 320,266.667 H 277.333 V 213.334 H 320 Z"
       id="path770" /><circle
       cx="53.333"
       cy="181.33299"
       r="10.667"
       id="circle772" /><circle
       cx="53.333"
       cy="224"
       r="10.667"
       id="circle774" /><circle
       cx="53.333"
       cy="266.66699"
       r="10.667"
       id="circle776" /><circle
       cx="53.333"
       cy="309.33301"
       r="10.667"
       id="circle778" /><circle
       cx="53.333"
       cy="352"
       r="10.667"
       id="circle780" /><circle
       cx="416"
       cy="181.33299"
       r="10.667"
       id="circle782" /><circle
       cx="416"
       cy="224"
       r="10.667"
       id="circle784" /><circle
       cx="416"
       cy="266.66699"
       r="10.667"
       id="circle786" /><circle
       cx="416"
       cy="309.33301"
       r="10.667"
       id="circle788" /><circle
       cx="416"
       cy="352"
       r="10.667"
       id="circle790" /><rect
       x="373.33301"
       y="394.66699"
       style="fill:#3aadd9"
       width="85.333"
       height="64"
       id="rect792" /><path
       d="M 437.333,128 H 384 V 96 C 384,78.357 369.643,64 352,64 H 117.333 c -17.643,0 -32,14.357 -32,32 v 32 H 32 C 14.357,128 0,142.357 0,160 v 298.667 c 0,5.888 4.768,10.667 10.667,10.667 h 448 c 5.899,0 10.667,-4.779 10.667,-10.667 V 160 c -10e-4,-17.643 -14.358,-32 -32.001,-32 z m -416,32 c 0,-5.877 4.779,-10.667 10.667,-10.667 H 85.333 V 384 h -64 z m 0,245.333 h 64 V 448 h -64 z m 85.334,-10.666 v -256 V 96 c 0,-5.877 4.779,-10.667 10.667,-10.667 H 352 c 5.888,0 10.667,4.789 10.667,10.667 v 42.667 256 V 448 h -256 z M 448,448 h -64 v -42.667 h 64 z m 0,-64 H 384 V 149.333 h 53.333 c 5.888,0 10.667,4.789 10.667,10.667 z"
       id="path794" /><g
       id="g800">
	<circle
   style="fill:#ffffff"
   cx="234.66701"
   cy="85.333"
   r="74.667"
   id="circle796" />
	<circle
   style="fill:#ffffff"
   cx="234.66701"
   cy="85.333"
   r="74.667"
   id="circle798" />
</g><path
       d="m 234.667,170.667 c -47.051,0 -85.333,-38.283 -85.333,-85.333 C 149.334,38.284 187.616,0 234.667,0 281.718,0 320,38.283 320,85.333 c 0,47.05 -38.283,85.334 -85.333,85.334 z m 0,-149.334 c -35.296,0 -64,28.704 -64,64 0,35.296 28.704,64 64,64 35.296,0 64,-28.704 64,-64 0,-35.296 -28.704,-64 -64,-64 z"
       id="path802" /><path
       d="m 213.333,117.333 c -5.899,0 -10.667,-4.779 -10.667,-10.667 V 64 c 0,-5.888 4.768,-10.667 10.667,-10.667 5.899,0 10.667,4.779 10.667,10.667 v 42.667 c 0,5.888 -4.768,10.666 -10.667,10.666 z"
       id="path804" /><path
       d="m 256,117.333 c -5.899,0 -10.667,-4.779 -10.667,-10.667 V 64 c 0,-5.888 4.768,-10.667 10.667,-10.667 5.899,0 10.667,4.779 10.667,10.667 v 42.667 c 0,5.888 -4.768,10.666 -10.667,10.666 z"
       id="path806" /><path
       d="m 256,96 h -42.667 c -5.899,0 -10.667,-4.779 -10.667,-10.667 0,-5.888 4.768,-10.667 10.667,-10.667 H 256 c 5.899,0 10.667,4.779 10.667,10.667 C 266.667,91.221 261.899,96 256,96 Z"
       id="path808" /></g><g
     id="g1054"
     transform="matrix(0.63181873,0,0,0.40650542,41.020866,7.2354049)"><rect
       class="cls-1"
       height="14"
       width="34"
       x="15"
       y="48"
       id="rect993" /><path
       class="cls-2"
       d="M 21.46,33 H 23 V 31 H 21 L 19.84,26 H 21 V 24 H 19.36 L 18,18 h 12 l -4,-4 h -9 v -0.23 a 1,1 0 0 0 -1.94,0 L 15,14 H 6 l -4,4 h 12 l -1.4,6 H 11 v 2 h 1.17 L 11,31 H 9 v 2 h 1.54 L 8.21,43 H 7 v 2 h 4 v -2 h -0.74 l 0.5,-2.15 5.24,-4.28 5.24,4.28 0.5,2.15 H 21 v 2 h 4 v -2 h -1.21 z m -2.52,-2 h -5.11 l 4.22,-3.8 z M 17.31,24 H 14.69 L 16,18.4 Z m -3.08,2 h 2.16 l -2.74,2.47 z m -2.72,11.66 0.93,-4 2,1.62 z M 16,34 14.8,33 h 2.4 z m 1.58,1.29 2,-1.62 0.93,4 z"
       id="path995" /><polygon
       class="cls-3"
       points="23,24 23,26 25,26 25,28 27,28 27,26 29,26 29,24 27,24 27,23 29,23 29,21 27,21 27,18 25,18 25,21 23,21 23,23 25,23 25,24 "
       id="polygon997" /><polygon
       class="cls-3"
       points="5,18 5,21 3,21 3,23 5,23 5,24 3,24 3,26 5,26 5,28 7,28 7,26 9,26 9,24 7,24 7,23 9,23 9,21 7,21 7,18 "
       id="polygon999" /><path
       class="cls-2"
       d="M 53.46,33 H 55 V 31 H 53 L 51.84,26 H 53 V 24 H 51.36 L 50,18 h 12 l -4,-4 h -9 v -0.23 a 1,1 0 0 0 -1.94,0 L 47,14 h -9 l -4,4 h 12 l -1.4,6 H 43 v 2 h 1.17 L 43,31 h -2 v 2 h 1.54 L 40.21,43 H 39 v 2 h 4 v -2 h -0.74 l 0.5,-2.15 5.24,-4.28 5.24,4.28 0.5,2.15 H 53 v 2 h 4 v -2 h -1.21 z m -2.52,-2 h -5.11 l 4.22,-3.8 z M 49.31,24 H 46.69 L 48,18.4 Z m -3.08,2 h 2.16 l -2.74,2.47 z m -2.72,11.66 0.93,-4 2,1.62 z M 48,34 46.8,33 h 2.4 z m 1.58,1.29 2,-1.62 0.93,4 z"
       id="path1001" /><polygon
       class="cls-3"
       points="55,24 55,26 57,26 57,28 59,28 59,26 61,26 61,24 59,24 59,23 61,23 61,21 59,21 59,18 57,18 57,21 55,21 55,23 57,23 57,24 "
       id="polygon1003" /><polygon
       class="cls-3"
       points="37,18 37,21 35,21 35,23 37,23 37,24 35,24 35,26 37,26 37,28 39,28 39,26 41,26 41,24 39,24 39,23 41,23 41,21 39,21 39,18 "
       id="polygon1005" /><path
       class="cls-4"
       d="M 16.89,10.45 15.11,9.55 16.38,7 H 14 A 1,1 0 0 1 13.11,5.55 l 2,-4 1.78,0.9 L 15.62,5 H 18 a 1,1 0 0 1 0.89,1.45 z"
       id="path1007" /><path
       class="cls-4"
       d="M 48.89,10.45 47.11,9.55 48.38,7 H 46 A 1,1 0 0 1 45.11,5.55 l 2,-4 1.78,0.9 L 47.62,5 H 50 a 1,1 0 0 1 0.89,1.45 z"
       id="path1009" /><polyline
       class="cls-3"
       points="39 62 39 52 32 42 25 52 25 62"
       id="polyline1011" /><polyline
       class="cls-5"
       points="30 62 30 58 34 58 34 62"
       id="polyline1013" /><rect
       class="cls-2"
       height="2"
       width="40"
       x="12"
       y="61"
       id="rect1015" /><rect
       class="cls-4"
       height="2"
       width="2"
       x="28"
       y="53"
       id="rect1017" /><rect
       class="cls-4"
       height="2"
       width="2"
       x="31"
       y="49"
       id="rect1019" /><rect
       class="cls-4"
       height="2"
       width="2"
       x="34"
       y="53"
       id="rect1021" /><rect
       class="cls-4"
       height="2"
       width="2"
       x="44"
       y="51"
       id="rect1023" /><rect
       class="cls-4"
       height="2"
       width="2"
       x="44"
       y="55"
       id="rect1025" /><rect
       class="cls-4"
       height="2"
       width="2"
       x="18"
       y="51"
       id="rect1027" /><rect
       class="cls-4"
       height="2"
       width="2"
       x="18"
       y="55"
       id="rect1029" /></g></g><style
   type="text/css"
   id="style32261">
	.st0{fill:#BF7D2C;}
	.st1{fill:#C9942C;}
	.st2{fill:#656A73;}
	.st3{fill:#7D828C;}
	.st4{fill:#5C6373;}
	.st5{fill:#4F4228;}
	.st6{fill:#91AAB4;}
	.st7{fill:#A88C55;}
	.st8{fill:#6B5936;}
	.st9{fill:#3E606F;}
</style><style
   type="text/css"
   id="style886">
	.st0{fill:#BF7D2C;}
	.st1{fill:#C9942C;}
	.st2{fill:#656A73;}
	.st3{fill:#7D828C;}
	.st4{fill:#5C6373;}
	.st5{fill:#4F4228;}
	.st6{fill:#91AAB4;}
	.st7{fill:#A88C55;}
	.st8{fill:#6B5936;}
	.st9{fill:#3E606F;}
</style></svg>
