<?xml version="1.0" encoding="iso-8859-1"?>
<!-- Uploaded to: SVG Repo, www.svgrepo.com, Generator: SVG Repo Mixer Tools -->
<svg height="800px" width="800px" version="1.1" id="Layer_1" xmlns="http://www.w3.org/2000/svg" xmlns:xlink="http://www.w3.org/1999/xlink" 
	 viewBox="0 0 512 512" xml:space="preserve">
<g>
	<path style="fill:#85BF4F;" d="M255.999,361.301c0,98.805,85.455,139.929,99.327,139.929c13.877,0,99.331-41.124,99.331-139.929
		v-52.664c-33.303-9.124-68.144-23.717-99.331-42.128c-31.289,18.473-64.013,32.453-99.327,42.128V361.301z"/>
	<path style="fill:#A7E2DE;" d="M255.999,308.636c35.313-9.675,68.038-23.655,99.327-42.128
		c25.866,15.269,54.243,27.911,82.175,36.988l1.225-2.601c12.719-26.498,19.858-56.185,19.858-87.544
		C458.583,101.47,367.882,10.77,255.999,10.77S53.417,101.47,53.417,213.351c0,110.337,88.211,200.073,197.961,202.53l4.623,0.053
		c2.589,0,7.059-0.361,9.625-0.456c-5.949-15.678-9.625-33.687-9.625-54.178v-52.665H255.999z"/>
</g>
<g>
	<path style="fill:#000003;" d="M457.503,298.249c-1.696-0.465-3.399-0.954-5.103-1.449c11.253-26.373,16.952-54.387,16.952-83.45
		C469.353,95.708,373.643,0,255.999,0S42.647,95.708,42.647,213.351s95.709,213.353,213.353,213.353c0.837,0,1.707-0.01,2.597-0.023
		c9.458,21.459,22.505,37.746,34.327,49.329C317.982,500.562,344.975,512,355.329,512s37.347-11.439,62.405-35.989
		c21.757-21.318,47.693-58.525,47.693-114.708v-52.666C465.427,303.784,462.183,299.531,457.503,298.249z M385.552,270.618
		c23.931-5.684,44.382-13.146,59.093-22.337c-2.641,14.387-6.936,28.382-12.863,41.889
		C416.134,284.648,400.507,278.036,385.552,270.618z M169.477,213.351c0-14.909,0.786-29.55,2.314-43.717
		c22.814-3.156,47.651-5.001,73.437-5.402v98.237c-25.672-0.401-50.402-2.23-73.131-5.361
		C170.258,240.58,169.477,225.275,169.477,213.351z M150.03,253.545c-12.259-2.295-23.733-5.007-34.22-8.112
		c-38.103-11.281-51.623-24.333-51.623-32.082c0-7.749,13.52-20.801,51.623-32.081c10.415-3.083,21.804-5.779,33.967-8.064
		c-1.204,12.971-1.84,26.383-1.84,40.144C147.937,224.845,148.571,238.671,150.03,253.545z M266.77,164.238
		c25.175,0.415,50.226,2.271,73.442,5.444c1.525,14.153,2.31,28.777,2.31,43.668c0,14.782-0.798,29.436-2.351,43.721
		c-22.803,3.153-47.63,4.995-73.401,5.398L266.77,164.238L266.77,164.238z M266.77,142.697V23.184
		c17.648,5.321,34.811,23.46,48.318,51.584c10.011,20.845,17.476,45.659,22.07,72.791
		C314.696,144.735,290.772,143.079,266.77,142.697z M245.229,23.184v119.508c-24.004,0.372-47.883,1.988-70.381,4.821
		c4.597-27.114,12.056-51.91,22.063-72.744C210.418,46.645,227.583,28.506,245.229,23.184z M266.77,284.009
		c10.676-0.165,21.327-0.578,31.844-1.233c-10.415,4.276-21.008,8.097-31.844,11.479L266.77,284.009L266.77,284.009z
		 M444.566,178.169c-5.738-3.547-12.458-6.898-20.169-10.046c-5.508-2.249-11.794,0.394-14.042,5.901
		c-2.248,5.507,0.394,11.793,5.902,14.041c23.267,9.496,31.555,19.288,31.555,25.286c0,7.749-13.52,20.801-51.623,32.082
		c-10.428,3.087-21.832,5.785-34.01,8.072c1.241-13.183,1.883-26.623,1.883-40.154c0-78.948-20.673-146.598-52.147-183.488
		C379.554,50.514,431.432,107.613,444.566,178.169z M200.083,29.863c-22.763,26.68-39.871,69.452-47.599,120.952
		c-35.076,5.988-65.286,15.219-85.096,27.584C80.453,107.736,132.372,50.538,200.083,29.863z M67.388,248.302
		c19.864,12.401,50.191,21.65,85.393,27.635c2.615,17.632,6.405,35.805,11.66,52.67c0.311,0.997,0.628,1.988,0.948,2.975
		c1.48,4.551,5.702,7.444,10.241,7.444c1.103-0.001,2.225-0.171,3.331-0.531c5.658-1.838,8.753-7.915,6.914-13.571
		c-0.296-0.911-0.588-1.824-0.871-2.733c-4.252-13.651-7.485-28.41-9.872-42.967c22.416,2.81,46.195,4.416,70.098,4.785v24.627
		v52.666c0,16.143,2.149,30.711,5.718,43.793C159.369,402.716,83.57,335.831,67.388,248.302z M443.887,361.303
		c0,48.075-21.891,80.024-40.255,98.359c-21.746,21.711-43.863,30.274-48.304,30.786c-4.44-0.513-26.557-9.076-48.304-30.786
		c-18.364-18.336-40.255-50.283-40.255-98.359v-44.532c31.043-9.148,60.143-21.572,88.563-37.811
		c27.797,15.829,58.142,28.782,88.555,37.803L443.887,361.303L443.887,361.303z"/>
	<path style="fill:#000003;" d="M196.973,351.572c-2.736-5.283-9.237-7.347-14.517-4.611c-5.282,2.735-7.346,9.234-4.611,14.516
		l0.178,0.338c1.942,3.6,5.628,5.635,9.446,5.635c1.717,0,3.462-0.411,5.085-1.278c5.231-2.791,7.204-9.319,4.437-14.563
		L196.973,351.572z"/>
	<path style="fill:#000003;" d="M387.56,178.759l0.236,0.061c0.885,0.224,1.773,0.332,2.646,0.332c4.813,0,9.193-3.254,10.428-8.136
		c1.458-5.766-2.043-11.625-7.81-13.082l-0.322-0.083c-5.777-1.432-11.617,2.095-13.044,7.87
		C378.266,171.492,381.785,177.33,387.56,178.759z"/>
	<path style="fill:#000003;" d="M310.178,376.492c-4.207-4.206-11.026-4.205-15.232,0.001s-4.206,11.024,0,15.231l35.02,35.019
		c2.103,2.102,4.859,3.155,7.616,3.155c2.757,0,5.512-1.052,7.616-3.155l70.514-70.514c4.206-4.206,4.206-11.025,0-15.232
		c-4.207-4.206-11.024-4.206-15.232,0l-62.897,62.897L310.178,376.492z"/>
</g>
</svg>