<?xml version="1.0" encoding="UTF-8" standalone="no"?>
<!-- Uploaded to: SVG Repo, www.svgrepo.com, Generator: SVG Repo Mixer Tools -->

<svg
   fill="#000000"
   version="1.1"
   id="Capa_1"
   width="800px"
   height="800px"
   viewBox="0 0 122.242 122.242"
   xml:space="preserve"
   sodipodi:docname="dijitalvatandaslik-hesap.svg"
   inkscape:version="1.2.2 (b0a8486541, 2022-12-01)"
   xmlns:inkscape="http://www.inkscape.org/namespaces/inkscape"
   xmlns:sodipodi="http://sodipodi.sourceforge.net/DTD/sodipodi-0.dtd"
   xmlns="http://www.w3.org/2000/svg"
   xmlns:svg="http://www.w3.org/2000/svg"><defs
   id="defs29" /><sodipodi:namedview
   id="namedview27"
   pagecolor="#ffffff"
   bordercolor="#000000"
   borderopacity="0.25"
   inkscape:showpageshadow="2"
   inkscape:pageopacity="0.0"
   inkscape:pagecheckerboard="0"
   inkscape:deskcolor="#d1d1d1"
   showgrid="false"
   inkscape:zoom="0.67375"
   inkscape:cx="294.61967"
   inkscape:cy="375.5102"
   inkscape:window-width="1366"
   inkscape:window-height="675"
   inkscape:window-x="0"
   inkscape:window-y="0"
   inkscape:window-maximized="1"
   inkscape:current-layer="g22" />
<g
   id="g24">
	<g
   id="g22">
		<path
   d="M29.099,30.157c7.571,0,13.708-6.138,13.708-13.71c0-7.567-6.137-13.705-13.708-13.705    c-7.572,0-13.708,6.138-13.708,13.707C15.393,24.021,21.527,30.157,29.099,30.157z"
   id="path2" />
		<path
   d="M55.762,75.327c-0.37-3.172-3.056-5.565-6.25-5.565h-0.003l-10.903,0.01V54.786c3.657,3.206,7.794,5.232,13.195,5.232    c3.294,0,7.064-0.757,11.476-2.446c2.746-1.051,4.119-4.127,3.066-6.872c-1.049-2.745-4.127-4.116-6.871-3.067    c-10.744,4.116-12.862,1.819-22.302-11.082c-0.02-0.028-0.045-0.048-0.068-0.078c-1.808-2.82-4.979-4.723-8.007-5.466    c0,0-1.441-0.434-2.977-0.399c-1.471,0.031-3.107,0.375-3.107,0.375l-0.042,0.005c-4.611,1.131-9.522,4.886-9.522,10.522    l0.003,30.257c0,6.578,6.531,10.648,12.578,10.645c0.338,0,0.675-0.027,1.012-0.052l16.873-0.013l3.599,31.068    c0.373,3.205,3.094,5.564,6.241,5.564c0.241,0,0.486-0.015,0.735-0.045c3.447-0.397,5.922-3.521,5.521-6.972L55.762,75.327z"
   id="path4" />
		<path
   d="M42.253,89.48c0-2.937-2.383-5.32-5.323-5.32H10.644V41.947c0-2.936-2.384-5.318-5.324-5.318    c-2.939,0-5.32,2.383-5.32,5.318V89.48c0,1.949,1.052,3.647,2.614,4.578c-1.014,1.812-1.593,3.891-1.593,6.107v14.877    c0,2.462,1.994,4.457,4.452,4.457c2.461,0,4.458-1.995,4.458-4.457v-14.877c0-2.013,1.635-3.646,3.646-3.646h14.878    c2.008,0,3.645,1.635,3.645,3.646v14.877c0,2.462,1.995,4.457,4.457,4.457c2.461,0,4.456-1.995,4.456-4.457v-14.877    c0-2.178-0.556-4.225-1.536-6.012C41.128,93.25,42.253,91.496,42.253,89.48z"
   id="path6" />
		<path
   d="M117.143,61.121H57.995c-2.815,0-5.098,2.281-5.098,5.098c0,2.817,2.283,5.101,5.098,5.101h6.996v45.278h45.155V71.318    h6.996c2.816,0,5.1-2.283,5.1-5.1C122.242,63.401,119.959,61.121,117.143,61.121z"
   id="path8" />
		<path
   d="M99.723,25.835l-4.596,10.453l13.158,5.785l-4.034,12.978H72.924c-1.223,0-2.213,0.992-2.213,2.214    s0.99,2.214,2.213,2.214h32.957c0.969,0,1.826-0.633,2.114-1.558l10.329-33.236c0.363-1.168-0.289-2.407-1.457-2.769    c-1.169-0.364-2.407,0.286-2.771,1.453l-2.4,7.73L99.723,25.835z M98.68,36.795l-2.281-1.003l1.004-2.278    C98.488,34.217,99.005,35.541,98.68,36.795z M99.217,29.389l1-2.279l2.28,1.003C101.794,29.195,100.467,29.713,99.217,29.389z     M104.902,38.83c-2.074-0.91-3.018-3.332-2.104-5.403c0.911-2.076,3.332-3.016,5.405-2.104c1.378,0.604,2.238,1.878,2.406,3.271    l-0.984,3.17C108.475,39.074,106.581,39.568,104.902,38.83z"
   id="path10" />
		
		
		
		
		
	<g
   transform="matrix(0.02006406,-0.0028314,0.00823602,0.02506505,99.887802,14.251983)"
   id="g190">
	<path
   style="fill:#007aaa"
   d="m 61.813,5.424 c 33.545,0 61.793,28.248 61.793,61.793 0,35.31 -30.014,62.676 -61.793,61.793 C 29.151,129.893 0.02,102.527 0.02,67.217 -0.863,32.789 27.386,5.424 61.813,5.424"
   id="path184" />
	<path
   style="fill:#007aaa"
   d="M 96.241,508.596 H 25.62 c -9.71,0 -17.655,-7.945 -17.655,-17.655 V 181.976 c 0,-9.71 7.062,-17.655 16.772,-17.655 H 96.24 c 9.71,0 17.655,7.945 17.655,17.655 v 309.848 c 0.001,8.827 -7.944,16.772 -17.654,16.772"
   id="path186" />
	<path
   style="fill:#007aaa"
   d="m 511.137,272.017 c 0,-65.324 -48.552,-116.524 -113.876,-116.524 h -18.538 c -35.31,0 -69.738,16.772 -88.276,44.138 -6.179,6.179 -8.828,8.828 -8.828,8.828 v -35.31 c 0,-3.531 -5.297,-8.828 -8.828,-8.828 h -88.276 c -3.531,0 -8.828,3.531 -8.828,7.945 v 329.269 c 0,3.531 5.297,7.062 8.828,7.062 h 97.103 c 3.531,0 8.828,-3.531 8.828,-7.062 V 310.858 c 0,-32.662 24.717,-60.028 57.379,-60.91 16.772,0 31.779,6.179 43.255,17.655 10.593,10.593 15.007,25.6 15.007,42.372 v 189.793 c 0,3.531 5.297,8.828 8.828,8.828 h 88.276 c 3.531,0 8.828,-5.297 8.828,-8.828 V 272.017 Z"
   id="path188" />
</g><path
   style="fill:#dd4b39;stroke-width:0.0451697"
   d="M 77.785162,32.510083 96.013883,44.903791 106.82263,29.006259 88.593893,16.612547 Z m 16.182221,-2.549299 c 1.86288,1.664084 2.13156,3.793673 0.95957,5.517455 -1.31705,1.937122 -4.18563,2.283259 -6.40681,0.773082 -2.22062,-1.509801 -2.95363,-4.304658 -1.63658,-6.241781 0.6371,-0.937052 1.57876,-1.497412 2.65067,-1.642515 l 0.46984,1.791418 c -0.62562,0.07314 -1.15273,0.396964 -1.52099,0.938607 -0.77528,1.140272 -0.28888,2.822769 1.01804,3.711342 1.30809,0.889371 3.0192,0.700965 3.79447,-0.439337 0.64979,-0.9557 0.61214,-2.039583 -0.30649,-2.969443 l -1.2838,1.888219 -1.61516,-1.098144 2.25626,-3.31852 c 0.28732,0.137094 0.57338,0.302105 0.85558,0.493969 0.27988,0.190348 0.53447,0.389257 0.76539,0.595629 z m 2.36307,-4.552654 -0.83564,1.229056 1.40869,0.957762 -0.59355,0.873 -1.40869,-0.957762 -0.83563,1.229046 -1.00162,-0.680989 0.83564,-1.229056 -1.40928,-0.958174 0.59355,-0.873 1.40928,0.958174 0.83564,-1.229056 z"
   id="path359" /><g
   id="g378"
   transform="matrix(0.01450386,0.0279681,-0.03468417,0.01798671,119.02089,23.160812)"><path
     style="fill:#4d6fa9"
     d="M 476.69,512 H 35.31 C 15.89,512 0,496.11 0,476.69 V 35.31 C 0,15.89 15.89,0 35.31,0 H 476.69 C 496.11,0 512,15.89 512,35.31 V 476.69 C 512,496.11 496.11,512 476.69,512"
     id="path367" /><path
     style="fill:#ffffff"
     d="m 432.552,88.276 v 88.276 h -79.448 c -9.71,0 -17.655,7.945 -17.655,17.655 v 52.966 h 88.276 v 88.276 H 335.449 V 512 H 247.173 V 335.448 h -70.621 v -88.276 h 70.621 v -52.966 c 0,-55.614 42.372,-101.517 97.103,-105.931 h 88.276 z"
     id="path369" /></g></g>
</g>
</svg>
