<?xml version="1.0" encoding="UTF-8" standalone="no"?>
<!-- Uploaded to: SVG Repo, www.svgrepo.com, Generator: SVG Repo Mixer Tools -->

<svg
   height="800px"
   width="800px"
   version="1.1"
   id="Layer_1"
   viewBox="0 0 489.7 489.7"
   xml:space="preserve"
   sodipodi:docname="dijitalzorba-zombi.svg"
   inkscape:version="1.2.2 (b0a8486541, 2022-12-01)"
   xmlns:inkscape="http://www.inkscape.org/namespaces/inkscape"
   xmlns:sodipodi="http://sodipodi.sourceforge.net/DTD/sodipodi-0.dtd"
   xmlns="http://www.w3.org/2000/svg"
   xmlns:svg="http://www.w3.org/2000/svg"><defs
   id="defs646" /><sodipodi:namedview
   id="namedview644"
   pagecolor="#ffffff"
   bordercolor="#000000"
   borderopacity="0.25"
   inkscape:showpageshadow="2"
   inkscape:pageopacity="0.0"
   inkscape:pagecheckerboard="0"
   inkscape:deskcolor="#d1d1d1"
   showgrid="false"
   inkscape:zoom="0.67375"
   inkscape:cx="333.20965"
   inkscape:cy="402.22635"
   inkscape:window-width="1366"
   inkscape:window-height="675"
   inkscape:window-x="0"
   inkscape:window-y="0"
   inkscape:window-maximized="1"
   inkscape:current-layer="Layer_1" />
<g
   id="g641">
	<g
   id="g639">
		<path
   id="XMLID_1284_"
   style="fill:#3C92CA;"
   d="M17.1,357.45h107.7c4.4,0,8.1,3.6,8.1,8.1v65.8c0,4.4-3.6,8.1-8.1,8.1H17.1    c-4.4,0-8.1-3.6-8.1-8.1v-65.8C9,361.05,12.7,357.45,17.1,357.45z" />
		<path
   id="XMLID_1282_"
   style="fill:#3C92CA;"
   d="M365,357.45h107.7c4.4,0,8.1,3.6,8.1,8.1v65.8c0,4.4-3.6,8.1-8.1,8.1H365    c-4.4,0-8.1-3.6-8.1-8.1v-65.8C357,361.05,360.6,357.45,365,357.45z" />
		<path
   d="m 116.6,448.45 c 14,0 25.3,-11.4 25.3,-25.3 v -49.4 c 0,-14 -11.4,-25.3 -25.3,-25.3 H 80 v -67.8 h 155.8 v 67.8 h -36.6 c -14,0 -25.3,11.4 -25.3,25.3 v 49.4 c 0,14 11.4,25.3 25.3,25.3 h 91.3 c 14,0 25.3,-11.4 25.3,-25.3 v -49.4 c 0,-14 -11.4,-25.3 -25.3,-25.3 h -36.6 v -67.8 h 155.8 v 67.8 h -36.6 c -14,0 -25.3,11.4 -25.3,25.3 v 49.4 c 0,14 11.4,25.3 25.3,25.3 h 91.3 c 14,0 25.3,-11.4 25.3,-25.3 v -49.4 c 0,-14 -11.4,-25.3 -25.3,-25.3 h -36.5 v -76.8 c 0,-5 -4.1,-9.1 -9.1,-9.1 H 254 v -47.3 l 7.42319,-58.83866 c 2.2906,-18.15608 22.74222,12.73969 17.50832,-4.79588 L 262.13665,95.346289 c -5.2339,-17.535571 6.34451,-29.255189 0.85485,-11.797997 l -5.85093,18.605998 c -5.48967,17.4572 39.315,-13.683494 38.38257,4.59274 l -2.27716,44.63365 c -0.93244,18.27623 -6.79309,-34.09455 -15.20494,-17.84245 L 235.8,215.15 v 47.3 H 70.9 c -5,0 -9.1,4.1 -9.1,9.1 v 76.8 H 25.3 c -14,0 -25.3,11.4 -25.3,25.3 v 49.4 c 0,14 11.4,25.3 25.3,25.3 h 91.3 z m 181.1,-74.7 v 49.4 c 0,4 -3.2,7.2 -7.2,7.2 h -91.3 c -4,0 -7.2,-3.2 -7.2,-7.2 v -49.4 c 0,-4 3.2,-7.2 7.2,-7.2 h 91.3 c 4,-0.1 7.2,3.2 7.2,7.2 z m 174,0 v 49.4 c 0,4 -3.2,7.2 -7.2,7.2 h -91.3 c -4,0 -7.2,-3.2 -7.2,-7.2 v -49.4 c 0,-4 3.2,-7.2 7.2,-7.2 h 91.3 c 4,-0.1 7.2,3.2 7.2,7.2 z M 285.52029,149.51734 268.79655,110.33988 c -3.25856,-7.6336 -29.1934,35.91942 -21.15217,33.86303 l 54.49833,-13.93688 c 8.04122,-2.05639 -3.15042,-43.191885 -8.19079,-36.597596 l -49.1137,64.255176 c -5.04037,6.59429 49.82856,13.55389 41.64059,14.91299 l -41.20087,6.83879 c -8.18797,1.35909 43.50091,-22.52446 40.24235,-30.15805 z M 18.1,423.15 v -49.4 c 0,-4 3.2,-7.2 7.2,-7.2 h 91.3 c 4,0 7.2,3.2 7.2,7.2 v 49.4 c 0,4 -3.2,7.2 -7.2,7.2 H 25.3 c -4,0 -7.2,-3.2 -7.2,-7.2 z"
   id="path637"
   sodipodi:nodetypes="csssccccssssssssccccsssssssscssccssssssssccsscssssccssssssscsssssssscsssssssssssssssssss" />
	</g>
</g>
<g
   aria-label="Bilgisayar"
   transform="matrix(0.66412665,0,0,1.5057369,-1.9003306,0)"
   id="text1709-7-62"
   style="font-weight:bold;font-size:26.5187px;-inkscape-font-specification:'sans-serif, Bold';stroke-width:0.0194574"><path
     d="m 47.477943,254.07432 q 3.792175,0 5.72804,1.06074 1.935865,1.06075 1.935865,3.73914 0,1.61764 -0.769043,2.73143 -0.742523,1.11378 -2.148014,1.35245 v 0.13259 q 0.954673,0.18563 1.723715,0.66297 0.769042,0.47734 1.21986,1.37897 0.450818,0.90164 0.450818,2.38669 0,2.57231 -1.856309,4.03084 -1.856309,1.45853 -5.09159,1.45853 h -7.080493 v -18.93435 z m 0.450818,7.50479 q 1.750235,0 2.413202,-0.5569 0.689486,-0.55689 0.689486,-1.61764 0,-1.08726 -0.795561,-1.5646 -0.795561,-0.47734 -2.519276,-0.47734 h -2.121496 v 4.21648 z m -2.333645,3.18224 v 4.93248 h 2.625351 q 1.803272,0 2.519277,-0.68949 0.716004,-0.716 0.716004,-1.88282 0,-1.06075 -0.742523,-1.6972 -0.716005,-0.66297 -2.625351,-0.66297 z"
     id="path1931" /><path
     d="m 61.082059,252.85446 q 0.875117,0 1.511566,0.42429 0.636449,0.39778 0.636449,1.51157 0,1.08727 -0.636449,1.51157 -0.636449,0.4243 -1.511566,0.4243 -0.901635,0 -1.538084,-0.4243 -0.60993,-0.4243 -0.60993,-1.51157 0,-1.11379 0.60993,-1.51157 0.636449,-0.42429 1.538084,-0.42429 z m 1.962384,5.675 v 14.47921 h -3.951286 v -14.47921 z"
     id="path1933" /><path
     d="m 71.132654,273.00867 h -3.951286 v -20.15421 h 3.951286 z"
     id="path1935" /><path
     d="m 79.963387,258.26427 q 2.678389,0 4.189954,2.1215 h 0.106075 l 0.318225,-1.85631 h 3.341356 v 14.50573 q 0,3.10268 -1.829791,4.72032 -1.82979,1.61764 -5.409814,1.61764 -1.538085,0 -2.86402,-0.18563 -1.299416,-0.18563 -2.545795,-0.66296 v -3.15573 q 2.678389,1.11379 5.648483,1.11379 3.049651,0 3.049651,-3.28832 v -0.29171 q 0,-0.45082 0.02652,-0.92815 0.05304,-0.47734 0.07956,-0.8486 h -0.106074 q -0.742524,1.1403 -1.776753,1.64416 -1.03423,0.50385 -2.333646,0.50385 -2.572314,0 -4.030842,-1.96238 -1.43201,-1.9889 -1.43201,-5.51589 0,-3.55351 1.485047,-5.54241 1.485047,-1.9889 4.08388,-1.9889 z m 1.246379,3.20876 q -2.784464,0 -2.784464,4.37559 0,4.32255 2.837501,4.32255 1.511566,0 2.227571,-0.8486 0.742524,-0.87512 0.742524,-3.02313 v -0.47734 q 0,-2.33365 -0.716005,-3.34136 -0.716005,-1.00771 -2.307127,-1.00771 z"
     id="path1937" /><path
     d="m 94.044803,252.85446 q 0.875117,0 1.511566,0.42429 0.636449,0.39778 0.636449,1.51157 0,1.08727 -0.636449,1.51157 -0.636449,0.4243 -1.511566,0.4243 -0.901636,0 -1.538085,-0.4243 -0.60993,-0.4243 -0.60993,-1.51157 0,-1.11379 0.60993,-1.51157 0.636449,-0.42429 1.538085,-0.42429 z m 1.962384,5.675 v 14.47921 h -3.951286 v -14.47921 z"
     id="path1939" /><path
     d="m 110.24774,268.71264 q 0,2.20105 -1.56461,3.39439 -1.53808,1.16682 -4.61425,1.16682 -1.51157,0 -2.59883,-0.21215 -1.08727,-0.18563 -2.174537,-0.63644 v -3.2618 q 1.166827,0.53037 2.519277,0.87511 1.35245,0.34475 2.38668,0.34475 1.16683,0 1.64416,-0.34475 0.50386,-0.34474 0.50386,-0.90163 0,-0.37126 -0.21215,-0.66297 -0.18563,-0.29171 -0.8486,-0.66297 -0.66297,-0.37126 -2.06846,-0.95467 -1.35245,-0.58341 -2.22757,-1.14031 -0.87512,-0.58341 -1.299416,-1.37897 -0.424299,-0.82208 -0.424299,-2.04194 0,-2.01542 1.564605,-3.02313 1.5646,-1.00771 4.16343,-1.00771 1.35246,0 2.57232,0.26519 1.21986,0.26518 2.51927,0.87511 l -1.19334,2.8375 q -1.06075,-0.45081 -2.01542,-0.74252 -0.95467,-0.31822 -1.93586,-0.31822 -1.75024,0 -1.75024,0.95467 0,0.34474 0.21215,0.63645 0.23867,0.26519 0.87512,0.58341 0.66297,0.31822 1.93586,0.8486 1.24638,0.50385 2.14802,1.06075 0.90163,0.53037 1.37897,1.35245 0.50386,0.79556 0.50386,2.09498 z"
     id="path1941" /><path
     d="m 119.26409,258.23775 q 2.91705,0 4.45514,1.2729 1.5646,1.24638 1.5646,3.84521 v 9.65281 h -2.75794 l -0.76905,-1.96239 h -0.10607 q -0.92815,1.16683 -1.96238,1.6972 -1.03423,0.53037 -2.8375,0.53037 -1.93587,0 -3.20877,-1.11378 -1.27289,-1.14031 -1.27289,-3.47395 0,-2.30713 1.61764,-3.39439 1.61764,-1.11379 4.85292,-1.21986 l 2.51927,-0.0796 v -0.63645 q 0,-1.1403 -0.60993,-1.67068 -0.58341,-0.53037 -1.64416,-0.53037 -1.06074,0 -2.06845,0.31822 -1.00771,0.29171 -2.01542,0.74253 l -1.29942,-2.67839 q 1.16682,-0.60993 2.57231,-0.95468 1.43201,-0.34474 2.9701,-0.34474 z m 0.55689,8.11472 q -1.90935,0.053 -2.65187,0.68949 -0.74252,0.63645 -0.74252,1.67068 0,0.90163 0.53037,1.29941 0.53037,0.37127 1.37897,0.37127 1.2729,0 2.14802,-0.74253 0.87511,-0.76904 0.87511,-2.14801 v -1.19334 z"
     id="path1943" /><path
     d="m 127.27274,258.52946 h 4.32254 l 2.73143,8.14124 q 0.21215,0.58341 0.31822,1.21986 0.10608,0.60993 0.15912,1.29941 h 0.0796 q 0.0796,-0.68948 0.21215,-1.29941 0.15911,-0.63645 0.34475,-1.21986 l 2.67838,-8.14124 h 4.243 l -6.12582,16.33552 q -0.82208,2.25409 -2.41321,3.36787 -1.5646,1.1403 -3.63306,1.1403 -0.66296,0 -1.16682,-0.0795 -0.47734,-0.053 -0.8486,-0.13259 v -3.12921 q 0.29171,0.053 0.68949,0.10607 0.4243,0.053 0.87511,0.053 1.24638,0 1.96239,-0.76904 0.74252,-0.74252 1.08727,-1.80327 l 0.23866,-0.71601 z"
     id="path1945" /><path
     d="m 150.37053,258.23775 q 2.91706,0 4.45514,1.2729 1.56461,1.24638 1.56461,3.84521 v 9.65281 h -2.75795 l -0.76904,-1.96239 h -0.10607 q -0.92816,1.16683 -1.96239,1.6972 -1.03423,0.53037 -2.8375,0.53037 -1.93586,0 -3.20876,-1.11378 -1.2729,-1.14031 -1.2729,-3.47395 0,-2.30713 1.61764,-3.39439 1.61764,-1.11379 4.85292,-1.21986 l 2.51928,-0.0796 v -0.63645 q 0,-1.1403 -0.60993,-1.67068 -0.58341,-0.53037 -1.64416,-0.53037 -1.06075,0 -2.06846,0.31822 -1.00771,0.29171 -2.01542,0.74253 l -1.29942,-2.67839 q 1.16683,-0.60993 2.57232,-0.95468 1.43201,-0.34474 2.97009,-0.34474 z m 0.5569,8.11472 q -1.90935,0.053 -2.65187,0.68949 -0.74253,0.63645 -0.74253,1.67068 0,0.90163 0.53038,1.29941 0.53037,0.37127 1.37897,0.37127 1.2729,0 2.14801,-0.74253 0.87512,-0.76904 0.87512,-2.14801 v -1.19334 z"
     id="path1947" /><path
     d="m 168.53584,258.26427 q 0.29171,0 0.68949,0.0265 0.39778,0.0265 0.63645,0.0795 l -0.29171,3.71262 q -0.18563,-0.053 -0.55689,-0.0796 -0.34474,-0.053 -0.60993,-0.053 -1.00771,0 -1.93587,0.37126 -0.92815,0.34474 -1.51156,1.14031 -0.55689,0.79556 -0.55689,2.17453 v 7.3722 h -3.95129 v -14.47921 h 2.99661 l 0.58341,2.43972 h 0.18563 q 0.63645,-1.11379 1.75024,-1.90935 1.11378,-0.79556 2.57231,-0.79556 z"
     id="path1949" /></g><g
   aria-label="Bilgisayar"
   transform="matrix(0.66412665,0,0,1.5057369,172.92353,-1.4243226)"
   id="text1709-7-62-5"
   style="font-weight:bold;font-size:26.5187px;-inkscape-font-specification:'sans-serif, Bold';stroke-width:0.0194574"><path
     d="m 47.477943,254.07432 q 3.792175,0 5.72804,1.06074 1.935865,1.06075 1.935865,3.73914 0,1.61764 -0.769043,2.73143 -0.742523,1.11378 -2.148014,1.35245 v 0.13259 q 0.954673,0.18563 1.723715,0.66297 0.769042,0.47734 1.21986,1.37897 0.450818,0.90164 0.450818,2.38669 0,2.57231 -1.856309,4.03084 -1.856309,1.45853 -5.09159,1.45853 h -7.080493 v -18.93435 z m 0.450818,7.50479 q 1.750235,0 2.413202,-0.5569 0.689486,-0.55689 0.689486,-1.61764 0,-1.08726 -0.795561,-1.5646 -0.795561,-0.47734 -2.519276,-0.47734 h -2.121496 v 4.21648 z m -2.333645,3.18224 v 4.93248 h 2.625351 q 1.803272,0 2.519277,-0.68949 0.716004,-0.716 0.716004,-1.88282 0,-1.06075 -0.742523,-1.6972 -0.716005,-0.66297 -2.625351,-0.66297 z"
     id="path1931-3" /><path
     d="m 61.082059,252.85446 q 0.875117,0 1.511566,0.42429 0.636449,0.39778 0.636449,1.51157 0,1.08727 -0.636449,1.51157 -0.636449,0.4243 -1.511566,0.4243 -0.901635,0 -1.538084,-0.4243 -0.60993,-0.4243 -0.60993,-1.51157 0,-1.11379 0.60993,-1.51157 0.636449,-0.42429 1.538084,-0.42429 z m 1.962384,5.675 v 14.47921 h -3.951286 v -14.47921 z"
     id="path1933-5" /><path
     d="m 71.132654,273.00867 h -3.951286 v -20.15421 h 3.951286 z"
     id="path1935-6" /><path
     d="m 79.963387,258.26427 q 2.678389,0 4.189954,2.1215 h 0.106075 l 0.318225,-1.85631 h 3.341356 v 14.50573 q 0,3.10268 -1.829791,4.72032 -1.82979,1.61764 -5.409814,1.61764 -1.538085,0 -2.86402,-0.18563 -1.299416,-0.18563 -2.545795,-0.66296 v -3.15573 q 2.678389,1.11379 5.648483,1.11379 3.049651,0 3.049651,-3.28832 v -0.29171 q 0,-0.45082 0.02652,-0.92815 0.05304,-0.47734 0.07956,-0.8486 h -0.106074 q -0.742524,1.1403 -1.776753,1.64416 -1.03423,0.50385 -2.333646,0.50385 -2.572314,0 -4.030842,-1.96238 -1.43201,-1.9889 -1.43201,-5.51589 0,-3.55351 1.485047,-5.54241 1.485047,-1.9889 4.08388,-1.9889 z m 1.246379,3.20876 q -2.784464,0 -2.784464,4.37559 0,4.32255 2.837501,4.32255 1.511566,0 2.227571,-0.8486 0.742524,-0.87512 0.742524,-3.02313 v -0.47734 q 0,-2.33365 -0.716005,-3.34136 -0.716005,-1.00771 -2.307127,-1.00771 z"
     id="path1937-2" /><path
     d="m 94.044803,252.85446 q 0.875117,0 1.511566,0.42429 0.636449,0.39778 0.636449,1.51157 0,1.08727 -0.636449,1.51157 -0.636449,0.4243 -1.511566,0.4243 -0.901636,0 -1.538085,-0.4243 -0.60993,-0.4243 -0.60993,-1.51157 0,-1.11379 0.60993,-1.51157 0.636449,-0.42429 1.538085,-0.42429 z m 1.962384,5.675 v 14.47921 h -3.951286 v -14.47921 z"
     id="path1939-9" /><path
     d="m 110.24774,268.71264 q 0,2.20105 -1.56461,3.39439 -1.53808,1.16682 -4.61425,1.16682 -1.51157,0 -2.59883,-0.21215 -1.08727,-0.18563 -2.174537,-0.63644 v -3.2618 q 1.166827,0.53037 2.519277,0.87511 1.35245,0.34475 2.38668,0.34475 1.16683,0 1.64416,-0.34475 0.50386,-0.34474 0.50386,-0.90163 0,-0.37126 -0.21215,-0.66297 -0.18563,-0.29171 -0.8486,-0.66297 -0.66297,-0.37126 -2.06846,-0.95467 -1.35245,-0.58341 -2.22757,-1.14031 -0.87512,-0.58341 -1.299416,-1.37897 -0.424299,-0.82208 -0.424299,-2.04194 0,-2.01542 1.564605,-3.02313 1.5646,-1.00771 4.16343,-1.00771 1.35246,0 2.57232,0.26519 1.21986,0.26518 2.51927,0.87511 l -1.19334,2.8375 q -1.06075,-0.45081 -2.01542,-0.74252 -0.95467,-0.31822 -1.93586,-0.31822 -1.75024,0 -1.75024,0.95467 0,0.34474 0.21215,0.63645 0.23867,0.26519 0.87512,0.58341 0.66297,0.31822 1.93586,0.8486 1.24638,0.50385 2.14802,1.06075 0.90163,0.53037 1.37897,1.35245 0.50386,0.79556 0.50386,2.09498 z"
     id="path1941-1" /><path
     d="m 119.26409,258.23775 q 2.91705,0 4.45514,1.2729 1.5646,1.24638 1.5646,3.84521 v 9.65281 h -2.75794 l -0.76905,-1.96239 h -0.10607 q -0.92815,1.16683 -1.96238,1.6972 -1.03423,0.53037 -2.8375,0.53037 -1.93587,0 -3.20877,-1.11378 -1.27289,-1.14031 -1.27289,-3.47395 0,-2.30713 1.61764,-3.39439 1.61764,-1.11379 4.85292,-1.21986 l 2.51927,-0.0796 v -0.63645 q 0,-1.1403 -0.60993,-1.67068 -0.58341,-0.53037 -1.64416,-0.53037 -1.06074,0 -2.06845,0.31822 -1.00771,0.29171 -2.01542,0.74253 l -1.29942,-2.67839 q 1.16682,-0.60993 2.57231,-0.95468 1.43201,-0.34474 2.9701,-0.34474 z m 0.55689,8.11472 q -1.90935,0.053 -2.65187,0.68949 -0.74252,0.63645 -0.74252,1.67068 0,0.90163 0.53037,1.29941 0.53037,0.37127 1.37897,0.37127 1.2729,0 2.14802,-0.74253 0.87511,-0.76904 0.87511,-2.14801 v -1.19334 z"
     id="path1943-2" /><path
     d="m 127.27274,258.52946 h 4.32254 l 2.73143,8.14124 q 0.21215,0.58341 0.31822,1.21986 0.10608,0.60993 0.15912,1.29941 h 0.0796 q 0.0796,-0.68948 0.21215,-1.29941 0.15911,-0.63645 0.34475,-1.21986 l 2.67838,-8.14124 h 4.243 l -6.12582,16.33552 q -0.82208,2.25409 -2.41321,3.36787 -1.5646,1.1403 -3.63306,1.1403 -0.66296,0 -1.16682,-0.0795 -0.47734,-0.053 -0.8486,-0.13259 v -3.12921 q 0.29171,0.053 0.68949,0.10607 0.4243,0.053 0.87511,0.053 1.24638,0 1.96239,-0.76904 0.74252,-0.74252 1.08727,-1.80327 l 0.23866,-0.71601 z"
     id="path1945-7" /><path
     d="m 150.37053,258.23775 q 2.91706,0 4.45514,1.2729 1.56461,1.24638 1.56461,3.84521 v 9.65281 h -2.75795 l -0.76904,-1.96239 h -0.10607 q -0.92816,1.16683 -1.96239,1.6972 -1.03423,0.53037 -2.8375,0.53037 -1.93586,0 -3.20876,-1.11378 -1.2729,-1.14031 -1.2729,-3.47395 0,-2.30713 1.61764,-3.39439 1.61764,-1.11379 4.85292,-1.21986 l 2.51928,-0.0796 v -0.63645 q 0,-1.1403 -0.60993,-1.67068 -0.58341,-0.53037 -1.64416,-0.53037 -1.06075,0 -2.06846,0.31822 -1.00771,0.29171 -2.01542,0.74253 l -1.29942,-2.67839 q 1.16683,-0.60993 2.57232,-0.95468 1.43201,-0.34474 2.97009,-0.34474 z m 0.5569,8.11472 q -1.90935,0.053 -2.65187,0.68949 -0.74253,0.63645 -0.74253,1.67068 0,0.90163 0.53038,1.29941 0.53037,0.37127 1.37897,0.37127 1.2729,0 2.14801,-0.74253 0.87512,-0.76904 0.87512,-2.14801 v -1.19334 z"
     id="path1947-0" /><path
     d="m 168.53584,258.26427 q 0.29171,0 0.68949,0.0265 0.39778,0.0265 0.63645,0.0795 l -0.29171,3.71262 q -0.18563,-0.053 -0.55689,-0.0796 -0.34474,-0.053 -0.60993,-0.053 -1.00771,0 -1.93587,0.37126 -0.92815,0.34474 -1.51156,1.14031 -0.55689,0.79556 -0.55689,2.17453 v 7.3722 h -3.95129 v -14.47921 h 2.99661 l 0.58341,2.43972 h 0.18563 q 0.63645,-1.11379 1.75024,-1.90935 1.11378,-0.79556 2.57231,-0.79556 z"
     id="path1949-9" /></g><g
   aria-label="Bilgisayar"
   transform="matrix(0.66412665,0,0,1.5057369,352.16077,-0.71857825)"
   id="text1709-7-62-3"
   style="font-weight:bold;font-size:26.5187px;-inkscape-font-specification:'sans-serif, Bold';stroke-width:0.0194574"><path
     d="m 47.477943,254.07432 q 3.792175,0 5.72804,1.06074 1.935865,1.06075 1.935865,3.73914 0,1.61764 -0.769043,2.73143 -0.742523,1.11378 -2.148014,1.35245 v 0.13259 q 0.954673,0.18563 1.723715,0.66297 0.769042,0.47734 1.21986,1.37897 0.450818,0.90164 0.450818,2.38669 0,2.57231 -1.856309,4.03084 -1.856309,1.45853 -5.09159,1.45853 h -7.080493 v -18.93435 z m 0.450818,7.50479 q 1.750235,0 2.413202,-0.5569 0.689486,-0.55689 0.689486,-1.61764 0,-1.08726 -0.795561,-1.5646 -0.795561,-0.47734 -2.519276,-0.47734 h -2.121496 v 4.21648 z m -2.333645,3.18224 v 4.93248 h 2.625351 q 1.803272,0 2.519277,-0.68949 0.716004,-0.716 0.716004,-1.88282 0,-1.06075 -0.742523,-1.6972 -0.716005,-0.66297 -2.625351,-0.66297 z"
     id="path1931-6" /><path
     d="m 61.082059,252.85446 q 0.875117,0 1.511566,0.42429 0.636449,0.39778 0.636449,1.51157 0,1.08727 -0.636449,1.51157 -0.636449,0.4243 -1.511566,0.4243 -0.901635,0 -1.538084,-0.4243 -0.60993,-0.4243 -0.60993,-1.51157 0,-1.11379 0.60993,-1.51157 0.636449,-0.42429 1.538084,-0.42429 z m 1.962384,5.675 v 14.47921 h -3.951286 v -14.47921 z"
     id="path1933-0" /><path
     d="m 71.132654,273.00867 h -3.951286 v -20.15421 h 3.951286 z"
     id="path1935-62" /><path
     d="m 79.963387,258.26427 q 2.678389,0 4.189954,2.1215 h 0.106075 l 0.318225,-1.85631 h 3.341356 v 14.50573 q 0,3.10268 -1.829791,4.72032 -1.82979,1.61764 -5.409814,1.61764 -1.538085,0 -2.86402,-0.18563 -1.299416,-0.18563 -2.545795,-0.66296 v -3.15573 q 2.678389,1.11379 5.648483,1.11379 3.049651,0 3.049651,-3.28832 v -0.29171 q 0,-0.45082 0.02652,-0.92815 0.05304,-0.47734 0.07956,-0.8486 h -0.106074 q -0.742524,1.1403 -1.776753,1.64416 -1.03423,0.50385 -2.333646,0.50385 -2.572314,0 -4.030842,-1.96238 -1.43201,-1.9889 -1.43201,-5.51589 0,-3.55351 1.485047,-5.54241 1.485047,-1.9889 4.08388,-1.9889 z m 1.246379,3.20876 q -2.784464,0 -2.784464,4.37559 0,4.32255 2.837501,4.32255 1.511566,0 2.227571,-0.8486 0.742524,-0.87512 0.742524,-3.02313 v -0.47734 q 0,-2.33365 -0.716005,-3.34136 -0.716005,-1.00771 -2.307127,-1.00771 z"
     id="path1937-6" /><path
     d="m 94.044803,252.85446 q 0.875117,0 1.511566,0.42429 0.636449,0.39778 0.636449,1.51157 0,1.08727 -0.636449,1.51157 -0.636449,0.4243 -1.511566,0.4243 -0.901636,0 -1.538085,-0.4243 -0.60993,-0.4243 -0.60993,-1.51157 0,-1.11379 0.60993,-1.51157 0.636449,-0.42429 1.538085,-0.42429 z m 1.962384,5.675 v 14.47921 h -3.951286 v -14.47921 z"
     id="path1939-1" /><path
     d="m 110.24774,268.71264 q 0,2.20105 -1.56461,3.39439 -1.53808,1.16682 -4.61425,1.16682 -1.51157,0 -2.59883,-0.21215 -1.08727,-0.18563 -2.174537,-0.63644 v -3.2618 q 1.166827,0.53037 2.519277,0.87511 1.35245,0.34475 2.38668,0.34475 1.16683,0 1.64416,-0.34475 0.50386,-0.34474 0.50386,-0.90163 0,-0.37126 -0.21215,-0.66297 -0.18563,-0.29171 -0.8486,-0.66297 -0.66297,-0.37126 -2.06846,-0.95467 -1.35245,-0.58341 -2.22757,-1.14031 -0.87512,-0.58341 -1.299416,-1.37897 -0.424299,-0.82208 -0.424299,-2.04194 0,-2.01542 1.564605,-3.02313 1.5646,-1.00771 4.16343,-1.00771 1.35246,0 2.57232,0.26519 1.21986,0.26518 2.51927,0.87511 l -1.19334,2.8375 q -1.06075,-0.45081 -2.01542,-0.74252 -0.95467,-0.31822 -1.93586,-0.31822 -1.75024,0 -1.75024,0.95467 0,0.34474 0.21215,0.63645 0.23867,0.26519 0.87512,0.58341 0.66297,0.31822 1.93586,0.8486 1.24638,0.50385 2.14802,1.06075 0.90163,0.53037 1.37897,1.35245 0.50386,0.79556 0.50386,2.09498 z"
     id="path1941-8" /><path
     d="m 119.26409,258.23775 q 2.91705,0 4.45514,1.2729 1.5646,1.24638 1.5646,3.84521 v 9.65281 h -2.75794 l -0.76905,-1.96239 h -0.10607 q -0.92815,1.16683 -1.96238,1.6972 -1.03423,0.53037 -2.8375,0.53037 -1.93587,0 -3.20877,-1.11378 -1.27289,-1.14031 -1.27289,-3.47395 0,-2.30713 1.61764,-3.39439 1.61764,-1.11379 4.85292,-1.21986 l 2.51927,-0.0796 v -0.63645 q 0,-1.1403 -0.60993,-1.67068 -0.58341,-0.53037 -1.64416,-0.53037 -1.06074,0 -2.06845,0.31822 -1.00771,0.29171 -2.01542,0.74253 l -1.29942,-2.67839 q 1.16682,-0.60993 2.57231,-0.95468 1.43201,-0.34474 2.9701,-0.34474 z m 0.55689,8.11472 q -1.90935,0.053 -2.65187,0.68949 -0.74252,0.63645 -0.74252,1.67068 0,0.90163 0.53037,1.29941 0.53037,0.37127 1.37897,0.37127 1.2729,0 2.14802,-0.74253 0.87511,-0.76904 0.87511,-2.14801 v -1.19334 z"
     id="path1943-7" /><path
     d="m 127.27274,258.52946 h 4.32254 l 2.73143,8.14124 q 0.21215,0.58341 0.31822,1.21986 0.10608,0.60993 0.15912,1.29941 h 0.0796 q 0.0796,-0.68948 0.21215,-1.29941 0.15911,-0.63645 0.34475,-1.21986 l 2.67838,-8.14124 h 4.243 l -6.12582,16.33552 q -0.82208,2.25409 -2.41321,3.36787 -1.5646,1.1403 -3.63306,1.1403 -0.66296,0 -1.16682,-0.0795 -0.47734,-0.053 -0.8486,-0.13259 v -3.12921 q 0.29171,0.053 0.68949,0.10607 0.4243,0.053 0.87511,0.053 1.24638,0 1.96239,-0.76904 0.74252,-0.74252 1.08727,-1.80327 l 0.23866,-0.71601 z"
     id="path1945-9" /><path
     d="m 150.37053,258.23775 q 2.91706,0 4.45514,1.2729 1.56461,1.24638 1.56461,3.84521 v 9.65281 h -2.75795 l -0.76904,-1.96239 h -0.10607 q -0.92816,1.16683 -1.96239,1.6972 -1.03423,0.53037 -2.8375,0.53037 -1.93586,0 -3.20876,-1.11378 -1.2729,-1.14031 -1.2729,-3.47395 0,-2.30713 1.61764,-3.39439 1.61764,-1.11379 4.85292,-1.21986 l 2.51928,-0.0796 v -0.63645 q 0,-1.1403 -0.60993,-1.67068 -0.58341,-0.53037 -1.64416,-0.53037 -1.06075,0 -2.06846,0.31822 -1.00771,0.29171 -2.01542,0.74253 l -1.29942,-2.67839 q 1.16683,-0.60993 2.57232,-0.95468 1.43201,-0.34474 2.97009,-0.34474 z m 0.5569,8.11472 q -1.90935,0.053 -2.65187,0.68949 -0.74253,0.63645 -0.74253,1.67068 0,0.90163 0.53038,1.29941 0.53037,0.37127 1.37897,0.37127 1.2729,0 2.14801,-0.74253 0.87512,-0.76904 0.87512,-2.14801 v -1.19334 z"
     id="path1947-2" /><path
     d="m 168.53584,258.26427 q 0.29171,0 0.68949,0.0265 0.39778,0.0265 0.63645,0.0795 l -0.29171,3.71262 q -0.18563,-0.053 -0.55689,-0.0796 -0.34474,-0.053 -0.60993,-0.053 -1.00771,0 -1.93587,0.37126 -0.92815,0.34474 -1.51156,1.14031 -0.55689,0.79556 -0.55689,2.17453 v 7.3722 h -3.95129 v -14.47921 h 2.99661 l 0.58341,2.43972 h 0.18563 q 0.63645,-1.11379 1.75024,-1.90935 1.11378,-0.79556 2.57231,-0.79556 z"
     id="path1949-0" /></g><g
   id="g348"
   transform="matrix(0.40326718,0,0,0.39741556,168.39516,43.579167)"><path
     style="fill:#656d78"
     d="m 439.56,383.676 -1.781,-0.5 c -25.921,-6.969 -34.686,-13.655 -46.232,-18.046 -40.935,-15.609 -51.591,-26.858 -54.31,-32.155 -0.109,-0.203 -0.188,-0.391 -0.281,-0.594 l -0.344,-47.561 -97.09,-1.094 -97.121,1.094 -0.328,47.561 c -0.094,0.203 -0.172,0.391 -0.266,0.594 -2.719,5.297 -13.375,16.546 -54.311,32.155 -11.546,4.391 -20.312,11.077 -46.248,18.046 l -1.781,0.5 C 15.859,391.471 0,413.377 0,438.08 v 68.669 h 239.522 178.415 l 61.107,-68.669 c 0,-24.703 -15.874,-46.609 -39.484,-54.404 z"
     id="path300" /><path
     style="fill:#dbafa5"
     d="m 337.237,332.974 c -0.109,-0.203 -0.188,-0.391 -0.281,-0.594 l -0.344,-47.561 -97.09,-1.094 -97.121,1.094 -0.328,47.561 c -0.094,0.203 -0.172,0.391 -0.266,0.594 -2.578,5.031 -12.312,15.422 -48.358,29.827 20.531,13.53 69.326,39.044 145.401,39.044 74.95,0 125.87,-24.779 148.259,-38.45 -37.278,-14.703 -47.263,-25.311 -49.872,-30.421 z"
     id="path302" /><path
     style="fill:#eac6bb"
     d="m 374.266,192.355 c 0,87.543 -83.465,168.118 -134.745,168.118 -51.295,0 -134.745,-80.575 -134.745,-168.118 0,-87.552 60.326,-145.314 134.745,-145.314 74.419,0 134.745,57.762 134.745,145.314 z"
     id="path304" /><g
     id="g310">
	<path
   style="fill:#434a54"
   d="m 398.875,368.286 c -2.438,-1.156 -4.828,-2.203 -7.328,-3.156 -6.188,-2.359 -11.672,-4.625 -16.562,-6.766 -5.891,3.281 -13.14,6.953 -21.701,10.625 -23.922,10.218 -63.201,22.404 -114.434,22.404 -51.123,0 -89.043,-12.124 -111.871,-22.295 -8.765,-3.891 -16.031,-7.812 -21.765,-11.266 -5.171,2.312 -11.031,4.75 -17.718,7.297 -1.922,0.719 -3.765,1.516 -5.625,2.359 6.718,4.874 18.624,12.608 35.608,20.248 24.843,11.203 66.044,24.546 121.37,24.546 55.233,0 97.668,-13.312 123.542,-24.468 16.953,-7.326 29.218,-14.685 36.484,-19.528 z"
   id="path306" />
	<polygon
   style="fill:#434a54"
   points="473.731,444.063 0,444.063 0,464.969 455.123,464.969 "
   id="polygon308" />
</g><path
     style="fill:#ed5564"
     d="m 374.266,192.355 c 0,-10.585 -0.906,-20.733 -2.578,-30.397 H 107.339 c -1.672,9.664 -2.562,19.812 -2.562,30.397 0,10.921 1.297,21.733 3.672,32.295 h 262.146 c 2.374,-10.561 3.671,-21.373 3.671,-32.295 z"
     id="path312" /><g
     id="g318">
	<path
   style="fill:#eac6bb"
   d="m 323.096,193.301 c 0,11.539 -14.03,20.905 -31.342,20.905 -17.312,0 -31.344,-9.367 -31.344,-20.905 0,-11.538 14.031,-20.897 31.344,-20.897 17.312,-0.001 31.342,9.358 31.342,20.897 z"
   id="path314" />
	<path
   style="fill:#eac6bb"
   d="m 218.616,193.301 c 0,11.539 -14.015,20.905 -31.342,20.905 -17.312,0 -31.343,-9.367 -31.343,-20.905 0,-11.538 14.031,-20.897 31.343,-20.897 17.327,-0.001 31.342,9.358 31.342,20.897 z"
   id="path316" />
</g><path
     style="fill:#656d78"
     d="M 374.266,191.324 C 370.454,99.71 369.235,74.29 319.878,35.033 239.522,-28.895 115.543,29.916 115.543,29.916 l 22.39,15.687 c 0,0 -81.934,54.115 -61.356,189.5 2.531,16.632 115.542,-112.988 235.756,-105.926 z"
     id="path324" /></g><g
   aria-label="Saldırgan"
   transform="scale(0.67299863,1.4858871)"
   id="text785"
   style="font-weight:bold;font-size:34.6583px;-inkscape-font-specification:'sans-serif, Bold';stroke-width:0.0254297"><path
     d="m 115.37474,126.9156 q 0,3.29253 -2.39142,5.26806 -2.35676,1.94086 -6.72371,1.94086 -3.91639,0 -7.000976,-1.49031 v -4.88682 q 1.767576,0.76249 3.639126,1.421 1.9062,0.62384 3.77775,0.62384 1.94086,0 2.73801,-0.72782 0.83179,-0.76248 0.83179,-1.90621 0,-0.93577 -0.6585,-1.59428 -0.62385,-0.65851 -1.69826,-1.21304 -1.07441,-0.58919 -2.46074,-1.2477 -0.86646,-0.4159 -1.87155,-0.97043 -1.00509,-0.58919 -1.94086,-1.42099 -0.90112,-0.86646 -1.49031,-2.0795 -0.589189,-1.21304 -0.589189,-2.91129 0,-3.3272 2.252789,-5.16409 2.25279,-1.87155 6.13452,-1.87155 1.94086,0 3.67378,0.45056 1.76757,0.45056 3.67378,1.28236 l -1.69826,4.08967 q -1.69826,-0.69316 -3.04993,-1.0744 -1.35167,-0.38124 -2.77266,-0.38124 -1.49031,0 -2.28745,0.69316 -0.79714,0.69317 -0.79714,1.80223 0,1.31702 1.17838,2.0795 1.17838,0.76248 3.50049,1.87155 1.90621,0.90112 3.22322,1.87155 1.35167,0.97043 2.0795,2.28745 0.72782,1.31701 0.72782,3.25788 z"
     id="path787" /><path
     d="m 127.2279,114.47327 q 3.81241,0 5.8226,1.66359 2.04483,1.62894 2.04483,5.02546 v 12.61562 h -3.60446 l -1.00509,-2.56472 h -0.13863 q -1.21304,1.52497 -2.56472,2.21814 -1.35167,0.69316 -3.70843,0.69316 -2.53006,0 -4.19366,-1.45565 -1.6636,-1.4903 -1.6636,-4.54023 0,-3.01528 2.11416,-4.43627 2.11416,-1.45564 6.34247,-1.59428 l 3.29254,-0.10397 v -0.8318 q 0,-1.49031 -0.79714,-2.18347 -0.76249,-0.69317 -2.14882,-0.69317 -1.38633,0 -2.70335,0.4159 -1.31701,0.38124 -2.63403,0.97043 l -1.69825,-3.50049 q 1.52496,-0.79714 3.36185,-1.2477 1.87155,-0.45055 3.88173,-0.45055 z m 0.72783,10.60544 q -2.4954,0.0693 -3.46583,0.90111 -0.97044,0.8318 -0.97044,2.18347 0,1.17839 0.69317,1.69826 0.69317,0.48522 1.80223,0.48522 1.6636,0 2.80732,-0.97044 1.14373,-1.00509 1.14373,-2.80732 v -1.55962 z"
     id="path789" /><path
     d="m 145.56214,133.77794 h -5.16408 v -26.34031 h 5.16408 z"
     id="path791" /><path
     d="m 156.96474,134.12452 q -3.15391,0 -5.16409,-2.46074 -1.97552,-2.49539 -1.97552,-7.3129 0,-4.85216 2.01018,-7.34756 2.01018,-2.4954 5.26806,-2.4954 2.04484,0 3.36185,0.79715 1.31702,0.79714 2.0795,1.97552 h 0.17329 q -0.10397,-0.55453 -0.2426,-1.59428 -0.13864,-1.07441 -0.13864,-2.18348 v -6.0652 h 5.16409 v 26.34031 h -3.95105 l -1.00509,-2.46074 h -0.20795 q -0.76248,1.17838 -2.04484,2.01018 -1.28235,0.79714 -3.32719,0.79714 z m 1.80223,-4.12434 q 2.14881,0 3.01527,-1.24769 0.86646,-1.28236 0.90112,-3.81242 v -0.55453 q 0,-2.77266 -0.86646,-4.22831 -0.8318,-1.45565 -3.11925,-1.45565 -1.69826,0 -2.66869,1.49031 -0.97043,1.45564 -0.97043,4.22831 0,2.77266 0.97043,4.19365 0.97043,1.38633 2.73801,1.38633 z"
     id="path793" /><path
     d="m 178.07162,133.77794 h -5.16409 v -18.92343 h 5.16409 z"
     id="path795" /><path
     d="m 194.04911,114.50792 q 0.38124,0 0.90111,0.0347 0.51988,0.0347 0.8318,0.10398 l -0.38124,4.85216 q -0.24261,-0.0693 -0.72782,-0.10398 -0.45056,-0.0693 -0.79714,-0.0693 -1.31702,0 -2.53006,0.48521 -1.21304,0.45056 -1.97552,1.49031 -0.72783,1.03975 -0.72783,2.84198 v 9.63501 h -5.16408 v -18.92343 h 3.91638 l 0.76249,3.18856 h 0.2426 q 0.8318,-1.45565 2.28745,-2.4954 1.45565,-1.03975 3.36186,-1.03975 z"
     id="path797" /><path
     d="m 205.00114,114.50792 q 3.50048,0 5.47601,2.77267 h 0.13863 l 0.4159,-2.42608 h 4.36694 v 18.95809 q 0,4.05502 -2.39142,6.16917 -2.39142,2.11416 -7.07029,2.11416 -2.01018,0 -3.7431,-0.24261 -1.69825,-0.24261 -3.32719,-0.86646 v -4.12433 q 3.50048,1.45565 7.38221,1.45565 3.98571,0 3.98571,-4.29763 v -0.38124 q 0,-0.5892 0.0347,-1.21304 0.0693,-0.62385 0.10397,-1.10907 h -0.13863 q -0.97043,1.49031 -2.32211,2.14881 -1.35167,0.65851 -3.04993,0.65851 -3.36185,0 -5.26806,-2.56471 -1.87155,-2.59937 -1.87155,-7.20893 0,-4.64421 1.94087,-7.24358 1.94086,-2.59938 5.33738,-2.59938 z m 1.62894,4.19366 q -3.63913,0 -3.63913,5.71862 0,5.6493 3.70844,5.6493 1.97552,0 2.9113,-1.10906 0.97043,-1.14373 0.97043,-3.95105 v -0.62385 q 0,-3.04993 -0.93577,-4.36695 -0.93578,-1.31701 -3.01527,-1.31701 z"
     id="path799" /><path
     d="m 228.56876,114.47327 q 3.81241,0 5.82259,1.66359 2.04484,1.62894 2.04484,5.02546 v 12.61562 h -3.60446 l -1.00509,-2.56472 H 231.688 q -1.21304,1.52497 -2.56471,2.21814 -1.35167,0.69316 -3.70844,0.69316 -2.53005,0 -4.19365,-1.45565 -1.6636,-1.4903 -1.6636,-4.54023 0,-3.01528 2.11416,-4.43627 2.11415,-1.45564 6.34246,-1.59428 l 3.29254,-0.10397 v -0.8318 q 0,-1.49031 -0.79714,-2.18347 -0.76248,-0.69317 -2.14881,-0.69317 -1.38633,0 -2.70335,0.4159 -1.31701,0.38124 -2.63403,0.97043 l -1.69826,-3.50049 q 1.52497,-0.79714 3.36186,-1.2477 1.87155,-0.45055 3.88173,-0.45055 z m 0.72782,10.60544 q -2.4954,0.0693 -3.46583,0.90111 -0.97043,0.8318 -0.97043,2.18347 0,1.17839 0.69317,1.69826 0.69316,0.48522 1.80223,0.48522 1.6636,0 2.80732,-0.97044 1.14372,-1.00509 1.14372,-2.80732 v -1.55962 z"
     id="path801" /><path
     d="m 252.48299,114.50792 q 3.04993,0 4.88682,1.6636 1.83689,1.62894 1.83689,5.26806 v 12.33836 h -5.16409 v -11.056 q 0,-2.04484 -0.72782,-3.04993 -0.72783,-1.03975 -2.32211,-1.03975 -2.35676,0 -3.22322,1.62894 -0.86646,1.59428 -0.86646,4.60956 v 8.90718 h -5.16408 v -18.92343 h 3.95104 l 0.69317,2.42608 h 0.27726 q 0.90112,-1.45565 2.46074,-2.11416 1.59428,-0.65851 3.36186,-0.65851 z"
     id="path803" /></g></svg>
