<?xml version="1.0" encoding="UTF-8" standalone="no"?>
<!-- Uploaded to: SVG Repo, www.svgrepo.com, Generator: SVG Repo Mixer Tools -->

<svg
   height="504.34784"
   width="800"
   version="1.1"
   id="Capa_1"
   viewBox="0 0 460 290"
   xml:space="preserve"
   sodipodi:docname="gizlilik-guvenlik-virus.svg"
   inkscape:version="1.2.2 (b0a8486541, 2022-12-01)"
   xmlns:inkscape="http://www.inkscape.org/namespaces/inkscape"
   xmlns:sodipodi="http://sodipodi.sourceforge.net/DTD/sodipodi-0.dtd"
   xmlns="http://www.w3.org/2000/svg"
   xmlns:svg="http://www.w3.org/2000/svg"><defs
   id="defs18" /><sodipodi:namedview
   id="namedview16"
   pagecolor="#ffffff"
   bordercolor="#000000"
   borderopacity="0.25"
   inkscape:showpageshadow="2"
   inkscape:pageopacity="0.0"
   inkscape:pagecheckerboard="0"
   inkscape:deskcolor="#d1d1d1"
   showgrid="false"
   inkscape:zoom="0.67375"
   inkscape:cx="347.30983"
   inkscape:cy="166.23377"
   inkscape:window-width="1366"
   inkscape:window-height="667"
   inkscape:window-x="0"
   inkscape:window-y="0"
   inkscape:window-maximized="1"
   inkscape:current-layer="Capa_1" />
<g
   id="XMLID_1445_"
   transform="translate(0,-85)">
	<g
   id="XMLID_1260_">
		<polyline
   id="XMLID_2403_"
   style="fill:#bdc3c7"
   points="70,325 70,116 390,116 390,325   " />
	</g>
	<g
   id="XMLID_21_">
		<polyline
   id="XMLID_2622_"
   style="fill:#ecf0f1"
   points="70,307.354 70,116 374.395,116 374.395,307.354   " />
	</g>
	<g
   id="XMLID_1259_">
		<path
   id="XMLID_2402_"
   style="fill:#3c5768"
   d="m 26.5,375 h 407 c 14.636,0 26.5,-11.864 26.5,-26.5 V 325 H 0 v 23.5 C 0,363.136 11.864,375 26.5,375 Z" />
	</g>
	<g
   id="XMLID_1258_">
		<path
   id="XMLID_2401_"
   style="fill:#8fa6b4"
   d="M 394,85 H 66 C 51.641,85 40,96.641 40,111 V 325 H 70 V 116 h 320 v 209 h 30 V 111 C 420,96.641 408.359,85 394,85 Z" />
	</g>
	
	<g
   id="XMLID_1178_">
		
	</g>
</g>
<g
   id="XMLID_992_"
   transform="matrix(0.22432614,0,0,0.22082666,134.68932,109.97765)">
	<g
   id="XMLID_897_">
		<path
   id="XMLID_3091_"
   style="fill:#894d2f"
   d="m 111.091,222.228 c -2.372,0 -4.7,-1.148 -6.114,-3.27 L 85.803,190.196 47.058,180.51 c -3.933,-0.983 -6.324,-4.968 -5.341,-8.901 0.983,-3.933 4.972,-6.325 8.901,-5.341 l 41.498,10.374 c 1.772,0.443 3.315,1.53 4.327,3.049 l 20.749,31.123 c 2.249,3.373 1.338,7.931 -2.036,10.179 -1.251,0.835 -2.666,1.235 -4.065,1.235 z" />
	</g>
	<g
   id="XMLID_899_">
		<path
   id="XMLID_3090_"
   style="fill:#894d2f"
   d="m 7.341,325.97 c -1.879,0 -3.757,-0.717 -5.19,-2.15 -2.867,-2.866 -2.867,-7.514 0,-10.381 l 41.497,-41.498 c 1.376,-1.377 3.243,-2.15 5.19,-2.15 h 51.872 c 4.054,0 7.34,3.286 7.34,7.34 0,4.054 -3.286,7.34 -7.34,7.34 H 51.878 L 12.531,323.82 c -1.433,1.433 -3.312,2.15 -5.19,2.15 z" />
	</g>
	<g
   id="XMLID_900_">
		<path
   id="XMLID_3089_"
   style="fill:#894d2f"
   d="m 48.832,429.715 c -1.103,0 -2.223,-0.249 -3.277,-0.777 -3.626,-1.813 -5.096,-6.222 -3.283,-9.848 l 20.749,-41.497 c 0.804,-1.608 2.17,-2.865 3.839,-3.533 l 51.872,-20.749 c 3.766,-1.508 8.037,0.326 9.542,4.089 1.506,3.764 -0.325,8.036 -4.089,9.542 l -49.281,19.713 -19.501,39.001 c -1.286,2.572 -3.878,4.059 -6.571,4.059 z" />
	</g>
	<g
   id="XMLID_903_">
		<path
   id="XMLID_3088_"
   style="fill:#894d2f"
   d="m 348.909,222.228 c -1.399,0 -2.814,-0.4 -4.065,-1.234 -3.373,-2.248 -4.285,-6.806 -2.036,-10.179 l 20.749,-31.123 c 1.013,-1.52 2.556,-2.607 4.327,-3.049 l 41.497,-10.374 c 3.929,-0.984 7.919,1.407 8.902,5.341 0.983,3.933 -1.408,7.918 -5.341,8.901 l -38.745,9.686 -19.175,28.762 c -1.413,2.121 -3.741,3.268 -6.113,3.269 z" />
	</g>
	<g
   id="XMLID_902_">
		<path
   id="XMLID_3087_"
   style="fill:#894d2f"
   d="m 452.659,325.97 c -1.879,0 -3.757,-0.716 -5.191,-2.15 L 408.121,284.472 H 359.29 c -4.054,0 -7.34,-3.286 -7.34,-7.34 0,-4.054 3.286,-7.34 7.34,-7.34 h 51.871 c 1.947,0 3.814,0.773 5.191,2.15 l 41.497,41.498 c 2.866,2.866 2.866,7.514 0,10.381 -1.432,1.432 -3.312,2.149 -5.19,2.149 z" />
	</g>
	<g
   id="XMLID_901_">
		<path
   id="XMLID_3086_"
   style="fill:#894d2f"
   d="m 411.168,429.715 c -2.692,0 -5.285,-1.487 -6.571,-4.059 l -19.501,-39.001 -49.28,-19.713 c -3.764,-1.505 -5.595,-5.777 -4.09,-9.542 1.505,-3.765 5.781,-5.596 9.542,-4.089 l 51.871,20.749 c 1.67,0.668 3.036,1.924 3.839,3.533 l 20.749,41.497 c 1.813,3.626 0.343,8.035 -3.282,9.848 -1.054,0.527 -2.174,0.777 -3.277,0.777 z" />
	</g>
	<g
   id="XMLID_906_">
		<path
   id="XMLID_3085_"
   style="fill:#894d2f"
   d="m 190.714,82.563 c -2.372,0 -4.7,-1.148 -6.114,-3.27 L 158.405,40 c -2.249,-3.373 -1.338,-7.931 2.036,-10.179 3.373,-2.248 7.931,-1.337 10.179,2.036 l 26.195,39.293 c 2.249,3.373 1.338,7.931 -2.036,10.179 -1.251,0.835 -2.666,1.234 -4.065,1.234 z" />
	</g>
	<g
   id="XMLID_904_">
		<path
   id="XMLID_3084_"
   style="fill:#894d2f"
   d="m 269.286,82.563 c -1.399,0 -2.814,-0.4 -4.065,-1.234 -3.373,-2.248 -4.285,-6.806 -2.036,-10.179 L 289.38,31.857 c 2.249,-3.373 6.807,-4.285 10.179,-2.036 3.373,2.248 4.285,6.806 2.036,10.179 L 275.4,79.293 c -1.414,2.122 -3.741,3.27 -6.114,3.27 z" />
	</g>
	<g
   id="XMLID_875_">
		<ellipse
   id="XMLID_1909_"
   style="fill:#a38671"
   cx="230"
   cy="271.686"
   rx="127.782"
   ry="159.72701" />
	</g>
	<g
   id="XMLID_907_">
		<ellipse
   id="XMLID_1908_"
   style="fill:#d8903a"
   cx="230"
   cy="271.686"
   rx="88.124001"
   ry="159.72701" />
	</g>
	<path
   id="XMLID_2030_"
   style="fill:#f0deb4"
   d="m 230,185.76 c -4.054,0 -7.34,3.286 -7.34,7.34 v 238.044 c 2.43,0.172 4.876,0.268 7.34,0.268 2.464,0 4.911,-0.096 7.34,-0.268 V 193.1 c 0,-4.054 -3.286,-7.34 -7.34,-7.34 z" />
	<g
   id="XMLID_898_">
		<path
   id="XMLID_1907_"
   style="fill:#704220"
   d="m 148.22,140.71 c 0,-35.462 36.614,-76.03 81.78,-76.03 45.166,0 81.78,40.568 81.78,76.03 0,35.462 -36.614,52.39 -81.78,52.39 -45.166,0 -81.78,-16.928 -81.78,-52.39 z" />
	</g>
	<path
   id="XMLID_2032_"
   style="opacity:0.49;fill:#d0d5d9"
   d="m 265.758,73.447 c 18.272,15.056 29.93,36.688 29.93,56.698 0,35.462 -36.614,52.39 -81.78,52.39 -19.673,0 -37.719,-3.214 -51.828,-9.77 14.682,13.687 39.62,20.335 67.92,20.335 45.166,0 81.78,-16.928 81.78,-52.39 0,-25.395 -18.777,-53.404 -46.022,-67.263 z" />
</g><g
   id="g384"
   transform="translate(12.374768,-79.85461)"><g
     id="XMLID_1101_">
		<path
   id="XMLID_2400_"
   style="fill:#86c867"
   d="M 281.608,268.011 230,297.04 178.392,268.01 c -11.018,-6.198 -17.837,-17.857 -17.837,-30.499 V 158.16 L 230,136.454 l 69.445,21.707 v 79.351 c 0,12.642 -6.818,24.301 -17.837,30.499 z" />
	</g><path
     id="XMLID_2399_"
     style="fill:#6aac4b"
     d="M 230,270.694 195.326,251.19 c -7.403,-4.164 -11.984,-11.997 -11.984,-20.491 V 177.385 L 230,162.8 Z" /></g><text
   xml:space="preserve"
   style="font-size:39.9472px;font-family:sans-serif;-inkscape-font-specification:sans-serif;text-align:center;text-anchor:middle;fill:#ffffff;stroke-width:0.749011"
   x="266.55963"
   y="236.81581"
   id="text879"
   transform="scale(0.85611014,1.168074)"><tspan
     sodipodi:role="line"
     id="tspan877"
     style="font-size:39.9472px;fill:#ffffff;stroke-width:0.749011"
     x="266.55963"
     y="236.81581">Antivirüs Program</tspan><tspan
     sodipodi:role="line"
     style="font-size:13.8px;fill:#ffffff;stroke-width:0.749011"
     x="266.55963"
     y="286.74982"
     id="tspan5507" /></text><text
   xml:space="preserve"
   style="font-size:23px;font-family:sans-serif;-inkscape-font-specification:sans-serif;text-align:center;text-anchor:middle;fill:#000000;stroke-width:0.575"
   x="111.16458"
   y="50.002331"
   id="text937"><tspan
     sodipodi:role="line"
     id="tspan935"
     style="font-size:23px;stroke-width:0.575"
     x="111.16458"
     y="50.002331" /><tspan
     sodipodi:role="line"
     style="font-size:23px;stroke-width:0.575"
     x="111.16458"
     y="78.752335"
     id="tspan988"> </tspan><tspan
     sodipodi:role="line"
     style="font-size:23px;stroke-width:0.575"
     x="111.16458"
     y="107.50233"
     id="tspan993"> </tspan><tspan
     sodipodi:role="line"
     style="font-size:23px;stroke-width:0.575"
     x="111.16458"
     y="136.25233"
     id="tspan996"> </tspan><tspan
     sodipodi:role="line"
     style="font-size:23px;stroke-width:0.575"
     x="111.16458"
     y="165.00233"
     id="tspan1000" /></text><text
   xml:space="preserve"
   style="font-size:23px;font-family:sans-serif;-inkscape-font-specification:sans-serif;text-align:center;text-anchor:middle;fill:#ff0000;stroke-width:0.575"
   x="109.12495"
   y="52.057178"
   id="text996"><tspan
     sodipodi:role="line"
     id="tspan994"
     style="stroke-width:0.575"
     x="109.12495"
     y="52.057178">Mcafee</tspan></text><text
   xml:space="preserve"
   style="font-size:23px;font-family:sans-serif;-inkscape-font-specification:sans-serif;text-align:center;text-anchor:middle;fill:#000000;stroke-width:0.575"
   x="93.760841"
   y="76.666885"
   id="text1001"><tspan
     sodipodi:role="line"
     id="tspan999"
     style="fill:#000000;stroke-width:0.575"
     x="93.760841"
     y="76.666885">AVG</tspan></text><text
   xml:space="preserve"
   style="font-size:23px;font-family:sans-serif;-inkscape-font-specification:sans-serif;text-align:center;text-anchor:middle;fill:#ff0000;stroke-width:0.575"
   x="98.907265"
   y="103.19347"
   id="text1005"><tspan
     sodipodi:role="line"
     id="tspan1003"
     style="stroke-width:0.575"
     x="98.907265"
     y="103.19347">Avira</tspan></text><text
   xml:space="preserve"
   style="font-size:23px;font-family:sans-serif;-inkscape-font-specification:sans-serif;text-align:center;text-anchor:middle;fill:#000000;stroke-width:0.575"
   x="104.00101"
   y="125.3875"
   id="text1009"><tspan
     sodipodi:role="line"
     id="tspan1007"
     style="stroke-width:0.575;fill:#000000"
     x="104.00101"
     y="125.3875">Panda</tspan></text><text
   xml:space="preserve"
   style="font-size:23px;font-family:sans-serif;-inkscape-font-specification:sans-serif;text-align:center;text-anchor:middle;fill:#ff0000;stroke-width:0.575"
   x="92.099121"
   y="148.57347"
   id="text1013"><tspan
     sodipodi:role="line"
     id="tspan1011"
     style="stroke-width:0.575"
     x="92.099121"
     y="148.57347">Eset</tspan></text></svg>
