<?xml version="1.0" encoding="iso-8859-1"?>
<!-- Uploaded to: SVG Repo, www.svgrepo.com, Generator: SVG Repo Mixer Tools -->
<svg version="1.1" id="Layer_1" xmlns="http://www.w3.org/2000/svg" xmlns:xlink="http://www.w3.org/1999/xlink" 
	 viewBox="0 0 512 512" xml:space="preserve">
<path style="fill:#E21B1B;" d="M380.216,512H131.784c-4.416,0-8-3.584-8-8V8c0-4.416,3.584-8,8-8h248.432c4.416,0,8,3.584,8,8v496
	C388.216,508.416,384.632,512,380.216,512z"/>
<path style="fill:#FFFFFF;" d="M363.744,495.08H148.256c-6.616-0.032-11.968-5.384-12-12V28.936c0.032-6.616,5.384-11.968,12-12
	h215.488c6.616,0.032,11.968,5.384,12,12v454.12C375.72,489.68,370.368,495.048,363.744,495.08z"/>
<rect x="153.6" y="34.808" width="204.8" height="371.28"/>
<circle style="fill:#FFFFFF;" cx="249.68" cy="392.4" r="3.536"/>
<g style="opacity:0.25;">
	<circle style="fill:#FFFFFF;" cx="262.32" cy="392.4" r="3.536"/>
</g>
<g>
	<path style="fill:#FFFFFF;" d="M225.84,45.928L225.84,45.928l-1.712,0.92l-0.288-1.008l2.144-1.16h1.136v9.84h-1.28V45.928z"/>
	<path style="fill:#FFFFFF;" d="M230.736,54.528v-0.8l1.056-1.024c2.512-2.4,3.648-3.656,3.656-5.144
		c0.096-0.96-0.6-1.824-1.56-1.92c-0.128-0.016-0.256-0.016-0.384,0c-0.768,0.024-1.504,0.304-2.096,0.8l-0.416-0.936
		c0.784-0.648,1.768-1.008,2.784-1c1.52-0.136,2.864,0.992,3,2.512c0.008,0.112,0.016,0.232,0.008,0.352
		c0,1.816-1.312,3.28-3.384,5.28l-0.8,0.728l0,0h4.416v1.104L230.736,54.528z"/>
	<path style="fill:#FFFFFF;" d="M238.64,48.408c0-0.496,0.4-0.896,0.896-0.896s0.896,0.4,0.896,0.896s-0.4,0.896-0.896,0.896
		S238.64,48.904,238.64,48.408z M238.64,53.752c0-0.496,0.4-0.896,0.896-0.896s0.896,0.4,0.896,0.896s-0.4,0.896-0.896,0.896
		S238.64,54.248,238.64,53.752z"/>
	<path style="fill:#FFFFFF;" d="M248.208,49.504c0,3.344-1.24,5.184-3.416,5.184c-1.928,0-3.2-1.8-3.264-5.056
		s1.424-5.128,3.424-5.128S248.208,46.4,248.208,49.504z M242.872,49.648c0,2.56,0.8,4,2,4c1.368,0,2.008-1.6,2.008-4.104
		s-0.616-4-2-4C243.72,45.544,242.872,46.976,242.872,49.648z"/>
	<path style="fill:#FFFFFF;" d="M256,49.504c0,3.344-1.24,5.184-3.416,5.184c-1.928,0-3.2-1.8-3.264-5.056s1.424-5.128,3.424-5.128
		S256,46.4,256,49.504z M250.656,49.648c0,2.56,0.8,4,2,4c1.368,0,2.008-1.6,2.008-4.104s-0.616-4-2-4
		C251.512,45.544,250.656,46.976,250.656,49.648z"/>
	<path style="fill:#FFFFFF;" d="M260.944,44.44c0.832-0.136,1.68-0.2,2.528-0.2c1.024-0.08,2.048,0.224,2.864,0.856
		c0.584,0.544,0.896,1.312,0.864,2.104c0.032,0.8-0.256,1.584-0.8,2.176c-0.848,0.776-1.968,1.176-3.112,1.112
		c-0.36,0.016-0.712-0.016-1.064-0.08v4.08h-1.32L260.944,44.44z M262.264,49.36c0.352,0.088,0.72,0.12,1.08,0.112
		c1.6,0,2.56-0.8,2.56-2.184s-0.944-1.992-2.4-1.992c-0.416-0.016-0.832,0.024-1.24,0.104V49.36z"/>
	<path style="fill:#FFFFFF;" d="M277.448,50.048c-0.072-1.424-0.168-3.136-0.16-4.408h-0.04c-0.344,1.2-0.8,2.472-1.288,3.872
		l-1.8,4.952h-0.992l-1.656-4.864c-0.48-1.44-0.896-2.76-1.176-4l0,0c0,1.272-0.104,2.976-0.2,4.512l-0.264,4.376h-1.264l0.72-10.2
		h1.68l1.736,4.928c0.424,1.264,0.8,2.4,1.032,3.44h0.04c0.264-1.032,0.624-2.144,1.072-3.44l1.824-4.928h1.68l0.632,10.2h-1.28
		L277.448,50.048z"/>
	<rect x="326.968" y="43.544" style="fill:#FFFFFF;" width="19.88" height="9.96"/>
	<rect x="328.72" y="45.256" style="fill:#FFFFFF;" width="16.408" height="6.536"/>
	<rect x="346.88" y="46.568" style="fill:#FFFFFF;" width="1.952" height="3.92"/>
</g>
<circle style="fill:#E21B1B;" cx="207.424" cy="106.856" r="36.728"/>
<g>
	<circle style="fill:#CCCBCA;" cx="304.56" cy="106.856" r="36.728"/>
	<circle style="fill:#CCCBCA;" cx="207.424" cy="212.608" r="36.728"/>
	<circle style="fill:#CCCBCA;" cx="304.56" cy="212.608" r="36.728"/>
	<circle style="fill:#CCCBCA;" cx="207.424" cy="318.368" r="36.728"/>
</g>
<circle style="fill:#E21B1B;" cx="304.56" cy="318.368" r="36.728"/>
<g>
	<path style="fill:#FFFFFF;" d="M198.304,157.792c-0.08-1.6-0.176-3.504-0.168-4.928h-0.056c-0.384,1.344-0.864,2.76-1.44,4.336
		l-2.008,5.528h-1.112l-1.84-5.424c-0.544-1.6-1-3.08-1.32-4.44l0,0c0,1.424-0.128,3.336-0.232,5.04l-0.304,4.896h-1.408l0.8-11.408
		h1.872l1.944,5.52c0.472,1.392,0.864,2.656,1.144,3.832h0.056c0.288-1.144,0.696-2.4,1.208-3.832l2.032-5.52h1.872L200,162.8h-1.44
		L198.304,157.792z"/>
	<path style="fill:#FFFFFF;" d="M209.168,160.568c0,0.856,0,1.6,0.064,2.24h-1.32l-0.08-1.336l0,0c-0.56,0.96-1.6,1.544-2.712,1.52
		c-1.28,0-2.824-0.712-2.824-3.592v-4.8h1.488v4.544c0,1.56,0.472,2.608,1.824,2.608c0.872-0.016,1.648-0.544,1.968-1.352
		c0.088-0.24,0.136-0.504,0.136-0.76v-5.032h1.488L209.168,160.568z"/>
	<path style="fill:#FFFFFF;" d="M211.432,161.288c0.592,0.368,1.272,0.568,1.968,0.592c1.08,0,1.6-0.544,1.6-1.216
		s-0.416-1.104-1.52-1.512c-1.472-0.52-2.168-1.336-2.168-2.32c0.064-1.392,1.24-2.48,2.632-2.416c0.064,0,0.128,0.008,0.192,0.016
		c0.704-0.008,1.4,0.168,2.024,0.496l-0.376,1.08c-0.504-0.312-1.088-0.472-1.68-0.472c-0.872,0-1.368,0.512-1.368,1.112
		s0.488,0.976,1.552,1.384c1.424,0.544,2.16,1.264,2.16,2.48c0,1.44-1.128,2.448-3.072,2.448c-0.8,0.016-1.592-0.176-2.304-0.552
		L211.432,161.288z"/>
	<path style="fill:#FFFFFF;" d="M220,152.312c0,0.512-0.416,0.92-0.92,0.92s-0.92-0.408-0.92-0.92
		c-0.016-0.496,0.376-0.92,0.872-0.936c0.016,0,0.04,0,0.056,0c0.488-0.016,0.896,0.376,0.912,0.864
		C220,152.264,220,152.288,220,152.312z M218.344,162.808v-8.2h1.488v8.2H218.344z"/>
	<path style="fill:#FFFFFF;" d="M228.136,162.504c-0.736,0.328-1.544,0.488-2.352,0.472c-2.144,0.104-3.968-1.544-4.08-3.688
		c-0.008-0.16-0.008-0.328,0.008-0.488c-0.112-2.296,1.664-4.248,3.96-4.352c0.144-0.008,0.288-0.008,0.432,0
		c0.712-0.008,1.424,0.136,2.072,0.424l-0.344,1.144c-0.536-0.272-1.128-0.408-1.728-0.384c-1.704,0.136-2.976,1.624-2.84,3.328
		c0.12,1.496,1.296,2.696,2.784,2.84c0.632,0,1.264-0.144,1.832-0.416L228.136,162.504z"/>
	<path style="fill:#FFFFFF;" d="M285.08,162.808l-3.728-11.408h1.6l1.784,5.6c0.488,1.544,0.92,2.928,1.216,4.272l0,0
		c0.32-1.32,0.8-2.76,1.304-4.248l1.928-5.6h1.6l-4.08,11.408L285.08,162.808z"/>
	<path style="fill:#FFFFFF;" d="M293.36,152.312c0,0.512-0.416,0.92-0.92,0.92c-0.504,0-0.92-0.408-0.92-0.92
		c-0.016-0.496,0.376-0.92,0.872-0.936c0.016,0,0.04,0,0.056,0c0.488-0.016,0.896,0.376,0.912,0.864
		C293.36,152.264,293.36,152.288,293.36,152.312z M291.704,162.808v-8.2h1.488v8.2H291.704z"/>
	<path style="fill:#FFFFFF;" d="M302.736,150.784v9.904c0,0.728,0,1.552,0.064,2.112h-1.336l-0.072-1.424l0,0
		c-0.544,1.024-1.632,1.648-2.792,1.6c-2.064-0.12-3.64-1.888-3.52-3.952c0.008-0.072,0.008-0.144,0.016-0.216
		c-0.272-2.144,1.248-4.096,3.392-4.368c0.088-0.008,0.176-0.016,0.272-0.024c0.992-0.064,1.936,0.416,2.48,1.248l0,0v-4.896
		L302.736,150.784z M301.24,157.984c0-0.216-0.024-0.424-0.072-0.632c-0.224-1.008-1.112-1.72-2.144-1.72
		c-1.544,0-2.456,1.352-2.456,3.2c0,1.656,0.8,3.032,2.4,3.032c1.088,0,2.024-0.792,2.2-1.864c0.056-0.208,0.08-0.432,0.072-0.648
		V157.984z"/>
	<path style="fill:#FFFFFF;" d="M306.032,158.984c-0.12,1.448,0.96,2.72,2.408,2.84c0.136,0.008,0.272,0.008,0.408,0
		c0.776,0.024,1.552-0.12,2.272-0.424l0.248,1.064c-0.864,0.36-1.792,0.536-2.728,0.512c-2.096,0.12-3.888-1.48-4.008-3.576
		c-0.008-0.184-0.008-0.368,0.008-0.552c-0.232-2.2,1.36-4.168,3.56-4.4c0.096-0.008,0.184-0.016,0.28-0.016
		c1.92,0.04,3.44,1.624,3.408,3.536c0,0.104-0.008,0.216-0.024,0.32c-0.008,0.232-0.024,0.464-0.056,0.696L306.032,158.984z
		 M310.408,157.912c0.152-1.168-0.672-2.232-1.84-2.384c-0.08-0.008-0.152-0.016-0.232-0.016c-1.264,0.088-2.256,1.128-2.28,2.4
		L310.408,157.912L310.408,157.912z"/>
	<path style="fill:#FFFFFF;" d="M321.096,158.64c0.192,2.2-1.432,4.144-3.632,4.336c-0.144,0.016-0.296,0.016-0.44,0.016
		c-2.152,0.024-3.912-1.696-3.944-3.848c0-0.12,0-0.24,0.016-0.368c-0.192-2.2,1.44-4.136,3.64-4.328
		c0.144-0.016,0.28-0.016,0.424-0.016c2.136-0.04,3.904,1.656,3.952,3.792C321.112,158.36,321.112,158.504,321.096,158.64z
		 M314.6,158.72c0,1.8,1.04,3.2,2.488,3.2s2.488-1.344,2.488-3.2c0-1.384-0.688-3.144-2.456-3.144S314.6,157.168,314.6,158.72z"/>
	<path style="fill:#FFFFFF;" d="M322.784,161.288c0.592,0.368,1.272,0.568,1.968,0.592c1.08,0,1.6-0.544,1.6-1.216
		s-0.416-1.104-1.52-1.512c-1.472-0.52-2.168-1.336-2.168-2.32c0.064-1.392,1.24-2.48,2.632-2.416c0.064,0,0.128,0.008,0.192,0.016
		c0.704-0.008,1.4,0.168,2.024,0.496l-0.376,1.08c-0.504-0.312-1.088-0.472-1.68-0.472c-0.872,0-1.368,0.512-1.368,1.112
		s0.488,0.976,1.552,1.384c1.424,0.544,2.16,1.264,2.16,2.48c0,1.44-1.128,2.448-3.072,2.448c-0.808,0.016-1.616-0.176-2.328-0.56
		L322.784,161.288z"/>
	<path style="fill:#FFFFFF;" d="M275.032,258.4c0.936-0.152,1.88-0.224,2.832-0.216c1.144-0.088,2.288,0.248,3.2,0.944
		c0.672,0.616,1.04,1.488,1,2.4c0.048,0.896-0.272,1.776-0.888,2.44c-0.944,0.872-2.2,1.32-3.48,1.248
		c-0.4,0.008-0.792-0.024-1.184-0.104v4.576h-1.48V258.4z M276.512,263.904c0.4,0.088,0.808,0.12,1.216,0.112
		c1.784,0,2.864-0.864,2.864-2.44s-1.072-2.232-2.696-2.232c-0.464-0.008-0.928,0.032-1.384,0.112V263.904z"/>
	<path style="fill:#FFFFFF;" d="M290.984,265.48c0.192,2.2-1.432,4.144-3.632,4.336c-0.144,0.016-0.296,0.016-0.44,0.016
		c-2.152,0.024-3.912-1.696-3.944-3.848c0-0.12,0-0.24,0.016-0.368c-0.192-2.2,1.44-4.136,3.64-4.328
		c0.144-0.016,0.28-0.016,0.424-0.016c2.136-0.04,3.904,1.656,3.952,3.792C291,265.2,291,265.344,290.984,265.48z M284.48,265.568
		c0,1.8,1.032,3.2,2.488,3.2s2.488-1.344,2.488-3.2c0-1.384-0.696-3.144-2.448-3.144S284.48,264,284.48,265.6V265.568z"/>
	<path style="fill:#FFFFFF;" d="M299.944,257.6v9.904c0,0.728,0,1.552,0.064,2.112h-1.336L298.6,268.2l0,0
		c-0.552,1.024-1.632,1.64-2.792,1.6c-2.064-0.12-3.64-1.888-3.52-3.952c0.008-0.072,0.008-0.144,0.016-0.216
		c-0.272-2.136,1.24-4.096,3.376-4.368c0.096-0.016,0.192-0.024,0.288-0.024c0.992-0.064,1.944,0.416,2.48,1.248l0,0V257.6H299.944z
		 M298.448,264.8c0-0.208-0.024-0.416-0.072-0.624c-0.216-1.016-1.112-1.736-2.144-1.728c-1.544,0-2.456,1.352-2.456,3.2
		c0,1.656,0.8,3.024,2.4,3.024c1.056,0,1.96-0.736,2.176-1.768c0.056-0.208,0.08-0.432,0.072-0.648L298.448,264.8z"/>
	<path style="fill:#FFFFFF;" d="M308.256,269.344c-0.736,0.328-1.544,0.488-2.352,0.472c-2.144,0.104-3.968-1.544-4.08-3.688
		c-0.008-0.16-0.008-0.328,0.008-0.488c-0.112-2.296,1.664-4.248,3.96-4.352c0.144-0.008,0.288-0.008,0.432,0
		c0.712-0.008,1.416,0.136,2.064,0.424l-0.336,1.144c-0.536-0.272-1.128-0.408-1.728-0.384c-1.568-0.04-2.872,1.2-2.904,2.768
		c0,0.112,0,0.216,0.008,0.328c-0.144,1.544,0.992,2.912,2.536,3.056c0.096,0.008,0.2,0.016,0.304,0.008
		c0.632,0,1.256-0.128,1.832-0.392L308.256,269.344z"/>
	<path style="fill:#FFFFFF;" d="M314.536,269.648l-0.112-1.032H314.4c-0.592,0.792-1.528,1.24-2.512,1.216
		c-1.28,0.096-2.4-0.872-2.488-2.152c-0.008-0.064-0.008-0.136-0.008-0.2c0-1.976,1.76-3.064,4.928-3.04v-0.176
		c0.12-0.928-0.528-1.768-1.456-1.896c-0.136-0.016-0.272-0.016-0.408,0c-0.752,0.008-1.496,0.216-2.136,0.616l-0.336-0.976
		c0.808-0.488,1.744-0.744,2.688-0.728c2.512,0,3.112,1.712,3.112,3.344v3.072c-0.008,0.656,0.032,1.312,0.136,1.96L314.536,269.648
		z M314.312,265.472c-1.6-0.04-3.472,0.248-3.472,1.84c-0.056,0.728,0.488,1.36,1.216,1.416c0.064,0.008,0.128,0.008,0.192,0
		c0.888,0.024,1.688-0.528,1.976-1.368c0.056-0.152,0.08-0.32,0.08-0.48L314.312,265.472L314.312,265.472z"/>
	<path style="fill:#FFFFFF;" d="M317.96,268.128c0.592,0.368,1.272,0.568,1.968,0.592c1.08,0,1.6-0.544,1.6-1.216
		s-0.416-1.104-1.52-1.512c-1.472-0.52-2.168-1.336-2.168-2.32c0.064-1.392,1.24-2.48,2.632-2.416c0.064,0,0.128,0.008,0.2,0.016
		c0.704-0.008,1.392,0.168,2.008,0.496l-0.376,1.08c-0.504-0.312-1.088-0.472-1.68-0.472c-0.872,0-1.368,0.512-1.368,1.112
		s0.488,0.976,1.552,1.384c1.424,0.544,2.144,1.264,2.144,2.48c0,1.44-1.112,2.448-3.064,2.448c-0.8,0.016-1.592-0.176-2.304-0.552
		L317.96,268.128z"/>
	<path style="fill:#FFFFFF;" d="M326.672,259.104v2.352h2.128v1.128h-2.136V267c0,1.024,0.28,1.6,1.112,1.6
		c0.288,0,0.584-0.032,0.864-0.096l0.072,1.112c-0.424,0.144-0.872,0.208-1.32,0.2c-0.6,0.032-1.184-0.192-1.6-0.624
		c-0.448-0.616-0.656-1.376-0.576-2.136v-4.472h-1.272v-1.128h1.272v-1.968L326.672,259.104z"/>
	<path style="fill:#FFFFFF;" d="M330.272,268.128c0.592,0.368,1.272,0.568,1.968,0.592c1.08,0,1.6-0.544,1.6-1.216
		s-0.416-1.104-1.52-1.512c-1.472-0.52-2.168-1.336-2.168-2.32c0.064-1.392,1.24-2.48,2.632-2.416c0.064,0,0.128,0.008,0.2,0.016
		c0.704-0.008,1.392,0.168,2.008,0.496l-0.376,1.08c-0.504-0.312-1.088-0.472-1.68-0.472c-0.872,0-1.368,0.512-1.368,1.112
		s0.488,0.976,1.552,1.384c1.424,0.544,2.144,1.264,2.144,2.48c0,1.44-1.112,2.448-3.064,2.448c-0.8,0.016-1.592-0.176-2.304-0.552
		L330.272,268.128z"/>
	<path style="fill:#FFFFFF;" d="M184.992,258.24h6.136v1.232h-4.664v3.792h4.312v1.216h-4.312v5.168h-1.472V258.24z"/>
	<path style="fill:#FFFFFF;" d="M194.4,259.152c0,0.512-0.408,0.92-0.92,0.92s-0.92-0.408-0.92-0.92l0,0
		c-0.016-0.496,0.384-0.912,0.88-0.928c0.016,0,0.032,0,0.048,0c0.488-0.016,0.896,0.36,0.912,0.848
		C194.4,259.096,194.4,259.128,194.4,259.152z M192.744,269.648v-8.184h1.488v8.184H192.744z"/>
	<path style="fill:#FFFFFF;" d="M198.504,259.104v2.352h2.136v1.128h-2.136V267c0,1.024,0.28,1.6,1.112,1.6
		c0.288,0,0.584-0.032,0.864-0.096l0.072,1.112c-0.424,0.144-0.872,0.208-1.32,0.2c-0.6,0.032-1.184-0.192-1.6-0.624
		c-0.448-0.616-0.656-1.376-0.576-2.136v-4.472h-1.272v-1.128h1.272v-1.968L198.504,259.104z"/>
	<path style="fill:#FFFFFF;" d="M202.312,263.672c0-0.8,0-1.544-0.072-2.208h1.32l0.08,1.352l0,0
		c0.544-0.984,1.592-1.576,2.712-1.544c1.136,0,2.896,0.68,2.896,3.48v4.896h-1.488v-4.72c0-1.32-0.488-2.4-1.896-2.4
		c-0.928,0.016-1.736,0.632-2,1.52c-0.064,0.224-0.104,0.464-0.096,0.696v4.928h-1.488L202.312,263.672z"/>
	<path style="fill:#FFFFFF;" d="M212.536,265.824c-0.12,1.448,0.96,2.72,2.408,2.84c0.136,0.008,0.272,0.008,0.408,0
		c0.776,0.024,1.552-0.12,2.272-0.424l0.248,1.072c-0.864,0.352-1.792,0.52-2.728,0.496c-2.096,0.12-3.888-1.48-4.008-3.576
		c-0.008-0.184-0.008-0.368,0.008-0.552c-0.232-2.2,1.36-4.168,3.56-4.4c0.096-0.008,0.184-0.016,0.28-0.016
		c1.92,0.04,3.44,1.624,3.408,3.536c0,0.104-0.008,0.216-0.024,0.32c-0.008,0.232-0.024,0.464-0.056,0.696L212.536,265.824z
		 M216.912,264.752c0.152-1.168-0.672-2.232-1.84-2.384c-0.08-0.008-0.152-0.016-0.232-0.016c-1.264,0.088-2.256,1.128-2.28,2.4
		H216.912z"/>
	<path style="fill:#FFFFFF;" d="M220,268.128c0.592,0.368,1.272,0.568,1.968,0.592c1.08,0,1.6-0.544,1.6-1.216
		s-0.416-1.104-1.52-1.512c-1.472-0.52-2.168-1.336-2.168-2.32c0.064-1.392,1.24-2.48,2.632-2.416c0.064,0,0.128,0.008,0.2,0.016
		c0.704-0.008,1.392,0.168,2.008,0.496l-0.376,1.08c-0.504-0.312-1.088-0.472-1.68-0.472c-0.872,0-1.368,0.512-1.368,1.112
		s0.488,0.976,1.552,1.384c1.424,0.544,2.144,1.264,2.144,2.48c0,1.44-1.112,2.448-3.064,2.448c-0.8,0.016-1.592-0.176-2.304-0.552
		L220,268.128z"/>
	<path style="fill:#FFFFFF;" d="M226.688,268.128c0.592,0.368,1.272,0.568,1.968,0.592c1.08,0,1.6-0.544,1.6-1.216
		s-0.416-1.104-1.52-1.512c-1.472-0.52-2.168-1.336-2.168-2.32c0.064-1.392,1.24-2.48,2.632-2.416c0.064,0,0.128,0.008,0.2,0.016
		c0.704-0.008,1.392,0.168,2.008,0.496l-0.376,1.08c-0.504-0.312-1.088-0.472-1.68-0.472c-0.872,0-1.368,0.512-1.368,1.112
		s0.488,0.976,1.552,1.384c1.424,0.544,2.144,1.264,2.144,2.48c0,1.44-1.112,2.448-3.064,2.448c-0.8,0.016-1.592-0.176-2.304-0.552
		L226.688,268.128z"/>
	<path style="fill:#FFFFFF;" d="M184.76,365.232c0.936-0.152,1.88-0.224,2.824-0.216c1.144-0.088,2.288,0.248,3.2,0.944
		c0.672,0.616,1.04,1.488,1,2.4c0.048,0.896-0.272,1.776-0.888,2.44c-0.944,0.872-2.2,1.32-3.48,1.248
		c-0.4,0.008-0.792-0.024-1.184-0.104v4.576h-1.472V365.232z M186.232,370.736c0.4,0.088,0.808,0.12,1.216,0.112
		c1.768,0,2.856-0.864,2.856-2.44s-1.064-2.232-2.688-2.232c-0.464-0.008-0.928,0.032-1.384,0.112V370.736z"/>
	<path style="fill:#FFFFFF;" d="M193.64,364.48h1.488v5.12l0,0c0.256-0.44,0.624-0.808,1.064-1.056
		c0.464-0.264,0.984-0.408,1.52-0.416c1.104,0,2.864,0.68,2.864,3.504v4.872h-1.456v-4.712c0-1.312-0.488-2.44-1.896-2.44
		c-0.912,0.024-1.72,0.616-2,1.488c-0.08,0.232-0.112,0.48-0.096,0.72v4.936h-1.488V364.48z"/>
	<path style="fill:#FFFFFF;" d="M210.44,372.336c0.192,2.2-1.432,4.144-3.632,4.336c-0.144,0.016-0.296,0.016-0.44,0.016
		c-2.152,0.024-3.912-1.696-3.944-3.848c0-0.12,0-0.24,0.016-0.368c-0.192-2.2,1.44-4.136,3.64-4.328
		c0.144-0.016,0.28-0.016,0.424-0.016c2.136-0.04,3.904,1.656,3.952,3.792C210.456,372.056,210.456,372.2,210.44,372.336z
		 M203.944,372.424c0,1.8,1.032,3.2,2.488,3.2s2.488-1.344,2.488-3.2c0-1.384-0.696-3.144-2.448-3.144
		S203.944,370.872,203.944,372.424z"/>
	<path style="fill:#FFFFFF;" d="M214.12,365.96v2.352h2.136v1.128h-2.136v4.416c0,1.024,0.288,1.6,1.112,1.6
		c0.288,0,0.584-0.032,0.864-0.096l0.064,1.112c-0.424,0.144-0.864,0.216-1.312,0.2c-0.6,0.032-1.184-0.2-1.6-0.624
		c-0.448-0.616-0.656-1.376-0.576-2.136v-4.472H211.4v-1.128h1.272v-1.968L214.12,365.96z"/>
	<path style="fill:#FFFFFF;" d="M225.232,372.336c0.192,2.2-1.432,4.144-3.632,4.336c-0.144,0.016-0.296,0.016-0.44,0.016
		c-2.152,0.024-3.912-1.696-3.944-3.848c0-0.12,0-0.24,0.016-0.368c-0.192-2.2,1.44-4.136,3.64-4.328
		c0.144-0.016,0.28-0.016,0.424-0.016c2.136-0.04,3.904,1.656,3.952,3.792C225.248,372.056,225.248,372.2,225.232,372.336z
		 M218.736,372.424c0,1.8,1.032,3.2,2.488,3.2s2.488-1.344,2.488-3.2c0-1.384-0.696-3.144-2.448-3.144
		S218.736,370.872,218.736,372.424z"/>
	<path style="fill:#FFFFFF;" d="M226.92,374.984c0.592,0.368,1.272,0.568,1.968,0.592c1.08,0,1.6-0.544,1.6-1.216
		s-0.416-1.104-1.52-1.512c-1.472-0.52-2.168-1.336-2.168-2.32c0.064-1.392,1.24-2.48,2.632-2.416c0.064,0,0.128,0.008,0.2,0.016
		c0.704-0.008,1.392,0.168,2.008,0.496l-0.376,1.08c-0.504-0.312-1.088-0.472-1.68-0.472c-0.872,0-1.368,0.512-1.368,1.112
		s0.488,0.976,1.552,1.384c1.424,0.544,2.144,1.264,2.144,2.48c0,1.44-1.112,2.448-3.064,2.448c-0.8,0.016-1.592-0.176-2.304-0.552
		L226.92,374.984z"/>
	<path style="fill:#FFFFFF;" d="M286.016,365.24c0.936-0.16,1.88-0.24,2.832-0.232c1.176-0.12,2.36,0.208,3.304,0.928
		c0.6,0.56,0.92,1.352,0.896,2.168c0.016,1.344-0.864,2.544-2.16,2.92v0.04c0.928,0.416,1.568,1.288,1.68,2.304
		c0.2,1.072,0.496,2.12,0.888,3.136h-1.52c-0.352-0.88-0.624-1.792-0.8-2.728c-0.336-1.6-0.936-2.168-2.28-2.208h-1.384v4.936h-1.48
		V365.24H286.016z M287.496,370.44H289c1.6,0,2.584-0.864,2.584-2.168c0-1.472-1.072-2.112-2.624-2.128
		c-0.488-0.016-0.976,0.032-1.456,0.128v4.168H287.496z"/>
	<path style="fill:#FFFFFF;" d="M299.816,376.504l-0.112-1.032h-0.056c-0.592,0.784-1.528,1.24-2.512,1.216
		c-1.28,0.096-2.4-0.872-2.488-2.152c-0.008-0.064-0.008-0.136-0.008-0.2c0-1.976,1.76-3.064,4.928-3.04v-0.176
		c0.12-0.928-0.528-1.768-1.456-1.896c-0.136-0.016-0.272-0.016-0.408,0c-0.752,0-1.496,0.216-2.136,0.616l-0.336-0.976
		c0.808-0.488,1.744-0.744,2.688-0.728c2.512,0,3.112,1.712,3.112,3.344v3.072c-0.008,0.656,0.032,1.312,0.136,1.96L299.816,376.504
		z M299.6,372.328c-1.6-0.04-3.472,0.248-3.472,1.84c-0.056,0.728,0.488,1.36,1.216,1.416c0.064,0.008,0.128,0.008,0.192,0
		c0.888,0.024,1.688-0.528,1.976-1.368c0.056-0.152,0.08-0.32,0.08-0.48L299.6,372.328L299.6,372.328z"/>
	<path style="fill:#FFFFFF;" d="M310.512,364.48v9.92c0,0.728,0,1.552,0.064,2.112h-1.336l-0.064-1.416h-0.04
		c-0.552,1.024-1.632,1.64-2.792,1.6c-2.064-0.12-3.64-1.888-3.52-3.952c0.008-0.072,0.008-0.144,0.016-0.216
		c-0.272-2.136,1.24-4.096,3.376-4.368c0.096-0.016,0.192-0.024,0.288-0.024c0.992-0.064,1.944,0.416,2.48,1.248l0,0v-4.904H310.512
		z M309.024,371.68c0-0.208-0.024-0.416-0.072-0.624c-0.216-1.016-1.112-1.736-2.144-1.728c-1.544,0-2.456,1.352-2.456,3.2
		c0,1.656,0.8,3.024,2.4,3.024c1.056,0,1.96-0.736,2.176-1.768c0.056-0.208,0.08-0.432,0.072-0.648L309.024,371.68z"/>
	<path style="fill:#FFFFFF;" d="M314.648,366c0,0.512-0.408,0.92-0.92,0.92c-0.512,0-0.92-0.408-0.92-0.92l0,0
		c-0.016-0.496,0.384-0.912,0.88-0.928c0.016,0,0.032,0,0.048,0c0.488-0.016,0.896,0.376,0.912,0.864
		C314.648,365.96,314.648,365.976,314.648,366z M312.992,376.504v-8.184h1.488v8.184H312.992z"/>
	<path style="fill:#FFFFFF;" d="M324.368,372.336c0.192,2.2-1.432,4.144-3.632,4.336c-0.144,0.016-0.296,0.016-0.44,0.016
		c-2.152,0.024-3.912-1.696-3.944-3.848c0-0.12,0-0.24,0.016-0.368c-0.192-2.2,1.44-4.136,3.64-4.328
		c0.144-0.016,0.28-0.016,0.424-0.016c2.136-0.04,3.904,1.656,3.952,3.792C324.384,372.056,324.384,372.2,324.368,372.336z
		 M317.872,372.424c0,1.8,1.04,3.2,2.488,3.2s2.488-1.344,2.488-3.2c0-1.384-0.688-3.144-2.456-3.144
		S317.872,370.872,317.872,372.424z"/>
	<path style="fill:#FFFFFF;" d="M207.424,281.6c-20.288,0-36.728,16.44-36.728,36.728c0,0.144,0,0.28,0,0.424
		c24.008,6.616,49.368,6.616,73.376,0c0-0.152,0-0.288,0-0.432C244.064,298.072,227.672,281.648,207.424,281.6z"/>
</g>
<g style="opacity:0.25;">
	<path style="fill:#FFFFFF;" d="M304.576,281.6c-20.288,0-36.728,16.44-36.728,36.728c0,0.144,0.04,0.28,0.04,0.424
		c24.008,6.616,49.368,6.616,73.376,0c0-0.152,0.04-0.288,0.04-0.432C341.296,298.04,324.856,281.6,304.576,281.6z"/>
</g>
<g>
	<path style="fill:#FFFFFF;" d="M207.424,175.816c-20.288,0-36.728,16.44-36.728,36.728c0,0.144,0,0.28,0,0.424
		c24.008,6.616,49.368,6.616,73.376,0c0-0.152,0-0.288,0-0.432C244.064,192.288,227.672,175.864,207.424,175.816z"/>
	<path style="fill:#FFFFFF;" d="M304.576,175.816c-20.288,0-36.728,16.44-36.728,36.728c0,0.144,0.04,0.28,0.04,0.424
		c24.008,6.616,49.368,6.616,73.376,0c0-0.152,0.04-0.288,0.04-0.432C341.296,192.256,324.856,175.816,304.576,175.816z"/>
</g>
<g style="opacity:0.25;">
	<path style="fill:#FFFFFF;" d="M207.424,70.128c-20.288,0-36.728,16.44-36.728,36.728c0,0.144,0,0.28,0,0.424
		c24.008,6.616,49.368,6.616,73.376,0c0-0.152,0-0.288,0-0.432C244.064,86.6,227.672,70.176,207.424,70.128z"/>
</g>
<path style="fill:#FFFFFF;" d="M304.576,70.128c-20.288,0-36.728,16.44-36.728,36.728c0,0.144,0.04,0.28,0.04,0.424
	c24.008,6.616,49.368,6.616,73.376,0c0-0.152,0.04-0.288,0.04-0.432C341.296,86.568,324.856,70.128,304.576,70.128z"/>
<circle style="fill:#AAAAAA;" cx="255.664" cy="450.48" r="30.224"/>
<path style="fill:#FFFFFF;" d="M255.672,464.288c-7.6,0-13.768-6.168-13.768-13.768s6.168-13.768,13.768-13.768
	s13.768,6.168,13.768,13.768C269.432,458.12,263.272,464.28,255.672,464.288z M255.672,439.408c-6.136,0-11.104,4.968-11.104,11.104
	c0,6.136,4.968,11.104,11.104,11.104c6.136,0,11.104-4.968,11.104-11.104C266.768,444.384,261.8,439.416,255.672,439.408z"/>
</svg>