<?xml version="1.0" encoding="UTF-8" standalone="no"?>
<!-- Uploaded to: SVG Repo, www.svgrepo.com, Generator: SVG Repo Mixer Tools -->

<svg
   height="800px"
   width="800px"
   version="1.1"
   id="Layer_1"
   viewBox="0 0 489.7 489.7"
   xml:space="preserve"
   sodipodi:docname="network-svgrepo-com.svg"
   inkscape:version="1.2.2 (b0a8486541, 2022-12-01)"
   xmlns:inkscape="http://www.inkscape.org/namespaces/inkscape"
   xmlns:sodipodi="http://sodipodi.sourceforge.net/DTD/sodipodi-0.dtd"
   xmlns="http://www.w3.org/2000/svg"
   xmlns:svg="http://www.w3.org/2000/svg"><defs
   id="defs646" /><sodipodi:namedview
   id="namedview644"
   pagecolor="#ffffff"
   bordercolor="#000000"
   borderopacity="0.25"
   inkscape:showpageshadow="2"
   inkscape:pageopacity="0.0"
   inkscape:pagecheckerboard="0"
   inkscape:deskcolor="#d1d1d1"
   showgrid="false"
   inkscape:zoom="0.67375"
   inkscape:cx="385.89981"
   inkscape:cy="283.48794"
   inkscape:window-width="1366"
   inkscape:window-height="675"
   inkscape:window-x="0"
   inkscape:window-y="0"
   inkscape:window-maximized="1"
   inkscape:current-layer="Layer_1" />
<g
   id="g641">
	<g
   id="g639">
		<path
   id="XMLID_1284_"
   style="fill:#3C92CA;"
   d="M17.1,357.45h107.7c4.4,0,8.1,3.6,8.1,8.1v65.8c0,4.4-3.6,8.1-8.1,8.1H17.1    c-4.4,0-8.1-3.6-8.1-8.1v-65.8C9,361.05,12.7,357.45,17.1,357.45z" />
		<path
   id="XMLID_1282_"
   style="fill:#3C92CA;"
   d="M365,357.45h107.7c4.4,0,8.1,3.6,8.1,8.1v65.8c0,4.4-3.6,8.1-8.1,8.1H365    c-4.4,0-8.1-3.6-8.1-8.1v-65.8C357,361.05,360.6,357.45,365,357.45z" />
		<path
   d="M116.6,448.45c14,0,25.3-11.4,25.3-25.3v-49.4c0-14-11.4-25.3-25.3-25.3H80v-67.8h155.8v67.8h-36.6    c-14,0-25.3,11.4-25.3,25.3v49.4c0,14,11.4,25.3,25.3,25.3h91.3c14,0,25.3-11.4,25.3-25.3v-49.4c0-14-11.4-25.3-25.3-25.3h-36.6    v-67.8h155.8v67.8h-36.6c-14,0-25.3,11.4-25.3,25.3v49.4c0,14,11.4,25.3,25.3,25.3h91.3c14,0,25.3-11.4,25.3-25.3v-49.4    c0-14-11.4-25.3-25.3-25.3h-36.5v-76.8c0-5-4.1-9.1-9.1-9.1H254v-47.3h74c18.3,0,33.2-14.9,33.2-33.2V74.45    c0-18.3-14.9-33.2-33.2-33.2H161.8c-18.3,0-33.2,14.9-33.2,33.2v107.5c0,18.3,14.9,33.2,33.2,33.2h74v47.3H70.9    c-5,0-9.1,4.1-9.1,9.1v76.8H25.3c-14,0-25.3,11.4-25.3,25.3v49.4c0,14,11.4,25.3,25.3,25.3h91.3    C116.6,448.35,116.6,448.45,116.6,448.45z M297.7,373.75v49.4c0,4-3.2,7.2-7.2,7.2h-91.3c-4,0-7.2-3.2-7.2-7.2v-49.4    c0-4,3.2-7.2,7.2-7.2h91.3C294.5,366.45,297.7,369.75,297.7,373.75z M471.7,373.75v49.4c0,4-3.2,7.2-7.2,7.2h-91.3    c-4,0-7.2-3.2-7.2-7.2v-49.4c0-4,3.2-7.2,7.2-7.2h91.3C468.5,366.45,471.7,369.75,471.7,373.75z M146.7,181.95V74.45    c0-8.3,6.8-15.1,15.1-15.1H328c8.3,0,15.1,6.8,15.1,15.1v107.5c0,8.3-6.8,15.1-15.1,15.1H161.8    C153.5,197.05,146.7,190.25,146.7,181.95z M18.1,423.15v-49.4c0-4,3.2-7.2,7.2-7.2h91.3c4,0,7.2,3.2,7.2,7.2v49.4    c0,4-3.2,7.2-7.2,7.2H25.3C21.3,430.35,18.1,427.15,18.1,423.15z"
   id="path637" />
	</g>
</g>
<g
   aria-label="Modem"
   transform="matrix(0.78888169,0,0,1.2676172,0,-11.765669)"
   id="text1637"
   style="font-weight:bold;font-size:50.3745px;-inkscape-font-specification:'sans-serif, Bold';stroke-width:0.0901354"><path
     d="m 241.52024,122.66634 -8.66441,-28.209716 h -0.2015 q 0.0504,1.00749 0.15112,3.02247 0.10075,2.01498 0.2015,4.332206 0.10075,2.26685 0.10075,4.13071 v 16.72433 h -6.80056 V 86.69895 h 10.37715 l 8.51329,27.50448 h 0.15112 l 9.01704,-27.50448 h 10.37715 v 35.96739 h -7.10281 v -17.02658 q 0,-1.71273 0.0504,-3.92921 0.10075,-2.216476 0.15112,-4.181082 0.10075,-2.01498 0.15112,-3.02247 h -0.20149 l -9.26891,28.159342 z"
     id="path1639" /><path
     d="m 298.19159,108.86373 q 0,6.85093 -3.62696,10.57865 -3.57659,3.72771 -9.77265,3.72771 -3.82847,0 -6.85094,-1.66236 -2.97209,-1.66236 -4.68482,-4.83595 -1.71274,-3.22397 -1.71274,-7.80805 0,-6.85093 3.57659,-10.52827 3.57659,-3.677338 9.82303,-3.677338 3.87884,0 6.85093,1.662358 2.9721,1.662359 4.68483,4.83595 1.71273,3.12322 1.71273,7.7073 z m -18.99118,0 q 0,4.08034 1.30973,6.19606 1.36012,2.06536 4.38259,2.06536 2.97209,0 4.28183,-2.06536 1.36011,-2.11572 1.36011,-6.19606 0,-4.08033 -1.36011,-6.09531 -1.30974,-2.06536 -4.33221,-2.06536 -2.97209,0 -4.33221,2.06536 -1.30973,2.01498 -1.30973,6.09531 z"
     id="path1641" /><path
     d="m 313.10242,123.17009 q -4.58408,0 -7.5058,-3.57659 -2.87135,-3.62696 -2.87135,-10.62902 0,-7.05243 2.92172,-10.679394 2.92172,-3.626964 7.65693,-3.626964 2.97209,0 4.88632,1.158613 1.91423,1.158614 3.02247,2.871347 h 0.25188 q -0.15113,-0.805992 -0.35263,-2.317227 -0.20149,-1.56161 -0.20149,-3.173594 v -8.815538 h 7.5058 v 38.284617 h -5.7427 l -1.46086,-3.57659 h -0.30224 q -1.10824,1.71274 -2.9721,2.92173 -1.86386,1.15861 -4.83595,1.15861 z m 2.61947,-5.99457 q 3.12322,0 4.38258,-1.81348 1.25937,-1.86386 1.30974,-5.54119 v -0.806 q 0,-4.02996 -1.25936,-6.14568 -1.20899,-2.11573 -4.53371,-2.11573 -2.46835,0 -3.87883,2.1661 -1.41049,2.11573 -1.41049,6.14569 0,4.02996 1.41049,6.09531 1.41048,2.01498 3.97958,2.01498 z"
     id="path1643" /><path
     d="m 347.60892,94.658122 q 5.69232,0 9.01704,3.274342 3.32472,3.223966 3.32472,9.218536 v 3.62696 h -17.73183 q 0.10075,3.1736 1.86386,4.98708 1.81348,1.81348 4.98708,1.81348 2.66984,0 4.83595,-0.50375 2.1661,-0.55412 4.48333,-1.66235 v 5.79306 q -2.01498,1.00749 -4.28183,1.46086 -2.21648,0.50375 -5.39008,0.50375 -4.13071,0 -7.3043,-1.51124 -3.17359,-1.56161 -4.98707,-4.68482 -1.81349,-3.12322 -1.81349,-7.85843 0,-4.83595 1.61199,-8.00954 1.66236,-3.22397 4.58408,-4.835954 2.92172,-1.611984 6.80055,-1.611984 z m 0.0504,5.339697 q -2.1661,0 -3.62696,1.410481 -1.41049,1.41049 -1.66236,4.38259 h 10.52827 q -0.0504,-2.51873 -1.30974,-4.13071 -1.25936,-1.662361 -3.92921,-1.662361 z"
     id="path1645" /><path
     d="m 398.33603,94.658122 q 4.68482,0 7.05243,2.417976 2.41797,2.367601 2.41797,7.656922 v 17.93332 h -7.5058 v -16.06946 q 0,-5.94419 -4.13071,-5.94419 -2.97209,0 -4.23146,2.11573 -1.25936,2.11573 -1.25936,6.09531 v 13.80261 h -7.5058 v -16.06946 q 0,-5.94419 -4.13071,-5.94419 -3.12322,0 -4.3322,2.3676 -1.15862,2.31723 -1.15862,6.69981 v 12.94624 h -7.5058 V 95.161867 h 5.74269 l 1.00749,3.526215 h 0.403 q 1.25936,-2.115729 3.42547,-3.072845 2.21647,-0.957115 4.58408,-0.957115 3.02247,0 5.13819,1.00749 2.11573,0.957115 3.22397,3.02247 h 0.65487 q 1.25936,-2.115729 3.47584,-3.072845 2.26685,-0.957115 4.63446,-0.957115 z"
     id="path1647" /></g><g
   aria-label="Bilgisayar"
   transform="scale(0.66412665,1.5057369)"
   id="text1709-7-62"
   style="font-weight:bold;font-size:26.5187px;-inkscape-font-specification:'sans-serif, Bold';stroke-width:0.0194574"><path
     d="m 47.477943,254.07432 q 3.792175,0 5.72804,1.06074 1.935865,1.06075 1.935865,3.73914 0,1.61764 -0.769043,2.73143 -0.742523,1.11378 -2.148014,1.35245 v 0.13259 q 0.954673,0.18563 1.723715,0.66297 0.769042,0.47734 1.21986,1.37897 0.450818,0.90164 0.450818,2.38669 0,2.57231 -1.856309,4.03084 -1.856309,1.45853 -5.09159,1.45853 h -7.080493 v -18.93435 z m 0.450818,7.50479 q 1.750235,0 2.413202,-0.5569 0.689486,-0.55689 0.689486,-1.61764 0,-1.08726 -0.795561,-1.5646 -0.795561,-0.47734 -2.519276,-0.47734 h -2.121496 v 4.21648 z m -2.333645,3.18224 v 4.93248 h 2.625351 q 1.803272,0 2.519277,-0.68949 0.716004,-0.716 0.716004,-1.88282 0,-1.06075 -0.742523,-1.6972 -0.716005,-0.66297 -2.625351,-0.66297 z"
     id="path1931" /><path
     d="m 61.082059,252.85446 q 0.875117,0 1.511566,0.42429 0.636449,0.39778 0.636449,1.51157 0,1.08727 -0.636449,1.51157 -0.636449,0.4243 -1.511566,0.4243 -0.901635,0 -1.538084,-0.4243 -0.60993,-0.4243 -0.60993,-1.51157 0,-1.11379 0.60993,-1.51157 0.636449,-0.42429 1.538084,-0.42429 z m 1.962384,5.675 v 14.47921 h -3.951286 v -14.47921 z"
     id="path1933" /><path
     d="m 71.132654,273.00867 h -3.951286 v -20.15421 h 3.951286 z"
     id="path1935" /><path
     d="m 79.963387,258.26427 q 2.678389,0 4.189954,2.1215 h 0.106075 l 0.318225,-1.85631 h 3.341356 v 14.50573 q 0,3.10268 -1.829791,4.72032 -1.82979,1.61764 -5.409814,1.61764 -1.538085,0 -2.86402,-0.18563 -1.299416,-0.18563 -2.545795,-0.66296 v -3.15573 q 2.678389,1.11379 5.648483,1.11379 3.049651,0 3.049651,-3.28832 v -0.29171 q 0,-0.45082 0.02652,-0.92815 0.05304,-0.47734 0.07956,-0.8486 h -0.106074 q -0.742524,1.1403 -1.776753,1.64416 -1.03423,0.50385 -2.333646,0.50385 -2.572314,0 -4.030842,-1.96238 -1.43201,-1.9889 -1.43201,-5.51589 0,-3.55351 1.485047,-5.54241 1.485047,-1.9889 4.08388,-1.9889 z m 1.246379,3.20876 q -2.784464,0 -2.784464,4.37559 0,4.32255 2.837501,4.32255 1.511566,0 2.227571,-0.8486 0.742524,-0.87512 0.742524,-3.02313 v -0.47734 q 0,-2.33365 -0.716005,-3.34136 -0.716005,-1.00771 -2.307127,-1.00771 z"
     id="path1937" /><path
     d="m 94.044803,252.85446 q 0.875117,0 1.511566,0.42429 0.636449,0.39778 0.636449,1.51157 0,1.08727 -0.636449,1.51157 -0.636449,0.4243 -1.511566,0.4243 -0.901636,0 -1.538085,-0.4243 -0.60993,-0.4243 -0.60993,-1.51157 0,-1.11379 0.60993,-1.51157 0.636449,-0.42429 1.538085,-0.42429 z m 1.962384,5.675 v 14.47921 h -3.951286 v -14.47921 z"
     id="path1939" /><path
     d="m 110.24774,268.71264 q 0,2.20105 -1.56461,3.39439 -1.53808,1.16682 -4.61425,1.16682 -1.51157,0 -2.59883,-0.21215 -1.08727,-0.18563 -2.174537,-0.63644 v -3.2618 q 1.166827,0.53037 2.519277,0.87511 1.35245,0.34475 2.38668,0.34475 1.16683,0 1.64416,-0.34475 0.50386,-0.34474 0.50386,-0.90163 0,-0.37126 -0.21215,-0.66297 -0.18563,-0.29171 -0.8486,-0.66297 -0.66297,-0.37126 -2.06846,-0.95467 -1.35245,-0.58341 -2.22757,-1.14031 -0.87512,-0.58341 -1.299416,-1.37897 -0.424299,-0.82208 -0.424299,-2.04194 0,-2.01542 1.564605,-3.02313 1.5646,-1.00771 4.16343,-1.00771 1.35246,0 2.57232,0.26519 1.21986,0.26518 2.51927,0.87511 l -1.19334,2.8375 q -1.06075,-0.45081 -2.01542,-0.74252 -0.95467,-0.31822 -1.93586,-0.31822 -1.75024,0 -1.75024,0.95467 0,0.34474 0.21215,0.63645 0.23867,0.26519 0.87512,0.58341 0.66297,0.31822 1.93586,0.8486 1.24638,0.50385 2.14802,1.06075 0.90163,0.53037 1.37897,1.35245 0.50386,0.79556 0.50386,2.09498 z"
     id="path1941" /><path
     d="m 119.26409,258.23775 q 2.91705,0 4.45514,1.2729 1.5646,1.24638 1.5646,3.84521 v 9.65281 h -2.75794 l -0.76905,-1.96239 h -0.10607 q -0.92815,1.16683 -1.96238,1.6972 -1.03423,0.53037 -2.8375,0.53037 -1.93587,0 -3.20877,-1.11378 -1.27289,-1.14031 -1.27289,-3.47395 0,-2.30713 1.61764,-3.39439 1.61764,-1.11379 4.85292,-1.21986 l 2.51927,-0.0796 v -0.63645 q 0,-1.1403 -0.60993,-1.67068 -0.58341,-0.53037 -1.64416,-0.53037 -1.06074,0 -2.06845,0.31822 -1.00771,0.29171 -2.01542,0.74253 l -1.29942,-2.67839 q 1.16682,-0.60993 2.57231,-0.95468 1.43201,-0.34474 2.9701,-0.34474 z m 0.55689,8.11472 q -1.90935,0.053 -2.65187,0.68949 -0.74252,0.63645 -0.74252,1.67068 0,0.90163 0.53037,1.29941 0.53037,0.37127 1.37897,0.37127 1.2729,0 2.14802,-0.74253 0.87511,-0.76904 0.87511,-2.14801 v -1.19334 z"
     id="path1943" /><path
     d="m 127.27274,258.52946 h 4.32254 l 2.73143,8.14124 q 0.21215,0.58341 0.31822,1.21986 0.10608,0.60993 0.15912,1.29941 h 0.0796 q 0.0796,-0.68948 0.21215,-1.29941 0.15911,-0.63645 0.34475,-1.21986 l 2.67838,-8.14124 h 4.243 l -6.12582,16.33552 q -0.82208,2.25409 -2.41321,3.36787 -1.5646,1.1403 -3.63306,1.1403 -0.66296,0 -1.16682,-0.0795 -0.47734,-0.053 -0.8486,-0.13259 v -3.12921 q 0.29171,0.053 0.68949,0.10607 0.4243,0.053 0.87511,0.053 1.24638,0 1.96239,-0.76904 0.74252,-0.74252 1.08727,-1.80327 l 0.23866,-0.71601 z"
     id="path1945" /><path
     d="m 150.37053,258.23775 q 2.91706,0 4.45514,1.2729 1.56461,1.24638 1.56461,3.84521 v 9.65281 h -2.75795 l -0.76904,-1.96239 h -0.10607 q -0.92816,1.16683 -1.96239,1.6972 -1.03423,0.53037 -2.8375,0.53037 -1.93586,0 -3.20876,-1.11378 -1.2729,-1.14031 -1.2729,-3.47395 0,-2.30713 1.61764,-3.39439 1.61764,-1.11379 4.85292,-1.21986 l 2.51928,-0.0796 v -0.63645 q 0,-1.1403 -0.60993,-1.67068 -0.58341,-0.53037 -1.64416,-0.53037 -1.06075,0 -2.06846,0.31822 -1.00771,0.29171 -2.01542,0.74253 l -1.29942,-2.67839 q 1.16683,-0.60993 2.57232,-0.95468 1.43201,-0.34474 2.97009,-0.34474 z m 0.5569,8.11472 q -1.90935,0.053 -2.65187,0.68949 -0.74253,0.63645 -0.74253,1.67068 0,0.90163 0.53038,1.29941 0.53037,0.37127 1.37897,0.37127 1.2729,0 2.14801,-0.74253 0.87512,-0.76904 0.87512,-2.14801 v -1.19334 z"
     id="path1947" /><path
     d="m 168.53584,258.26427 q 0.29171,0 0.68949,0.0265 0.39778,0.0265 0.63645,0.0795 l -0.29171,3.71262 q -0.18563,-0.053 -0.55689,-0.0796 -0.34474,-0.053 -0.60993,-0.053 -1.00771,0 -1.93587,0.37126 -0.92815,0.34474 -1.51156,1.14031 -0.55689,0.79556 -0.55689,2.17453 v 7.3722 h -3.95129 v -14.47921 h 2.99661 l 0.58341,2.43972 h 0.18563 q 0.63645,-1.11379 1.75024,-1.90935 1.11378,-0.79556 2.57231,-0.79556 z"
     id="path1949" /></g><g
   aria-label="Telefon"
   transform="scale(0.66412665,1.5057369)"
   id="text1709-7-62-1"
   style="font-weight:bold;font-size:26.5187px;-inkscape-font-specification:'sans-serif, Bold';stroke-width:0.0194574"><path
     d="m 331.56238,273.98267 h -4.00432 v -15.593 h -5.14463 v -3.34136 h 14.29358 v 3.34136 h -5.14463 z"
     id="path1952" /><path
     d="m 343.41626,259.23827 q 2.99661,0 4.74685,1.72371 1.75023,1.6972 1.75023,4.85293 v 1.90934 h -9.33458 q 0.053,1.67068 0.98119,2.62535 0.95468,0.95468 2.62535,0.95468 1.40549,0 2.5458,-0.26519 1.1403,-0.29171 2.36016,-0.87512 v 3.04965 q -1.06075,0.53038 -2.25409,0.76905 -1.16682,0.26518 -2.8375,0.26518 -2.17453,0 -3.84521,-0.79556 -1.67068,-0.82208 -2.62535,-2.46624 -0.95467,-1.64416 -0.95467,-4.13691 0,-2.5458 0.84859,-4.21648 0.87512,-1.69719 2.41321,-2.54579 1.53808,-0.8486 3.58002,-0.8486 z m 0.0265,2.81098 q -1.1403,0 -1.90935,0.74252 -0.74252,0.74253 -0.87511,2.30713 h 5.5424 q -0.0265,-1.32593 -0.68948,-2.17453 -0.66297,-0.87512 -2.06846,-0.87512 z"
     id="path1954" /><path
     d="m 357.07338,273.98267 h -3.95129 v -20.15422 h 3.95129 z"
     id="path1956" /><path
     d="m 367.17701,259.23827 q 2.99661,0 4.74685,1.72371 1.75023,1.6972 1.75023,4.85293 v 1.90934 h -9.33458 q 0.053,1.67068 0.98119,2.62535 0.95468,0.95468 2.62535,0.95468 1.4055,0 2.5458,-0.26519 1.1403,-0.29171 2.36016,-0.87512 v 3.04965 q -1.06074,0.53038 -2.25409,0.76905 -1.16682,0.26518 -2.8375,0.26518 -2.17453,0 -3.84521,-0.79556 -1.67068,-0.82208 -2.62535,-2.46624 -0.95467,-1.64416 -0.95467,-4.13691 0,-2.5458 0.8486,-4.21648 0.87511,-1.69719 2.4132,-2.54579 1.53808,-0.8486 3.58002,-0.8486 z m 0.0265,2.81098 q -1.1403,0 -1.90935,0.74252 -0.74252,0.74253 -0.87511,2.30713 h 5.54241 q -0.0265,-1.32593 -0.68949,-2.17453 -0.66297,-0.87512 -2.06846,-0.87512 z"
     id="path1958" /><path
     d="m 384.89149,262.47355 h -3.42091 v 11.50912 h -3.95128 v -11.50912 h -2.17454 v -1.90935 l 2.17454,-1.06074 v -1.06075 q 0,-1.85631 0.60993,-2.86402 0.63644,-1.03423 1.77675,-1.45853 1.16682,-0.4243 2.73142,-0.4243 1.16683,0 2.09498,0.18563 0.95468,0.18563 1.53809,0.4243 l -1.00771,2.89054 q -0.45082,-0.13259 -0.9812,-0.23867 -0.53037,-0.13259 -1.21986,-0.13259 -0.82208,0 -1.21986,0.50385 -0.37126,0.50386 -0.37126,1.2729 v 0.90164 h 3.42091 z"
     id="path1960" /><path
     d="m 400.29884,266.71654 q 0,3.60655 -1.90935,5.56893 -1.88283,1.96238 -5.14463,1.96238 -2.01542,0 -3.60654,-0.87511 -1.5646,-0.87512 -2.46624,-2.5458 -0.90164,-1.6972 -0.90164,-4.1104 0,-3.60654 1.88283,-5.54241 1.88283,-1.93586 5.17115,-1.93586 2.04194,0 3.60654,0.87512 1.5646,0.87511 2.46624,2.54579 0.90164,1.64416 0.90164,4.05736 z m -9.99755,0 q 0,2.14802 0.68948,3.2618 0.71601,1.08727 2.30713,1.08727 1.5646,0 2.25409,-1.08727 0.716,-1.11378 0.716,-3.2618 0,-2.14801 -0.716,-3.20876 -0.68949,-1.08727 -2.28061,-1.08727 -1.5646,0 -2.28061,1.08727 -0.68948,1.06075 -0.68948,3.20876 z"
     id="path1962" /><path
     d="m 411.78142,259.23827 q 2.33365,0 3.73914,1.2729 1.40549,1.24638 1.40549,4.03084 v 9.44066 h -3.95129 v -8.45947 q 0,-1.5646 -0.55689,-2.33364 -0.55689,-0.79557 -1.77675,-0.79557 -1.80328,0 -2.46624,1.24638 -0.66297,1.21986 -0.66297,3.52699 v 6.81531 h -3.95129 v -14.47921 h 3.02313 l 0.53038,1.8563 h 0.21215 q 0.68948,-1.11378 1.88283,-1.61764 1.21986,-0.50385 2.57231,-0.50385 z"
     id="path1964" /></g><g
   aria-label="Tablet"
   transform="scale(0.66412665,1.5057369)"
   id="text1709-7-62-7"
   style="font-weight:bold;font-size:26.5187px;-inkscape-font-specification:'sans-serif, Bold';stroke-width:0.0194574"><path
     d="m 598.78809,273.58966 h -4.00432 v -15.59299 h -5.14463 v -3.34136 h 14.29358 v 3.34136 h -5.14463 z"
     id="path1967" /><path
     d="m 610.35026,258.81874 q 2.91705,0 4.45514,1.2729 1.5646,1.24638 1.5646,3.84521 v 9.65281 h -2.75794 l -0.76904,-1.96238 h -0.10608 q -0.92815,1.16682 -1.96238,1.69719 -1.03423,0.53038 -2.8375,0.53038 -1.93587,0 -3.20877,-1.11379 -1.27289,-1.1403 -1.27289,-3.47395 0,-2.30712 1.61764,-3.39439 1.61764,-1.11379 4.85292,-1.21986 l 2.51927,-0.0796 v -0.63645 q 0,-1.1403 -0.60993,-1.67067 -0.58341,-0.53038 -1.64415,-0.53038 -1.06075,0 -2.06846,0.31823 -1.00771,0.2917 -2.01542,0.74252 l -1.29942,-2.67839 q 1.16682,-0.60993 2.57231,-0.95467 1.43201,-0.34475 2.9701,-0.34475 z m 0.55689,8.11473 q -1.90935,0.053 -2.65187,0.68948 -0.74252,0.63645 -0.74252,1.67068 0,0.90164 0.53037,1.29942 0.53037,0.37126 1.37897,0.37126 1.2729,0 2.14802,-0.74252 0.87511,-0.76905 0.87511,-2.14802 v -1.19334 z"
     id="path1969" /><path
     d="m 624.37865,258.12926 q 0,0.82208 -0.053,1.61764 -0.053,0.79556 -0.10608,1.24638 h 0.15911 q 0.58341,-0.90164 1.56461,-1.51157 0.98119,-0.63645 2.54579,-0.63645 2.43972,0 3.95129,1.90935 1.51156,1.88283 1.51156,5.56893 0,3.71261 -1.53808,5.62196 -1.53809,1.90935 -4.03084,1.90935 -1.59113,0 -2.51928,-0.5569 -0.90164,-0.58341 -1.48505,-1.29941 h -0.26518 l -0.66297,1.59112 h -3.02313 v -20.15421 h 3.95128 z m 2.8375,3.87173 q -1.53808,0 -2.17453,0.95467 -0.60993,0.95468 -0.66297,2.91706 v 0.4243 q 0,2.09498 0.60993,3.23528 0.63645,1.11378 2.28061,1.11378 1.21986,0 1.93587,-1.11378 0.716,-1.1403 0.716,-3.2618 0,-2.1215 -0.74252,-3.18224 -0.71601,-1.08727 -1.96239,-1.08727 z"
     id="path1971" /><path
     d="m 641.16497,273.58966 h -3.95128 v -20.15421 h 3.95128 z"
     id="path1973" /><path
     d="m 651.26861,258.84526 q 2.99661,0 4.74684,1.72372 1.75024,1.6972 1.75024,4.85292 v 1.90935 h -9.33458 q 0.053,1.67068 0.98119,2.62535 0.95467,0.95467 2.62535,0.95467 1.40549,0 2.54579,-0.26519 1.14031,-0.2917 2.36017,-0.87511 v 3.04965 q -1.06075,0.53037 -2.25409,0.76904 -1.16682,0.26519 -2.8375,0.26519 -2.17454,0 -3.84521,-0.79556 -1.67068,-0.82208 -2.62535,-2.46624 -0.95468,-1.64416 -0.95468,-4.13692 0,-2.54579 0.8486,-4.21647 0.87512,-1.6972 2.4132,-2.5458 1.53809,-0.8486 3.58003,-0.8486 z m 0.0265,2.81099 q -1.14031,0 -1.90935,0.74252 -0.74252,0.74252 -0.87512,2.30713 h 5.54241 q -0.0265,-1.32594 -0.68949,-2.17454 -0.66296,-0.87511 -2.06845,-0.87511 z"
     id="path1975" /><path
     d="m 667.07374,270.69912 q 0.66297,0 1.2729,-0.13259 0.60993,-0.13259 1.21986,-0.31823 v 2.94358 q -0.63645,0.26519 -1.59112,0.45082 -0.92816,0.21215 -2.04194,0.21215 -1.29942,0 -2.33365,-0.4243 -1.00771,-0.4243 -1.61764,-1.45853 -0.58341,-1.06075 -0.58341,-2.91706 v -6.97442 h -1.88283 v -1.67067 l 2.17454,-1.32594 1.1403,-3.04965 h 2.51928 v 3.07617 h 4.05736 v 2.97009 h -4.05736 v 6.97442 q 0,0.82208 0.47733,1.24638 0.47734,0.39778 1.24638,0.39778 z"
     id="path1977" /></g><g
   aria-label="LAN(Local Area Network)"
   transform="scale(0.74919174,1.3347718)"
   id="text2186"
   style="font-weight:bold;font-size:26.7451px;-inkscape-font-specification:'sans-serif, Bold';stroke-width:0.0196236"><path
     d="M 3.2765381,23.208916 V 4.1129143 H 7.3150482 V 19.865778 h 7.7560788 v 3.343138 z"
     id="path2188" /><path
     d="m 30.075143,23.208916 -1.390745,-4.546667 h -6.953726 l -1.390745,4.546667 H 15.980475 L 22.720241,4.032679 h 4.947843 l 6.76651,19.176237 z M 26.330829,10.825934 Q 26.197104,10.371268 25.983143,9.6758951 25.769182,8.9805225 25.555221,8.2584048 25.34126,7.5362871 25.207535,7.0013851 q -0.133726,0.534902 -0.374432,1.337255 -0.21396,0.7756079 -0.427921,1.4977256 -0.187216,0.6953723 -0.294196,0.9895683 l -1.364,4.439687 h 4.974588 z"
     id="path2190" /><path
     d="m 53.771319,23.208916 h -5.13506 L 40.318533,8.7665617 h -0.10698 q 0.05349,1.3640003 0.10698,2.7280003 0.08024,1.364 0.133726,2.728 v 8.986354 H 36.84167 V 4.1129143 h 5.108314 l 8.290981,14.3086287 h 0.08024 q -0.02675,-1.337255 -0.08024,-2.647765 -0.05349,-1.31051 -0.10698,-2.62102 V 4.1129143 h 3.637334 z"
     id="path2192" /><path
     d="m 57.248174,15.880758 q 0,-3.262902 0.936079,-6.2850982 0.962824,-3.0489414 2.995451,-5.4827455 h 3.262902 q -1.818666,2.5140394 -2.78149,5.5362357 -0.936079,3.022196 -0.936079,6.204863 0,3.102432 0.936079,6.124628 0.962824,2.995451 2.754745,5.456001 h -3.236157 q -2.032627,-2.353569 -2.995451,-5.322275 -0.936079,-2.995452 -0.936079,-6.231609 z"
     id="path2194" /><path
     d="M 67.652034,23.208916 V 4.1129143 h 4.03851 V 19.865778 h 7.756079 v 3.343138 z"
     id="path2196" /><path
     d="m 95.707663,15.880758 q 0,3.637334 -1.925648,5.616471 -1.898902,1.979138 -5.188549,1.979138 -2.032628,0 -3.637334,-0.882589 -1.577961,-0.882588 -2.487294,-2.567529 -0.909333,-1.711687 -0.909333,-4.145491 0,-3.637333 1.898902,-5.589726 1.898902,-1.9523919 5.215294,-1.9523919 2.059373,0 3.637334,0.8825883 1.577961,0.8825886 2.487294,2.5675296 0.909334,1.658196 0.909334,4.092 z m -10.082903,0 q 0,2.166353 0.695372,3.289648 0.722118,1.096549 2.326824,1.096549 1.577961,0 2.273334,-1.096549 0.722117,-1.123295 0.722117,-3.289648 0,-2.166353 -0.722117,-3.236157 -0.695373,-1.096549 -2.300079,-1.096549 -1.577961,0 -2.300079,1.096549 -0.695372,1.069804 -0.695372,3.236157 z"
     id="path2198" /><path
     d="m 104.9347,23.476367 q -3.2629,0 -5.05482,-1.791922 -1.765177,-1.818667 -1.765177,-5.696706 0,-2.67451 0.909334,-4.359452 0.909333,-1.6849409 2.514043,-2.4872939 1.63145,-0.802353 3.74431,-0.802353 1.49773,0 2.59427,0.2941961 1.1233,0.2941961 1.9524,0.6953726 l -1.17679,3.0756862 q -0.93608,-0.374431 -1.76517,-0.615137 -0.80236,-0.240706 -1.60471,-0.240706 -3.10243,0 -3.10243,4.412942 0,2.193098 0.80235,3.236157 0.8291,1.043059 2.30008,1.043059 1.25702,0 2.21984,-0.320942 0.96283,-0.347686 1.87216,-0.936078 v 3.396628 q -0.90933,0.588392 -1.92565,0.829098 -0.98957,0.267451 -2.51404,0.267451 z"
     id="path2200" /><path
     d="m 118.73517,8.311895 q 2.94196,0 4.49318,1.2837648 1.57796,1.2570202 1.57796,3.8780392 v 9.735217 h -2.78149 l -0.77561,-1.979138 h -0.10698 q -0.93608,1.176785 -1.97914,1.711687 -1.04305,0.534902 -2.86172,0.534902 -1.95239,0 -3.23616,-1.123294 -1.28376,-1.15004 -1.28376,-3.503609 0,-2.326823 1.63145,-3.423372 1.63145,-1.123295 4.89435,-1.230275 l 2.54079,-0.08024 v -0.641883 q 0,-1.150039 -0.61514,-1.684941 -0.58839,-0.534902 -1.6582,-0.534902 -1.0698,0 -2.08612,0.320941 -1.01631,0.294196 -2.03262,0.748863 l -1.31051,-2.7012551 q 1.17678,-0.6151373 2.59427,-0.9628236 1.44424,-0.3476863 2.99545,-0.3476863 z m 0.56165,8.184001 q -1.92565,0.05349 -2.67451,0.695372 -0.74886,0.641883 -0.74886,1.684942 0,0.909333 0.5349,1.310509 0.5349,0.374432 1.39074,0.374432 1.28377,0 2.16636,-0.748863 0.88259,-0.775608 0.88259,-2.166353 v -1.20353 z"
     id="path2202" /><path
     d="m 132.88334,23.208916 h -3.98502 V 2.8826397 h 3.98502 z"
     id="path2204" /><path
     d="m 156.01786,23.208916 -1.39075,-4.546667 h -6.95372 l -1.39075,4.546667 h -4.35945 l 6.73977,-19.176237 h 4.94784 l 6.76651,19.176237 z m -3.74432,-12.382982 q -0.13372,-0.454666 -0.34768,-1.1500389 -0.21396,-0.6953726 -0.42792,-1.4174903 -0.21396,-0.7221177 -0.34769,-1.2570197 -0.13373,0.534902 -0.37443,1.337255 -0.21396,0.7756079 -0.42792,1.4977256 -0.18722,0.6953723 -0.2942,0.9895683 l -1.364,4.439687 h 4.97459 z"
     id="path2206" /><path
     d="m 170.6207,8.3386401 q 0.29419,0 0.69537,0.026745 0.40117,0.026745 0.64188,0.080235 l -0.2942,3.7443145 q -0.18721,-0.05349 -0.56164,-0.08024 -0.34769,-0.05349 -0.61514,-0.05349 -1.01631,0 -1.95239,0.374431 -0.93608,0.347687 -1.52447,1.15004 -0.56165,0.802353 -0.56165,2.193098 v 7.435138 h -3.98502 V 8.6060911 h 3.0222 l 0.58839,2.4605489 h 0.18721 q 0.64189,-1.1232939 1.76518,-1.9256469 1.12329,-0.802353 2.59428,-0.802353 z"
     id="path2208" /><path
     d="m 180.08846,8.3386401 q 3.0222,0 4.78738,1.7384319 1.76517,1.711686 1.76517,4.894353 v 1.925647 h -9.41427 q 0.0535,1.684941 0.98957,2.647765 0.96282,0.962824 2.64776,0.962824 1.41749,0 2.56753,-0.267451 1.15004,-0.294196 2.38031,-0.882589 v 3.075687 q -1.0698,0.534902 -2.27333,0.775608 -1.17678,0.267451 -2.86172,0.267451 -2.1931,0 -3.87804,-0.802353 -1.68495,-0.829098 -2.64777,-2.487295 -0.96282,-1.658196 -0.96282,-4.172235 0,-2.56753 0.85584,-4.252471 0.88259,-1.711687 2.43381,-2.5675297 1.55121,-0.8558432 3.61058,-0.8558432 z m 0.0267,2.8349809 q -1.15004,0 -1.92565,0.748863 -0.74886,0.748862 -0.88259,2.326823 h 5.58973 q -0.0268,-1.337255 -0.69537,-2.193098 -0.66863,-0.882588 -2.08612,-0.882588 z"
     id="path2210" /><path
     d="m 195.86807,8.311895 q 2.94196,0 4.49318,1.2837648 1.57796,1.2570202 1.57796,3.8780392 v 9.735217 h -2.78149 l -0.77561,-1.979138 h -0.10698 q -0.93608,1.176785 -1.97914,1.711687 -1.04306,0.534902 -2.86172,0.534902 -1.9524,0 -3.23616,-1.123294 -1.28377,-1.15004 -1.28377,-3.503609 0,-2.326823 1.63145,-3.423372 1.63146,-1.123295 4.89436,-1.230275 l 2.54078,-0.08024 v -0.641883 q 0,-1.150039 -0.61514,-1.684941 -0.58839,-0.534902 -1.65819,-0.534902 -1.06981,0 -2.08612,0.320941 -1.01631,0.294196 -2.03263,0.748863 l -1.31051,-2.7012551 q 1.17679,-0.6151373 2.59428,-0.9628236 1.44423,-0.3476863 2.99545,-0.3476863 z m 0.56165,8.184001 q -1.92565,0.05349 -2.67451,0.695372 -0.74887,0.641883 -0.74887,1.684942 0,0.909333 0.53491,1.310509 0.5349,0.374432 1.39074,0.374432 1.28377,0 2.16635,-0.748863 0.88259,-0.775608 0.88259,-2.166353 v -1.20353 z"
     id="path2212" /><path
     d="m 230.23553,23.208916 h -5.13506 L 216.78274,8.7665617 h -0.10698 q 0.0535,1.3640003 0.10698,2.7280003 0.0802,1.364 0.13373,2.728 v 8.986354 h -3.61059 V 4.1129143 h 5.10831 l 8.29099,14.3086287 h 0.0802 q -0.0267,-1.337255 -0.0802,-2.647765 -0.0535,-1.31051 -0.10698,-2.62102 V 4.1129143 h 3.63733 z"
     id="path2214" /><path
     d="m 240.74635,8.3386401 q 3.02219,0 4.78737,1.7384319 1.76518,1.711686 1.76518,4.894353 v 1.925647 h -9.41428 q 0.0535,1.684941 0.98957,2.647765 0.96282,0.962824 2.64776,0.962824 1.41749,0 2.56753,-0.267451 1.15004,-0.294196 2.38032,-0.882589 v 3.075687 q -1.06981,0.534902 -2.27334,0.775608 -1.17678,0.267451 -2.86172,0.267451 -2.1931,0 -3.87804,-0.802353 -1.68494,-0.829098 -2.64777,-2.487295 -0.96282,-1.658196 -0.96282,-4.172235 0,-2.56753 0.85584,-4.252471 0.88259,-1.711687 2.43381,-2.5675297 1.55121,-0.8558432 3.61059,-0.8558432 z m 0.0267,2.8349809 q -1.15004,0 -1.92565,0.748863 -0.74886,0.748862 -0.88258,2.326823 h 5.58972 q -0.0267,-1.337255 -0.69537,-2.193098 -0.66863,-0.882588 -2.08612,-0.882588 z"
     id="path2216" /><path
     d="m 256.68641,20.2937 q 0.66862,0 1.28376,-0.133726 0.61514,-0.133725 1.23028,-0.320941 v 2.968706 q -0.64189,0.267451 -1.60471,0.454667 -0.93608,0.213961 -2.05937,0.213961 -1.31051,0 -2.35357,-0.427922 -1.01631,-0.427921 -1.63145,-1.47098 -0.58839,-1.069804 -0.58839,-2.941961 v -7.033962 h -1.89891 V 9.916601 l 2.1931,-1.337255 1.15004,-3.0756865 h 2.54079 v 3.1024316 h 4.092 v 2.9954509 h -4.092 v 7.033962 q 0,0.829098 0.48141,1.257019 0.48141,0.401177 1.25702,0.401177 z"
     id="path2218" /><path
     d="m 273.02768,18.100602 q -0.10698,-0.454667 -0.32094,-1.337255 -0.18722,-0.909334 -0.42792,-1.925648 -0.24071,-1.043058 -0.45467,-1.898902 -0.21396,-0.882588 -0.29419,-1.283764 h -0.10698 q -0.0802,0.401176 -0.2942,1.283764 -0.18722,0.855844 -0.42792,1.898902 -0.24071,1.016314 -0.45467,1.925648 -0.21396,0.909333 -0.32094,1.390745 l -1.17678,5.054824 h -4.27922 L 260.32376,8.6060911 h 3.95827 l 1.68494,6.4723139 q 0.18722,0.668628 0.32095,1.604706 0.16047,0.936079 0.29419,1.818667 0.13373,0.855843 0.18722,1.364 h 0.10698 q 0.0267,-0.374431 0.10698,-0.989568 0.0802,-0.641883 0.18721,-1.31051 0.13373,-0.668628 0.21397,-1.20353 0.10698,-0.561647 0.16047,-0.748863 l 1.79192,-7.0072159 h 4.38619 l 1.71169,7.0072159 q 0.10698,0.374432 0.24071,1.20353 0.16047,0.829098 0.26745,1.684941 0.13372,0.855843 0.13372,1.364 h 0.10698 q 0.0535,-0.454666 0.18722,-1.31051 0.13372,-0.882588 0.29419,-1.845412 0.18722,-0.962823 0.37444,-1.631451 l 1.73843,-6.4723139 h 3.90478 l -4.19898,14.6028249 h -4.3327 z"
     id="path2220" /><path
     d="m 298.30182,15.880758 q 0,3.637334 -1.92564,5.616471 -1.8989,1.979138 -5.18855,1.979138 -2.03263,0 -3.63734,-0.882589 -1.57796,-0.882588 -2.48729,-2.567529 -0.90933,-1.711687 -0.90933,-4.145491 0,-3.637333 1.8989,-5.589726 1.8989,-1.9523919 5.21529,-1.9523919 2.05938,0 3.63734,0.8825883 1.57796,0.8825886 2.48729,2.5675296 0.90933,1.658196 0.90933,4.092 z m -10.0829,0 q 0,2.166353 0.69537,3.289648 0.72212,1.096549 2.32683,1.096549 1.57796,0 2.27333,-1.096549 0.72212,-1.123295 0.72212,-3.289648 0,-2.166353 -0.72212,-3.236157 -0.69537,-1.096549 -2.30008,-1.096549 -1.57796,0 -2.30008,1.096549 -0.69537,1.069804 -0.69537,3.236157 z"
     id="path2222" /><path
     d="m 309.74872,8.3386401 q 0.29419,0 0.69537,0.026745 0.40118,0.026745 0.64188,0.080235 l -0.29419,3.7443145 q -0.18722,-0.05349 -0.56165,-0.08024 -0.34769,-0.05349 -0.61514,-0.05349 -1.01631,0 -1.95239,0.374431 -0.93608,0.347687 -1.52447,1.15004 -0.56165,0.802353 -0.56165,2.193098 v 7.435138 h -3.98502 V 8.6060911 h 3.0222 l 0.58839,2.4605489 h 0.18722 q 0.64188,-1.1232939 1.76517,-1.9256469 1.1233,-0.802353 2.59428,-0.802353 z"
     id="path2224" /><path
     d="m 317.71875,11.975974 q 0,0.829098 -0.0802,1.658196 -0.0535,0.802353 -0.13373,1.631451 h 0.0535 q 0.40118,-0.561647 0.8291,-1.123294 0.42792,-0.588392 0.90933,-1.096549 l 4.09201,-4.4396869 h 4.49317 l -5.80368,6.3385889 6.15137,8.264236 h -4.60016 l -4.19898,-5.910667 -1.71169,1.364 v 4.546667 h -3.98502 V 2.8826397 h 3.98502 z"
     id="path2226" /><path
     d="m 336.22637,15.880758 q 0,3.236157 -0.96282,6.231609 -0.93608,2.968706 -2.96871,5.322275 h -3.23616 q 1.81867,-2.46055 2.75475,-5.456001 0.93608,-3.022196 0.93608,-6.124628 0,-3.182667 -0.96283,-6.204863 -0.93607,-3.0221963 -2.75474,-5.5362357 h 3.2629 q 2.03263,2.4338041 2.96871,5.4827455 0.96282,3.0221962 0.96282,6.2850982 z"
     id="path2228" /></g></svg>
