<?xml version="1.0" encoding="UTF-8" standalone="no"?>
<!-- Uploaded to: SVG Repo, www.svgrepo.com, Generator: SVG Repo Mixer Tools -->

<svg
   height="800px"
   width="800px"
   version="1.1"
   id="Layer_1"
   viewBox="0 0 489.7 489.7"
   xml:space="preserve"
   sodipodi:docname="ag-man.svg"
   inkscape:version="1.2.2 (b0a8486541, 2022-12-01)"
   xmlns:inkscape="http://www.inkscape.org/namespaces/inkscape"
   xmlns:sodipodi="http://sodipodi.sourceforge.net/DTD/sodipodi-0.dtd"
   xmlns="http://www.w3.org/2000/svg"
   xmlns:svg="http://www.w3.org/2000/svg"><defs
   id="defs646" /><sodipodi:namedview
   id="namedview644"
   pagecolor="#ffffff"
   bordercolor="#000000"
   borderopacity="0.25"
   inkscape:showpageshadow="2"
   inkscape:pageopacity="0.0"
   inkscape:pagecheckerboard="0"
   inkscape:deskcolor="#d1d1d1"
   showgrid="false"
   inkscape:zoom="0.67375"
   inkscape:cx="502.41187"
   inkscape:cy="368.08905"
   inkscape:window-width="1366"
   inkscape:window-height="675"
   inkscape:window-x="0"
   inkscape:window-y="0"
   inkscape:window-maximized="1"
   inkscape:current-layer="Layer_1" />
<g
   id="g641">
	<g
   id="g639">
		<path
   id="XMLID_1284_"
   style="fill:#3C92CA;"
   d="M17.1,357.45h107.7c4.4,0,8.1,3.6,8.1,8.1v65.8c0,4.4-3.6,8.1-8.1,8.1H17.1    c-4.4,0-8.1-3.6-8.1-8.1v-65.8C9,361.05,12.7,357.45,17.1,357.45z" />
		<path
   id="XMLID_1282_"
   style="fill:#3C92CA;"
   d="M365,357.45h107.7c4.4,0,8.1,3.6,8.1,8.1v65.8c0,4.4-3.6,8.1-8.1,8.1H365    c-4.4,0-8.1-3.6-8.1-8.1v-65.8C357,361.05,360.6,357.45,365,357.45z" />
		<path
   d="M116.6,448.45c14,0,25.3-11.4,25.3-25.3v-49.4c0-14-11.4-25.3-25.3-25.3H80v-67.8h155.8v67.8h-36.6    c-14,0-25.3,11.4-25.3,25.3v49.4c0,14,11.4,25.3,25.3,25.3h91.3c14,0,25.3-11.4,25.3-25.3v-49.4c0-14-11.4-25.3-25.3-25.3h-36.6    v-67.8h155.8v67.8h-36.6c-14,0-25.3,11.4-25.3,25.3v49.4c0,14,11.4,25.3,25.3,25.3h91.3c14,0,25.3-11.4,25.3-25.3v-49.4    c0-14-11.4-25.3-25.3-25.3h-36.5v-76.8c0-5-4.1-9.1-9.1-9.1H254v-47.3h74c18.3,0,33.2-14.9,33.2-33.2V74.45    c0-18.3-14.9-33.2-33.2-33.2H161.8c-18.3,0-33.2,14.9-33.2,33.2v107.5c0,18.3,14.9,33.2,33.2,33.2h74v47.3H70.9    c-5,0-9.1,4.1-9.1,9.1v76.8H25.3c-14,0-25.3,11.4-25.3,25.3v49.4c0,14,11.4,25.3,25.3,25.3h91.3    C116.6,448.35,116.6,448.45,116.6,448.45z M297.7,373.75v49.4c0,4-3.2,7.2-7.2,7.2h-91.3c-4,0-7.2-3.2-7.2-7.2v-49.4    c0-4,3.2-7.2,7.2-7.2h91.3C294.5,366.45,297.7,369.75,297.7,373.75z M471.7,373.75v49.4c0,4-3.2,7.2-7.2,7.2h-91.3    c-4,0-7.2-3.2-7.2-7.2v-49.4c0-4,3.2-7.2,7.2-7.2h91.3C468.5,366.45,471.7,369.75,471.7,373.75z M146.7,181.95V74.45    c0-8.3,6.8-15.1,15.1-15.1H328c8.3,0,15.1,6.8,15.1,15.1v107.5c0,8.3-6.8,15.1-15.1,15.1H161.8    C153.5,197.05,146.7,190.25,146.7,181.95z M18.1,423.15v-49.4c0-4,3.2-7.2,7.2-7.2h91.3c4,0,7.2,3.2,7.2,7.2v49.4    c0,4-3.2,7.2-7.2,7.2H25.3C21.3,430.35,18.1,427.15,18.1,423.15z"
   id="path637" />
	</g>
</g><g
   aria-label="Ev"
   transform="scale(1.021807,0.97865839)"
   id="text519-7-6"
   style="font-weight:bold;font-size:37.0053px;-inkscape-font-specification:'sans-serif, Bold';stroke-width:0.0271517"><path
     d="M 47.820275,424.20624 H 32.611097 v -26.42179 h 15.209178 v 4.58866 h -9.621377 v 5.80983 h 8.955282 v 4.58866 h -8.955282 v 6.80898 h 9.621377 z"
     id="path638" /><path
     d="m 57.700671,424.20624 -7.697102,-20.2049 h 5.772826 l 3.885557,11.50865 q 0.333047,1.03615 0.518074,2.14631 0.222032,1.11016 0.259037,1.99829 h 0.148021 q 0.111016,-1.99829 0.814117,-4.1446 l 3.885556,-11.50865 h 5.772827 l -7.697103,20.2049 z"
     id="path640" /></g>
<g
   aria-label="Yönlendirici"
   transform="scale(0.76464022,1.3078046)"
   id="text457"
   style="font-weight:bold;font-size:40.6273px;-inkscape-font-specification:'sans-serif, Bold';stroke-width:0.0298092"><path
     d="m 209.85525,99.224551 6.05347,-11.944426 h 6.62225 l -9.62867,17.713505 v 11.29439 h -6.09409 v -11.09126 l -9.62868,-17.916635 h 6.66288 z"
     id="path643" /><path
     d="m 243.81973,105.15614 q 0,5.52531 -2.92517,8.53173 -2.88454,3.00642 -7.88169,3.00642 -3.08768,0 -5.52532,-1.3407 -2.39701,-1.3407 -3.77833,-3.90022 -1.38133,-2.60015 -1.38133,-6.29723 0,-5.525316 2.88454,-8.491109 2.88453,-2.965793 7.92232,-2.965793 3.1283,0 5.52531,1.340701 2.39701,1.340701 3.77834,3.900221 1.38133,2.51889 1.38133,6.21598 z m -15.31649,0 q 0,3.29081 1.05631,4.99715 1.09693,1.66572 3.53457,1.66572 2.39701,0 3.45332,-1.66572 1.09694,-1.70634 1.09694,-4.99715 0,-3.29081 -1.09694,-4.91591 -1.05631,-1.665716 -3.49395,-1.665716 -2.39701,0 -3.49394,1.665716 -1.05631,1.6251 -1.05631,4.91591 z m -2.2345,-16.738451 q 0,-1.421955 0.81254,-2.031365 0.81255,-0.650037 1.95011,-0.650037 1.13757,0 1.95011,0.650037 0.85318,0.60941 0.85318,2.031365 0,1.340701 -0.85318,1.990738 -0.81254,0.650037 -1.95011,0.650037 -1.13756,0 -1.95011,-0.650037 -0.81254,-0.650037 -0.81254,-1.990738 z m 8.00357,0 q 0,-1.421955 0.81255,-2.031365 0.81255,-0.650037 1.99074,-0.650037 1.13756,0 1.95011,0.650037 0.85317,0.60941 0.85317,2.031365 0,1.340701 -0.85317,1.990738 -0.81255,0.650037 -1.95011,0.650037 -1.17819,0 -1.99074,-0.650037 -0.81255,-0.650037 -0.81255,-1.990738 z"
     id="path645" /><path
     d="m 261.41133,93.699238 q 3.5752,0 5.72845,1.950111 2.15324,1.909483 2.15324,6.175351 v 14.46332 h -6.05347 v -12.96011 q 0,-2.39701 -0.85317,-3.575204 -0.85317,-1.218819 -2.72203,-1.218819 -2.76265,0 -3.77834,1.909483 -1.01568,1.86886 -1.01568,5.40343 v 10.44122 h -6.05347 V 94.105511 h 4.63152 l 0.81254,2.843911 h 0.32502 q 1.05631,-1.706346 2.88454,-2.478265 1.86885,-0.771919 3.94085,-0.771919 z"
     id="path647" /><path
     d="m 281.56245,116.28802 h -6.05346 V 85.411269 h 6.05346 z"
     id="path649" /><path
     d="m 297.04146,93.699238 q 4.59089,0 7.27229,2.640775 2.6814,2.600147 2.6814,7.434797 v 2.92516 h -14.30081 q 0.0813,2.55952 1.50321,4.02211 1.46259,1.46258 4.02211,1.46258 2.15324,0 3.90022,-0.40627 1.74697,-0.4469 3.61583,-1.3407 v 4.67214 q -1.6251,0.81254 -3.45332,1.17819 -1.78761,0.40627 -4.34713,0.40627 -3.33143,0 -5.89095,-1.21882 -2.55952,-1.25945 -4.02211,-3.77834 -1.46258,-2.51889 -1.46258,-6.33786 0,-3.90022 1.30007,-6.459737 1.3407,-2.600147 3.69709,-3.900221 2.35638,-1.300074 5.48468,-1.300074 z m 0.0406,4.306494 q -1.74697,0 -2.92516,1.137565 -1.13757,1.137563 -1.34071,3.534573 h 8.49111 q -0.0406,-2.03136 -1.05631,-3.331437 -1.01568,-1.340701 -3.16893,-1.340701 z"
     id="path651" /><path
     d="m 324.5055,93.699238 q 3.57521,0 5.72845,1.950111 2.15325,1.909483 2.15325,6.175351 v 14.46332 h -6.05347 v -12.96011 q 0,-2.39701 -0.85317,-3.575204 -0.85317,-1.218819 -2.72203,-1.218819 -2.76266,0 -3.77834,1.909483 -1.01568,1.86886 -1.01568,5.40343 v 10.44122 h -6.05347 V 94.105511 h 4.63151 l 0.81255,2.843911 h 0.32502 q 1.05631,-1.706346 2.88454,-2.478265 1.86885,-0.771919 3.94084,-0.771919 z"
     id="path653" /><path
     d="m 345.63169,116.69429 q -3.69709,0 -6.05347,-2.88454 -2.31576,-2.92516 -2.31576,-8.57236 0,-5.68782 2.35639,-8.612986 2.35638,-2.925166 6.17535,-2.925166 2.39701,0 3.94084,0.934428 1.54384,0.934428 2.43764,2.315756 h 0.20314 q -0.12188,-0.650036 -0.28439,-1.868855 -0.16251,-1.259447 -0.16251,-2.55952 v -7.109778 h 6.05347 v 30.876751 h -4.63152 l -1.17819,-2.88454 h -0.24376 q -0.8938,1.38133 -2.39701,2.35638 -1.50321,0.93443 -3.90022,0.93443 z m 2.11262,-4.83465 q 2.51889,0 3.53457,-1.46258 1.01568,-1.50321 1.05631,-4.469 v -0.65004 q 0,-3.25019 -1.01568,-4.95653 -0.97506,-1.706348 -3.65646,-1.706348 -1.99074,0 -3.1283,1.746978 -1.13756,1.70634 -1.13756,4.95653 0,3.25018 1.13756,4.9159 1.13756,1.62509 3.20956,1.62509 z"
     id="path655" /><path
     d="m 367.36727,85.411269 q 1.3407,0 2.31575,0.650037 0.97506,0.609409 0.97506,2.315756 0,1.665719 -0.97506,2.315756 -0.97505,0.650037 -2.31575,0.650037 -1.38133,0 -2.35639,-0.650037 -0.93442,-0.650037 -0.93442,-2.315756 0,-1.706347 0.93442,-2.315756 0.97506,-0.650037 2.35639,-0.650037 z m 3.00642,8.694242 v 22.182509 h -6.05347 V 94.105511 Z"
     id="path657" /><path
     d="m 389.10289,93.699238 q 0.4469,0 1.05631,0.04063 0.60941,0.04063 0.97505,0.121882 l -0.4469,5.687822 q -0.28439,-0.08125 -0.85317,-0.121882 -0.52815,-0.08125 -0.93443,-0.08125 -1.54383,0 -2.96579,0.568782 -1.42196,0.528155 -2.31576,1.746975 -0.85317,1.21882 -0.85317,3.33144 v 11.29439 h -6.05347 V 94.105511 h 4.59089 l 0.8938,3.737712 h 0.28439 q 0.97505,-1.706347 2.6814,-2.925166 1.70635,-1.218819 3.94085,-1.218819 z"
     id="path659" /><path
     d="m 398.20342,85.411269 q 1.3407,0 2.31576,0.650037 0.97505,0.609409 0.97505,2.315756 0,1.665719 -0.97505,2.315756 -0.97506,0.650037 -2.31576,0.650037 -1.38133,0 -2.35638,-0.650037 -0.93443,-0.650037 -0.93443,-2.315756 0,-1.706347 0.93443,-2.315756 0.97505,-0.650037 2.35638,-0.650037 z m 3.00642,8.694242 v 22.182509 h -6.05347 V 94.105511 Z"
     id="path661" /><path
     d="m 416.56697,116.69429 q -4.95653,0 -7.67856,-2.72203 -2.6814,-2.76266 -2.6814,-8.65361 0,-4.06273 1.38133,-6.622254 1.38133,-2.55952 3.81897,-3.778339 2.47826,-1.218819 5.68782,-1.218819 2.27513,0 3.94085,0.446901 1.70634,0.4469 2.96579,1.056309 l -1.7876,4.67214 q -1.42196,-0.568782 -2.6814,-0.934428 -1.21882,-0.365646 -2.43764,-0.365646 -4.71277,0 -4.71277,6.703506 0,3.33144 1.21882,4.9159 1.25945,1.58447 3.49395,1.58447 1.90948,0 3.37207,-0.48753 1.46258,-0.52816 2.84391,-1.42196 v 5.15967 q -1.38133,0.8938 -2.92517,1.25945 -1.50321,0.40627 -3.81897,0.40627 z"
     id="path663" /><path
     d="m 431.47719,85.411269 q 1.3407,0 2.31576,0.650037 0.97505,0.609409 0.97505,2.315756 0,1.665719 -0.97505,2.315756 -0.97506,0.650037 -2.31576,0.650037 -1.38133,0 -2.35638,-0.650037 -0.93443,-0.650037 -0.93443,-2.315756 0,-1.706347 0.93443,-2.315756 0.97505,-0.650037 2.35638,-0.650037 z m 3.00642,8.694242 v 22.182509 h -6.05347 V 94.105511 Z"
     id="path665" /></g><g
   aria-label="MAN(Metropolitan Erea Network)"
   transform="scale(0.69133734,1.4464718)"
   id="text461"
   style="font-weight:bold;font-size:25.4952px;-inkscape-font-specification:'sans-serif, Bold';stroke-width:0.0187065"><path
     d="M 17.86076,24.876719 13.475585,10.599407 h -0.10198 q 0.0255,0.509904 0.07648,1.529712 0.05099,1.019808 0.101981,2.192587 0.05099,1.147284 0.05099,2.090606 v 8.464407 H 10.161209 V 6.6731463 h 5.252011 l 4.308689,13.9203787 h 0.07649 l 4.56364,-13.9203787 h 5.252011 V 24.876719 h -3.594823 v -8.617378 q 0,-0.866837 0.0255,-1.988625 0.05099,-1.121789 0.07648,-2.116102 0.05099,-1.019808 0.07649,-1.529712 h -0.101981 l -4.691117,14.251817 z"
     id="path668" /><path
     d="m 45.344604,24.876719 -1.325751,-4.334184 h -6.628751 l -1.325751,4.334184 h -4.155717 l 6.42479,-18.2800583 h 4.716612 L 49.500321,24.876719 Z M 41.775276,13.072441 Q 41.6478,12.639023 41.443838,11.976148 41.239877,11.313273 41.035915,10.624902 40.831953,9.9365318 40.704477,9.4266278 q -0.127476,0.509904 -0.356932,1.2747602 -0.203962,0.739361 -0.407924,1.427731 -0.178466,0.662875 -0.280447,0.943322 l -1.300255,4.232203 h 4.742107 z"
     id="path670" /><path
     d="M 67.933364,24.876719 H 63.038286 L 55.109279,11.109311 h -0.101981 q 0.05099,1.300255 0.101981,2.60051 0.07649,1.300255 0.127476,2.600511 v 8.566387 H 51.794903 V 6.6731463 h 4.869583 l 7.903512,13.6399317 h 0.07649 q -0.0255,-1.27476 -0.07649,-2.524025 -0.05099,-1.249265 -0.101981,-2.498529 V 6.6731463 h 3.467347 z"
     id="path672" /><path
     d="m 71.247732,17.891034 q 0,-3.110414 0.892332,-5.991372 0.917827,-2.9064526 2.855462,-5.2265157 h 3.110414 q -1.733673,2.3965487 -2.6515,5.2775067 -0.892332,2.880957 -0.892332,5.914886 0,2.957443 0.892332,5.8384 0.917827,2.855463 2.626005,5.201021 h -3.084919 q -1.937635,-2.243578 -2.855462,-5.073545 -0.892332,-2.855462 -0.892332,-5.940381 z"
     id="path674" /><path
     d="M 88.864933,24.876719 84.479759,10.599407 h -0.101981 q 0.02549,0.509904 0.07648,1.529712 0.05099,1.019808 0.101981,2.192587 0.05099,1.147284 0.05099,2.090606 v 8.464407 H 81.165383 V 6.6731463 h 5.252011 l 4.308688,13.9203787 h 0.07649 L 95.366209,6.6731463 h 5.252011 V 24.876719 h -3.594823 v -8.617378 q 0,-0.866837 0.02549,-1.988625 0.05099,-1.121789 0.07649,-2.116102 0.05099,-1.019808 0.07649,-1.529712 h -0.101981 l -4.691116,14.251817 z"
     id="path676" /><path
     d="m 110.63785,10.701388 q 2.88096,0 4.56364,1.657188 1.68269,1.631692 1.68269,4.665621 v 1.835655 h -8.97431 q 0.051,1.606197 0.94332,2.524024 0.91783,0.917827 2.52402,0.917827 1.35125,0 2.44754,-0.254952 1.0963,-0.280447 2.26907,-0.841341 v 2.931948 q -1.0198,0.509904 -2.16709,0.739361 -1.12179,0.254952 -2.72798,0.254952 -2.09061,0 -3.69681,-0.764856 -1.60619,-0.790352 -2.52402,-2.371054 -0.91783,-1.580702 -0.91783,-3.977251 0,-2.447539 0.81585,-4.053737 0.84134,-1.631692 2.32006,-2.447539 1.47872,-0.815846 3.44185,-0.815846 z m 0.0255,2.702491 q -1.0963,0 -1.83566,0.713865 -0.71386,0.713866 -0.84134,2.218083 h 5.3285 q -0.0255,-1.27476 -0.66288,-2.090607 -0.63738,-0.841341 -1.98862,-0.841341 z"
     id="path678" /><path
     d="m 125.83298,22.097742 q 0.63738,0 1.22377,-0.127476 0.58639,-0.127476 1.17278,-0.305943 v 2.829968 q -0.61189,0.254952 -1.52972,0.433418 -0.89233,0.203962 -1.96313,0.203962 -1.24926,0 -2.24357,-0.407924 -0.96882,-0.407923 -1.55521,-1.402236 -0.56089,-1.019808 -0.56089,-2.804472 v -6.705237 h -1.81016 v -1.606197 l 2.0906,-1.27476 1.0963,-2.9319484 h 2.42204 V 10.95634 h 3.90077 v 2.855462 h -3.90077 v 6.705237 q 0,0.790352 0.45891,1.198275 0.45892,0.382428 1.19828,0.382428 z"
     id="path680" /><path
     d="m 138.81004,10.701388 q 0.28044,0 0.66287,0.0255 0.38243,0.02549 0.61189,0.07649 l -0.28045,3.569327 q -0.17847,-0.05099 -0.5354,-0.07648 -0.33144,-0.05099 -0.58639,-0.05099 -0.96882,0 -1.86115,0.356933 -0.89233,0.331438 -1.45323,1.096294 -0.53539,0.764856 -0.53539,2.090606 v 7.087666 H 131.034 V 10.95634 h 2.88096 l 0.56089,2.345558 h 0.17847 q 0.61188,-1.070798 1.68268,-1.835654 1.0708,-0.764856 2.47304,-0.764856 z"
     id="path682" /><path
     d="m 154.74454,17.891034 q 0,3.467347 -1.83566,5.353992 -1.81016,1.886645 -4.94606,1.886645 -1.93764,0 -3.46735,-0.841342 -1.50422,-0.841342 -2.37106,-2.447539 -0.86683,-1.631693 -0.86683,-3.951756 0,-3.467347 1.81016,-5.328497 1.81016,-1.861149 4.97156,-1.861149 1.96313,0 3.46735,0.841341 1.50421,0.841342 2.37105,2.447539 0.86684,1.580703 0.86684,3.900766 z m -9.61169,0 q 0,2.065111 0.66287,3.135909 0.68837,1.045304 2.21809,1.045304 1.50421,0 2.16709,-1.045304 0.68837,-1.070798 0.68837,-3.135909 0,-2.065111 -0.68837,-3.084919 -0.66288,-1.045303 -2.19259,-1.045303 -1.50422,0 -2.19259,1.045303 -0.66287,1.019808 -0.66287,3.084919 z"
     id="path684" /><path
     d="m 165.63097,10.701388 q 2.34556,0 3.79878,1.835654 1.45323,1.810159 1.45323,5.353992 0,3.543833 -1.50422,5.404982 -1.50421,1.835655 -3.84977,1.835655 -1.50422,0 -2.39655,-0.5354 -0.89233,-0.560894 -1.45323,-1.249264 h -0.20396 q 0.20396,1.070798 0.20396,2.039616 v 5.608943 h -3.79878 V 10.95634 h 3.08492 l 0.5354,1.810159 h 0.17846 q 0.5609,-0.841342 1.50422,-1.453226 0.94332,-0.611885 2.44754,-0.611885 z m -1.22377,3.033928 q -1.47872,0 -2.09061,0.917828 -0.58639,0.917827 -0.63738,2.804472 v 0.407923 q 0,2.01412 0.58639,3.110414 0.61189,1.070798 2.19259,1.070798 1.30026,0 1.91214,-1.070798 0.63738,-1.096294 0.63738,-3.135909 0,-4.104728 -2.60051,-4.104728 z"
     id="path686" /><path
     d="m 186.66451,17.891034 q 0,3.467347 -1.83566,5.353992 -1.81016,1.886645 -4.94607,1.886645 -1.93763,0 -3.46734,-0.841342 -1.50422,-0.841342 -2.37106,-2.447539 -0.86683,-1.631693 -0.86683,-3.951756 0,-3.467347 1.81015,-5.328497 1.81016,-1.861149 4.97157,-1.861149 1.96313,0 3.46735,0.841341 1.50421,0.841342 2.37105,2.447539 0.86684,1.580703 0.86684,3.900766 z m -9.61169,0 q 0,2.065111 0.66287,3.135909 0.68837,1.045304 2.21808,1.045304 1.50422,0 2.1671,-1.045304 0.68837,-1.070798 0.68837,-3.135909 0,-2.065111 -0.68837,-3.084919 -0.66288,-1.045303 -2.19259,-1.045303 -1.50422,0 -2.19259,1.045303 -0.66287,1.019808 -0.66287,3.084919 z"
     id="path688" /><path
     d="M 193.59918,24.876719 H 189.8004 V 5.5003671 h 3.79878 z"
     id="path690" /><path
     d="m 199.48858,5.5003671 q 0.84134,0 1.45323,0.4079232 0.61188,0.382428 0.61188,1.4532264 0,1.0453031 -0.61188,1.4532263 -0.61189,0.4079232 -1.45323,0.4079232 -0.86683,0 -1.47872,-0.4079232 -0.58639,-0.4079232 -0.58639,-1.4532263 0,-1.0707984 0.58639,-1.4532264 0.61189,-0.4079232 1.47872,-0.4079232 z m 1.88665,5.4559729 v 13.920379 h -3.79879 V 10.95634 Z"
     id="path692" /><path
     d="m 211.21639,22.097742 q 0.63738,0 1.22377,-0.127476 0.58638,-0.127476 1.17277,-0.305943 v 2.829968 q -0.61188,0.254952 -1.52971,0.433418 -0.89233,0.203962 -1.96313,0.203962 -1.24926,0 -2.24358,-0.407924 -0.96881,-0.407923 -1.5552,-1.402236 -0.5609,-1.019808 -0.5609,-2.804472 v -6.705237 h -1.81016 v -1.606197 l 2.09061,-1.27476 1.09629,-2.9319484 h 2.42205 V 10.95634 h 3.90076 v 2.855462 h -3.90076 v 6.705237 q 0,0.790352 0.45891,1.198275 0.45891,0.382428 1.19828,0.382428 z"
     id="path694" /><path
     d="m 222.12833,10.675893 q 2.80447,0 4.28319,1.223769 1.50422,1.198274 1.50422,3.696804 v 9.280253 h -2.65151 l -0.73936,-1.886645 h -0.10198 q -0.89233,1.121789 -1.88664,1.631693 -0.99431,0.509904 -2.72799,0.509904 -1.86115,0 -3.08492,-1.070799 -1.22377,-1.096293 -1.22377,-3.339871 0,-2.218082 1.55521,-3.263385 1.55521,-1.070799 4.66562,-1.17278 l 2.42205,-0.07648 v -0.611885 q 0,-1.096294 -0.58639,-1.606198 -0.5609,-0.509904 -1.58071,-0.509904 -1.0198,0 -1.98862,0.305943 -0.96882,0.280447 -1.93764,0.713865 l -1.24926,-2.575015 q 1.12179,-0.586389 2.47303,-0.917827 1.37674,-0.331437 2.85547,-0.331437 z m 0.53539,7.801531 q -1.83565,0.05099 -2.54952,0.662875 -0.71386,0.611884 -0.71386,1.606197 0,0.866837 0.5099,1.249265 0.50991,0.356933 1.32575,0.356933 1.22377,0 2.06511,-0.713866 0.84135,-0.739361 0.84135,-2.065111 v -1.147284 z"
     id="path696" /><path
     d="m 239.72002,10.701388 q 2.24358,0 3.59482,1.223769 1.35125,1.198275 1.35125,3.875271 v 9.076291 h -3.79878 V 16.74375 q 0,-1.504217 -0.5354,-2.243578 -0.5354,-0.764856 -1.70818,-0.764856 -1.73368,0 -2.37106,1.198275 -0.63738,1.172779 -0.63738,3.390861 v 6.552267 h -3.79878 V 10.95634 h 2.90645 l 0.50991,1.784664 h 0.20396 q 0.66287,-1.070799 1.81016,-1.555207 1.17278,-0.484409 2.47303,-0.484409 z"
     id="path698" /><path
     d="M 265.98007,24.876719 H 255.50154 V 6.6731463 h 10.47853 V 9.834551 h -6.62875 v 4.002746 h 6.16983 v 3.161405 h -6.16983 v 4.691117 h 6.62875 z"
     id="path700" /><path
     d="m 277.24892,10.701388 q 0.28044,0 0.66287,0.0255 0.38243,0.02549 0.61189,0.07649 l -0.28045,3.569327 q -0.17847,-0.05099 -0.5354,-0.07648 -0.33144,-0.05099 -0.58639,-0.05099 -0.96882,0 -1.86115,0.356933 -0.89233,0.331438 -1.45322,1.096294 -0.5354,0.764856 -0.5354,2.090606 v 7.087666 h -3.79879 V 10.95634 h 2.88096 l 0.56089,2.345558 h 0.17847 q 0.61188,-1.070798 1.68268,-1.835654 1.0708,-0.764856 2.47304,-0.764856 z"
     id="path702" /><path
     d="m 286.27424,10.701388 q 2.88096,0 4.56364,1.657188 1.68269,1.631692 1.68269,4.665621 v 1.835655 h -8.97431 q 0.051,1.606197 0.94332,2.524024 0.91783,0.917827 2.52402,0.917827 1.35125,0 2.44754,-0.254952 1.0963,-0.280447 2.26908,-0.841341 v 2.931948 q -1.01981,0.509904 -2.1671,0.739361 -1.12179,0.254952 -2.72798,0.254952 -2.09061,0 -3.69681,-0.764856 -1.60619,-0.790352 -2.52402,-2.371054 -0.91783,-1.580702 -0.91783,-3.977251 0,-2.447539 0.81585,-4.053737 0.84134,-1.631692 2.32006,-2.447539 1.47872,-0.815846 3.44185,-0.815846 z m 0.0255,2.702491 q -1.0963,0 -1.83566,0.713865 -0.71386,0.713866 -0.84134,2.218083 h 5.3285 q -0.0255,-1.27476 -0.66288,-2.090607 -0.63738,-0.841341 -1.98862,-0.841341 z"
     id="path704" /><path
     d="m 301.31637,10.675893 q 2.80448,0 4.2832,1.223769 1.50422,1.198274 1.50422,3.696804 v 9.280253 h -2.65151 l -0.73936,-1.886645 h -0.10198 q -0.89233,1.121789 -1.88664,1.631693 -0.99431,0.509904 -2.72799,0.509904 -1.86115,0 -3.08492,-1.070799 -1.22377,-1.096293 -1.22377,-3.339871 0,-2.218082 1.55521,-3.263385 1.55521,-1.070799 4.66562,-1.17278 l 2.42205,-0.07648 v -0.611885 q 0,-1.096294 -0.58639,-1.606198 -0.5609,-0.509904 -1.58071,-0.509904 -1.0198,0 -1.98862,0.305943 -0.96882,0.280447 -1.93764,0.713865 l -1.24926,-2.575015 q 1.12179,-0.586389 2.47303,-0.917827 1.37674,-0.331437 2.85546,-0.331437 z m 0.5354,7.801531 q -1.83565,0.05099 -2.54952,0.662875 -0.71386,0.611884 -0.71386,1.606197 0,0.866837 0.5099,1.249265 0.50991,0.356933 1.32575,0.356933 1.22377,0 2.06511,-0.713866 0.84135,-0.739361 0.84135,-2.065111 v -1.147284 z"
     id="path706" /><path
     d="m 334.07772,24.876719 h -4.89508 l -7.92901,-13.767408 h -0.10198 q 0.051,1.300255 0.10198,2.60051 0.0765,1.300255 0.12748,2.600511 v 8.566387 h -3.44185 V 6.6731463 h 4.86958 l 7.90351,13.6399317 h 0.0765 q -0.0255,-1.27476 -0.0765,-2.524025 -0.051,-1.249265 -0.10198,-2.498529 V 6.6731463 h 3.46735 z"
     id="path708" /><path
     d="m 344.09733,10.701388 q 2.88096,0 4.56364,1.657188 1.68269,1.631692 1.68269,4.665621 v 1.835655 h -8.97431 q 0.051,1.606197 0.94332,2.524024 0.91783,0.917827 2.52402,0.917827 1.35125,0 2.44754,-0.254952 1.0963,-0.280447 2.26908,-0.841341 v 2.931948 q -1.01981,0.509904 -2.1671,0.739361 -1.12179,0.254952 -2.72798,0.254952 -2.09061,0 -3.69681,-0.764856 -1.60619,-0.790352 -2.52402,-2.371054 -0.91783,-1.580702 -0.91783,-3.977251 0,-2.447539 0.81585,-4.053737 0.84134,-1.631692 2.32006,-2.447539 1.47872,-0.815846 3.44185,-0.815846 z m 0.0255,2.702491 q -1.0963,0 -1.83566,0.713865 -0.71386,0.713866 -0.84134,2.218083 h 5.3285 q -0.0255,-1.27476 -0.66288,-2.090607 -0.63738,-0.841341 -1.98862,-0.841341 z"
     id="path710" /><path
     d="m 359.29247,22.097742 q 0.63738,0 1.22377,-0.127476 0.58639,-0.127476 1.17277,-0.305943 v 2.829968 q -0.61188,0.254952 -1.52971,0.433418 -0.89233,0.203962 -1.96313,0.203962 -1.24926,0 -2.24357,-0.407924 -0.96882,-0.407923 -1.55521,-1.402236 -0.5609,-1.019808 -0.5609,-2.804472 v -6.705237 h -1.81016 v -1.606197 l 2.09061,-1.27476 1.09629,-2.9319484 h 2.42205 V 10.95634 h 3.90076 v 2.855462 h -3.90076 v 6.705237 q 0,0.790352 0.45891,1.198275 0.45892,0.382428 1.19828,0.382428 z"
     id="path712" /><path
     d="m 374.87003,20.007135 q -0.10198,-0.433418 -0.30595,-1.274759 -0.17846,-0.866837 -0.40792,-1.835655 -0.22946,-0.994313 -0.43342,-1.810159 -0.20396,-0.841342 -0.28044,-1.22377 h -0.10198 q -0.0765,0.382428 -0.28045,1.22377 -0.17847,0.815846 -0.40793,1.810159 -0.22945,0.968818 -0.43341,1.835655 -0.20397,0.866836 -0.30595,1.32575 l -1.12178,4.818593 h -4.07924 L 362.75981,10.95634 h 3.77329 l 1.60619,6.169838 q 0.17847,0.63738 0.30595,1.529712 0.15297,0.892332 0.28044,1.733673 0.12748,0.815847 0.17847,1.300256 h 0.10198 q 0.0255,-0.356933 0.10198,-0.943323 0.0765,-0.611885 0.17847,-1.249265 0.12747,-0.637379 0.20396,-1.147283 0.10198,-0.5354 0.15297,-0.713866 l 1.70818,-6.679742 h 4.18121 l 1.6317,6.679742 q 0.10198,0.356933 0.22945,1.147284 0.15297,0.790351 0.25495,1.606197 0.12748,0.815847 0.12748,1.300256 h 0.10198 q 0.051,-0.433419 0.17847,-1.249265 0.12747,-0.841342 0.28044,-1.759169 0.17847,-0.917827 0.35694,-1.555207 l 1.65719,-6.169838 h 3.72229 l -4.00274,13.920379 h -4.13022 z"
     id="path714" /><path
     d="m 398.96301,17.891034 q 0,3.467347 -1.83565,5.353992 -1.81016,1.886645 -4.94607,1.886645 -1.93763,0 -3.46735,-0.841342 -1.50421,-0.841342 -2.37105,-2.447539 -0.86684,-1.631693 -0.86684,-3.951756 0,-3.467347 1.81016,-5.328497 1.81016,-1.861149 4.97157,-1.861149 1.96313,0 3.46734,0.841341 1.50422,0.841342 2.37106,2.447539 0.86683,1.580703 0.86683,3.900766 z m -9.61169,0 q 0,2.065111 0.66288,3.135909 0.68837,1.045304 2.21808,1.045304 1.50422,0 2.16709,-1.045304 0.68837,-1.070798 0.68837,-3.135909 0,-2.065111 -0.68837,-3.084919 -0.66287,-1.045303 -2.19258,-1.045303 -1.50422,0 -2.19259,1.045303 -0.66288,1.019808 -0.66288,3.084919 z"
     id="path716" /><path
     d="m 409.87496,10.701388 q 0.28044,0 0.66287,0.0255 0.38243,0.02549 0.61189,0.07649 l -0.28045,3.569327 q -0.17847,-0.05099 -0.5354,-0.07648 -0.33144,-0.05099 -0.58639,-0.05099 -0.96882,0 -1.86115,0.356933 -0.89233,0.331438 -1.45323,1.096294 -0.5354,0.764856 -0.5354,2.090606 v 7.087666 h -3.79878 V 10.95634 h 2.88096 l 0.56089,2.345558 h 0.17847 q 0.61188,-1.070798 1.68268,-1.835654 1.0708,-0.764856 2.47304,-0.764856 z"
     id="path718" /><path
     d="m 417.47253,14.168735 q 0,0.790351 -0.0765,1.580702 -0.051,0.764856 -0.12748,1.555207 h 0.051 q 0.38243,-0.535399 0.79035,-1.070798 0.40793,-0.560894 0.86684,-1.045303 l 3.90077,-4.232203 h 4.28319 l -5.53246,6.042362 5.8639,7.878017 h -4.38518 l -4.00274,-5.63444 -1.6317,1.300256 v 4.334184 h -3.79878 V 5.5003671 h 3.79878 z"
     id="path720" /><path
     d="m 435.11522,17.891034 q 0,3.084919 -0.91782,5.940381 -0.89233,2.829967 -2.82997,5.073545 h -3.08492 q 1.73368,-2.345558 2.62601,-5.201021 0.89233,-2.880957 0.89233,-5.8384 0,-3.033929 -0.91783,-5.914886 -0.89233,-2.880958 -2.626,-5.2775067 h 3.11041 q 1.93764,2.3200631 2.82997,5.2265157 0.91782,2.880958 0.91782,5.991372 z"
     id="path722" /></g><text
   xml:space="preserve"
   style="font-weight:bold;font-size:50.3745px;font-family:sans-serif;-inkscape-font-specification:'sans-serif, Bold';fill:#000000;stroke-width:0.036961"
   x="93.423798"
   y="71.981438"
   id="text465"><tspan
     sodipodi:role="line"
     id="tspan463"
     style="stroke-width:0.036961"
     x="93.423798"
     y="71.981438" /></text><g
   aria-label="Okul"
   transform="scale(1.021807,0.97865839)"
   id="text519-7"
   style="font-weight:bold;font-size:37.0053px;-inkscape-font-specification:'sans-serif, Bold';stroke-width:0.0271517"><path
     d="m 396.26413,411.14526 q 0,4.10759 -1.36919,7.17903 -1.33219,3.03443 -4.10759,4.73668 -2.7754,1.70224 -7.10502,1.70224 -4.29261,0 -7.10501,-1.70224 -2.7754,-1.70225 -4.1446,-4.77369 -1.33219,-3.07144 -1.33219,-7.17902 0,-4.10759 1.33219,-7.14203 1.3692,-3.03443 4.1446,-4.69967 2.8124,-1.70224 7.14202,-1.70224 4.29261,0 7.06801,1.70224 2.7754,1.66524 4.10759,4.73668 1.36919,3.03443 1.36919,7.14202 z m -19.27976,0 q 0,4.14459 1.59123,6.54994 1.59123,2.36834 5.10673,2.36834 3.58952,0 5.14374,-2.36834 1.55422,-2.40535 1.55422,-6.54994 0,-4.1816 -1.55422,-6.54994 -1.55422,-2.36834 -5.10673,-2.36834 -3.55251,0 -5.14374,2.36834 -1.59123,2.36834 -1.59123,6.54994 z"
     id="path628" /><path
     d="m 406.81063,408.85093 q 0,1.14717 -0.11102,2.29433 -0.074,1.11016 -0.18503,2.25732 h 0.074 q 0.55508,-0.77711 1.14717,-1.55422 0.59208,-0.81411 1.25818,-1.51722 l 5.66181,-6.14288 h 6.21689 l -8.03015,8.77026 8.51122,11.43464 h -6.36491 l -5.80983,-8.17817 -2.36834,1.88727 v 6.2909 h -5.51379 v -28.12403 h 5.51379 z"
     id="path630" /><path
     d="m 442.7798,404.18826 v 20.2049 h -4.2186 l -0.74011,-2.59037 h -0.29604 q -0.96214,1.55422 -2.66438,2.25732 -1.66524,0.7031 -3.55251,0.7031 -3.25646,0 -5.21774,-1.73925 -1.96129,-1.77625 -1.96129,-5.66181 v -13.17389 h 5.51379 v 11.8047 q 0,2.1463 0.77712,3.25646 0.77711,1.11016 2.47935,1.11016 2.51636,0 3.44149,-1.70224 0.92514,-1.73925 0.92514,-4.95871 v -9.51037 z"
     id="path632" /><path
     d="m 454.06641,424.39316 h -5.51379 v -28.12403 h 5.51379 z"
     id="path634" /></g><g
   aria-label="Ofis"
   transform="scale(1.021807,0.97865839)"
   id="text519-7-3"
   style="font-weight:bold;font-size:37.0053px;-inkscape-font-specification:'sans-serif, Bold';stroke-width:0.0271517"><path
     d="m 225.1816,408.1485 q 0,4.10758 -1.3692,7.17902 -1.33219,3.03444 -4.10758,4.73668 -2.7754,1.70225 -7.10502,1.70225 -4.29262,0 -7.10502,-1.70225 -2.7754,-1.70224 -4.14459,-4.77368 -1.33219,-3.07144 -1.33219,-7.17903 0,-4.10759 1.33219,-7.14202 1.36919,-3.03444 4.14459,-4.69967 2.8124,-1.70225 7.14202,-1.70225 4.29262,0 7.06802,1.70225 2.77539,1.66523 4.10758,4.73667 1.3692,3.03444 1.3692,7.14203 z m -19.27976,0 q 0,4.14459 1.59123,6.54993 1.59122,2.36834 5.10673,2.36834 3.58951,0 5.14373,-2.36834 1.55423,-2.40534 1.55423,-6.54993 0,-4.1816 -1.55423,-6.54994 -1.55422,-2.36834 -5.10673,-2.36834 -3.55251,0 -5.14373,2.36834 -1.59123,2.36834 -1.59123,6.54994 z"
     id="path621" /><path
     d="m 241.3899,405.33609 h -4.77368 v 16.0603 h -5.51379 v -16.0603 h -3.03444 v -2.66438 l 3.03444,-1.48021 v -1.48021 q 0,-2.59037 0.85112,-3.99657 0.88813,-1.44321 2.47936,-2.0353 1.62823,-0.59208 3.81154,-0.59208 1.62823,0 2.92342,0.25904 1.33219,0.25903 2.14631,0.59208 l -1.4062,4.03358 q -0.62909,-0.18503 -1.3692,-0.33305 -0.74011,-0.18503 -1.70224,-0.18503 -1.14717,0 -1.70225,0.70311 -0.51807,0.7031 -0.51807,1.77625 v 1.25818 h 4.77368 z m 5.92085,-12.06372 q 1.22117,0 2.1093,0.59208 0.88813,0.55508 0.88813,2.1093 0,1.51722 -0.88813,2.1093 -0.88813,0.59209 -2.1093,0.59209 -1.25818,0 -2.14631,-0.59209 -0.85112,-0.59208 -0.85112,-2.1093 0,-1.55422 0.85112,-2.1093 0.88813,-0.59208 2.14631,-0.59208 z m 2.73839,7.91913 v 20.20489 h -5.51379 V 401.1915 Z"
     id="path623" /><path
     d="m 269.92096,415.40153 q 0,3.07144 -2.18331,4.73668 -2.14631,1.62824 -6.43892,1.62824 -2.1093,0 -3.62652,-0.29605 -1.51722,-0.25903 -3.03443,-0.88812 v -4.55166 q 1.62823,0.74011 3.5155,1.22118 1.88727,0.48107 3.33048,0.48107 1.62823,0 2.29432,-0.48107 0.7031,-0.48107 0.7031,-1.25818 0,-0.51807 -0.29604,-0.92513 -0.25903,-0.40706 -1.18417,-0.92514 -0.92513,-0.51807 -2.88641,-1.33219 -1.88727,-0.81411 -3.10845,-1.59122 -1.22117,-0.81412 -1.81326,-1.92428 -0.59208,-1.14716 -0.59208,-2.84941 0,-2.8124 2.18331,-4.2186 2.18332,-1.4062 5.80983,-1.4062 1.88727,0 3.58952,0.37005 1.70224,0.37005 3.5155,1.22117 l -1.66524,3.95957 q -1.48021,-0.62909 -2.8124,-1.03615 -1.33219,-0.44406 -2.70139,-0.44406 -2.44235,0 -2.44235,1.33219 0,0.48107 0.29605,0.88813 0.33304,0.37005 1.22117,0.81411 0.92513,0.44407 2.70139,1.18417 1.73925,0.7031 2.99743,1.48022 1.25818,0.7401 1.92427,1.88727 0.7031,1.11015 0.7031,2.92341 z"
     id="path625" /></g></svg>
