<?xml version="1.0" encoding="UTF-8" standalone="no"?>
<!-- Uploaded to: SVG Repo, www.svgrepo.com, Generator: SVG Repo Mixer Tools -->

<svg
   height="800px"
   width="800px"
   version="1.1"
   id="Layer_1"
   viewBox="0 0 489.7 489.7"
   xml:space="preserve"
   sodipodi:docname="ag-wan.svg"
   inkscape:version="1.2.2 (b0a8486541, 2022-12-01)"
   xmlns:inkscape="http://www.inkscape.org/namespaces/inkscape"
   xmlns:sodipodi="http://sodipodi.sourceforge.net/DTD/sodipodi-0.dtd"
   xmlns="http://www.w3.org/2000/svg"
   xmlns:svg="http://www.w3.org/2000/svg"><defs
   id="defs646" /><sodipodi:namedview
   id="namedview644"
   pagecolor="#ffffff"
   bordercolor="#000000"
   borderopacity="0.25"
   inkscape:showpageshadow="2"
   inkscape:pageopacity="0.0"
   inkscape:pagecheckerboard="0"
   inkscape:deskcolor="#d1d1d1"
   showgrid="false"
   inkscape:zoom="0.67375"
   inkscape:cx="600.37106"
   inkscape:cy="469.0167"
   inkscape:window-width="1366"
   inkscape:window-height="675"
   inkscape:window-x="0"
   inkscape:window-y="0"
   inkscape:window-maximized="1"
   inkscape:current-layer="Layer_1" />
<g
   id="g641"
   transform="matrix(1.0148423,0,0,0.97991943,-7.2682746,9.0051325)">
	<g
   id="g639">
		<path
   id="XMLID_1284_"
   style="fill:#3c92ca"
   d="m 17.1,357.45 h 107.7 c 4.4,0 8.1,3.6 8.1,8.1 v 65.8 c 0,4.4 -3.6,8.1 -8.1,8.1 H 17.1 c -4.4,0 -8.1,-3.6 -8.1,-8.1 v -65.8 c 0,-4.5 3.7,-8.1 8.1,-8.1 z" />
		<path
   id="XMLID_1282_"
   style="fill:#3c92ca"
   d="m 365,357.45 h 107.7 c 4.4,0 8.1,3.6 8.1,8.1 v 65.8 c 0,4.4 -3.6,8.1 -8.1,8.1 H 365 c -4.4,0 -8.1,-3.6 -8.1,-8.1 v -65.8 c 0.1,-4.5 3.7,-8.1 8.1,-8.1 z" />
		<path
   d="m 116.6,448.45 c 14,0 25.3,-11.4 25.3,-25.3 v -49.4 c 0,-14 -11.4,-25.3 -25.3,-25.3 H 80 v -67.8 h 155.8 v 67.8 h -36.6 c -14,0 -25.3,11.4 -25.3,25.3 v 49.4 c 0,14 11.4,25.3 25.3,25.3 h 91.3 c 14,0 25.3,-11.4 25.3,-25.3 v -49.4 c 0,-14 -11.4,-25.3 -25.3,-25.3 h -36.6 v -67.8 h 155.8 v 67.8 h -36.6 c -14,0 -25.3,11.4 -25.3,25.3 v 49.4 c 0,14 11.4,25.3 25.3,25.3 h 91.3 c 14,0 25.3,-11.4 25.3,-25.3 v -49.4 c 0,-14 -11.4,-25.3 -25.3,-25.3 h -36.5 v -76.8 c 0,-5 -4.1,-9.1 -9.1,-9.1 H 254 v -47.3 h 74 c 18.3,0 33.2,-14.9 33.2,-33.2 V 74.45 c 0,-18.3 -14.9,-33.2 -33.2,-33.2 H 161.8 c -18.3,0 -33.2,14.9 -33.2,33.2 v 107.5 c 0,18.3 14.9,33.2 33.2,33.2 h 74 v 47.3 H 70.9 c -5,0 -9.1,4.1 -9.1,9.1 v 76.8 H 25.3 c -14,0 -25.3,11.4 -25.3,25.3 v 49.4 c 0,14 11.4,25.3 25.3,25.3 h 91.3 c 0,0 0,0.1 0,0.1 z m 181.1,-74.7 v 49.4 c 0,4 -3.2,7.2 -7.2,7.2 h -91.3 c -4,0 -7.2,-3.2 -7.2,-7.2 v -49.4 c 0,-4 3.2,-7.2 7.2,-7.2 h 91.3 c 4,-0.1 7.2,3.2 7.2,7.2 z m 174,0 v 49.4 c 0,4 -3.2,7.2 -7.2,7.2 h -91.3 c -4,0 -7.2,-3.2 -7.2,-7.2 v -49.4 c 0,-4 3.2,-7.2 7.2,-7.2 h 91.3 c 4,-0.1 7.2,3.2 7.2,7.2 z m -325,-191.8 V 74.45 c 0,-8.3 6.8,-15.1 15.1,-15.1 H 328 c 8.3,0 15.1,6.8 15.1,15.1 v 107.5 c 0,8.3 -6.8,15.1 -15.1,15.1 H 161.8 c -8.3,0 -15.1,-6.8 -15.1,-15.1 z M 18.1,423.15 v -49.4 c 0,-4 3.2,-7.2 7.2,-7.2 h 91.3 c 4,0 7.2,3.2 7.2,7.2 v 49.4 c 0,4 -3.2,7.2 -7.2,7.2 H 25.3 c -4,0 -7.2,-3.2 -7.2,-7.2 z"
   id="path637" />
	</g>
</g>
<g
   aria-label="Wan(Wide Area Network=internet)"
   transform="scale(0.7301453,1.3695904)"
   id="text406"
   style="font-weight:bold;font-size:27.2349px;-inkscape-font-specification:'sans-serif, Bold';stroke-width:0.0199829"><path
     d="M 43.710465,7.8016858 38.753713,27.247404 H 34.069311 L 31.427525,17.034317 q -0.0817,-0.299584 -0.217879,-0.898752 -0.108939,-0.599168 -0.272349,-1.307275 -0.136174,-0.708107 -0.245114,-1.33451 -0.10894,-0.653638 -0.163409,-1.007691 -0.02723,0.354053 -0.16341,1.007691 -0.108939,0.626403 -0.245114,1.33451 -0.136174,0.680872 -0.272349,1.307275 -0.136174,0.599168 -0.217879,0.925987 l -2.61455,10.185852 H 22.331069 L 17.374317,7.8016858 h 4.058 l 2.478376,10.6216112 q 0.163409,0.626402 0.354054,1.579624 0.190644,0.953221 0.354053,1.906443 0.16341,0.953221 0.245115,1.606859 0.0817,-0.680873 0.245114,-1.606859 0.163409,-0.953222 0.326818,-1.824738 0.190645,-0.898752 0.326819,-1.38898 l 2.83243,-10.8939602 h 3.89459 l 2.83243,10.8939602 q 0.136174,0.462993 0.299584,1.361745 0.190644,0.898751 0.354054,1.851973 0.163409,0.953221 0.245114,1.606859 0.0817,-0.680873 0.245114,-1.606859 0.163409,-0.953222 0.354053,-1.906443 0.21788,-0.953222 0.354054,-1.579624 L 39.652465,7.8016858 Z"
     id="path534" /><path
     d="m 51.390721,12.077565 q 2.995839,0 4.575463,1.307275 1.606859,1.280041 1.606859,3.949061 v 9.913503 h -2.83243 l -0.789812,-2.015382 h -0.108939 q -0.953222,1.198335 -2.015383,1.743033 -1.062161,0.544698 -2.914134,0.544698 -1.988148,0 -3.295423,-1.143866 -1.307275,-1.1711 -1.307275,-3.567772 0,-2.369436 1.661329,-3.486067 1.661329,-1.143865 4.983986,-1.252805 l 2.587316,-0.0817 v -0.653637 q 0,-1.171101 -0.626403,-1.715799 -0.599168,-0.544698 -1.688564,-0.544698 -1.089396,0 -2.124322,0.326819 -1.034926,0.299584 -2.069852,0.762577 l -1.33451,-2.750725 q 1.198335,-0.626403 2.641785,-0.980456 1.470685,-0.354054 3.050309,-0.354054 z m 0.571933,8.333879 q -1.960913,0.05447 -2.72349,0.708108 -0.762578,0.653637 -0.762578,1.715798 0,0.925987 0.544698,1.33451 0.544698,0.381289 1.416215,0.381289 1.307275,0 2.206027,-0.762577 0.898752,-0.789812 0.898752,-2.206027 v -1.22557 z"
     id="path536" /><path
     d="m 70.182806,12.1048 q 2.396672,0 3.840121,1.307275 1.44345,1.28004 1.44345,4.139705 v 9.695624 h -4.058 v -8.687933 q 0,-1.606859 -0.571933,-2.396671 -0.571933,-0.817047 -1.824738,-0.817047 -1.851973,0 -2.532846,1.28004 -0.680872,1.252806 -0.680872,3.622242 v 6.999369 h -4.058 V 12.377149 h 3.104778 l 0.544698,1.906443 h 0.217879 q 0.708108,-1.143866 1.933678,-1.661329 1.252806,-0.517463 2.641785,-0.517463 z"
     id="path538" /><path
     d="m 78.59838,19.785042 q 0,-3.322658 0.953221,-6.400202 0.980456,-3.104778 3.050309,-5.5831542 h 3.322658 q -1.851974,2.5600802 -2.83243,5.6376242 -0.953221,3.077544 -0.953221,6.318497 0,3.159248 0.953221,6.236792 0.980456,3.050308 2.805195,5.555919 H 82.60191 Q 80.532057,29.153847 79.551601,26.130773 78.59838,23.080464 78.59838,19.785042 Z"
     id="path540" /><path
     d="m 113.07778,7.8016858 -4.95675,19.4457182 h -4.6844 l -2.64179,-10.213087 q -0.0817,-0.299584 -0.21788,-0.898752 -0.10894,-0.599168 -0.27235,-1.307275 -0.13617,-0.708107 -0.24511,-1.33451 -0.108939,-0.653638 -0.163409,-1.007691 -0.02724,0.354053 -0.16341,1.007691 -0.108939,0.626403 -0.245114,1.33451 -0.136174,0.680872 -0.272349,1.307275 -0.136174,0.599168 -0.217879,0.925987 l -2.61455,10.185852 H 91.698386 L 86.741634,7.8016858 h 4.058 L 93.27801,18.423297 q 0.16341,0.626402 0.354054,1.579624 0.190644,0.953221 0.354054,1.906443 0.163409,0.953221 0.245114,1.606859 0.0817,-0.680873 0.245114,-1.606859 0.163409,-0.953222 0.326819,-1.824738 0.190644,-0.898752 0.326818,-1.38898 L 97.962413,7.8016858 H 101.857 l 2.83243,10.8939602 q 0.13618,0.462993 0.29959,1.361745 0.19064,0.898751 0.35405,1.851973 0.16341,0.953221 0.24511,1.606859 0.0817,-0.680873 0.24512,-1.606859 0.16341,-0.953222 0.35405,-1.906443 0.21788,-0.953222 0.35406,-1.579624 l 2.47837,-10.6216112 z"
     id="path542" /><path
     d="m 117.24475,6.5488805 q 0.89875,0 1.55239,0.4357584 0.65363,0.4085234 0.65363,1.5523892 0,1.1166309 -0.65363,1.5523889 -0.65364,0.435759 -1.55239,0.435759 -0.92599,0 -1.57963,-0.435759 -0.6264,-0.435758 -0.6264,-1.5523889 0,-1.1438658 0.6264,-1.5523892 0.65364,-0.4357584 1.57963,-0.4357584 z m 2.01538,5.8282685 v 14.870255 h -4.058 V 12.377149 Z"
     id="path544" /><path
     d="m 128.22042,27.519753 q -2.47838,0 -4.058,-1.933678 -1.55239,-1.960913 -1.55239,-5.746564 0,-3.812886 1.57962,-5.773798 1.57963,-1.960913 4.13971,-1.960913 1.60686,0 2.64178,0.626403 1.03493,0.626402 1.6341,1.552389 h 0.13617 q -0.0817,-0.435758 -0.19064,-1.252805 -0.10894,-0.844282 -0.10894,-1.715799 V 6.5488805 h 4.058 V 27.247404 h -3.10478 l -0.78981,-1.933678 h -0.16341 q -0.59917,0.925987 -1.60686,1.579624 -1.00769,0.626403 -2.61455,0.626403 z m 1.41621,-3.240953 q 1.68856,0 2.36944,-0.980456 0.68087,-1.007692 0.7081,-2.995839 v -0.435759 q 0,-2.178792 -0.68087,-3.322657 -0.65364,-1.143866 -2.45114,-1.143866 -1.33451,0 -2.09709,1.1711 -0.76257,1.143866 -0.76257,3.322658 0,2.178792 0.76257,3.295423 0.76258,1.089396 2.15156,1.089396 z"
     id="path546" /><path
     d="m 146.87631,12.1048 q 3.07754,0 4.87505,1.770268 1.7975,1.743034 1.7975,4.983987 v 1.960913 h -9.58669 q 0.0545,1.715798 1.0077,2.696255 0.98045,0.980456 2.69625,0.980456 1.44345,0 2.61455,-0.272349 1.1711,-0.299584 2.42391,-0.898751 v 3.132013 q -1.0894,0.544698 -2.31497,0.789812 -1.19833,0.272349 -2.91413,0.272349 -2.23327,0 -3.94906,-0.817047 -1.7158,-0.844282 -2.69626,-2.532846 -0.98046,-1.688563 -0.98046,-4.248644 0,-2.61455 0.87152,-4.330349 0.89875,-1.743033 2.47838,-2.61455 1.57962,-0.871517 3.67671,-0.871517 z m 0.0272,2.886899 q -1.1711,0 -1.96091,0.762578 -0.76258,0.762577 -0.89875,2.369436 h 5.69209 q -0.0272,-1.361745 -0.7081,-2.233262 -0.68088,-0.898752 -2.12433,-0.898752 z"
     id="path548" /><path
     d="m 176.15382,27.247404 -1.41621,-4.629933 h -7.08108 l -1.41621,4.629933 h -4.43929 l 6.86319,-19.5274229 h 5.03846 l 6.89043,19.5274229 z m -3.81288,-12.609758 q -0.13618,-0.462994 -0.35406,-1.171101 -0.21788,-0.708107 -0.43576,-1.44345 -0.21788,-0.735342 -0.35405,-1.28004 -0.13617,0.544698 -0.38129,1.361745 -0.21788,0.789812 -0.43576,1.525154 -0.19064,0.708108 -0.29958,1.007692 l -1.38898,4.520993 h 5.06569 z"
     id="path550" /><path
     d="m 191.02409,12.1048 q 0.29959,0 0.70811,0.02724 0.40853,0.02723 0.65364,0.0817 l -0.29958,3.812885 q -0.19065,-0.05447 -0.57194,-0.0817 -0.35405,-0.05447 -0.6264,-0.05447 -1.03493,0 -1.98815,0.381289 -0.95322,0.354053 -1.55239,1.1711 -0.57193,0.817047 -0.57193,2.233262 v 7.571302 h -4.058 V 12.377149 h 3.07754 l 0.59917,2.505611 h 0.19065 q 0.65363,-1.143866 1.7975,-1.960913 1.14387,-0.817047 2.64178,-0.817047 z"
     id="path552" /><path
     d="m 200.66525,12.1048 q 3.07754,0 4.87505,1.770268 1.7975,1.743034 1.7975,4.983987 v 1.960913 h -9.58669 q 0.0545,1.715798 1.0077,2.696255 0.98045,0.980456 2.69625,0.980456 1.44345,0 2.61455,-0.272349 1.1711,-0.299584 2.42391,-0.898751 v 3.132013 q -1.0894,0.544698 -2.31497,0.789812 -1.19833,0.272349 -2.91413,0.272349 -2.23326,0 -3.94906,-0.817047 -1.7158,-0.844282 -2.69626,-2.532846 -0.98046,-1.688563 -0.98046,-4.248644 0,-2.61455 0.87152,-4.330349 0.89875,-1.743033 2.47838,-2.61455 1.57962,-0.871517 3.67671,-0.871517 z m 0.0272,2.886899 q -1.1711,0 -1.96091,0.762578 -0.76258,0.762577 -0.89875,2.369436 h 5.69209 q -0.0272,-1.361745 -0.7081,-2.233262 -0.68088,-0.898752 -2.12433,-0.898752 z"
     id="path554" /><path
     d="m 216.73382,12.077565 q 2.99584,0 4.57547,1.307275 1.60686,1.280041 1.60686,3.949061 v 9.913503 h -2.83243 l -0.78982,-2.015382 h -0.10893 q -0.95323,1.198335 -2.01539,1.743033 -1.06216,0.544698 -2.91413,0.544698 -1.98815,0 -3.29542,-1.143866 -1.30728,-1.1711 -1.30728,-3.567772 0,-2.369436 1.66133,-3.486067 1.66133,-1.143865 4.98399,-1.252805 l 2.58731,-0.0817 v -0.653637 q 0,-1.171101 -0.6264,-1.715799 -0.59917,-0.544698 -1.68857,-0.544698 -1.08939,0 -2.12432,0.326819 -1.03492,0.299584 -2.06985,0.762577 l -1.33451,-2.750725 q 1.19834,-0.626403 2.64179,-0.980456 1.47068,-0.354054 3.0503,-0.354054 z m 0.57194,8.333879 q -1.96092,0.05447 -2.72349,0.708108 -0.76258,0.653637 -0.76258,1.715798 0,0.925987 0.5447,1.33451 0.5447,0.381289 1.41621,0.381289 1.30728,0 2.20603,-0.762577 0.89875,-0.789812 0.89875,-2.206027 v -1.22557 z"
     id="path556" /><path
     d="m 251.73068,27.247404 h -5.2291 l -8.47006,-14.706846 h -0.10894 q 0.0545,1.38898 0.10894,2.77796 0.0817,1.38898 0.13618,2.77796 v 9.150926 h -3.67671 V 7.8016858 h 5.20186 l 8.44282,14.5706712 h 0.0817 q -0.0272,-1.361745 -0.0817,-2.696255 -0.0545,-1.33451 -0.10894,-2.66902 V 7.8016858 h 3.70395 z"
     id="path558" /><path
     d="m 262.43399,12.1048 q 3.07754,0 4.87504,1.770268 1.79751,1.743034 1.79751,4.983987 v 1.960913 h -9.58669 q 0.0545,1.715798 1.00769,2.696255 0.98046,0.980456 2.69626,0.980456 1.44345,0 2.61455,-0.272349 1.1711,-0.299584 2.42391,-0.898751 v 3.132013 q -1.0894,0.544698 -2.31497,0.789812 -1.19834,0.272349 -2.91414,0.272349 -2.23326,0 -3.94906,-0.817047 -1.71579,-0.844282 -2.69625,-2.532846 -0.98046,-1.688563 -0.98046,-4.248644 0,-2.61455 0.87152,-4.330349 0.89875,-1.743033 2.47838,-2.61455 1.57962,-0.871517 3.67671,-0.871517 z m 0.0272,2.886899 q -1.1711,0 -1.96091,0.762578 -0.76258,0.762577 -0.89875,2.369436 h 5.69209 q -0.0272,-1.361745 -0.70811,-2.233262 -0.68087,-0.898752 -2.12432,-0.898752 z"
     id="path560" /><path
     d="m 278.66599,24.2788 q 0.68087,0 1.30727,-0.136174 0.6264,-0.136175 1.25281,-0.326819 v 3.023074 q -0.65364,0.272349 -1.6341,0.462993 -0.95322,0.217879 -2.09708,0.217879 -1.33451,0 -2.39668,-0.435758 -1.03492,-0.435759 -1.66132,-1.49792 -0.59917,-1.089396 -0.59917,-2.995839 v -7.162778 h -1.93368 v -1.715799 l 2.23326,-1.361745 1.1711,-3.1320134 h 2.58732 v 3.1592484 h 4.16694 v 3.050309 h -4.16694 v 7.162778 q 0,0.844282 0.49023,1.280041 0.49022,0.408523 1.28004,0.408523 z"
     id="path562" /><path
     d="m 295.30651,22.045538 q -0.10894,-0.462993 -0.32682,-1.361745 -0.19064,-0.925986 -0.43576,-1.960912 -0.24511,-1.062162 -0.46299,-1.933678 -0.21788,-0.898752 -0.29958,-1.307275 h -0.10894 q -0.0817,0.408523 -0.29959,1.307275 -0.19064,0.871516 -0.43576,1.933678 -0.24511,1.034926 -0.46299,1.960912 -0.21788,0.925987 -0.32682,1.416215 l -1.19833,5.147396 h -4.35759 l -4.22141,-14.870255 h 4.03077 l 1.7158,6.590846 q 0.19064,0.680872 0.32682,1.634094 0.1634,0.953221 0.29958,1.851973 0.13617,0.871517 0.19064,1.38898 h 0.10894 q 0.0272,-0.381289 0.10894,-1.007692 0.0817,-0.653637 0.19065,-1.33451 0.13617,-0.680872 0.21788,-1.22557 0.10894,-0.571933 0.16341,-0.762577 l 1.82473,-7.135544 h 4.46653 l 1.74303,7.135544 q 0.10894,0.381288 0.24512,1.22557 0.1634,0.844282 0.27234,1.715799 0.13618,0.871517 0.13618,1.38898 h 0.10894 q 0.0545,-0.462994 0.19064,-1.33451 0.13618,-0.898752 0.29959,-1.879208 0.19064,-0.980457 0.38128,-1.661329 l 1.77027,-6.590846 h 3.9763 l -4.27588,14.870255 h -4.41205 z"
     id="path564" /><path
     d="m 321.0435,19.785042 q 0,3.703946 -1.96092,5.719329 -1.93367,2.015382 -5.28357,2.015382 -2.06985,0 -3.70394,-0.898752 -1.60686,-0.898751 -2.53285,-2.61455 -0.92599,-1.743034 -0.92599,-4.221409 0,-3.703947 1.93368,-5.692094 1.93368,-1.988148 5.31081,-1.988148 2.09708,0 3.70394,0.898752 1.60686,0.898751 2.53285,2.61455 0.92599,1.688564 0.92599,4.16694 z m -10.26756,0 q 0,2.206026 0.70811,3.349892 0.73534,1.116631 2.36943,1.116631 1.60686,0 2.31497,-1.116631 0.73534,-1.143866 0.73534,-3.349892 0,-2.206027 -0.73534,-3.295423 -0.70811,-1.116631 -2.3422,-1.116631 -1.60686,0 -2.3422,1.116631 -0.70811,1.089396 -0.70811,3.295423 z"
     id="path566" /><path
     d="m 332.70003,12.1048 q 0.29958,0 0.70811,0.02724 0.40852,0.02723 0.65363,0.0817 l -0.29958,3.812885 q -0.19064,-0.05447 -0.57193,-0.0817 -0.35406,-0.05447 -0.62641,-0.05447 -1.03492,0 -1.98814,0.381289 -0.95323,0.354053 -1.55239,1.1711 -0.57194,0.817047 -0.57194,2.233262 v 7.571302 h -4.058 V 12.377149 h 3.07755 l 0.59917,2.505611 h 0.19064 q 0.65364,-1.143866 1.7975,-1.960913 1.14387,-0.817047 2.64179,-0.817047 z"
     id="path568" /><path
     d="m 340.81604,15.808746 q 0,0.844282 -0.0817,1.688564 -0.0545,0.817047 -0.13617,1.661329 h 0.0545 q 0.40852,-0.571933 0.84428,-1.143866 0.43576,-0.599168 0.92599,-1.116631 l 4.16694,-4.520993 h 4.57546 l -5.90997,6.454671 6.26402,8.415584 h -4.6844 l -4.27588,-6.018913 -1.74303,1.38898 v 4.629933 h -4.058 V 6.5488805 h 4.058 z"
     id="path570" /><path
     d="m 352.6905,16.516854 v -2.8869 h 13.20892 v 2.8869 z m 0,5.174631 V 18.77735 h 13.20892 v 2.914135 z"
     id="path572" /><path
     d="m 371.26471,6.5488805 q 0.89875,0 1.55239,0.4357584 0.65363,0.4085234 0.65363,1.5523892 0,1.1166309 -0.65363,1.5523889 -0.65364,0.435759 -1.55239,0.435759 -0.92599,0 -1.57963,-0.435759 -0.6264,-0.435758 -0.6264,-1.5523889 0,-1.1438658 0.6264,-1.5523892 0.65364,-0.4357584 1.57963,-0.4357584 z m 2.01538,5.8282685 v 14.870255 h -4.058 V 12.377149 Z"
     id="path574" /><path
     d="m 385.97155,12.1048 q 2.39667,0 3.84012,1.307275 1.44345,1.28004 1.44345,4.139705 v 9.695624 h -4.058 v -8.687933 q 0,-1.606859 -0.57193,-2.396671 -0.57194,-0.817047 -1.82474,-0.817047 -1.85198,0 -2.53285,1.28004 -0.68087,1.252806 -0.68087,3.622242 v 6.999369 h -4.058 V 12.377149 h 3.10478 l 0.5447,1.906443 h 0.21788 q 0.7081,-1.143866 1.93367,-1.661329 1.25281,-0.517463 2.64179,-0.517463 z"
     id="path576" /><path
     d="m 401.68607,24.2788 q 0.68087,0 1.30727,-0.136174 0.6264,-0.136175 1.25281,-0.326819 v 3.023074 q -0.65364,0.272349 -1.6341,0.462993 -0.95322,0.217879 -2.09708,0.217879 -1.33451,0 -2.39667,-0.435758 -1.03493,-0.435759 -1.66133,-1.49792 -0.59917,-1.089396 -0.59917,-2.995839 v -7.162778 h -1.93368 v -1.715799 l 2.23326,-1.361745 1.1711,-3.1320134 h 2.58732 v 3.1592484 h 4.16694 v 3.050309 h -4.16694 v 7.162778 q 0,0.844282 0.49023,1.280041 0.49023,0.408523 1.28004,0.408523 z"
     id="path578" /><path
     d="m 413.36984,12.1048 q 3.07754,0 4.87505,1.770268 1.7975,1.743034 1.7975,4.983987 v 1.960913 h -9.58669 q 0.0545,1.715798 1.0077,2.696255 0.98045,0.980456 2.69625,0.980456 1.44345,0 2.61455,-0.272349 1.1711,-0.299584 2.42391,-0.898751 v 3.132013 q -1.0894,0.544698 -2.31497,0.789812 -1.19833,0.272349 -2.91413,0.272349 -2.23327,0 -3.94906,-0.817047 -1.7158,-0.844282 -2.69626,-2.532846 -0.98046,-1.688563 -0.98046,-4.248644 0,-2.61455 0.87152,-4.330349 0.89875,-1.743033 2.47838,-2.61455 1.57962,-0.871517 3.67671,-0.871517 z m 0.0272,2.886899 q -1.1711,0 -1.96091,0.762578 -0.76258,0.762577 -0.89875,2.369436 h 5.69209 q -0.0272,-1.361745 -0.7081,-2.233262 -0.68088,-0.898752 -2.12433,-0.898752 z"
     id="path580" /><path
     d="m 431.64446,12.1048 q 0.29958,0 0.7081,0.02724 0.40853,0.02723 0.65364,0.0817 l -0.29958,3.812885 q -0.19065,-0.05447 -0.57194,-0.0817 -0.35405,-0.05447 -0.6264,-0.05447 -1.03492,0 -1.98815,0.381289 -0.95322,0.354053 -1.55239,1.1711 -0.57193,0.817047 -0.57193,2.233262 v 7.571302 h -4.058 V 12.377149 h 3.07755 l 0.59916,2.505611 h 0.19065 q 0.65364,-1.143866 1.7975,-1.960913 1.14387,-0.817047 2.64179,-0.817047 z"
     id="path582" /><path
     d="m 444.14529,12.1048 q 2.39667,0 3.84012,1.307275 1.44345,1.28004 1.44345,4.139705 v 9.695624 h -4.058 v -8.687933 q 0,-1.606859 -0.57194,-2.396671 -0.57193,-0.817047 -1.82474,-0.817047 -1.85197,0 -2.53284,1.28004 -0.68087,1.252806 -0.68087,3.622242 v 6.999369 h -4.058 V 12.377149 h 3.10477 l 0.5447,1.906443 h 0.21788 q 0.70811,-1.143866 1.93368,-1.661329 1.25281,-0.517463 2.64179,-0.517463 z"
     id="path584" /><path
     d="m 459.72366,12.1048 q 3.07754,0 4.87505,1.770268 1.7975,1.743034 1.7975,4.983987 v 1.960913 h -9.58668 q 0.0545,1.715798 1.00769,2.696255 0.98045,0.980456 2.69625,0.980456 1.44345,0 2.61455,-0.272349 1.1711,-0.299584 2.42391,-0.898751 v 3.132013 q -1.0894,0.544698 -2.31497,0.789812 -1.19833,0.272349 -2.91413,0.272349 -2.23326,0 -3.94906,-0.817047 -1.7158,-0.844282 -2.69626,-2.532846 -0.98045,-1.688563 -0.98045,-4.248644 0,-2.61455 0.87151,-4.330349 0.89875,-1.743033 2.47838,-2.61455 1.57962,-0.871517 3.67671,-0.871517 z m 0.0272,2.886899 q -1.1711,0 -1.96091,0.762578 -0.76258,0.762577 -0.89875,2.369436 h 5.69209 q -0.0272,-1.361745 -0.7081,-2.233262 -0.68088,-0.898752 -2.12433,-0.898752 z"
     id="path586" /><path
     d="m 475.95563,24.2788 q 0.68087,0 1.30727,-0.136174 0.62641,-0.136175 1.25281,-0.326819 v 3.023074 q -0.65364,0.272349 -1.63409,0.462993 -0.95323,0.217879 -2.09709,0.217879 -1.33451,0 -2.39667,-0.435758 -1.03493,-0.435759 -1.66133,-1.49792 -0.59917,-1.089396 -0.59917,-2.995839 v -7.162778 h -1.93368 v -1.715799 l 2.23326,-1.361745 1.1711,-3.1320134 h 2.58732 v 3.1592484 h 4.16694 v 3.050309 h -4.16694 v 7.162778 q 0,0.844282 0.49023,1.280041 0.49023,0.408523 1.28004,0.408523 z"
     id="path588" /><path
     d="m 487.53046,19.785042 q 0,3.295422 -0.98046,6.345731 -0.95322,3.023074 -3.02307,5.419745 h -3.29542 q 1.85197,-2.505611 2.80519,-5.555919 0.95322,-3.077544 0.95322,-6.236792 0,-3.240953 -0.98045,-6.318497 -0.95322,-3.077544 -2.8052,-5.6376242 h 3.32266 q 2.06985,2.4783762 3.02307,5.5831542 0.98046,3.077544 0.98046,6.400202 z"
     id="path590" /></g><g
   aria-label="Yönlendirici"
   transform="scale(0.60997937,1.6393997)"
   id="text460"
   style="font-weight:bold;font-size:43.5288px;-inkscape-font-specification:'sans-serif, Bold';stroke-width:0.0319382"><path
     d="m 269.20899,74.995102 6.48579,-12.797467 h 7.0952 l -10.31633,18.978557 v 12.101007 h -6.52932 V 81.393836 L 255.62801,62.197635 h 7.13872 z"
     id="path593" /><path
     d="m 305.59913,81.350307 q 0,5.919917 -3.13408,9.141049 -3.09054,3.221131 -8.44459,3.221131 -3.30818,0 -5.91991,-1.436451 -2.5682,-1.43645 -4.04818,-4.178765 -1.47998,-2.785843 -1.47998,-6.746964 0,-5.919917 3.09054,-9.097519 3.09055,-3.177603 8.48812,-3.177603 3.35172,0 5.91992,1.436451 2.5682,1.43645 4.04818,4.178765 1.47998,2.698785 1.47998,6.659906 z m -16.41036,0 q 0,3.525833 1.13175,5.354043 1.17527,1.784681 3.787,1.784681 2.5682,0 3.69995,-1.784681 1.17528,-1.82821 1.17528,-5.354043 0,-3.525833 -1.17528,-5.266985 -1.13175,-1.78468 -3.74348,-1.78468 -2.5682,0 -3.74347,1.78468 -1.13175,1.741152 -1.13175,5.266985 z m -2.39409,-17.933866 q 0,-1.523508 0.87058,-2.17644 0.87058,-0.696461 2.08938,-0.696461 1.21881,0 2.08938,0.696461 0.91411,0.652932 0.91411,2.17644 0,1.436451 -0.91411,2.132912 -0.87057,0.69646 -2.08938,0.69646 -1.2188,0 -2.08938,-0.69646 -0.87058,-0.696461 -0.87058,-2.132912 z m 8.57518,0 q 0,-1.523508 0.87057,-2.17644 0.87058,-0.696461 2.13291,-0.696461 1.21881,0 2.08939,0.696461 0.9141,0.652932 0.9141,2.17644 0,1.436451 -0.9141,2.132912 -0.87058,0.69646 -2.08939,0.69646 -1.26233,0 -2.13291,-0.69646 -0.87057,-0.696461 -0.87057,-2.132912 z"
     id="path595" /><path
     d="m 324.44707,69.075185 q 3.83054,0 6.13757,2.089383 2.30702,2.045854 2.30702,6.616378 v 15.496253 h -6.48579 V 79.391511 q 0,-2.568199 -0.9141,-3.830534 -0.91411,-1.305864 -2.91643,-1.305864 -2.95996,0 -4.04818,2.045853 -1.08822,2.002325 -1.08822,5.789331 v 11.186902 h -6.48579 V 69.510473 h 4.96228 l 0.87058,3.047017 h 0.34823 q 1.13174,-1.82821 3.09054,-2.655257 2.00233,-0.827048 4.22229,-0.827048 z"
     id="path597" /><path
     d="m 346.03734,93.277199 h -6.48579 V 60.19531 h 6.48579 z"
     id="path599" /><path
     d="m 362.62183,69.075185 q 4.91875,0 7.79165,2.829373 2.8729,2.785843 2.8729,7.96577 v 3.134074 h -15.32213 q 0.0871,2.742314 1.61056,4.309351 1.56704,1.567037 4.30935,1.567037 2.30703,0 4.17877,-0.435288 1.87174,-0.478817 3.87406,-1.436451 v 5.005813 q -1.74115,0.870576 -3.69995,1.262335 -1.91526,0.435288 -4.65758,0.435288 -3.56936,0 -6.31167,-1.305864 -2.74232,-1.349393 -4.30936,-4.048179 -1.56703,-2.698785 -1.56703,-6.790493 0,-4.178765 1.39292,-6.921079 1.43645,-2.785843 3.96112,-4.178765 2.52467,-1.392922 5.87639,-1.392922 z m 0.0435,4.614053 q -1.87174,0 -3.13408,1.218807 -1.2188,1.218806 -1.43645,3.787005 h 9.09752 q -0.0435,-2.17644 -1.13175,-3.569361 -1.08822,-1.436451 -3.39524,-1.436451 z"
     id="path601" /><path
     d="m 392.04728,69.075185 q 3.83053,0 6.13756,2.089383 2.30703,2.045854 2.30703,6.616378 v 15.496253 h -6.4858 V 79.391511 q 0,-2.568199 -0.9141,-3.830534 -0.9141,-1.305864 -2.91643,-1.305864 -2.95996,0 -4.04818,2.045853 -1.08822,2.002325 -1.08822,5.789331 v 11.186902 h -6.48579 V 69.510473 h 4.96228 l 0.87058,3.047017 h 0.34823 q 1.13175,-1.82821 3.09055,-2.655257 2.00232,-0.827048 4.22229,-0.827048 z"
     id="path603" /><path
     d="m 414.68224,93.712487 q -3.96112,0 -6.48579,-3.090545 -2.48114,-3.134074 -2.48114,-9.184577 0,-6.094032 2.52467,-9.228106 2.52467,-3.134074 6.61638,-3.134074 2.5682,0 4.22229,1.001163 1.6541,1.001162 2.61173,2.481142 h 0.21765 q -0.13059,-0.696461 -0.30471,-2.002325 -0.17411,-1.349393 -0.17411,-2.742315 v -7.61754 h 6.48579 v 33.081889 h -4.96228 l -1.26234,-3.090545 h -0.26117 q -0.95763,1.479979 -2.5682,2.52467 -1.61057,1.001163 -4.17877,1.001163 z m 2.2635,-5.179928 q 2.69879,0 3.78701,-1.567036 1.08822,-1.610566 1.13175,-4.788168 v -0.696461 q 0,-3.482304 -1.08822,-5.310514 -1.04469,-1.82821 -3.9176,-1.82821 -2.13291,0 -3.35171,1.871739 -1.21881,1.828209 -1.21881,5.310514 0,3.482304 1.21881,5.266984 1.2188,1.741152 3.43877,1.741152 z"
     id="path605" /><path
     d="m 437.97012,60.19531 q 1.43645,0 2.48114,0.696461 1.04469,0.652932 1.04469,2.481142 0,1.78468 -1.04469,2.481141 -1.04469,0.696461 -2.48114,0.696461 -1.47998,0 -2.52467,-0.696461 -1.00117,-0.696461 -1.00117,-2.481141 0,-1.82821 1.00117,-2.481142 1.04469,-0.696461 2.52467,-0.696461 z m 3.22113,9.315163 v 23.766726 h -6.48579 V 69.510473 Z"
     id="path607" /><path
     d="m 461.25805,69.075185 q 0.47881,0 1.13175,0.04353 0.65293,0.04353 1.04469,0.130587 l -0.47882,6.094032 q -0.3047,-0.08706 -0.9141,-0.130587 -0.56588,-0.08706 -1.00117,-0.08706 -1.65409,0 -3.1776,0.609403 -1.52351,0.565874 -2.48114,1.871738 -0.9141,1.305864 -0.9141,3.569362 v 12.101007 h -6.4858 V 69.510473 h 4.91876 l 0.95763,4.00465 h 0.3047 q 1.04469,-1.828209 2.8729,-3.134074 1.82821,-1.305864 4.2223,-1.305864 z"
     id="path609" /><path
     d="m 471.00851,60.19531 q 1.43645,0 2.48114,0.696461 1.04469,0.652932 1.04469,2.481142 0,1.78468 -1.04469,2.481141 -1.04469,0.696461 -2.48114,0.696461 -1.47998,0 -2.52467,-0.696461 -1.00116,-0.696461 -1.00116,-2.481141 0,-1.82821 1.00116,-2.481142 1.04469,-0.696461 2.52467,-0.696461 z m 3.22113,9.315163 v 23.766726 h -6.48579 V 69.510473 Z"
     id="path611" /><path
     d="m 490.68355,93.712487 q -5.31051,0 -8.22694,-2.91643 -2.87291,-2.959958 -2.87291,-9.271634 0,-4.352881 1.47998,-7.095195 1.47998,-2.742314 4.09171,-4.048179 2.65526,-1.305864 6.09403,-1.305864 2.43762,0 4.2223,0.478817 1.82821,0.478817 3.1776,1.131749 l -1.91527,5.005812 q -1.52351,-0.609403 -2.8729,-1.001162 -1.30586,-0.391759 -2.61173,-0.391759 -5.04934,0 -5.04934,7.182252 0,3.569361 1.30587,5.266985 1.34939,1.697623 3.74347,1.697623 2.04586,0 3.61289,-0.522346 1.56704,-0.565874 3.04702,-1.523508 v 5.528158 q -1.47998,0.957634 -3.13407,1.349393 -1.61057,0.435288 -4.09171,0.435288 z"
     id="path613" /><path
     d="m 506.65861,60.19531 q 1.43645,0 2.48114,0.696461 1.04469,0.652932 1.04469,2.481142 0,1.78468 -1.04469,2.481141 -1.04469,0.696461 -2.48114,0.696461 -1.47998,0 -2.52467,-0.696461 -1.00116,-0.696461 -1.00116,-2.481141 0,-1.82821 1.00116,-2.481142 1.04469,-0.696461 2.52467,-0.696461 z m 3.22113,9.315163 v 23.766726 h -6.48579 V 69.510473 Z"
     id="path615" /></g><g
   aria-label="Ülke"
   transform="scale(1.164348,0.85884976)"
   id="text464"
   style="font-weight:bold;font-size:33.7726px;-inkscape-font-specification:'sans-serif, Bold';stroke-width:0.0247798"><path
     d="m 345.6966,471.85207 q 0,2.49917 -1.1145,4.52553 -1.08072,1.99258 -3.30971,3.17462 -2.19522,1.14827 -5.57248,1.14827 -4.79571,0 -7.29488,-2.43163 -2.49917,-2.4654 -2.49917,-6.48434 v -15.53539 h 5.09966 v 14.75862 q 0,2.97199 1.21581,4.1878 1.21582,1.21582 3.61367,1.21582 2.49917,0 3.61367,-1.31713 1.14827,-1.31713 1.14827,-4.12026 v -14.72485 h 5.09966 z m -15.56917,-20.33111 q 0,-1.18204 0.67545,-1.68863 0.67546,-0.54036 1.62109,-0.54036 0.94563,0 1.62108,0.54036 0.70923,0.50659 0.70923,1.68863 0,1.1145 -0.70923,1.65486 -0.67545,0.54036 -1.62108,0.54036 -0.94563,0 -1.62109,-0.54036 -0.67545,-0.54036 -0.67545,-1.65486 z m 6.6532,0 q 0,-1.18204 0.67546,-1.68863 0.67545,-0.54036 1.65485,-0.54036 0.94564,0 1.62109,0.54036 0.70922,0.50659 0.70922,1.68863 0,1.1145 -0.70922,1.65486 -0.67545,0.54036 -1.62109,0.54036 -0.9794,0 -1.65485,-0.54036 -0.67546,-0.54036 -0.67546,-1.65486 z"
     id="path632" /><path
     d="m 356.23367,480.36276 h -5.03212 v -25.66717 h 5.03212 z"
     id="path634" /><path
     d="m 366.53432,466.17827 q 0,1.04695 -0.10132,2.0939 -0.0675,1.01318 -0.16886,2.06013 h 0.0675 q 0.50659,-0.70922 1.04695,-1.41845 0.54036,-0.743 1.14827,-1.38467 l 5.1672,-5.60626 h 5.6738 l -7.32865,8.00411 7.76769,10.43573 h -5.80888 l -5.3023,-7.46374 -2.16145,1.7224 v 5.74134 h -5.03211 v -25.66717 h 5.03211 z"
     id="path636" /><path
     d="m 390.04008,461.5852 q 3.8163,0 6.04529,2.19522 2.22899,2.16144 2.22899,6.18038 v 2.43163 h -11.88795 q 0.0675,2.12767 1.24959,3.34349 1.21581,1.21581 3.34348,1.21581 1.78995,0 3.24217,-0.33773 1.45222,-0.37149 3.00576,-1.11449 v 3.88385 q -1.3509,0.67545 -2.87067,0.9794 -1.48599,0.33773 -3.61367,0.33773 -2.76935,0 -4.89702,-1.01318 -2.12768,-1.04695 -3.34349,-3.14085 -1.21581,-2.0939 -1.21581,-5.26853 0,-3.24217 1.08072,-5.36984 1.1145,-2.16145 3.07331,-3.24217 1.95881,-1.08072 4.5593,-1.08072 z m 0.0338,3.57989 q -1.45222,0 -2.43163,0.94564 -0.94563,0.94563 -1.11449,2.93821 h 7.05847 q -0.0338,-1.68863 -0.87809,-2.76935 -0.84431,-1.1145 -2.63426,-1.1145 z"
     id="path638" /></g><g
   aria-label="İlçe"
   transform="scale(1.164348,0.85884976)"
   id="text464-3"
   style="font-weight:bold;font-size:33.7726px;-inkscape-font-specification:'sans-serif, Bold';stroke-width:0.0247798"><path
     d="m 190.16184,477.31726 h -10.97609 v -2.90444 l 2.93822,-1.35091 v -15.60294 l -2.93822,-1.3509 v -2.90444 h 10.97609 v 2.90444 l -2.93821,1.3509 v 15.60294 l 2.93821,1.35091 z m -5.40361,-31.34097 q 1.11449,0 1.92504,0.54036 0.81054,0.50659 0.81054,1.92504 0,1.38468 -0.81054,1.92504 -0.81055,0.54036 -1.92504,0.54036 -1.14827,0 -1.95881,-0.54036 -0.77677,-0.54036 -0.77677,-1.92504 0,-1.41845 0.77677,-1.92504 0.81054,-0.54036 1.95881,-0.54036 z"
     id="path618" /><path
     d="m 198.90894,477.31726 h -5.03211 v -25.66717 h 5.03211 z"
     id="path620" /><path
     d="m 211.675,477.65499 q -4.12026,0 -6.38302,-2.26277 -2.229,-2.29653 -2.229,-7.19356 0,-3.37726 1.14827,-5.50493 1.14827,-2.12768 3.17463,-3.14086 2.06012,-1.01317 4.72816,-1.01317 1.89127,0 3.27594,0.37149 1.41845,0.3715 2.4654,0.87809 l -1.48599,3.88385 q -1.18204,-0.47282 -2.22899,-0.77677 -1.01318,-0.30395 -2.02636,-0.30395 -3.91762,0 -3.91762,5.57248 0,2.76935 1.01318,4.08648 1.04695,1.31713 2.90444,1.31713 1.58731,0 2.80313,-0.40527 1.21581,-0.43904 2.36408,-1.18204 v 4.28912 q -1.14827,0.743 -2.43163,1.04695 -1.24959,0.33773 -3.17462,0.33773 z m 3.61366,3.78253 q 0,1.89126 -1.11449,2.93821 -1.08072,1.04695 -3.98517,1.04695 -0.743,0 -1.3509,-0.10131 -0.57414,-0.10132 -1.04695,-0.23641 v -2.76935 q 0.47281,0.13509 1.14827,0.2364 0.70922,0.10132 1.21581,0.10132 0.47282,0 0.81054,-0.23641 0.3715,-0.20263 0.3715,-0.77677 0,-0.6079 -0.60791,-1.08072 -0.6079,-0.47282 -2.12767,-0.70922 l 1.28336,-2.53295 h 3.17462 l -0.43904,1.01318 q 1.01318,0.33772 1.82372,1.08072 0.84431,0.77677 0.84431,2.02636 z"
     id="path622" /><path
     d="m 229.13543,458.5397 q 3.8163,0 6.04529,2.19521 2.229,2.16145 2.229,6.18039 v 2.43163 h -11.88796 q 0.0676,2.12767 1.24959,3.34348 1.21581,1.21582 3.34348,1.21582 1.78995,0 3.24217,-0.33773 1.45223,-0.3715 3.00577,-1.11449 v 3.88385 q -1.35091,0.67545 -2.87068,0.9794 -1.48599,0.33773 -3.61366,0.33773 -2.76936,0 -4.89703,-1.01318 -2.12767,-1.04695 -3.34349,-3.14085 -1.21581,-2.0939 -1.21581,-5.26853 0,-3.24217 1.08072,-5.36984 1.1145,-2.16145 3.07331,-3.24217 1.95881,-1.08072 4.5593,-1.08072 z m 0.0338,3.57989 q -1.45222,0 -2.43162,0.94563 -0.94564,0.94564 -1.1145,2.93822 h 7.05847 q -0.0338,-1.68863 -0.87809,-2.76935 -0.84431,-1.1145 -2.63426,-1.1145 z"
     id="path624" /></g><g
   aria-label="İl"
   transform="scale(1.164348,0.85884976)"
   id="text464-7"
   style="font-weight:bold;font-size:33.7726px;-inkscape-font-specification:'sans-serif, Bold';stroke-width:0.0247798"><path
     d="M 60.42901,483.16751 H 49.452916 v -2.90444 l 2.938216,-1.35091 v -15.60294 l -2.938216,-1.3509 v -2.90444 H 60.42901 v 2.90444 l -2.938216,1.3509 v 15.60294 l 2.938216,1.35091 z m -5.403616,-31.34097 q 1.114496,0 1.925038,0.54036 0.810543,0.50659 0.810543,1.92504 0,1.38468 -0.810543,1.92504 -0.810542,0.54036 -1.925038,0.54036 -1.148268,0 -1.95881,-0.54036 -0.77677,-0.54036 -0.77677,-1.92504 0,-1.41845 0.77677,-1.92504 0.810542,-0.54036 1.95881,-0.54036 z"
     id="path627" /><path
     d="m 69.176111,483.16751 h -5.032117 v -25.66717 h 5.032117 z"
     id="path629" /></g></svg>
