<?xml version="1.0" encoding="UTF-8" standalone="no"?>
<!-- Uploaded to: SVG Repo, www.svgrepo.com, Generator: SVG Repo Mixer Tools -->

<svg
   fill="#000000"
   version="1.1"
   id="Capa_1"
   width="2431.137"
   height="594.6709"
   viewBox="0 0 96.914236 23.705812"
   xml:space="preserve"
   sodipodi:docname="biralgoritmamasali-21.svg"
   inkscape:version="1.2.2 (b0a8486541, 2022-12-01)"
   xmlns:inkscape="http://www.inkscape.org/namespaces/inkscape"
   xmlns:sodipodi="http://sodipodi.sourceforge.net/DTD/sodipodi-0.dtd"
   xmlns="http://www.w3.org/2000/svg"
   xmlns:svg="http://www.w3.org/2000/svg"><defs
   id="defs65" /><sodipodi:namedview
   id="namedview63"
   pagecolor="#ffffff"
   bordercolor="#000000"
   borderopacity="0.25"
   inkscape:showpageshadow="2"
   inkscape:pageopacity="0.0"
   inkscape:pagecheckerboard="0"
   inkscape:deskcolor="#d1d1d1"
   showgrid="false"
   inkscape:zoom="0.2382066"
   inkscape:cx="1099.8856"
   inkscape:cy="-65.069566"
   inkscape:window-width="1920"
   inkscape:window-height="985"
   inkscape:window-x="0"
   inkscape:window-y="0"
   inkscape:window-maximized="1"
   inkscape:current-layer="g60" />
<g
   id="g60"
   transform="translate(9.1933077,-0.19894644)">
	<g
   id="g58"
   transform="matrix(0.52971018,0,0,0.6788488,-3.0635475,4.0475534)"
   style="fill:#5f8dd3">
		<path
   d="M 9.991,10.653 V 4.214 H 8.016 v 6.439 z M 8.287,4.484 h 1.435 v 5.899 H 8.287 Z"
   id="path2"
   style="fill:#5f8dd3" />
		<rect
   x="9.0930004"
   y="4.9809999"
   width="0.27599999"
   height="3.2739999"
   id="rect4"
   style="fill:#5f8dd3" />
		<rect
   x="8.6359997"
   y="4.9749999"
   width="0.27700001"
   height="3.2739999"
   id="rect6"
   style="fill:#5f8dd3" />
		<path
   d="M 8.577,19.641 V 13.2 H 6.601 v 6.441 z M 6.872,13.47 h 1.435 v 3.567 H 6.872 Z m 0.268,4.326 v -0.257 h 0.992 v 0.257 z m 0.991,0.234 v 0.257 H 7.14 V 18.03 Z m -1.259,0.613 h 1.435 v 0.728 H 6.872 Z"
   id="path8"
   style="fill:#5f8dd3" />
		<rect
   x="7.1339998"
   y="14.175"
   width="1.001"
   height="0.27700001"
   id="rect10"
   style="fill:#5f8dd3" />
		<path
   d="M 10.98,13.199 H 9.004 v 0.955 0.739 4.748 h 1.976 z m -0.27,6.17 H 9.275 v -0.742 h 1.435 z m -0.219,-1.568 v 0.277 h -1 v -0.277 z m -0.997,-0.18 v -0.278 h 1.001 v 0.278 z M 10.71,16.795 H 9.275 V 14.893 H 10.71 Z M 9.491,14.658 V 14.38 h 1 v 0.278 z M 10.71,14.153 H 9.275 V 13.47 h 1.435 z"
   id="path12"
   style="fill:#5f8dd3" />
		<path
   d="m 15.63,13.199 h -1.977 v 6.441 h 1.977 z m -0.271,6.17 H 13.925 V 13.47 h 1.434 z"
   id="path14"
   style="fill:#5f8dd3" />
		<rect
   x="14.732"
   y="13.968"
   width="0.27700001"
   height="3.273"
   id="rect16"
   style="fill:#5f8dd3" />
		<rect
   x="14.274"
   y="13.961"
   width="0.278"
   height="3.273"
   id="rect18"
   style="fill:#5f8dd3" />
		<path
   d="m 13.304,13.199 h -1.976 v 6.441 h 1.976 z m -0.268,6.17 H 11.6 V 13.47 h 1.436 z"
   id="path20"
   style="fill:#5f8dd3" />
		<rect
   x="11.829"
   y="14.286"
   width="1.002"
   height="0.278"
   id="rect22"
   style="fill:#5f8dd3" />
		<rect
   x="11.825"
   y="14.743"
   width="1.002"
   height="0.27700001"
   id="rect24"
   style="fill:#5f8dd3" />
		<rect
   x="11.825"
   y="17.782"
   width="1.002"
   height="0.278"
   id="rect26"
   style="fill:#5f8dd3" />
		<rect
   x="11.829"
   y="18.275"
   width="1.002"
   height="0.27500001"
   id="rect28"
   style="fill:#5f8dd3" />
		<path
   d="m 12.588,28.408 2.03,-6.111 -1.874,-0.623 -0.301,0.907 -0.233,0.701 -1.497,4.504 z m 0.329,-6.39 1.361,0.451 -0.215,0.65 -1.363,-0.454 z m 0.866,1.248 -0.087,0.264 -0.95,-0.315 0.087,-0.264 z m -1.317,0.102 1.363,0.452 -0.6,1.805 -1.362,-0.452 z m -0.566,2.394 0.95,0.316 -0.087,0.262 -0.95,-0.314 z m -0.146,0.431 0.95,0.316 -0.087,0.264 -0.95,-0.315 z m 0.896,1.17 -0.234,0.703 -1.361,-0.451 0.233,-0.704 z"
   id="path30"
   style="fill:#5f8dd3" />
		<path
   d="m 16.595,21.928 h -1.977 v 6.441 h 1.977 z m -0.27,6.17 H 14.89 V 22.2 h 1.435 z"
   id="path32"
   style="fill:#5f8dd3" />
		<rect
   x="15.119"
   y="23.018"
   width="1.002"
   height="0.27399999"
   id="rect34"
   style="fill:#5f8dd3" />
		<rect
   x="15.116"
   y="23.473"
   width="1.002"
   height="0.27700001"
   id="rect36"
   style="fill:#5f8dd3" />
		<rect
   x="15.116"
   y="26.511999"
   width="1.002"
   height="0.27700001"
   id="rect38"
   style="fill:#5f8dd3" />
		<rect
   x="15.119"
   y="27.004"
   width="1.002"
   height="0.27700001"
   id="rect40"
   style="fill:#5f8dd3" />
		<path
   d="m 12.351,4.214 h -1.976 v 6.439 h 1.976 z m -0.27,6.169 H 10.645 V 4.484 h 1.436 z"
   id="path42"
   style="fill:#5f8dd3" />
		<rect
   x="10.874"
   y="5.3010001"
   width="1.001"
   height="0.27700001"
   id="rect44"
   style="fill:#5f8dd3" />
		<rect
   x="10.873"
   y="8.7969999"
   width="1"
   height="0.27700001"
   id="rect46"
   style="fill:#5f8dd3" />
		<rect
   x="10.874"
   y="9.2889996"
   width="1.001"
   height="0.27599999"
   id="rect48"
   style="fill:#5f8dd3" />
		<path
   d="m 14.738,4.214 h -1.976 v 6.439 h 1.976 z m -0.27,6.169 H 13.033 V 9.655 h 1.435 z M 14.293,9.044 V 9.302 H 13.302 V 9.044 Z M 13.301,8.81 V 8.553 h 0.991 V 8.81 Z M 14.468,8.052 H 13.033 V 4.484 h 1.435 z"
   id="path50"
   style="fill:#5f8dd3" />
		<rect
   x="13.296"
   y="5.1890001"
   width="1.002"
   height="0.278"
   id="rect52"
   style="fill:#5f8dd3" />
		<path
   d="M 17.096,4.214 H 15.12 v 0.955 0.739 4.746 h 1.976 z m -0.269,6.169 H 15.392 V 9.641 h 1.435 z M 16.608,8.814 V 9.091 H 15.607 V 8.814 Z M 15.607,8.635 V 8.357 h 1.002 v 0.277 z m 1.22,-0.826 H 15.392 V 5.907 h 1.435 z M 15.606,5.673 V 5.395 h 1.001 V 5.673 Z M 16.827,5.168 H 15.392 V 4.484 h 1.435 z"
   id="path54"
   style="fill:#5f8dd3" />
		<path
   d="M 18.737,2.028 H 17.524 5.88 L 1.752,0 1.771,14.532 c -0.007,0 -0.012,-10e-4 -0.019,-10e-4 -0.783,-0.001 -1.416,0.632 -1.416,1.414 0,0.782 0.633,1.417 1.416,1.417 0.008,0 0.015,-0.002 0.022,-0.002 L 1.792,31.891 5.97,30.136 h 0.809 v 0.675 h 1.163 v -0.675 h 7.812 v 0.675 h 1.163 v -0.675 h 0.606 1.213 0.858 v 0.675 h 1.164 v -0.675 h 7.812 v 0.675 h 1.164 v -0.675 h 1.819 V 2.028 Z M 17.524,28.922 H 5.968 L 5.957,20.686 h 11.566 v 8.236 z m 0,-8.844 H 5.957 l -0.012,-8.57 h 11.58 v 8.57 z m 0,-9.177 H 5.943 L 5.933,3.242 h 11.591 z m 2.797,5.929 c -0.198,0.201 -0.473,0.327 -0.778,0.327 -0.603,0 -1.09,-0.487 -1.09,-1.091 0,-0.602 0.487,-1.09 1.09,-1.09 0.463,0 0.856,0.292 1.015,0.7 0.053,0.125 0.082,0.262 0.082,0.406 10e-4,0.294 -0.122,0.559 -0.319,0.748 z"
   id="path56"
   style="fill:#5f8dd3" />
	</g>
<g
   style="fill:#5f8dd3"
   id="g396"
   transform="matrix(0.40838064,0,0,0.60181046,22.89171,5.6442763)"><g
     id="g377"
     style="fill:#5f8dd3">
	<g
   id="g375"
   style="fill:#5f8dd3">
		<path
   d="M 25.382,25.467 V 7.25 h 2.66 V 2.401 h -2.66 V 0 H 14.583 V 2.401 H 10.956 V 7.25 h 3.627 v 1.036 4.632 12.549 H 9.842 v 5.2 h 19.314 v -5.2 z M 11.601,6.604 V 3.047 h 15.797 v 3.558 z"
   id="path355"
   style="fill:#5f8dd3" />
		
		
		
		
		
		
		
		<polygon
   points="4.153,21.576 4.594,25.949 4.113,30.72 6.73,30.72 6.986,25.949 6.751,21.576 7.543,21.576 7.543,18.584 7.543,14.961 11.704,10.684 13.794,13.503 14.26,13.157 14.26,9.601 12.803,10.682 12.329,10.04 12.38,9.987 12.305,9.914 13.842,8.773 14.26,9.336 14.26,7.851 14.077,7.603 11.723,9.349 11.212,8.852 7.506,12.665 6.399,12.665 3.524,12.665 3.524,21.576 "
   id="polygon371"
   style="fill:#5f8dd3" />
		<path
   d="M 8.328,9.307 C 8.328,8.674 8.122,8.093 7.78,7.614 L 8.074,6.79 6.976,6.729 6.871,5.654 5.757,6.357 4.855,5.349 4.169,6.667 C 4.142,6.679 4.116,6.696 4.09,6.71 L 3.053,6.038 3.036,7.382 1.621,7.336 2.425,8.282 1.564,8.821 2.483,9.268 c 0,0.013 -0.004,0.025 -0.004,0.039 0,1.615 1.312,2.925 2.925,2.925 1.612,0 2.924,-1.311 2.924,-2.925 z"
   id="path373"
   style="fill:#5f8dd3" />
	</g>
</g></g><g
   style="fill:#5f8dd3"
   id="g581"
   transform="matrix(0.02605956,0,0,0.05285441,46.469223,0.52214582)"><g
     id="g463"
     style="fill:#5f8dd3">
	<g
   id="g461"
   style="fill:#5f8dd3">
		<path
   d="m 195.316,211.233 c -1.162,-1.691 -3.774,-1.311 -4.397,0.652 l -2.834,8.932 -16.398,-5.203 c -3.093,-0.982 -6.397,0.731 -7.379,3.824 l -9.433,29.732 c 10.582,1.239 19.52,9.291 21.406,20.307 0.011,0.064 0.017,0.128 0.028,0.19 0.676,4.141 0.28,8.212 -0.992,11.927 l 8.151,2.586 c 1.984,0.63 4.104,-0.469 4.733,-2.453 l 17.548,-55.305 z"
   id="path459"
   style="fill:#5f8dd3" />
	</g>
</g><g
     id="g469"
     style="fill:#5f8dd3">
	<g
   id="g467"
   style="fill:#5f8dd3">
		<path
   d="m 100.201,139.067 c -0.002,0 -0.004,0 -0.006,-0.001 -17.89,-2.73 -34.669,9.546 -37.418,27.507 -3.032,19.846 12.303,37.797 32.497,37.805 16.014,0 29.962,-11.716 32.433,-27.887 2.743,-17.952 -9.596,-34.689 -27.506,-37.424 z"
   id="path465"
   style="fill:#5f8dd3" />
	</g>
</g><g
     id="g475"
     style="fill:#5f8dd3">
	<g
   id="g473"
   style="fill:#5f8dd3">
		<path
   d="m 274.801,251.729 c -1.975,0 -3.577,1.602 -3.577,3.577 v 17.111 c 0,1.975 1.602,3.577 3.577,3.577 h 7.389 V 251.73 h -7.389 z"
   id="path471"
   style="fill:#5f8dd3" />
	</g>
</g><g
     id="g481"
     style="fill:#5f8dd3">
	<g
   id="g479"
   style="fill:#5f8dd3">
		<path
   d="m 349.618,255.978 c -5.024,-0.15 -9.846,-1.656 -14.003,-4.249 h -42.926 v 24.264 h 56.929 z"
   id="path477"
   style="fill:#5f8dd3" />
	</g>
</g><g
     id="g487"
     style="fill:#5f8dd3">
	<g
   id="g485"
   style="fill:#5f8dd3">
		<path
   d="m 323.383,235.234 c -1.707,-6.339 -1.09,-12.752 1.316,-18.349 h -40.876 v 0.001 24.264 h 41.903 c -0.979,-1.84 -1.776,-3.816 -2.343,-5.916 z"
   id="path483"
   style="fill:#5f8dd3" />
	</g>
</g><g
     id="g493"
     style="fill:#5f8dd3">
	<g
   id="g491"
   style="fill:#5f8dd3">
		<path
   d="m 264.846,216.886 c -1.975,0 -3.577,1.602 -3.577,3.577 v 17.111 c 0,1.975 1.602,3.577 3.577,3.577 h 9.488 v -24.264 h -9.488 z"
   id="path489"
   style="fill:#5f8dd3" />
	</g>
</g><g
     id="g499"
     style="fill:#5f8dd3">
	<g
   id="g497"
   style="fill:#5f8dd3">
		<path
   d="m 277.911,180.801 c -1.975,-10e-4 -3.577,1.6 -3.577,3.577 v 17.111 c 0,1.975 1.602,3.577 3.577,3.577 h 56.324 c 0.006,-0.004 0.011,-0.008 0.017,-0.012 v -24.252 h -56.341 z"
   id="path495"
   style="fill:#5f8dd3" />
	</g>
</g><g
     id="g505"
     style="fill:#5f8dd3">
	<g
   id="g503"
   style="fill:#5f8dd3">
		<path
   d="m 352.729,184.378 c 0,-1.975 -1.602,-3.577 -3.577,-3.577 h -5.022 v 19.807 l 8.6,-2.314 v -13.916 z"
   id="path501"
   style="fill:#5f8dd3" />
	</g>
</g><g
     id="g511"
     style="fill:#5f8dd3">
	<g
   id="g509"
   style="fill:#5f8dd3">
		<path
   d="m 264.846,153.736 c -1.975,0 -3.577,1.602 -3.577,3.577 v 11.51 c 0,1.976 1.602,3.578 3.577,3.578 h 11.744 v -18.665 z"
   id="path507"
   style="fill:#5f8dd3" />
	</g>
</g><g
     id="g517"
     style="fill:#5f8dd3">
	<g
   id="g515"
   style="fill:#5f8dd3">
		<path
   d="m 336.086,153.737 h -52.262 v 18.665 h 52.262 c 1.975,-10e-4 3.577,-1.603 3.577,-3.578 v -11.51 c 0,-1.976 -1.602,-3.577 -3.577,-3.577 z"
   id="path513"
   style="fill:#5f8dd3" />
	</g>
</g><g
     id="g523"
     style="fill:#5f8dd3">
	<g
   id="g521"
   style="fill:#5f8dd3">
		<circle
   cx="416.95499"
   cy="96.126999"
   r="31.072001"
   id="circle519"
   style="fill:#5f8dd3" />
	</g>
</g><g
     id="g529"
     style="fill:#5f8dd3">
	<g
   id="g527"
   style="fill:#5f8dd3">
		<path
   d="M 511.546,424.807 491.061,334.769 480.385,274.752 471.7,158.399 c -1.029,-12.517 -12.01,-21.829 -24.526,-20.801 l -40.416,3.322 c -12.517,1.029 -21.829,12.01 -20.801,24.526 l 1.922,23.381 7.298,-1.964 18.052,-18.129 -16.241,31.045 -50.448,13.581 c -8.053,2.168 -12.826,10.453 -10.657,18.506 2.17,8.062 10.464,12.822 18.506,10.657 l 56.839,-15.3 c 4.072,-1.096 7.499,-3.845 9.455,-7.582 l 19.307,-36.906 -7.837,42.906 c -1.133,6.199 -5.735,10.891 -11.437,12.436 -7.918,2.126 -2.276,0.609 -28.164,7.578 l 2.965,36.07 0.217,-0.018 -18.471,50.359 c -1.173,3.197 -1.421,6.661 -0.715,9.994 l 19.138,90.366 c 2.073,9.788 11.687,16.047 21.481,13.974 9.791,-2.074 16.046,-11.692 13.973,-21.482 l -18.058,-85.268 22.453,-61.216 8.573,-0.705 c 0.122,0.684 11.368,63.979 11.522,64.653 l 20.58,90.459 c 2.222,9.761 11.934,15.87 21.689,13.649 9.757,-2.214 15.868,-11.925 13.647,-21.683 z"
   id="path525"
   style="fill:#5f8dd3" />
	</g>
</g><g
     id="g535"
     style="fill:#5f8dd3">
	<g
   id="g533"
   style="fill:#5f8dd3">
		<path
   d="m 362.837,285.26 c -9.847,0 -195.847,0 -201.53,0 -0.008,0 -0.015,0.001 -0.022,0.001 4.091,-3.272 6.33,-8.609 5.382,-14.137 -1.387,-8.099 -9.078,-13.542 -17.178,-12.154 l -43.138,7.388 -14.388,-24.984 14.504,15.068 5.371,-0.92 0.227,-14.445 c 0.218,-13.841 -10.899,-25.21 -24.736,-25.309 0,0 -21.665,-0.156 -22.92,-0.165 -13.855,-0.1 -25.134,11.137 -25.095,24.985 l 0.213,77.621 -15.122,-76.928 c -1.313,-6.675 -7.78,-11.024 -14.462,-9.71 -6.675,1.312 -11.021,7.786 -9.71,14.461 l 23.189,117.969 c 1.109,5.642 5.968,9.736 11.678,9.924 L 11.424,435.32 c -1.631,4.23 0.477,8.983 4.707,10.615 4.235,1.633 8.986,-0.478 10.616,-4.707 l 11.485,-29.78 h 55.649 l 5.777,-16.423 h -55.09 l 8.131,-21.083 h 54.379 l 8.131,-23.137 11.56,-0.034 -25.376,72.129 c -3.272,9.302 1.616,19.497 10.917,22.769 9.317,3.276 19.501,-1.628 22.77,-10.917 l 21.964,-62.431 V 315.72 c -1.618,-0.477 -3.313,-0.732 -5.04,-0.732 -0.017,0 -0.035,0 -0.051,0 l -41.006,0.12 0.106,-9.466 c -11.045,1.891 -6.488,1.111 -13.316,2.281 -9.16,1.569 -17.914,-4.135 -20.445,-12.854 L 66.18,256.228 85.745,290.202 c 2.686,4.664 7.635,7.455 12.891,7.455 1.806,0 -2.166,0.588 54.69,-9.15 -2.147,2.084 -3.485,4.996 -3.485,8.225 0,6.434 5.253,11.47 11.47,11.47 h 5.578 v 126.41 c 0,5.838 4.236,12.082 13.119,12.082 6.674,0 12.082,-5.41 12.082,-12.082 V 308.201 c 5.29,0 135.269,0 140.712,0 v 125.892 c 0,6.959 5.642,12.601 12.601,12.601 6.959,0 12.601,-5.642 12.601,-12.601 V 308.201 h 4.837 c 6.334,0 11.47,-5.136 11.47,-11.47 -10e-4,-6.335 -5.139,-11.471 -11.474,-11.471 z m -317.196,64.052 -2.13,-10.833 c 3.692,5.754 9.255,9.43 15.476,10.833 z"
   id="path531"
   style="fill:#5f8dd3" />
	</g>
</g></g><g
   style="fill:#5f8dd3"
   id="g600"
   transform="matrix(0.52612461,0,0,0.46581622,66.61902,8.0573777)"><g
     id="g589"
     style="fill:#5f8dd3">
	<g
   id="g587"
   style="fill:#5f8dd3">
		<path
   d="M 26.939,19.915 V 12.872 L 16.192,14.584 5.441,12.871 v 6.857 c -0.734,0.436 -1.248,1.399 -1.248,2.524 0,1.126 0.514,2.089 1.248,2.524 v 5.63 l 10.751,1.711 10.747,-1.711 v -5.814 c 0.593,-0.493 0.986,-1.354 0.986,-2.34 0,-0.984 -0.393,-1.844 -0.986,-2.337 z M 15.703,31.055 6.416,29.576 v -4.56 c 1.12,-0.074 2.013,-1.275 2.013,-2.763 0,-1.485 -0.893,-2.688 -2.013,-2.761 v -5.478 l 9.287,1.479 z M 25.964,15.977 v 3.522 c -0.054,-0.004 -0.104,-0.021 -0.156,-0.021 -1.17,0 -2.118,1.244 -2.118,2.774 0,1.532 0.948,2.774 2.118,2.774 0.054,0 0.104,-0.016 0.156,-0.021 v 4.567 l -9.287,1.479 v -15.56 l 9.287,-1.48 z"
   id="path583"
   style="fill:#5f8dd3" />
		<path
   d="m 8.293,8.794 c -0.099,0.322 -0.2,0.65 -0.258,0.992 -0.068,0.427 -0.106,0.865 -0.106,1.312 0,0.422 0.042,0.834 0.104,1.238 l 8.159,1.298 7.517,-1.197 c 0.074,-0.436 0.121,-0.882 0.121,-1.339 0,-0.88 -0.176,-1.709 -0.438,-2.5 L 25.008,6.37 22.113,5.353 22.677,2.395 19.146,3.406 17.519,0 14.503,3.148 12.166,0.438 11.064,4.015 7.314,2.786 8.727,5.946 5.999,6.715 Z"
   id="path585"
   style="fill:#5f8dd3" />
	</g>
</g></g><g
   aria-label="1. Ad覺m"
   id="text656"
   style="font-weight:bold;font-size:3.28057px;-inkscape-font-specification:'sans-serif, Bold';fill:#ff0000;stroke-width:0.13163"
   transform="translate(5.9773212,0.3583862)"><path
     d="M -5.3271281,3.0086997 H -5.8224942 V 1.6538242 q 0,-0.085295 0.00328,-0.2230787 0.00656,-0.137784 0.00984,-0.2427622 -0.016403,0.019683 -0.072172,0.072172 -0.052489,0.049209 -0.098417,0.088575 L -6.2489683,1.5652488 -6.4884499,1.266717 -5.7339188,0.66637265 h 0.4067907 z"
     id="path1399"
     style="fill:#ff0000" /><path
     d="m -4.6185233,2.7790598 q 0,-0.1509063 0.082014,-0.2099565 0.082014,-0.062331 0.2001147,-0.062331 0.11482,0 0.1968342,0.062331 0.082014,0.05905 0.082014,0.2099565 0,0.144345 -0.082014,0.2099564 -0.082014,0.062331 -0.1968342,0.062331 -0.1181005,0 -0.2001147,-0.062331 -0.082014,-0.065611 -0.082014,-0.2099564 z"
     id="path1401"
     style="fill:#ff0000" /><path
     d="M -1.2887444,3.0086997 -1.4593341,2.4510028 h -0.8529482 l -0.1705896,0.5576969 h -0.5347329 l 0.8267036,-2.35216876 h 0.6069055 l 0.82998419,2.35216876 z m -0.4592798,-1.518904 q -0.016403,-0.05577 -0.042647,-0.1410645 -0.026245,-0.085295 -0.052489,-0.1738702 -0.026245,-0.088575 -0.042647,-0.1541868 -0.016403,0.065611 -0.045928,0.1640285 -0.026245,0.095136 -0.052489,0.1837119 -0.022964,0.085295 -0.036086,0.1213811 l -0.1673091,0.5445747 h 0.610186 z"
     id="path1403"
     style="fill:#ff0000" /><path
     d="m 0.06941335,3.0415054 q -0.29853187,0 -0.48880493,-0.2329205 -0.18699249,-0.2362011 -0.18699249,-0.6922003 0,-0.4592798 0.19027306,-0.6954808 0.19027306,-0.2362011 0.49864664,-0.2362011 0.19355364,0 0.3182153,0.075453 0.12466166,0.075453 0.1968342,0.1869925 h 0.0164028 Q 0.60414627,1.3946592 0.59102399,1.2962421 0.57790171,1.1945444 0.57790171,1.0895662 V 0.51546643 H 1.0667066 V 3.0086997 H 0.69272166 L 0.59758513,2.7757792 H 0.57790171 Q 0.50572917,2.8873186 0.38434808,2.9660522 0.26296699,3.0415054 0.06941335,3.0415054 Z M 0.240003,2.6511175 q 0.20339534,0 0.28540959,-0.1181005 0.0820143,-0.1213811 0.0852948,-0.3608627 v -0.052489 q 0,-0.2624456 -0.0820142,-0.4002296 -0.0787337,-0.1377839 -0.2952513,-0.1377839 -0.16074794,0 -0.2526039,0.1410645 -0.09185596,0.1377839 -0.09185596,0.4002295 0,0.2624456 0.09185596,0.396949 0.09185596,0.1312228 0.25916501,0.1312227 z"
     id="path1405"
     style="fill:#ff0000" /><path
     d="M 2.0672788,3.0086997 H 1.5784739 V 1.2175084 h 0.4888049 z"
     id="path1407"
     style="fill:#ff0000" /><path
     d="m 4.6818934,1.1847027 q 0.305093,0 0.4592798,0.1574674 0.1574673,0.1541868 0.1574673,0.4986466 v 1.167883 H 4.8098356 V 1.9621978 q 0,-0.3871072 -0.2690068,-0.3871072 -0.1935536,0 -0.2755678,0.1377839 -0.082014,0.1377839 -0.082014,0.396949 V 3.0086997 H 3.6944418 V 1.9621978 q 0,-0.3871072 -0.2690068,-0.3871072 -0.2033953,0 -0.282129,0.1541867 Q 3.067853,1.8801836 3.067853,2.1655932 V 3.0086997 H 2.579048 V 1.2175084 h 0.373985 l 0.065611,0.2296399 h 0.026245 q 0.082014,-0.1377839 0.2230788,-0.2001148 0.1443451,-0.062331 0.2985319,-0.062331 0.1968342,0 0.3346181,0.065611 0.1377839,0.062331 0.2099565,0.1968342 h 0.042647 Q 4.2357358,1.3093644 4.3800809,1.2470335 4.5277066,1.1847027 4.6818934,1.1847027 Z"
     id="path1409"
     style="fill:#ff0000" /></g><g
   aria-label="2. Ad覺m"
   id="text656-5"
   style="font-weight:bold;font-size:3.28057px;-inkscape-font-specification:'sans-serif, Bold';fill:#ff0000;stroke-width:0.13163"
   transform="translate(7.2761319,0.960423)"><path
     d="M 17.580913,2.6854889 H 15.943909 V 2.3410291 l 0.587222,-0.5937832 q 0.177151,-0.1837119 0.285409,-0.305093 0.108259,-0.1246617 0.157468,-0.2230788 0.04921,-0.1016976 0.04921,-0.2165176 0,-0.1410645 -0.07873,-0.20995647 -0.07545,-0.068892 -0.206676,-0.068892 -0.134504,0 -0.262446,0.0623308 -0.127942,0.0623308 -0.269007,0.17715078 L 15.937348,0.64497438 q 0.101697,-0.0885754 0.213237,-0.1640285 0.11482,-0.0754531 0.262445,-0.12138109 0.150907,-0.0492086 0.360863,-0.0492086 0.22964,0 0.393668,0.0852948 0.167309,0.0820143 0.255885,0.22635933 0.09186,0.14106451 0.09186,0.32149586 0,0.19355362 -0.07873,0.35430152 -0.07545,0.1607479 -0.223079,0.3182153 -0.144345,0.1574674 -0.351021,0.3477404 l -0.301812,0.2821291 v 0.022964 h 1.020257 z"
     id="path1412"
     style="fill:#ff0000" /><path
     d="m 17.876166,2.455849 q 0,-0.1509062 0.08201,-0.2099564 0.08202,-0.062331 0.200115,-0.062331 0.11482,0 0.196834,0.062331 0.08201,0.05905 0.08201,0.2099564 0,0.1443451 -0.08201,0.2099565 -0.08201,0.062331 -0.196834,0.062331 -0.1181,0 -0.200115,-0.062331 -0.08201,-0.065611 -0.08201,-0.2099565 z"
     id="path1414"
     style="fill:#ff0000" /><path
     d="M 21.205945,2.6854889 21.035355,2.127792 h -0.852948 l -0.170589,0.5576969 h -0.534733 l 0.826703,-2.35216867 h 0.606906 L 21.740678,2.6854889 Z M 20.746665,1.166585 q -0.0164,-0.05577 -0.04265,-0.1410645 -0.02625,-0.0852948 -0.05249,-0.17387021 -0.02624,-0.0885754 -0.04265,-0.15418679 -0.0164,0.0656114 -0.04593,0.1640285 -0.02624,0.0951365 -0.05249,0.1837119 -0.02296,0.085295 -0.03609,0.1213811 l -0.167309,0.5445746 h 0.610186 z"
     id="path1416"
     style="fill:#ff0000" /><path
     d="m 22.564103,2.7182946 q -0.298532,0 -0.488805,-0.2329204 -0.186993,-0.2362011 -0.186993,-0.6922003 0,-0.4592798 0.190273,-0.6954809 0.190274,-0.236201 0.498647,-0.236201 0.193554,0 0.318215,0.0754531 0.124662,0.0754531 0.196835,0.1869925 h 0.0164 q -0.0098,-0.052489 -0.02296,-0.15090623 -0.01312,-0.10169767 -0.01312,-0.20667591 V 0.19225572 H 23.5614 V 2.6854889 h -0.373985 l -0.09514,-0.2329204 h -0.01968 q -0.07217,0.1115393 -0.193553,0.190273 -0.121382,0.075453 -0.314935,0.075453 z m 0.170589,-0.3903878 q 0.203396,0 0.28541,-0.1181005 0.08201,-0.1213811 0.08529,-0.3608627 v -0.052489 q 0,-0.2624456 -0.08201,-0.4002296 -0.07873,-0.1377839 -0.295252,-0.1377839 -0.160748,0 -0.252604,0.1410645 -0.09186,0.1377839 -0.09186,0.4002295 0,0.2624456 0.09186,0.396949 0.09186,0.1312228 0.259165,0.1312228 z"
     id="path1418"
     style="fill:#ff0000" /><path
     d="M 24.561968,2.6854889 H 24.073163 V 0.8942977 h 0.488805 z"
     id="path1420"
     style="fill:#ff0000" /><path
     d="m 27.176583,0.861492 q 0.305093,0 0.45928,0.1574674 0.157467,0.1541868 0.157467,0.4986466 V 2.6854889 H 27.304525 V 1.6389871 q 0,-0.3871073 -0.269007,-0.3871073 -0.193553,0 -0.275568,0.137784 -0.08201,0.1377839 -0.08201,0.396949 V 2.6854889 H 26.189131 V 1.6389871 q 0,-0.3871073 -0.269006,-0.3871073 -0.203396,0 -0.28213,0.1541868 -0.07545,0.1509062 -0.07545,0.4363158 V 2.6854889 H 25.073737 V 0.8942977 h 0.373985 l 0.06561,0.2296399 h 0.02624 q 0.08202,-0.13778394 0.223079,-0.20011477 0.144345,-0.0623308 0.298532,-0.0623308 0.196834,0 0.334618,0.0656114 0.137784,0.0623308 0.209957,0.19683417 h 0.04265 Q 26.730425,0.98615366 26.87477,0.92382283 27.022396,0.861492 27.176583,0.861492 Z"
     id="path1422"
     style="fill:#ff0000" /></g><g
   aria-label="3. Ad覺m"
   id="text656-56"
   style="font-weight:bold;font-size:3.28057px;-inkscape-font-specification:'sans-serif, Bold';fill:#ff0000;stroke-width:0.13163"
   transform="translate(12.383861,0.36152678)"><path
     d="m 35.519419,1.3087091 q 0,0.2427622 -0.147625,0.3871073 -0.144345,0.144345 -0.357582,0.1968342 v 0.00984 q 0.282129,0.032806 0.426474,0.1705896 0.147625,0.1377839 0.147625,0.3707044 0,0.2033954 -0.101697,0.3674239 -0.09842,0.1607479 -0.308374,0.2558844 -0.206676,0.091856 -0.534733,0.091856 -0.380546,0 -0.675797,-0.1279422 v -0.419913 q 0.150906,0.075453 0.314934,0.1148199 0.16731,0.039367 0.308374,0.039367 0.265726,0 0.370704,-0.091856 0.108259,-0.091856 0.108259,-0.259165 0,-0.098417 -0.04921,-0.1640285 -0.04921,-0.068892 -0.17387,-0.1016977 -0.121382,-0.036086 -0.34118,-0.036086 H 34.328572 V 1.7319026 h 0.180432 q 0.216517,0 0.328057,-0.039367 0.11482,-0.042647 0.154187,-0.1115394 0.04265,-0.072172 0.04265,-0.1640285 0,-0.1246617 -0.07873,-0.1935536 -0.07545,-0.072173 -0.255884,-0.072173 -0.167309,0 -0.291971,0.05905 -0.121381,0.05577 -0.206676,0.1115394 L 33.97099,0.98065209 q 0.137784,-0.0984171 0.321496,-0.16402851 0.186993,-0.0656114 0.442877,-0.0656114 0.360863,0 0.570819,0.14762566 0.213237,0.14434506 0.213237,0.41007126 z"
     id="path1425"
     style="fill:#ff0000" /><path
     d="m 35.906528,2.896505 q 0,-0.1509062 0.08201,-0.2099565 0.08201,-0.062331 0.200114,-0.062331 0.11482,0 0.196835,0.062331 0.08201,0.05905 0.08201,0.2099565 0,0.1443451 -0.08201,0.2099565 -0.08201,0.062331 -0.196835,0.062331 -0.1181,0 -0.200114,-0.062331 -0.08201,-0.065611 -0.08201,-0.2099565 z"
     id="path1427"
     style="fill:#ff0000" /><path
     d="M 39.236307,3.1261449 39.065718,2.568448 H 38.212769 L 38.04218,3.1261449 H 37.507447 L 38.33415,0.77397617 h 0.606906 L 39.77104,3.1261449 Z M 38.777027,1.607241 q -0.0164,-0.05577 -0.04265,-0.1410645 -0.02625,-0.085295 -0.05249,-0.1738703 -0.02625,-0.088575 -0.04265,-0.1541868 -0.0164,0.065611 -0.04593,0.1640285 -0.02624,0.095137 -0.05249,0.183712 -0.02296,0.085295 -0.03609,0.1213811 l -0.167309,0.5445746 h 0.610186 z"
     id="path1429"
     style="fill:#ff0000" /><path
     d="m 40.594465,3.1589506 q -0.298532,0 -0.488805,-0.2329205 -0.186992,-0.236201 -0.186992,-0.6922003 0,-0.4592798 0.190273,-0.6954808 0.190273,-0.2362011 0.498646,-0.2362011 0.193554,0 0.318216,0.075453 0.124661,0.075453 0.196834,0.1869925 h 0.0164 q -0.0098,-0.052489 -0.02296,-0.1509063 -0.01312,-0.1016976 -0.01312,-0.2066759 V 0.63291166 h 0.488805 V 3.1261449 h -0.373985 l -0.09514,-0.2329205 h -0.01968 q -0.07217,0.1115394 -0.193553,0.1902731 -0.121381,0.075453 -0.314935,0.075453 z m 0.17059,-0.3903878 q 0.203395,0 0.285409,-0.1181006 0.08201,-0.1213811 0.0853,-0.3608627 v -0.052489 q 0,-0.2624456 -0.08201,-0.4002295 -0.07873,-0.137784 -0.295252,-0.137784 -0.160747,0 -0.252603,0.1410645 -0.09186,0.137784 -0.09186,0.4002296 0,0.2624456 0.09186,0.396949 0.09186,0.1312228 0.259165,0.1312228 z"
     id="path1431"
     style="fill:#ff0000" /><path
     d="M 42.59233,3.1261449 H 42.103525 V 1.3349536 h 0.488805 z"
     id="path1433"
     style="fill:#ff0000" /><path
     d="m 45.206945,1.3021479 q 0.305093,0 0.45928,0.1574674 0.157467,0.1541868 0.157467,0.4986467 V 3.1261449 H 45.334887 V 2.079643 q 0,-0.3871072 -0.269007,-0.3871072 -0.193553,0 -0.275567,0.1377839 -0.08201,0.137784 -0.08201,0.396949 v 0.8988762 h -0.48881 V 2.079643 q 0,-0.3871072 -0.269006,-0.3871072 -0.203396,0 -0.282129,0.1541868 -0.07545,0.1509062 -0.07545,0.4363158 V 3.1261449 H 43.1041 V 1.3349536 h 0.373985 l 0.06561,0.22964 h 0.02625 q 0.08201,-0.137784 0.223078,-0.2001148 0.144345,-0.062331 0.298532,-0.062331 0.196834,0 0.334618,0.065611 0.137784,0.062331 0.209957,0.1968343 h 0.04265 q 0.08201,-0.137784 0.22636,-0.2001148 0.147625,-0.062331 0.301812,-0.062331 z"
     id="path1435"
     style="fill:#ff0000" /></g><g
   aria-label="4. Ad覺m"
   id="text656-9"
   style="font-weight:bold;font-size:3.28057px;-inkscape-font-specification:'sans-serif, Bold';fill:#ff0000;stroke-width:0.13163"
   transform="translate(15.228802,0.39211278)"><path
     d="M 54.637077,2.6100345 H 54.354948 V 3.0955589 H 53.872704 V 2.6100345 H 52.87213 V 2.2655747 l 1.026819,-1.51234282 h 0.455999 V 2.2262078 h 0.282129 z M 53.872704,1.8292589 q 0,-0.075453 0.0033,-0.183712 0.0033,-0.1082588 0.0066,-0.2001147 0.0066,-0.095137 0.0098,-0.1246617 h -0.01312 q -0.02952,0.065611 -0.06233,0.1279422 -0.03281,0.062331 -0.07873,0.1279423 l -0.429755,0.6495528 h 0.564258 z"
     id="path1438"
     style="fill:#ff0000" /><path
     d="m 54.879841,2.865919 q 0,-0.1509062 0.08201,-0.2099565 0.08201,-0.062331 0.200115,-0.062331 0.11482,0 0.196834,0.062331 0.08201,0.05905 0.08201,0.2099565 0,0.1443451 -0.08201,0.2099565 -0.08201,0.062331 -0.196834,0.062331 -0.118101,0 -0.200115,-0.062331 -0.08201,-0.065611 -0.08201,-0.2099565 z"
     id="path1440"
     style="fill:#ff0000" /><path
     d="M 58.20962,3.0955589 58.03903,2.537862 h -0.852948 l -0.17059,0.5576969 h -0.534733 l 0.826704,-2.35216873 h 0.606905 L 58.744352,3.0955589 Z M 57.75034,1.576655 Q 57.73394,1.520885 57.70769,1.4355904 57.68145,1.3502954 57.6552,1.2617202 57.62896,1.1731452 57.61255,1.1075334 q -0.0164,0.065611 -0.04593,0.1640285 -0.02625,0.095137 -0.05249,0.183712 -0.02296,0.085295 -0.03609,0.1213811 l -0.167309,0.5445746 h 0.610186 z"
     id="path1442"
     style="fill:#ff0000" /><path
     d="m 59.567777,3.1283646 q -0.298532,0 -0.488805,-0.2329205 -0.186992,-0.236201 -0.186992,-0.6922003 0,-0.4592798 0.190273,-0.6954808 0.190273,-0.2362011 0.498647,-0.2362011 0.193553,0 0.318215,0.075453 0.124662,0.075453 0.196834,0.1869924 h 0.0164 q -0.0098,-0.052489 -0.02296,-0.1509062 -0.01312,-0.1016976 -0.01312,-0.2066759 V 0.60232566 h 0.488805 V 3.0955589 h -0.373985 l -0.09514,-0.2329205 h -0.01968 q -0.07217,0.1115394 -0.193554,0.1902731 -0.121381,0.075453 -0.314935,0.075453 z m 0.17059,-0.3903879 q 0.203395,0 0.28541,-0.1181005 0.08201,-0.1213811 0.08529,-0.3608627 v -0.052489 q 0,-0.2624456 -0.08201,-0.4002295 -0.07873,-0.137784 -0.295251,-0.137784 -0.160748,0 -0.252604,0.1410645 -0.09186,0.137784 -0.09186,0.4002296 0,0.2624456 0.09186,0.3969489 0.09186,0.1312228 0.259165,0.1312227 z"
     id="path1444"
     style="fill:#ff0000" /><path
     d="M 61.565643,3.0955589 H 61.076838 V 1.3043676 h 0.488805 z"
     id="path1446"
     style="fill:#ff0000" /><path
     d="m 64.180257,1.2715619 q 0.305093,0 0.45928,0.1574674 0.157467,0.1541868 0.157467,0.4986467 V 3.0955589 H 64.3082 V 2.049057 q 0,-0.3871072 -0.269007,-0.3871072 -0.193554,0 -0.275568,0.1377839 -0.08201,0.137784 -0.08201,0.396949 V 3.0955589 H 63.192806 V 2.049057 q 0,-0.3871072 -0.269007,-0.3871072 -0.203395,0 -0.282129,0.1541868 -0.07545,0.1509062 -0.07545,0.4363158 V 3.0955589 H 62.077412 V 1.3043676 h 0.373985 l 0.06561,0.2296399 h 0.02625 q 0.08201,-0.1377839 0.223079,-0.2001147 0.144345,-0.062331 0.298532,-0.062331 0.196834,0 0.334618,0.065611 0.137784,0.062331 0.209956,0.1968342 h 0.04265 q 0.08201,-0.1377839 0.226359,-0.2001147 0.147626,-0.062331 0.301812,-0.062331 z"
     id="path1448"
     style="fill:#ff0000" /></g></g>
</svg>
