<?xml version="1.0" encoding="UTF-8" standalone="no"?>
<!-- Uploaded to: SVG Repo, www.svgrepo.com, Generator: SVG Repo Mixer Tools -->

<svg
   version="1.1"
   id="Layer_1"
   viewBox="0 0 455.12653 153.7464"
   xml:space="preserve"
   sodipodi:docname="google-web-google-svgrepo-com.svg"
   width="455.12653"
   height="153.7464"
   inkscape:version="1.2.2 (b0a8486541, 2022-12-01)"
   xmlns:inkscape="http://www.inkscape.org/namespaces/inkscape"
   xmlns:sodipodi="http://sodipodi.sourceforge.net/DTD/sodipodi-0.dtd"
   xmlns="http://www.w3.org/2000/svg"
   xmlns:svg="http://www.w3.org/2000/svg"><defs
   id="defs37" /><sodipodi:namedview
   id="namedview35"
   pagecolor="#ffffff"
   bordercolor="#000000"
   borderopacity="0.25"
   inkscape:showpageshadow="2"
   inkscape:pageopacity="0.0"
   inkscape:pagecheckerboard="0"
   inkscape:deskcolor="#d1d1d1"
   showgrid="false"
   inkscape:zoom="1.0527344"
   inkscape:cx="205.65492"
   inkscape:cy="162.43414"
   inkscape:window-width="1366"
   inkscape:window-height="675"
   inkscape:window-x="0"
   inkscape:window-y="0"
   inkscape:window-maximized="1"
   inkscape:current-layer="Layer_1" />











<g
   id="g336"
   transform="matrix(0.26245304,0,0,0.41274568,2.346165,33.775819)"><path
     style="fill:#415e72"
     d="m 139.928,179.152 c -8.296,2.976 -17.032,4.536 -25.848,4.608 -11.56,0.656 -22.896,-3.344 -31.48,-11.112 -7.952,-8.456 -12.184,-19.752 -11.736,-31.352 0.128,-25.104 17.36,-43.472 45.6,-43.472 7.192,-0.168 14.336,1.152 20.992,3.88 l -2.616,8.864 c -5.872,-2.552 -12.224,-3.784 -18.624,-3.616 -17.328,-1.368 -32.496,11.568 -33.864,28.904 -0.128,1.648 -0.128,3.304 0,4.944 0,21.344 12.872,33.968 32.472,33.968 4.936,0.272 9.864,-0.496 14.488,-2.24 v -25.104 h -17.104 v -8.76 h 27.72 z"
     id="path16" /><path
     style="fill:#25b6d2"
     d="m 211.528,152.16 c 1.416,16.256 -10.616,30.576 -26.872,31.992 -1.072,0.096 -2.152,0.128 -3.232,0.104 -15.864,0.184 -28.88,-12.52 -29.064,-28.384 -0.008,-0.904 0.024,-1.816 0.096,-2.72 -1.432,-16.24 10.576,-30.56 26.808,-31.984 1.04,-0.088 2.088,-0.128 3.136,-0.112 15.808,-0.336 28.896,12.216 29.232,28.024 0.016,1.024 -0.016,2.056 -0.104,3.08 z m -48,0.624 c 0,13.248 7.616,23.2 18.352,23.2 10.504,0 18.4,-9.864 18.4,-23.48 0,-10.24 -5.128,-23.2 -18.12,-23.2 -12.992,0 -18.592,12 -18.592,23.496 z"
     id="path18" /><path
     style="fill:#415e72"
     d="m 280.144,152.16 c 1.416,16.256 -10.616,30.576 -26.872,31.992 -1.072,0.096 -2.152,0.128 -3.232,0.104 -15.864,0.184 -28.88,-12.52 -29.064,-28.384 -0.008,-0.904 0.024,-1.816 0.096,-2.72 -1.432,-16.24 10.576,-30.56 26.808,-31.984 1.048,-0.096 2.096,-0.128 3.152,-0.112 15.808,-0.328 28.888,12.232 29.216,28.04 0.016,1.024 -0.016,2.048 -0.104,3.064 z m -48,0.624 c 0,13.248 7.616,23.2 18.352,23.2 10.504,0 18.4,-9.864 18.4,-23.48 0,-10.24 -5.128,-23.2 -18.12,-23.2 -12.992,0 -18.592,12 -18.592,23.496 z"
     id="path20" /><path
     style="fill:#e04f5f"
     d="m 346.128,122.4 c -0.248,4.376 -0.496,9.256 -0.496,16.632 v 35.088 c 0,13.872 -2.76,22.4 -8.616,27.592 -6.168,5.072 -14.008,7.656 -21.984,7.248 -7.032,0.176 -13.984,-1.544 -20.12,-4.984 l 2.76,-8.368 c 5.368,3.168 11.504,4.808 17.736,4.736 11.2,0 19.48,-5.872 19.48,-21.096 v -6.744 h -0.248 c -4.12,6.576 -11.448,10.432 -19.2,10.112 -14.992,0 -25.728,-12.744 -25.728,-29.48 0,-20.472 13.352,-32.096 27.2,-32.096 7.792,-0.456 15.144,3.64 18.856,10.504 H 336 l 0.496,-9.136 z m -11.376,23.856 c 0.064,-1.688 -0.152,-3.368 -0.624,-4.984 -1.904,-6.904 -8.208,-11.672 -15.368,-11.624 -10.488,0 -17.984,8.864 -17.984,22.856 0,11.872 6,21.736 17.856,21.736 6.96,-0.048 13.088,-4.568 15.2,-11.2 0.592,-1.904 0.888,-3.88 0.872,-5.872 z"
     id="path22" /><path
     style="fill:#415e72"
     d="m 363.896,94.208 h 11 v 88.68 h -11 z"
     id="path24" /><path
     style="fill:#25b6d2"
     d="m 399.496,154.656 c -0.928,10.656 6.96,20.048 17.616,20.968 1.032,0.088 2.072,0.096 3.104,0.024 5.744,0.176 11.456,-0.88 16.752,-3.112 l 1.872,7.872 c -6.368,2.648 -13.224,3.92 -20.12,3.736 -15.472,0.968 -28.792,-10.784 -29.768,-26.248 -0.088,-1.408 -0.072,-2.824 0.056,-4.232 0,-18.232 10.736,-32.6 28.344,-32.6 19.744,0 24.976,17.36 24.976,28.488 -0.016,1.712 -0.144,3.416 -0.376,5.112 z m 32.224,-7.872 c 1.224,-8.552 -4.728,-16.48 -13.28,-17.704 -0.64,-0.088 -1.28,-0.144 -1.92,-0.152 -9.384,0.704 -16.696,8.44 -16.856,17.856 z"
     id="path26" /><g
     id="g32">
	<rect
   x="71.279999"
   y="242.784"
   style="fill:#c7d5dd"
   width="370.64001"
   height="8"
   id="rect28" />
	<rect
   x="138.71201"
   y="277.53601"
   style="fill:#c7d5dd"
   width="235.776"
   height="8"
   id="rect30" />
</g></g>
<path
   style="fill:#8f25a9;stroke-width:0.153361"
   d="m 236.80209,88.80797 -10.10549,2.633463 c -1.53121,0.47878 -5.66519,4.18958 -12.70845,11.371567 -7.50253,7.42148 -11.48354,12.20946 -12.09599,14.60359 l -0.45929,6.5836 -0.15316,4.18959 0.91877,10.05492 13.32088,0.23946 -1.83734,5.26653 h -39.80969 l 0.7656,-4.66838 6.27764,-0.23949 c 3.2154,-0.23946 5.20591,-0.83785 5.81835,-1.55612 0.4593,-0.4788 0.61245,-3.71079 0.61245,-9.33667 v -3.47131 l -0.15315,-6.94268 c -0.4593,-1.55611 -3.82785,-7.42145 -10.56479,-17.47636 C 169.73834,89.645693 165.29804,83.540895 163.15439,81.386372 L 150.5991,79.351574 v -5.027451 h 42.25932 l -0.4593,4.18958 -13.16773,1.556139 c 4.13398,7.421448 10.4118,17.835441 18.83293,30.882898 11.02424,-10.29425 16.84243,-16.997577 16.99557,-19.870367 l -11.17723,-2.154663 -0.61244,-5.02747 h 36.13482 z"
   id="path338" /><g
   id="g366"
   transform="matrix(0.20634994,0,0,0.1822893,245.30443,59.17542)"><path
     style="fill:#ea163f"
     d="m 359.217,10.199 h -69.846 c -70.763,0 -142.167,52.255 -142.167,168.995 0,60.468 25.628,107.564 72.606,134.347 l -85.983,155.633 c -4.078,7.36 -4.184,15.702 -0.286,22.314 3.805,6.457 10.763,10.312 18.605,10.312 h 43.496 c 9.881,0 17.585,-4.776 21.281,-13.143 l 80.62,-157.689 h 5.884 v 151.179 c 0,10.654 8.991,19.653 19.631,19.653 h 37.998 c 11.934,0 20.265,-8.333 20.265,-20.263 V 31.71 c 10e-4,-12.665 -9.088,-21.511 -22.104,-21.511 z m -55.791,250.723 h -10.379 c -40.245,0 -64.27,-32.852 -64.27,-87.877 0,-68.42 30.35,-92.797 58.756,-92.797 h 15.893 z"
     id="path346" /><g
     id="g354">
	<path
   style="fill:#9c0e2b"
   d="m 361.056,512 h -37.998 c -16.17,0 -29.832,-13.671 -29.832,-29.853 V 361.816 L 226.123,493.068 C 220.755,504.929 209.385,512 195.642,512 h -43.496 c -11.495,0 -21.734,-5.732 -27.392,-15.333 -5.751,-9.758 -5.694,-21.882 0.151,-32.434 l 81.264,-147.09 c -44.696,-29.34 -69.164,-77.926 -69.164,-137.949 0,-56.422 16.393,-103.228 47.408,-135.358 C 211.701,15.568 248.975,0 289.371,0 h 69.845 c 8.967,0 17.152,3.16 23.047,8.897 5.97,5.809 9.257,13.913 9.256,22.815 V 481.539 C 391.52,499.189 378.708,512 361.056,512 Z M 297.542,320.77 h 5.884 c 5.633,0 10.199,4.567 10.199,10.199 v 151.178 c 0,5.036 4.408,9.455 9.433,9.455 h 37.998 c 6.302,0 10.066,-3.761 10.066,-10.064 V 31.71 c 0,-3.398 -1.066,-6.232 -3.084,-8.196 -2.095,-2.038 -5.144,-3.116 -8.82,-3.116 h -69.845 c -65.687,0 -131.967,49.101 -131.967,158.794 0,56.933 23.327,100.327 67.459,125.487 4.847,2.764 6.574,8.909 3.876,13.792 l -85.984,155.634 c -2.314,4.177 -2.471,8.734 -0.426,12.203 1.983,3.364 5.562,5.291 9.819,5.291 h 43.496 c 5.86,0 9.881,-2.376 11.95,-7.064 0.078,-0.176 0.161,-0.351 0.249,-0.522 l 80.62,-157.689 c 1.74,-3.408 5.248,-5.554 9.077,-5.554 z m 5.884,-49.649 h -10.379 c -23.133,0 -42.31,-9.503 -55.46,-27.482 -12.436,-17.005 -19.01,-41.416 -19.01,-70.595 0,-33.754 7.001,-60.073 20.806,-78.229 12.145,-15.971 29.245,-24.767 48.148,-24.767 h 15.894 c 5.633,0 10.199,4.567 10.199,10.199 v 180.675 c 0.002,5.633 -4.565,10.199 -10.198,10.199 z M 287.532,90.448 c -23.473,0 -48.556,21.698 -48.556,82.597 0,49.365 19.709,77.678 54.072,77.678 h 0.18 V 90.448 Z"
   id="path348" />
	<path
   style="fill:#9c0e2b"
   d="m 351.879,345.753 c -5.633,0 -10.199,-4.567 -10.199,-10.199 v -4.08 c 0,-5.632 4.566,-10.199 10.199,-10.199 5.633,0 10.199,4.567 10.199,10.199 v 4.08 c 0,5.632 -4.566,10.199 -10.199,10.199 z"
   id="path350" />
	<path
   style="fill:#9c0e2b"
   d="m 351.879,482.422 c -5.633,0 -10.199,-4.567 -10.199,-10.199 V 371.251 c 0,-5.632 4.566,-10.199 10.199,-10.199 5.633,0 10.199,4.567 10.199,10.199 v 100.972 c 0,5.632 -4.566,10.199 -10.199,10.199 z"
   id="path352" />
</g></g><g
   id="g391"
   transform="matrix(0.09947537,0,0,0.12838414,0.94990724,1.8723258)"><path
     style="fill:#ed5564"
     d="M 391.256,0.214 286.338,14.094 0,300.425 210.976,511.386 497.315,225.07 511.6,120.573 Z m 0.172,141.483 c -11.756,0 -21.295,-9.539 -21.295,-21.312 0,-11.771 9.539,-21.312 21.295,-21.312 11.772,0 21.328,9.54 21.328,21.312 0,11.773 -9.556,21.312 -21.328,21.312 z"
     id="path368" /><path
     style="fill:#da4453"
     d="m 391.444,163.009 v 0 c -11.396,0 -22.092,-4.434 -30.148,-12.49 -8.056,-8.04 -12.49,-18.751 -12.49,-30.133 0,-23.497 19.126,-42.623 42.623,-42.623 11.398,0 22.092,4.435 30.148,12.49 8.057,8.041 12.49,18.751 12.49,30.133 0,11.382 -4.434,22.093 -12.49,30.133 -8.057,8.056 -18.751,12.49 -30.133,12.49 z m -0.016,-63.935 c -11.74,0 -21.295,9.556 -21.295,21.312 0,5.699 2.201,11.038 6.229,15.066 4.028,4.028 9.384,6.245 15.066,6.245 h 0.016 c 5.684,0 11.039,-2.217 15.066,-6.245 4.028,-4.028 6.246,-9.367 6.246,-15.066 0,-5.698 -2.218,-11.038 -6.246,-15.066 -4.027,-4.029 -9.383,-6.246 -15.082,-6.246 z"
     id="path370" /><g
     id="g378">
	<path
   style="fill:#ffce54"
   d="m 179.844,323.032 c -16.659,9.337 -24.075,15.831 -29.742,10.148 -4.669,-4.652 -3.482,-11.335 3.106,-17.923 7.604,-7.588 15.191,-8.432 22.062,-2.654 l 13.536,-13.553 c -14.816,-14.27 -32.116,-9.43 -45.84,4.31 -15.206,15.207 -17.393,32.756 -5.589,44.559 13.271,13.271 26.089,5.777 39.719,-1.811 17.299,-9.618 22.607,-13.084 27.729,-7.963 5.402,5.402 4.122,13.271 -3.388,20.766 -8.696,8.712 -17.939,10.991 -26.995,2.467 l -14.191,14.207 c 14.926,14.552 33.879,12.615 51.537,-5.059 13.271,-13.271 21.14,-32.475 5.762,-47.868 -10.884,-10.867 -22.78,-7.962 -37.706,0.374 z"
   id="path372" />
	<polygon
   style="fill:#ffce54"
   points="212.444,260.059 247.119,225.366 235.409,213.657 186.542,262.526 251.709,327.686 301.217,278.193 289.227,266.195 253.896,301.518 237.876,285.499 269.727,253.657 258.469,242.385 226.619,274.258 "
   id="polygon374" />
	<path
   style="fill:#ffce54"
   d="m 277.892,168.068 c -19.5,19.484 -18.767,45.854 1.921,66.542 20.406,20.405 46.947,21.14 66.26,1.826 19.127,-19.125 18.314,-45.761 -2.014,-66.089 -20.406,-20.405 -47.135,-21.327 -66.167,-2.279 z m 56.471,56.471 c -11.163,10.976 -26.37,9.336 -40.359,-4.668 -13.552,-13.553 -15.379,-29.103 -4.59,-39.906 10.898,-10.898 26.183,-9.149 39.906,4.574 13.912,13.911 15.833,29.197 5.043,40 z"
   id="path376" />
</g></g><g
   id="g401"
   transform="matrix(0.17002886,0,0,0.18305693,366.2127,60.283501)">
	<polygon
   style="fill:#ee8700"
   points="247.5,0 247.5,40 455,40 455,455 247.5,455 247.5,495 495,495 495,0 "
   id="polygon393" />
	<polygon
   style="fill:#ffa733"
   points="40,455 40,40 247.5,40 247.5,0 0,0 0,495 247.5,495 247.5,455 "
   id="polygon395" />
	<path
   style="fill:#ffb655"
   d="m 247.5,384.025 c 87.019,0 157.5,-48.326 157.5,-107.874 0,-59.443 -70.48,-107.715 -157.5,-107.715 -38.024,0 -72.951,9.238 -100.251,24.62 V 110.974 H 90 v 168.224 h 0.277 c 2.309,58.155 71.715,104.827 157.223,104.827 z m 0,-179.614 c 55.375,0 100.262,32.157 100.262,71.779 0,39.652 -44.888,71.899 -100.262,71.899 -55.362,0 -100.251,-32.208 -100.251,-71.899 0.001,-39.622 44.889,-71.779 100.251,-71.779 z"
   id="path397" />
	<path
   style="fill:#ffb655"
   d="m 247.5,323.717 c 36.605,0 66.201,-21.198 66.201,-47.526 0,-26.221 -29.596,-47.445 -66.201,-47.445 -36.593,0 -66.283,21.224 -66.283,47.445 0,26.315 29.69,47.578 66.283,47.526 z"
   id="path399" />
</g></svg>
