<?xml version="1.0" encoding="UTF-8" standalone="no"?>
<!-- Generator: Adobe Illustrator 27.5.0, SVG Export Plug-In . SVG Version: 6.00 Build 0)  -->

<svg
   version="1.1"
   id="Wiki_Encyclopedia_2_"
   x="0px"
   y="0px"
   viewBox="0 0 1189.8712 954.15906"
   xml:space="preserve"
   sodipodi:docname="bilgipaylasim-googledrivewiki.svg"
   inkscape:version="1.2.2 (b0a8486541, 2022-12-01)"
   width="1189.8712"
   height="954.15906"
   xmlns:inkscape="http://www.inkscape.org/namespaces/inkscape"
   xmlns:sodipodi="http://sodipodi.sourceforge.net/DTD/sodipodi-0.dtd"
   xmlns="http://www.w3.org/2000/svg"
   xmlns:svg="http://www.w3.org/2000/svg"><defs
   id="defs164" /><sodipodi:namedview
   id="namedview162"
   pagecolor="#ffffff"
   bordercolor="#000000"
   borderopacity="0.25"
   inkscape:showpageshadow="2"
   inkscape:pageopacity="0.0"
   inkscape:pagecheckerboard="0"
   inkscape:deskcolor="#d1d1d1"
   showgrid="false"
   inkscape:zoom="0.42083333"
   inkscape:cx="591.68317"
   inkscape:cy="468.11882"
   inkscape:window-width="1366"
   inkscape:window-height="667"
   inkscape:window-x="0"
   inkscape:window-y="0"
   inkscape:window-maximized="1"
   inkscape:current-layer="Wiki_Encyclopedia_2_" />
<g
   id="Background"
   transform="matrix(1,0,0,0.80594059,-9.5942448,0.29664897)"
   style="fill:#c8b7b7">
	<rect
   id="Background_1"
   style="fill:#c8b7b7"
   width="1200"
   height="1200"
   x="0"
   y="0" />
	<circle
   id="Background_2"
   style="fill:#c8b7b7"
   cx="600"
   cy="600"
   r="399" />
</g>

<g
   id="Wiki_Encyclopedia_1_"
   transform="matrix(0.92790406,0,0,0.83724494,-69.997371,-105.02652)">
	<g
   id="g42">
		<path
   style="clip-rule:evenodd;fill:#494f5b;fill-rule:evenodd"
   d="M 351.815,633.324 H 923.35 c 5.791,0 10.519,4.728 10.519,10.522 v 211.861 c 0,5.791 -4.728,10.519 -10.519,10.519 H 351.815 c -5.725,0 -10.453,-4.728 -10.453,-10.519 v -211.86 c 0,-5.795 4.727,-10.523 10.453,-10.523 z"
   id="path38" />
		<path
   style="clip-rule:evenodd;fill:#bbbdbf;fill-rule:evenodd"
   d="m 374.919,656.163 h 38.484 v 38.484 h -38.484 z m 489.704,147.278 h 38.486 v 38.482 h -38.486 z m -48.935,0 h 38.482 v 38.482 h -38.482 z m -49.005,0 h 38.485 v 38.482 h -38.485 z m -293.823,0 h 283.37 v 38.482 H 472.86 Z m -48.938,0 h 38.484 v 38.482 h -38.484 z m -49.003,0 h 38.484 v 38.482 h -38.484 z m 489.704,-48.406 h 38.486 v 38.486 h -38.486 z m -48.935,0 h 38.482 v 38.486 h -38.482 z m -97.944,0 h 19.243 19.242 48.939 v 38.486 h -48.939 -19.242 -19.243 z m -49.002,0 h 38.483 v 38.486 h -38.483 z m -48.937,0 h 38.483 v 38.486 h -38.483 z m -49.005,0 h 38.485 v 38.486 H 570.8 Z m -48.936,0 h 38.484 v 38.486 h -38.484 z m -49.004,0 h 38.485 v 38.486 H 472.86 Z m -48.938,0 h 38.484 v 38.486 h -38.484 z m -49.003,0 h 38.484 v 38.486 h -38.484 z m 489.704,-49.802 h 38.486 v 38.484 h -38.486 z m -97.94,0 h 38.485 49.002 v 38.484 h -49.002 -38.485 z m -48.939,0 h 38.485 v 38.484 h -38.485 z m -49.002,0 h 38.483 v 38.484 h -38.483 z m -48.937,0 h 38.483 v 38.484 h -38.483 z m -49.005,0 h 38.485 v 38.484 H 570.8 Z m -48.936,0 h 38.484 v 38.484 h -38.484 z m -49.004,0 h 38.485 v 38.484 H 472.86 Z m -48.938,0 h 38.484 v 38.484 h -38.484 z m -49.003,0 h 38.484 v 38.484 h -38.484 z m 489.704,-49.07 h 38.486 v 38.484 h -38.486 z m -48.935,0 h 38.482 v 38.484 h -38.482 z m -49.005,0 h 38.485 v 38.484 h -38.485 z m -48.939,0 h 38.485 v 38.484 h -38.485 z m -49.002,0 h 38.483 v 38.484 h -38.483 z m -48.937,0 h 38.483 v 38.484 h -38.483 z m -49.005,0 h 38.485 v 38.484 H 570.8 Z m -48.936,0 h 38.484 v 38.484 h -38.484 z m -49.004,0 h 38.485 v 38.484 H 472.86 Z m -48.938,0 h 38.484 v 38.484 h -38.484 z"
   id="path40" />
	</g>
	<g
   id="g56">
		<path
   style="clip-rule:evenodd;fill:#494f5b;fill-rule:evenodd"
   d="m 544.036,614.418 h 72.905 7.124 89.554 c 4.393,0 8.122,-2.197 8.255,-4.862 l 0.333,-7.855 h -98.142 -7.124 -81.428 l 0.332,7.855 c 0.068,2.665 3.797,4.862 8.191,4.862 z"
   id="path44" />
		<path
   style="clip-rule:evenodd;fill:#363f48;fill-rule:evenodd"
   d="m 542.038,605.229 h 80.631 12.317 80.63 c 4.328,0 7.256,-1.932 6.524,-4.195 l -16.11,-52.866 c -0.735,-2.264 -4.795,-4.126 -9.122,-4.126 H 653.697 603.96 560.747 c -4.261,0 -8.389,1.862 -9.055,4.126 l -16.178,52.866 c -0.666,2.263 2.263,4.195 6.524,4.195 z"
   id="path46" />
		<path
   style="clip-rule:evenodd;fill:#494f5b;fill-rule:evenodd"
   d="m 348.619,272.655 h 260.334 39.749 260.331 c 13.852,0 23.373,9.188 21.107,20.506 l -52.133,261.197 c -2.265,11.32 -15.445,20.509 -29.363,20.509 H 709.091 548.63 409.008 c -13.848,0 -27.03,-9.188 -29.295,-20.509 l -52.2,-261.197 c -2.264,-11.318 7.258,-20.506 21.106,-20.506 z"
   id="path48" />
		<path
   style="clip-rule:evenodd;fill:#e5e6e7;fill-rule:evenodd"
   d="m 374.52,298.222 h 148.077 22.57 19.175 128.968 19.177 22.57 148.143 c 7.857,0 13.25,7.191 11.987,16.046 L 865.492,517.94 c -1.268,8.787 -8.792,15.98 -16.648,15.98 H 769.412 678.129 658.956 598.697 579.525 488.24 408.875 c -7.923,0 -15.447,-7.193 -16.712,-15.98 L 362.468,314.267 c -1.264,-8.854 4.128,-16.045 12.052,-16.045 z"
   id="path50" />
		<path
   style="clip-rule:evenodd;fill:#bbbdbf;fill-rule:evenodd"
   d="m 586.181,552.363 h 23.837 37.617 23.837 c 3.394,0 4.928,2.729 3.462,6.124 v 0 c -1.464,3.397 -5.46,6.126 -8.853,6.126 h -13.053 -48.404 -13.049 c -3.397,0 -7.325,-2.729 -8.856,-6.126 v 0 c -1.465,-3.395 0.066,-6.124 3.462,-6.124 z"
   id="path52" />
		<path
   style="clip-rule:evenodd;fill:#363f48;fill-rule:evenodd"
   d="m 331.773,278.913 19.043,-21.106 c 185.363,0 370.726,0 556.02,0 l 19.042,21.106 c -236.495,6.725 -357.541,6.725 -594.105,0 z"
   id="path54" />
	</g>
	<g
   id="g64">
		<path
   style="clip-rule:evenodd;fill:#3dd4e9;fill-rule:evenodd"
   d="m 874.346,426.058 c 82.76,0 150.272,-67.513 150.272,-150.341 0,-82.759 -67.513,-150.274 -150.272,-150.274 -82.827,0 -150.34,67.515 -150.34,150.274 0,82.827 67.513,150.341 150.34,150.341 z"
   id="path58" />
		<path
   style="clip-rule:evenodd;fill:#7dc983;fill-rule:evenodd"
   d="m 1022.09,303.282 c -2.529,13.783 -6.99,26.832 -12.984,39.016 H 889.459 c -10.719,0 -19.507,-8.788 -19.507,-19.509 v 0 c 0,-10.718 8.788,-19.507 19.507,-19.507 z m -11.852,-91.749 c 9.256,19.508 14.38,41.28 14.38,64.184 0,2.464 -0.064,4.927 -0.198,7.324 -4.261,1.732 -8.922,2.663 -13.783,2.663 H 910.232 c -20.441,0 -37.086,-16.645 -37.086,-37.085 v 0 c 0,-20.374 16.645,-37.086 37.086,-37.086 z M 733.992,329.715 c -6.193,-16.113 -9.721,-33.624 -9.921,-51.868 h 48.536 c 5.928,0 10.723,4.794 10.723,10.72 v 0 c 0,1.597 -0.332,3.063 -0.935,4.46 h 27.697 c 10.054,0 18.313,8.257 18.313,18.311 v 0.067 c 0,10.054 -8.259,18.31 -18.313,18.31 z m 10.719,-130.1 c 5.792,-9.788 12.65,-18.909 20.375,-27.1 h 57.793 c 7.458,0 13.582,6.06 13.582,13.517 v 0 c 0,7.457 -6.124,13.583 -13.582,13.583 z"
   id="path60" />
		<path
   style="clip-rule:evenodd;fill:#ffffff;fill-rule:evenodd"
   d="m 943.39,311.871 c 8.79,0 16.248,-5.526 19.177,-13.25 3.461,-3.262 5.659,-7.923 5.659,-13.116 v 0 c 0,-9.921 -8.122,-17.977 -17.978,-17.977 h -12.45 c 2.065,-3.729 3.261,-7.923 3.261,-12.45 0,-13.983 -11.316,-25.302 -25.233,-25.302 -13.983,0 -25.3,11.319 -25.3,25.302 0,0.199 0,0.399 0.065,0.664 -1.465,-0.532 -3.061,-0.798 -4.661,-0.798 -7.391,0 -13.515,5.46 -14.646,12.584 h -9.322 c -9.921,0 -17.977,8.056 -17.977,17.977 v 0 c 0,9.92 8.056,18.044 17.977,18.044 h 14.58 c 3.263,6.924 10.321,11.651 18.445,11.651 8.189,0 15.246,-4.727 18.509,-11.651 h 13.448 c 3.73,5.059 9.72,8.322 16.446,8.322 z m 27.631,-151.206 c 8.458,7.191 16.181,15.248 22.904,24.035 h -67.048 c -1.73,1.731 -4.061,2.797 -6.655,2.797 -1.067,0 -2.065,-0.134 -2.997,-0.466 0.067,0.132 0.067,0.266 0.067,0.399 0,8.856 -7.19,16.046 -16.049,16.046 -8.854,0 -16.045,-7.19 -16.045,-16.046 0,-2.862 0.799,-5.526 2.065,-7.856 h -7.858 c -6.324,0 -11.452,-5.193 -11.452,-11.452 v 0 c 0,-3.263 1.398,-6.258 3.595,-8.323 1.866,-4.927 6.593,-8.39 12.186,-8.39 4.262,0 8.056,2.065 10.452,5.261 h 8.523 c 2.066,-4.395 6.526,-7.391 11.718,-7.391 5.193,0 9.655,2.996 11.72,7.391 h 9.256 c 3.46,0 6.592,1.532 8.653,3.995 z m -213.792,42.944 c 2.663,0 5.191,0.6 7.523,1.665 1.931,-0.933 4.196,-1.531 6.593,-1.665 -0.398,-1.265 -0.599,-2.53 -0.599,-3.928 0,-7.79 6.99,-14.114 15.578,-14.114 8.654,0 15.647,6.325 15.647,14.114 0,2.93 -0.932,5.594 -2.596,7.857 4.993,1.398 8.59,5.327 8.59,9.92 0,1.998 -0.667,3.863 -1.865,5.46 6.992,1.331 11.519,3.462 11.519,5.793 0,4.061 -13.517,7.324 -30.229,7.324 -6.922,0 -13.248,-0.533 -18.374,-1.465 -3.129,2.795 -7.259,4.528 -11.785,4.528 -9.854,0 -17.777,-7.989 -17.777,-17.777 -0.002,-9.788 7.921,-17.712 17.775,-17.712 z"
   id="path62" />
	</g>
	<g
   id="g74">
		<path
   style="clip-rule:evenodd;fill:#e5e6e7;fill-rule:evenodd"
   d="m 1025.352,699.375 v 0 c 28.43,0 51.667,23.236 51.667,51.668 v 58.723 c 0,28.431 -23.237,51.668 -51.667,51.668 v 0 c -28.43,0 -51.666,-23.237 -51.666,-51.668 v -58.723 c -0.001,-28.432 23.236,-51.668 51.666,-51.668 z"
   id="path66" />
		<path
   style="clip-rule:evenodd;fill:#d0d2d4;fill-rule:evenodd"
   d="m 1022.223,781.602 -48.537,-8.522 v -22.037 c 0,-27.364 21.571,-49.938 48.537,-51.537 z"
   id="path68" />
		<path
   style="clip-rule:evenodd;fill:#d0d2d4;fill-rule:evenodd"
   d="m 1028.479,781.602 48.539,-8.522 v -22.037 c 0,-27.364 -21.574,-49.938 -48.539,-51.537 z"
   id="path70" />
		<path
   style="clip-rule:evenodd;fill:#a6a9ab;fill-rule:evenodd"
   d="m 1025.352,725.808 v 0 c 3.462,0 6.261,2.796 6.261,6.258 v 17.443 c 0,3.398 -2.799,6.261 -6.261,6.261 v 0 c -3.463,0 -6.26,-2.862 -6.26,-6.261 v -17.443 c 0,-3.462 2.797,-6.258 6.26,-6.258 z"
   id="path72" />
	</g>
	<g
   id="g96">
		<g
   id="g84">
			<path
   style="clip-rule:evenodd;fill:#fed9b1;fill-rule:evenodd"
   d="m 457.013,935.937 c 0.267,0.333 0.466,0.667 0.733,0.936 h 75.436 v -78.435 c 2.063,-0.267 3.928,-1.065 5.46,-2.266 v 0 c 15.912,-12.783 31.892,-25.565 47.871,-38.348 11.452,-9.123 10.12,-19.444 -6.857,-19.908 -12.917,1.796 -24.967,7.455 -36.886,13.58 v -4.527 -20.039 -73.04 c 0,-5.925 -4.928,-10.786 -10.854,-10.786 v 0 c -5.926,0 -10.852,4.861 -10.852,10.786 v 73.04 h -3.662 v -87.157 c 0,-5.989 -4.86,-10.851 -10.852,-10.851 v 0 c -5.926,0 -10.787,4.861 -10.787,10.851 v 87.157 h -3.662 v -67.183 c 0,-5.924 -4.928,-10.785 -10.854,-10.785 v 0 c -5.924,0 -10.852,4.861 -10.852,10.785 v 67.183 h -3.662 v -39.817 c 0,-5.99 -4.86,-10.852 -10.853,-10.852 v 0 c -5.926,0 -10.787,4.861 -10.787,10.852 v 39.817 0 60.722 c 0,5.127 7.191,10.388 11.918,11.518 v 76.767 z"
   id="path76" />
			<path
   style="clip-rule:evenodd;fill:#feebd6;fill-rule:evenodd"
   d="m 593.571,808.768 c -0.865,2.862 -3.263,6.059 -7.057,9.057 l -10.586,8.453 c -0.2,-0.932 -0.332,-1.997 -0.332,-3.063 0,-8.055 7.057,-14.581 15.781,-14.581 0.73,0 1.463,0.067 2.194,0.134 z m -51.533,-98.675 c -1.531,-4.126 -5.526,-6.989 -10.121,-6.989 v 0 c -4.459,0 -8.39,2.729 -9.987,6.656 0.734,7.192 4.928,12.718 10.055,12.718 5.059,-10e-4 9.255,-5.394 10.053,-12.385 z m -25.7,-14.982 c -1.732,-3.659 -5.46,-6.189 -9.787,-6.189 v 0 c -4.86,0 -8.988,3.262 -10.321,7.724 0.932,6.79 5.06,11.918 9.988,11.918 5.259,-10e-4 9.653,-5.927 10.12,-13.453 z m -25.302,20.042 c -1.731,-3.66 -5.459,-6.191 -9.788,-6.191 v 0 c -4.792,0 -8.921,3.129 -10.319,7.524 0.999,6.725 5.06,11.785 9.987,11.785 5.194,0 9.522,-5.728 10.12,-13.118 z m -25.101,27.833 c -1.597,-3.93 -5.526,-6.726 -10.053,-6.726 v 0 c -4.528,0 -8.456,2.862 -10.054,6.925 0.799,7.059 4.993,12.385 10.054,12.385 5.06,0 9.255,-5.463 10.053,-12.584 z"
   id="path78" />
			<path
   style="clip-rule:evenodd;fill:#ffffff;fill-rule:evenodd"
   d="m 456.014,889.329 h 78.234 c 2.996,0 5.526,2.531 5.526,5.528 v 6.125 h -89.285 v -6.125 c 0,-2.997 2.463,-5.528 5.525,-5.528 z"
   id="path80" />
			<path
   style="clip-rule:evenodd;fill:#ef5160;fill-rule:evenodd"
   d="m 447.893,900.982 h 94.413 c 3.927,0 7.057,3.13 7.057,7.058 v 75.437 c 0,3.863 -3.13,7.058 -7.057,7.058 h -94.413 c -3.862,0 -6.992,-3.194 -6.992,-7.058 V 908.04 c -0.001,-3.928 3.129,-7.058 6.992,-7.058 z"
   id="path82" />
		</g>
		<g
   id="g94">
			<path
   style="clip-rule:evenodd;fill:#fed9b1;fill-rule:evenodd"
   d="m 847.781,935.937 c -0.269,0.333 -0.469,0.667 -0.734,0.936 h -75.503 v -78.435 c -1.998,-0.267 -3.862,-1.065 -5.393,-2.266 v 0 c -15.982,-12.783 -31.893,-25.565 -47.872,-38.348 -11.45,-9.123 -10.121,-19.444 6.859,-19.908 12.915,1.796 24.967,7.455 36.885,13.58 v -4.527 -20.039 -73.04 c 0,-5.925 4.928,-10.786 10.855,-10.786 v 0 c 5.923,0 10.851,4.861 10.851,10.786 v 73.04 h 3.66 v -87.157 c 0,-5.989 4.861,-10.851 10.788,-10.851 v 0 c 5.991,0 10.852,4.861 10.852,10.851 v 87.157 h 3.665 v -67.183 c 0,-5.924 4.925,-10.785 10.852,-10.785 v 0 c 5.925,0 10.852,4.861 10.852,10.785 v 67.183 h 3.663 v -39.817 c 0,-5.99 4.862,-10.852 10.784,-10.852 v 0 c 5.993,0 10.853,4.861 10.853,10.852 v 39.817 0 60.722 c 0,5.127 -7.188,10.388 -11.916,11.518 v 76.767 z"
   id="path86" />
			<path
   style="clip-rule:evenodd;fill:#feebd6;fill-rule:evenodd"
   d="m 711.222,808.768 c 0.864,2.862 3.261,6.059 7.057,9.057 l 10.587,8.453 c 0.2,-0.932 0.333,-1.997 0.333,-3.063 0,-8.055 -7.059,-14.581 -15.779,-14.581 -0.736,0 -1.467,0.067 -2.198,0.134 z m 51.532,-98.675 c 1.533,-4.126 5.527,-6.989 10.123,-6.989 v 0 c 4.458,0 8.322,2.729 9.987,6.656 -0.733,7.192 -4.927,12.718 -10.056,12.718 -5.06,-10e-4 -9.254,-5.394 -10.054,-12.385 z m 25.702,-14.982 c 1.729,-3.659 5.459,-6.189 9.721,-6.189 v 0 c 4.927,0 9.054,3.262 10.387,7.724 -0.936,6.79 -5.061,11.918 -9.987,11.918 -5.261,-10e-4 -9.654,-5.927 -10.121,-13.453 z m 25.301,20.042 c 1.732,-3.66 5.459,-6.191 9.788,-6.191 v 0 c 4.793,0 8.92,3.129 10.319,7.524 -0.999,6.725 -5.062,11.785 -9.987,11.785 -5.193,0 -9.523,-5.728 -10.12,-13.118 z m 25.1,27.833 c 1.6,-3.93 5.526,-6.726 9.986,-6.726 v 0 c 4.597,0 8.522,2.862 10.122,6.925 -0.8,7.059 -4.995,12.385 -10.055,12.385 -5.058,0 -9.255,-5.463 -10.053,-12.584 z"
   id="path88" />
			<path
   style="clip-rule:evenodd;fill:#ffffff;fill-rule:evenodd"
   d="m 848.777,889.329 h -78.23 c -2.999,0 -5.528,2.531 -5.528,5.528 v 6.125 h 89.285 v -6.125 c 0,-2.997 -2.464,-5.528 -5.527,-5.528 z"
   id="path90" />
			<path
   style="clip-rule:evenodd;fill:#ef5160;fill-rule:evenodd"
   d="m 856.9,900.982 h -94.412 c -3.928,0 -7.058,3.13 -7.058,7.058 v 75.437 c 0,3.863 3.13,7.058 7.058,7.058 H 856.9 c 3.864,0 6.992,-3.194 6.992,-7.058 V 908.04 c 10e-4,-3.928 -3.127,-7.058 -6.992,-7.058 z"
   id="path92" />
		</g>
	</g>
	<path
   style="fill:#fefefe"
   d="m 286.233,779.006 c -3.663,-1.397 -5.526,-5.459 -4.13,-9.056 1.333,-3.662 5.395,-5.526 9.057,-4.126 l -2.798,-1.068 2.597,1 2.598,0.932 2.663,0.998 2.597,0.935 h 0.066 c 3.662,1.263 5.659,5.326 4.327,8.989 -1.265,3.661 -5.26,5.591 -8.922,4.324 l -0.132,-0.065 -2.729,-0.931 -2.663,-1.001 2.663,1.001 -2.663,-1.001 z m 40.547,12.515 c -3.729,-0.996 -5.926,-4.926 -4.86,-8.654 0.999,-3.728 4.86,-5.927 8.655,-4.926 l 0.867,0.267 2.796,0.732 2.796,0.798 2.864,0.733 2.796,0.731 1.332,0.333 c 3.795,0.932 6.059,4.795 5.126,8.59 -0.999,3.727 -4.794,6.059 -8.589,5.062 l -1.397,-0.335 -2.863,-0.732 -2.93,-0.8 -2.863,-0.732 -2.862,-0.799 z m 55.463,12.985 c -3.795,-0.733 -6.325,-4.393 -5.593,-8.256 0.732,-3.795 4.395,-6.326 8.19,-5.592 l 1.464,0.265 2.93,0.533 2.997,0.533 2.996,0.534 2.997,0.531 0.333,0.066 c 3.862,0.666 6.459,4.26 5.793,8.123 -0.6,3.862 -4.262,6.394 -8.058,5.792 l -0.465,-0.067 -3.064,-0.531 -2.996,-0.533 -3.063,-0.598 -3.062,-0.534 z m 56.261,8.523 c -3.861,-0.467 -6.658,-3.93 -6.192,-7.789 0.4,-3.863 3.862,-6.659 7.724,-6.26 l 0.999,0.133 3.13,0.333 3.129,0.331 3.129,0.336 3.129,0.266 0.399,0.066 c 3.862,0.333 6.726,3.794 6.393,7.658 -0.4,3.858 -3.795,6.723 -7.656,6.39 l -0.467,-0.067 -3.195,-0.332 -3.197,-0.332 -3.13,-0.333 -3.195,-0.333 z m 56.728,4.327 c -3.929,-0.2 -6.925,-3.46 -6.792,-7.321 0.133,-3.93 3.396,-6.926 7.324,-6.791 l 2.462,0.065 3.197,0.133 3.262,0.132 3.263,0.068 1.796,0.065 c 3.862,0.066 6.925,3.262 6.859,7.191 -0.066,3.86 -3.263,6.991 -7.191,6.859 h -1.863 l -3.263,-0.134 -3.33,-0.065 -3.262,-0.134 z m 56.859,0.335 c -3.927,0.065 -7.189,-2.934 -7.322,-6.858 -0.067,-3.864 2.995,-7.126 6.857,-7.26 l 2.331,-0.065 3.329,-0.133 3.328,-0.066 3.33,-0.134 1.664,-0.131 c 3.862,-0.134 7.191,2.86 7.392,6.722 0.132,3.93 -2.864,7.191 -6.725,7.39 l -1.733,0.067 -3.395,0.133 -3.396,0.137 -3.329,0.131 z m 56.661,-3.531 c -3.861,0.399 -7.322,-2.465 -7.657,-6.324 -0.398,-3.861 2.463,-7.324 6.327,-7.655 l 0.265,-0.067 3.396,-0.336 3.331,-0.331 3.395,-0.333 3.328,-0.4 h 0.2 c 3.861,-0.465 7.326,2.332 7.79,6.191 0.466,3.863 -2.33,7.391 -6.192,7.792 l -0.265,0.067 -3.396,0.332 -3.398,0.398 -3.394,0.333 -3.462,0.333 z m 56.394,-7.191 c -3.86,0.602 -7.456,-1.995 -8.122,-5.857 -0.598,-3.796 1.998,-7.459 5.859,-8.057 l 1.2,-0.198 3.194,-0.535 3.262,-0.601 3.264,-0.529 2.862,-0.533 c 3.795,-0.667 7.458,1.865 8.19,5.659 0.666,3.863 -1.867,7.523 -5.727,8.189 l -2.862,0.535 -3.33,0.599 -3.262,0.53 -3.329,0.6 z m 55.731,-11.118 c -3.731,0.932 -7.524,-1.399 -8.458,-5.192 -0.866,-3.796 1.466,-7.589 5.26,-8.524 l 0.6,-0.132 3.13,-0.732 3.063,-0.733 3.128,-0.8 3.065,-0.731 0.532,-0.135 c 3.793,-0.996 7.657,1.265 8.587,5.06 1.001,3.732 -1.262,7.59 -5.059,8.592 l -0.6,0.133 -3.128,0.798 -3.13,0.731 -3.196,0.802 -3.129,0.732 z m 54.929,-14.982 c -3.729,1.199 -7.723,-0.867 -8.855,-4.594 -1.198,-3.729 0.863,-7.655 4.594,-8.855 l 1.465,-0.465 2.997,-0.932 2.928,-0.934 2.93,-0.931 2.93,-0.999 v 0 c 3.731,-1.265 7.724,0.733 8.923,4.393 1.263,3.73 -0.732,7.726 -4.395,8.922 l -0.064,0.067 -2.998,0.997 -2.995,0.934 -2.997,1 -2.996,0.932 z m 53.596,-19.043 c -3.662,1.468 -7.724,-0.33 -9.185,-3.926 -1.468,-3.596 0.331,-7.725 3.926,-9.19 l 0.533,-0.198 2.796,-1.134 2.731,-1.131 2.796,-1.134 2.73,-1.132 1.265,-0.529 c 3.596,-1.533 7.722,0.132 9.254,3.659 1.533,3.597 -0.133,7.724 -3.66,9.256 l -1.399,0.598 -2.798,1.2 -2.795,1.132 -2.862,1.132 -2.8,1.197 z m 51.935,-23.368 c -3.462,1.729 -7.724,0.333 -9.456,-3.128 -1.797,-3.465 -0.399,-7.727 3.131,-9.455 l 0.466,-0.267 2.53,-1.267 2.529,-1.33 2.53,-1.267 2.53,-1.329 1.732,-0.935 c 3.461,-1.863 7.724,-0.529 9.586,2.863 1.799,3.464 0.534,7.724 -2.929,9.59 l -1.799,0.933 -2.596,1.331 -2.597,1.398 -2.598,1.331 -2.597,1.265 z m 49.67,-27.967 c -3.264,2.066 -7.592,1.135 -9.721,-2.194 -2.066,-3.264 -1.064,-7.657 2.263,-9.721 l 0.732,-0.466 2.331,-1.465 2.264,-1.467 2.264,-1.464 2.265,-1.465 1.798,-1.196 c 3.262,-2.132 7.656,-1.267 9.787,1.928 2.132,3.264 1.265,7.658 -1.998,9.788 l -1.798,1.266 -2.331,1.467 -2.329,1.529 -2.397,1.532 -2.33,1.463 z m 46.739,-32.823 c -3.063,2.398 -7.456,1.865 -9.92,-1.131 -2.396,-3.062 -1.932,-7.524 1.131,-9.92 l 0.935,-0.732 2.063,-1.6 1.996,-1.664 1.998,-1.597 1.931,-1.664 1.865,-1.533 c 2.996,-2.531 7.457,-2.132 9.921,0.867 2.53,2.995 2.132,7.39 -0.867,9.92 l -1.862,1.597 -2.064,1.665 -2.065,1.733 -2.063,1.661 -2.065,1.665 z m 42.612,-38.282 c -2.731,2.795 -7.19,2.862 -9.987,0.199 -2.797,-2.729 -2.863,-7.192 -0.133,-9.988 l 0.666,-0.664 1.73,-1.799 1.665,-1.732 1.664,-1.795 1.599,-1.733 1.664,-1.798 0.467,-0.53 c 2.597,-2.932 7.057,-3.131 9.986,-0.533 2.863,2.597 3.13,7.058 0.532,9.921 l -0.598,0.664 -1.665,1.866 -1.733,1.796 -1.729,1.798 -1.732,1.864 -1.732,1.799 z m 36.888,-44.013 c -2.199,3.196 -6.594,3.995 -9.789,1.732 -3.195,-2.197 -3.996,-6.592 -1.732,-9.788 l 1.268,-1.864 1.33,-1.865 1.267,-1.862 1.263,-1.866 1.266,-1.931 1.198,-1.865 0.066,-0.133 c 2.131,-3.328 6.46,-4.26 9.788,-2.196 3.265,2.063 4.262,6.458 2.13,9.72 l -0.131,0.267 -1.265,1.928 -1.334,1.998 -1.331,1.933 -1.332,1.998 -1.333,1.929 z m 28.76,-49.868 c -1.598,3.527 -5.725,5.126 -9.253,3.527 -3.597,-1.596 -5.194,-5.792 -3.597,-9.319 l 0.134,-0.269 0.867,-1.928 0.863,-1.998 0.865,-1.932 0.8,-1.996 0.8,-1.997 0.798,-1.998 0.198,-0.465 c 1.333,-3.664 5.397,-5.527 9.058,-4.129 3.66,1.397 5.458,5.462 4.129,9.122 l -0.267,0.6 -0.867,2.131 -0.798,2.065 -0.865,2.063 -0.867,2.129 -0.931,2.064 -0.934,2.065 z m 17.714,-55.129 c -0.734,3.794 -4.461,6.326 -8.258,5.592 -3.861,-0.731 -6.325,-4.46 -5.591,-8.256 v -0.265 l 0.398,-1.998 0.332,-2.065 0.397,-1.995 0.269,-2.065 0.333,-2.064 0.266,-1.998 0.134,-0.999 c 0.467,-3.862 3.995,-6.592 7.856,-6.126 3.863,0.466 6.593,3.994 6.124,7.856 l -0.133,1.065 -0.334,2.197 -0.265,2.197 -0.399,2.133 -0.333,2.195 -0.398,2.197 -0.398,2.131 z m 3.526,-57.992 c 0.268,3.86 -2.595,7.257 -6.523,7.587 -3.86,0.268 -7.259,-2.596 -7.525,-6.524 l -0.133,-1.596 -0.132,-2.064 -0.2,-2.064 -0.2,-2.063 -0.267,-2.065 -0.266,-2.063 -0.199,-1.665 c -0.533,-3.862 2.131,-7.391 5.992,-7.923 3.861,-0.533 7.456,2.13 7.988,5.992 l 0.199,1.797 0.27,2.198 0.265,2.198 0.2,2.195 0.199,2.264 0.198,2.198 z m -11.584,-56.861 c 1.265,3.662 -0.667,7.723 -4.326,8.987 -3.665,1.266 -7.661,-0.665 -8.99,-4.328 l -0.265,-0.864 -0.667,-1.931 -0.733,-1.93 -0.731,-1.931 -0.732,-1.933 -0.735,-1.93 -0.797,-1.931 -0.134,-0.332 c -1.53,-3.596 0.134,-7.724 3.731,-9.255 3.593,-1.465 7.723,0.2 9.252,3.795 l 0.199,0.399 0.802,2.064 0.797,2.064 0.799,2.064 0.801,2.065 0.731,2.063 0.731,2.065 z m -25.301,-52.067 c 2.131,3.262 1.197,7.657 -2.132,9.722 -3.263,2.13 -7.591,1.13 -9.722,-2.131 l -0.33,-0.465 -1.133,-1.798 -1.198,-1.798 -1.198,-1.798 -1.199,-1.797 -1.265,-1.731 -1.199,-1.797 -0.134,-0.133 c -2.264,-3.129 -1.596,-7.524 1.532,-9.854 3.195,-2.264 7.591,-1.597 9.854,1.598 l 0.199,0.199 1.263,1.865 1.335,1.863 1.264,1.866 1.267,1.864 1.265,1.931 1.197,1.865 z"
   id="path98" />
	<g
   id="g104">
		<polygon
   style="clip-rule:evenodd;fill:#fefefe;fill-rule:evenodd"
   points="196.214,649.639 316.926,683.33 251.943,743.852 186.894,804.373 131.165,710.093 75.436,615.88 "
   id="polygon100" />
		<polygon
   style="clip-rule:evenodd;fill:#d0d2d4;fill-rule:evenodd"
   points="169.583,674.34 263.728,732.866 256.936,768.087 240.093,754.902 157.796,685.391 75.436,615.88 "
   id="polygon102" />
	</g>
	<g
   id="g158">
		<g
   id="g120">
			<path
   style="clip-rule:evenodd;fill:#ffffff;fill-rule:evenodd"
   d="M 166.585,158.667 H 661.55 c 6.857,0 12.453,5.66 12.453,12.518 v 281.64 c 0,6.857 -5.596,12.451 -12.453,12.451 H 166.585 c -6.857,0 -12.451,-5.594 -12.451,-12.451 v -281.64 c 0,-6.858 5.595,-12.518 12.451,-12.518 z"
   id="path106" />
			<g
   id="g118">
				<path
   style="clip-rule:evenodd;fill:#353f49;fill-rule:evenodd"
   d="m 165.054,158.667 h 498.028 c 5.993,0 10.922,4.927 10.922,10.986 v 33.69 c 0,0.533 -0.4,0.932 -0.867,0.932 H 154.134 v -34.622 c 0,-6.059 4.928,-10.986 10.92,-10.986 z"
   id="path108" />
				<path
   style="clip-rule:evenodd;fill:#f77b55;fill-rule:evenodd"
   d="m 179.835,190.96 c 5.26,0 9.521,-4.461 9.521,-9.987 0,-5.526 -4.262,-9.987 -9.521,-9.987 -5.259,0 -9.588,4.461 -9.588,9.987 10e-4,5.526 4.329,9.987 9.588,9.987 z"
   id="path110" />
				<path
   style="clip-rule:evenodd;fill:#76d0de;fill-rule:evenodd"
   d="m 206.535,190.96 c 5.26,0 9.52,-4.461 9.52,-9.987 0,-5.526 -4.261,-9.987 -9.52,-9.987 -5.261,0 -9.588,4.461 -9.588,9.987 0,5.526 4.327,9.987 9.588,9.987 z"
   id="path112" />
				<path
   style="clip-rule:evenodd;fill:#ffdb79;fill-rule:evenodd"
   d="m 233.167,190.96 c 5.259,0 9.587,-4.461 9.587,-9.987 0,-5.526 -4.328,-9.987 -9.587,-9.987 -5.26,0 -9.521,4.461 -9.521,9.987 0,5.526 4.261,9.987 9.521,9.987 z"
   id="path114" />
				<rect
   x="257.203"
   y="172.582"
   style="clip-rule:evenodd;fill:#ffffff;fill-rule:evenodd"
   width="402.01901"
   height="18.910999"
   id="rect116" />
			</g>
		</g>
		<g
   id="g126">
			<path
   style="fill:#bae4e9"
   d="m 587.247,224.849 c 16.913,0 32.226,6.858 43.277,17.911 11.12,11.119 17.979,26.367 17.979,43.279 0,16.91 -6.859,32.225 -17.979,43.276 -11.051,11.053 -26.364,17.911 -43.277,17.911 -16.845,0 -32.158,-6.858 -43.211,-17.911 -11.12,-11.051 -17.978,-26.366 -17.978,-43.276 0,-16.913 6.858,-32.16 17.978,-43.279 11.052,-11.054 26.366,-17.911 43.211,-17.911 z"
   id="path122" />
			<path
   style="fill:#f77b55"
   d="m 557.019,224.849 c 16.911,0 32.224,6.858 43.277,17.911 11.054,11.119 17.91,26.367 17.91,43.279 0,16.91 -6.856,32.225 -17.91,43.276 -11.053,11.053 -26.367,17.911 -43.277,17.911 -16.913,0 -32.158,-6.858 -43.278,-17.911 -11.052,-11.051 -17.91,-26.366 -17.91,-43.276 0,-16.913 6.858,-32.16 17.91,-43.279 11.12,-11.054 26.365,-17.911 43.278,-17.911 z m 13.449,4.993 v 19.376 h 19.975 v -10.32 c -5.926,-4.195 -12.717,-7.324 -19.975,-9.056 z m 23.369,11.653 v 7.724 h 7.726 c -1.132,-1.399 -2.397,-2.73 -3.664,-4.062 -1.265,-1.265 -2.663,-2.464 -4.062,-3.662 z m 10.322,11.118 h -10.322 v 20.041 h 19.441 c -1.729,-7.324 -4.86,-14.114 -9.119,-20.041 z m 9.788,23.438 h -20.11 v 20.041 h 20.11 c 0.598,-3.263 0.864,-6.659 0.864,-10.053 0,-3.397 -0.266,-6.726 -0.864,-9.988 z m -0.669,23.435 h -19.441 v 19.976 h 10.322 c 4.259,-5.926 7.39,-12.718 9.119,-19.976 z m -11.715,23.371 h -7.726 v 7.724 c 1.399,-1.132 2.797,-2.397 4.062,-3.663 1.266,-1.263 2.531,-2.663 3.664,-4.061 z m -11.121,10.321 v -10.321 h -19.975 v 19.441 c 7.259,-1.73 14.05,-4.86 19.975,-9.12 z m -23.369,9.786 v -20.107 h -20.042 v 20.107 c 3.263,0.6 6.592,0.866 9.988,0.866 3.395,0 6.791,-0.266 10.054,-0.866 z m -23.437,-0.666 v -19.441 h -20.041 v 10.321 c 5.926,4.26 12.717,7.39 20.041,9.12 z m -23.437,-11.717 v -7.724 h -7.723 c 1.199,1.398 2.398,2.798 3.662,4.062 1.332,1.265 2.663,2.53 4.061,3.662 z M 509.88,319.462 h 10.319 v -19.976 h -19.376 c 1.733,7.258 4.861,14.05 9.057,19.976 z m -9.788,-23.37 h 20.107 v -20.041 h -20.107 c -0.533,3.262 -0.867,6.591 -0.867,9.988 10e-4,3.394 0.334,6.79 0.867,10.053 z m 0.732,-23.437 H 520.2 v -20.041 h -10.32 c -4.196,5.926 -7.324,12.716 -9.056,20.041 z m 11.652,-23.436 h 7.723 v -7.724 c -1.398,1.198 -2.729,2.397 -4.062,3.663 -1.263,1.33 -2.462,2.662 -3.661,4.061 z m 11.119,-10.321 v 10.32 h 20.041 v -19.376 c -7.324,1.732 -14.115,4.861 -20.041,9.056 z m 23.436,-9.787 v 20.108 h 20.042 v -20.108 c -3.263,-0.533 -6.659,-0.866 -10.054,-0.866 -3.396,0 -6.725,0.333 -9.988,0.866 z m -23.436,23.502 v 20.041 h 20.041 v -20.041 z m 0,23.438 v 20.041 h 20.041 v -20.041 z m 0,23.435 v 19.976 h 20.041 v -19.976 z m 23.436,19.976 h 20.042 v -19.976 h -20.042 z m 23.437,0 h 19.975 v -19.976 h -19.975 z m 19.974,-66.849 h -19.975 v 20.041 h 19.975 z m -23.369,0 h -20.042 v 20.041 h 20.042 z m 23.369,23.438 h -19.975 v 20.041 h 19.975 z m -23.369,0 h -20.042 v 20.041 h 20.042 z"
   id="path124" />
		</g>
		<g
   id="g142">
			<rect
   x="194.151"
   y="368.73099"
   style="clip-rule:evenodd;fill:#808184;fill-rule:evenodd"
   width="268.38901"
   height="7.789"
   id="rect128" />
			<rect
   x="365.198"
   y="390.17001"
   style="clip-rule:evenodd;fill:#808184;fill-rule:evenodd"
   width="97.342003"
   height="7.8569999"
   id="rect130" />
			<rect
   x="361.07001"
   y="411.677"
   style="clip-rule:evenodd;fill:#808184;fill-rule:evenodd"
   width="101.47"
   height="7.79"
   id="rect132" />
			<rect
   x="194.151"
   y="433.116"
   style="clip-rule:evenodd;fill:#808184;fill-rule:evenodd"
   width="268.38901"
   height="7.8559999"
   id="rect134" />
			<rect
   x="194.151"
   y="390.17001"
   style="clip-rule:evenodd;fill:#808184;fill-rule:evenodd"
   width="151.073"
   height="7.8569999"
   id="rect136" />
			<rect
   x="194.151"
   y="411.677"
   style="clip-rule:evenodd;fill:#808184;fill-rule:evenodd"
   width="50.667999"
   height="7.79"
   id="rect138" />
			<rect
   x="267.19"
   y="411.677"
   style="clip-rule:evenodd;fill:#808184;fill-rule:evenodd"
   width="71.177002"
   height="7.79"
   id="rect140" />
		</g>
		<g
   id="g150">
			<rect
   x="487.509"
   y="368.39899"
   style="clip-rule:evenodd;fill:#08c6a2;fill-rule:evenodd"
   width="348.42001"
   height="72.507004"
   id="rect144" />
			<path
   style="clip-rule:evenodd;fill:#fefefe;fill-rule:evenodd"
   d="m 793.915,384.511 c -7.591,3.796 -10.585,13.05 -6.726,20.641 3.397,6.725 11.055,9.854 18.043,7.79 l 7.66,15.114 5.059,-2.531 -7.723,-15.181 c 5.791,-4.395 7.723,-12.384 4.326,-19.109 -3.859,-7.589 -13.115,-10.586 -20.639,-6.724 z m 2.463,4.862 c -4.859,2.462 -6.791,8.456 -4.326,13.249 2.528,4.86 8.456,6.792 13.317,4.328 4.79,-2.464 6.789,-8.389 4.258,-13.25 -2.463,-4.861 -8.388,-6.791 -13.249,-4.327 z"
   id="path146" />
			<path
   style="clip-rule:evenodd;fill:#fefefe;fill-rule:evenodd"
   d="m 543.636,422.597 c 0.2,0.798 0.932,1.331 1.732,1.331 0.8,0 1.532,-0.534 1.731,-1.331 l 9.255,-32.293 c 0.065,-0.201 0.132,-0.466 0.132,-0.667 0,-0.999 -0.8,-1.796 -1.796,-1.796 -1,0 -1.6,0.732 -1.733,1.332 l -7.657,27.031 -7.457,-27.031 c -0.199,-0.799 -0.933,-1.332 -1.731,-1.332 -0.799,0 -1.531,0.532 -1.731,1.332 l -7.457,27.031 -7.657,-27.031 c -0.133,-0.6 -0.732,-1.332 -1.73,-1.332 -0.999,0 -1.798,0.797 -1.798,1.796 0,0.2 0.066,0.466 0.132,0.667 l 9.255,32.293 c 0.2,0.798 0.931,1.331 1.731,1.331 0.866,0 1.531,-0.534 1.732,-1.331 l 7.523,-26.634 z M 571.2,399.025 c -3.395,0 -5.926,1.665 -6.924,3.664 v -14.781 c 0,-0.933 -0.731,-1.666 -1.665,-1.666 -0.932,0 -1.664,0.732 -1.664,1.666 v 34.354 c 0,0.933 0.732,1.666 1.664,1.666 0.934,0 1.665,-0.733 1.665,-1.666 v -12.915 c 0,-4.196 1.798,-7.325 6.924,-7.325 5.128,0 6.326,2.795 6.326,6.923 v 13.316 c 0,0.933 0.731,1.666 1.664,1.666 0.933,0 1.666,-0.733 1.666,-1.666 V 408.28 c -10e-4,-4.461 -1.599,-9.255 -9.656,-9.255 z m 24.702,3.13 c 3.794,0 6.126,2.197 6.126,5.793 v 1.399 h -7.324 c -5.66,0 -9.189,2.729 -9.189,7.39 0,4.794 3.528,7.457 9.056,7.457 3.129,0 6.191,-1.332 7.456,-3.795 v 1.93 c 0,0.866 0.732,1.599 1.662,1.599 0.867,0 1.601,-0.733 1.601,-1.599 v -14.381 c 0,-5.394 -3.328,-8.923 -9.389,-8.923 -4.392,0 -7.256,1.798 -8.722,4.129 -0.132,0.266 -0.267,0.532 -0.267,0.866 0,0.864 0.667,1.531 1.533,1.531 0.465,0 0.865,-0.133 1.332,-0.733 1.665,-1.796 3.329,-2.663 6.125,-2.663 z m -0.999,18.976 c -4.127,0 -5.993,-1.731 -5.993,-4.394 0,-3.064 2.332,-4.462 5.794,-4.462 h 7.324 v 2.198 c 0,4.461 -3.463,6.658 -7.125,6.658 z m 17.977,-21.373 h -2.063 c -0.866,0 -1.531,0.667 -1.531,1.532 0,0.932 0.665,1.598 1.531,1.598 h 2.063 v 14.447 c 0,3.796 2.265,6.593 6.393,6.593 0.863,0 1.596,-0.667 1.596,-1.599 0,-0.865 -0.732,-1.531 -1.596,-1.531 -1.799,0 -3.063,-1.198 -3.063,-3.463 v -14.447 h 3.396 c 0.931,0 1.597,-0.665 1.597,-1.598 0,-0.865 -0.666,-1.532 -1.597,-1.532 h -3.396 v -5.525 c 0,-0.867 -0.734,-1.666 -1.666,-1.666 -0.865,0 -1.665,0.799 -1.665,1.666 v 5.525 z m 29.03,1.265 c 0,-0.933 -0.731,-1.664 -1.666,-1.664 -0.932,0 -1.664,0.731 -1.664,1.664 v 21.239 c 0,0.933 0.732,1.666 1.664,1.666 0.935,0 1.666,-0.733 1.666,-1.666 z m -1.666,-6.591 c 1.268,0 1.998,-0.733 1.998,-1.997 0,-1.531 -0.731,-2.13 -1.998,-2.13 -1.263,0 -1.996,0.599 -1.996,2.13 0,1.264 0.733,1.997 1.996,1.997 z m 15.914,7.856 c 2.73,0 4.26,0.8 5.727,2.198 0.4,0.399 0.798,0.466 1.064,0.466 0.867,0 1.532,-0.731 1.532,-1.531 0,-0.466 -0.198,-0.799 -0.398,-0.999 -1.599,-2.13 -4.396,-3.329 -7.925,-3.329 -4.46,0 -7.989,1.997 -7.989,6.325 0,8.589 13.716,6.391 13.716,11.784 0,2.729 -2.53,3.729 -5.524,3.729 -2.934,0 -4.995,-0.932 -6.66,-2.53 -0.399,-0.466 -0.798,-0.531 -1.133,-0.531 -0.864,0 -1.529,0.665 -1.529,1.53 0,0.332 0.132,0.599 0.398,0.999 1.331,1.664 4.661,3.729 8.924,3.729 4.992,0 8.919,-2.131 8.919,-6.925 0,-8.323 -13.781,-6.325 -13.781,-11.784 -10e-4,-2.397 2.33,-3.131 4.659,-3.131 z m 27.965,21.64 c 1.53,0 2.462,-0.733 2.462,-2.464 0,-1.732 -0.932,-2.53 -2.462,-2.53 -1.466,0 -2.397,0.798 -2.397,2.53 0,1.731 0.931,2.464 2.397,2.464 z m 14.181,0 c 1.532,0 2.465,-0.733 2.465,-2.464 0,-1.732 -0.933,-2.53 -2.465,-2.53 -1.465,0 -2.396,0.798 -2.396,2.53 0,1.731 0.931,2.464 2.396,2.464 z m 14.249,0 c 1.531,0 2.463,-0.733 2.463,-2.464 0,-1.732 -0.932,-2.53 -2.463,-2.53 -1.53,0 -2.465,0.798 -2.465,2.53 0,1.731 0.934,2.464 2.465,2.464 z"
   id="path148" />
		</g>
		<g
   id="g156">
			<rect
   x="194.151"
   y="227.379"
   style="clip-rule:evenodd;fill:#fbbe61;fill-rule:evenodd"
   width="268.38901"
   height="122.111"
   id="rect152" />
			<path
   style="clip-rule:evenodd;fill:#fefefe;fill-rule:evenodd"
   d="m 302.945,278.714 4.86,26.832 h 7.457 l 6.925,-39.481 h -4.926 l -5.727,33.622 -5.593,-33.557 h -5.592 l -5.593,33.557 -5.991,-33.622 h -5.461 l 6.925,39.481 h 7.723 z m 23.768,-12.649 v 39.481 h 5.66 v -39.481 z m 30.961,39.48 h 5.793 L 350.217,284.04 363,266.065 h -5.725 l -13.45,19.041 v -19.041 h -5.66 v 39.481 h 5.66 v -13.25 l 2.929,-3.927 z m 10.121,-39.48 v 39.481 h 5.659 v -39.481 z"
   id="path154" />
		</g>
	</g>
</g>
<g
   id="DESIGNED_BY_FREEPIK"
   transform="matrix(2.3531058,0,0,2.2552075,429.36071,-124.53828)">
	<g
   id="g4343">
		<g
   id="XMLID_319_">
			<g
   id="XMLID_338_">
				<path
   id="XMLID_346_"
   style="fill:#1d262c"
   d="m 260.104,465.465 c -0.432,0.443 -0.803,0.931 -1.108,1.453 l -0.465,-0.241 c -0.067,-0.298 -0.349,-0.503 -0.659,-0.466 -0.331,0.039 -0.568,0.339 -0.529,0.67 0.039,0.331 0.339,0.568 0.67,0.529 0.066,-0.008 0.127,-0.026 0.184,-0.052 l 0.451,0.234 c -0.251,0.554 -0.433,1.139 -0.539,1.744 l 0.747,0.132 c 0.23,-1.306 0.85,-2.507 1.792,-3.473 z" />
				<path
   id="XMLID_345_"
   style="fill:#1d262c"
   d="m 265.592,463.163 c -0.171,0 -0.341,0.006 -0.51,0.017 l -0.074,-0.626 c 0.188,-0.149 0.296,-0.389 0.266,-0.645 -0.046,-0.393 -0.402,-0.674 -0.795,-0.628 -0.393,0.046 -0.674,0.402 -0.628,0.795 0.03,0.254 0.189,0.461 0.404,0.564 l 0.074,0.624 c -0.714,0.116 -1.403,0.332 -2.06,0.646 l 0.327,0.684 c 0.934,-0.447 1.942,-0.673 2.995,-0.673 0.496,0 0.993,0.053 1.475,0.158 l 0.161,-0.741 c -0.535,-0.116 -1.085,-0.175 -1.635,-0.175 z" />
				<path
   id="XMLID_344_"
   style="fill:#1d262c"
   d="m 272.194,465.711 c 0.331,-0.04 0.566,-0.341 0.526,-0.672 -0.04,-0.331 -0.341,-0.566 -0.672,-0.526 -0.309,0.038 -0.535,0.304 -0.53,0.609 l -0.416,0.363 c -0.418,-0.43 -0.889,-0.813 -1.408,-1.139 l -0.404,0.641 c 1.134,0.715 2.021,1.726 2.563,2.925 l 0.69,-0.313 c -0.251,-0.554 -0.567,-1.072 -0.942,-1.545 l 0.402,-0.351 c 0.062,0.013 0.126,0.016 0.191,0.008 z" />
				<path
   id="XMLID_343_"
   style="fill:#1d262c"
   d="m 265.044,473.372 c -0.386,0.023 -0.775,0.035 -1.157,0.035 -0.88,0 -1.733,-0.061 -2.478,-0.179 -0.39,-0.062 -0.846,-0.155 -1.27,-0.292 1.046,1.861 3.069,3.125 5.388,3.125 2.855,0 5.262,-1.916 5.95,-4.504 -0.682,0.449 -1.505,0.825 -2.459,1.123 -1.179,0.367 -2.555,0.606 -3.974,0.692 z" />
				<path
   id="XMLID_339_"
   style="fill:#1d262c"
   d="m 265.592,464.68 c -3.352,0 -6.08,2.666 -6.08,5.943 0,0.426 0.046,0.849 0.137,1.261 0.673,0.483 2.706,0.89 5.348,0.731 2.879,-0.173 5.297,-0.957 6.672,-2.159 -0.006,-0.195 -0.021,-0.39 -0.045,-0.582 -0.38,-2.961 -2.974,-5.194 -6.032,-5.194 z m -2.16,6.514 c -1.02,0 -1.85,-0.83 -1.85,-1.85 0,-1.02 0.83,-1.85 1.85,-1.85 1.02,0 1.85,0.83 1.85,1.85 0,1.021 -0.83,1.85 -1.85,1.85 z m 4.738,-0.908 c -0.75,0 -1.36,-0.61 -1.36,-1.36 0,-0.75 0.61,-1.361 1.36,-1.361 0.75,0 1.361,0.61 1.361,1.361 0,0.751 -0.611,1.36 -1.361,1.36 z" />
			</g>
			<path
   id="XMLID_336_"
   style="fill:#1d262c"
   d="m 281.595,466.547 c -0.295,-0.116 -0.805,-0.309 -1.382,-0.237 -0.551,0.069 -0.844,0.341 -0.844,1.007 v 0.866 h 2.228 v 1.717 h -2.228 v 5.455 h -1.932 V 469.9 h -1.34 v -1.717 h 1.34 v -0.888 c 0,-1.68 0.896,-2.783 2.568,-2.783 0.643,0 1.157,0.122 1.59,0.308 z" />
			<path
   id="XMLID_334_"
   style="fill:#1d262c"
   d="m 286.298,469.879 c -0.177,-0.03 -0.358,-0.046 -0.526,-0.046 -0.896,0 -1.51,0.548 -1.51,1.614 v 3.908 h -1.932 v -7.172 h 1.873 v 0.785 c 0.451,-0.673 1.14,-0.977 2.021,-0.977 0.414,0 0.848,0.128 1.094,0.337 z" />
			<path
   id="XMLID_331_"
   style="fill:#1d262c"
   d="m 293.965,471.757 c 0,0.222 -0.015,0.489 -0.037,0.651 h -5.085 c 0.207,1.036 0.933,1.488 1.843,1.488 0.622,0 1.295,-0.252 1.813,-0.688 l 1.133,1.243 c -0.814,0.748 -1.85,1.088 -3.057,1.088 -2.198,0 -3.723,-1.495 -3.723,-3.753 0,-2.258 1.48,-3.797 3.627,-3.797 2.065,0.001 3.479,1.533 3.486,3.768 z m -5.114,-0.666 h 3.175 c -0.177,-0.918 -0.733,-1.436 -1.562,-1.436 -0.91,0 -1.443,0.548 -1.613,1.436 z" />
			<path
   id="XMLID_328_"
   style="fill:#1d262c"
   d="m 301.618,471.757 c 0,0.222 -0.015,0.489 -0.037,0.651 h -5.085 c 0.207,1.036 0.933,1.488 1.843,1.488 0.622,0 1.295,-0.252 1.814,-0.688 l 1.132,1.243 c -0.814,0.748 -1.85,1.088 -3.057,1.088 -2.198,0 -3.723,-1.495 -3.723,-3.753 0,-2.258 1.48,-3.797 3.627,-3.797 2.065,0.001 3.479,1.533 3.486,3.768 z m -5.114,-0.666 h 3.175 c -0.178,-0.918 -0.733,-1.436 -1.562,-1.436 -0.91,0 -1.443,0.548 -1.613,1.436 z" />
			<path
   id="XMLID_325_"
   style="fill:#1d262c"
   d="m 309.964,471.764 c 0,2.154 -1.495,3.775 -3.471,3.775 -0.962,0 -1.643,-0.378 -2.109,-0.933 v 3.708 h -1.924 v -10.133 h 1.887 v 0.792 c 0.466,-0.585 1.155,-0.984 2.139,-0.984 1.983,0.001 3.478,1.621 3.478,3.775 z m -5.677,0 c 0,1.132 0.748,1.976 1.843,1.976 1.14,0 1.85,-0.881 1.85,-1.976 0,-1.095 -0.71,-1.976 -1.85,-1.976 -1.095,0 -1.843,0.844 -1.843,1.976 z" />
			<path
   id="XMLID_322_"
   style="fill:#1d262c"
   d="m 313.068,465.836 c 0,0.696 -0.54,1.229 -1.236,1.229 -0.696,0 -1.229,-0.533 -1.229,-1.229 0,-0.696 0.533,-1.243 1.229,-1.243 0.695,-0.001 1.236,0.547 1.236,1.243 z m -0.259,9.518 h -1.932 v -7.172 h 1.932 z" />
			<path
   id="XMLID_320_"
   style="fill:#1d262c"
   d="m 316.032,470.736 2.701,-2.554 h 2.368 l -3.479,3.375 3.501,3.797 h -2.376 l -2.716,-2.901 v 2.901 H 314.1 v -10.658 h 1.932 z" />
		</g>
		<g
   id="g4341">
			<path
   style="fill:#1d262c"
   d="m 184.412,475.289 v -1.055 c -0.527,0.718 -1.391,1.23 -2.387,1.23 -1.846,0 -3.149,-1.406 -3.149,-3.706 0,-2.256 1.289,-3.721 3.149,-3.721 0.952,0 1.816,0.469 2.387,1.245 v -3.765 h 1.099 v 9.77 h -1.099 z m 0,-1.919 v -3.208 c -0.395,-0.615 -1.245,-1.143 -2.124,-1.143 -1.421,0 -2.27,1.172 -2.27,2.739 0,1.567 0.85,2.724 2.27,2.724 0.88,10e-4 1.729,-0.496 2.124,-1.112 z"
   id="path4321" />
			<path
   style="fill:#1d262c"
   d="m 186.932,471.744 c 0,-2.051 1.465,-3.706 3.486,-3.706 2.139,0 3.398,1.67 3.398,3.794 v 0.279 h -5.727 c 0.088,1.333 1.025,2.446 2.549,2.446 0.805,0 1.626,-0.322 2.182,-0.894 l 0.527,0.718 c -0.703,0.703 -1.655,1.084 -2.812,1.084 -2.095,0 -3.603,-1.509 -3.603,-3.721 z m 3.471,-2.797 c -1.509,0 -2.256,1.274 -2.314,2.358 h 4.643 c -0.014,-1.055 -0.717,-2.358 -2.329,-2.358 z"
   id="path4323" />
			<path
   style="fill:#1d262c"
   d="m 194.607,474.351 0.571,-0.791 c 0.469,0.542 1.362,1.011 2.329,1.011 1.084,0 1.67,-0.513 1.67,-1.216 0,-1.714 -4.38,-0.659 -4.38,-3.281 0,-1.098 0.952,-2.036 2.636,-2.036 1.201,0 2.051,0.454 2.622,1.026 l -0.513,0.762 c -0.424,-0.513 -1.201,-0.894 -2.109,-0.894 -0.967,0 -1.567,0.483 -1.567,1.113 0,1.552 4.38,0.527 4.38,3.281 0,1.187 -0.952,2.138 -2.783,2.138 -1.157,10e-4 -2.138,-0.351 -2.856,-1.113 z"
   id="path4325" />
			<path
   style="fill:#1d262c"
   d="m 201.477,466.471 c 0,-0.41 0.337,-0.747 0.732,-0.747 0.41,0 0.747,0.337 0.747,0.747 0,0.41 -0.337,0.732 -0.747,0.732 -0.395,0 -0.732,-0.322 -0.732,-0.732 z m 0.19,8.818 v -7.075 h 1.099 v 7.075 z"
   id="path4327" />
			<path
   style="fill:#1d262c"
   d="m 204.582,477.105 0.556,-0.82 c 0.586,0.703 1.289,0.967 2.3,0.967 1.172,0 2.27,-0.571 2.27,-2.124 v -1.011 c -0.513,0.718 -1.377,1.26 -2.373,1.26 -1.845,0 -3.149,-1.377 -3.149,-3.662 0,-2.27 1.289,-3.677 3.149,-3.677 0.952,0 1.802,0.469 2.373,1.245 v -1.069 h 1.098 v 6.87 c 0,2.344 -1.641,3.076 -3.369,3.076 -1.2,0 -2.02,-0.234 -2.855,-1.055 z m 5.127,-3.852 v -3.091 c -0.381,-0.615 -1.23,-1.143 -2.109,-1.143 -1.421,0 -2.27,1.128 -2.27,2.695 0,1.553 0.849,2.695 2.27,2.695 0.878,0.001 1.728,-0.541 2.109,-1.156 z"
   id="path4329" />
			<path
   style="fill:#1d262c"
   d="m 217.413,475.289 v -4.629 c 0,-1.245 -0.63,-1.641 -1.582,-1.641 -0.865,0 -1.685,0.527 -2.095,1.099 v 5.17 h -1.099 v -7.075 h 1.099 v 1.025 c 0.498,-0.586 1.464,-1.201 2.519,-1.201 1.48,0 2.256,0.747 2.256,2.285 v 4.966 h -1.098 z"
   id="path4331" />
			<path
   style="fill:#1d262c"
   d="m 219.932,471.744 c 0,-2.051 1.465,-3.706 3.486,-3.706 2.139,0 3.398,1.67 3.398,3.794 v 0.279 h -5.727 c 0.088,1.333 1.025,2.446 2.549,2.446 0.806,0 1.626,-0.322 2.183,-0.894 l 0.527,0.718 c -0.703,0.703 -1.655,1.084 -2.812,1.084 -2.095,0 -3.604,-1.509 -3.604,-3.721 z m 3.472,-2.797 c -1.509,0 -2.256,1.274 -2.314,2.358 h 4.643 c -0.015,-1.055 -0.718,-2.358 -2.329,-2.358 z"
   id="path4333" />
			<path
   style="fill:#1d262c"
   d="m 233.35,475.289 v -1.055 c -0.527,0.718 -1.392,1.23 -2.388,1.23 -1.846,0 -3.149,-1.406 -3.149,-3.706 0,-2.256 1.289,-3.721 3.149,-3.721 0.952,0 1.817,0.469 2.388,1.245 v -3.765 h 1.098 v 9.77 h -1.098 z m 0,-1.919 v -3.208 c -0.396,-0.615 -1.245,-1.143 -2.124,-1.143 -1.421,0 -2.27,1.172 -2.27,2.739 0,1.567 0.849,2.724 2.27,2.724 0.879,10e-4 1.728,-0.496 2.124,-1.112 z"
   id="path4335" />
			<path
   style="fill:#1d262c"
   d="m 239.692,475.289 v -9.77 h 1.098 v 3.765 c 0.572,-0.776 1.421,-1.245 2.388,-1.245 1.845,0 3.149,1.465 3.149,3.721 0,2.299 -1.304,3.706 -3.149,3.706 -0.996,0 -1.86,-0.513 -2.388,-1.23 v 1.055 h -1.098 z m 3.208,-0.806 c 1.436,0 2.285,-1.157 2.285,-2.724 0,-1.568 -0.85,-2.739 -2.285,-2.739 -0.864,0 -1.728,0.527 -2.109,1.143 v 3.208 c 0.38,0.615 1.245,1.112 2.109,1.112 z"
   id="path4337" />
			<path
   style="fill:#1d262c"
   d="m 247.528,477.061 c 0.161,0.073 0.425,0.117 0.601,0.117 0.483,0 0.805,-0.161 1.055,-0.747 l 0.469,-1.069 -2.959,-7.148 h 1.187 l 2.358,5.8 2.344,-5.8 h 1.201 l -3.545,8.51 c -0.425,1.025 -1.143,1.421 -2.08,1.435 -0.234,0 -0.601,-0.044 -0.805,-0.103 z"
   id="path4339" />
		</g>
	</g>
</g><g
   id="g797"
   transform="matrix(0.46332075,0,0,0.51559374,952.65096,0.12404598)"><polygon
     style="fill:#3089f3"
     points="512,336.842 155.396,336.842 80.842,480.561 431.158,480.561 "
     id="polygon2" /><polygon
     style="fill:#00a76a"
     points="170.667,31.439 0,318.877 80.842,480.561 245.221,164.379 "
     id="polygon4" /><polygon
     style="fill:#fdd446"
     points="332.351,31.439 170.667,31.439 341.333,336.842 512,336.842 "
     id="polygon6" /></g><text
   xml:space="preserve"
   style="font-weight:bold;font-size:35.3967px;font-family:Montserrat-Bold;-inkscape-font-specification:'Montserrat-Bold Bold';text-align:center;text-anchor:middle;opacity:0.74;fill:#c8b7b7;stroke-width:1.89625"
   x="1153.4464"
   y="261.32898"
   id="text1906"
   transform="scale(0.93948805,1.0644095)"><tspan
     sodipodi:role="line"
     id="tspan1904"
     x="1153.4464"
     y="261.32898"
     style="fill:#000000;stroke-width:1.89625">googledrive</tspan></text></svg>
