<?xml version="1.0" encoding="UTF-8" standalone="no"?>
<!-- Generator: Adobe Illustrator 27.5.0, SVG Export Plug-In . SVG Version: 6.00 Build 0)  -->

<svg
   version="1.1"
   id="Capa_1"
   x="0px"
   y="0px"
   viewBox="0 0 425.2 425.2"
   style="enable-background:new 0 0 425.2 425.2;"
   xml:space="preserve"
   sodipodi:docname="4811620_49658.svg"
   inkscape:version="1.2.2 (b0a8486541, 2022-12-01)"
   xmlns:inkscape="http://www.inkscape.org/namespaces/inkscape"
   xmlns:sodipodi="http://sodipodi.sourceforge.net/DTD/sodipodi-0.dtd"
   xmlns:xlink="http://www.w3.org/1999/xlink"
   xmlns="http://www.w3.org/2000/svg"
   xmlns:svg="http://www.w3.org/2000/svg"><defs
   id="defs4698" /><sodipodi:namedview
   id="namedview4696"
   pagecolor="#ffffff"
   bordercolor="#000000"
   borderopacity="0.25"
   inkscape:showpageshadow="2"
   inkscape:pageopacity="0.0"
   inkscape:pagecheckerboard="0"
   inkscape:deskcolor="#d1d1d1"
   showgrid="false"
   inkscape:zoom="1.1876764"
   inkscape:cx="212.17902"
   inkscape:cy="212.17902"
   inkscape:window-width="1366"
   inkscape:window-height="667"
   inkscape:window-x="0"
   inkscape:window-y="0"
   inkscape:window-maximized="1"
   inkscape:current-layer="Capa_1" />
<rect
   x="0.002"
   y="0.001"
   style="fill:#FFFFFF;"
   width="425.197"
   height="425.197"
   id="rect4469" />
<g
   id="g4655">
	<g
   id="g4501">
		<g
   id="g4499">
			<defs
   id="defs4472">
				<path
   id="SVGID_1_"
   d="M294.541,152.436c0-21.129,17.129-38.258,38.258-38.258c21.131,0,38.26,17.129,38.26,38.258      c0,21.13-17.129,38.259-38.26,38.259C311.67,190.695,294.541,173.566,294.541,152.436z" />
			</defs>
			<use
   xlink:href="#SVGID_1_"
   style="overflow:visible;fill:#F59D16;"
   id="use4474" />
			<clipPath
   id="SVGID_00000090258700747592444470000016924498021373412526_">
				<use
   xlink:href="#SVGID_1_"
   style="overflow:visible;"
   id="use4476" />
			</clipPath>
			<g
   style="clip-path:url(#SVGID_00000090258700747592444470000016924498021373412526_);"
   clip-path="url(#SVGID_00000090258700747592444470000016924498021373412526_)"
   id="g4497">
				<g
   id="g4481">
					
						<path
   style="fill:#352E35;stroke:#352E35;stroke-width:4.6073;stroke-linecap:round;stroke-linejoin:round;stroke-dasharray:0,3.3257;"
   d="       M359.355,154.632c0,16.454-14.19,17.279-27.096,17.279c-12.904,0-26.875-2.964-26.875-18.431       c0-17.113,13.971-31.483,26.875-31.483C345.166,121.998,359.355,135.051,359.355,154.632z"
   id="path4479" />
				</g>
				<path
   style="fill:#7C4A2A;"
   d="M351.469,175.758l-18.381,16.61l-18.381-16.319c0,0,10.307-3.298,10.736-4.494      c0.859-2.4,1.949-6.342,0.732-8.334c-1.824-2.987,15.57-5.22,14.391-0.44c-0.756,3.059,0.445,6.441,1.406,8.479      C342.514,172.407,351.469,175.758,351.469,175.758z"
   id="path4483" />
				<path
   style="fill:#9D5C37;"
   d="M351.018,147.984c-1.453-0.435-2.447,0.613-3.027,1.567c0.117-2.75,0.158-5.109,0.117-5.561      c-1.012-11.385-7.367-13.86-15.115-13.929c-7.746,0.068-14.103,2.544-15.115,13.929c-0.039,0.451,0,2.811,0.119,5.561      c-0.582-0.954-1.576-2.002-3.029-1.567c-2.5,0.747,0.328,8.913,2.01,10.155c0.896,0.659,1.41,0.395,1.701,0.004      c0.055,0.333,0.111,0.623,0.172,0.848c1.848,6.916,8.191,12.486,10.603,13.928c1.092,0.653,2.301,1.051,3.539,1.141      c1.238-0.09,2.447-0.487,3.541-1.141c2.41-1.441,8.754-7.012,10.603-13.928c0.059-0.225,0.119-0.515,0.172-0.848      c0.289,0.391,0.805,0.655,1.699-0.004C350.691,156.897,353.52,148.731,351.018,147.984z"
   id="path4485" />
				<path
   style="fill:#352E35;"
   d="M317.996,149.551c-0.289,2.135,0.855,6.115,0.855,6.115s-0.139-16.83,13.518-16.83      c13.658,0,14.664,17.379,14.664,17.379s0.336-5.506,0.957-6.664c1.123-2.104,3.027-1.567,3.027-1.567s0.174-1.198-0.592-4.998      c-1.551-7.702-7.867-20.124-18.188-16.548c-7.357-2.115-16.238,5.712-17.018,15.16c-0.315,3.803-0.01,6.326-0.01,6.326      S316.67,147.473,317.996,149.551z"
   id="path4487" />
				<path
   style="fill:#B53E60;"
   d="M355.941,177.573c-3.277-1.58-11.893-5.661-11.893-5.661l-10.961,20.457l-10.943-19.542      c0,0-7.85,3.166-11.127,4.746c-3.279,1.58-4.865,4.303-4.07,9.721c0.941,6.43,4.883,29.454,4.883,29.454h21.602h0.094h21.604      c0,0,3.939-23.025,4.883-29.454C360.807,181.876,359.221,179.153,355.941,177.573z"
   id="path4489" />
				<path
   style="fill:#93334D;"
   d="M321.449,182.597c2.963,4.233,11.639,9.771,11.639,9.771l-10.943-19.542l-3.844,1.576      C318.301,174.403,318.488,178.364,321.449,182.597z"
   id="path4491" />
				<path
   style="fill:#93334D;"
   d="M344.727,182.597c-2.963,4.233-11.639,9.771-11.639,9.771l10.961-20.457l4.525,2.147      C348.574,174.059,347.688,178.364,344.727,182.597z"
   id="path4493" />
				<path
   style="fill:#B53E60;"
   d="M332.205,135.329c7.514,0,13.705,5.6,14.666,12.851c0.084-0.642,0.143-1.293,0.143-1.957      c0-8.18-6.629-14.81-14.809-14.81c-8.178,0-14.809,6.63-14.809,14.81c0,0.664,0.059,1.315,0.144,1.957      C318.5,140.928,324.691,135.329,332.205,135.329z"
   id="path4495" />
			</g>
		</g>
	</g>
	<g
   id="g4529">
		<g
   id="g4527">
			<defs
   id="defs4504">
				<path
   id="SVGID_00000013185600428109654600000000266955965412161971_"
   d="M196.236,85.881c0-21.13,17.129-38.259,38.26-38.259      c21.129,0,38.258,17.129,38.258,38.259c0,21.129-17.129,38.258-38.258,38.258C213.365,124.139,196.236,107.01,196.236,85.881z" />
			</defs>
			<use
   xlink:href="#SVGID_00000013185600428109654600000000266955965412161971_"
   style="overflow:visible;fill:#765737;"
   id="use4506" />
			<clipPath
   id="SVGID_00000062189859821022103470000011613729504034562699_">
				<use
   xlink:href="#SVGID_00000013185600428109654600000000266955965412161971_"
   style="overflow:visible;"
   id="use4508" />
			</clipPath>
			<g
   style="clip-path:url(#SVGID_00000062189859821022103470000011613729504034562699_);"
   clip-path="url(#SVGID_00000062189859821022103470000011613729504034562699_)"
   id="g4525">
				<path
   style="fill:#683C11;"
   d="M246.17,118.402c4.77-14.789,5.787-34.589,5.787-40.308c0-9.468-8.111-17.144-18.117-17.144      c-10.006,0-18.117,7.676-18.117,17.144c0,5.719,1.141,25.519,6.008,40.308H246.17z"
   id="path4511" />
				<path
   style="fill:#F0AB80;"
   d="M252.486,101.791l-18.381,16.61l-18.383-16.318c0,0,10.309-3.298,10.736-4.495      c0.859-2.4,1.951-6.341,0.732-8.334c-1.824-2.987,15.572-5.219,14.393-0.438c-0.756,3.059,0.443,6.44,1.406,8.478      C243.531,98.44,252.486,101.791,252.486,101.791z"
   id="path4513" />
				<path
   style="fill:#F9BB8D;"
   d="M252.035,74.018c-1.453-0.435-2.449,0.612-3.027,1.566c0.115-2.75,0.158-5.108,0.117-5.561      c-1.014-11.385-7.367-13.86-15.115-13.928c-7.748,0.067-14.104,2.543-15.115,13.928c-0.039,0.452,0,2.811,0.117,5.561      c-0.58-0.954-1.574-2.001-3.029-1.566c-2.5,0.746,0.33,8.913,2.012,10.154c0.895,0.66,1.41,0.395,1.699,0.004      c0.055,0.334,0.111,0.623,0.174,0.848c1.848,6.916,8.191,12.486,10.602,13.929c1.094,0.653,2.301,1.051,3.541,1.141      c1.238-0.09,2.447-0.487,3.539-1.141c2.412-1.442,8.754-7.013,10.604-13.929c0.063-0.225,0.119-0.514,0.174-0.848      c0.289,0.391,0.805,0.656,1.699-0.004C251.707,82.931,254.535,74.764,252.035,74.018z"
   id="path4515" />
				<path
   style="fill:#683C11;"
   d="M219.012,75.585c-0.289,2.135,0.855,6.115,0.855,6.115s-1.072-4.174,2.016-6.027      c6.697-4.025,11.08-8.554,11.08-8.554s6.43,6.138,11.787,8.474c4.059,1.773,3.301,6.656,3.301,6.656s0.336-5.506,0.957-6.664      c1.121-2.103,3.027-1.566,3.027-1.566s0.172-1.199-0.594-4.999c-1.551-7.702-7.865-20.124-18.186-16.547      c-7.359-2.115-16.238,5.711-17.02,15.159c-0.313,3.803-0.01,6.326-0.01,6.326S217.686,73.506,219.012,75.585z"
   id="path4517" />
				<path
   style="fill:#B53E60;"
   d="M256.959,103.606c-3.279-1.58-11.895-5.66-11.895-5.66l-10.959,20.456L223.16,98.86      c0,0-7.85,3.166-11.127,4.746c-3.277,1.581-4.865,4.303-4.07,9.721c0.943,6.431,4.883,29.455,4.883,29.455h21.604h0.094h21.604      c0,0,3.939-23.024,4.881-29.455C261.822,107.909,260.236,105.187,256.959,103.606z"
   id="path4519" />
				<path
   style="fill:#93334D;"
   d="M222.467,108.631c2.961,4.232,11.639,9.771,11.639,9.771L223.16,98.86l-3.842,1.576      C219.318,100.436,219.506,104.398,222.467,108.631z"
   id="path4521" />
				<path
   style="fill:#93334D;"
   d="M245.742,108.631c-2.961,4.232-11.637,9.771-11.637,9.771l10.959-20.456l4.527,2.147      C249.592,100.093,248.705,104.398,245.742,108.631z"
   id="path4523" />
			</g>
		</g>
	</g>
	<g
   id="g4557">
		<g
   id="g4555">
			<defs
   id="defs4532">
				<path
   id="SVGID_00000038408436408960024190000011022140407962184088_"
   d="M28.115,293.196c0-21.13,17.129-38.259,38.26-38.259      c21.129,0,38.258,17.129,38.258,38.259s-17.129,38.259-38.258,38.259C45.244,331.455,28.115,314.326,28.115,293.196z" />
			</defs>
			<use
   xlink:href="#SVGID_00000038408436408960024190000011022140407962184088_"
   style="overflow:visible;fill:#E84341;"
   id="use4534" />
			<clipPath
   id="SVGID_00000072244148573312410630000009601467351446369711_">
				<use
   xlink:href="#SVGID_00000038408436408960024190000011022140407962184088_"
   style="overflow:visible;"
   id="use4536" />
			</clipPath>
			<g
   style="clip-path:url(#SVGID_00000072244148573312410630000009601467351446369711_);"
   clip-path="url(#SVGID_00000072244148573312410630000009601467351446369711_)"
   id="g4553">
				<path
   style="fill:#72BCC6;"
   d="M88.838,312.054c-3.279-1.58-12.209-4.506-12.209-4.506l-10.207-0.339v-0.003l-0.047,0.002      l-0.047-0.002v0.003l-10.207,0.339c0,0-8.932,2.926-12.209,4.506c-3.277,1.581-4.863,4.305-4.07,9.721      c0.943,6.431,4.883,29.454,4.883,29.454h21.604h0.094h21.602c0,0,3.941-23.023,4.885-29.454      C93.701,316.359,92.115,313.635,88.838,312.054z"
   id="path4539" />
				<path
   style="fill:#231D22;"
   d="M83.836,286.543c0,9.468-11.873,20.682-17.949,20.682c-6.076,0-18.285-11.214-18.285-20.682      c0-9.467,8.111-17.143,18.117-17.143C75.725,269.4,83.836,277.076,83.836,286.543z"
   id="path4541" />
				<path
   style="fill:#E5A67D;"
   d="M76.629,307.548c-2.014,1.871-10.254,8.938-10.254,8.938s-9.191-7.847-10.348-8.938      c3.449-0.652,3.355-7.358,1.531-10.346c-1.824-2.986,17.836-4.781,16.656,0C73.035,301.984,72.75,307.225,76.629,307.548z"
   id="path4543" />
				<path
   style="fill:#F9BB8D;"
   d="M84.883,282.466c-1.533-0.436-2.582,0.613-3.193,1.566c0.125-2.75,0.166-5.108,0.125-5.561      c-1.066-11.384-7.764-13.86-15.926-13.928c-8.164,0.067-14.861,2.544-15.928,13.928c-0.041,0.452,0.002,2.811,0.125,5.561      c-0.611-0.953-1.66-2.002-3.191-1.566c-2.635,0.747,0.348,8.914,2.119,10.154c0.943,0.66,1.486,0.396,1.789,0.005      c0.059,0.333,0.119,0.622,0.184,0.847c1.947,6.916,8.631,12.487,11.172,13.929c1.152,0.653,2.424,1.05,3.731,1.141      c1.305-0.091,2.578-0.487,3.729-1.141c2.541-1.441,9.226-7.013,11.174-13.929c0.063-0.225,0.123-0.514,0.182-0.847      c0.305,0.391,0.848,0.655,1.791-0.005C84.535,291.38,87.516,283.213,84.883,282.466z"
   id="path4545" />
				<path
   style="fill:#352E35;"
   d="M81.9,268.613c-1.449-4.68-10.268-9.321-16.389-9.321c-6.123,0-15.256,5.347-16.572,9.204      c-1.414,4.146-1.787,13.91-1.787,13.91s1.537-0.451,2.934,1.627c-0.098,0.688-0.037,1.567,0.086,2.443h1.363      c0.662-2.811,4.465-2.91,5.27-8.09c7.027,3.705,10.836,4.213,22.813,8.09h1.492c0.154-1.068,0.348-2.031,0.58-2.443      c1.186-2.103,3.193-1.566,3.193-1.566S83.635,274.22,81.9,268.613z"
   id="path4547" />
				<polygon
   style="fill:#259DAB;"
   points="66.375,316.486 76.629,307.548 75.682,312.972     "
   id="polygon4549" />
				<polygon
   style="fill:#259DAB;"
   points="66.375,316.486 56.121,307.548 57.336,312.808     "
   id="polygon4551" />
			</g>
		</g>
	</g>
	<g
   id="g4587">
		<g
   id="g4585">
			<defs
   id="defs4560">
				<path
   id="SVGID_00000029004024719772704560000013272486754184122290_"
   d="M27.303,200.831c0-21.13,17.129-38.259,38.26-38.259      c21.129,0,38.258,17.129,38.258,38.259c0,21.13-17.129,38.259-38.258,38.259C44.432,239.09,27.303,221.961,27.303,200.831z" />
			</defs>
			<use
   xlink:href="#SVGID_00000029004024719772704560000013272486754184122290_"
   style="overflow:visible;fill:#95A63A;"
   id="use4562" />
			<clipPath
   id="SVGID_00000023972889019231415500000012256780514758564533_">
				<use
   xlink:href="#SVGID_00000029004024719772704560000013272486754184122290_"
   style="overflow:visible;"
   id="use4564" />
			</clipPath>
			<g
   style="clip-path:url(#SVGID_00000023972889019231415500000012256780514758564533_);"
   clip-path="url(#SVGID_00000023972889019231415500000012256780514758564533_)"
   id="g4583">
				<path
   style="fill:#432918;"
   d="M77.236,234.096c4.77-14.789,5.787-34.59,5.787-40.309c0-9.467-8.113-17.143-18.117-17.143      c-10.006,0-17.744,0.521-17.744,9.989c0,5.719,0.768,32.673,5.633,47.462H77.236z"
   id="path4567" />
				<path
   style="fill:#F0AB80;"
   d="M82.691,217.915L65.17,235.342l-16.643-17.428c0,0,8.568-3.436,8.998-4.631      c0.859-2.401,1.951-6.342,0.732-8.336c-1.824-2.986,15.572-5.219,14.391-0.438c-0.754,3.059,0.445,6.439,1.406,8.477      C74.596,214.133,82.691,217.915,82.691,217.915z"
   id="path4569" />
				<path
   style="fill:#F9BB8D;"
   d="M87.502,220.212c-3.203-1.544-11.617-5.528-11.617-5.528L65.18,234.663l-10.69-19.086      c0,0-7.668,3.092-10.867,4.636c-3.203,1.544-4.752,4.203-3.977,9.494c0.922,6.28,4.77,28.769,4.77,28.769h21.1h0.092h21.1      c0,0,3.85-22.488,4.77-28.769C92.252,224.415,90.703,221.756,87.502,220.212z"
   id="path4571" />
				<path
   style="fill:#259CC6;"
   d="M80.383,230.513c1.092-6.865,4.467-11.55,4.045-11.772c-3.111-1.638-8.314-4.187-8.314-4.187      l-10.943,19.54l-10.943-19.54c0,0-4.457,2.94-8.049,4.497c-0.436,0.189,2.689,4.597,3.781,11.462      c0.537,3.374-1.781,6.735-1.432,10.312c0.211,2.146,2.025,6.399,2.336,8.337c0.996,6.247-0.479,9.313-0.479,9.313h14.348h0.438      l0,0h0.439h14.346c0,0-1.475-3.066-0.479-9.313c0.311-1.938,2.125-6.19,2.336-8.337      C82.164,237.249,79.846,233.887,80.383,230.513z"
   id="path4573" />
				<path
   style="fill:#F9BB8D;"
   d="M83.102,189.711c-1.453-0.434-2.449,0.613-3.029,1.566c0.117-2.75,0.158-5.107,0.117-5.559      c-1.012-11.384-7.367-13.86-15.115-13.929c-7.746,0.068-14.102,2.545-15.113,13.929c-0.039,0.452,0.539,14.503,0.799,14.152      c0.055,0.333,0.111,0.622,0.172,0.848c1.848,6.915,8.191,12.486,10.604,13.929c1.094,0.652,2.301,1.051,3.539,1.141      c1.24-0.09,2.449-0.488,3.541-1.141c2.41-1.442,8.754-7.014,10.604-13.929c0.061-0.226,0.119-0.515,0.174-0.848      c0.287,0.391,0.805,0.655,1.699-0.004C82.773,198.626,85.602,190.46,83.102,189.711z"
   id="path4575" />
				<path
   style="fill:#432918;"
   d="M50.078,191.278c-0.289,2.135,0.785,19.6,0.785,19.6s-0.549-5.068,4.496-14.041      c5.064-9.002,14.48-16.674,14.48-16.674s6.793,0.628,6.691,6.472c-0.109,6.253,2.586,11.308,2.586,11.308      s0.334-5.505,0.955-6.664c1.123-2.102,3.029-1.566,3.029-1.566s0.172-1.198-0.594-4.998      c-1.551-7.702-7.865-20.124-18.188-16.547c-7.357-2.115-16.238,5.711-17.018,15.158c-0.313,3.805-0.01,6.328-0.01,6.328      S48.752,189.201,50.078,191.278z"
   id="path4577" />
				<path
   style="fill:#61B9D9;"
   d="M53.533,224.325c2.961,4.234,11.637,9.771,11.637,9.771l-10.943-19.542l-3.842,1.575      C50.385,216.129,50.57,220.092,53.533,224.325z"
   id="path4579" />
				<path
   style="fill:#61B9D9;"
   d="M76.809,224.325c-2.963,4.234-11.639,9.771-11.639,9.771l10.943-19.542l3.842,1.575      C79.955,216.129,79.77,220.092,76.809,224.325z"
   id="path4581" />
			</g>
		</g>
	</g>
	<g
   id="g4615">
		<g
   id="g4613">
			<defs
   id="defs4590">
				<path
   id="SVGID_00000155869564328862841990000007688021754851332521_"
   d="M315.57,247.592c0-21.13,17.129-38.259,38.258-38.259      c21.131,0,38.26,17.129,38.26,38.259c0,21.129-17.129,38.258-38.26,38.258C332.699,285.85,315.57,268.721,315.57,247.592z" />
			</defs>
			<use
   xlink:href="#SVGID_00000155869564328862841990000007688021754851332521_"
   style="overflow:visible;fill:#F8B894;"
   id="use4592" />
			<clipPath
   id="SVGID_00000072244375849147229750000018338728456671305871_">
				<use
   xlink:href="#SVGID_00000155869564328862841990000007688021754851332521_"
   style="overflow:visible;"
   id="use4594" />
			</clipPath>
			<g
   style="clip-path:url(#SVGID_00000072244375849147229750000018338728456671305871_);"
   clip-path="url(#SVGID_00000072244375849147229750000018338728456671305871_)"
   id="g4611">
				<path
   style="fill:#2E977D;"
   d="M377.545,264.202c-3.277-1.58-12.209-4.506-12.209-4.506l-10.207-0.339v-0.004l-0.045,0.003      l-0.047-0.003v0.004l-10.207,0.339c0,0-8.932,2.926-12.209,4.506c-3.279,1.581-4.865,4.304-4.07,9.721      c0.943,6.43,4.883,29.454,4.883,29.454h21.604h0.092h21.603c0,0,3.941-23.024,4.883-29.454      C382.41,268.505,380.824,265.783,377.545,264.202z"
   id="path4597" />
				<path
   style="fill:#231D22;"
   d="M372.545,238.69c0,9.467-11.873,20.682-17.949,20.682c-6.078,0-18.285-11.215-18.285-20.682      c0-9.468,8.111-17.143,18.115-17.143C364.432,221.547,372.545,229.222,372.545,238.69z"
   id="path4599" />
				<path
   style="fill:#834D2D;"
   d="M365.336,259.696c-2.012,1.87-10.252,8.938-10.252,8.938s-9.191-7.848-10.348-8.938      c3.449-0.652,3.355-7.359,1.531-10.346c-1.824-2.986,17.836-4.781,16.656,0C361.742,254.131,361.459,259.372,365.336,259.696z"
   id="path4601" />
				<path
   style="fill:#9D5C37;"
   d="M373.59,234.614c-1.531-0.436-2.58,0.612-3.191,1.566c0.123-2.75,0.166-5.109,0.123-5.561      c-1.066-11.384-7.764-13.861-15.924-13.929c-8.164,0.067-14.861,2.545-15.928,13.929c-0.041,0.451,0.002,2.811,0.125,5.561      c-0.611-0.954-1.662-2.002-3.191-1.566c-2.635,0.746,0.346,8.913,2.119,10.154c0.941,0.66,1.484,0.395,1.789,0.004      c0.059,0.334,0.119,0.623,0.182,0.848c1.949,6.916,8.633,12.486,11.174,13.929c1.15,0.653,2.424,1.05,3.73,1.14      c1.305-0.09,2.578-0.486,3.729-1.14c2.541-1.442,9.225-7.013,11.174-13.929c0.063-0.225,0.123-0.514,0.182-0.848      c0.305,0.391,0.848,0.656,1.789-0.004C373.244,243.527,376.225,235.36,373.59,234.614z"
   id="path4603" />
				<path
   style="fill:#352E35;"
   d="M370.609,220.76c-1.449-4.681-15.918-9.059-16.391-9.322c-0.248,0.258-15.254,5.348-16.57,9.205      c-1.414,4.145-1.789,13.91-1.789,13.91s1.539-0.451,2.935,1.627c-0.098,0.688-0.039,1.566,0.086,2.443h1.363      c0.662-2.812,2.111-6.471,5.27-8.091c4.642-2.384,8.912,1.685,8.912,1.685s4.521-3.51,8.73-1.685      c3.727,1.614,4.563,5.201,5.168,8.091h1.494c0.154-1.068,0.348-2.031,0.58-2.443c1.184-2.103,3.191-1.566,3.191-1.566      S372.344,226.367,370.609,220.76z"
   id="path4605" />
				<polygon
   style="fill:#5DAC89;"
   points="355.084,268.633 365.336,259.696 364.391,265.119     "
   id="polygon4607" />
				<polygon
   style="fill:#5DAC89;"
   points="355.084,268.633 344.83,259.696 346.043,264.956     "
   id="polygon4609" />
			</g>
		</g>
	</g>
	<g
   id="g4653">
		<g
   id="g4651">
			<defs
   id="defs4618">
				<path
   id="SVGID_00000062886464636561703190000015235108721263268026_"
   d="M79.506,114.178c0-21.131,17.127-38.26,38.258-38.26      c21.129,0,38.258,17.129,38.258,38.26c0,21.129-17.129,38.258-38.258,38.258C96.633,152.436,79.506,135.307,79.506,114.178z" />
			</defs>
			<use
   xlink:href="#SVGID_00000062886464636561703190000015235108721263268026_"
   style="overflow:visible;fill:#724A5D;"
   id="use4620" />
			<clipPath
   id="SVGID_00000039824646893506181670000011372815714912889744_">
				<use
   xlink:href="#SVGID_00000062886464636561703190000015235108721263268026_"
   style="overflow:visible;"
   id="use4622" />
			</clipPath>
			<g
   style="clip-path:url(#SVGID_00000039824646893506181670000011372815714912889744_);"
   clip-path="url(#SVGID_00000039824646893506181670000011372815714912889744_)"
   id="g4649">
				<path
   style="fill:#262025;"
   d="M140.225,134.078c-3.277-1.58-12.209-4.506-12.209-4.506l-10.205-0.339v-0.004l-0.047,0.002      l-0.047-0.002v0.004l-10.207,0.339c0,0-8.932,2.926-12.209,4.506c-3.277,1.581-4.865,4.304-4.07,9.721      c0.943,6.431,4.883,29.454,4.883,29.454h21.604h0.094h21.602c0,0,3.941-23.023,4.883-29.454      C145.09,138.381,143.504,135.659,140.225,134.078z"
   id="path4625" />
				<path
   style="fill:#683C11;"
   d="M135.225,108.566c0,9.468-11.873,20.681-17.949,20.681c-6.076,0-18.285-11.213-18.285-20.681      s8.111-17.143,18.117-17.143C127.111,91.423,135.225,99.098,135.225,108.566z"
   id="path4627" />
				<path
   style="fill:#EDEDED;"
   d="M128.016,129.572l-10.205-0.339v-0.004l-0.047,0.002l-0.047-0.002v0.004l-10.143,0.336      l9.533,43.684h2.752l8.229-43.658C128.045,129.581,128.016,129.572,128.016,129.572z"
   id="path4629" />
				<polygon
   style="fill:#B41F1C;"
   points="113.893,136.598 115.363,141.424 119.313,141.424 121.049,136.598     "
   id="polygon4631" />
				<polygon
   style="fill:#991C15;"
   points="117.107,173.252 114.455,161.096 115.363,141.424 119.313,141.424 121.996,161.926       119.859,173.252     "
   id="polygon4633" />
				<path
   style="fill:#F0AB80;"
   d="M128.016,129.572c-2.012,1.87-10.252,8.937-10.252,8.937s-9.191-7.846-10.348-8.937      c3.449-0.652,3.355-7.358,1.531-10.346c-1.824-2.985,17.836-4.78,16.656,0C124.424,124.006,124.139,129.249,128.016,129.572z"
   id="path4635" />
				<path
   style="fill:#F9BB8D;"
   d="M136.27,104.49c-1.531-0.435-2.58,0.612-3.191,1.566c0.123-2.75,0.166-5.108,0.123-5.561      c-1.066-11.384-7.762-13.86-15.924-13.929c-8.164,0.068-14.861,2.545-15.928,13.929c-0.041,0.452,0.002,2.811,0.125,5.561      c-0.611-0.954-1.662-2.001-3.191-1.566c-2.635,0.747,0.346,8.913,2.119,10.153c0.941,0.661,1.484,0.396,1.789,0.006      c0.059,0.333,0.119,0.621,0.182,0.848c1.949,6.914,8.633,12.486,11.174,13.928c1.15,0.652,2.424,1.051,3.73,1.141      c1.305-0.09,2.578-0.488,3.73-1.141c2.539-1.441,9.223-7.014,11.172-13.928c0.063-0.227,0.123-0.515,0.182-0.848      c0.305,0.391,0.848,0.655,1.791-0.006C135.924,113.403,138.904,105.237,136.27,104.49z"
   id="path4637" />
				<path
   style="fill:#683C11;"
   d="M101.475,106.056c-0.305,2.134,0.9,6.116,0.9,6.116s-0.041-6.625,3.396-8.146      c3.494-1.546,3.445-8.498,3.445-8.498s0.568,3.435,7.549,3.677c7.014,0.242,10.451,2.654,12.711,5.479      c1.754,2.19,2.594,8.035,2.594,8.035s0.355-5.505,1.008-6.664c1.184-2.103,3.191-1.566,3.191-1.566s-0.113-11.64-4.783-16.608      c-5.789-6.158-17.313-9.424-23.814-3.359c-4.238-0.219-8.768,6.502-9.254,11.494c-0.369,3.8,0.123,8.414,0.123,8.414      S100.076,103.978,101.475,106.056z"
   id="path4639" />
				<polygon
   style="fill:#DADADA;"
   points="117.764,138.508 128.016,129.572 127.07,134.995     "
   id="polygon4641" />
				<path
   style="fill:#352E35;"
   d="M119.859,173.252l8.156-43.681c0,0,5.717,11.304,4.76,16.351      C131.818,150.968,119.859,173.252,119.859,173.252z"
   id="path4643" />
				<path
   style="fill:#352E35;"
   d="M117.107,173.252l-9.598-43.681c0,0-5.672,10.427-4.715,15.472      C103.752,150.09,117.107,173.252,117.107,173.252z"
   id="path4645" />
				<polygon
   style="fill:#DADADA;"
   points="117.764,138.508 107.51,129.572 108.723,134.831     "
   id="polygon4647" />
			</g>
		</g>
	</g>
</g>
<g
   id="g4693">
	<g
   id="g4667">
		<path
   style="fill:#F9BB8D;"
   d="M190.607,372.644v-35.238c0,0-17.986-8.946-24.148-19.473    c-11.582-19.785-12.896-46.085-33.936-59.08c-12.953-7.999,22.787-24.481,32.873,0c5.258,12.758,16.996,11.343,16.996,11.343    s-1.646-32.138-8.527-76.199c-3.871-24.808,17.174-28.005,20.984-5.478c5.75,34.038,7.67,62.508,7.67,62.508    s-0.293-74.735,0.365-92.486c0.658-17.753,21.416-19.049,21.037,2.629c-0.375,21.679,5.033,95.555,5.033,95.555    s2.201-72.324,2.859-89.419c0.658-17.095,20.709-17.07,20.381,4.602c-0.33,21.673-0.008,84.378-0.008,84.378    s2.658-36.863,3.066-58.735c0.305-16.117,17.621-14.465,17.535,5.698c-0.066,15.245-4.066,88.423-7.012,104.76    c-3.543,19.647-15.563,26.958-15.563,26.958l-0.521,37.675H190.607z"
   id="path4657" />
		<rect
   x="186.439"
   y="348.776"
   style="fill:#FFFFFF;"
   width="73.197"
   height="17.971"
   id="rect4659" />
		<rect
   x="186.439"
   y="348.776"
   style="fill:#EDEDED;"
   width="36.596"
   height="17.971"
   id="rect4661" />
		<rect
   x="178.111"
   y="357.76"
   style="fill:#F59D16;"
   width="87.227"
   height="67.44"
   id="rect4663" />
		<rect
   x="178.111"
   y="357.76"
   style="fill:#DADADA;"
   width="44.924"
   height="67.44"
   id="rect4665" />
	</g>
	<g
   id="g4685">
		<path
   style="fill:#262025;"
   d="M261.369,200.33c-1.643,0-2.977-1.333-2.977-2.978v-20.835c0-1.644,1.334-2.978,2.977-2.978l0,0    c1.643,0,2.975,1.334,2.975,2.978v20.835C264.344,198.997,263.012,200.33,261.369,200.33L261.369,200.33z"
   id="path4669" />
		<path
   style="fill:#262025;"
   d="M261.369,229.722c-1.643,0-2.977-1.333-2.977-2.977V205.91c0-1.644,1.334-2.975,2.977-2.975l0,0    c1.643,0,2.975,1.331,2.975,2.975v20.835C264.344,228.389,263.012,229.722,261.369,229.722L261.369,229.722z"
   id="path4671" />
		<path
   style="fill:#3D353D;"
   d="M261.369,303.391c0,4.395-3.391,7.958-7.572,7.958h-82.02c-4.182,0-7.57-3.563-7.57-7.958V164.444    c0-4.394,3.389-7.959,7.57-7.959h82.02c4.182,0,7.572,3.565,7.572,7.959V303.391z"
   id="path4673" />
		<path
   style="fill:#4D434F;"
   d="M257.73,281.493c0,3.303-3.135,5.981-7.006,5.981h-75.877c-3.871,0-7.006-2.678-7.006-5.981    V177.058c0-3.303,3.135-5.981,7.006-5.981h75.877c3.871,0,7.006,2.678,7.006,5.981V281.493z"
   id="path4675" />
		<path
   style="fill:#C13A2A;"
   d="M255.172,278.517c0,3.115-2.959,5.641-6.605,5.641H177.01c-3.648,0-6.605-2.525-6.605-5.641    v-98.482c0-3.116,2.957-5.641,6.605-5.641h71.557c3.646,0,6.605,2.525,6.605,5.641V278.517z"
   id="path4677" />
		<path
   style="opacity:0.3;fill:#FFFFFF;"
   d="M178.74,281.505c-3.471,0-6.287-2.404-6.287-5.369v-93.722    c0-2.964,2.816-5.368,6.287-5.368h68.096c3.473,0,6.289,2.403,6.289,5.368L178.74,281.505z"
   id="path4679" />
		<path
   style="fill:#4D434F;"
   d="M218.951,290.127h-12.324c-1.545,0-2.791,1.248-2.791,2.79v12.324c0,1.543,1.246,2.792,2.791,2.792    h12.324c1.541,0,2.791-1.249,2.791-2.792v-12.324C221.742,291.375,220.492,290.127,218.951,290.127z M218.254,302.842    c0,0.94-0.766,1.703-1.705,1.703h-7.523c-0.941,0-1.701-0.763-1.701-1.703v-7.524c0-0.941,0.76-1.703,1.701-1.703h7.523    c0.939,0,1.705,0.762,1.705,1.703V302.842z"
   id="path4681" />
		<path
   style="fill:#4D434F;"
   d="M223.98,163.947c0,1.374-1.117,2.487-2.488,2.487h-17.41c-1.373,0-2.484-1.113-2.484-2.487l0,0    c0-1.373,1.111-2.486,2.484-2.486h17.41C222.863,161.46,223.98,162.574,223.98,163.947L223.98,163.947z"
   id="path4683" />
	</g>
	<g
   id="g4691">
		<path
   style="fill:#FFFFFF;"
   d="M180.012,206.548v45.454h69.244v-45.454H180.012z M189.313,250.171h-6.785v-4.438h6.785V250.171z     M189.313,243.915h-6.785v-4.439h6.785V243.915z M189.313,237.66h-6.785v-4.439h6.785V237.66z M189.313,231.406h-6.785v-4.44    h6.785V231.406z M189.313,225.146h-6.785v-4.434h6.785V225.146z M189.313,218.894h-6.785v-4.439h6.785V218.894z M189.313,212.639    h-6.785V208.2h6.785V212.639z M237.973,244.067c0,2.856-2.334,5.189-5.189,5.189h-36.297c-2.854,0-5.189-2.333-5.189-5.189    v-29.586c0-2.855,2.336-5.189,5.189-5.189h36.297c2.855,0,5.189,2.334,5.189,5.189V244.067z M247.197,250.26h-6.787v-4.438h6.787    V250.26z M247.197,244.005h-6.787v-4.438h6.787V244.005z M247.197,237.749h-6.787v-4.438h6.787V237.749z M247.197,231.493h-6.787    v-4.437h6.787V231.493z M247.197,225.237h-6.787v-4.438h6.787V225.237z M247.197,218.983h-6.787v-4.44h6.787V218.983z     M247.197,212.727h-6.787v-4.437h6.787V212.727z"
   id="path4687" />
		<path
   style="fill:#FFFFFF;"
   d="M214.637,217.213c-6.66,0-12.064,5.401-12.064,12.061c0,6.662,5.404,12.062,12.064,12.062    c6.658,0,12.059-5.4,12.059-12.062C226.695,222.614,221.295,217.213,214.637,217.213z M211.469,236.387v-14.225l9.33,7.112    L211.469,236.387z"
   id="path4689" />
	</g>
</g>
<g
   id="DESIGNED_BY_FREEPIK"
   transform="translate(102.0782,-66.414862)">
	<g
   id="g4343">
		<g
   id="XMLID_319_">
			<g
   id="XMLID_338_">
				<path
   id="XMLID_346_"
   style="fill:#1d262c"
   d="m 260.104,465.465 c -0.432,0.443 -0.803,0.931 -1.108,1.453 l -0.465,-0.241 c -0.067,-0.298 -0.349,-0.503 -0.659,-0.466 -0.331,0.039 -0.568,0.339 -0.529,0.67 0.039,0.331 0.339,0.568 0.67,0.529 0.066,-0.008 0.127,-0.026 0.184,-0.052 l 0.451,0.234 c -0.251,0.554 -0.433,1.139 -0.539,1.744 l 0.747,0.132 c 0.23,-1.306 0.85,-2.507 1.792,-3.473 z" />
				<path
   id="XMLID_345_"
   style="fill:#1d262c"
   d="m 265.592,463.163 c -0.171,0 -0.341,0.006 -0.51,0.017 l -0.074,-0.626 c 0.188,-0.149 0.296,-0.389 0.266,-0.645 -0.046,-0.393 -0.402,-0.674 -0.795,-0.628 -0.393,0.046 -0.674,0.402 -0.628,0.795 0.03,0.254 0.189,0.461 0.404,0.564 l 0.074,0.624 c -0.714,0.116 -1.403,0.332 -2.06,0.646 l 0.327,0.684 c 0.934,-0.447 1.942,-0.673 2.995,-0.673 0.496,0 0.993,0.053 1.475,0.158 l 0.161,-0.741 c -0.535,-0.116 -1.085,-0.175 -1.635,-0.175 z" />
				<path
   id="XMLID_344_"
   style="fill:#1d262c"
   d="m 272.194,465.711 c 0.331,-0.04 0.566,-0.341 0.526,-0.672 -0.04,-0.331 -0.341,-0.566 -0.672,-0.526 -0.309,0.038 -0.535,0.304 -0.53,0.609 l -0.416,0.363 c -0.418,-0.43 -0.889,-0.813 -1.408,-1.139 l -0.404,0.641 c 1.134,0.715 2.021,1.726 2.563,2.925 l 0.69,-0.313 c -0.251,-0.554 -0.567,-1.072 -0.942,-1.545 l 0.402,-0.351 c 0.062,0.013 0.126,0.016 0.191,0.008 z" />
				<path
   id="XMLID_343_"
   style="fill:#1d262c"
   d="m 265.044,473.372 c -0.386,0.023 -0.775,0.035 -1.157,0.035 -0.88,0 -1.733,-0.061 -2.478,-0.179 -0.39,-0.062 -0.846,-0.155 -1.27,-0.292 1.046,1.861 3.069,3.125 5.388,3.125 2.855,0 5.262,-1.916 5.95,-4.504 -0.682,0.449 -1.505,0.825 -2.459,1.123 -1.179,0.367 -2.555,0.606 -3.974,0.692 z" />
				<path
   id="XMLID_339_"
   style="fill:#1d262c"
   d="m 265.592,464.68 c -3.352,0 -6.08,2.666 -6.08,5.943 0,0.426 0.046,0.849 0.137,1.261 0.673,0.483 2.706,0.89 5.348,0.731 2.879,-0.173 5.297,-0.957 6.672,-2.159 -0.006,-0.195 -0.021,-0.39 -0.045,-0.582 -0.38,-2.961 -2.974,-5.194 -6.032,-5.194 z m -2.16,6.514 c -1.02,0 -1.85,-0.83 -1.85,-1.85 0,-1.02 0.83,-1.85 1.85,-1.85 1.02,0 1.85,0.83 1.85,1.85 0,1.021 -0.83,1.85 -1.85,1.85 z m 4.738,-0.908 c -0.75,0 -1.36,-0.61 -1.36,-1.36 0,-0.75 0.61,-1.361 1.36,-1.361 0.75,0 1.361,0.61 1.361,1.361 0,0.751 -0.611,1.36 -1.361,1.36 z" />
			</g>
			<path
   id="XMLID_336_"
   style="fill:#1d262c"
   d="m 281.595,466.547 c -0.295,-0.116 -0.805,-0.309 -1.382,-0.237 -0.551,0.069 -0.844,0.341 -0.844,1.007 v 0.866 h 2.228 v 1.717 h -2.228 v 5.455 h -1.932 V 469.9 h -1.34 v -1.717 h 1.34 v -0.888 c 0,-1.68 0.896,-2.783 2.568,-2.783 0.643,0 1.157,0.122 1.59,0.308 z" />
			<path
   id="XMLID_334_"
   style="fill:#1d262c"
   d="m 286.298,469.879 c -0.177,-0.03 -0.358,-0.046 -0.526,-0.046 -0.896,0 -1.51,0.548 -1.51,1.614 v 3.908 h -1.932 v -7.172 h 1.873 v 0.785 c 0.451,-0.673 1.14,-0.977 2.021,-0.977 0.414,0 0.848,0.128 1.094,0.337 z" />
			<path
   id="XMLID_331_"
   style="fill:#1d262c"
   d="m 293.965,471.757 c 0,0.222 -0.015,0.489 -0.037,0.651 h -5.085 c 0.207,1.036 0.933,1.488 1.843,1.488 0.622,0 1.295,-0.252 1.813,-0.688 l 1.133,1.243 c -0.814,0.748 -1.85,1.088 -3.057,1.088 -2.198,0 -3.723,-1.495 -3.723,-3.753 0,-2.258 1.48,-3.797 3.627,-3.797 2.065,0.001 3.479,1.533 3.486,3.768 z m -5.114,-0.666 h 3.175 c -0.177,-0.918 -0.733,-1.436 -1.562,-1.436 -0.91,0 -1.443,0.548 -1.613,1.436 z" />
			<path
   id="XMLID_328_"
   style="fill:#1d262c"
   d="m 301.618,471.757 c 0,0.222 -0.015,0.489 -0.037,0.651 h -5.085 c 0.207,1.036 0.933,1.488 1.843,1.488 0.622,0 1.295,-0.252 1.814,-0.688 l 1.132,1.243 c -0.814,0.748 -1.85,1.088 -3.057,1.088 -2.198,0 -3.723,-1.495 -3.723,-3.753 0,-2.258 1.48,-3.797 3.627,-3.797 2.065,0.001 3.479,1.533 3.486,3.768 z m -5.114,-0.666 h 3.175 c -0.178,-0.918 -0.733,-1.436 -1.562,-1.436 -0.91,0 -1.443,0.548 -1.613,1.436 z" />
			<path
   id="XMLID_325_"
   style="fill:#1d262c"
   d="m 309.964,471.764 c 0,2.154 -1.495,3.775 -3.471,3.775 -0.962,0 -1.643,-0.378 -2.109,-0.933 v 3.708 h -1.924 v -10.133 h 1.887 v 0.792 c 0.466,-0.585 1.155,-0.984 2.139,-0.984 1.983,0.001 3.478,1.621 3.478,3.775 z m -5.677,0 c 0,1.132 0.748,1.976 1.843,1.976 1.14,0 1.85,-0.881 1.85,-1.976 0,-1.095 -0.71,-1.976 -1.85,-1.976 -1.095,0 -1.843,0.844 -1.843,1.976 z" />
			<path
   id="XMLID_322_"
   style="fill:#1d262c"
   d="m 313.068,465.836 c 0,0.696 -0.54,1.229 -1.236,1.229 -0.696,0 -1.229,-0.533 -1.229,-1.229 0,-0.696 0.533,-1.243 1.229,-1.243 0.695,-0.001 1.236,0.547 1.236,1.243 z m -0.259,9.518 h -1.932 v -7.172 h 1.932 z" />
			<path
   id="XMLID_320_"
   style="fill:#1d262c"
   d="m 316.032,470.736 2.701,-2.554 h 2.368 l -3.479,3.375 3.501,3.797 h -2.376 l -2.716,-2.901 v 2.901 H 314.1 v -10.658 h 1.932 z" />
		</g>
		<g
   id="g4341">
			<path
   style="fill:#1d262c"
   d="m 184.412,475.289 v -1.055 c -0.527,0.718 -1.391,1.23 -2.387,1.23 -1.846,0 -3.149,-1.406 -3.149,-3.706 0,-2.256 1.289,-3.721 3.149,-3.721 0.952,0 1.816,0.469 2.387,1.245 v -3.765 h 1.099 v 9.77 h -1.099 z m 0,-1.919 v -3.208 c -0.395,-0.615 -1.245,-1.143 -2.124,-1.143 -1.421,0 -2.27,1.172 -2.27,2.739 0,1.567 0.85,2.724 2.27,2.724 0.88,10e-4 1.729,-0.496 2.124,-1.112 z"
   id="path4321" />
			<path
   style="fill:#1d262c"
   d="m 186.932,471.744 c 0,-2.051 1.465,-3.706 3.486,-3.706 2.139,0 3.398,1.67 3.398,3.794 v 0.279 h -5.727 c 0.088,1.333 1.025,2.446 2.549,2.446 0.805,0 1.626,-0.322 2.182,-0.894 l 0.527,0.718 c -0.703,0.703 -1.655,1.084 -2.812,1.084 -2.095,0 -3.603,-1.509 -3.603,-3.721 z m 3.471,-2.797 c -1.509,0 -2.256,1.274 -2.314,2.358 h 4.643 c -0.014,-1.055 -0.717,-2.358 -2.329,-2.358 z"
   id="path4323" />
			<path
   style="fill:#1d262c"
   d="m 194.607,474.351 0.571,-0.791 c 0.469,0.542 1.362,1.011 2.329,1.011 1.084,0 1.67,-0.513 1.67,-1.216 0,-1.714 -4.38,-0.659 -4.38,-3.281 0,-1.098 0.952,-2.036 2.636,-2.036 1.201,0 2.051,0.454 2.622,1.026 l -0.513,0.762 c -0.424,-0.513 -1.201,-0.894 -2.109,-0.894 -0.967,0 -1.567,0.483 -1.567,1.113 0,1.552 4.38,0.527 4.38,3.281 0,1.187 -0.952,2.138 -2.783,2.138 -1.157,10e-4 -2.138,-0.351 -2.856,-1.113 z"
   id="path4325" />
			<path
   style="fill:#1d262c"
   d="m 201.477,466.471 c 0,-0.41 0.337,-0.747 0.732,-0.747 0.41,0 0.747,0.337 0.747,0.747 0,0.41 -0.337,0.732 -0.747,0.732 -0.395,0 -0.732,-0.322 -0.732,-0.732 z m 0.19,8.818 v -7.075 h 1.099 v 7.075 z"
   id="path4327" />
			<path
   style="fill:#1d262c"
   d="m 204.582,477.105 0.556,-0.82 c 0.586,0.703 1.289,0.967 2.3,0.967 1.172,0 2.27,-0.571 2.27,-2.124 v -1.011 c -0.513,0.718 -1.377,1.26 -2.373,1.26 -1.845,0 -3.149,-1.377 -3.149,-3.662 0,-2.27 1.289,-3.677 3.149,-3.677 0.952,0 1.802,0.469 2.373,1.245 v -1.069 h 1.098 v 6.87 c 0,2.344 -1.641,3.076 -3.369,3.076 -1.2,0 -2.02,-0.234 -2.855,-1.055 z m 5.127,-3.852 v -3.091 c -0.381,-0.615 -1.23,-1.143 -2.109,-1.143 -1.421,0 -2.27,1.128 -2.27,2.695 0,1.553 0.849,2.695 2.27,2.695 0.878,0.001 1.728,-0.541 2.109,-1.156 z"
   id="path4329" />
			<path
   style="fill:#1d262c"
   d="m 217.413,475.289 v -4.629 c 0,-1.245 -0.63,-1.641 -1.582,-1.641 -0.865,0 -1.685,0.527 -2.095,1.099 v 5.17 h -1.099 v -7.075 h 1.099 v 1.025 c 0.498,-0.586 1.464,-1.201 2.519,-1.201 1.48,0 2.256,0.747 2.256,2.285 v 4.966 h -1.098 z"
   id="path4331" />
			<path
   style="fill:#1d262c"
   d="m 219.932,471.744 c 0,-2.051 1.465,-3.706 3.486,-3.706 2.139,0 3.398,1.67 3.398,3.794 v 0.279 h -5.727 c 0.088,1.333 1.025,2.446 2.549,2.446 0.806,0 1.626,-0.322 2.183,-0.894 l 0.527,0.718 c -0.703,0.703 -1.655,1.084 -2.812,1.084 -2.095,0 -3.604,-1.509 -3.604,-3.721 z m 3.472,-2.797 c -1.509,0 -2.256,1.274 -2.314,2.358 h 4.643 c -0.015,-1.055 -0.718,-2.358 -2.329,-2.358 z"
   id="path4333" />
			<path
   style="fill:#1d262c"
   d="m 233.35,475.289 v -1.055 c -0.527,0.718 -1.392,1.23 -2.388,1.23 -1.846,0 -3.149,-1.406 -3.149,-3.706 0,-2.256 1.289,-3.721 3.149,-3.721 0.952,0 1.817,0.469 2.388,1.245 v -3.765 h 1.098 v 9.77 h -1.098 z m 0,-1.919 v -3.208 c -0.396,-0.615 -1.245,-1.143 -2.124,-1.143 -1.421,0 -2.27,1.172 -2.27,2.739 0,1.567 0.849,2.724 2.27,2.724 0.879,10e-4 1.728,-0.496 2.124,-1.112 z"
   id="path4335" />
			<path
   style="fill:#1d262c"
   d="m 239.692,475.289 v -9.77 h 1.098 v 3.765 c 0.572,-0.776 1.421,-1.245 2.388,-1.245 1.845,0 3.149,1.465 3.149,3.721 0,2.299 -1.304,3.706 -3.149,3.706 -0.996,0 -1.86,-0.513 -2.388,-1.23 v 1.055 h -1.098 z m 3.208,-0.806 c 1.436,0 2.285,-1.157 2.285,-2.724 0,-1.568 -0.85,-2.739 -2.285,-2.739 -0.864,0 -1.728,0.527 -2.109,1.143 v 3.208 c 0.38,0.615 1.245,1.112 2.109,1.112 z"
   id="path4337" />
			<path
   style="fill:#1d262c"
   d="m 247.528,477.061 c 0.161,0.073 0.425,0.117 0.601,0.117 0.483,0 0.805,-0.161 1.055,-0.747 l 0.469,-1.069 -2.959,-7.148 h 1.187 l 2.358,5.8 2.344,-5.8 h 1.201 l -3.545,8.51 c -0.425,1.025 -1.143,1.421 -2.08,1.435 -0.234,0 -0.601,-0.044 -0.805,-0.103 z"
   id="path4339" />
		</g>
	</g>
</g></svg>
