<?xml version="1.0" encoding="UTF-8" standalone="no"?>
<!-- Uploaded to: SVG Repo, www.svgrepo.com, Generator: SVG Repo Mixer Tools -->

<svg
   fill="#000000"
   width="799.93835"
   height="443.63797"
   viewBox="0 -27.73 122.87053 68.142792"
   version="1.1"
   id="Layer_1"
   xml:space="preserve"
   sodipodi:docname="bilisimonemi-ergonomi2.svg"
   inkscape:version="1.2.2 (b0a8486541, 2022-12-01)"
   xmlns:inkscape="http://www.inkscape.org/namespaces/inkscape"
   xmlns:sodipodi="http://sodipodi.sourceforge.net/DTD/sodipodi-0.dtd"
   xmlns:xlink="http://www.w3.org/1999/xlink"
   xmlns="http://www.w3.org/2000/svg"
   xmlns:svg="http://www.w3.org/2000/svg"><defs
   id="defs1875"><clipPath
   clipPathUnits="userSpaceOnUse"
   id="clipPath15564"><g
     id="g15568"
     transform="translate(-2.6856513,-1.5887216)"><g
       inkscape:label="Clip"
       id="use15566"
       transform="translate(2.6856513,1.588721)"
       clip-path="url(#clipPath15564)"><g
         id="g15744"
         clip-path="none"
         transform="translate(2.6856513,1.588721)"><g
           id="g15572"
           transform="matrix(0.31600234,0,0,0.30689409,75.726475,8.9374409)">

<path
   d="m 79.93,51.37 c -0.53,-0.51 -0.32,-1.2 0.48,-1.54 0.8,-0.34 1.87,-0.2 2.41,0.3 3.78,3.6 1.96,6.52 0.21,9.32 -1.32,2.12 -2.59,4.15 -0.25,6.19 0.57,0.5 0.4,1.19 -0.37,1.55 -0.77,0.36 -1.86,0.26 -2.43,-0.24 -3.47,-3.03 -1.86,-5.62 -0.17,-8.32 1.41,-2.27 2.89,-4.63 0.12,-7.26 z M 14.57,28.11 h 73.65 c 0.96,0 1.74,0.78 1.74,1.74 v 12.26 h 24.13 c 1.46,0 2.79,-0.6 3.75,-1.56 0.96,-0.96 1.56,-2.29 1.56,-3.75 v -28 c 0,-1.46 -0.6,-2.79 -1.56,-3.75 -0.96,-0.96 -2.29,-1.56 -3.75,-1.56 H 8.8 C 7.34,3.49 6.01,4.09 5.05,5.05 4.08,6.01 3.48,7.34 3.48,8.8 v 28 c 0,1.46 0.6,2.79 1.56,3.75 0.96,0.96 2.29,1.56 3.75,1.56 h 4.03 V 29.85 c 0.01,-0.96 0.79,-1.74 1.75,-1.74 z m 71.91,3.48 H 16.31 V 41.68 H 86.48 Z M 15.21,13.64 c -0.96,0 -1.74,-0.78 -1.74,-1.74 0,-0.96 0.78,-1.74 1.74,-1.74 h 93.74 c 0.96,0 1.74,0.78 1.74,1.74 0,0.96 -0.78,1.74 -1.74,1.74 z m 83.37,18.35 c 1.36,0 2.46,1.1 2.46,2.46 0,1.36 -1.1,2.46 -2.46,2.46 -1.36,0 -2.46,-1.1 -2.46,-2.46 0,-1.36 1.11,-2.46 2.46,-2.46 z m 10.27,0 c 1.36,0 2.46,1.1 2.46,2.46 0,1.36 -1.1,2.46 -2.46,2.46 -1.36,0 -2.46,-1.1 -2.46,-2.46 0,-1.36 1.1,-2.46 2.46,-2.46 z M 8.8,0 h 105.29 c 2.42,0 4.62,0.99 6.21,2.58 1.59,1.59 2.58,3.79 2.58,6.21 V 36.8 c 0,2.42 -0.99,4.62 -2.58,6.21 -1.59,1.59 -3.79,2.58 -6.21,2.58 H 8.8 C 6.38,45.59 4.18,44.6 2.59,43.01 0.99,41.42 0,39.22 0,36.8 V 8.8 C 0,6.38 0.99,4.18 2.58,2.59 4.18,0.99 6.38,0 8.8,0 Z m 6.41,21.76 c -0.96,0 -1.74,-0.78 -1.74,-1.74 0,-0.96 0.78,-1.74 1.74,-1.74 h 93.74 c 0.96,0 1.74,0.78 1.74,1.74 0,0.96 -0.78,1.74 -1.74,1.74 z m 6.16,29.61 c -0.53,-0.51 -0.32,-1.2 0.48,-1.54 0.8,-0.34 1.87,-0.2 2.41,0.3 3.78,3.6 1.96,6.52 0.21,9.32 -1.32,2.12 -2.59,4.15 -0.25,6.19 0.57,0.5 0.4,1.19 -0.37,1.55 -0.77,0.36 -1.86,0.26 -2.43,-0.24 -3.47,-3.03 -1.86,-5.62 -0.17,-8.32 1.41,-2.27 2.88,-4.63 0.12,-7.26 z m 14.64,0 c -0.53,-0.51 -0.32,-1.2 0.48,-1.54 0.8,-0.34 1.87,-0.2 2.41,0.3 3.78,3.6 1.96,6.52 0.21,9.32 -1.32,2.12 -2.59,4.15 -0.25,6.19 0.57,0.5 0.4,1.19 -0.37,1.55 -0.77,0.36 -1.86,0.26 -2.43,-0.24 -3.47,-3.03 -1.86,-5.62 -0.17,-8.32 1.41,-2.27 2.88,-4.63 0.12,-7.26 z m 14.64,0 c -0.53,-0.51 -0.32,-1.2 0.48,-1.54 0.8,-0.34 1.87,-0.2 2.41,0.3 3.78,3.6 1.96,6.52 0.21,9.32 -1.32,2.12 -2.59,4.15 -0.25,6.19 0.57,0.5 0.4,1.19 -0.37,1.55 -0.77,0.36 -1.86,0.26 -2.43,-0.24 -3.47,-3.03 -1.86,-5.62 -0.17,-8.32 1.41,-2.27 2.89,-4.63 0.12,-7.26 z m 14.64,0 c -0.53,-0.51 -0.32,-1.2 0.48,-1.54 0.8,-0.34 1.87,-0.2 2.41,0.3 3.78,3.6 1.96,6.52 0.21,9.32 -1.32,2.12 -2.59,4.15 -0.25,6.19 0.57,0.5 0.4,1.19 -0.37,1.55 -0.77,0.36 -1.86,0.26 -2.43,-0.24 -3.47,-3.03 -1.85,-5.62 -0.17,-8.32 1.41,-2.27 2.89,-4.63 0.12,-7.26 z"
   id="path15570" />

</g><g
           id="g15584"
           transform="matrix(0.03702094,0,0,0.03373472,-3.5859266,-29.1693)"><path
             d="M 841.8938,97.371494 H 180.39938 c -13.50198,0 -24.45448,10.955576 -24.45448,24.454476 v 431.9762 c 0,1.20921 0.50887,2.22695 0.70136,3.37472 0.7628,11.39892 9.1689,21.20774 20.82583,22.86336 l 65.78361,9.23442 c 50.43966,7.25833 111.76937,16.11084 167.93665,22.16302 v 32.41417 H 186.83347 c -13.50197,0 -24.45447,10.9525 -24.45447,24.45447 V 904.3846 c 0,13.50197 10.9525,24.45447 24.45447,24.45447 h 652.19448 c 13.50198,0 24.45448,-10.9525 24.45448,-24.45447 V 668.30736 c 0,-13.50198 -10.9525,-24.45448 -24.45448,-24.45448 H 602.75617 v -31.07697 c 57.57,-5.85969 121.76659,-15.34804 173.79634,-22.99134 l 68.58803,-9.74329 c 12.41973,-1.78361 21.3347,-12.80164 20.95279,-25.09441 0,-0.38191 0.25393,-0.69829 0.25393,-1.1447 V 121.82699 c 10e-4,-13.4989 -10.95148,-24.455496 -24.45346,-24.455496 z"
             fill="#27323a"
             id="path15574" /><path
             d="m 211.28795,692.76184 h 603.2845 v 187.16828 h -603.2845 z"
             fill="#f4ce73"
             id="path15576" /><path
             d="m 460.10232,643.85186 v -27.89473 c 19.67806,1.46722 38.08444,2.42251 53.8789,2.42251 11.97331,0 25.59918,-0.63891 39.86497,-1.52969 v 27.00191 z m 357.33598,-109.2844 -48.01612,6.81498 c -80.37193,11.84635 -190.35462,28.08722 -255.43994,28.08722 -66.10613,0 -180.29187,-16.56135 -263.65661,-28.59609 L 204.8559,534.505 V 146.28147 h 612.58343 v 388.28599 z"
             fill="#ffffff"
             id="path15578" /><path
             d="m 599.25448,798.41349 h 163.60664 c 13.4989,0 24.45448,-10.9525 24.45448,-24.4555 0,-13.49891 -10.95558,-24.45448 -24.45448,-24.45448 H 599.25448 c -13.50197,0 -24.45447,10.95557 -24.45447,24.45448 0,13.503 10.9525,24.4555 24.45447,24.4555 z M 489.39978,541.12851 c 0,-12.03474 9.80473,-21.84357 21.84357,-21.84357 11.97331,0 21.78111,9.8078 21.78111,21.84357 0,11.97332 -9.8078,21.78112 -21.78111,21.78112 -12.03885,0 -21.84357,-9.80882 -21.84357,-21.78112 z M 250.77204,167.48921 c -8.9805,0 -16.30332,7.26139 -16.30332,16.30332 v 310.01712 c 0,9.04501 7.32282,16.30333 16.30332,16.30333 h 520.87709 c 8.98049,0 16.30332,-7.25832 16.30332,-16.30333 V 183.79253 c 0,-9.04193 -7.32283,-16.30332 -16.30332,-16.30332 z"
             fill="#27323a"
             id="path15580" /><path
             d="M 755.3458,200.09586 V 477.50633 H 267.07537 V 200.09586 Z"
             fill="#79ccbf"
             id="path15582" /></g><g
           id="g15646"
           transform="matrix(0.05673058,0,0,0.05992302,46.198684,8.3646221)"><path
             style="fill:#82afaf"
             d="m 427.2,479.2 c 0,8.8 -7.2,15.2 -15.2,15.2 H 82.4 c -8.8,0 -15.2,-7.2 -15.2,-15.2 V 15.2 C 67.2,6.4 74.4,0 82.4,0 h 328.8 c 8.8,0 15.2,7.2 15.2,15.2 v 464 z"
             id="path15586" /><path
             style="fill:#76a3a2"
             d="M 67.2,15.2 C 67.2,6.4 74.4,0 82.4,0 h 328.8 c 8.8,0 15.2,7.2 15.2,15.2 v 464 c 0,8.8 -7.2,15.2 -15.2,15.2"
             id="path15588" /><g
             id="g15594">
	<polygon
   style="fill:#669694"
   points="427.2,374.4 427.2,262.4 303.2,136.8 192,136.8 "
   id="polygon15590" />
	<path
   style="fill:#669694"
   d="M 412,23.2 H 82.4 c -8.8,0 -15.2,7.2 -15.2,15.2 v 90.4 h 360 V 38.4 c 0,-8 -7.2,-15.2 -15.2,-15.2 z"
   id="path15592" />
</g><path
             style="fill:#a3d0d1"
             d="M 412,0 H 82.4 c -8,0 -15.2,7.2 -15.2,15.2 v 90.4 h 360 V 15.2 C 427.2,7.2 420,0 412,0 Z"
             id="path15596" /><path
             style="fill:#91c4c4"
             d="M 427.2,106.4 V 15.2 C 427.2,6.4 420,0 412,0 H 82.4 c -8,0 -15.2,7.2 -15.2,15.2"
             id="path15598" /><path
             style="fill:#b3e0e0"
             d="M 412,0 H 82.4 c -8,0 -15.2,7.2 -15.2,15.2 v 7.2 c 0,-8.8 7.2,-15.2 15.2,-15.2 h 328.8 c 8.8,0 15.2,7.2 15.2,15.2 V 15.2 C 427.2,7.2 420,0 412,0 Z"
             id="path15600" /><path
             style="fill:#a3d0d1"
             d="m 67.2,464.8 v 14.4 c 0,8.8 7.2,15.2 15.2,15.2 h 328.8 c 8.8,0 15.2,-7.2 15.2,-15.2 v -14.4 z"
             id="path15602" /><rect
             x="67.199997"
             y="99.199997"
             style="fill:#b3e0e0"
             width="360"
             height="7.1999998"
             id="rect15604" /><path
             style="fill:#a3d0d1"
             d="m 308,136.8 c 0,5.6 -4,9.6 -9.6,9.6 H 196 c -5.6,0 -9.6,-4 -9.6,-9.6 v 0 c 0,-5.6 4,-9.6 9.6,-9.6 h 103.2 c 4.8,0 8.8,4.8 8.8,9.6 z"
             id="path15606" /><path
             style="fill:#b3e0e0"
             d="M 298.4,127.2 H 196 c -4,0 -8,2.4 -8.8,6.4 1.6,4 4.8,6.4 8.8,6.4 h 103.2 c 4,0 8,-2.4 8.8,-6.4 -1.6,-3.2 -4.8,-6.4 -9.6,-6.4 z"
             id="path15608" /><path
             style="fill:#137d8e"
             d="m 124,52 c 0,10.4 -8,18.4 -18.4,18.4 -10.4,0 -18.4,-8 -18.4,-18.4 0,-10.4 8,-20 18.4,-20 10.4,0 18.4,9.6 18.4,20 z"
             id="path15610" /><path
             style="fill:#72a2a5"
             d="m 124,52 c 0,10.4 -8,27.2 -18.4,27.2 -10.4,0 -18.4,-17.6 -18.4,-27.2 0,-10.4 8,-17.6 18.4,-17.6 10.4,0 18.4,7.2 18.4,17.6 z"
             id="path15612" /><circle
             style="fill:#185b6b"
             cx="105.6"
             cy="52"
             r="18.4"
             id="circle15614" /><path
             style="fill:#073b44"
             d="m 119.2,38.4 c 7.2,7.2 7.2,19.2 0,26.4 C 112,72 100,72 92.8,64.8"
             id="path15616" /><circle
             style="fill:#b8d7e0"
             cx="115.2"
             cy="42.400002"
             r="1.6"
             id="circle15618" /><path
             style="fill:#137d8e"
             d="m 168.8,52 c 0,10.4 -8,18.4 -18.4,18.4 -10.4,0 -18.4,-8 -18.4,-18.4 0,-10.4 8,-20 18.4,-20 10.4,0 18.4,9.6 18.4,20 z"
             id="path15620" /><path
             style="fill:#72a2a5"
             d="m 168.8,52 c 0,10.4 -8,27.2 -18.4,27.2 C 140,79.2 132,62.4 132,52 c 0,-10.4 8,-17.6 18.4,-17.6 10.4,0 18.4,7.2 18.4,17.6 z"
             id="path15622" /><circle
             style="fill:#185b6b"
             cx="150.39999"
             cy="52"
             r="18.4"
             id="circle15624" /><path
             style="fill:#073b44"
             d="m 163.2,38.4 c 7.2,7.2 7.2,19.2 0,26.4 -7.2,7.2 -19.2,7.2 -26.4,0"
             id="path15626" /><circle
             style="fill:#b8d7e0"
             cx="160"
             cy="42.400002"
             r="1.6"
             id="circle15628" /><path
             style="fill:#137d8e"
             d="m 213.6,52 c 0,10.4 -8,18.4 -18.4,18.4 -10.4,0 -18.4,-8 -18.4,-18.4 0,-10.4 8,-20 18.4,-20 10.4,0 18.4,9.6 18.4,20 z"
             id="path15630" /><path
             style="fill:#72a2a5"
             d="m 213.6,52 c 0,10.4 -8,27.2 -18.4,27.2 -10.4,0 -18.4,-16.8 -18.4,-27.2 0,-10.4 8,-17.6 18.4,-17.6 10.4,0 18.4,7.2 18.4,17.6 z"
             id="path15632" /><circle
             style="fill:#185b6b"
             cx="195.2"
             cy="52"
             r="18.4"
             id="circle15634" /><path
             style="fill:#073b44"
             d="m 208,38.4 c 7.2,7.2 7.2,19.2 0,26.4 -7.2,7.2 -19.2,7.2 -26.4,0"
             id="path15636" /><circle
             style="fill:#b8d7e0"
             cx="204.8"
             cy="42.400002"
             r="1.6"
             id="circle15638" /><path
             style="fill:#53ad8a"
             d="m 398.4,67.2 c 0,4 -3.2,7.2 -7.2,7.2 H 290.4 c -4,0 -7.2,-3.2 -7.2,-7.2 V 41.6 c 0,-4 3.2,-7.2 7.2,-7.2 h 100.8 c 4,0 7.2,3.2 7.2,7.2 z"
             id="path15640" /><path
             style="fill:#3ca589"
             d="M 391.2,34.4 H 290.4 c -4,0 -7.2,3.2 -7.2,7.2 v 23.2 c 0,4 3.2,7.2 7.2,7.2 h 100.8 c 4,0 7.2,-3.2 7.2,-7.2 V 41.6 c 0,-4 -3.2,-7.2 -7.2,-7.2 z"
             id="path15642" /><path
             style="fill:#319385"
             d="m 283.2,64.8 c 0,4 3.2,7.2 7.2,7.2 h 100.8 c 4,0 7.2,-3.2 7.2,-7.2 V 41.6 c 0,-4 -3.2,-7.2 -7.2,-7.2"
             id="path15644" /></g><g
           id="g15682"
           transform="matrix(0.0652863,0,0,0.06406848,83.040057,-28.334524)"><path
             style="fill:#54686c"
             d="M 126.527,136.399 H 41.796 c -17.312,0 -31.347,13.992 -31.347,31.251 v 248.812 c 0,17.26 14.035,31.251 31.347,31.251 h 428.408 c 17.312,0 31.347,-13.689 31.347,-30.948 V 167.651 c 0,-17.259 -14.035,-31.251 -31.347,-31.251 H 385.473 126.527 Z"
             id="path15648" /><g
             id="g15654">
	<path
   style="fill:#87a3aa"
   d="m 10.449,407.051 v 9.411 c 0,17.26 14.035,31.251 31.347,31.251 h 428.408 c 17.312,0 31.347,-13.689 31.347,-30.948 v -9.714 z"
   id="path15650" />
	<path
   style="fill:#87a3aa"
   d="M 470.204,136.399 H 385.473 126.527 41.796 c -17.312,0 -31.347,13.992 -31.347,31.251 v 7.377 h 491.102 v -7.377 c 0,-17.258 -14.035,-31.251 -31.347,-31.251 z"
   id="path15652" />
</g><circle
             style="fill:#54686c"
             cx="327.272"
             cy="292.332"
             r="114.719"
             id="circle15656" /><rect
             x="55.380001"
             y="99.830002"
             style="fill:#faf9f9"
             width="78.366997"
             height="36.570999"
             id="rect15658" /><polygon
             style="fill:#54686c"
             points="418.544,135.37 236.006,135.37 249.59,64.287 403.916,64.287 "
             id="polygon15660" /><circle
             style="fill:#87a3aa"
             cx="327.272"
             cy="292.332"
             r="77.198997"
             id="circle15662" /><circle
             style="fill:#54686c"
             cx="327.272"
             cy="292.332"
             r="42.369999"
             id="circle15664" /><path
             d="m 327.276,167.155 c -69.021,0 -125.173,56.152 -125.173,125.173 0,69.021 56.152,125.172 125.173,125.172 69.021,0 125.172,-56.152 125.172,-125.173 0,-69.021 -56.152,-125.172 -125.172,-125.172 z m 0,229.447 c -57.497,0 -104.275,-46.778 -104.275,-104.275 0,-57.497 46.778,-104.275 104.275,-104.275 57.497,0 104.274,46.779 104.274,104.275 0,57.496 -46.778,104.275 -104.274,104.275 z"
             id="path15666" /><path
             d="m 327.276,204.679 c -48.329,0 -87.648,39.318 -87.648,87.648 0,48.33 39.318,87.648 87.648,87.648 48.33,0 87.648,-39.318 87.648,-87.648 0,-48.33 -39.32,-87.648 -87.648,-87.648 z m 0,154.399 c -36.807,0 -66.75,-29.944 -66.75,-66.75 0,-36.806 29.944,-66.75 66.75,-66.75 36.806,0 66.75,29.944 66.75,66.75 0,36.806 -29.945,66.75 -66.75,66.75 z"
             id="path15668" /><path
             d="m 346.687,266.983 c 0.065,0.051 0.161,0.127 0.227,0.177 1.892,1.441 4.116,2.138 6.324,2.138 3.149,0 6.263,-1.418 8.318,-4.117 3.483,-4.57 2.619,-11.091 -1.919,-14.599 -4.504,-3.511 -11.004,-2.756 -14.582,1.715 -3.605,4.506 -2.874,11.082 1.632,14.686 z"
             id="path15670" /><path
             d="m 359.196,292.327 c 0,17.601 -14.319,31.921 -31.921,31.921 -17.601,0 -31.921,-14.319 -31.921,-31.921 0,-5.771 -4.678,-10.449 -10.449,-10.449 -5.771,0 -10.449,4.678 -10.449,10.449 0,29.124 23.694,52.819 52.819,52.819 29.124,0 52.819,-23.694 52.819,-52.819 0,-5.771 -4.678,-10.449 -10.449,-10.449 -5.771,0 -10.449,4.678 -10.449,10.449 z"
             id="path15672" /><path
             d="m 456.62,167.38 c -5.762,0 -10.449,4.687 -10.449,10.449 0,5.762 4.687,10.449 10.449,10.449 5.762,0 10.449,-4.687 10.449,-10.449 0,-5.762 -4.687,-10.449 -10.449,-10.449 z"
             id="path15674" /><path
             d="m 470.204,125.95 h -42.93 L 414.15,62.18 c -1,-4.857 -5.276,-8.342 -10.235,-8.342 H 249.59 c -5.014,0 -9.322,3.562 -10.263,8.488 l -12.158,63.625 H 144.197 V 99.828 c 0,-5.771 -4.678,-10.449 -10.449,-10.449 H 55.38 c -5.771,0 -10.449,4.678 -10.449,10.449 V 125.95 H 41.796 C 18.75,125.95 0,144.657 0,167.65 v 248.812 c 0,22.993 18.75,41.7 41.796,41.7 h 428.408 c 23.046,0 41.796,-18.57 41.796,-41.397 V 167.651 C 512,144.657 493.25,125.95 470.204,125.95 Z M 258.231,74.736 h 137.168 l 10.328,50.184 H 248.641 Z M 65.829,110.277 h 57.469 V 125.95 H 65.829 Z m 425.273,306.489 c 0,11.495 -9.179,20.499 -20.898,20.499 H 41.796 c -11.171,0 -20.297,-8.777 -20.845,-19.765 h 174.631 c 5.771,0 10.449,-4.678 10.449,-10.449 0,-5.771 -4.678,-10.449 -10.449,-10.449 H 20.898 V 188.053 h 174.683 c 5.771,0 10.449,-4.678 10.449,-10.449 0,-5.771 -4.678,-10.449 -10.449,-10.449 H 20.923 c 0.267,-11.24 9.518,-20.307 20.873,-20.307 h 428.408 c 11.523,0 20.898,9.332 20.898,20.802 z"
             id="path15676" /><path
             d="m 229.522,396.602 h -0.137 c -5.771,0 -10.449,4.678 -10.449,10.449 0,5.771 4.678,10.449 10.449,10.449 h 0.137 c 5.771,0 10.449,-4.678 10.449,-10.449 0,-5.771 -4.678,-10.449 -10.449,-10.449 z"
             id="path15678" /><path
             d="m 229.385,188.053 h 0.137 c 5.771,0 10.449,-4.678 10.449,-10.449 0,-5.771 -4.678,-10.449 -10.449,-10.449 h -0.137 c -5.771,0 -10.449,4.678 -10.449,10.449 0,5.771 4.678,10.449 10.449,10.449 z"
             id="path15680" /></g><g
           id="g15698"
           transform="matrix(0.04785007,0,0,0.05177577,47.739577,-25.414407)"><path
             style="fill:#48cfad"
             d="m 128.007,501.311 c -17.656,0 -31.999,-14.359 -31.999,-32 V 42.654 c 0,-17.64 14.343,-31.999 31.999,-31.999 h 255.984 c 17.654,0 31.998,14.359 31.998,31.999 v 426.657 c 0,17.641 -14.344,32 -31.998,32 z"
             id="path15684" /><path
             style="fill:#5d9cec"
             d="m 371.116,354.878 -0.906,-0.281 c -15.094,-4.094 -26.156,-7.983 -32.844,-10.562 -23.592,-9.078 -29.779,-15.641 -31.342,-18.733 -0.031,-0.109 -0.094,-0.234 -0.156,-0.344 l -0.188,-28.891 -100.911,1.156 -0.203,27.734 c -0.047,0.109 -0.094,0.234 -0.141,0.344 -1.578,3.093 -7.719,9.655 -31.343,18.749 -6.656,2.562 -17.75,6.452 -32.718,10.515 l -1.016,0.312 c -13.625,4.547 -22.78,17.312 -22.78,31.719 v 40.045 h 277.326 v -40.045 c 10e-4,-14.406 -9.153,-27.171 -22.778,-31.718 z"
             id="path15686" /><path
             style="fill:#eac6bb"
             d="m 333.803,243.288 c 0,51.061 -48.686,100.153 -78.583,100.153 -29.905,0 -78.575,-49.093 -78.575,-100.153 0,-51.06 35.186,-84.747 78.575,-84.747 43.398,0 78.583,33.686 78.583,84.747 z"
             id="path15688" /><path
             style="fill:#a85d5d"
             d="m 305.868,149.307 c -13.375,-12.109 -58.177,-26.968 -102.864,0 -22.624,13.64 -39.092,73.95 -39.092,73.95 0,0 44.139,25.015 101.591,-2.016 34.396,-16.187 33.615,-7.703 43.428,7.031 5.844,8.734 24.873,15.015 24.873,15.015 0,0 14.812,-55.278 -27.936,-93.98 z"
             id="path15690" /><path
             style="fill:#434a54"
             d="M 383.991,0 H 128.007 C 104.43,0 85.337,19.093 85.337,42.654 v 426.657 c 0,23.562 19.093,42.671 42.67,42.671 h 255.984 c 23.561,0 42.654,-19.108 42.654,-42.671 V 42.654 C 426.645,19.093 407.552,0 383.991,0 Z m 21.342,469.311 c 0,11.766 -9.594,21.328 -21.342,21.328 H 128.007 c -11.765,0 -21.343,-9.562 -21.343,-21.328 V 42.654 c 0,-11.765 9.578,-21.327 21.343,-21.327 h 255.984 c 11.748,0 21.342,9.562 21.342,21.327 z"
             id="path15692" /><path
             style="fill:#434a54"
             d="m 96.008,405.313 v 63.998 c 0,17.641 14.343,32 31.999,32 h 255.984 c 17.654,0 31.998,-14.359 31.998,-32 v -63.998 z"
             id="path15694" /><path
             style="fill:#656d78"
             d="m 256.002,426.641 c -17.687,0 -31.999,14.328 -31.999,31.999 0,17.671 14.312,31.999 31.999,31.999 17.678,0 31.991,-14.328 31.991,-31.999 0,-17.671 -14.313,-31.999 -31.991,-31.999 z m 0,42.67 c -5.89,0 -10.671,-4.781 -10.671,-10.671 0,-5.875 4.781,-10.656 10.671,-10.656 5.875,0 10.657,4.781 10.657,10.656 0,5.89 -4.781,10.671 -10.657,10.671 z"
             id="path15696" /></g><g
           id="g15720"
           transform="matrix(0.1536,0,0,0.1536,56.9856,8.4284814)"><rect
             y="5.5"
             style="fill:#38454f"
             width="58"
             height="38"
             id="rect15700"
             x="0" /><path
             style="fill:#61b872"
             d="M 13.962,21.5 H 11.038 C 10.465,21.5 10,21.035 10,20.462 V 17.538 C 10,16.965 10.465,16.5 11.038,16.5 h 2.924 c 0.573,0 1.038,0.465 1.038,1.038 v 2.924 c 0,0.573 -0.465,1.038 -1.038,1.038 z"
             id="path15702" /><path
             style="fill:#48a0dc"
             d="M 24.962,21.5 H 22.038 C 21.465,21.5 21,21.035 21,20.462 V 17.538 C 21,16.965 21.465,16.5 22.038,16.5 h 2.924 c 0.573,0 1.038,0.465 1.038,1.038 v 2.924 c 0,0.573 -0.465,1.038 -1.038,1.038 z"
             id="path15704" /><path
             style="fill:#ebba16"
             d="M 35.962,21.5 H 33.038 C 32.465,21.5 32,21.035 32,20.462 V 17.538 C 32,16.965 32.465,16.5 33.038,16.5 h 2.924 c 0.573,0 1.038,0.465 1.038,1.038 v 2.924 c 0,0.573 -0.465,1.038 -1.038,1.038 z"
             id="path15706" /><path
             style="fill:#bf4d90"
             d="M 46.962,21.5 H 44.038 C 43.465,21.5 43,21.035 43,20.462 V 17.538 C 43,16.965 43.465,16.5 44.038,16.5 h 2.924 c 0.573,0 1.038,0.465 1.038,1.038 v 2.924 c 0,0.573 -0.465,1.038 -1.038,1.038 z"
             id="path15708" /><path
             style="fill:#dd352e"
             d="M 13.962,32.5 H 11.038 C 10.465,32.5 10,32.035 10,31.462 V 28.538 C 10,27.965 10.465,27.5 11.038,27.5 h 2.924 c 0.573,0 1.038,0.465 1.038,1.038 v 2.924 c 0,0.573 -0.465,1.038 -1.038,1.038 z"
             id="path15710" /><path
             style="fill:#a4e869"
             d="M 24.962,32.5 H 22.038 C 21.465,32.5 21,32.035 21,31.462 V 28.538 C 21,27.965 21.465,27.5 22.038,27.5 h 2.924 c 0.573,0 1.038,0.465 1.038,1.038 v 2.924 c 0,0.573 -0.465,1.038 -1.038,1.038 z"
             id="path15712" /><path
             style="fill:#50508a"
             d="M 35.962,32.5 H 33.038 C 32.465,32.5 32,32.035 32,31.462 V 28.538 C 32,27.965 32.465,27.5 33.038,27.5 h 2.924 c 0.573,0 1.038,0.465 1.038,1.038 v 2.924 c 0,0.573 -0.465,1.038 -1.038,1.038 z"
             id="path15714" /><path
             style="fill:#be7c6d"
             d="M 46.962,32.5 H 44.038 C 43.465,32.5 43,32.035 43,31.462 V 28.538 C 43,27.965 43.465,27.5 44.038,27.5 h 2.924 c 0.573,0 1.038,0.465 1.038,1.038 v 2.924 c 0,0.573 -0.465,1.038 -1.038,1.038 z"
             id="path15716" /><polygon
             style="fill:#afb6bb"
             points="28,49.5 15,49.5 15,52.5 43,52.5 43,49.5 30,49.5 30,43.5 28,43.5 "
             id="polygon15718" /></g><g
           id="g15742"
           transform="matrix(0.77003571,0,0,0.60848731,2.5230789,4.400439)"><rect
             y="5.5"
             style="fill:#38454f"
             width="58"
             height="38"
             id="rect15722"
             x="0" /><path
             style="fill:#61b872"
             d="M 13.962,21.5 H 11.038 C 10.465,21.5 10,21.035 10,20.462 V 17.538 C 10,16.965 10.465,16.5 11.038,16.5 h 2.924 c 0.573,0 1.038,0.465 1.038,1.038 v 2.924 c 0,0.573 -0.465,1.038 -1.038,1.038 z"
             id="path15724" /><path
             style="fill:#48a0dc"
             d="M 24.962,21.5 H 22.038 C 21.465,21.5 21,21.035 21,20.462 V 17.538 C 21,16.965 21.465,16.5 22.038,16.5 h 2.924 c 0.573,0 1.038,0.465 1.038,1.038 v 2.924 c 0,0.573 -0.465,1.038 -1.038,1.038 z"
             id="path15726" /><path
             style="fill:#ebba16"
             d="M 35.962,21.5 H 33.038 C 32.465,21.5 32,21.035 32,20.462 V 17.538 C 32,16.965 32.465,16.5 33.038,16.5 h 2.924 c 0.573,0 1.038,0.465 1.038,1.038 v 2.924 c 0,0.573 -0.465,1.038 -1.038,1.038 z"
             id="path15728" /><path
             style="fill:#bf4d90"
             d="M 46.962,21.5 H 44.038 C 43.465,21.5 43,21.035 43,20.462 V 17.538 C 43,16.965 43.465,16.5 44.038,16.5 h 2.924 c 0.573,0 1.038,0.465 1.038,1.038 v 2.924 c 0,0.573 -0.465,1.038 -1.038,1.038 z"
             id="path15730" /><path
             style="fill:#dd352e"
             d="M 13.962,32.5 H 11.038 C 10.465,32.5 10,32.035 10,31.462 V 28.538 C 10,27.965 10.465,27.5 11.038,27.5 h 2.924 c 0.573,0 1.038,0.465 1.038,1.038 v 2.924 c 0,0.573 -0.465,1.038 -1.038,1.038 z"
             id="path15732" /><path
             style="fill:#a4e869"
             d="M 24.962,32.5 H 22.038 C 21.465,32.5 21,32.035 21,31.462 V 28.538 C 21,27.965 21.465,27.5 22.038,27.5 h 2.924 c 0.573,0 1.038,0.465 1.038,1.038 v 2.924 c 0,0.573 -0.465,1.038 -1.038,1.038 z"
             id="path15734" /><path
             style="fill:#50508a"
             d="M 35.962,32.5 H 33.038 C 32.465,32.5 32,32.035 32,31.462 V 28.538 C 32,27.965 32.465,27.5 33.038,27.5 h 2.924 c 0.573,0 1.038,0.465 1.038,1.038 v 2.924 c 0,0.573 -0.465,1.038 -1.038,1.038 z"
             id="path15736" /><path
             style="fill:#be7c6d"
             d="M 46.962,32.5 H 44.038 C 43.465,32.5 43,32.035 43,31.462 V 28.538 C 43,27.965 43.465,27.5 44.038,27.5 h 2.924 c 0.573,0 1.038,0.465 1.038,1.038 v 2.924 c 0,0.573 -0.465,1.038 -1.038,1.038 z"
             id="path15738" /><polygon
             style="fill:#afb6bb"
             points="30,49.5 30,43.5 28,43.5 28,49.5 15,49.5 15,52.5 43,52.5 43,49.5 "
             id="polygon15740" /></g></g></g></g></clipPath><style
   id="style30742">.cls-1{fill:#ba9bc9;}.cls-2{fill:#8f6c56;}.cls-3{fill:#838bc5;}.cls-4{fill:#fcdd7c;}.cls-5{fill:#65c8d0;}</style>
	
	
	
	
	
	
	
	
<style
   id="style66878">
      .cls-1 {
        fill: #699f4c;
        fill-rule: evenodd;
      }
    </style><clipPath
   clipPathUnits="userSpaceOnUse"
   id="clipPath547"><use
     x="0"
     y="0"
     xlink:href="#g543"
     id="use549"
     transform="translate(-0.45537865,1.2458816)" /></clipPath></defs><sodipodi:namedview
   id="namedview1873"
   pagecolor="#ffffff"
   bordercolor="#000000"
   borderopacity="0.25"
   inkscape:showpageshadow="2"
   inkscape:pageopacity="0.79215686"
   inkscape:pagecheckerboard="0"
   inkscape:deskcolor="#d1d1d1"
   showgrid="false"
   inkscape:zoom="0.59"
   inkscape:cx="165.25424"
   inkscape:cy="120.33898"
   inkscape:window-width="1366"
   inkscape:window-height="675"
   inkscape:window-x="0"
   inkscape:window-y="0"
   inkscape:window-maximized="1"
   inkscape:current-layer="Layer_1" />



<g
   id="g12350"
   transform="translate(2.156201,-2.9135431)" /><g
   id="g63929"
   transform="matrix(1.4369499,0,0,2.0227588,76.635391,-25.31066)"
   style="fill:#000000">
	<g
   id="g63927">
		<circle
   cx="13.352"
   cy="6.4590001"
   r="2.8310001"
   id="circle63919" />
		<path
   d="m 11.025,15.413 c 0.943,0.657 2.062,0.985 3.347,0.985 0.701,0 2.918,-0.482 3.446,-0.652 0.597,-0.205 0.895,-0.493 1.074,-0.845 0.221,-0.592 0.115,-1.217 0.115,-1.217 -0.179,-1.11 -1.263,-1.362 -2.105,-1.057 -1.257,0.449 -2.972,0.836 -4.007,0.126 -0.438,-0.3 -0.713,-0.768 -0.885,-1.222 C 12.268,10.679 12.102,9.719 11.483,8.989 10.514,7.849 8.907,7.847 7.665,8.68 c -2.132,1.43 -3.787,6.502 -3.787,9.357 0.01,0.002 -0.085,1.398 1.478,1.533 0.469,0.024 4.573,0.014 5.865,0.01 0.005,0.023 0.012,0.066 0.012,0.137 -0.005,1.182 10e-4,5.48 0.004,7.475 10e-4,0.564 0.46,1.021 1.026,1.021 h 1.016 c 0.273,0 0.534,-0.105 0.726,-0.301 0.192,-0.193 0.3,-0.453 0.3,-0.727 -0.003,-1.992 -0.009,-6.281 -0.005,-7.457 0.009,-2.091 -1.584,-3.062 -2.657,-3.203 L 11.435,16.51 c -0.614,0.002 -1.346,0.004 -2.082,0.006 0.168,-0.805 0.415,-1.471 0.674,-2.01 0.279,0.327 0.608,0.634 0.998,0.907 z"
   id="path63921" />
		<path
   d="M 3.071,6.738 C 3.071,5.89 2.383,5.204 1.536,5.204 0.688,5.204 0,5.891 0,6.738 v 15.339 c 0,0.791 0.601,1.441 1.371,1.521 0.001,0.005 0.003,0.007 0.005,0.007 h 0.55 v 3.586 c 0,0.563 0.451,1.022 1.015,1.022 0.565,0 1.015,-0.457 1.015,-1.022 v -3.586 h 3.228 v 3.586 c 0,0.563 0.451,1.022 1.016,1.022 0.564,0 1.015,-0.457 1.015,-1.022 v -3.586 h 0.989 v -3.07 H 3.071 Z"
   id="path63923" />
		<path
   d="m 30.689,16.942 c -0.234,-1.207 -1.008,-2.224 -2.062,-2.781 v -0.968 h 1.457 V 6.445 L 24.517,4.449 V 3.46 h -2.031 v 10.256 h 2.031 v -0.521 h 1.041 v 0.696 c -1.379,0.439 -2.428,1.606 -2.709,3.052 h -6.488 c -0.565,0 -1.023,0.477 -1.023,1.041 0,0.565 0.458,1.041 1.023,1.041 h 2.063 v 9.215 h 11.244 v -9.215 h 1.007 c 0.564,0 1.023,-0.476 1.023,-1.041 0.004,-0.561 -0.448,-1.036 -1.009,-1.042 z"
   id="path63925" />
	</g>
</g><g
   id="g65398"
   transform="matrix(0.94131476,0,0,0.95958713,6.4626252,-19.937167)">
	
</g><g
   id="g66876"
   transform="matrix(0.02007742,0,0,0.02457214,79.321545,-26.040987)"><circle
     style="fill:#ff6643"
     cx="256"
     cy="256"
     r="256"
     id="circle66859" /><path
     style="fill:#ff4f19"
     d="M 256,0 V 512 C 397.385,512 512,397.385 512,256 512,114.615 397.385,0 256,0 Z"
     id="path66861" /><polygon
     style="fill:#f2f2f4"
     points="294.789,256 365.904,184.885 327.115,146.096 256,217.211 184.885,146.096 146.096,184.885 217.211,256 146.096,327.115 184.885,365.904 256,294.789 327.115,365.904 365.904,327.115 "
     id="polygon66863" /><polygon
     style="fill:#dfdfe1"
     points="327.115,365.904 365.904,327.115 294.789,256 365.904,184.885 327.115,146.096 256,217.211 256,294.789 "
     id="polygon66865" /></g><path
   class="cls-1"
   d="m 28.55536,-12.16918 a 5.9961867,6.4866541 0 1 1 5.996188,-6.486654 5.9961867,6.4866541 0 0 1 -5.996188,6.486654 z m -3.395041,-5.023913 a 0.69635714,0.75331674 0 0 1 0,-1.059488 l 0.352977,-0.379685 a 0.63659516,0.68866645 0 0 1 0.914216,0.01103 l 0.623605,0.699911 a 0.31819765,0.3442251 0 0 0 0.461907,0 l 3.17798,-3.543876 a 0.6369949,0.68909889 0 0 1 0.919412,-0.0058 l 0.342785,0.374928 a 0.6959574,0.75288434 0 0 1 0,1.047811 l -4.219119,4.638174 a 0.63659516,0.68866645 0 0 1 -0.909821,0.0065 z"
   id="check"
   style="stroke-width:0.207886" /><path
   d="M 53.366019,10.528713 C 53.00395,7.4920707 51.806337,4.9334425 50.17548,3.5321117 V 1.0967606 h 2.254421 V -15.880245 l -8.613834,-5.02165 v -2.488185 h -3.14257 V 2.4125557 h 3.14257 V 1.1017928 h 1.610742 V 2.8528285 C 43.293079,3.9572924 41.66996,6.8932956 41.235167,10.531224 H 31.196269 c -0.874226,0 -1.582891,1.200064 -1.582891,2.619009 0,1.421459 0.708665,2.619009 1.582891,2.619009 h 3.192084 V 38.952868 H 51.786222 V 15.769242 h 1.558135 c 0.872677,0 1.58289,-1.19755 1.58289,-2.619009 0.0062,-1.411396 -0.693192,-2.606428 -1.561228,-2.62152 z"
   id="path63925-6"
   style="fill:#000000;stroke-width:1.97301" /><g
   id="g545"
   clip-path="url(#clipPath547)"
   transform="matrix(1,0,0,0.95378098,0.41904665,8.376224)"><g
     inkscape:label="Clip"
     id="g543"
     transform="translate(0.45537865,-1.2458816)"><g
       style="fill:#000000"
       id="g648"
       transform="matrix(0.22831174,0,0,0.24706753,-10.131726,-13.611959)"><g
         id="g639">
	<path
   d="M 146.992,105.095 H 79.033 c -20.529,0 -8.495963,-29.550655 -8.662963,-30.799655 L 66.667156,6.273 C 66.117156,2.297 54.863717,1.6944824 36.549,0.068 44.376238,2.7894824 53.403476,6.4584824 53.952476,10.435482 l 1.164401,63.607381 c 1.86,14.497 -2.771877,45.512137 23.811123,45.583137 1.002,5.859 6.104,10.336 12.245,10.336 h 5.441 V 157.99 H 78.801 c -9.037,0 -16.39,7.353 -16.39,16.389 v 2.736 c 0,4.014 3.254,7.27 7.269,7.27 4.015,0 7.269,-3.255 7.269,-7.27 v -2.736 c 0,-1.021 0.831,-1.852 1.853,-1.852 h 17.812 v 4.741 c 0,4.014 3.254,7.269 7.27,7.269 4.015,0 7.269,-3.254 7.269,-7.269 v -4.74 h 17.813 c 1.021,0 1.852,0.831 1.852,1.852 v 2.736 c 0,4.014 3.254,7.27 7.269,7.27 4.016,0 7.27,-3.255 7.27,-7.27 v -2.736 c 0,-9.036 -7.353,-16.389 -16.389,-16.389 h -17.813 v -28.028 h 5.441 c 6.139,0 11.239,-4.476 12.242,-10.333 h 18.157 c 4.015,0 7.27,-3.254 7.27,-7.269 0,-4.015 -3.259,-7.266 -7.273,-7.266 z"
   id="path637"
   sodipodi:nodetypes="ssccccccsccssssssscssscsssssssccscsss" />
</g></g></g></g><style
   type="text/css"
   id="style32261">
	.st0{fill:#BF7D2C;}
	.st1{fill:#C9942C;}
	.st2{fill:#656A73;}
	.st3{fill:#7D828C;}
	.st4{fill:#5C6373;}
	.st5{fill:#4F4228;}
	.st6{fill:#91AAB4;}
	.st7{fill:#A88C55;}
	.st8{fill:#6B5936;}
	.st9{fill:#3E606F;}
</style><style
   type="text/css"
   id="style63893">
	.st0{fill:#000000;}
</style><g
   style="fill:#000000"
   id="g999"
   transform="matrix(0.81043437,0,0,0.73075959,-20.239382,-24.317113)"><g
     id="g988"
     style="fill:#000000">
	<path
   d="m 63.669,41.786 c -0.564,-0.571 -1.315,-0.887 -2.116,-0.889 l -10,-0.031 C 50.896,40.864 50.129,40.289 49.942,39.658 L 45.931,26.098 C 45.924,26.075 45.912,26.06 45.905,26.037 45.662,24.625 44.436,23.546 42.956,23.546 h -6.385 c -1.654,0 -3,1.346 -3,3 v 30.86 c 0,1.654 1.346,3 3,3 h 1.291 c 0.042,10e-4 0.079,0.013 0.122,0.013 l 12.421,-0.011 c 0.881,0 1.598,0.717 1.598,1.598 v 18.209 c 0,1.985 1.615,3.6 3.6,3.6 h 2.41 c 0.96,0 1.862,-0.376 2.54,-1.06 0.677,-0.684 1.045,-1.589 1.036,-2.549 L 61.345,54.311 C 61.326,52.332 59.7,50.721 57.72,50.721 H 45.956 v -3.019 c 0.545,0.321 1.16,0.516 1.781,0.516 h 13.77 c 1.649,0 3.002,-1.342 3.016,-2.992 l 0.01,-1.315 c 0.008,-0.799 -0.299,-1.554 -0.864,-2.125 z"
   id="path982"
   style="fill:#000000" />
	<path
   d="m 39.764,20.338 c 5.607,0 10.169,-4.562 10.169,-10.169 C 49.933,4.562 45.371,0 39.764,0 34.157,0 29.595,4.562 29.595,10.169 c 0,5.607 4.561,10.169 10.169,10.169 z"
   id="path984"
   style="fill:#000000" />
	
</g></g></svg>
