<?xml version="1.0" encoding="UTF-8" standalone="no"?>
<!-- Uploaded to: SVG Repo, www.svgrepo.com, Generator: SVG Repo Mixer Tools -->

<svg
   fill="#000000"
   version="1.1"
   id="Capa_1"
   width="720.18304"
   height="386.93759"
   viewBox="0 0 194.98146 104.759"
   xml:space="preserve"
   sodipodi:docname="kimlik.svg"
   inkscape:version="1.2.2 (b0a8486541, 2022-12-01)"
   xmlns:inkscape="http://www.inkscape.org/namespaces/inkscape"
   xmlns:sodipodi="http://sodipodi.sourceforge.net/DTD/sodipodi-0.dtd"
   xmlns="http://www.w3.org/2000/svg"
   xmlns:svg="http://www.w3.org/2000/svg"><defs
   id="defs423" /><sodipodi:namedview
   id="namedview421"
   pagecolor="#ffffff"
   bordercolor="#000000"
   borderopacity="0.25"
   inkscape:showpageshadow="2"
   inkscape:pageopacity="0.0"
   inkscape:pagecheckerboard="0"
   inkscape:deskcolor="#d1d1d1"
   showgrid="false"
   inkscape:zoom="0.67375"
   inkscape:cx="543.2282"
   inkscape:cy="170.68646"
   inkscape:window-width="1366"
   inkscape:window-height="675"
   inkscape:window-x="0"
   inkscape:window-y="0"
   inkscape:window-maximized="1"
   inkscape:current-layer="g416" />
<g
   id="g418"
   transform="matrix(0.88397525,0,0,0.48297776,1.2589628,20.255764)">
	<g
   id="g416">
		<path
   d="M 20.335566,167.04702 H 199.23819 c 8.35535,0 15.15157,-10.13326 15.15157,-22.61637 V -10.629664 c 0,-12.483107 -6.80314,-22.62154 -15.15157,-22.62154 H 20.335566 c -8.35189,0 -15.1469607,10.138433 -15.1469607,22.62154 V 144.43065 c -0.00808,12.48311 6.7950707,22.61637 15.1469607,22.61637 z M 13.336227,-10.629664 c 0,-5.769518 3.137874,-10.464034 6.998184,-10.464034 H 199.23703 c 3.86609,0 6.99934,4.694516 6.99934,10.464034 V 144.43065 c 0,5.76952 -3.13441,10.46921 -6.99934,10.46921 H 20.335566 c -3.861465,0 -6.998185,-4.70141 -6.998185,-10.46921 V -10.629664 Z"
   id="path400"
   style="stroke-width:1.41002" />
		
		<path
   d="m 81.521324,115.70823 c 0,-15.70767 -8.968864,-36.949598 -21.079275,-43.143384 5.060271,-6.857806 8.546433,-20.423116 8.546433,-32.620005 0,-17.219666 -6.911183,-31.1910159 -15.449835,-31.1910159 -8.531981,0 -15.449834,13.9735929 -15.449834,31.1910159 0,12.199133 3.486162,25.762199 8.531981,32.620005 -12.085954,6.196029 -21.061488,27.435714 -21.061488,43.143384 0.0056,18.57687 55.962018,18.57687 55.962018,0 z M 52.299148,81.627829 h -0.07115 l -2.555704,-5.949265 c 1.24617,0.901812 2.522354,1.46264 3.871908,1.46264 1.354,0 2.630185,-0.533909 3.875242,-1.42899 l -2.565708,5.915615 h -0.06114 l 6.606588,32.198261 -7.856093,15.8176 -7.844976,-15.8176 z"
   id="path404"
   style="stroke-width:1.57918" />
		<path
   d="m 100.29592,20.681868 h 103.61553 c 2.19,0 3.93575,-1.531287 3.93575,-3.43345 0,-1.901026 -1.75357,-3.442552 -3.93575,-3.442552 H 100.29592 c -2.186094,0 -3.931845,1.548352 -3.931845,3.442552 -0.0078,1.903301 1.745751,3.43345 3.931845,3.43345 z"
   id="path406"
   style="stroke-width:1.21743" /><path
   d="m 101.22059,61.200411 h 103.61553 c 2.19,0 3.93575,-1.531287 3.93575,-3.43345 0,-1.901026 -1.75357,-3.442552 -3.93575,-3.442552 H 101.22059 c -2.186095,0 -3.931845,1.548352 -3.931845,3.442552 -0.008,1.903301 1.74575,3.43345 3.931845,3.43345 z"
   id="path406-3"
   style="stroke-width:1.21743" /><path
   d="m 101.42319,93.444714 h 103.61553 c 2.19,0 3.93575,-1.531287 3.93575,-3.43345 0,-1.901026 -1.75357,-3.442552 -3.93575,-3.442552 H 101.42319 c -2.186095,0 -3.931846,1.548352 -3.931846,3.442552 -0.0078,1.903301 1.745751,3.43345 3.931846,3.43345 z"
   id="path406-6"
   style="stroke-width:1.21743" /><path
   d="m 100.67595,128.16301 h 103.61553 c 2.19,0 3.93575,-1.53129 3.93575,-3.43345 0,-1.90102 -1.75357,-3.44255 -3.93575,-3.44255 H 100.67595 c -2.186092,0 -3.931842,1.54835 -3.931842,3.44255 -0.008,1.9033 1.74575,3.43345 3.931842,3.43345 z"
   id="path406-6-7"
   style="stroke-width:1.21743" />
		
		
		
		
	<path
   d="m 99.477212,155.74579 -0.0664,-178.044106 c -0.001,-3.763109 -0.839166,-6.761936 -1.878452,-6.760793 -1.038664,0.0012 -1.879784,3.015255 -1.878394,6.764929 l 0.0664,178.04411 c 0.001,3.75641 0.84849,6.75523 1.883422,6.75408 1.039918,0.0126 1.874814,-3.00181 1.873414,-6.75822 z"
   id="path406-6-5"
   style="stroke-width:1.17961" /><path
   d="m 148.28717,157.87755 -0.0664,-178.044102 c -10e-4,-3.763109 -0.83916,-6.761936 -1.87845,-6.760793 -1.03866,0.0012 -1.87978,3.015255 -1.87839,6.764929 l 0.0664,178.044106 c 0.001,3.75641 0.84849,6.75523 1.88342,6.75408 1.03992,0.0126 1.87481,-3.00181 1.87341,-6.75822 z"
   id="path406-6-5-3"
   style="stroke-width:1.17961" /><text
   xml:space="preserve"
   style="font-weight:bold;font-size:13.3538px;font-family:sans-serif;-inkscape-font-specification:'sans-serif, Bold';fill:#000000;stroke-width:0.47723"
   x="144.25952"
   y="104.64935"
   id="text1008-7"
   transform="scale(0.70512218,1.4181939)"><tspan
     sodipodi:role="line"
     id="tspan1006-0"
     style="stroke-width:0.47723"
     x="144.25952"
     y="104.64935">Cinsiyet</tspan></text><text
   xml:space="preserve"
   style="font-weight:bold;font-size:13.3538px;font-family:sans-serif;-inkscape-font-specification:'sans-serif, Bold';fill:#000000;stroke-width:0.47723"
   x="144.55251"
   y="81.25901"
   id="text1008-7-9"
   transform="scale(0.70512219,1.4181939)"><tspan
     sodipodi:role="line"
     id="tspan1006-0-3"
     style="stroke-width:0.47723"
     x="144.55251"
     y="81.25901">Meslek</tspan></text><text
   xml:space="preserve"
   style="font-weight:bold;font-size:13.3538px;font-family:sans-serif;-inkscape-font-specification:'sans-serif, Bold';fill:#000000;stroke-width:0.47723"
   x="143.90781"
   y="56.03249"
   id="text1008-7-6"
   transform="scale(0.70512219,1.4181939)"><tspan
     sodipodi:role="line"
     id="tspan1006-0-0"
     style="stroke-width:0.47723"
     x="143.90781"
     y="56.03249">Ad</tspan></text><text
   xml:space="preserve"
   style="font-weight:bold;font-size:13.3538px;font-family:sans-serif;-inkscape-font-specification:'sans-serif, Bold';fill:#000000;stroke-width:0.47723"
   x="142.68159"
   y="33.257111"
   id="text1008-7-62"
   transform="scale(0.70512219,1.4181939)"><tspan
     sodipodi:role="line"
     id="tspan1006-0-6"
     style="stroke-width:0.47723"
     x="142.68159"
     y="33.257111">Soyad</tspan></text><text
   xml:space="preserve"
   style="font-weight:bold;font-size:13.3538px;font-family:sans-serif;-inkscape-font-specification:'sans-serif, Bold';fill:#000000;stroke-width:0.47723"
   x="141.92854"
   y="4.670074"
   id="text1008-7-1"
   transform="scale(0.70512219,1.4181939)"><tspan
     sodipodi:role="line"
     id="tspan1006-0-8"
     style="stroke-width:0.47723"
     x="141.92854"
     y="4.670074">Tc Num</tspan></text></g>
</g>
</svg>
