<?xml version="1.0" encoding="UTF-8" standalone="no"?>
<!-- Uploaded to: SVG Repo, www.svgrepo.com, Generator: SVG Repo Mixer Tools -->

<svg
   fill="#000000"
   version="1.1"
   id="Capa_1"
   width="800px"
   height="800px"
   viewBox="0 0 76.609 76.609"
   xml:space="preserve"
   sodipodi:docname="etikdegerler-siberzorba.svg"
   inkscape:version="1.2.2 (b0a8486541, 2022-12-01)"
   xmlns:inkscape="http://www.inkscape.org/namespaces/inkscape"
   xmlns:sodipodi="http://sodipodi.sourceforge.net/DTD/sodipodi-0.dtd"
   xmlns="http://www.w3.org/2000/svg"
   xmlns:svg="http://www.w3.org/2000/svg"><defs
   id="defs25" /><sodipodi:namedview
   id="namedview23"
   pagecolor="#ffffff"
   bordercolor="#000000"
   borderopacity="0.25"
   inkscape:showpageshadow="2"
   inkscape:pageopacity="0.0"
   inkscape:pagecheckerboard="0"
   inkscape:deskcolor="#d1d1d1"
   showgrid="false"
   inkscape:zoom="0.67375"
   inkscape:cx="346.56772"
   inkscape:cy="400.74212"
   inkscape:window-width="1366"
   inkscape:window-height="675"
   inkscape:window-x="0"
   inkscape:window-y="0"
   inkscape:window-maximized="1"
   inkscape:current-layer="Capa_1" />
<g
   id="g20"
   transform="translate(0.28426345,0.28426345)">
	<g
   id="g18">
		<path
   d="m 57.455,16.575 c 0,1.12 1.121,2.24 2.688,2.24 2.239,0 2.911,-0.896 2.911,-2.24 0,-0.224 0,-0.224 0,-0.447 -0.223,-0.672 -0.896,-1.12 -1.566,-1.568 -0.225,0 -0.672,-0.224 -1.119,-0.224 -1.57,10e-4 -2.914,0.896 -2.914,2.239 z"
   id="path2" />
		<path
   d="M 62.16,9.183 C 61.934,7.839 61.039,6.719 59.92,6.719 c -1.121,0 -1.793,1.12 -1.567,2.464 0.226,1.344 1.119,2.464 2.239,2.464 0.896,0 1.791,-1.12 1.568,-2.464 z"
   id="path4" />
		<path
   d="m 52.08,25.983 3.808,-3.808 c 2.239,1.792 4.93,2.912 7.841,2.912 6.943,0 12.544,-5.601 12.544,-12.544 C 76.271,5.599 70.672,0 63.728,0 56.786,0 51.184,5.6 51.184,12.544 c 0,3.136 1.119,5.823 2.912,7.84 l -3.809,3.809 c 0.672,0.671 1.344,1.344 1.793,1.79 z M 65.744,8.511 h 2.463 V 6.048 h 0.896 v 2.464 h 2.465 v 0.896 h -2.465 v 2.465 H 68.207 V 9.407 H 65.744 V 8.511 Z m -5.6,4.256 c 0,-0.224 0,-0.448 0.226,-0.672 -0.226,0 -0.226,0 -0.447,0 -1.793,0 -3.137,-1.344 -3.137,-2.912 0,-1.568 1.791,-2.912 3.584,-2.912 H 64.4 L 63.504,6.943 H 62.16 c 0.896,0.225 1.344,1.345 1.344,2.464 0,0.896 -0.448,1.568 -1.121,2.24 -0.672,0.448 -0.896,0.672 -0.896,1.12 0,0.448 0.673,1.12 1.12,1.344 1.119,0.672 1.344,1.568 1.344,2.688 0,1.567 -1.344,2.912 -4.031,2.912 -2.239,0 -4.256,-0.896 -4.256,-2.464 0,-1.568 1.791,-2.912 4.031,-2.912 0.225,0 0.447,0 0.672,0 0,-0.671 -0.223,-1.119 -0.223,-1.568 z"
   id="path6" />
		<path
   d="m 63.728,51.52 c -2.911,0 -5.823,1.119 -7.841,2.912 L 52.08,50.623 c -0.449,0.672 -1.121,1.118 -1.568,1.566 l 3.809,3.809 c -1.792,2.238 -2.912,4.929 -2.912,7.841 0,6.943 5.602,12.544 12.545,12.544 6.942,0 12.545,-5.601 12.545,-12.544 C 76.271,56.895 70.672,51.52 63.728,51.52 Z M 60.144,69.664 H 57.68 v -7.841 h 2.464 z m -1.12,-8.959 v 0 c -0.896,0 -1.567,-0.673 -1.567,-1.346 0,-0.672 0.672,-1.344 1.567,-1.344 0.895,0 1.567,0.672 1.567,1.344 -0.224,0.897 -0.671,1.346 -1.567,1.346 z m 11.2,8.959 h -2.912 v -4.031 c 0,-1.119 -0.447,-1.792 -1.345,-1.792 -0.672,0 -1.119,0.448 -1.344,0.896 0,0.227 0,0.449 0,0.673 v 4.257 h -2.688 c 0,0 0,-7.168 0,-7.841 h 2.688 v 1.12 c 0.225,-0.447 1.121,-1.344 2.465,-1.344 1.791,0 3.136,1.119 3.136,3.584 v 4.478 z"
   id="path8" />
		<path
   d="m 24.304,50.625 -3.808,3.809 c -2.24,-1.793 -4.928,-2.912 -7.84,-2.912 -6.944,0 -12.544,5.602 -12.544,12.543 0,6.944 5.6,12.545 12.544,12.545 6.943,0 12.544,-5.601 12.544,-12.545 0,-2.912 -1.12,-5.823 -2.912,-7.84 l 3.808,-3.809 C 25.424,51.743 24.752,51.07 24.304,50.625 Z m -6.271,11.423 c 0,3.808 -2.912,8.063 -8.064,8.063 -1.567,0 -3.136,-0.448 -4.256,-1.346 0.224,0 0.448,0 0.672,0 1.344,0 2.464,-0.447 3.584,-1.119 -1.12,0 -2.24,-0.896 -2.688,-2.017 0.224,0 0.447,0 0.447,0 0.225,0 0.448,0 0.673,0 -1.345,-0.226 -2.24,-1.344 -2.24,-2.688 v 0 c 0.448,0.225 0.896,0.447 1.344,0.447 -0.672,-0.447 -1.344,-1.344 -1.344,-2.24 0,-0.446 0.224,-0.896 0.448,-1.344 1.344,1.793 3.359,2.912 5.823,2.912 0,-0.226 0,-0.447 0,-0.672 0,-1.568 1.345,-2.912 2.912,-2.912 0.896,0 1.568,0.447 2.017,0.896 0.672,-0.225 1.344,-0.448 1.792,-0.672 -0.225,0.672 -0.673,1.119 -1.345,1.566 0.672,0 1.12,-0.225 1.568,-0.447 -0.448,0.672 -0.896,1.119 -1.344,1.344 0.001,0.004 0.001,0.004 0.001,0.229 z"
   id="path10" />
		<path
   d="m 12.656,25.088 c 2.912,0 5.823,-1.12 7.84,-2.912 l 3.808,3.808 c 0.448,-0.672 1.12,-1.119 1.568,-1.567 l -3.809,-3.808 c 1.792,-2.24 2.912,-4.928 2.912,-7.84 0,-6.944 -5.6,-12.544 -12.544,-12.544 -6.943,0 -12.319,5.6 -12.319,12.544 0,6.718 5.6,12.319 12.544,12.319 z M 9.744,10.527 h 1.344 V 9.183 C 11.088,7.391 11.76,6.271 14,6.271 h 1.792 v 2.24 h -1.12 c -0.896,0 -0.896,0.224 -0.896,0.896 v 1.12 h 2.016 l -0.224,2.24 H 13.55 v 6.272 H 10.862 V 12.767 H 9.519 v -2.24 h 0.225 z"
   id="path12" />
		<g
   id="g16">
			<path
   d="m 49.617,44.575 c -0.226,-0.446 -0.673,-0.673 -0.896,-0.673 -2.016,-0.672 -3.807,-1.118 -5.823,-1.791 -0.224,0 -0.672,-0.447 -0.672,-1.344 0,-0.449 0,-0.673 -0.447,-0.673 -0.226,0 0,0 -0.226,-0.224 -0.223,-0.896 -0.223,-1.345 -0.223,-1.568 0,-0.223 0.223,-0.225 0.223,-0.448 0.673,-0.896 0.896,-2.239 0.896,-2.688 0,0 0.225,0 0.225,-0.225 0.224,-0.448 0.224,-0.448 0.224,-1.121 0.226,-0.446 0.226,-1.118 -0.224,-1.118 -0.225,0.224 -0.225,0 -0.225,-0.448 v -2.688 c 0,-0.896 -0.673,-1.567 -1.119,-1.791 -0.674,-0.449 -0.896,-0.673 -1.121,-0.673 -0.225,-0.224 -0.225,-0.448 0,-0.672 0.224,-0.223 0.447,-0.223 0.447,-0.448 0,0 0,0 -0.225,0 -0.225,0 -1.567,0.226 -2.239,0.448 -1.12,0.224 -2.24,0.672 -3.137,1.345 -0.672,0.447 -1.12,1.119 -1.12,2.017 0,0.446 0,1.791 0,2.688 0,0.226 0,0.448 -0.224,0.226 -0.672,0 -0.224,0.896 -0.224,1.118 0,0.448 0.224,0.673 0.447,1.121 0,0.225 0.225,0.225 0.225,0.225 0.224,0.672 0.448,2.016 0.896,2.688 0,0 0.225,0.225 0.225,0.448 0,0.448 0,1.12 -0.225,1.568 0,0 0,0.225 -0.224,0.225 -0.448,0 -0.448,0.224 -0.448,0.672 0,0.672 -0.448,1.345 -0.672,1.345 -1.12,0.446 -4.479,1.567 -5.6,1.791 -0.672,0.226 -0.896,0.448 -1.12,0.672 l -1.12,2.688 c 4.479,0 6.72,2.688 11.424,3.584 h 2.24 c 4.704,-0.672 8.063,-3.584 11.2,-3.584 z"
   id="path14" />
		</g>
	</g>
</g>
<g
   id="g207"
   transform="matrix(0.06436147,0,0,0.06901459,24.042278,18.428958)"><path
     style="fill:#656d78"
     d="m 439.56,383.676 -1.781,-0.5 c -25.921,-6.969 -34.686,-13.655 -46.232,-18.046 -40.935,-15.609 -51.591,-26.858 -54.31,-32.155 -0.109,-0.203 -0.188,-0.391 -0.281,-0.594 l -0.344,-47.561 -97.09,-1.094 -97.121,1.094 -0.328,47.561 c -0.094,0.203 -0.172,0.391 -0.266,0.594 -2.719,5.297 -13.375,16.546 -54.311,32.155 -11.546,4.391 -20.312,11.077 -46.248,18.046 l -1.781,0.5 C 15.859,391.471 0,413.377 0,438.08 v 68.669 h 239.522 178.415 l 61.107,-68.669 c 0,-24.703 -15.874,-46.609 -39.484,-54.404 z"
     id="path159" /><path
     style="fill:#dbafa5"
     d="m 337.237,332.974 c -0.109,-0.203 -0.188,-0.391 -0.281,-0.594 l -0.344,-47.561 -97.09,-1.094 -97.121,1.094 -0.328,47.561 c -0.094,0.203 -0.172,0.391 -0.266,0.594 -2.578,5.031 -12.312,15.422 -48.358,29.827 20.531,13.53 69.326,39.044 145.401,39.044 74.95,0 125.87,-24.779 148.259,-38.45 -37.278,-14.703 -47.263,-25.311 -49.872,-30.421 z"
     id="path161" /><path
     style="fill:#eac6bb"
     d="m 374.266,192.355 c 0,87.543 -83.465,168.118 -134.745,168.118 -51.295,0 -134.745,-80.575 -134.745,-168.118 0,-87.552 60.326,-145.314 134.745,-145.314 74.419,0 134.745,57.762 134.745,145.314 z"
     id="path163" /><g
     id="g169">
	<path
   style="fill:#434a54"
   d="m 398.875,368.286 c -2.438,-1.156 -4.828,-2.203 -7.328,-3.156 -6.188,-2.359 -11.672,-4.625 -16.562,-6.766 -5.891,3.281 -13.14,6.953 -21.701,10.625 -23.922,10.218 -63.201,22.404 -114.434,22.404 -51.123,0 -89.043,-12.124 -111.871,-22.295 -8.765,-3.891 -16.031,-7.812 -21.765,-11.266 -5.171,2.312 -11.031,4.75 -17.718,7.297 -1.922,0.719 -3.765,1.516 -5.625,2.359 6.718,4.874 18.624,12.608 35.608,20.248 24.843,11.203 66.044,24.546 121.37,24.546 55.233,0 97.668,-13.312 123.542,-24.468 16.953,-7.326 29.218,-14.685 36.484,-19.528 z"
   id="path165" />
	<polygon
   style="fill:#434a54"
   points="0,464.969 455.123,464.969 473.731,444.063 0,444.063 "
   id="polygon167" />
</g><path
     style="fill:#ed5564"
     d="m 374.266,192.355 c 0,-10.585 -0.906,-20.733 -2.578,-30.397 H 107.339 c -1.672,9.664 -2.562,19.812 -2.562,30.397 0,10.921 1.297,21.733 3.672,32.295 h 262.146 c 2.374,-10.561 3.671,-21.373 3.671,-32.295 z"
     id="path171" /><g
     id="g177">
	<path
   style="fill:#eac6bb"
   d="m 323.096,193.301 c 0,11.539 -14.03,20.905 -31.342,20.905 -17.312,0 -31.344,-9.367 -31.344,-20.905 0,-11.538 14.031,-20.897 31.344,-20.897 17.312,-0.001 31.342,9.358 31.342,20.897 z"
   id="path173" />
	<path
   style="fill:#eac6bb"
   d="m 218.616,193.301 c 0,11.539 -14.015,20.905 -31.342,20.905 -17.312,0 -31.343,-9.367 -31.343,-20.905 0,-11.538 14.031,-20.897 31.343,-20.897 17.327,-0.001 31.342,9.358 31.342,20.897 z"
   id="path175" />
</g><path
     style="fill:#656d78"
     d="M 374.266,191.324 C 370.454,99.71 369.235,74.29 319.878,35.033 239.522,-28.895 115.543,29.916 115.543,29.916 l 22.39,15.687 c 0,0 -81.934,54.115 -61.356,189.5 2.531,16.632 115.542,-112.988 235.756,-105.926 z"
     id="path183" /></g></svg>
