<?xml version="1.0" encoding="UTF-8" standalone="no"?>
<!-- Uploaded to: SVG Repo, www.svgrepo.com, Generator: SVG Repo Mixer Tools -->

<svg
   fill="#000000"
   version="1.1"
   id="Capa_1"
   width="800px"
   height="800px"
   viewBox="0 0 122.242 122.242"
   xml:space="preserve"
   sodipodi:docname="businessman-working-online-with-a-laptop-svgrepo-com.svg"
   inkscape:version="1.2.2 (b0a8486541, 2022-12-01)"
   xmlns:inkscape="http://www.inkscape.org/namespaces/inkscape"
   xmlns:sodipodi="http://sodipodi.sourceforge.net/DTD/sodipodi-0.dtd"
   xmlns="http://www.w3.org/2000/svg"
   xmlns:svg="http://www.w3.org/2000/svg"><defs
   id="defs29" /><sodipodi:namedview
   id="namedview27"
   pagecolor="#ffffff"
   bordercolor="#000000"
   borderopacity="0.25"
   inkscape:showpageshadow="2"
   inkscape:pageopacity="0.0"
   inkscape:pagecheckerboard="0"
   inkscape:deskcolor="#d1d1d1"
   showgrid="false"
   inkscape:zoom="0.67375"
   inkscape:cx="346.56772"
   inkscape:cy="282.00371"
   inkscape:window-width="1366"
   inkscape:window-height="675"
   inkscape:window-x="0"
   inkscape:window-y="0"
   inkscape:window-maximized="1"
   inkscape:current-layer="g22" />
<g
   id="g24">
	<g
   id="g22">
		<path
   d="M29.099,30.157c7.571,0,13.708-6.138,13.708-13.71c0-7.567-6.137-13.705-13.708-13.705    c-7.572,0-13.708,6.138-13.708,13.707C15.393,24.021,21.527,30.157,29.099,30.157z"
   id="path2" />
		<path
   d="M55.762,75.327c-0.37-3.172-3.056-5.565-6.25-5.565h-0.003l-10.903,0.01V54.786c3.657,3.206,7.794,5.232,13.195,5.232    c3.294,0,7.064-0.757,11.476-2.446c2.746-1.051,4.119-4.127,3.066-6.872c-1.049-2.745-4.127-4.116-6.871-3.067    c-10.744,4.116-12.862,1.819-22.302-11.082c-0.02-0.028-0.045-0.048-0.068-0.078c-1.808-2.82-4.979-4.723-8.007-5.466    c0,0-1.441-0.434-2.977-0.399c-1.471,0.031-3.107,0.375-3.107,0.375l-0.042,0.005c-4.611,1.131-9.522,4.886-9.522,10.522    l0.003,30.257c0,6.578,6.531,10.648,12.578,10.645c0.338,0,0.675-0.027,1.012-0.052l16.873-0.013l3.599,31.068    c0.373,3.205,3.094,5.564,6.241,5.564c0.241,0,0.486-0.015,0.735-0.045c3.447-0.397,5.922-3.521,5.521-6.972L55.762,75.327z"
   id="path4" />
		<path
   d="M42.253,89.48c0-2.937-2.383-5.32-5.323-5.32H10.644V41.947c0-2.936-2.384-5.318-5.324-5.318    c-2.939,0-5.32,2.383-5.32,5.318V89.48c0,1.949,1.052,3.647,2.614,4.578c-1.014,1.812-1.593,3.891-1.593,6.107v14.877    c0,2.462,1.994,4.457,4.452,4.457c2.461,0,4.458-1.995,4.458-4.457v-14.877c0-2.013,1.635-3.646,3.646-3.646h14.878    c2.008,0,3.645,1.635,3.645,3.646v14.877c0,2.462,1.995,4.457,4.457,4.457c2.461,0,4.456-1.995,4.456-4.457v-14.877    c0-2.178-0.556-4.225-1.536-6.012C41.128,93.25,42.253,91.496,42.253,89.48z"
   id="path6" />
		<path
   d="M117.143,61.121H57.995c-2.815,0-5.098,2.281-5.098,5.098c0,2.817,2.283,5.101,5.098,5.101h6.996v45.278h45.155V71.318    h6.996c2.816,0,5.1-2.283,5.1-5.1C122.242,63.401,119.959,61.121,117.143,61.121z"
   id="path8" />
		<path
   d="M99.723,25.835l-4.596,10.453l13.158,5.785l-4.034,12.978H72.924c-1.223,0-2.213,0.992-2.213,2.214    s0.99,2.214,2.213,2.214h32.957c0.969,0,1.826-0.633,2.114-1.558l10.329-33.236c0.363-1.168-0.289-2.407-1.457-2.769    c-1.169-0.364-2.407,0.286-2.771,1.453l-2.4,7.73L99.723,25.835z M98.68,36.795l-2.281-1.003l1.004-2.278    C98.488,34.217,99.005,35.541,98.68,36.795z M99.217,29.389l1-2.279l2.28,1.003C101.794,29.195,100.467,29.713,99.217,29.389z     M104.902,38.83c-2.074-0.91-3.018-3.332-2.104-5.403c0.911-2.076,3.332-3.016,5.405-2.104c1.378,0.604,2.238,1.878,2.406,3.271    l-0.984,3.17C108.475,39.074,106.581,39.568,104.902,38.83z"
   id="path10" />
		
		
		
		
		
	<g
   id="g481"
   transform="matrix(0.09313913,0,0,0.0790233,76.109202,14.357062)"><g
     id="g393">
	<path
   style="fill:#ffffff"
   d="m 263.079,291.922 h -12.994 c -14.222,12.929 -28.444,24.76 -42.667,35.362 v 33.875 c 22.691,-6.4 42.667,-32.518 55.661,-69.237 z"
   id="path353" />
	<path
   style="fill:#ffffff"
   d="m 255.58,40.706 c 12.541,15.451 22.949,35.749 30.513,59.604 h 46.222 C 313.374,73.546 286.74,52.601 255.58,40.706 Z"
   id="path355" />
	<path
   style="fill:#ffffff"
   d="m 207.354,299.809 c 3.168,-2.521 6.4,-5.172 9.568,-7.887 h -9.568 z"
   id="path357" />
	<path
   style="fill:#ffffff"
   d="m 207.354,31.397 v 68.848 h 55.531 C 249.956,63.785 229.98,37.862 207.354,31.397 Z"
   id="path359" />
	<path
   style="fill:#ffffff"
   d="m 207.354,185.191 h 70.853 c -0.776,-22.432 -3.879,-43.83 -8.727,-63.16 h -62.125 v 63.16 z"
   id="path361" />
	<path
   style="fill:#ffffff"
   d="m 286.287,291.922 c -7.628,23.984 -18.166,44.412 -30.772,59.992 31.289,-11.895 58.053,-32.97 77.059,-59.992 z"
   id="path363" />
	<path
   style="fill:#ffffff"
   d="m 292.041,122.161 c 4.461,19.459 7.24,40.727 7.887,63.16 h 16.679 c 13.059,-18.23 24.178,-36.331 32.905,-53.85 -1.293,-3.168 -2.715,-6.271 -4.267,-9.244 h -53.204 z"
   id="path365" />
	<path
   style="fill:#ffffff"
   d="m 358.95,160.367 c -4.719,8.275 -9.826,16.549 -15.321,24.824 h 18.877 c -0.518,-8.404 -1.746,-16.679 -3.556,-24.824 z"
   id="path367" />
	<path
   style="fill:#ffffff"
   d="m 300.186,206.977 h -0.129 c 0,0.065 0,0.129 0,0.129 0,0 0,-0.065 0.129,-0.129 z"
   id="path369" />
	<path
   style="fill:#ffffff"
   d="m 256.227,255.979 c 6.788,-6.788 13.382,-13.77 19.717,-20.687 1.164,-9.18 1.939,-18.618 2.327,-28.251 h -70.917 v 63.16 h 34.133 c 4.978,-4.655 9.827,-9.374 14.74,-14.222 z"
   id="path371" />
	<path
   style="fill:#ffffff"
   d="m 185.568,122.161 h -62.125 c -4.848,19.329 -7.952,40.663 -8.727,63.16 h 70.853 v -63.16 z"
   id="path373" />
	<path
   style="fill:#ffffff"
   d="m 60.606,100.375 h 46.222 c 7.628,-23.79 18.101,-44.154 30.513,-59.604 -31.03,11.83 -57.728,32.775 -76.735,59.604 z"
   id="path375" />
	<path
   style="fill:#ffffff"
   d="m 30.481,185.191 h 62.513 c 0.711,-22.432 3.426,-43.636 7.887,-63.16 H 47.548 c -9.632,19.33 -15.58,40.663 -17.067,63.16 z"
   id="path377" />
	<path
   style="fill:#ffffff"
   d="m 100.817,270.136 c -4.461,-19.459 -7.176,-40.727 -7.822,-63.16 H 30.417 c 1.487,22.562 7.434,43.895 16.937,63.16 z"
   id="path379" />
	<path
   style="fill:#ffffff"
   d="m 130.101,100.375 h 55.531 V 31.397 c -22.626,6.465 -42.537,32.388 -55.531,68.978 z"
   id="path381" />
	<path
   style="fill:#ffffff"
   d="m 185.568,206.977 h -70.853 c 0.776,22.432 3.814,43.766 8.663,63.16 h 62.19 z"
   id="path383" />
	<path
   style="fill:#ffffff"
   d="m 296.695,244.989 c -1.228,8.598 -2.715,17.002 -4.59,25.083 h 53.398 c 9.568,-19.265 15.515,-40.598 16.937,-63.16 h -34.392 c -9.438,12.735 -19.846,25.406 -31.353,38.077 z"
   id="path385" />
	<path
   style="fill:#ffffff"
   d="m 185.568,342.928 c -5.43,3.62 -10.667,6.982 -15.968,10.214 5.107,3.814 10.537,6.465 15.968,8.016 z"
   id="path387" />
	<path
   style="fill:#ffffff"
   d="m 185.568,291.922 h -55.661 c 6.335,18.036 14.481,33.487 23.661,45.253 10.343,-6.077 21.01,-13.059 32,-20.881 z"
   id="path389" />
	<path
   style="fill:#ffffff"
   d="m 60.413,291.922 c 17.778,25.212 42.343,45.123 70.982,57.406 1.034,-0.453 1.939,-1.034 2.909,-1.487 -11.184,-14.998 -20.622,-33.939 -27.669,-55.919 z"
   id="path391" />
</g><path
     style="fill:#194f82"
     d="M 376.728,15.946 C 354.296,-6.486 313.116,-5.129 260.558,19.243 240.518,12.003 218.99,7.93 196.429,7.93 92.671,7.995 8.243,92.488 8.243,196.245 c 0,22.497 4.008,44.154 11.313,64.129 -24.436,52.622 -26.44,94.578 -3.362,116.234 30.772,28.832 83.135,12.671 115.911,-3.426 20.105,7.37 41.826,11.378 64.388,11.378 103.758,0 188.25,-84.428 188.25,-188.251 0,-22.497 -3.943,-44.024 -11.184,-64.065 24.825,-54.366 24.567,-94.9 3.169,-116.298 z m -15.386,15.451 c 12.929,12.929 12.671,39.499 -0.129,73.891 C 344.082,74.387 318.482,48.787 287.581,31.656 321.649,18.92 348.542,18.597 361.342,31.397 Z m -44.671,153.794 h -16.679 c -0.711,-22.432 -3.426,-43.636 -7.887,-63.16 h 53.333 c 1.552,3.038 2.909,6.077 4.267,9.244 -8.791,17.585 -19.975,35.75 -33.034,53.916 z m 42.279,-24.824 c 1.745,8.016 2.909,16.291 3.556,24.824 h -18.877 c 5.624,-8.275 10.602,-16.55 15.321,-24.824 z m -58.764,46.61 c -0.065,0.065 -0.065,0.129 -0.129,0.129 0,-0.065 0,-0.129 0,-0.129 z M 286.158,100.375 c -7.628,-23.79 -18.101,-44.154 -30.513,-59.604 31.16,11.895 57.794,32.84 76.735,59.604 z m -78.804,169.761 v -63.16 h 70.853 c -0.323,9.632 -1.164,19.071 -2.327,28.251 -6.335,6.982 -12.929,13.899 -19.717,20.687 -4.848,4.848 -9.762,9.568 -14.61,14.158 h -34.198 v 0.064 z m 9.697,21.786 c -3.168,2.715 -6.4,5.301 -9.568,7.887 v -7.887 z m 52.428,-169.761 c 4.848,19.329 7.952,40.663 8.727,63.16 h -70.853 v -63.16 z M 207.354,100.375 V 31.397 c 22.562,6.4 42.602,32.388 55.531,68.848 h -55.531 z m 0,226.909 c 14.222,-10.667 28.444,-22.497 42.667,-35.362 h 12.994 c -12.994,36.719 -32.97,62.772 -55.661,69.236 z m 48.162,24.565 c 12.606,-15.515 23.079,-36.008 30.772,-59.992 h 46.352 c -19.007,27.023 -45.836,48.097 -77.124,59.992 z m 90.117,-81.713 h -53.398 c 1.875,-8.016 3.297,-16.485 4.59,-25.083 11.507,-12.735 21.915,-25.406 31.418,-38.012 h 34.392 c -1.487,22.497 -7.435,43.831 -17.002,63.095 z m -192,67.039 c -9.244,-11.83 -17.325,-27.281 -23.661,-45.253 h 55.661 v 24.372 c -10.926,7.822 -21.592,14.804 -32,20.881 z m 31.935,5.753 v 18.23 c -5.495,-1.552 -10.796,-4.331 -15.968,-8.016 5.301,-3.297 10.667,-6.658 15.968,-10.214 z m -51.135,4.913 c -1.034,0.517 -2.004,1.034 -2.909,1.487 C 102.821,337.11 78.255,317.069 60.478,291.922 h 46.352 c 6.98,21.98 16.354,40.921 27.603,55.919 z m -11.055,-77.705 c -4.848,-19.329 -7.887,-40.663 -8.663,-63.16 h 70.853 v 63.16 z m -8.598,-84.945 c 0.776,-22.432 3.879,-43.83 8.727,-63.16 h 62.125 v 63.16 z m -7.951,-84.816 H 60.606 C 79.547,73.611 106.182,52.601 137.341,40.771 124.93,56.221 114.457,76.52 106.829,100.375 Z m -5.948,21.786 c -4.461,19.459 -7.24,40.727 -7.887,63.16 H 30.481 c 1.487,-22.562 7.499,-43.895 17.067,-63.16 z m -7.887,84.816 c 0.711,22.432 3.426,43.636 7.822,63.16 H 47.419 C 37.851,250.872 31.904,229.539 30.482,206.977 Z M 185.568,100.375 H 130.037 C 143.096,63.85 163.007,37.862 185.568,31.462 Z M 31.645,361.159 c -12.8,-12.8 -12.541,-39.693 0.129,-73.826 17.067,30.836 42.602,56.307 73.309,73.503 -34.262,12.67 -60.897,12.929 -73.438,0.323 z"
     id="path395" /><g
     id="g433">
	<path
   style="fill:#56ace0"
   d="m 300.186,206.977 h -0.129 c 0,0.065 0,0.129 0,0.129 0,0 0,-0.065 0.129,-0.129 z"
   id="path397" />
	<path
   style="fill:#56ace0"
   d="m 276.914,76.068 c 3.426,7.564 6.594,15.709 9.244,24.178 h 18.36 C 296.372,91.13 287.128,82.985 276.914,76.068 Z"
   id="path399" />
	<path
   style="fill:#56ace0"
   d="m 292.041,122.161 c 4.461,19.459 7.24,40.727 7.887,63.16 h 16.679 c 6.853,-9.568 13.123,-19.071 18.877,-28.509 -3.491,-12.283 -8.598,-23.855 -14.998,-34.651 z"
   id="path401" />
	<path
   style="fill:#56ace0"
   d="m 263.079,291.922 h -12.994 c -14.222,12.929 -28.444,24.76 -42.667,35.362 v 13.123 c 12.024,-0.905 23.725,-3.232 34.78,-6.982 8.081,-11.248 15.063,-25.277 20.881,-41.503 z"
   id="path403" />
	<path
   style="fill:#56ace0"
   d="m 185.568,122.161 h -62.125 c -4.848,19.329 -7.952,40.663 -8.727,63.16 h 70.853 v -63.16 z"
   id="path405" />
	<path
   style="fill:#56ace0"
   d="m 130.101,100.375 h 55.531 V 52.148 c -12.024,0.905 -23.725,3.232 -34.78,6.982 -8.015,11.184 -15.126,25.148 -20.751,41.245 z"
   id="path407" />
	<path
   style="fill:#56ace0"
   d="m 116.202,316.488 c -3.491,-7.758 -6.659,-15.903 -9.438,-24.566 H 88.146 c 8.275,9.309 17.648,17.584 28.056,24.566 z"
   id="path409" />
	<path
   style="fill:#56ace0"
   d="m 185.568,316.359 v -24.372 h -55.661 c 5.689,16.226 12.8,30.319 20.945,41.568 1.939,0.646 3.879,1.228 5.818,1.745 9.439,-5.689 19.072,-11.96 28.898,-18.941 z"
   id="path411" />
	<path
   style="fill:#56ace0"
   d="m 123.378,270.136 h 62.19 v -63.16 h -70.853 c 0.776,22.433 3.879,43.831 8.663,63.16 z"
   id="path413" />
	<path
   style="fill:#56ace0"
   d="m 100.817,270.136 c -4.461,-19.459 -7.176,-40.727 -7.822,-63.16 H 52.267 c 1.681,22.949 8.727,44.347 19.846,63.16 z"
   id="path415" />
	<path
   style="fill:#56ace0"
   d="m 88.469,100.375 h 18.36 c 2.715,-8.598 5.883,-16.614 9.244,-24.178 -10.149,6.788 -19.523,14.933 -27.604,24.178 z"
   id="path417" />
	<path
   style="fill:#56ace0"
   d="m 207.354,100.375 h 55.531 C 257.196,84.278 250.15,70.314 242.069,59.131 231.014,55.446 219.378,53.054 207.289,52.149 v 48.226 z"
   id="path419" />
	<path
   style="fill:#56ace0"
   d="m 92.994,185.191 c 0.711,-22.432 3.426,-43.636 7.887,-63.16 H 72.372 c -11.184,18.683 -18.295,40.21 -20.105,63.16 z"
   id="path421" />
	<path
   style="fill:#56ace0"
   d="m 304.905,291.922 h -18.618 c -2.78,8.663 -5.947,16.873 -9.438,24.566 10.343,-6.982 19.782,-15.257 28.056,-24.566 z"
   id="path423" />
	<path
   style="fill:#56ace0"
   d="m 207.354,291.922 v 7.887 c 3.168,-2.521 6.4,-5.172 9.568,-7.887 z"
   id="path425" />
	<path
   style="fill:#56ace0"
   d="m 328.114,206.977 c -9.503,12.606 -19.911,25.277 -31.418,38.012 -1.228,8.598 -2.715,17.002 -4.59,25.083 h 28.574 c 11.119,-18.683 18.166,-40.21 19.846,-63.16 z"
   id="path427" />
	<path
   style="fill:#56ace0"
   d="m 256.227,255.979 c 6.788,-6.788 13.382,-13.77 19.717,-20.687 1.164,-9.18 1.939,-18.618 2.327,-28.251 h -70.917 v 63.16 h 34.133 c 4.978,-4.655 9.827,-9.374 14.74,-14.222 z"
   id="path429" />
	<path
   style="fill:#56ace0"
   d="m 269.479,122.161 h -62.125 v 63.095 h 70.853 c -0.776,-22.497 -3.879,-43.766 -8.728,-63.095 z"
   id="path431" />
</g></g></g>
</g>
</svg>
