<?xml version="1.0" encoding="UTF-8" standalone="no"?>
<!-- Uploaded to: SVG Repo, www.svgrepo.com, Generator: SVG Repo Mixer Tools -->

<svg
   fill="#000000"
   version="1.1"
   id="Capa_1"
   width="720.18304"
   height="386.93759"
   viewBox="0 0 194.98146 104.759"
   xml:space="preserve"
   sodipodi:docname="personal-data-visualization-in-a-laptop-monitor-svgrepo-com.svg"
   inkscape:version="1.2.2 (b0a8486541, 2022-12-01)"
   xmlns:inkscape="http://www.inkscape.org/namespaces/inkscape"
   xmlns:sodipodi="http://sodipodi.sourceforge.net/DTD/sodipodi-0.dtd"
   xmlns="http://www.w3.org/2000/svg"
   xmlns:svg="http://www.w3.org/2000/svg"><defs
   id="defs423" /><sodipodi:namedview
   id="namedview421"
   pagecolor="#ffffff"
   bordercolor="#000000"
   borderopacity="0.25"
   inkscape:showpageshadow="2"
   inkscape:pageopacity="0.0"
   inkscape:pagecheckerboard="0"
   inkscape:deskcolor="#d1d1d1"
   showgrid="false"
   inkscape:zoom="0.67375"
   inkscape:cx="309.46197"
   inkscape:cy="169.20223"
   inkscape:window-width="1366"
   inkscape:window-height="675"
   inkscape:window-x="0"
   inkscape:window-y="0"
   inkscape:window-maximized="1"
   inkscape:current-layer="Capa_1" />
<g
   id="g418"
   transform="matrix(0.88397525,0,0,0.48297776,1.2589628,20.255764)">
	<g
   id="g416">
		<path
   d="m 30.784,157.895 h 155.021 c 7.24,0 13.129,-5.882 13.129,-13.128 V 54.76 c 0,-7.246 -5.895,-13.131 -13.129,-13.131 H 30.784 c -7.237,0 -13.125,5.885 -13.125,13.131 v 90.007 c -0.007,7.246 5.888,13.128 13.125,13.128 z M 24.719,54.76 c 0,-3.349 2.719,-6.074 6.064,-6.074 h 155.021 c 3.35,0 6.065,2.725 6.065,6.074 v 90.007 c 0,3.349 -2.716,6.077 -6.065,6.077 H 30.784 c -3.346,0 -6.064,-2.729 -6.064,-6.077 V 54.76 Z"
   id="path400" />
		<path
   d="m 128.304,161.536 v 5.2 H 88.287 v -5.2 H 0 c 0,7.404 4.311,13.427 9.597,13.427 h 197.398 c 5.285,0 9.597,-6.028 9.597,-13.427 z"
   id="path402" />
		<path
   d="m 88.174,120.495 c 0,-7.002 -8.068,-16.471 -18.962,-19.232 4.552,-3.057 7.688,-9.104 7.688,-14.541 0,-7.676 -6.217,-13.904 -13.898,-13.904 -7.675,0 -13.898,6.229 -13.898,13.904 0,5.438 3.136,11.484 7.675,14.541 -10.872,2.762 -18.946,12.23 -18.946,19.232 0.005,8.281 50.341,8.281 50.341,0 z M 61.887,105.303 h -0.064 l -2.299,-2.652 c 1.121,0.402 2.269,0.652 3.483,0.652 1.218,0 2.366,-0.238 3.486,-0.637 l -2.308,2.637 H 64.13 l 5.943,14.353 -7.067,7.051 -7.057,-7.051 z"
   id="path404" />
		<path
   d="m 96.2,68.938 h 79.533 c 1.681,0 3.021,-1.346 3.021,-3.018 0,-1.671 -1.346,-3.026 -3.021,-3.026 H 96.2 c -1.678,0 -3.018,1.361 -3.018,3.026 -0.006,1.673 1.34,3.018 3.018,3.018 z"
   id="path406" />
		<path
   d="m 96.2,85.86 h 79.533 c 1.681,0 3.021,-1.352 3.021,-3.018 0,-1.678 -1.346,-3.023 -3.021,-3.023 H 96.2 c -1.678,0 -3.018,1.352 -3.018,3.023 -0.006,1.673 1.34,3.018 3.018,3.018 z"
   id="path408" />
		<path
   d="m 96.2,102.785 h 79.533 c 1.681,0 3.021,-1.355 3.021,-3.015 0,-1.674 -1.346,-3.023 -3.021,-3.023 H 96.2 c -1.678,0 -3.018,1.355 -3.018,3.023 -0.006,1.66 1.34,3.015 3.018,3.015 z"
   id="path410" />
		<path
   d="m 96.2,119.716 h 79.533 c 1.681,0 3.021,-1.352 3.021,-3.021 0,-1.681 -1.346,-3.026 -3.021,-3.026 H 96.2 c -1.678,0 -3.018,1.358 -3.018,3.026 -0.006,1.669 1.34,3.021 3.018,3.021 z"
   id="path412" />
		<path
   d="m 96.2,136.644 h 38.846 c 1.668,0 3.008,-1.364 3.008,-3.021 0,-1.681 -1.352,-3.021 -3.008,-3.021 H 96.2 c -1.678,0 -3.018,1.353 -3.018,3.021 -0.006,1.656 1.34,3.021 3.018,3.021 z"
   id="path414" />
	</g>
</g>
<g
   id="g572"
   transform="matrix(0.06426567,0,0,0.05184806,-0.01677334,0.7406531)"><path
     style="fill:#ffd15c"
     d="m 501.812,481.176 c 0,6.269 -2.09,11.494 -6.269,15.673 -4.18,3.135 -8.359,5.224 -14.629,5.224 H 21.159 c -5.224,0 -10.449,-2.09 -14.629,-5.224 -4.18,-4.18 -6.269,-9.404 -6.269,-15.673 V 175.02 h 501.551 z"
     id="path549" /><path
     style="fill:#f8b64c"
     d="m 495.543,496.849 c -4.18,3.135 -8.359,5.224 -14.629,5.224 H 21.159 c -5.224,0 -10.449,-2.09 -14.629,-5.224 L 251.036,286.825 Z"
     id="path551" /><path
     style="fill:#40596b"
     d="m 501.812,175.02 -71.053,51.2 -166.139,119.119 c -8.359,6.269 -19.853,6.269 -28.212,0 L 71.314,226.22 0.261,175.02 71.314,123.82 225.959,13.061 237.453,4.702 c 8.359,-6.269 19.853,-6.269 28.212,0 l 11.494,8.359 74.188,53.29 36.571,26.122 42.841,31.347 z"
     id="path553" /><path
     style="fill:#f2f2f2"
     d="M 430.759,77.845 V 226.22 L 264.62,345.339 c -8.359,6.269 -19.853,6.269 -28.212,0 L 71.314,226.22 V 33.959 c 0,-11.494 9.404,-20.898 20.898,-20.898 H 364.93 Z"
     id="path555" /><path
     style="fill:#cdd6e0"
     d="m 365.975,61.127 c 0,9.404 7.314,16.718 16.718,16.718 h 48.065 L 365.974,13.061 Z"
     id="path557" /><path
     style="fill:#ff7058"
     d="m 312.686,223.086 h 16.718 c -5.224,11.494 -13.584,19.853 -25.078,26.122 -12.539,7.314 -28.212,10.449 -47.02,10.449 -17.763,0 -33.437,-3.135 -45.976,-9.404 -12.539,-6.269 -22.988,-14.629 -29.257,-27.167 -6.269,-11.494 -9.404,-25.078 -9.404,-38.661 0,-15.673 3.135,-29.257 10.449,-42.841 7.314,-13.584 16.718,-22.988 29.257,-29.257 12.539,-6.269 27.167,-9.404 42.841,-9.404 13.584,0 26.122,3.135 36.571,8.359 10.449,5.224 18.808,12.539 24.033,22.988 5.224,9.404 8.359,20.898 8.359,32.392 0,13.584 -4.18,26.122 -12.539,37.616 -10.449,14.629 -24.033,20.898 -40.751,20.898 -4.18,0 -8.359,-1.045 -10.449,-2.09 -2.09,-2.09 -4.18,-4.18 -4.18,-7.314 -6.269,6.269 -13.584,9.404 -21.943,9.404 -9.404,0 -16.718,-3.135 -21.943,-9.404 -6.269,-6.269 -9.404,-14.629 -9.404,-25.078 0,-12.539 3.135,-24.033 10.449,-35.527 8.359,-12.539 19.853,-18.808 33.437,-18.808 9.404,0 16.718,4.18 21.943,11.494 l 2.09,-9.404 h 21.943 l -12.539,58.514 c -1.045,4.18 -1.045,6.269 -1.045,7.314 0,1.045 0,2.09 1.045,3.135 1.045,1.045 1.045,1.045 2.09,1.045 2.09,0 6.269,-2.09 10.449,-5.224 5.224,-4.18 10.449,-9.404 13.584,-16.718 3.135,-7.314 5.224,-14.629 5.224,-21.943 0,-13.584 -5.224,-25.078 -14.629,-33.437 -9.404,-9.404 -22.988,-13.584 -40.751,-13.584 -14.629,0 -27.167,3.135 -37.616,9.404 -10.449,6.269 -17.763,14.629 -22.988,25.078 -5.225,10.449 -7.314,21.943 -7.314,34.482 0,11.494 3.135,21.943 8.359,31.347 6.269,9.404 13.584,16.718 24.033,20.898 10.449,4.18 21.943,6.269 35.527,6.269 12.539,0 24.033,-2.09 33.437,-5.224 9.404,-4.181 16.718,-9.405 22.988,-16.719 z m -88.817,-33.437 c 0,7.314 1.045,11.494 4.18,15.673 3.135,3.135 6.269,5.224 10.449,5.224 3.135,0 6.269,-1.045 8.359,-2.09 2.09,-1.045 4.18,-3.135 6.269,-5.224 3.135,-3.135 5.225,-8.359 7.314,-14.629 2.09,-6.269 3.135,-12.539 3.135,-17.763 0,-6.269 -1.045,-10.449 -4.18,-14.629 -3.135,-3.135 -6.269,-5.224 -10.449,-5.224 -4.18,0 -9.404,2.09 -12.539,5.224 -4.18,3.135 -7.314,8.359 -9.404,15.673 -2.089,6.271 -3.134,12.54 -3.134,17.765 z"
     id="path559" /></g><g
   id="g588"
   transform="matrix(0.0628761,0,0,0.0439824,43.203794,3.3707371)"><polygon
     style="fill:#3089f3"
     points="431.158,480.561 512,336.842 155.396,336.842 80.842,480.561 "
     id="polygon574" /><polygon
     style="fill:#00a76a"
     points="245.221,164.379 170.667,31.439 0,318.877 80.842,480.561 "
     id="polygon576" /><polygon
     style="fill:#fdd446"
     points="512,336.842 332.351,31.439 170.667,31.439 341.333,336.842 "
     id="polygon578" /></g><g
   id="g601"
   transform="matrix(0.04603463,0,0,0.05067252,87.449441,1.6512711)"><path
     style="fill:#4d6fa9"
     d="M 476.69,512 H 35.31 C 15.89,512 0,496.11 0,476.69 V 35.31 C 0,15.89 15.89,0 35.31,0 H 476.69 C 496.11,0 512,15.89 512,35.31 V 476.69 C 512,496.11 496.11,512 476.69,512"
     id="path590" /><path
     style="fill:#ffffff"
     d="m 432.552,88.276 v 88.276 h -79.448 c -9.71,0 -17.655,7.945 -17.655,17.655 v 52.966 h 88.276 v 88.276 H 335.449 V 512 H 247.173 V 335.448 h -70.621 v -88.276 h 70.621 v -52.966 c 0,-55.614 42.372,-101.517 97.103,-105.931 h 88.276 z"
     id="path592" /></g><g
   transform="matrix(0.05347695,0,0,0.06025754,123.10052,-0.3268369)"
   id="g609">
	<path
   style="fill:#007aaa"
   d="m 61.813,5.424 c 33.545,0 61.793,28.248 61.793,61.793 0,35.31 -30.014,62.676 -61.793,61.793 C 29.151,129.893 0.02,102.527 0.02,67.217 -0.863,32.789 27.386,5.424 61.813,5.424"
   id="path603" />
	<path
   style="fill:#007aaa"
   d="M 96.241,508.596 H 25.62 c -9.71,0 -17.655,-7.945 -17.655,-17.655 V 181.976 c 0,-9.71 7.062,-17.655 16.772,-17.655 H 96.24 c 9.71,0 17.655,7.945 17.655,17.655 v 309.848 c 0.001,8.827 -7.944,16.772 -17.654,16.772"
   id="path605" />
	<path
   style="fill:#007aaa"
   d="m 511.137,272.017 c 0,-65.324 -48.552,-116.524 -113.876,-116.524 h -18.538 c -35.31,0 -69.738,16.772 -88.276,44.138 -6.179,6.179 -8.828,8.828 -8.828,8.828 v -35.31 c 0,-3.531 -5.297,-8.828 -8.828,-8.828 h -88.276 c -3.531,0 -8.828,3.531 -8.828,7.945 v 329.269 c 0,3.531 5.297,7.062 8.828,7.062 h 97.103 c 3.531,0 8.828,-3.531 8.828,-7.062 V 310.858 c 0,-32.662 24.717,-60.028 57.379,-60.91 16.772,0 31.779,6.179 43.255,17.655 10.593,10.593 15.007,25.6 15.007,42.372 v 189.793 c 0,3.531 5.297,8.828 8.828,8.828 h 88.276 c 3.531,0 8.828,-5.297 8.828,-8.828 V 272.017 Z"
   id="path607" />
</g><g
   id="XMLID_1038_"
   transform="matrix(0.08290443,0,0,0.07886106,156.84542,0.5953461)">
	<g
   id="XMLID_1215_">
		<path
   id="XMLID_1943_"
   style="fill:#de3e30"
   d="M 281.682,214.742 H 178.318 c -11.874,0 -21.5,-9.626 -21.5,-21.5 v -62.909 h 146.364 v 62.909 c 0,11.874 -9.626,21.5 -21.5,21.5 z" />
	</g>
	<path
   id="XMLID_2096_"
   style="opacity:0.49;fill:#d0d5d9"
   d="m 281.802,130.333 v 42.656 c 0,12.302 -9.973,22.275 -22.275,22.275 H 157.713 c -0.238,0 -0.469,-0.028 -0.706,-0.036 1.363,10.996 10.721,19.513 22.086,19.513 h 101.814 c 12.302,0 22.275,-9.973 22.275,-22.275 v -62.134 h -21.38 z" />
	<g
   id="XMLID_1213_">
		<path
   id="XMLID_459_"
   style="fill:#f9b65f"
   d="m 259.292,130.333 v -26.864 c 0,-16.177 -13.114,-29.292 -29.292,-29.292 -16.178,0 -29.292,13.114 -29.292,29.292 v 26.864 H 177.727 V 99.94 c 0,-28.869 23.403,-52.273 52.273,-52.273 28.87,0 52.273,23.403 52.273,52.273 v 30.394 h -22.981 z" />
	</g>
	<g
   id="XMLID_1212_">
		<path
   id="XMLID_3073_"
   style="fill:#ffffff"
   d="m 230,190.452 c -4.292,0 -7.77,-3.479 -7.77,-7.77 v -20.909 c 0,-4.291 3.478,-7.77 7.77,-7.77 4.292,0 7.77,3.479 7.77,7.77 v 20.909 c 0,4.291 -3.478,7.77 -7.77,7.77 z" />
	</g>
	<g
   id="XMLID_2831_">
		<path
   id="XMLID_1942_"
   style="fill:#86c867"
   d="M 35.743,265.969 C 16.003,265.969 0,281.972 0,301.713 v 74.877 c 0,19.74 16.003,35.743 35.743,35.743 H 349.144 V 265.969 Z" />
	</g>
	<path
   id="XMLID_1017_"
   style="opacity:0.49;fill:#d0d5d9"
   d="m 48.176,391.283 c -19.74,0 -35.743,-16.003 -35.743,-35.743 v -74.877 c 0,-2.242 0.216,-4.432 0.611,-6.559 C 5.079,280.658 0,290.592 0,301.713 v 74.877 c 0,19.74 16.003,35.743 35.743,35.743 h 313.401 v -21.05 z" />
	<g
   id="XMLID_2832_">
		<path
   id="XMLID_1941_"
   style="fill:#6aac4b"
   d="m 424.257,265.969 h -75.113 v 146.364 h 75.113 c 19.74,0 35.743,-16.003 35.743,-35.743 v -74.877 c 0,-19.741 -16.003,-35.744 -35.743,-35.744 z" />
	</g>
	<path
   id="XMLID_2095_"
   style="opacity:0.49;fill:#d0d5d9"
   d="m 424.257,391.283 h -75.113 v 21.05 h 75.113 c 19.74,0 35.743,-16.003 35.743,-35.743 v -21.05 c 0,19.74 -16.003,35.743 -35.743,35.743 z" />
	<g
   id="XMLID_1087_">
		<path
   id="XMLID_3072_"
   style="fill:#ffffff"
   d="m 390.35,373.058 c -1.989,0 -3.977,-0.758 -5.495,-2.276 -3.034,-3.034 -3.034,-7.954 0,-10.989 l 20.643,-20.642 -20.643,-20.642 c -3.034,-3.034 -3.034,-7.954 0,-10.989 3.035,-3.034 7.954,-3.034 10.99,0 l 26.137,26.137 c 1.457,1.457 2.275,3.433 2.275,5.494 0,2.061 -0.818,4.037 -2.275,5.494 l -26.137,26.136 c -1.518,1.518 -3.507,2.277 -5.495,2.277 z" />
	</g>
	<g
   id="XMLID_1088_">
		<circle
   id="XMLID_1940_"
   style="fill:#ecf0f1"
   cx="64.571999"
   cy="339.151"
   r="20.294001" />
	</g>
	<g
   id="XMLID_1090_">
		<circle
   id="XMLID_1939_"
   style="fill:#ecf0f1"
   cx="125.455"
   cy="339.151"
   r="20.294001" />
	</g>
	<g
   id="XMLID_1091_">
		<circle
   id="XMLID_1938_"
   style="fill:#ecf0f1"
   cx="186.33701"
   cy="339.151"
   r="20.294001" />
	</g>
	<g
   id="XMLID_1092_">
		<path
   id="XMLID_3071_"
   style="fill:#ffffff"
   d="m 271.818,346.921 h -31.363 c -4.292,0 -7.77,-3.479 -7.77,-7.77 0,-4.291 3.478,-7.77 7.77,-7.77 h 31.363 c 4.292,0 7.77,3.479 7.77,7.77 0,4.291 -3.478,7.77 -7.77,7.77 z" />
	</g>
</g></svg>
