<?xml version="1.0" encoding="UTF-8" standalone="no"?>
<!-- Uploaded to: SVG Repo, www.svgrepo.com, Generator: SVG Repo Mixer Tools -->

<svg
   fill="#000000"
   version="1.1"
   id="Capa_1"
   width="800px"
   height="800px"
   viewBox="0 0 31.699 31.699"
   xml:space="preserve"
   sodipodi:docname="pishing.svg"
   inkscape:version="1.2.2 (b0a8486541, 2022-12-01)"
   xmlns:inkscape="http://www.inkscape.org/namespaces/inkscape"
   xmlns:sodipodi="http://sodipodi.sourceforge.net/DTD/sodipodi-0.dtd"
   xmlns="http://www.w3.org/2000/svg"
   xmlns:svg="http://www.w3.org/2000/svg"><defs
   id="defs17" /><sodipodi:namedview
   id="namedview15"
   pagecolor="#ffffff"
   bordercolor="#000000"
   borderopacity="0.25"
   inkscape:showpageshadow="2"
   inkscape:pageopacity="0.0"
   inkscape:pagecheckerboard="0"
   inkscape:deskcolor="#d1d1d1"
   showgrid="false"
   inkscape:zoom="0.67375"
   inkscape:cx="346.56772"
   inkscape:cy="163.26531"
   inkscape:window-width="1366"
   inkscape:window-height="675"
   inkscape:window-x="0"
   inkscape:window-y="0"
   inkscape:window-maximized="1"
   inkscape:current-layer="Capa_1" />
<g
   id="g12"
   transform="matrix(0.53301202,0,0,1.0298795,0,-0.84379786)">
	<g
   id="g10">
		<circle
   cx="13.352"
   cy="6.4590001"
   r="2.8310001"
   id="circle2" />
		<path
   d="m 11.025,15.413 c 0.943,0.657 2.062,0.985 3.347,0.985 0.701,0 2.918,-0.482 3.446,-0.652 0.597,-0.205 0.895,-0.493 1.074,-0.845 0.221,-0.592 0.115,-1.217 0.115,-1.217 -0.179,-1.11 -1.263,-1.362 -2.105,-1.057 -1.257,0.449 -2.972,0.836 -4.007,0.126 -0.438,-0.3 -0.713,-0.768 -0.885,-1.222 C 12.268,10.679 12.102,9.719 11.483,8.989 10.514,7.849 8.907,7.847 7.665,8.68 c -2.132,1.43 -3.787,6.502 -3.787,9.357 0.01,0.002 -0.085,1.398 1.478,1.533 0.469,0.024 4.573,0.014 5.865,0.01 0.005,0.023 0.012,0.066 0.012,0.137 -0.005,1.182 10e-4,5.48 0.004,7.475 10e-4,0.564 0.46,1.021 1.026,1.021 h 1.016 c 0.273,0 0.534,-0.105 0.726,-0.301 0.192,-0.193 0.3,-0.453 0.3,-0.727 -0.003,-1.992 -0.009,-6.281 -0.005,-7.457 0.009,-2.091 -1.584,-3.062 -2.657,-3.203 L 11.435,16.51 c -0.614,0.002 -1.346,0.004 -2.082,0.006 0.168,-0.805 0.415,-1.471 0.674,-2.01 0.279,0.327 0.608,0.634 0.998,0.907 z"
   id="path4" />
		<path
   d="M 3.071,6.738 C 3.071,5.89 2.383,5.204 1.536,5.204 0.688,5.204 0,5.891 0,6.738 v 15.339 c 0,0.791 0.601,1.441 1.371,1.521 0.001,0.005 0.003,0.007 0.005,0.007 h 0.55 v 3.586 c 0,0.563 0.451,1.022 1.015,1.022 0.565,0 1.015,-0.457 1.015,-1.022 v -3.586 h 3.228 v 3.586 c 0,0.563 0.451,1.022 1.016,1.022 0.564,0 1.015,-0.457 1.015,-1.022 v -3.586 h 0.989 v -3.07 H 3.071 Z"
   id="path6" />
		<path
   d="m 30.689,16.942 c -0.234,-1.207 -1.008,-2.224 -2.062,-2.781 v -0.968 h 1.457 V 6.445 L 24.517,4.449 V 3.46 h -2.031 v 10.256 h 2.031 v -0.521 h 1.041 v 0.696 c -1.379,0.439 -2.428,1.606 -2.709,3.052 h -6.488 c -0.565,0 -1.023,0.477 -1.023,1.041 0,0.565 0.458,1.041 1.023,1.041 h 2.063 v 9.215 h 11.244 v -9.215 h 1.007 c 0.564,0 1.023,-0.476 1.023,-1.041 0.004,-0.561 -0.448,-1.036 -1.009,-1.042 z"
   id="path8" />
	</g>
</g>
<g
   id="g303"
   transform="matrix(0.02499036,0,0,0.03037585,16.696315,1.278163)"><path
     style="fill:#8cc153"
     d="m 469.387,252.001 c -1.625,-3.914 -5.421,-6.453 -9.655,-6.453 H 376.14 c -4.233,0 -8.046,2.539 -9.64,6.453 -1.625,3.898 -0.734,8.39 2.266,11.382 l 41.796,41.795 c 1.952,1.953 4.608,3.062 7.374,3.062 2.766,0 5.438,-1.109 7.39,-3.062 l 41.796,-41.795 c 2.984,-2.992 3.875,-7.483 2.265,-11.382 z"
     id="path253" /><path
     style="fill:#656d78"
     d="m 439.56,383.676 -1.781,-0.5 c -25.921,-6.969 -34.686,-13.655 -46.232,-18.046 -40.935,-15.609 -51.591,-26.858 -54.31,-32.155 -0.109,-0.203 -0.188,-0.391 -0.281,-0.594 l -0.344,-47.561 -97.09,-1.094 -97.121,1.094 -0.328,47.561 c -0.094,0.203 -0.172,0.391 -0.266,0.594 -2.719,5.297 -13.375,16.546 -54.311,32.155 -11.546,4.391 -20.312,11.077 -46.248,18.046 l -1.781,0.5 C 15.859,391.471 0,413.377 0,438.08 v 68.669 h 239.522 178.415 l 61.107,-68.669 c 0,-24.703 -15.874,-46.609 -39.484,-54.404 z"
     id="path255" /><path
     style="fill:#dbafa5"
     d="m 337.237,332.974 c -0.109,-0.203 -0.188,-0.391 -0.281,-0.594 l -0.344,-47.561 -97.09,-1.094 -97.121,1.094 -0.328,47.561 c -0.094,0.203 -0.172,0.391 -0.266,0.594 -2.578,5.031 -12.312,15.422 -48.358,29.827 20.531,13.53 69.326,39.044 145.401,39.044 74.95,0 125.87,-24.779 148.259,-38.45 -37.278,-14.703 -47.263,-25.311 -49.872,-30.421 z"
     id="path257" /><path
     style="fill:#eac6bb"
     d="m 374.266,192.355 c 0,87.543 -83.465,168.118 -134.745,168.118 -51.295,0 -134.745,-80.575 -134.745,-168.118 0,-87.552 60.326,-145.314 134.745,-145.314 74.419,0 134.745,57.762 134.745,145.314 z"
     id="path259" /><g
     id="g265">
	<path
   style="fill:#434a54"
   d="m 398.875,368.286 c -2.438,-1.156 -4.828,-2.203 -7.328,-3.156 -6.188,-2.359 -11.672,-4.625 -16.562,-6.766 -5.891,3.281 -13.14,6.953 -21.701,10.625 -23.922,10.218 -63.201,22.404 -114.434,22.404 -51.123,0 -89.043,-12.124 -111.871,-22.295 -8.765,-3.891 -16.031,-7.812 -21.765,-11.266 -5.171,2.312 -11.031,4.75 -17.718,7.297 -1.922,0.719 -3.765,1.516 -5.625,2.359 6.718,4.874 18.624,12.608 35.608,20.248 24.843,11.203 66.044,24.546 121.37,24.546 55.233,0 97.668,-13.312 123.542,-24.468 16.953,-7.326 29.218,-14.685 36.484,-19.528 z"
   id="path261" />
	<polygon
   style="fill:#434a54"
   points="0,464.969 455.123,464.969 473.731,444.063 0,444.063 "
   id="polygon263" />
</g><path
     style="fill:#ed5564"
     d="m 374.266,192.355 c 0,-10.585 -0.906,-20.733 -2.578,-30.397 H 107.339 c -1.672,9.664 -2.562,19.812 -2.562,30.397 0,10.921 1.297,21.733 3.672,32.295 h 262.146 c 2.374,-10.561 3.671,-21.373 3.671,-32.295 z"
     id="path267" /><g
     id="g273">
	<path
   style="fill:#eac6bb"
   d="m 323.096,193.301 c 0,11.539 -14.03,20.905 -31.342,20.905 -17.312,0 -31.344,-9.367 -31.344,-20.905 0,-11.538 14.031,-20.897 31.344,-20.897 17.312,-0.001 31.342,9.358 31.342,20.897 z"
   id="path269" />
	<path
   style="fill:#eac6bb"
   d="m 218.616,193.301 c 0,11.539 -14.015,20.905 -31.342,20.905 -17.312,0 -31.343,-9.367 -31.343,-20.905 0,-11.538 14.031,-20.897 31.343,-20.897 17.327,-0.001 31.342,9.358 31.342,20.897 z"
   id="path271" />
</g><path
     style="fill:#a0d468"
     d="m 485.761,332.193 c -19.046,-28.921 -43.139,-44.857 -67.825,-44.857 -24.686,0 -48.764,15.937 -67.824,44.857 -16.156,24.53 -26.203,55.388 -26.203,80.527 0,51.842 42.186,94.028 94.027,94.028 51.857,0 94.044,-42.187 94.044,-94.028 0,-25.139 -10.047,-55.997 -26.219,-80.527 z"
     id="path275" /><path
     style="fill:#ccd1d9"
     d="m 417.936,464.969 c -5.766,0 -10.452,-4.672 -10.452,-10.452 v -104.48 c 0,-5.78 4.687,-10.452 10.452,-10.452 5.765,0 10.452,4.672 10.452,10.452 v 104.48 c 0,5.78 -4.686,10.452 -10.452,10.452 z"
     id="path277" /><path
     style="fill:#656d78"
     d="M 374.266,191.324 C 370.454,99.71 369.235,74.29 319.878,35.033 239.522,-28.895 115.543,29.916 115.543,29.916 l 22.39,15.687 c 0,0 -81.934,54.115 -61.356,189.5 2.531,16.632 115.542,-112.988 235.756,-105.926 z"
     id="path279" /><path
     style="fill:#e6e9ed"
     d="m 386.594,444.079 c -5.781,0 -10.438,-4.671 -10.438,-10.437 -0.016,-5.781 4.656,-10.453 10.438,-10.453 h 37.468 l -44.858,-44.857 c -2.984,-3 -3.875,-7.483 -2.266,-11.39 1.609,-3.907 5.422,-6.453 9.656,-6.453 h 62.686 c 5.766,0 10.453,4.672 10.453,10.438 0,5.78 -4.688,10.452 -10.453,10.452 h -37.468 l 44.858,44.857 c 2.984,3 3.875,7.484 2.25,11.391 -1.609,3.906 -5.406,6.452 -9.641,6.452 z"
     id="path281" /></g></svg>
