<?xml version="1.0" encoding="utf-8"?>
<!-- Generator: Adobe Illustrator 27.5.0, SVG Export Plug-In . SVG Version: 6.00 Build 0)  -->
<svg version="1.1" xmlns="http://www.w3.org/2000/svg" xmlns:xlink="http://www.w3.org/1999/xlink" x="0px" y="0px"
	 viewBox="0 0 500 500" style="enable-background:new 0 0 500 500;" xml:space="preserve">
<g id="BACKGROUND">
	<rect transform="matrix(-1 -1.224647e-16 1.224647e-16 -1 500 500)" style="fill:#F8FFFF;" width="500" height="500"/>
</g>
<g id="OBJECTS">
	<g>
		<g>
			<g>
				<ellipse style="fill:#E4EFEE;" cx="150.218" cy="412.876" rx="34.156" ry="4.705"/>
				<ellipse style="fill:#E4EFEE;" cx="245.486" cy="412.876" rx="34.156" ry="4.705"/>
				<ellipse style="fill:#E4EFEE;" cx="361.535" cy="412.876" rx="34.156" ry="4.705"/>
			</g>
			<g>
				<g>
					<path style="fill:#5FCECE;" d="M417.271,396.201c-13.91-36.167-49.221-39.196-49.221-39.196
						c-0.117,16.778,3.211,29.518,8.275,39.196H417.271z"/>
					<path style="fill:#73E2E5;" d="M441.447,396.201c15.648-34.798-1.835-65.236-1.835-65.236
						c-31.768,21.743-41.035,45.722-41.818,65.236H441.447z"/>
					<path style="fill:#5FCECE;" d="M417.271,396.201c0,0,11.191-39.235,19.048-52.486c0,0-8.871,37.368-15.461,52.486H417.271z"/>
				</g>
				<g>
					<path style="fill:#5FCECE;" d="M171.278,396.201c-7.672-19.946-27.146-21.617-27.146-21.617
						c-0.064,9.253,1.771,16.28,4.564,21.617H171.278z"/>
					<path style="fill:#73E2E5;" d="M189.97,396.201c8.283-16.94,4.602-33.03,4.602-33.03c-24.342,7.639-35.704,20.691-40.771,33.03
						H189.97z"/>
					<path style="fill:#5FCECE;" d="M173.866,396.201c7.318-10.501,15.854-25.096,15.854-25.096
						c-5.387,4.913-14.184,17.393-19.404,25.096H173.866z"/>
				</g>
				<g>
					<path style="fill:#5FCECE;" d="M120.293,396.201c4.791-12.272,6.144-28.667-0.641-50.246c0,0-31.916,12.876-35.417,50.246
						H120.293z"/>
					<path style="fill:#73E2E5;" d="M102.332,396.201c-4.033-16.126-16.229-35.244-49.366-45.584c0,0-5.388,23.67,9.88,45.584
						H102.332z"/>
					<path style="fill:#5FCECE;" d="M78.195,396.201c0,0-13.413-21.393-17.811-32.168c0,0,15.392,21.457,21.329,32.168H78.195z"/>
				</g>
			</g>
			<g>
				<path style="fill:#CAFFFC;" d="M350.8,119.524c-1.42-4.145-4.915-7.326-9.25-8.299c-2.377-7.974-9.761-13.789-18.507-13.789
					c-6.775,0-12.731,3.491-16.178,8.77c-0.098-0.002-0.193-0.015-0.292-0.015c-5.903,0-11.001,3.396-13.483,8.333
					c-3.564,0.078-6.651,2.076-8.275,5H350.8z"/>
				<path style="fill:#CAFFFC;" d="M142.464,200.046c-1.727-5.042-5.979-8.911-11.252-10.095
					c-2.891-9.699-11.873-16.772-22.512-16.772c-8.241,0-15.486,4.247-19.679,10.667c-0.119-0.002-0.235-0.018-0.355-0.018
					c-7.18,0-13.381,4.131-16.4,10.137c-4.336,0.094-8.091,2.525-10.066,6.081H142.464z"/>
				<path style="fill:#CAFFFC;" d="M437.926,282.36c-1.727-5.042-5.979-8.911-11.252-10.095
					c-2.891-9.699-11.873-16.773-22.512-16.773c-8.241,0-15.486,4.247-19.679,10.667c-0.119-0.002-0.235-0.018-0.355-0.018
					c-7.18,0-13.381,4.131-16.4,10.137c-4.336,0.094-8.091,2.525-10.066,6.081H437.926z"/>
			</g>
			<path style="fill:#73E2E5;" d="M81.404,331.257c-0.846,0-0.845-1.313,0-1.313C82.25,329.944,82.249,331.257,81.404,331.257z
				 M89.974,315.484c-0.905,0-0.906,1.406,0,1.406C90.879,316.89,90.88,315.484,89.974,315.484z M73.841,308.036
				c-0.335-0.456-0.899-0.456-1.235,0c-0.236,0.321-0.217,0.589-0.151,0.962c0.134,0.76,1.403,0.761,1.537,0
				C74.059,308.62,74.074,308.353,73.841,308.036z M89.195,283.354c-1.146,0-1.148,1.781,0,1.781
				C90.341,285.136,90.343,283.354,89.195,283.354z M429.692,229.32c0,0.484-0.304,0.919-0.742,1.103
				c-0.482,0.203-0.927,0.059-1.319-0.25c-0.036-0.029-0.073-0.057-0.109-0.086c-0.423-0.333-0.425-1.2,0-1.535
				c0.036-0.029,0.072-0.057,0.109-0.086c0.428-0.338,0.954-0.486,1.463-0.189C429.453,228.487,429.692,228.904,429.692,229.32z
				 M415.241,221.051c-1.116,0-1.118,1.734,0,1.734C416.357,222.786,416.359,221.051,415.241,221.051z M420.481,209.979
				c-0.052,0.022-0.104,0.044-0.156,0.066c-0.733,0.31-0.733,1.622,0,1.932c0.052,0.022,0.104,0.044,0.156,0.066
				c0.803,0.339,1.799-0.038,1.799-1.032C422.279,210.017,421.284,209.64,420.481,209.979z M419.136,190.667
				c-1.116,0-1.118,1.734,0,1.734C420.252,192.401,420.254,190.667,419.136,190.667z"/>
		</g>
		<g>
			<g>
				<path style="fill:#12979E;" d="M276.308,357.656c0,17.342-14.058,31.4-31.4,31.4c-17.342,0-31.4-14.058-31.4-31.4
					c0-17.342,14.058-31.4,31.4-31.4C262.249,326.256,276.308,340.314,276.308,357.656z M196.826,308.312L196.826,308.312
					c2.219,2.219,4.88,3.853,7.732,4.834c5.006,1.723,10.601,1.44,15.427-1.21c7.404-4.065,15.893-6.384,24.921-6.384
					c9.028,0,17.518,2.319,24.922,6.384c5.604,3.076,12.243,2.964,17.793,0.224c1.955-0.965,3.774-2.255,5.366-3.847l0,0
					c5.01-5.01,6.688-11.877,5.362-18.127c-1.135-5.349-4.469-10.247-9.795-13.145c-12.985-7.065-27.854-11.084-43.649-11.084
					c-15.794,0-30.663,4.019-43.648,11.084c-6.287,3.421-9.798,9.628-10.193,16.074
					C190.736,298.511,192.589,304.075,196.826,308.312z M110.355,221.841l0.069,0.07c4.43,4.43,10.515,6.371,16.359,5.666
					c3.507-0.423,6.926-1.799,9.849-4.162c29.626-23.948,67.3-38.313,108.273-38.313c40.974,0,78.648,14.365,108.275,38.313
					c3.897,3.15,8.678,4.546,13.37,4.268c4.692-0.278,9.295-2.229,12.839-5.773l0.069-0.069c4.419-4.419,6.296-10.383,5.695-16.097
					c-0.522-4.96-2.912-9.732-7.131-13.141c-36.424-29.439-82.743-47.096-133.117-47.096c-50.373,0-96.692,17.657-133.116,47.097
					c-6.809,5.503-8.854,14.555-5.97,22.219C106.783,217.377,108.292,219.778,110.355,221.841z M153.279,264.765l0.062,0.062
					c2.884,2.884,6.448,4.68,10.2,5.383c5.298,0.992,10.972-0.195,15.637-3.575c18.491-13.396,41.2-21.307,65.729-21.307
					c24.529,0,47.239,7.911,65.73,21.308c5.24,3.796,11.752,4.827,17.576,3.109c3.032-0.895,5.878-2.534,8.26-4.917l0.062-0.062
					c4.915-4.915,6.669-11.711,5.409-17.949c-0.926-4.584-3.48-8.868-7.603-11.882c-25.106-18.352-56.023-29.202-89.434-29.202
					c-33.41,0-64.327,10.849-89.433,29.202c-6.806,4.975-9.336,13.407-7.328,20.945C149.01,259.122,150.714,262.2,153.279,264.765z"
					/>
				<path style="fill:#26B6C3;" d="M282.164,357.656c0,17.342-14.058,31.4-31.4,31.4s-31.4-14.058-31.4-31.4
					c0-17.342,14.058-31.4,31.4-31.4S282.164,340.314,282.164,357.656z M202.682,308.312L202.682,308.312
					c2.219,2.219,4.88,3.853,7.732,4.834c5.006,1.723,10.601,1.44,15.427-1.21c7.404-4.065,15.893-6.384,24.921-6.384
					c9.028,0,17.518,2.319,24.922,6.384c5.604,3.076,12.243,2.964,17.793,0.224c1.955-0.965,3.774-2.255,5.366-3.847l0,0
					c5.01-5.01,6.688-11.877,5.362-18.127c-1.135-5.349-4.468-10.247-9.795-13.145c-12.985-7.065-27.855-11.084-43.649-11.084
					c-15.794,0-30.663,4.019-43.648,11.084c-6.287,3.421-9.798,9.628-10.193,16.074
					C196.592,298.511,198.445,304.075,202.682,308.312z M116.211,221.841l0.069,0.07c4.43,4.43,10.515,6.371,16.359,5.666
					c3.507-0.423,6.926-1.799,9.85-4.162c29.626-23.948,67.3-38.313,108.273-38.313c40.974,0,78.648,14.365,108.275,38.313
					c3.898,3.15,8.678,4.546,13.37,4.268s9.295-2.229,12.839-5.773l0.069-0.069c4.418-4.419,6.296-10.383,5.695-16.097
					c-0.522-4.96-2.912-9.732-7.131-13.141c-36.424-29.439-82.743-47.096-133.117-47.096c-50.373,0-96.691,17.657-133.116,47.097
					c-6.808,5.503-8.854,14.555-5.97,22.219C112.639,217.377,114.148,219.778,116.211,221.841z M159.135,264.765l0.062,0.062
					c2.885,2.884,6.448,4.68,10.2,5.383c5.298,0.992,10.972-0.195,15.637-3.575c18.491-13.396,41.2-21.307,65.729-21.307
					c24.529,0,47.239,7.911,65.73,21.308c5.24,3.796,11.752,4.827,17.576,3.109c3.032-0.895,5.878-2.534,8.261-4.917l0.062-0.062
					c4.915-4.915,6.669-11.711,5.409-17.949c-0.926-4.584-3.48-8.868-7.604-11.882c-25.106-18.352-56.023-29.202-89.434-29.202
					c-33.41,0-64.327,10.849-89.433,29.202c-6.806,4.975-9.336,13.407-7.328,20.945C154.866,259.122,156.57,262.2,159.135,264.765z"
					/>
			</g>
			<g>
				<path style="fill:#494949;" d="M174.104,156.956c0,0,10.246,3.904,23.125-0.381v-12.92l-16.095-1.835l-7.641,5.146
					L174.104,156.956z"/>
				<path style="fill:#EF4B4B;" d="M178.106,188.987c0,0-2.525,12.139,3.613,15.62c0.612,0.347,1.322,0.368,1.926,0.116
					c0.427-0.178,0.801-0.492,1.049-0.924c0.593-1.03,1.044-2.754,0.608-5.585c-0.915-5.948-2.852-9.567-4.336-10.066
					C179.482,187.649,178.106,188.987,178.106,188.987z"/>
				<path style="fill:#FFBB7D;" d="M176.816,183.493l2.171,9.249c0.12,0.513,0.478,0.915,0.934,1.11
					c0.25,0.106,0.53,0.151,0.816,0.116l0,0c0.555-0.066,1.009-0.407,1.243-0.87c0.141-0.279,0.202-0.602,0.157-0.936l-1.324-9.846
					L176.816,183.493z"/>
				<g>
					<path style="fill:#28587C;" d="M177.168,133.249c0,0-0.019-0.099-0.052-0.265l-2.671-0.198L177.168,133.249z"/>
					<path style="fill:#28587C;" d="M197.001,132.785l-2.671,0.198c-0.033,0.167-0.052,0.265-0.052,0.265L197.001,132.785z"/>
					<path style="fill:#FF871A;" d="M200.886,114.03c-4.582-6.988-10.254-6.477-10.254-6.477l-4.91,1.863l-4.91-1.863
						c0,0-5.671-0.511-10.254,6.477c-4.582,6.988-14.201,19.379-11.74,22.954c2.461,3.576,14.024,8.936,14.024,8.936l1.58-3.741
						c0,0-9.916-6.806-9.638-7.635c0.276-0.823,9.864-13.753,9.863-14.364c0.054,0.538,2.115,11.016,2.467,12.802l8.561,0.634v0.007
						l0.046-0.004l0.046,0.004v-0.007l8.561-0.634c0.352-1.787,2.413-12.265,2.467-12.802c-0.001,0.611,9.587,13.541,9.863,14.364
						c0.278,0.829-9.638,7.635-9.638,7.635l1.58,3.741c0,0,11.564-5.361,14.024-8.936
						C215.087,133.409,205.469,121.018,200.886,114.03z"/>
				</g>
				<path style="fill:#C5EEF9;" d="M183.647,104.547c0,0-5.73-0.504-5.654,11.078c0,0,3.628-2.836,7.877-1.622
					c0,0,4.977-0.81,7.411,1.539c0,0,0.333-9.104-5.829-11.123L183.647,104.547z"/>
				<path style="fill:#E59553;" d="M183.274,103.163c-0.001-0.047-1.169,3.967-0.889,5.767c0.28,1.8,2.719,5.451,3.485,5.073
					c0.766-0.377,2.491-4.414,2.494-5.243c0.004-1.102-0.522-3.814-1.542-5.831L183.274,103.163z"/>
				<path style="fill:#494949;" d="M179.08,99.533c-3.611-3.74-2.895-9.036-0.226-9.324c0,0,1.688-5.012,6.507-5.014
					c5.083-0.002,12.146,6.065,6.304,13.998L179.08,99.533z"/>
				<path style="fill:#FFBB7D;" d="M192.029,98.543c-0.544-0.514-1.027-0.089-1.324,0.329c0.121-0.735,0.211-1.535,0.236-2.458
					c0,0-0.945-3.028-2.973-2.58c-2.028,0.448-5.548,2.095-6.81-0.398c0,0-1.942,1.157-1.213,5.308c0,0,0.003,0.023,0.006,0.038
					c-0.3-0.384-0.752-0.715-1.257-0.238c-0.874,0.826,0.515,3.58,1.904,2.502c0.691,1.691,2.056,3.723,4.673,3.901
					c0,0,3.312,0.324,4.876-3.885C191.527,102.095,192.898,99.364,192.029,98.543z"/>
				<path style="fill:#999999;" d="M186.474,129.409h-16.138c-0.541,0-1.022,0.221-1.367,0.573
					c-0.413,0.421-0.631,1.028-0.522,1.666l3.075,18.051c0.077,0.453,0.31,0.846,0.637,1.129c0.338,0.292,0.778,0.466,1.253,0.466
					h13.063h11.856c0.373,0,0.725-0.107,1.022-0.295c0.448-0.282,0.773-0.747,0.868-1.3l3.075-18.051
					c0.091-0.533-0.047-1.045-0.336-1.445c-0.346-0.477-0.907-0.794-1.554-0.794H186.474z"/>
				<path style="fill:#494949;" d="M176.21,186.613c0,0-10.997-35.564-8.174-41.106c3.006-5.902,9.626-4.336,10.818,3.488
					s3.6,36.174,3.6,36.174L176.21,186.613z"/>
				<path style="fill:#EF4B4B;" d="M195.839,188.987c0,0,2.525,12.139-3.612,15.62c-0.612,0.347-1.322,0.368-1.926,0.116
					c-0.427-0.178-0.801-0.492-1.049-0.924c-0.593-1.03-1.044-2.754-0.608-5.585c0.915-5.948,2.852-9.567,4.336-10.066
					C194.462,187.649,195.839,188.987,195.839,188.987z"/>
				<path style="fill:#FFBB7D;" d="M197.128,183.493l-2.171,9.249c-0.12,0.513-0.478,0.915-0.934,1.11
					c-0.25,0.106-0.53,0.151-0.816,0.116l0,0c-0.555-0.066-1.009-0.407-1.243-0.87c-0.141-0.279-0.202-0.602-0.157-0.936
					l1.324-9.846L197.128,183.493z"/>
				<path style="fill:#494949;" d="M197.734,186.613c0,0,10.997-35.564,8.174-41.106c-3.006-5.902-9.626-4.336-10.818,3.488
					s-3.6,36.174-3.6,36.174L197.734,186.613z"/>
			</g>
			<g>
				<path style="fill:#FFBB7D;" d="M284.169,371.591l2.181-1.927c0,0,0.007-1.838,0.535-3.489c0.528-1.651-0.244-2.265,0.509-2.194
					c0.752,0.071,0.817,1.183,0.742,2.023c-0.075,0.839,0.206,0.976,0.77,0.434c0.564-0.542,1.314-3.306,1.885-3.148
					s1.273,1.381,1.214,2.994c-0.059,1.612-0.718,3.958-3.682,5.342l-2.397,2.56L284.169,371.591z"/>
				<path style="fill:#494949;" d="M284.252,370.811l-11.119,7.931c-1.289-0.387-13.496-12.495-13.496-12.495
					c-3.695-3.184-7.15-2.89-7.15-2.89l-4.91,1.863l-4.91-1.863c0,0-5.671-0.511-10.254,6.477
					c-4.582,6.988-14.201,19.379-11.74,22.954c2.461,3.576,14.024,8.936,14.024,8.936l1.58-3.741c0,0-9.916-6.806-9.638-7.635
					c0.276-0.823,9.864-13.753,9.863-14.364c0.055,0.538,2.115,11.016,2.467,12.802l8.561,0.634v0.007l0.046-0.003l0.046,0.003
					v-0.007l8.561-0.634c0.309-1.571,1.939-9.855,2.365-12.201l0.788,0.579c0,0,12.664,8.347,14.082,8.796
					c1.418,0.449,13.669-11.539,13.669-11.539L284.252,370.811z"/>
				<path style="fill:#494949;" d="M241.074,354.997c0,0-2.289-4.625,0.319-8.386c2.803-4.041,10.152-3.196,12.251,0.363
					c2.251,3.817-0.2,8.428-0.2,8.428l-9.248,0.059L241.074,354.997z"/>
				<g>
					<path style="fill:#28587C;" d="M239.023,389.052c0,0-0.019-0.099-0.052-0.265l-2.671-0.198L239.023,389.052z"/>
					<path style="fill:#28587C;" d="M258.856,388.589l-2.671,0.198c-0.033,0.167-0.052,0.265-0.052,0.265L258.856,388.589z"/>
				</g>
				<path style="fill:#EF4B4B;" d="M245.502,360.351c0,0-5.729-0.504-5.654,11.078c0,0,3.628-2.836,7.877-1.622
					c0,0,4.977-0.81,7.411,1.539c0,0,0.333-9.104-5.829-11.123L245.502,360.351z"/>
				<path style="fill:#E59553;" d="M245.13,358.966c-0.001-0.047-1.169,3.967-0.889,5.767c0.28,1.8,2.719,5.451,3.485,5.073
					c0.766-0.377,2.491-4.414,2.494-5.243c0.004-1.102-0.522-3.814-1.542-5.831L245.13,358.966z"/>
				<path style="fill:#FFBB7D;" d="M253.884,354.346c-0.544-0.514-1.027-0.089-1.324,0.329c0.121-0.735,0.211-1.535,0.236-2.458
					c0,0,0.036-2.971-1.992-2.523c-1.884,0.416-3.052,1.872-6.868,0.028c-0.368-0.178-0.785-0.181-1.137-0.033
					c-0.267,0.112-0.496,0.312-0.637,0.589c-0.408,0.802-0.736,2.143-0.363,4.27c0,0,0.003,0.023,0.006,0.038
					c-0.3-0.384-0.753-0.715-1.257-0.238c-0.874,0.826,0.515,3.58,1.904,2.502c0.691,1.691,2.056,3.723,4.673,3.901
					c0,0,3.312,0.324,4.876-3.885C253.383,357.899,254.753,355.168,253.884,354.346z"/>
				<path style="fill:#999999;" d="M248.329,382.897h-16.138c-0.541,0-1.022,0.222-1.367,0.573
					c-0.413,0.421-0.631,1.028-0.522,1.666l3.075,18.051c0.077,0.453,0.31,0.847,0.637,1.129c0.338,0.292,0.778,0.466,1.253,0.466
					h13.063h11.856c0.373,0,0.725-0.108,1.022-0.295c0.448-0.282,0.773-0.746,0.868-1.3l3.075-18.051
					c0.091-0.533-0.047-1.045-0.336-1.445c-0.346-0.478-0.907-0.794-1.554-0.794H248.329z"/>
				<path style="fill:#494949;" d="M226.268,410.117c-0.099-0.133-3.728-0.885-7.887-3.152c-4.159-2.267-6.748-1.147-6.906,1.811
					c-0.157,2.958,3.298,5.585,7.449,5.795c4.151,0.211,5.896,0.604,6.6-0.604C226.229,412.761,226.268,410.117,226.268,410.117z"/>
				<path style="fill:#FFBB7D;" d="M229.31,408.464l-5.174,1.242c-0.476,0.114-0.869,0.4-1.126,0.777
					c-0.265,0.388-0.386,0.873-0.307,1.37l0,0c0.072,0.452,0.298,0.844,0.62,1.127c0.359,0.317,0.837,0.498,1.349,0.474l5.219-0.249
					L229.31,408.464z"/>
				<path style="fill:#D33737;" d="M228.235,413.536c0,0,35.842-2.896,44.159-5.993c8.317-3.097,3.829-11.045-2.639-10.221
					c-5.575,0.711-42.648,11.314-42.648,11.314L228.235,413.536z"/>
				<path style="fill:#494949;" d="M270.233,410.117c0.099-0.133,3.728-0.885,7.887-3.152c4.159-2.267,6.748-1.147,6.906,1.811
					c0.157,2.958-3.298,5.585-7.449,5.795c-4.151,0.211-5.896,0.604-6.6-0.604C270.272,412.761,270.233,410.117,270.233,410.117z"/>
				<path style="fill:#FFBB7D;" d="M267.191,408.464l5.174,1.242c0.476,0.114,0.869,0.4,1.126,0.777
					c0.265,0.388,0.386,0.873,0.307,1.37l0,0c-0.072,0.452-0.298,0.844-0.62,1.127c-0.359,0.317-0.837,0.498-1.349,0.474
					l-5.219-0.249L267.191,408.464z"/>
				<path style="fill:#EF4B4B;" d="M268.266,413.536c0,0-35.842-2.896-44.159-5.993c-8.317-3.097-3.829-11.045,2.639-10.221
					c5.576,0.711,42.648,11.314,42.648,11.314L268.266,413.536z"/>
			</g>
			<g>
				<path style="fill:#FFBB7D;" d="M318.509,218.334l0.804,3.059c0,0-2.239,2.942-1.256,4.179c0.982,1.237,1.459-1.774,2.361-1.681
					c0.902,0.093,7.039,4.894,7.152,3.278c0.253-3.636-3.687-5.257-4.88-6.665c-1.194-1.408-0.714-0.586-0.714-0.586l-0.608-3.394
					L318.509,218.334z"/>
				<path style="fill:#494949;" d="M273.646,265.54c0,0-9.125,9.762-6.951,11.466c3.837,3.007,11.773-5.723,11.987-7.349
					c0.383-2.912-0.775-5.339-2.252-5.138C274.952,264.72,273.646,265.54,273.646,265.54z"/>
				<path style="fill:#494949;" d="M242.698,202.227c0,0-9.795-1.333-13.247-0.484c-3.452,0.848-0.609,2.465,5.963,5.456
					c6.214,2.828,7.285,2.749,8.369,1.265c1.221-1.672,2.342-2.935,1.276-3.776C243.992,203.846,242.698,202.227,242.698,202.227z"
					/>
				<path style="fill:#FFBB7D;" d="M245.458,199.652l-4.464,3.885c-0.364,0.317-0.555,0.755-0.57,1.199
					c-0.015,0.456,0.156,0.917,0.515,1.259l0,0c0.405,0.386,0.96,0.53,1.476,0.425c0.266-0.054,0.522-0.173,0.742-0.359l7.39-5.531
					L245.458,199.652z"/>
				<path style="fill:#FFBB7D;" d="M272.75,259.768l0.633,7.428c0.046,0.541,0.352,1.002,0.788,1.264
					c0.25,0.15,0.543,0.236,0.855,0.233c0.016,0,0.032,0,0.048,0c0.422-0.003,0.805-0.165,1.094-0.428
					c0.326-0.298,0.531-0.726,0.531-1.204c0-2.582,0-7.345,0-7.345L272.75,259.768z"/>
				<path style="fill:#F2F2F2;" d="M259.846,158.769l-2.605,0.642c-0.15,0.037-0.302,0.026-0.438-0.023
					c-0.212-0.077-0.387-0.247-0.462-0.476l-3.185-9.692c-0.079-0.24-0.031-0.487,0.102-0.675c0.111-0.156,0.281-0.271,0.487-0.307
					l5.044-0.881c0.094-0.016,0.187-0.015,0.276,0.003c0.267,0.052,0.494,0.247,0.578,0.521l2.245,7.302
					c0.022,0.072,0.034,0.147,0.034,0.223v2.168c0,0.333-0.217,0.626-0.535,0.724l-1.499,0.461
					C259.874,158.762,259.86,158.766,259.846,158.769z"/>
				<path style="fill:#FFBB7D;" d="M262.804,161.919l-0.619-2.864c0,0,1.597-2.336,1.201-3.188
					c-0.396-0.852-2.049-4.534-2.312-3.484c-0.263,1.05,0.949,2.203,0.464,3.484c-0.485,1.281-2.03,0.961-1.672,2.896l-2.56,0.631
					c0,0,0.479,1.351,2.194,1.127l0.583,1.856L262.804,161.919z"/>
				<path style="fill:#494949;" d="M286.335,199.287c0,0-11.412-11.305-17.174-16.154c-4.723-3.975-25.056,16.374-25.056,16.374
					l4.474,3.066c0,0,15.161-9.923,17.86-12.528c6.485,5.106,12.238,16.966,20.818,20.409c0,0-14.407,18.832-15.572,25.817
					c-1.165,6.985,0,25.083,0,25.083h7.567c0,0,0.159-20.638,0.476-24.131c0,0,18.323-20.134,20.651-24.274s2.027-8.056,2.027-8.056
					l-5.532-7.643L286.335,199.287z"/>
				<path style="fill:#15667D;" d="M287.256,176.989c0,0,0.797,11.159-0.921,22.298c0,0,9.887,7.098,16.07,5.606
					c0,0,2.016-16.834,2.574-23.408c0,0,10.628,29.803,12.779,38.025c0,0,3.275,0.449,4.931-1.176c0,0-10.572-40.372-14.434-44.85
					c-3.862-4.478-11.152-7.029-11.152-7.029h-3.419c0,0-20.679,9.766-22.692,9.789c-2.014,0.023-7.532-15.722-7.532-15.722
					l-4.769,1.137c0,0,6.254,19.619,9.705,20.658C271.846,183.355,287.256,176.989,287.256,176.989z"/>
				<path style="fill:#C5EEF9;" d="M293.602,166.789c0,0-2.233,1.634-0.69,7.033c0,0,5.947-2.629,6.018-5.328
					C299.001,165.794,295.236,164.871,293.602,166.789z"/>
				<path style="fill:#E59553;" d="M292.257,164.675c0,0,1.066,1.304,1.426,6.385c0,0,3.805-0.965,4.18-3.562
					c0,0-0.852-2.253-1.048-4.854C296.618,160.043,292.257,164.675,292.257,164.675z"/>
				<path style="fill:#EF4B4B;" d="M287.256,159.771c0,0-3.05,0.415-4.343-3.903s2.971-7.679,5.183-6.232
					c0,0,1.86-4.834,7.902-3.189c5.838,1.589,10.82,11.244,2.927,15.932l-6.014,0.756L287.256,159.771z"/>
				<path style="fill:#FFBB7D;" d="M286.012,156.345c0,0-0.935,6.378,2.653,8.994s7.576,0.156,8.18-1.973
					c0,0,2.802,0.12,3.057-1.815c0.256-1.945-2.106-1.187-2.106-1.187l0.69-2.404c0,0-7.544-2.56-7.97-6.018
					C290.515,151.942,286.282,152.277,286.012,156.345z"/>
			</g>
			<g>
				<path style="fill:#0F5A6B;" d="M154.041,403.031c0,0,1.204-0.549,1.626,0c0.422,0.549,2.942,6.246,2.745,6.8
					c-0.197,0.553-5.134,3.273-5.134,3.273l-4.566-0.706L154.041,403.031z"/>
				<polygon style="fill:#E59553;" points="147.555,398.394 150.959,405.395 152.882,399.083 150.74,393.813 				"/>
				<path style="fill:#15667D;" d="M151.768,406.197c0,0-1.945-0.028-2.316,1.083c-0.74,2.212-9.308,2.965-9.308,5.687
					c0,3.094,10.815,1.336,13.897,1.386c2.212,0.036,1.673-0.954,1.626-3.992c-0.048-3.038,0.215-4.106-0.771-4.395
					C153.911,405.676,151.768,406.197,151.768,406.197z"/>
				<path style="fill:#FFBB7D;" d="M150.363,398.394v8.154c0,0.833,0.484,1.557,1.191,1.9c0.25,0.121,0.528,0.194,0.822,0.208l0,0
					c0.584,0.026,1.122-0.187,1.521-0.552c0.399-0.366,0.658-0.884,0.682-1.468l0.317-7.681L150.363,398.394z"/>
				<path style="fill:#D33737;" d="M146.804,331.811c0,0-13.82,27.302-12.465,35.321c1.355,8.019,12.924,33.087,12.924,33.087
					l5.001-1.65l-1.118-4.444c0,0-7.633-26.931-6.967-29.678c0.665-2.747,10.718-21.069,10.718-21.069v-6.651l-6.158-8.054
					L146.804,331.811z"/>
				<path style="fill:#EF4B4B;" d="M159.759,320.176c-0.145,0.434,5.777,4.984,3.421,17.951c-1.708,9.403-7.365,61.628-7.365,61.628
					l-6.904,0.126c0,0-2.308-52.744,0.779-62.431C152.777,327.763,159.759,320.176,159.759,320.176z"/>
				<path style="fill:#999999;" d="M127.048,303.226l-0.862,0.944c-0.179,0.196-0.445,0.267-0.687,0.205
					c-0.101-0.026-0.198-0.075-0.282-0.147l-4.676-4.024c-0.205-0.177-0.281-0.445-0.224-0.688c0.03-0.126,0.095-0.246,0.196-0.343
					l2.463-2.357c0.133-0.128,0.305-0.192,0.477-0.193c0.172-0.001,0.344,0.061,0.479,0.187l3.744,3.491
					c0.201,0.188,0.273,0.476,0.184,0.736l-0.669,1.945C127.161,303.073,127.112,303.156,127.048,303.226z"/>
				<path style="fill:#FFBB7D;" d="M146.11,293.553c0,0-6.119,13.677-7.124,14.26c-1.005,0.582-10.549-5.757-10.549-5.757
					l-1.133,2.392c0,0,8.748,6.737,11.683,7.596c2.935,0.859,8.441-11.682,8.441-11.682L146.11,293.553z"/>
				<path style="fill:#15667D;" d="M148.074,288.911c0,0-5.086,5.613-4.68,11.451c0.406,5.838,4.725,9.964,4.158,15.588
					c-0.566,5.624-6.75,17.063-7.066,24.977c0,0,19.055-0.898,25.049-11.795c0,0-6.746-12.792-6.374-20.044
					c0.373-7.253-1.663-18.46-2.886-19.528c-1.223-1.068-4.863-1.066-4.863-1.066L148.074,288.911z"/>
				<path style="fill:#E59553;" d="M145.167,286.915l1.049,1.759c0,0,0.726-0.699,1.343,0.237c0.617,0.936-2.504,3.581-1.196,7.452
					c0,0,5.349-4.952,5.633-8.708c0.285-3.756-3.923-6.033-3.923-6.033l-2.907,3.472V286.915z"/>
				<path style="fill:#FF871A;" d="M143.385,287.344c0,0-3.837,3.133-6.541,0.306c-2.704-2.827-0.868-9.027,1.108-11.462
					c1.976-2.435,5.35-5.187,8.566-4.561c4.099,0.797,12.795,8.082,11.211,12.626c-1.584,4.544-6.981,4.739-6.981,4.739
					s-0.857-3.311-3.196-4.354C145.213,283.595,143.385,287.344,143.385,287.344z"/>
				<path style="fill:#FFBB7D;" d="M138.917,279.354c0,0-0.678,4.787,1.569,7.165c2.247,2.378,3.832,2.719,5.73,2.155
					c1.898-0.564,2.528-2.954,2.107-4.491c0,0,1.467-0.972,1.038-2.474c-0.429-1.502-1.757-0.787-1.809,0.215l-0.851-2.596
					C146.702,279.327,140.757,282.021,138.917,279.354z"/>
				<path style="fill:#FFBB7D;" d="M156.276,289.559c0,0,12.941,13.848,13.22,16.548c0.279,2.7-5.047,17.625-5.047,17.625
					l-2.217-1.497c0,0,3.726-15.143,2.609-16.613c-1.117-1.47-11.132-10.779-11.566-13.415
					C152.772,289.147,154.611,288.493,156.276,289.559z"/>
				<path style="fill:#FFBB7D;" d="M162.232,322.235c0,0-1.266-0.634-2.439-0.195c-1.173,0.439-2.575,1.665-2.063,2.628
					c0.511,0.962,3.018,0.186,4.666,0.349c1.648,0.163,2.053-1.284,2.053-1.284l-0.929-1.692L162.232,322.235z"/>
				<path style="fill:#FFBB7D;" d="M128.436,302.055c0,0,0.428-1.693-0.787-1.964c-1-0.223-1.936-0.593-2.091-0.241
					c-0.208,0.47,0.15,0.824,1.027,1.025c0.732,0.167,0.598,0.32,0.598,0.32s-0.409,1.437-0.038,1.925l-0.985,1.163l1.143,0.165
					l1.155-0.638L128.436,302.055z"/>
			</g>
			<g>
				<path style="fill:#494949;" d="M347.273,405.344c0,0,1.584-1.056,2.258,0c0.674,1.056,1.607,3.374,3.525,4.074
					c1.918,0.7,6.907,2.648,6.669,4.359c-0.277,1.995-17.72,0.717-18.04-0.72c-0.32-1.438,0.278-7.257,1.32-7.923
					c1.041-0.666,2.906,1.046,2.906,1.046L347.273,405.344z"/>
				<path style="fill:#494949;" d="M374.054,403.758c0,0,1.512-1.157,2.253-0.148c0.741,1.01,1.824,3.261,3.784,3.835
					c1.96,0.573,7.065,2.191,6.94,3.914c-0.146,2.009-17.635,1.874-18.049,0.46c-0.414-1.414-0.197-7.259,0.799-7.992
					c0.996-0.733,2.968,0.853,2.968,0.853L374.054,403.758z"/>
				<path style="fill:#FFBB7D;" d="M370.204,397.849l1.234,8.175c0.083,0.549,0.386,1.009,0.804,1.304
					c0.419,0.296,0.953,0.428,1.498,0.323l0,0c0.555-0.107,1.016-0.442,1.295-0.895c0.196-0.318,0.303-0.695,0.289-1.092
					l-0.303-8.865L370.204,397.849z"/>
				<path style="fill:#FFBB7D;" d="M345.183,396.201l-1.44,10.728c-0.088,0.653,0.159,1.28,0.614,1.699
					c0.239,0.22,0.536,0.383,0.873,0.463l0.412,0.098c0.578,0.137,1.154,0.002,1.597-0.319c0.39-0.282,0.678-0.709,0.774-1.222
					l2.154-11.447H345.183z"/>
				<path style="fill:#FF871A;" d="M346.735,327.4c0,0-1.825,1.588,0.063,20.544c1.888,18.956-3.072,50.957-3.072,50.957
					s4.398,1.135,7.834,1.215c0,0,7.587-28.428,9.429-49.429c0,0,5.544,41.781,7.607,49.491c0,0,4.161,1.852,7.902-1.024
					c0,0-1.098-55.329-7.383-70.45S346.735,327.4,346.735,327.4z"/>
				<path style="fill:#999999;" d="M381.271,283.05l3.666-13.302c0.064-0.233,0.198-0.429,0.374-0.572
					c0.233-0.188,0.539-0.282,0.855-0.239l8.314,1.129c0.341,0.046,0.622,0.24,0.791,0.505c0.17,0.265,0.229,0.6,0.128,0.93
					l-3.945,12.964c-0.078,0.255-0.24,0.465-0.449,0.605c-0.209,0.14-0.465,0.209-0.731,0.183l-8.034-0.791
					c-0.374-0.037-0.681-0.251-0.855-0.546C381.238,283.664,381.187,283.357,381.271,283.05z"/>
				<path style="fill:#FFBB7D;" d="M374.234,299.19c0,0,6.807-7.079,9.361-13.685l3.342,1.671c0,0-6.757,17.817-11.832,19.699
					c-5.075,1.882-8.168-2.931-8.168-2.931L374.234,299.19z"/>
				<path style="fill:#494949;" d="M353.444,281.118c0,0-12.173,2.587-13.7,22.614l2.727,0.078c0,0,1.382,2.234,1.273,7.328
					c-0.139,6.526-1.653,16.428-0.199,18.252c2.588,3.247,25.701,5.55,28.333,0.39c2.632-5.16-1.136-26.996-1.136-26.996
					l3.492-3.593c0,0-7.623-15.966-12.162-17.376C357.532,280.405,353.444,281.118,353.444,281.118z"/>
				<path style="fill:#494949;" d="M364.566,272.334c0,0,2.34-1.826,1.024-4.609c0,0,1.451-2.13-0.453-4.276
					c-1.828-2.061-5.031-1.632-6.53-0.281c0,0-5.66-1.469-7.781,4.557c0,0-2.759,1.362-1.265,5.62
					c1.494,4.258-1.468,6.195-1.468,6.195s4.029,3.601,8.677,0.14C359.756,277.456,364.566,272.334,364.566,272.334z"/>
				<path style="fill:#15667D;" d="M355.329,279.866c0,0-2.953-0.29-3.54,2.696c-0.588,2.987,1.103,9.45,4.759,12.728
					c0,0,0.537-6.219,3.878-7.587c0,0,3.873,1.163,5.693,4.444c0,0-1.171-11.171-5.839-12.289
					C355.611,278.741,355.329,279.866,355.329,279.866z"/>
				<path style="fill:#E59553;" d="M361.161,278.389c0,0-1.881,2.846,0.374,6.684c0,0-0.639,1.433-1.109,2.63
					c0,0-4.805-1.777-5.694-4.749c0,0,0.638-4.728,0-6.536C354.094,274.609,361.161,278.389,361.161,278.389z"/>
				<path style="fill:#FFBB7D;" d="M364.221,270.131c0,0,1.497,7.739-2.687,9.781c-4.183,2.043-6.605-0.774-7.432-3.595
					c0,0-1.925,0.06-2.196-1.413c-0.251-1.367,0.702-2.017,1.808-1.232c0,0,0.549-2.25-0.539-3.465
					C353.176,270.208,359.543,264.671,364.221,270.131z"/>
				<path style="fill:#FFBB7D;" d="M342.47,303.81c0,0-1.089,21.361,10.139,36.399l2.664-2.986c0,0-8.23-15.214-6.783-33.413H342.47
					z"/>
				<path style="fill:#FFBB7D;" d="M386.937,287.177c0,0,3.109-1.593,3.616-3.169c0.466-1.447,1.535-4.689,0.327-5.119
					c-1.208-0.43-2.584-0.721-3.036,1.041c-0.453,1.761-1.458,2.966-2.369,3.61c-0.911,0.644-1.792,0.204-1.88,1.965
					C383.507,287.267,386.937,287.177,386.937,287.177z"/>
			</g>
		</g>
	</g>
</g>
<g id="DESIGNED_BY_FREEPIK">
	<g>
		<g id="XMLID_29_">
			<g id="XMLID_48_">
				<path id="XMLID_56_" style="fill:#9EB7C7;" d="M260.104,465.465c-0.432,0.443-0.803,0.931-1.108,1.453l-0.465-0.241
					c-0.067-0.298-0.349-0.503-0.659-0.466c-0.331,0.039-0.568,0.339-0.529,0.67c0.039,0.331,0.339,0.568,0.67,0.529
					c0.066-0.008,0.127-0.026,0.184-0.052l0.451,0.234c-0.251,0.554-0.433,1.139-0.539,1.744l0.747,0.132
					c0.23-1.306,0.85-2.507,1.792-3.473L260.104,465.465z"/>
				<path id="XMLID_55_" style="fill:#9EB7C7;" d="M265.592,463.163c-0.171,0-0.341,0.006-0.51,0.017l-0.074-0.626
					c0.188-0.149,0.296-0.389,0.266-0.645c-0.046-0.393-0.402-0.674-0.795-0.628c-0.393,0.046-0.674,0.402-0.628,0.795
					c0.03,0.254,0.189,0.461,0.404,0.564l0.074,0.624c-0.714,0.116-1.403,0.332-2.06,0.646l0.327,0.684
					c0.934-0.447,1.942-0.673,2.995-0.673c0.496,0,0.993,0.053,1.475,0.158l0.161-0.741
					C266.693,463.222,266.142,463.163,265.592,463.163z"/>
				<path id="XMLID_54_" style="fill:#9EB7C7;" d="M272.194,465.711c0.331-0.04,0.566-0.341,0.525-0.672
					c-0.041-0.331-0.342-0.566-0.672-0.526c-0.309,0.038-0.535,0.304-0.53,0.609l-0.416,0.363c-0.418-0.43-0.889-0.813-1.408-1.139
					l-0.404,0.641c1.134,0.715,2.021,1.726,2.563,2.925l0.69-0.313c-0.251-0.554-0.567-1.072-0.942-1.545l0.402-0.351
					C272.065,465.716,272.129,465.719,272.194,465.711z"/>
				<path id="XMLID_53_" style="fill:#9EB7C7;" d="M265.044,473.372c-0.386,0.023-0.775,0.035-1.157,0.035
					c-0.88,0-1.733-0.061-2.478-0.179c-0.39-0.062-0.846-0.155-1.27-0.292c1.046,1.861,3.069,3.125,5.388,3.125
					c2.855,0,5.262-1.916,5.95-4.504c-0.682,0.449-1.505,0.825-2.459,1.123C267.839,473.047,266.464,473.286,265.044,473.372z"/>
				<path id="XMLID_49_" style="fill:#9EB7C7;" d="M265.592,464.68c-3.352,0-6.08,2.666-6.08,5.943c0,0.426,0.046,0.849,0.137,1.261
					c0.674,0.483,2.706,0.89,5.348,0.731c2.879-0.173,5.297-0.957,6.672-2.159c-0.005-0.195-0.021-0.39-0.045-0.582
					C271.244,466.913,268.65,464.68,265.592,464.68z M263.432,471.194c-1.02,0-1.85-0.83-1.85-1.85c0-1.02,0.83-1.85,1.85-1.85
					c1.02,0,1.85,0.83,1.85,1.85C265.282,470.365,264.452,471.194,263.432,471.194z M268.17,470.286c-0.75,0-1.36-0.61-1.36-1.36
					s0.61-1.361,1.36-1.361s1.36,0.61,1.36,1.361S268.92,470.286,268.17,470.286z"/>
			</g>
			<path id="XMLID_46_" style="fill:#9EB7C7;" d="M281.595,466.547c-0.295-0.116-0.806-0.309-1.383-0.237
				c-0.551,0.069-0.844,0.341-0.844,1.007v0.866h2.228v1.717h-2.228v5.455h-1.932v-5.455h-1.34v-1.717h1.34v-0.888
				c0-1.68,0.896-2.783,2.568-2.783c0.642,0,1.157,0.122,1.59,0.308L281.595,466.547z"/>
			<path id="XMLID_44_" style="fill:#9EB7C7;" d="M286.298,469.879c-0.177-0.03-0.358-0.046-0.526-0.046
				c-0.896,0-1.51,0.548-1.51,1.614v3.908h-1.932v-7.172h1.873v0.785c0.451-0.673,1.14-0.977,2.021-0.977
				c0.414,0,0.848,0.128,1.094,0.337L286.298,469.879z"/>
			<path id="XMLID_41_" style="fill:#9EB7C7;" d="M293.965,471.757c0,0.222-0.015,0.489-0.037,0.651h-5.085
				c0.207,1.036,0.932,1.488,1.843,1.488c0.622,0,1.295-0.252,1.813-0.688l1.132,1.243c-0.814,0.748-1.85,1.088-3.057,1.088
				c-2.198,0-3.723-1.495-3.723-3.753c0-2.258,1.48-3.797,3.627-3.797C292.544,467.99,293.958,469.522,293.965,471.757z
				 M288.851,471.091h3.175c-0.177-0.918-0.733-1.436-1.562-1.436C289.554,469.655,289.021,470.203,288.851,471.091z"/>
			<path id="XMLID_38_" style="fill:#9EB7C7;" d="M301.618,471.757c0,0.222-0.015,0.489-0.037,0.651h-5.085
				c0.207,1.036,0.933,1.488,1.843,1.488c0.622,0,1.295-0.252,1.813-0.688l1.133,1.243c-0.814,0.748-1.85,1.088-3.057,1.088
				c-2.198,0-3.723-1.495-3.723-3.753c0-2.258,1.48-3.797,3.627-3.797C300.197,467.99,301.611,469.522,301.618,471.757z
				 M296.504,471.091h3.175c-0.178-0.918-0.733-1.436-1.562-1.436C297.207,469.655,296.674,470.203,296.504,471.091z"/>
			<path id="XMLID_35_" style="fill:#9EB7C7;" d="M309.964,471.764c0,2.154-1.495,3.775-3.471,3.775
				c-0.962,0-1.643-0.378-2.109-0.933v3.708h-1.924v-10.133h1.887v0.792c0.466-0.585,1.155-0.984,2.139-0.984
				C308.469,467.99,309.964,469.61,309.964,471.764z M304.287,471.764c0,1.132,0.747,1.976,1.843,1.976
				c1.14,0,1.85-0.881,1.85-1.976c0-1.095-0.71-1.976-1.85-1.976C305.035,469.788,304.287,470.632,304.287,471.764z"/>
			<path id="XMLID_32_" style="fill:#9EB7C7;" d="M313.068,465.836c0,0.696-0.54,1.229-1.236,1.229
				c-0.696,0-1.229-0.533-1.229-1.229c0-0.696,0.533-1.243,1.229-1.243C312.527,464.592,313.068,465.14,313.068,465.836z
				 M312.809,475.354h-1.932v-7.172h1.932V475.354z"/>
			<path id="XMLID_30_" style="fill:#9EB7C7;" d="M316.032,470.736l2.702-2.554h2.368l-3.479,3.375l3.501,3.797h-2.376l-2.716-2.901
				v2.901H314.1v-10.658h1.932V470.736z"/>
		</g>
		<g>
			<path style="fill:#9EB7C7;" d="M184.412,475.289v-1.055c-0.527,0.718-1.391,1.23-2.388,1.23c-1.846,0-3.149-1.406-3.149-3.706
				c0-2.256,1.289-3.721,3.149-3.721c0.952,0,1.816,0.469,2.388,1.245v-3.765h1.099v9.77H184.412z M184.412,473.37v-3.208
				c-0.396-0.615-1.245-1.143-2.124-1.143c-1.421,0-2.27,1.172-2.27,2.739c0,1.567,0.85,2.724,2.27,2.724
				C183.168,474.483,184.017,473.986,184.412,473.37z"/>
			<path style="fill:#9EB7C7;" d="M186.932,471.744c0-2.051,1.465-3.706,3.486-3.706c2.139,0,3.398,1.67,3.398,3.794v0.279h-5.727
				c0.088,1.333,1.025,2.446,2.549,2.446c0.805,0,1.626-0.322,2.182-0.894l0.527,0.718c-0.703,0.703-1.655,1.084-2.812,1.084
				C188.44,475.465,186.932,473.956,186.932,471.744z M190.403,468.947c-1.509,0-2.256,1.274-2.314,2.358h4.643
				C192.718,470.25,192.014,468.947,190.403,468.947z"/>
			<path style="fill:#9EB7C7;" d="M194.607,474.351l0.571-0.791c0.469,0.542,1.362,1.011,2.329,1.011c1.084,0,1.67-0.513,1.67-1.216
				c0-1.714-4.38-0.659-4.38-3.281c0-1.098,0.952-2.036,2.636-2.036c1.201,0,2.051,0.454,2.622,1.026l-0.513,0.762
				c-0.424-0.513-1.201-0.894-2.109-0.894c-0.967,0-1.567,0.483-1.567,1.113c0,1.552,4.38,0.527,4.38,3.281
				c0,1.187-0.952,2.138-2.783,2.138C196.306,475.465,195.324,475.113,194.607,474.351z"/>
			<path style="fill:#9EB7C7;" d="M201.477,466.471c0-0.41,0.337-0.747,0.732-0.747c0.41,0,0.747,0.337,0.747,0.747
				c0,0.41-0.337,0.732-0.747,0.732C201.814,467.203,201.477,466.881,201.477,466.471z M201.667,475.289v-7.075h1.099v7.075H201.667
				z"/>
			<path style="fill:#9EB7C7;" d="M204.582,477.105l0.556-0.82c0.586,0.703,1.289,0.967,2.3,0.967c1.172,0,2.27-0.571,2.27-2.124
				v-1.011c-0.513,0.718-1.377,1.26-2.373,1.26c-1.845,0-3.149-1.377-3.149-3.662c0-2.27,1.289-3.677,3.149-3.677
				c0.952,0,1.802,0.469,2.373,1.245v-1.069h1.098v6.87c0,2.344-1.641,3.076-3.369,3.076
				C206.237,478.16,205.417,477.926,204.582,477.105z M209.709,473.253v-3.091c-0.381-0.615-1.23-1.143-2.109-1.143
				c-1.421,0-2.27,1.128-2.27,2.695c0,1.553,0.849,2.695,2.27,2.695C208.478,474.41,209.328,473.868,209.709,473.253z"/>
			<path style="fill:#9EB7C7;" d="M217.413,475.289v-4.629c0-1.245-0.63-1.641-1.582-1.641c-0.865,0-1.685,0.527-2.095,1.099v5.17
				h-1.099v-7.075h1.099v1.025c0.498-0.586,1.464-1.201,2.519-1.201c1.48,0,2.256,0.747,2.256,2.285v4.966H217.413z"/>
			<path style="fill:#9EB7C7;" d="M219.932,471.744c0-2.051,1.465-3.706,3.486-3.706c2.138,0,3.398,1.67,3.398,3.794v0.279h-5.727
				c0.088,1.333,1.025,2.446,2.549,2.446c0.806,0,1.626-0.322,2.183-0.894l0.527,0.718c-0.703,0.703-1.655,1.084-2.813,1.084
				C221.441,475.465,219.932,473.956,219.932,471.744z M223.404,468.947c-1.509,0-2.256,1.274-2.314,2.358h4.643
				C225.718,470.25,225.015,468.947,223.404,468.947z"/>
			<path style="fill:#9EB7C7;" d="M233.35,475.289v-1.055c-0.527,0.718-1.391,1.23-2.388,1.23c-1.846,0-3.149-1.406-3.149-3.706
				c0-2.256,1.289-3.721,3.149-3.721c0.952,0,1.817,0.469,2.388,1.245v-3.765h1.098v9.77H233.35z M233.35,473.37v-3.208
				c-0.396-0.615-1.245-1.143-2.124-1.143c-1.421,0-2.27,1.172-2.27,2.739c0,1.567,0.85,2.724,2.27,2.724
				C232.105,474.483,232.954,473.986,233.35,473.37z"/>
			<path style="fill:#9EB7C7;" d="M239.692,475.289v-9.77h1.098v3.765c0.572-0.776,1.421-1.245,2.388-1.245
				c1.845,0,3.149,1.465,3.149,3.721c0,2.299-1.304,3.706-3.149,3.706c-0.996,0-1.86-0.513-2.388-1.23v1.055H239.692z
				 M242.9,474.483c1.436,0,2.285-1.157,2.285-2.724c0-1.568-0.85-2.739-2.285-2.739c-0.864,0-1.728,0.527-2.109,1.143v3.208
				C241.171,473.986,242.036,474.483,242.9,474.483z"/>
			<path style="fill:#9EB7C7;" d="M247.528,477.061c0.161,0.073,0.425,0.117,0.601,0.117c0.483,0,0.805-0.161,1.055-0.747
				l0.469-1.069l-2.959-7.148h1.187l2.358,5.8l2.344-5.8h1.201l-3.545,8.51c-0.425,1.025-1.143,1.421-2.08,1.435
				c-0.234,0-0.601-0.044-0.805-0.103L247.528,477.061z"/>
		</g>
	</g>
</g>
</svg>
